<?xml version="1.0" encoding="UTF-8"?>
<svg xmlns="http://www.w3.org/2000/svg" viewBox="0 0 533.47 825.97">
  <defs>
    <style>
      .cls-1 {
        fill: #f3c25f;
      }

      .cls-2 {
        fill: #9eb4a5;
      }
    </style>
  </defs>
  <g id="Vektorebene">
    <path class="cls-1" d="M271.39,484.37c-2.94-.87-5.34-3.14-7.46-5.3-5.43,2.47-7.49-3.76-8.59-7.83-.61,.46-1.29,.78-2,.94-.23,.07-.47,.13-.71,.17-.25,.55-.58,1.05-1,1.47-.77,.77-1.76,1.29-2.8,1.53-11.39,14.65-29.94-28.13-31.82-36.78-3.4-14.03-4.77-28.74-2.97-43.1,.15-3.02,3.38-5.31,6.26-4.3,.18-.85,.6-1.62,1.19-2.24-.48-5.25-5.66-13.4-.09-17.15,7.77-3.54,9.35,8.93,11.92,13.72,.23-.15,.47-.28,.72-.39,.5-.72,1.2-1.31,2.06-1.67,1.51-.64,3.27-.44,4.6,.45,1.38-2.1,4.26-2.99,6.5-1.7,.43-.14,.88-.21,1.35-.21-.07-1.5,.75-2.89,1.93-3.77-.5-8.14,9.18-8.2,10.47-.58-.04-.21-.08-.43-.11-.64-.2-1.13,.08-2.25,.67-3.19-.2-2.2,.04-4.38,2.07-5.78,.92-.64,2.01-.97,3.08-.97-1.38-5.96,4.14-10.95,8.96-6.01,1.27,1.69,1.73,3.79,2.34,5.78,4.68-1.86,7.39,3.02,8.25,6.9,2.57-1.56,5.91-.4,7.07,2.33,10.04-5.96,12.5,17.56,14.67,23.62,1.73,7.19,3.44,14.37,5.73,21.41,.67,1.88,1.39,3.74,2.16,5.58,1.37,3.11-1.16,6.92-4.58,6.74,.48,2.17,.94,4.34,1.29,6.52,.37,2.28-1.12,4.53-3.26,5.26,1.23,3.86,2.54,7.71,3.88,11.53,.73,2.29-.64,4.86-2.8,5.76-2.73,1.17-6.04-.51-6.68-3.45-.11,.35-.26,.7-.46,1.06-.79,1.41-2.22,2.2-3.71,2.35,.52,2.23,.84,4.56,.23,6.75-.61,2.26-2.64,3.54-4.83,3.52,1.32,3.32-1.3,5.82-3.85,7.44-2.34,1.5-5.53,.35-6.82-1.97-.4,.54-.9,.99-1.46,1.32-.43,.25-.88,.42-1.35,.53-.79,1.32-2.1,2.19-3.55,2.4-1.5,1.96-4.21,2.62-6.54,1.98Z"/>
    <path class="cls-1" d="M307.74,508.49c-.9-.61-1.73-1.27-2.54-1.97-3.31,.61-6.8-.07-9.72-1.68-2.51-.25-4.97-1.26-7.15-2.56-5.99,5.26-13.83,.6-18.31-4.43-6.57-.37-12.63-4.54-15.98-10.07-4.88-3.61-8.68-9.12-10.12-15.04-2.83-2.3-4.81-5.56-5.59-9.18-1.26-4.93,4.92-8.27,8.34-4.51,4.99-6.28,15.53-2.93,17.26,4.46,.54,.37,1.06,.77,1.57,1.18,.62,.09,1.23,.24,1.83,.44,2.69-.84,5.46-.24,8.04,.95,1.94-.63,3.95-.59,6.01,.13,2.09,.72,3.98,1.83,5.69,3.16,.3-.24,.62-.45,.95-.64,.11-.07,.24-.13,.35-.2,.09-.15,.18-.3,.27-.45,1.25-2,3.38-2.66,5.57-2.77,.42-.61,.87-1.18,1.37-1.72,1.63-1.72,3.55-2.75,5.82-3.27,0,0,0-.03-.02-.05-1.05-2.64-2.14-5.27-3.28-7.87-1.14,4.54-8.22,4.47-9.27-.13t-.02,0c-3.81-12.07-7.11-24.28-10.1-36.59-.72-4.56-3.73-9.37-2.04-13.96-3.16,2.48-7.99-.23-7.71-4.2-.22-.12-.44-.26-.64-.39-.27,.17-.55,.32-.84,.45-.7,3.11-4.55,4.7-7.26,3.07-1.25-.73-2.2-2.08-2.36-3.53-.99-7.19,2.4-14.56,.48-21.58-1.73,7.88-1.06,16.57-4.26,24-1.18,1.54-3.26,2.23-5.14,1.71-6.39-2.38-2.74-11.41-2.7-16.52-1.48,3.78-1.68,8.4-4.39,11.54-4.82,4-9.44-1.2-8.88-6.38-.37,.98-.74,1.94-1.12,2.92-1.36,3.45-2.74,7.25-5.34,9.97-1.12,5.15,.04,12.09-4.58,15.64-2.03,1.19-4.69,.87-6.36-.8-2.82-3.16-1.93-7.9-2.03-11.8-.74-1.73-.96-3.78-1.11-5.59-.35-10.58,1.53-21.34,5.72-31.06,1.12-5.75,2.44-11.63,4.97-16.95,5.61-8.89,11.19-28.04,24.13-26.48,.89-7.61,5.68-14.7,12.22-18.51,5.6-5.3,13.64-12.84,21.7-8.17,2.89-1.27,6.16-2.4,9.37-2.55,.7,20.03,8.32,39.58,21.32,54.82,.29,7.57-.55,16-7.84,14.59,.36,6.56-.32,13.11-.55,19.57,.72,4.86-1.55,10.57-7.33,8.22-.12,.1-.25,.21-.38,.3-.74,.53-1.64,.86-2.56,.95,.05,1.18,.11,2.34,.18,3.52,.16,2.69,.33,5.39,.5,8.08,.74,.31,1.4,.81,1.89,1.51,.02,.02,.03,.05,.05,.07,10-5.74,14.98,12.15,18.86,18.43,2.72,4.92,6.41,9.31,8.29,14.77,6.78,1.06,7.97,11.69,10.4,17.03,2.34,7.33,4.96,14.58,6.79,22.07,1.35,4.93,4.63,10.63,1.03,15.46-3.8,3.66-7.68,10.93-13.98,8.11-2.39,4.04-6.81,6.83-11.54,6.85-2.9-.04-5.54-.76-7.94-2.4Z"/>
    <path class="cls-1" d="M290.61,356c-3.37-.99-4.55-4.32-5.68-7.3-3.28-8.04-5.98-16.29-8.97-24.43-2.63-5.49,5.47-9.81,8.55-4.56,1.06,1.96,1.69,4.08,2.38,6.18-.33-4.34-.45-8.69-.33-13.05-.18-3.03,.83-6.73,4.41-7.05,.57-4.59,7.58-5.43,9.21-1.03,.46,1.25,.6,2.58,1.34,3.71,10.4-4.91,9.92,17.12,11.07,23.21,.15,3.68,1.85,7.63-.03,11.1-1.3,2.46-4.77,3.09-6.99,1.57-.37,3.52-4.91,5.35-7.64,3.16,.09,4.09-2.37,9.78-7.31,8.48Z"/>
    <path class="cls-1" d="M423.14,327.21c-.63-.49-1.13-1.06-1.52-1.69-7.42,2.21-22.61,6.37-25.41-4.01-1.5-.53-2.95-1.19-4.3-2.02-6.54,1.15-14.2-.75-18.56-5.97-7.74-1.92-13.13-7.95-18.86-13.01-3.75-2.2-8-3.46-11.24-6.48-2.92-1.45-5.91-2.81-8.63-4.66-5.9-3.79-11.51-7.9-17.98-10.71-6.13,5.98-13.07,.98-14.43-6.27-.85-3.15-1.06-6.47-1.39-9.71-1.13-2.22-2.4-4.37-3.54-6.59-13.23,.07-10.57-32.26-11.42-41.56-.22-4.82-.19-9.6-.15-14.41,.08-3-.1-6.77,2.94-8.42,.21-2.19,1.28-4.19,2.16-6.17-1.36-3.46,1.65-6.68,3.36-9.46-9.52-4.93,3.07-14.65,6.73-19.51,4.55-5.43,9.58-10.4,14.86-15.11,4.46-3.5,8.56-7.54,13.65-10.19,4.77-1.87,8.54-5.38,13-7.93,6.22-3.9,13.54-4.31,20.34-6.07,4.07-.99,8.18,.3,12.21-.67,9.68-3.13,19.7-2.27,29.71-2.19,4.42,.51,9-.46,13.33,.26,6.49,.81,12.49,3.47,18.31,6.28,3.06-1.81,7.74-.93,8.4,2.99,11.51,6.05,21.13,15.12,30.34,24.18,1.65,1.89,4.17,2.74,6.11,4.33,3.11,2.26,4.62,5.63,5.84,9.12,5.88,.98,6.1,8.2,6.95,12.91,1.21,5.13-.11,10.23,.4,15.35,7.34,.42,4.53,9.23,4.39,14.03-.27,4.99-.37,10.01-.2,15-.1,2.44,.25,5.17-1.22,7.27,.1,4.15,.63,8.28,1.47,12.34,.59,2.33,.47,5.05-1.55,6.67,.02,.39,.01,.79-.02,1.19-.03,.37-.09,.73-.18,1.1,5.92,3.97-1.67,14.85-3.79,19.66-2.5,4.07-2.91,12.68-8.66,13.01-7.3,13.25-19.43,23.1-31.67,31.69-5.79,5.45-12.32,9.93-18.96,14.29-3.15,2.14-7.47,3.84-10.83,1.15Zm34.64-46.93c-1.25,2.03-2.54,4.05-3.85,6.05-.24,.37-.48,.73-.72,1.1,.17-.08,.34-.16,.51-.24,2.13-1,4.31-1.95,6.57-2.61,.19-.29,.38-.58,.57-.87,.23-.35,.47-.69,.71-1.02-1.59-.88-2.49-2.41-2.72-4.15-.35,.58-.71,1.16-1.07,1.74Zm-37.61-34.01s.06-.05,.1-.07c.57-.37,1.19-.7,1.85-.92-.43,.12-.87,.22-1.31,.29-.21,.23-.42,.46-.64,.7Zm7.12-.3s.03-.03,.05-.05c-.1-.11-.2-.23-.3-.35-.4-.52-.7-1.13-.87-1.77-.16,.06-.32,.13-.48,.19-1.04,.4-2.08,.84-3.15,1.17,.41-.11,.83-.17,1.25-.17,1.33,0,2.44,.3,3.5,.98Zm-55.67-22.54c.12,.08,.24,.17,.35,.26,.14-.16,.27-.33,.41-.49-.35-.25-.67-.54-.96-.86-.24,.19-.48,.38-.72,.57,.31,.14,.61,.31,.91,.52Zm-34.57-3.79c.97-1.64,2.05-3.21,3.3-4.64-3.28,1.83-8.5,3.02-10.47-1.14-.52,.32-1.05,.64-1.6,.92-.6,.74-1.19,1.48-1.79,2.22,.23,.5,.44,1.01,.62,1.54,2.78-3,7.95-2.56,9.93,1.11Zm140.27-2.49c.07-.47,.14-.94,.21-1.41,.06-1.3,.11-2.61,.15-3.92-.48,.9-1.03,1.75-1.61,2.58,.62,.85,1.04,1.77,1.26,2.74Zm-26.12-76c.62,1.32,.78,2.77,.58,4.19,.85-.15,1.7-.29,2.55-.43,.84-.14,1.69-.24,2.54-.29-1.57-1.32-2.99-2.78-4.52-4.16-.46-.39-.93-.77-1.41-1.13-.22,.15-.46,.29-.7,.4,.38,.41,.7,.88,.96,1.42Z"/>
    <path class="cls-1" d="M475.58,238.59c-2.37-.85-3.19-3.1-3.42-5.5-5.44,.35-5.84-6.33-6.83-10.25-.69-5.83-1.38-16.61,6.41-17.5-1.1-7.21-1.81-14.66-4.96-21.33-4.31-7.01-8.82-14.01-13.82-20.44-6.42-6.53-14.24-11.55-19.29-19.4-3.26-2.55-6.57-4.94-8.81-8.56-2.95-1.95-6-4.62-5.43-8.56-3.63,.33-8.25-.25-8.31-4.86,.23-6.16,7.34-4.76,11.61-4.79,6.62,.15,13.26,.55,19.51,2.94,5.09,2.18,2.97,10.09-2.55,9.28-2.86-.82-5.73-1.42-8.72-1.55,1.9,1.55,2.97,3.84,4.72,5.53,2.06,1.35,4.18,2.65,5.67,4.67,4.88,7.64,12.73,12.27,18.77,18.82,5.99,7.7,11.64,15.88,16.18,24.52,2.8,6.63,3.76,13.83,4.81,20.91,3.75,.45,4.58,4.34,4.19,7.5-.15,3.5-.19,6.99-.34,10.49-.11,2.73-.2,6.22-3.05,7.54,.09,2.65,.98,5.39,0,7.98-.94,2.46-3.98,3.58-6.36,2.58Z"/>
    <path class="cls-1" d="M398.63,325.53c-1.74-.17-3.54-1.18-4.61-2.56-.23-.29-.42-.6-.58-.93-2.63-.91-5.35-2.46-6.83-4.83-1.28-2.08-.63-4.82,1.22-6.29,2.28-1.81,4.99-.89,7.48-.15,1.16,.35,2.12,1.09,2.75,2.03,2.48,.18,5.52-.65,7.19,1.85,5.46,4.39-.82,12.08-6.62,10.89Z"/>
    <path class="cls-1" d="M295.25,319.17c-1.12-.86-1.84-2.2-2.44-3.46-.14-.29-.27-.59-.4-.88-1.12,.79-2.21,1.61-3.32,2.42-3.81,3.05-9.45-1.35-7.41-5.76-3.77-5.2,2.49-10.36,7.62-10.37,1.88-1.46,4.77-1.38,6.54,.26,11.51-4.17,11.73,25.18-.59,17.8Z"/>
    <path class="cls-2" d="M108.94,561.03c-2.62-.72-3.98-3.39-3.39-5.97,1.72-9,9.37-14.53,15.27-20.85,8.45-8.92,16.8-18.15,26.94-25.19,2.77-2.8,5.94-5.14,9.04-7.55,1.4-1.1,3.28-1.26,4.85-.61,2.22-1.53,5.47-.68,6.78,1.63,3.4,6.53-8.22,10.64-11.82,14.67-6.24,6.91-13.22,12.97-20.06,19.25-2.22,2.26-4.95,5.56-8.48,4.26-3.93,4.6-9.34,8.05-12.07,13.58-.56,1.06-.82,2.23-1.09,3.39-.6,2.58-3.51,4.07-5.97,3.38Z"/>
    <path class="cls-2" d="M104.64,659.53c-2.2-1.29-3.19-4.43-1.74-6.64,.48-.75,1.03-1.46,1.35-2.3,1.01-6.29-.94-13.47,3.5-18.86,2.15-4.43,9.14-4.22,9.83,1.07,.16,2.89-1.24,5.52-1.81,8.3-.42,1.71-.45,3.65-1.49,5.11,.51,5.42-2.29,16.55-9.63,13.32Z"/>
    <path class="cls-2" d="M58.18,512.69c-3.43-3.23-3.93-8.61-4.64-13.06-1.65-3.82-3.13-7.69-4.02-11.77-.69-2.55,.83-5.26,3.39-5.96,6.25-1.46,6.26,6.1,7.97,10.07,1.41,.98,2.15,2.75,2.11,4.53,.38,2.87,1.58,5.59,2.26,8.42,2.49,5.25-1.45,11.08-7.07,7.76Z"/>
    <path class="cls-2" d="M88.07,422.67c-5.2-.24-6.36-6.39-8.46-10.15-4.97-11.19-5.6-23.83-5.46-35.9,.79-7.67,11.09-5.57,9.7,1.92,5.52,10.28,7.31,21.88,8.55,33.35,.89,4.03,1.42,10.7-4.33,10.78Z"/>
    <path class="cls-2" d="M102.97,457.91c-8.94-2.04-.84-14.97,1.17-20.09,3.42-7.85,7.13-15.73,9.42-23.97-5.86-3.83,.7-9.44,2.45-13.73,3.36-8.35,7.63-16.58,10.53-24.99,.95-3.06,1.37-7.58,5.11-8.35,3.2-8.08,6.95-15.92,10.52-23.83,.52-2.15,1.02-4.53,2.4-6.27,1.8-4.69,4.48-8.95,5.43-13.92,.99-4.8,4.33-8.17,8.44-10.57,1.57-2.81,4.61-5.6,7.92-3.54,6.44,4.62-1.74,10.45-4.46,14.66-2.29,3.56-3.9,6.22-3.93,10.31-.72,5.89-2.55,11.67-4.85,17.11-5.03,10.36-11.78,19.95-16.28,30.58-2.81,7.18-3.39,14.97-5.98,22.25-2.75,9.07-6.7,17.61-10.87,26.08-1.27,4.78-.66,13.72-7.59,13.35-1.57,3.35-3.12,6.72-3.89,10.36-.34,2.77-2.74,4.98-5.54,4.55Z"/>
    <path class="cls-2" d="M93.72,322.32c-1.1-2.11-.71-4.52-.88-6.81-.73-6.54-2.68-12.85-3.67-19.35-2.32-13.38-1.19-27.01-.27-40.47-1.51-13.96-.65-26.91-.52-40.75,.9-4.68-1.72-11.28,2.61-14.55,.2-2.3-.06-5,1.77-6.7,.3-5.68,8.91-6.04,9.61-.34-.48,8.09-2.82,16.22-2.39,24.42,4.63,1.94,4.1,7.96,3.88,12.11-.39,8.37,.58,16.71,.57,25.09,.05,1.8-1.02,3.4-2.52,4.23,.49,13.12,1.3,26.25,1.18,39.37-.09,5.37-1.3,10.61-.6,15.96,.15,2.14,.72,4.52,.08,6.62-.99,4.01-6.92,4.86-8.86,1.17Z"/>
    <path class="cls-2" d="M109.95,315.02c0-2.64,2.21-4.85,4.85-4.85s4.85,2.21,4.85,4.85-2.21,4.85-4.85,4.85-4.85-2.21-4.85-4.85Z"/>
    <path class="cls-2" d="M122.32,304.71c-1.41-.6-2.45-1.89-2.83-3.34-3.12-2.12-2.32-6.21,.13-8.52,5.21-8.71,10.96-17.09,17.59-24.8,5.46-7.81,9.48-16.61,16.41-23.34,4.46-4.83,6.95-11.1,11.45-15.9,7.04-5.9,11.3-13.93,16.54-21.37,8.43-10.73,17.76-20.7,26.14-31.48,8.12-8.61,11.95-22.98,24.85-25.74,4.1-2.86,7.42-11.84,13.38-7.91,5.59,5.17-2.94,10.62-6.17,14.44,0,0,0,0,0,0-1.98,8.04-9.24,13.81-14.48,19.9-7.52,7.77-16.04,14.25-22.4,23.08-3.68,6.81-8.81,12.57-13.26,18.85-4.24,7.16-9.61,13.52-14.49,20.24-3.44,4.79-6.58,9.84-10.6,14.19-1.6,1.72-3.52,3.67-5.99,3.88-6.87,8.63-13.88,17.17-20.03,26.33-2.67,3.97-4.96,8.16-6.85,12.56-2.01,3.77-3.69,11.12-9.39,8.92Z"/>
    <path class="cls-2" d="M124.97,311.61c-5.25-2.35-2.51-8.79-.92-12.77-2.95-6.2,12.04-18.16,15.79-23.01,4.53-6.2,9.96-11.56,16.02-16.25,5.92-5.84,10.38-12.11,17.39-16.6,2.05-1.47,4.2-3.41,6.91-3,2.88,.35,4.76,3.34,4.03,6.09-1.25,3.95-6.03,5.41-8.76,8.22-5.21,5.15-9.62,11.07-15.57,15.46-4.53,3.8-7.58,8.94-11.57,13.23-5.22,5.76-11.3,10.95-14.62,18.12,1.14,1.69,1.12,4-.16,5.69-1.88,2.79-4.7,6.5-8.53,4.81Z"/>
    <path class="cls-2" d="M160.99,185.39c0-2.64,2.21-4.85,4.85-4.85s4.85,2.21,4.85,4.85-2.21,4.85-4.85,4.85-4.85-2.21-4.85-4.85Z"/>
    <path class="cls-2" d="M160.35,216.7c-2.53-17.05-.33-34.66-4.7-51.17-3.74-10.98-9.01-21.44-11.35-32.84-2.49-5.92-5.14-11.82-6.4-18.16-.38-1.77-.56-3.8,.54-5.35-.81-3.57-2.81-6.94-1.73-10.7,.08-3.75,2.33-8.03,6.7-6.94,3.65,.77,4.4,5.3,4.98,8.39,.85,5.15,1.49,10.27,3.53,15.12,1.39,.41,2.61,1.39,3.46,2.62,1.13,1.64,1.9,3.53,2.55,5.42,1.1-.34,2.29-.31,3.37,.11-.73-4.61-1.23-9.26-1.55-13.92-.76-3.76-1.31-9.53,3.71-10.22,3.91-.56,5.96,3.3,5.73,6.71,.36,5.24,1.72,10.36,2.21,15.59,.75,.88,1.19,1.92,1.46,3.05,.58-3.81,1.15-7.63,1.82-11.42,.38-3.11,.88-7.22,4.66-7.75,1.04-3.51,2.57-6.88,3.89-10.28,.85-2.17,2.11-4.62,4.38-5.59,4.97-2.02,8.35,3.06,7.3,7.61-1.33,10.89-4.82,21.86-5.72,32.6-.49,8.44-.65,16.93-1.62,25.34-.42,2.9-.43,6.25-2.45,8.5-.35,5.95-.64,11.98-2.17,17.75,4.66,2.29,2.6,8.54,3.27,12.72-.21,4.26,2.26,9.76-.86,13.26-.41,4.32,.46,9.92-3.19,13-2.95,2.31-7.38,.27-8.13-3.2-.77,13.17-12.48,12-13.67-.25Z"/>
    <path class="cls-2" d="M93.12,200.88c-2.47-1.04-3.55-3.89-2.58-6.36,1.64-3.08,1.76-7.36,4.83-9.41,2.02-1.3,4.86-.62,6.28,1.23,1.52,1.95,1.15,4.41,1.26,6.67,.06,2.23-1.2,4.28-3.3,4.97-.85,2.65-4,3.97-6.49,2.9Z"/>
    <path class="cls-2" d="M104.22,328.86c-3.54-8.5,9.05-23.19,12.98-30.89,5.03-8.83,11.09-17.28,17.06-25.43,1.5-2.2,3.16-4.98,5.95-5.5,2.61-3.63,8.53-8.38,11.94-3.06,2.3,4.75-2.72,9.19-4.57,13.31-5.39,8.18-11.06,16.13-17,23.93-4.65,7.85-10.1,15.15-14.92,22.86-1.56,2.42-2.49,5.6-5.34,6.79-2.19,.85-4.89,.14-6.08-2.02Z"/>
  </g>
  <g id="Vektorebene-2" data-name="Vektorebene">
    <path d="M115.4,743.27c-7.03-4.73-10.99-12.19-16.23-18.59-5.21-4.57-9.31-9.76-12.3-16-6.63-7.57-12.79-15.67-17.71-24.42-4.13-6.43-10.16-11.38-13.87-18.09-3.2-7.81-9.63-13.39-13.84-20.52-2.92-5.67-5.89-11.32-9.35-16.51-10.89-13.13-16.21-29.42-21.85-45.3-5.11-16.18-3.2-33.49-1.69-50.1,1.3-16.46,4.09-33.2,7.31-49.24,3.2-21.8,5.01-43.95,9.64-65.49,1.79-9.21,2.42-18.6,3.72-27.87,2.05-14.5,5.61-28.78,7.13-43.34,2.4-35.04,9.04-69.64,15.88-103.98,1.44-5.23,1.96-10.24,1.76-15.61,0-2.64,2.21-4.85,4.85-4.85s4.84,2.21,4.85,4.85c.15,5.72-.28,11.4-1.85,16.92-1.34,7.4-2.94,14.73-4.2,22.15-6.2,28.28-9.6,56.53-12,85.29-3.6,20.84-7.34,41.64-9.69,62.67-4.59,22.84-7.18,45.78-10.22,68.84-3.24,17.15-6.2,33.38-7.54,50.67-1.23,13.75-2.72,27.31-.15,40.91,3.2,12.21,8.37,23.76,13.3,35.34,2.08,4.32,5.65,7.67,8.1,11.73,4.42,6.4,7.79,13.43,11.63,20.13,2.98,4.12,6.53,7.8,9.24,12.12,3.19,6.86,7.73,12.78,12.79,18.32,4.41,5.34,7.59,11.51,11.42,17.24,3.18,4.63,7.46,8.42,10.61,13.06,1.85,2.72,2.91,5.92,5.04,8.44,8.39,6.68,12.47,17.23,21.15,23.52,4.85,3.78-.73,11.59-5.93,7.69Z"/>
    <path d="M357.36,731.56c-2.67-2.66-1.06-6.31,1.42-8.42,8.34-10.47,15.27-20.93,22.56-31.96,4.47-7.31,9.79-14.13,14.75-21.05,4.68-7.7,8.88-15.62,14.59-22.63,7.44-13.74,18.73-24.77,26.15-38.49,14.71-17.61,12.95-20.02,14.8-41.58,5.92-27.93-2.4-56.2-7.09-83.64-4.77-21.32-7.13-43.1-12.37-64.31-7.19-25.25-10.87-51.17-14.65-77.08-2.08-12.91-7.01-25.08-9.69-37.83-1.78-11.66-3.93-22.16-6.02-33.3-1.81-10.52-2.5-21.22-4.98-31.59-1.02-4.71-2.52-9.3-4.49-13.67-1.96-3.43-5.38-8.25-.75-11.1,7.85-4.49,12.08,14.19,13.9,19.21,3.44,12.95,4.19,27.38,6.78,40.36,1.87,9.17,3.65,19.18,5.08,28.32,2.38,11.23,6.76,21.95,8.74,33.29,3.52,18.27,5.56,37,8.99,55.19,2.37,9.47,4.93,18.92,7.11,28.43,5.74,26.33,9.78,53.85,15.16,80.04,4.12,21.52,8.74,43.89,4.32,65.69-2.06,10.37-.04,21.42-4.78,31.19-2.75,6.67-7.6,12.05-11.95,17.69-5.17,10.02-12.66,18.35-19.32,27.34-6.63,11.26-14.63,21.47-20.89,32.96-6.47,9.07-13.11,18-18.9,27.55-4.98,7.07-9.64,13.43-14.28,20.45-3.63,4.05-8.01,13.9-14.21,8.94Z"/>
    <path d="M245.16,822.35c-25.41-2.14-50.63-5.14-75.8-9.18-13.93-1.73-27.25-4.39-40.59-8.3-5.94-1.52-12.18-2.06-17.73-4.85-10.97-4.64-14.83-17.16-11.47-27.76,.9-9.77,3.84-19.51,10.78-26.77,5.12-4.68,11.63,3.21,6.28,7.42-5.29,6.13-6.78,14.41-7.7,21.87-1.88,6.17-.6,13.52,5.87,16.3,4.95,2.55,10.61,2.92,15.93,4.3,12.36,3.57,24.63,6.32,37.26,7.77,29.99,4.13,60.17,9.8,90.51,9.48,22.58-1.2,45.11-3.89,67.46-6.85,12.18-2.92,25.23-5.13,34.97-13.55,11.01-5.16,14.77-10.49,9.66-22.49-2.81-4.9-4.56-10.31-7.91-14.9-2.97-5.22-14.91-22.61-5.66-25.97,7.04-1.47,5.94,7.3,8.46,11.37,3.48,7.17,8.71,13.37,11.49,20.86,7.18,11.12,8.48,27.9-4.19,35.59-5.78,2.73-10.32,7.25-16.13,9.88-7.13,3.43-14.74,5.47-22.42,7.21-9.49,2.45-19.31,3.58-29.08,4.25-20.09,2.13-39.95,5.12-60.01,4.33Z"/>
    <path d="M221.43,760.64c-23.6-1.48-47.57-1.38-70.62-7.41-5.67-1.26-11.3-2.77-16.8-4.65-3.16-1-5.82-2.83-8.49-4.71-2.07-1.02-4.47-.64-6.71-.9-2.63-.15-4.85-2.09-4.85-4.85,.4-5.55,5.41-5.01,9.58-4.57,4.55-.08,8.04,2.77,11.65,5.08,4.03,1.66,8.29,2.78,12.49,3.88,20.72,5.42,42.31,7.55,63.53,7.7,18.34,1.14,36.88,.79,55.2-.72,16.68,.14,32.83-3.7,48.61-8.76,12.72-3.19,25.86-6.72,37.73-12.22,5.77-2.38,9.65,6.24,3.77,8.94-21.65,9.26-44.97,14.64-67.78,20.14-22.35,2.41-44.84,2.93-67.32,3.06Z"/>
    <path d="M55.29,226.7c-1.74-8.07,12.59-7.97,20.16-7.87,1.18,.02,2.19,.03,2.96,.02,4.25-.35,8.44-1.21,12.66-1.81,15.14-1.89,30.64-.9,45.84-2.19,24.5,.97,48.57,.64,73.06,.45,24.61-.77,49.22-.36,73.82-.78,10.27,.06,20.52,.21,30.77,.2-.78,.52-1.52,1.1-2.23,1.76-2.37,2.19-4.13,4.96-5.12,7.99-17.76-.47-35.48-.1-53.22,.04-13.45-.09-26.88,.13-40.33,.35-12.29,.2-24.59,.4-36.88,.37-5.06-.16-10.08-.15-15.1-.14-7,.02-13.99,.03-21.01-.4-11.33-.35-21.79,1.07-33,1.11-7.52-.56-14.94,.72-22.35,1.94-3.38,.78-6.81,.75-10.24,.72-3.21-.03-6.42-.07-9.58,.58-1.66,.49-3.66,1.07-5.47,1.07-2.11,0-3.96-.79-4.73-3.41Z"/>
    <path d="M382.01,224.96c-5.7-2.68-12.73-2.94-18.51-.35-4.76-.08-9.51-.22-14.27-.51-2.16-.04-4.33-.05-6.49-.04-1.41-3.88-4.07-7.31-7.48-9.59,12.82-.3,25.62,.53,38.45,.59,1.39,.19,3.17,.12,5.05,.05,5.22-.19,11.17-.38,11.6,5.14-.27,4.04-3.07,4.82-6.17,4.82-.72,0-1.45-.04-2.18-.1Z"/>
    <path d="M424.99,339.8c-.29-2.2,1.05-4.45,3.1-5.22,0,.16,.01,.31,.02,.47,.17,2.98,.5,5.91,1.01,8.8-1.98-.25-3.58-1.36-4.14-4.05Z"/>
    <path d="M262.68,239.52c-1.59-10.24-4.67-20.52-6.42-30.86,3.31,1.29,6.73,2.23,10.22,2.85,.05,.02,.09,.03,.14,.05,.67,3.35,1.51,6.69,2.47,9.99,1.36,5.92,1.87,12.05,3.58,17.89,1.34,3.2,3.1,6.24,5.27,8.96-.1,.65-.18,1.3-.22,1.95-.25,3.65,.44,7.32,1.94,10.63-.11,0-.22,.01-.34,.01-7.13,0-15.81-16.32-16.64-21.47Z"/>
    <path d="M424.17,337.55c-1.3-2.22-.6-5.4,1.73-6.64,.76-.44,1.52-.87,2.28-1.3-.11,1.81-.17,3.63-.06,5.44,.09,1.61,.23,3.21,.42,4.79-.13,0-.25,.01-.38,.01-1.45,0-2.82-.63-3.99-2.3Z"/>
    <path d="M267.32,213.33c.04-.51,.08-1.01,.11-1.52,3.13,.96,6.3,1.54,9.49,1.78-.45,2.48-1.59,4.51-4.75,4.59-2.53,0-5-2.21-4.85-4.85Z"/>
    <path d="M424.5,342.7c.13-5.3,5.63-4.93,9.49-5.01,5.42-1.03,10.59-3.68,14.69-7.37,5.07-3.64,10.57-6.58,16.06-9.52,13.05-8.83,24.9-18.76,34.59-31.06,3.4-3.89,5.45-8.56,7.83-13.08,1.84-3.06,4.17-5.8,5.74-9.01,7.58-17.63,6.56-37.45,5.47-56.2,.12-17.28-3.58-34.41-12.04-49.56-6.34-11.49-12.94-22.79-22.52-31.6-9.81-11.01-22.86-18.36-35.58-25.52-15.14-6.87-32.86-9.76-49.33-9.48-21.82,.65-44.24,2.57-63.57,13.64-11.01,5.58-20.3,12.64-27.86,22.25-5.69,5.29-12.07,9.91-15.97,16.82-5.04,7.7-10.67,14.48-15.23,22.39-3.13,7.38-3.75,15.56-7,22.96-.96,2.96-1.73,6.06-2.23,9.14,.14,3.49,.85,6.94,.72,10.45-.06,6.33-9.58,6.37-9.7,0,.18-4.08-1.09-8.07-.6-12.15,.93-4.89,2.17-9.76,4.01-14.41,2.09-5.38,2.68-11.17,4.55-16.6,2.57-7.12,7.62-12.88,11.5-18.52,2.92-4.35,5.86-8.69,8.86-12.97,4.38-6.34,11.11-10.32,16.17-16.03,11.18-14.46,28.44-22.62,44.94-29.51,29.06-8.26,60.84-10.11,90.08-2.13,13.1,3.28,25.14,10.51,35.93,18.39,10.02,5.68,17.39,14.76,25.34,22.87,10.66,14.6,20.11,30.61,25.45,47.98,3.87,15.95,4.04,32.55,4.41,48.89,.42,14.74-1.16,30.21-7.39,43.71-5.08,7.36-8.4,15.31-13.57,22.24-6.17,8.26-13.89,15.29-21.41,22.31-9.66,7.74-20.11,14.16-30.83,20.27-5.28,4.69-11.67,8.08-18.54,9.76-4.37,.62-12.19,2.03-12.47-4.35Z"/>
    <path d="M422.89,330.41c-.46-3.17,2.14-5.28,4.95-5.7,4.79-1.96,8.36-3.88,12.93-5.82,5.58-2.79,10.38-7.52,15.85-10.4,5.64-3.36,9.7-8.57,14.83-12.57,7.29-5.94,11.05-14.57,15.88-22.39,2.03-3.03,4.46-5.86,5.8-9.29,1-3.14,1.24-6.45,1.86-9.05,1.42-9.94,3.79-19.85,3.32-29.93-.24-14.09,1.87-28.68-4.95-41.62-5.5-16.09-11.96-32.61-26.14-43.02-4.57-3.96-8.41-8.74-13.41-12.17-6.95-4.29-14.64-7.87-22.12-10.86-11.74-4.7-24.47-4.33-36.89-3.9-11.32,1.69-22.37,3.41-33.32,6.06-12.43,4.02-24.09,9.67-35.2,16.53-2.91,2-6.34,4.55-8.66,7.06-3.14,3.02-4.42,6.52-6.94,9.89-2.01,2.79-4.75,4.78-7.15,7.18-3.14,3.57-5.22,7.89-7.52,12.01-2.02,4.89-1.83,9.57-3.18,14.45-2.98,6.9-6.14,13.62-7.54,21.09,.07,4.12,.95,9.64-4.76,9.95-11.58-.99-.33-27.27,2.75-32.99,1.48-5.49,1.49-10.5,3.47-15.56,2.37-4.65,4.76-9.36,7.98-13.49,2.5-3.59,6.52-5.71,8.88-9.41,2.86-5.27,6.43-9.83,10.95-13.48,16.53-12.32,36.32-21.97,56.75-25.08,23.19-5.12,48.66-7.26,70.61,3.51,6.75,3.23,13.41,6.11,19.4,10.55,5.75,4.65,10.6,10.28,16.31,14.99,15.87,12.91,20.55,33.61,28.11,51.65,4.01,11.89,1.66,24.94,2.27,37.29,.27,5.93-.31,11.81-1.44,17.62-1.5,9.1-2.01,17.25-4.94,25.6-4.59,7.93-9.81,15.44-14.27,23.47-4.5,7.11-11.73,11.98-17.27,17.83-4.28,4.02-9.39,7.02-14.36,10.09-5.32,4.51-11.4,7.82-17.89,10.32-4.4,2.31-13.21,7.23-14.96-.38Z"/>
    <path d="M406.67,225.9c-.8-1.04-1.12-2.37-.95-3.64-3.94-1.96-10.52-3.18-10.53-8.65-.96-.25-1.84-.76-2.5-1.49-.81,.69-1.74,1.23-2.83,1.58-1.33,.42-2.67,.28-3.89-.23-2,4.85-9.31,3.48-9.39-1.8-.09-2.1-.21-4.21-.26-6.31-.75-8.2,7.56-11.17,11.76-3.91,2.46-6.32,11.15-6.14,12.29,.89,4.76,.36,9.18,5.21,6.73,9.95,16.82,5.07,6.77,20.76-.43,13.62Z"/>
    <path d="M376.75,202.72c-5.07-17.25-12.16-33.49-18.31-50.34-3.68-9.51-5.18-19.61-8.57-29.19-2.28-5.93,6.38-9.62,8.94-3.78,.85,2.38,1.73,4.75,2.49,7.15,5.17,25.48,17.68,48.65,24.81,73.57,1.56,6.12-7.46,8.72-9.36,2.58Z"/>
    <path d="M395.31,202.9c-7.13-2.29-1.06-12.95-.15-17.74,2.95-8.69,4.45-17.65,5.44-26.65,1.01-11.57,2.15-23.1,3.85-34.59,1.28-5.17-1.23-16.51,6.71-16.12,2.65,.36,4.47,2.84,4.15,5.47-.75,9.44-2.44,18.77-3.33,28.18-1.66,15.86-2.35,32.12-7.79,47.24-2.43,4.77-1.06,15.56-8.88,14.21Z"/>
    <path d="M396.16,216.33c-1.9-1.9-1.84-4.96,0-6.86,4.4-4.32,8.77-8.74,12.33-13.8,2.2-3.18,4.1-6.66,6.85-9.4,2.33-2.19,5.11-3.87,7.19-6.33,4.17-5.27,6.64-11.79,11.55-16.52,7.44-9.74,13.46-21.19,16.08-33.21,.54-2.6,3.55-4.06,5.97-3.39,10.39,2.53-6.5,30.27-9.58,35.86-3.39,5.92-8.88,10.42-11.89,16.5-2.13,3.84-4.64,7.52-8.04,10.37-2.45,2.02-5.13,3.78-6.78,6.58-3.63,5.76-7.82,11.1-12.55,16-2.91,2.9-6.93,8.22-11.14,4.22Z"/>
    <path d="M381.55,217.06c-8.25-6.98-19.4-8.3-28.22-14.23-6.13-4.9-13.75-7.99-18.58-14.41-5.02-5.55-11.58-9.5-16.03-15.62-2.92-3.26-6.76-5.44-10.61-7.4-3.66-1.6-9.33-3.23-7.31-8.42,1.03-2.44,3.92-3.6,6.36-2.59,4.31,1.81,8.64,3.77,12.49,6.46,7.06,5.16,11.53,12.29,19.07,17.68,2.72,2.52,4.22,4.88,6.66,7.02,4.4,3.61,9.62,6.01,13.99,9.66,6.3,4.18,14.18,5.01,20.43,9.25,3.99,2.57,12.5,5.74,8.57,11.72-1.59,2.04-4.77,2.55-6.8,.87Z"/>
    <path d="M400.05,221.05c-1.6-2.08-1.23-5.21,.87-6.8,3.27-2.46,6.4-5.07,9.52-7.7,5.88-5.61,13.76-7.8,21.04-10.93,3.6-1.74,7.55-2.5,11.36-3.56,6.15-2.55,12.11-5.56,18.55-7.37,6.11-2.56,12.25-5.48,18.86-6.43,5.5-.8,16.66-6.36,17.88,2.42,0,2.66-2.21,4.83-4.85,4.85-6.05,.58-11.59,2.42-17.22,3.63-10.61,4.17-21.17,8.43-31.77,12.61-8.33,2.19-16.57,5.39-24.16,9.47-4.57,3.39-8.7,7.31-13.27,10.69-2.1,1.59-5.17,1.24-6.8-.88Z"/>
    <path d="M491.49,241.23c-3.21-.9-6.27-2.18-9.4-3.31-.12-.04-.23-.08-.34-.12,.05,.02,.1,.03,.14,.05,.01,0,.03,0,.03,.01-15.97-5.38-32.69-7.76-49.19-10.53-7.5-1.96-14.92-5.15-22.82-3.33-2.62,.31-5.11-1.49-5.47-4.15-.62-8.15,12.96-6.08,18.08-5.38,23.85,6.67,48.5,7.93,71.53,17.41,6.09,1.84,3.59,10.92-2.58,9.35Z"/>
    <path d="M463.47,296.78c-11.86-10.69-22.39-21.79-33.77-32.85-9.26-9.7-19.29-18.55-27.21-29.46-7.13-2.03-3.23-13.7,3.81-9.91,7.86,7.75,13.76,17.46,22.5,24.48,13.79,14.27,27.95,28.19,42.34,41.83,3.83,5-3.7,10.91-7.68,5.92Z"/>
    <path d="M397.56,332.9c-3.24-1.64-6.69-2.01-10.27-1.91-6.31,0-11.58-3.71-16.14-7.68-5.88-2.95-10.73-7.39-14.07-13.07-2.72-4.4-6.26-8.21-10.5-11.17-1.72-1.59-3.57-1.06-5.58-.45-5.54,1.22-11.05-.82-16.3-2.17-3.65-1.5-4.8-5.65-6.43-8.88-2.06-6.18-9.03-5.34-14.07-7.3-3.11-.94-3.98-3.77-3.26-6.11,4.74,.3,9.44,.05,14.05-1.15,6.77,2.08,9.89,4.86,14.08,14.65,0,0,.02,0,0,0,4.53,1.19,8.98,2.39,13.49,.58,10.68-.28,18.2,10.16,23.6,18.17,2.62,4.43,6.99,6.85,11.23,9.44,2.37,1.89,4.56,4.05,7.5,5.03,5.56,.78,11.3,.27,16.44,3.07,5.15,2.29,2.87,9.33-1.82,9.33-.61,0-1.27-.12-1.95-.39Z"/>
    <path d="M375.82,318.74c-2.62-1.54-2.69-4.08-1.36-7.16,2.77,1.59,5.92,2.46,9.15,2.46,.2,0,.39,0,.59-.01-1.43,2.59-3.08,5.42-5.84,5.42-.76,0-1.6-.22-2.55-.71Z"/>
    <path d="M400.89,288.09s.05-.09,.07-.15c.55-1.3,.92-2.59,1.16-3.91-.08,1.78-.42,3.48-.96,5.14-.09-.36-.18-.72-.27-1.08Z"/>
    <path d="M352.44,226.74h0c-.1,0-.21,.03-.31,.04,.1,0,.21-.03,.3-.04Z"/>
    <path d="M354.79,226.43c-.91,.11-1.82,.21-2.73,.27-.45-.03-.89-.06-1.33-.09-2.04-.27-4.08-.52-6.13-.77,.99,.11,1.98,.24,2.98,.35-.66-.08-1.34-.16-2-.25-.8-.12-1.6-.28-2.39-.46-.14-.52-.31-1.03-.5-1.54,1.43-.13,2.87-.23,4.32-.29,1.94,.02,3.94-.15,5.96-.32,4.16-.35,8.37-.7,12.19,.63-1.24,.43-2.44,.97-3.56,1.64-2.99,.36-5.98,.71-8.97,1.11,.72-.09,1.44-.19,2.17-.28Z"/>
    <path d="M343.23,225.63s0,0,0,0c.61,.08,1.22,.16,1.84,.24-.61-.08-1.22-.16-1.83-.24Z"/>
    <path d="M326.31,536.25c-17.1-3.43-34.99-3.76-51.45-9.84-4.05-1.38-8.71-4.2-12.18-6.1-7.43-3.45-15.32-7.17-21.11-13.04-6.85-5.27-13-12.63-17.05-19.88-2.79-4.13-6.11-7.2-8.98-10.83-.12-2.98-.85-5.97-2.26-8.77-1.99-3.94-4.87-7.17-7.62-10.57-.27-.38-.56-.76-.83-1.14-2-4.94-3.79-9.96-5.5-14.96-1.21-5.29-2.02-10.66-3.87-15.78-3.06-9.46-2.8-19.56-3.31-29.3-.88-8.38-.33-16.84,.94-25.15,2.88-12.15,5.7-24.41,10.19-36.02,.5-1.04,.92-2.12,1.29-3.21,1.7-4.05,3.62-8,5.85-11.84,4.83-7.11,10.77-13.49,16.71-19.68,6.39-6.42,14.47-10.66,21.3-16.52,.74-.67,1.51-1.31,2.29-1.91,0,0,.03,0,.04-.02,4.25-.8,8.09-3.02,10.89-6.22,5.82-2.57,11.96-4.55,17.54-6.98,1.32-.71,2.66-1.37,4.02-2.02,2.67,3.03,6,5.11,9.69,6.32-10.46,5.09-21.47,8.8-31.9,13.74-6.51,3.92-11.84,9.56-18.44,13.4-8.19,5.59-14.39,13.35-20.85,20.74-9.18,12.45-13.19,27.76-16.73,42.63-5.01,14.87-3.19,30.47-2.62,45.81,.41,5.93,1.68,11.7,3.63,17.31,3.05,14.9,8.13,29.53,16.02,42.61,5.18,6.39,10.83,12.37,14.82,19.65,4.73,6.44,10.83,11.13,16.78,15.97,11.82,6.34,23.73,13.72,37.04,16.24,15.03,1.72,29.93,5.69,45.05,6.09,5.02-.85,10.36-.77,15.05-2.95-.56-7.59-2.8-15.05-4.89-22.32-2.82-7.43-5.91-14.74-7.33-22.61-3.83-19.3-2.14-39.28-8.73-57.94-4.6-13.76-8.42-27.8-11.12-42.04-2.15-8.86-1.04-18.24-4.04-26.91-4.68-15.41-10.4-30.27-12.87-46.08-1.12-6.58-1.65-13.23-2.9-19.76-.93-4.14-2.04-8.39-1.91-12.63,.45,.07,.91,.12,1.37,.17,2.79,.29,5.56,.42,8.32,.29,.35,6.78,2.81,13.31,3.22,20.12,1.77,21.45,10.53,41.29,15.83,61.92,1.05,8.59,1.4,17.52,3.35,25.87,3.9,20.16,12.59,39.1,15.05,59.53,2.06,15.06,1.47,30.61,6.42,45.11,4.77,12.69,10.19,26.12,9.72,39.85-.78,3.65-4.2,6.04-8.67,7.57-5.93-.44-11.81,.53-17.58,2,.83-.22,1.67-.43,2.5-.63-1.44,.35-2.87,.69-4.3,1.06-2.32-.04-4.36-.18-5.9-.36Z"/>
    <path d="M304.29,515.7c-8.07,.32-15.85-1.63-22.99-5.34-9.4-1.84-17.66-6.65-24.78-12.95-5.07-3.73-9.91-7.77-14.78-11.73-4.82-2.68-9.34-6.19-12.42-10.83-4.8-9.75-8.8-19.99-12.09-30.35-2.28-6.32-5.81-11.17-7.87-17.37-1.9-9.39-4.66-18.81-4.72-28.46-.45-13.77,.2-28.09,6.29-40.59,5.66-11.41,11.46-24.12,19-34.26,2.32-2.99,5.3-5.35,8.84-6.74,2.58-.93,4.72-2.29,5.35-5.13,1.65-3.4,2.7-6.5,5.07-9.38,7.7-9.17,20.63-10.09,31.78-10.65,5.19-1.29,10.39-.41,15.65,.05,2.64,.23,4.49,2.95,4.15,5.47-.91,5.65-7.27,3.93-11.3,3.64-4.77-.33-10.03,.78-14.89,1.12-6.23,.32-13.1,1.55-17.63,6.21-3.34,4.14-3.81,9.43-7.28,13.32-3.07,3.43-8.31,3.73-11.35,7.16-4.79,4.94-6.83,11.62-10.52,17.3-4.93,9.39-10.35,17.88-11.96,28.28-3.37,15.78-1.38,31.5,2.07,46.99,1.27,6.36,5.05,11.29,7.41,17.09,1.81,4.29,2.76,8.6,4.35,12.81,2.94,6.09,4.86,12.66,8.03,18.63,3.3,4.82,9.11,6.72,13.16,10.71,7.92,5.85,15.07,13.04,23.92,17.47,2.79,1.46,5.91,1.88,8.89,2.78,4.14,1.49,7.93,3.78,12.34,4.54,3.09,.63,6.25,.34,9.37,.59,3.55,.22,7.19,1.57,10.72,.45,4.91-2.37,10.44-2.82,15.36-5.13,2.9-1.82,5.04-4.72,7.33-7.22,1.56-2.12,4.75-2.46,6.8-.87,4.9,4.16-1.06,9.18-4.13,12.32-4.6,5.41-11.73,6.76-18.24,8.5-5.97,3.17-12.53,2.74-18.95,1.58Z"/>
    <path d="M333.09,462.11c-2.19-7.9-6.58-14.65-10.9-21.48-2.58-5.56-4.33-11.45-6.21-17.27-2.34-7.45-7.59-13.43-10.35-20.64-1.45-4.11-1.75-8.48-1.84-12.8-.63-11.43-.55-22.88,1.35-34.18,.06-4.32,2.2-8.07,4.72-11.43,.71-1.06,1.63-1.88,2.9-2.23,3.95-1.25,7.8,3.6,5.48,7.13-1.06,1.62-2.27,3.17-3.07,4.93-1.44,8.9-2.27,17.8-1.97,26.83-.04,9.51-.02,19.43,6.36,27.13,4.48,7.58,6.69,16.11,9.72,24.3,1.85,6.08,6.63,10.57,9.07,16.36,1.47,3.56,2.95,7.12,4.1,10.78,1.56,6.11-7.45,8.72-9.36,2.58Z"/>
    <path d="M297.19,364.73c-3.57-3.53-8.59-5.54-12.02-9.36-3.14-3.28-5.9-6.97-9.75-9.47-5.58-3.29-11.16-6.9-15.72-11.5-5.61-4.74-12.09-8.89-15.07-15.91-3.03-5.59,5.07-10.34,8.39-4.89,1.26,2.52,2.69,4.97,4.89,6.79,5.16,3.96,9.85,8.48,14.96,12.48,6.06,3.68,12.33,7.4,16.77,13.02,4.23,5.89,11.96,7.95,15.94,13.94,3.1,5.49-5.12,10.34-8.39,4.89Z"/>
    <path d="M300.59,392.2c-18.09-4.46-36.05-9.32-54.09-13.87-10.18-2.37-19.92-6.55-30.45-7.07-6.26-.96-5.04-10.3,1.32-9.61,9.12,.35,17.58,3.63,26.34,5.84,11.47,2.92,23,6.45,34.5,8.78,6.91,2.17,13.95,3.84,20.99,5.53,2.26,.83,4.39,.71,5.88,2.62,2.68,3.17-.39,8.59-4.5,7.77Z"/>
    <path d="M212.54,427.01c-1.95-5.32,3.57-6.75,7.32-8.37,5.95-3.76,13.07-3.74,19.61-5.81,8.12-3.35,16.5-6.04,24.59-9.46,11.32-3,22.59-6.24,33.54-10.3,2.42-1.08,5.34,.18,6.36,2.58,2.33,8.16-10.2,8.33-15.12,10.48-7.15,2.8-14.51,4.49-21.89,6.5-12.59,5.03-25.14,10.36-38.54,12.69-4.98,1.62-12.19,8.35-15.86,1.7Z"/>
    <path d="M236.03,476.73c-1.68-3.98,2.05-6.45,5.28-7.68,5.66-4.1,11.45-7.89,17.65-11.17,7.44-5.47,15.55-9.99,21.71-17.01,6.78-5.07,11.94-11.83,18.63-16.94,4.16-3.4,19.18-12.98,21.75-4.53,1.43,6.62-7.11,6.41-11.09,8.88-6.09,3.41-10.58,8.73-15.44,13.58-8,6.23-14.41,14.24-23.37,19.22-5.44,4.22-11.34,7.66-17.38,10.93-4.53,3.12-13.43,12.27-17.74,4.73Z"/>
    <path d="M290.26,506.25c-6.81-3.59,.23-12.46,3.16-16.61,1.96-3.02,3.27-6.39,4.58-9.73,4.75-9.25,4.37-19.73,7.62-29.48,1.65-4.85,3.28-9.72,6.04-14.07,1.76-3.53,2.29-7.57,4.19-11.01,1.29-2.31,4.4-3.06,6.64-1.74,2.42,1.41,3.05,4.58,1.58,6.91-1.43,3.74-2.27,7.73-4.29,11.22-5.44,9.32-7.22,20.23-8.74,30.76-2.46,7.62-5.35,15.31-9.39,22.26-.98,1.6-2.31,2.98-3.23,4.64-1.47,3.67-3.14,8.78-8.17,6.85Z"/>
    <path d="M90.6,622.02c-7.04-3.57-8.48-6.86-7.83-14.57,.04-10.72,.41-21.43,1.49-32.11,.81-17.59,.81-35.33,5.28-52.4,1.59-19.93,5.16-39.57,6.97-59.44,.14-6.31,9.55-6.41,9.7,0-1.6,20.19-5.56,40.28-7,60.5-3.81,14.94-4.58,30.44-4.99,45.81-.86,14.32-2.07,27.91-1.77,41.94,3.19,1.65,7.12,4.55,4.79,8.54-1.32,2.26-4.41,3.12-6.64,1.74Z"/>
    <path d="M91.21,623.07c-7.07-2.49-1-9.91-1.25-14.89,1.34-14.96,1.99-29.85-.44-44.54-.21-6.78-.48-13.56-.44-20.35,.33-3.76,1.21-7.46,.95-11.26-.09-2.64,2.27-4.85,4.85-4.85,8.17,1,3.9,11.68,3.84,17.08-.2,13.65,1.73,27.17,2.24,40.78,.21,7-.55,12.63-1.12,19.29-.37,5.38-.49,20.44-8.62,18.73Z"/>
    <path d="M99.48,593.14c-7.08-1.27-3.17-11.26-2.2-15.89,1.97-6.82,2.56-13.15,5.4-19.59,1.71-5.05,2.96-10.5,6.59-14.58,4.51-3.68,7.87-8.07,10.74-13.12,6.51-7.22,11.09-15.69,18.42-22.01,5.62-5.73,13.01-9.07,19.7-13.33,4.4-1.95,9.33-2.04,14.01-2.93,6.3-.75,7.62,8.54,1.32,9.61-3.72,.76-7.63,.82-11.21,2.11-5.05,3.41-10.74,5.93-15.38,9.92-7.11,5.62-11.23,13.66-17.33,20.15-2.56,2.96-4.18,6.52-6.49,9.67-3.09,3.99-8.08,6.4-9.25,11.71-3.45,8.83-5.47,18.48-7.86,27.33-.81,4.21-.26,11.58-6.45,10.96Z"/>
    <path d="M94.99,577.36c-.24-.14-.47-.3-.67-.47-3.91,.6-6.78-3.87-4.81-7.24,2.61-4.72,4.77-10.07,6.49-14.94,3.29-9.51,3.28-19.75,5.22-29.56,1.85-8.44,4.63-16.62,6.86-24.94,1.16-6.63,2.07-13.3,3.26-19.93,1.15-5.83,.48-14.52,7.07-17.07,2.22-.72,4.41,.45,5.81,2.09,2.47,3.56,2.29,8.17,2.36,12.33,.5,5.46-.38,10.85-1.21,16.23-1.95,16.26-4.23,32.43-11.48,47.23-2.17,6.63-8.82,42.1-18.9,36.27Z"/>
    <path d="M92.04,616.53c-4.03-1.11-4.09-5.6-2.47-8.76,1.37-4.74,1.93-9.7,4-14.22,1.45-4.24-.98-11.98,5.62-12.26,2.55,0,4.99,2.21,4.85,4.85-.07,4.71-.42,9.42-2.53,13.71-2.32,5.14-1.23,18.06-9.48,16.68Z"/>
    <path d="M84.86,594.47c-1.97-7.77-1.93-15.91-4.04-23.62-2.46-6.34-6.09-12.19-9.86-17.82-6-10.45-10.41-21.67-15.1-32.75-4.82-6.81-6.46-15.06-8.87-22.91-.56-8.87-3.76-18.25-.52-26.86,7.97-12.85,17.38,6.47,19.14,14.09,3.02,7.29,5.32,14.76,6.35,22.59,2.84,8.59,3.56,17.64,5.73,26.37,3.27,6.89,6.33,14.47,8.82,21.36,1.51,2.34,3.38,5.09,1.35,7.74,4.97,9.38,4.03,20.4,6.61,30.49,.77,6.27-8.52,7.63-9.61,1.32Zm-20.83-79.35c-1.4-4.45-2.16-9.05-2.92-13.64-1.3-5.91-4.03-11.35-5.8-17.12,.65,4.28,.41,8.89,1.73,13.03,2.13,6.03,3.17,12.44,6.99,17.73Z"/>
    <path d="M89.91,553.44c-2.69-.32-4.52-2.98-4.14-5.61,.46-6.04-.08-12.06,.01-18.11-4.35-10.62-8.37-21.55-13.96-31.59-4.11-5.26-5-12-7.91-17.87-1.69-3.32-2.95-8.14,.55-10.76,2.65-2.04,6.56-1.21,8.2,1.68,2.24,3.71,5.27,6.88,7.97,10.25,4.74,7.76,9.17,16.2,10.58,25.29,2.2,7.67,5.01,15.16,4.23,23.31,0,6.42,.57,12.85-.06,19.26-.18,2.64-2.97,4.48-5.47,4.15Z"/>
    <path d="M93.53,481.26c-6.21-1.14-3.65-8.24-3.11-12.57,1.34-7.31,1.72-14.8,4.63-21.72,2.89-8.89,4.97-18.03,8.17-26.83,2.51-6.31,5.92-12.22,7.9-18.74,5.16-11.16,7.74-23.24,12.2-34.64,5.65-11.17,10.94-22.52,15.43-34.12,6.58-12.38,12.44-25.5,21.1-36.57,7.55-7.71,16.75-3.36,14.83,7.58-.81,10.98-6.78,20.38-10.17,30.6-.99,3.73-1.96,7.47-2.96,11.21-.81,1.2-1.41,2.55-1.84,3.95-.54,1.78-.78,3.65-1.09,5.49-.05,.29-.04,.59,.02,.86-2.14,7.11-4.61,14.12-7.82,20.85-4.36,7.53-6.79,15.95-10.75,23.66-1.89,3.13-4.33,5.89-5.89,9.23-4.45,10.28-9.02,20.48-13.44,30.79-2.48,6.7-7.03,12.37-9.85,18.83-2.39,5.45-2.63,24.27-12.01,18.51-.55,2.15-2.55,3.69-4.73,3.69-.21,0-.43-.01-.64-.05Zm55.32-147.47c-2.8,6.12-4.74,12.61-7.98,18.53-4.96,11.3-10.94,22.07-13.9,34.15-5.09,17.87-14.8,34.01-19.3,52.06-.72,2.5-1.42,5.01-2.14,7.51-.49,1.73-1.07,3.43-1.67,5.12,8.62-13.62,13.82-28.72,20.38-43.34,1.99-5,5.44-9.12,8.14-13.69,2.98-6.91,5.44-14.05,9.15-20.63,6.8-13.7,9.95-28.81,14.17-43.38,2.45-8.31,7.65-15.66,8.86-24.38-5.71,9.09-10.38,18.75-15.71,28.06Z"/>
    <path d="M90.3,489.62c.49-5.34-1.48-10.18-2.52-15.28-1.71-14.74-1.37-29.6-1.03-44.39-2.72-24.51-5.45-49.16-10.69-73.21-1.61-6.1,7.44-8.69,9.34-2.61,.19,.86,.38,1.72,.57,2.58-.07,.31-.02,.65,.17,.91,.01,.02,.03,.04,.04,.06,4.77,22.27,7.14,45.03,9.89,67.66,.99,12.73-.71,25.68,.58,38.41-.27,9.25,3.89,16.8,3.36,25.87-.06,3.17-2.46,4.77-4.86,4.77-2.38,0-4.75-1.58-4.85-4.76Z"/>
    <path d="M94.16,455.29c-9.67-1.94,.5-20.73,1.33-26.97,2.74-9.28,5.43-18.58,8.55-27.74,2.94-6.39,4.94-13.99,5.68-20.86,.07-7.43,1.43-14.8,1.25-22.22-.12-2.64,2.3-4.85,4.85-4.85,8.45,.64,3.7,14.3,3.94,19.83,.07,11.77-2.83,23.2-7.52,33.94-2.67,9.22-5.8,18.32-8.25,27.6-1.03,4.05-2.65,7.93-3.69,11.96-.53,4.03-.49,9.85-6.14,9.31Z"/>
    <path d="M91.46,431.56c-2.54-14.61,1.36-30.26,3.79-44.55,1.91-14.18,.33-28.74,.43-43.05-.69-6.3,8.62-7.63,9.62-1.32,.51,13.56,.53,27.21,.35,40.77-2.21,12.21-4.36,24.43-5.43,36.83-.32,3.36,.37,6.7,.85,10,.73,6.29-8.56,7.64-9.62,1.32Z"/>
    <path d="M99.24,412.06c-3.71-14.38-7.22-29.02-8.31-43.91-.16-2.13-.3-4.25-.41-6.37,0,0,.01,0,.02,0h.09c1.26-.05,2.37-1.17,2.27-2.44-.1-1.53-.18-3.07-.38-4.59-.17-1.39-.36-2.79-.47-4.19-.09-1.06-.16-2.13-.19-3.19-.02-.99,0-1.97,0-2.96,0-.65,.04-1.37-.18-2-.29-.8-.93-1.41-1.75-1.56-.11-11.41-.04-22.78-.53-34.35-3-21.5-4.45-43.07-5.62-64.67-.91-19.73-1.72-39.28,3.85-58.34,3.25-11.78,13.07-16.21,18.24-2.56,4.63,10.88,4.08,22.66,4.35,34.13,.61,5.56,.08,11.12-.18,16.69,.27,5.86,.27,11.66,.09,17.52,0,3.41,.09,6.81,.18,10.21-1.46,.97-2.35,2.69-2.2,4.48,.1,1.27,.72,2.43,1.64,3.24,.24,.34,.5,.64,.81,.92,.22,7.87,.32,15.71-.32,23.59-.66,6.7-1.13,13.37-1.34,20.09-1.47,11.36-3.52,22.7-3.97,33.82,8.8-19.27,12.53-40.89,24.87-58.4,7.25-9.78,13.46-20.5,22.46-28.83,6.79-6.97,12.69-14.8,20.27-21,10.63-8.79,19.75-19.04,31.3-26.67,4.07-3.38,11.58-5.46,12.38,1.92-.26,3.63-3.39,6.2-5.36,9.01-3.69,4.84-7.57,9.54-11.11,14.49-5.95,9.16-13.53,17-21.04,24.89-5.33,4.11-11.49,7.98-13.17,14.67-6.26,7.54-12.6,14.9-18.23,22.83-2.18,3.54-5,7.94-7.8,10.71-9.05,9.07-13.92,20.49-18.09,32.35-3.22,9.3-8.74,17.72-9.31,27.75-1.93,12.99-2.79,25.31-3.23,38.31,.19,3.85-2.42,6.98-5.34,6.98-1.45,0-2.97-.76-4.28-2.57Zm1.02-52.92c.12,2.75,.15,5.51,.31,8.26,.21,2.71,.53,5.41,.86,8.11,.31-4.17,1.23-8.26,1.82-12.39-1.23-1.05-1.83-2.7-1.66-4.38-.42,.19-.86,.33-1.34,.4Zm-6.89-123.44c.53,15.04,1.47,30.22,2.67,45.17,.94,9.99,2.98,19.87,3.21,29.91,.29-10.98,1.63-21.61,1.9-32.41-.37-13.13-1.16-26.32-.45-39.45-.93-9.23,.59-18.52-.27-27.78-.09-8.59-.13-17.74-3.21-25.73-4.87,16.1-5.05,33.83-3.86,50.29Zm68.55,26.67c-7.48,6.9-13.59,15.03-19.08,23.35-4.38,5.84-8.7,11.81-11.77,18.44,4.85-4.9,7.88-11.14,12.16-16.51,5.94-7.49,11.3-13.95,17.27-21.11,3.44-4.82,8.13-8.45,12.08-12.79,4.37-5.28,9.04-10.25,13.6-15.34-8.86,7.22-16.92,15.21-24.27,23.96Z"/>
    <path d="M101.07,358.97c-2.77-9.84-.85-20.51,1.15-30.35,1.72-10.62,6.31-20.41,8.91-30.82,2.52-6.33,5.11-12.69,8.65-18.52,1.79-2.78,3.85-5.36,5.91-7.93,.63-.12,1.15-.63,1.37-1.23,.68-.27,1.18-.95,1.18-1.73,0-.07,0-.13,0-.19,.11-.15,.23-.29,.35-.44,.81-.79,1.57-1.62,2.33-2.45,.9-.96,1.88-1.87,2.7-2.9,.62-.79,1.24-1.71,1.07-2.76,0-.03,0-.05,0-.08,5.91-7.78,11.86-15.51,18.47-22.69,4.07-8.11,10.99-14.27,16.25-21.48,4.25-6.79,9-13.26,13.71-19.72,5.69-6.76,12.34-12.55,17.96-19.35,4.37-4.66,9.64-8.3,14.62-12.24,5.06-5.25,11.12-10.41,18.17-12.65-.1,.13-.2,.26-.3,.39-.63,.81-1.33,1.56-2.04,2.3l.28-.28c-.12,.12-.25,.25-.36,.37l.11-.11c-1.18,1.23-2.37,2.45-3.46,3.77-.71,.85-1.4,1.72-2.1,2.56-.32,.34-.63,.67-.96,1-.83,.86-1.67,1.74-2.42,2.68-.48,.6-.93,1.2-1.36,1.83-.25,.29-.49,.61-.73,.91-.42,.53-.88,1.08-1.22,1.68-.38,.45-.77,.9-1.17,1.34l.13-.13s-.1,.1-.14,.15c0,0,0,0,0-.01-.03,.03-.05,.06-.07,.08h0s0,0,0,0c0,0,0,0,0,0,0,0,0,0,0,0-.01,.01-.02,.02-.03,.03-1.59,1.69-3.23,3.32-4.71,5.1-1.46,1.74-2.67,3.67-4.12,5.42-.85,.99-1.73,1.97-2.62,2.94-.85,.91-1.69,1.85-2.43,2.85-1.16,1.56-2.21,3.18-3.34,4.76-3.09,3.16-6.36,6.15-9.2,9.56-7.68,9.15-12.45,19.3-20.45,27.92-4.2,4.34-7.38,9.38-10.51,14.5-6.82,7.47-13.06,15.43-19.15,23.55-3.9,5.55-8.26,10.76-12.41,16.15-3.92,5.95-6.58,12.63-9.17,19.25-3.4,13.04-8.93,25.48-10.03,39.06-.13,5.7-1.28,10.17,.51,15.37,.96,3.66-1.96,6.08-4.83,6.08-1.9,0-3.78-1.06-4.52-3.51Z"/>
    <path d="M182.4,225.11c10.76-12.38,20.51-25.09,29.71-38.6,.78-.83,1.57-1.67,2.35-2.5,.02-.01,.04-.03,.07-.04,.75-.45,1.34-1.24,1.87-1.9,.24-.3,.48-.61,.73-.91,.81-.87,1.61-1.74,2.41-2.61,.67-.64,1.35-1.27,2.01-1.92,.61-.59,1.21-1.17,1.78-1.78,.07-.08,.14-.16,.22-.25,.75-.66,1.4-1.42,1.78-2.34,.07-.16,.13-.33,.18-.49,2.4-2.86,4.71-5.81,6.84-8.91-.52,.27-1.02,.55-1.51,.85,.13-.17,.26-.33,.39-.49,1.13-1.21,2.25-2.43,3.37-3.64,1.65-1.77,3.33-3.51,4.92-5.33,.66-.76,1.32-1.54,1.95-2.32,.08-.1,.16-.2,.25-.3,2.26,1.48,3.61,4.29,2.98,7.2-1.49,7.18-6.77,12.72-11.15,18.33-3.82,4.98-8.08,9.54-12.59,13.87-7.05,9.7-13.99,19.43-21.34,28.91-2.98,3.85-6.65,7.12-9.52,11.07-1.05,1.34-2.36,1.9-3.65,1.9-3.5,0-6.79-4.12-4.04-7.83Z"/>
    <path d="M209.22,180.5c-.05,.07-.09,.12-.14,.18,.05-.06,.09-.12,.14-.18Z"/>
    <path d="M220.88,159.53c-3.97-4.19,1.28-8.09,4.04-11.07,1.9-2.37,3.52-4.97,5.68-7.14,7.65-7.38,16.97-12.76,26.28-17.76,4.07-1.87,9.9-5.58,13.56-1.16,5.68,10.39-11.83,17.22-16.64,24.28-1.82,2.79-5.23,5.17-8.36,2.73-2.26-1.73-2.53-5.26-.48-7.28-1.4,.85-2.73,1.8-3.98,2.83-.04,0-.08,0-.12,0-1.44,.03-2.62,1.19-3.57,2.16-.7,.73-1.36,1.51-1.97,2.32-.59,.79-1.14,1.61-1.75,2.38-.63,.81-1.33,1.56-2.04,2.3l.28-.28c-.12,.12-.24,.25-.36,.37l.11-.11c-1.18,1.23-2.37,2.45-3.46,3.77-.71,.85-1.4,1.72-2.1,2.57-.05,.06-.1,.11-.16,.17-.56,.22-1.13,.35-1.71,.35-1.05,0-2.14-.41-3.25-1.42Z"/>
    <path d="M237.07,148.33s-.06,.07-.09,.1c-.03,.03-.06,.07-.09,.1,.06-.08,.1-.14,.17-.21Z"/>
    <path d="M156.82,225.28c-1.96-8.87-1.16-17.79-1.06-26.75,.13-.79,.1-1.58-.07-2.36-.14-3.8-.09-7.6,.14-11.4,.06-16.87,.2-33.67,1.54-50.5,.68-13.78-.4-27.61,2.21-41.24,.68-4.66,1.54-12.39,7.5-13.05,14.68-2.24,11.75,46.87,12.52,56.93,.88,14.36,.85,28.75,1.41,43.12,.45,11.89,.8,23.75-.77,35.57-.32,4.13-6.29,5.67-8.64,2.3-.82-1.07-1.06-2.3-.97-3.62,.84-7.92,1.49-15.82,.92-23.79-1.28-29.64-.53-59.45-3.32-88.99-1.5,10.28-.42,20.7-1.07,31.04-1.59,19.84-1.41,39.02-1.86,58.82,.65,10.91-1.27,21.82,1.13,32.6,.4,3.47-2.26,5.44-4.9,5.44-2.13,0-4.25-1.29-4.72-4.12Z"/>
    <path d="M179.86,214.86c-2.53-.35-4.62-2.87-4.15-5.47,1.82-9.05,4.87-17.86,5.27-27.16,.48-5.72,2.24-11.23,2.76-16.94-.22-6.28,1.73-12.23,2.39-18.41,.78-18.67,4.01-37.48,3.53-55.99-2.76,6.57-5.04,13.4-6.63,20.34-.95,3.91-1.93,9.89-7.37,8.56-6.1-1.95-2.36-8.69-1.54-12.97,3.45-10.31,5.39-24.65,15.6-30.42,8.73-2.62,10.07,6.6,9.58,13.06,.19,4.56,.15,9.09-.15,13.51-.59,15.53-2.72,30.11-3.41,45.48-.29,4.41-1.89,8.59-2.16,13-.06,4.54-.52,9.13-1.64,13.52-1.75,11.66-3.14,23.49-6.45,34.84-.23,2.92-2.6,5.5-5.64,5.04Z"/>
    <path d="M152.18,180.16c-.14-.63-.31-1.25-.55-1.87-.42-1.15-.99-2.23-1.43-3.35-.69-2.29-1.03-4.79-2.28-6.86-.55-.91-1.3-1.83-2.2-2.41-.2-.13-.41-.25-.63-.36-.44-2.4-.81-4.78-1.37-7.03-3.05-9.75-5.42-19.73-7.61-29.54-1.69-7.63-4.99-14.8-6.36-22.51-.65-6.97-1.43-14.73,.96-21.41,2.88-6.12,10.58-4.57,14.58-.48,4.61,4.16,6.18,10.52,8.72,16,2.89,7.33,7.12,14.27,7.91,22.27,.45,4.24,.82,8.5,1.54,12.71,.42,2.62-1.58,5.12-4.15,5.47-6.47,.56-5.79-7.47-6.5-11.86-.09-8.27-3.62-15.62-7.01-22.95-2.18-4.7-3.48-10.12-6.74-14.2-1.67,11.99,3.38,22.85,6.34,34.15,2.02,7.69,3.03,14.29,5.14,21.62,2.44,5.68,3.36,12.68,4.57,18.25,.45,2.48,1.11,4.94,2.8,6.89,2.72,3.75-.5,7.83-3.99,7.83-.58,0-1.17-.11-1.74-.36Z"/>
    <path d="M111.34,272.85c-2.47,0-4.55-.84-5.15-4.07-.19-2.2,.63-3.58,1.97-4.47,.19,1.13,.76,2.15,1.6,2.89,.35,.51,.79,.97,1.33,1.3,.04,.03,.09,.05,.13,.07-.24,1.47-.2,2.92,.32,4.27h-.19Z"/>
    <path d="M124.23,271.02c.2,.14,.43,.23,.68,.29-.27,.04-.55,.08-.83,.11,.05-.13,.1-.27,.15-.4Z"/>
    <path d="M127.05,270.14c.7-.27,1.2-.96,1.2-1.75,0-.1,0-.2-.02-.3,.75-.69,1.45-1.45,2.15-2.21,.22,3.1-1.57,4.46-3.95,5.11,.27-.22,.49-.52,.62-.85Z"/>
    <path d="M278.69,270.3c-3.13-.43-6.28-.41-9.44-.39-1.42,0-2.83,0-4.25-.02,.3-.79,.55-1.6,.74-2.44,.56-2.44,.61-4.93,.19-7.31,2.04,.1,4.06,.16,6.07,.12,2.5,0,5.01-.08,7.48,.3,.88,2.06,2.08,3.99,3.55,5.71,.41,.48,.83,.93,1.27,1.36-.72,1.59-2.22,2.82-4.28,2.82-.43,0-.87-.06-1.34-.16Z"/>
    <path d="M252.68,265.13s.02,.08,.03,.12c0,.08,.02,.16,.03,.25-.02-.12-.04-.25-.06-.37Z"/>
    <path d="M207.13,323.84c4.09,.82,5.76,7.09,.94,9.23-1.82,.77-3.56,1.72-5.27,2.72,2.03-3.79,2.77-8,4.32-11.95Z"/>
    <path d="M158.19,364.85c.07,.07,.14,.14,.22,.2-.43,1.52-.85,3.05-1.26,4.58-.06,.2-.1,.4-.16,.6,.37-1.8,.77-3.59,1.2-5.38Z"/>
    <path d="M215.64,483.01c-.21-.24-.42-.47-.63-.7,.06-.28,.12-.55,.17-.83,.52,.55,.92,1.23,1.16,2,.08,.24,.16,.46,.24,.7-.29-.41-.61-.8-.93-1.18Z"/>
    <path d="M237.52,160.61c-.94-.6-1.57-1.3-1.94-2.06,1.33-1.41,2.65-2.81,3.93-4.27,.66-.76,1.32-1.54,1.95-2.32,.44-.53,.86-1.07,1.29-1.6,.52-.67,.98-1.36,1.06-2.23,.14-1.29-.64-2.44-1.76-2.92,1.44-2.35,2.85-4.67,4.89-6.71,5.96-4.83,11.74,3.81,5.57,8.2-1.6,3.2-3.79,6.43-5.99,8.96-1.66,2.49-3.75,5.66-6.62,5.66-.74,0-1.54-.21-2.39-.7Z"/>
    <path d="M210.18,175.04c-5.97-4.06,.82-9.86,3.5-13.69,3.41-4.28,7.34-16.23,14.32-11.88,4.81,4.24-.73,8.16-2.98,11.95-.02,.03-.04,.06-.06,.1-.81,.84-1.62,1.69-2.34,2.6-.47,.6-.92,1.2-1.36,1.83-.25,.29-.48,.6-.73,.91-.42,.53-.88,1.08-1.22,1.68-.38,.45-.77,.9-1.17,1.34l.13-.13c-.06,.06-.11,.12-.17,.18,.01-.01,.02-.03,.04-.04-.01,.02-.03,.04-.05,.06,0,0,0,0,0,0,0,0,0,0-.01,.01h0s-.03,.02-.04,.03c0-.01,.02-.02,.03-.03-1.59,1.7-3.25,3.35-4.74,5.14-.17,.2-.33,.4-.49,.61-.11,0-.21,.01-.32,.01-.79,0-1.59-.21-2.34-.66Z"/>
    <path d="M155.8,198.23c.14-1.24-.1-2.49-.63-3.67-.14-.32-.28-.65-.43-.99-.3-.82-.57-1.66-.81-2.51-.27-1.18-.39-2.38-.62-3.57-.28-1.43-.56-2.85-.69-4.3-.17-1.69-.4-3.32-.99-4.91-.42-1.15-.99-2.22-1.43-3.35-.69-2.29-1.03-4.79-2.28-6.86-.14-.23-.29-.47-.46-.7,2.44-1.23,5.86-.56,6.92,2.94,.72,3.7,3.02,6.72,4.61,10.06,4.65,2.44,3.44,8.76,4.24,13.11,.41,3.48-2.24,5.44-4.88,5.44-.89,0-1.78-.23-2.55-.69Z"/>
    <path d="M105.88,324.75c-4.32-.63-4.29-4.8-4.1-8.23-1.49-15.04-.04-30.06,.08-45.09-.58-7.33,.87-14.63-.62-21.9-.74-6.3,8.57-7.62,9.62-1.32,1.18,6.43,.76,12.85,.55,19.31,.84,10.92-1.2,21.5-.47,32.39-.03,5.54-.02,11.08,.55,16.6,.45,3.92-.71,8.75-5.61,8.23Z"/>
    <path d="M90.51,512.46c.95-12.39-.77-24.69-3.13-36.83-1.83-10.4-1.34-21.2-4.69-31.32-5.38-15.45-9.84-30.83-12.93-46.7-1.08-15.4-1.45-31.5,3.98-46.1,3.35-6.44,12-1.37,8.47,5.04-4.11,12.56-3.68,25.92-2.91,38.9,2.47,14.75,7.11,28.84,11.52,43.05,4.51,10.8,4.24,22.73,5.9,34.12,2.43,13.03,4.46,26.29,3.5,39.55,.1,6.5-9.54,6.9-9.72,.29Z"/>
    <path d="M112.6,389.65c-2.2-1.29-3.17-4.42-1.74-6.63,1.33-1.67,1.41-3.86,1.6-5.91,.68-13-.81-26.02,.01-38.99,.25-6,1.15-11.96,2.01-17.91,.27-2.62,2.92-4.49,5.47-4.14,4.6,.65,4.59,5.69,3.53,9.21-1.23,9.43-2.01,19.34-1.44,28.81,.59,5.23,.16,10.56,.1,15.79,.5,6.17,.44,23.5-9.52,19.78Z"/>
    <path d="M302.56,294.16c-5.18-1.05-3.97-5.35-3.9-9.24-.61-4.28-1.27-8.26-1.61-12.53-5.43,1.49-10.36,4.16-15.77,5.6-3.03,1.7-7.07,2.15-8.7-1.61-1.05-2.48,.18-5.26,2.58-6.36,6.44-2.34,12.77-4.84,19.23-7.02,7.02-5.11,11.56,.46,12.21,7.6-.25,6.21,6.34,23.73-4.04,23.57Z"/>
    <path d="M410.97,339.56c-2.96-.56-4.69-2.79-6.49-4.89-1.75-.72-3.91-.23-5.79-.81-2.62-.42-4.51-2.8-4.15-5.47,.35-2.58,2.86-4.56,5.47-4.15,1.19,.18,2.36,.47,3.57,.41,3.92-.22,7.65,2.38,9.73,5.49,3.12-.62,6.62-.49,7.64,3.18,1.39,5.86-5.63,7.21-9.98,6.24Z"/>
    <path d="M416.09,351.23c-1.63-.21-3.24-.61-4.84-.99-1.24-.28-2.32-.79-3.42-1.36-5.23,1.11-10.2,.39-15.2-1.35-4.43-.4-8.88-1.18-13.07-2.7-2.07-.79-3.73-2.39-5.69-3.39-1.9-.37-3.6-1.24-5.23-2.25-1.77-.16-3.44-.32-5.11-1.08-5.77-2.85-10.02-7.36-15.32-10.84-4.96-1.72-10.1-3.54-13.24-8.15-1.42,.03-2.72,.69-4.09,1.01-4.59,1.18-9.4-.76-12.76-3.89-1.47-1.19-2.44-2.83-3.94-3.98-1.2-.69-2.58-.92-3.8-1.62-5.23-3.11-1.01-11.1,4.49-8.59,1.76,.78,3.55,1.27,5.13,2.44,2.43,1.7,3.83,4.52,6.52,5.88,1.41,.81,2.85,.05,4.24-.35,3.3-.94,7.06-.93,9.89,1.19,2.03,1.46,3.15,3.96,5.54,4.99,3.71,1.12,7.27,2.4,10.23,5.02,3.82,2.39,6.82,5.86,10.89,7.92,2.74,.53,5.55,.81,7.88,2.6,2.01,.38,4.42,1.59,5.84,2.71,4.16,3.09,9.61,2.74,14.42,3.76,2.23,.42,4.37,1.66,6.67,1.56,2.67-.14,5.36-1.02,8.03-.43,4.63,2.47,9.42,2.69,14.41,1.75,6.28-.71,7.65,8.63,1.32,9.62-3.27,.35-6.52,.9-9.81,.49Z"/>
    <path d="M288.79,263.66c-3.87-1.9-5.07-6.04-6.15-9.95-1.95-4.66-2.42-9.8-4.68-14.37-.92-4.17-4.22-7.17-4.91-11.42-.65-4.77-3.63-13.72,3.69-14.27,6.55,.34,4.42,8.39,5.89,12.77,5.26,8.69,7.23,18.84,10.54,28.4,3.92,1.83,6.86,7.82,2.25,10.59-2.27,1.34-5.26,.53-6.63-1.74Z"/>
    <path d="M282.92,269.73c-2.95-1.74-4.46-4.97-7.19-6.95-3.84-1.93-9.35-6.63-5.31-10.98,2.63-2.63,6.35-1.21,8.3,1.47,3.59,1.81,6.34,4.73,8.78,7.85,1.16,.79,2.18,1.73,2.55,3.14,1.27,3.96-3.62,7.82-7.13,5.48Z"/>
    <path d="M310.83,275.45c-2.13-2.11-1.64-5.25,.32-7.27,1.88-3.77,4.07-7.34,7.04-10.38,2.63-2.93,5.34-7.07,8.91-8.88,1.4-.17,2.77-.46,4.09-.9,.65,.04,1.32,.15,2.02,.36,.31-.56,.64-1.11,.98-1.66,1.29-.7,2.51-1.56,3.64-2.61,2.96-2.73,4.96-6.37,5.72-10.3,2.62-1.98,5.82-3.09,8.5-5.07,2.55-2.33,6.56-4.19,9.13-.83,1.61,2.08,1.23,5.21-.87,6.8-3.44,2.94-7.79,4.67-11.39,7.28-1.57,2.49-2.78,5.13-4.91,7.22-2.37,4.99-6.75,10.47-12.96,8.61-3.08,3.39-6.17,6.82-8.93,10.48-1.73,3.23-4.21,8.62-7.86,8.62-1.04,0-2.18-.44-3.42-1.5Z"/>
    <path d="M382.19,321.1c-.36-10.57-5.9-19.9-7.71-30.22-1.21-6.29-4.78-12.13-3.73-18.71,1.11-8.65,5.53-16.42,6.84-25.07-6.12,6.65-11.14,14.23-17.88,20.32-4.68,5.63-11.07,9.28-15.86,14.82-4.02,2.76-8.05,11.06-13.47,6.36-1.92-1.92-1.79-4.93,0-6.86,9.13-9.59,19.6-17.58,28.58-27.29,4.38-6.31,10.27-11.45,14.06-18.14,1.41-4.06,3.73-7.63,7.15-10.28,1.17-.96,2.77-1.64,4.3-1.37,10.4,2.58,2.13,24.19,.92,31.5-1.31,6.94-5.86,13.31-4.99,20.57,1.13,4.11,3.09,8.9,3.7,12.97,.57,7.31,14.43,33.68,3.54,35.57-2.58,.37-5.11-1.52-5.47-4.15Z"/>
    <path d="M284.05,237.87c-3.95-3.24-.86-7.69,2.31-10.14,6.43-5.3,14.38-7.02,22.63-7.15-1.62,2.69-2.57,5.78-2.7,8.96-.01,.32-.02,.63-.01,.95-.12,0-.24,.01-.37,.02-3.72,.66-7.27,.71-10.52,2.6-2.88,1.59-5.34,5.81-8.56,5.81-.86,0-1.78-.3-2.78-1.05Z"/>
    <path d="M364.62,231.43c-4.69,.71-9.36-.65-14.04-.81-2.26,.4-4.52,.99-6.79,1.49,.03-.34,.06-.69,.07-1.04,.12-2.95-.51-5.87-1.73-8.52,.6-.14,1.19-.29,1.79-.44,2.64-.65,5.29-1.32,8-1.18,4.93,.41,9.84,1.58,14.76,.45,1.18-.14,2.24-.11,3.21-.09,1.91,.04,3.56,.08,5.52-1.06,4.45-2.4,9.58,2.3,6.98,6.84-2.08,3.2-6.12,4.38-9.56,5.56-1.3,.68-2.78,1.16-4.17,1.16-1.61,0-3.09-.65-4.05-2.38Z"/>
    <path d="M78.14,275.46c-3.75-.65-6.55-3.46-10.11-4.46-4.32-.19-9.81,5.06-12.63-.91-.99-2.35,.1-5.45,2.59-6.36,7.1-3.48,13.76-3.23,20.22,1.5,1.88,.79,3.9,1.46,5.97,1.24,2.2-.14,4.67-.83,6.56,.7,3.36,2.37,1.87,8.31-2.3,8.65-3.43,.34-6.94,.77-10.28-.37Z"/>
    <path d="M104.83,270.33c0-4.67,4.96-5.1,8.56-5.04,7.21-1.11,14.54-2.86,21.77-.49,2.56,.64,4.07,3.47,3.38,5.97-1.04,3.84-5.21,3.99-8.35,2.8-6.94-1.24-13.54,1.98-20.51,1.61-2.63,.14-4.86-2.3-4.85-4.85Z"/>
    <path d="M149.3,277.28c-1.01-2.4,.12-5.39,2.58-6.36,11.08-4.91,23.35-7.15,35.43-5.99,8.45,1.53,16.96,1.78,25.31,.62,7.78,.37,14.48-1.68,22.02-2.39,9.6,.35,17.88-1.68,27.23-1.85,3.93-.19,7.18,3.11,10.97,1.02,2.56-.67,5.26,.81,5.97,3.39,1.34,5.36-5.06,6.94-9.12,7.26-2.61,.05-4.81-1.2-7.24-1.92-5.26-.39-10.41,1.06-15.65,1.33-7.97,.39-15.78,.48-23.55,2.45-7.87,.09-15.7,1.06-23.57,1.23-5.2-.06-10.29-1.29-15.46-1.69-7.4-.29-14.87,.6-21.74,2.83-4.24,1.24-10.43,5.83-13.21,.05Z"/>
    <path d="M285.47,266.08c-.5-6.7,8.11-5.75,12.58-7.05,7.77-.8,15.55-1.49,23.35-2.14,5.65-.85,10.78,1.33,16.08,2.71,3.46-.1,6.19-.36,9.4-.9,6.44-1.28,27.62-9.7,27.78,1.81-.6,3.99-4.5,4.65-7.86,3.87-4.8-.33-9.24,1.79-13.85,2.76-7.65,1.98-16.23,3.55-23.65,.08-5.95-1.72-12.29-.08-18.34,.37-6.74,.43-13.45,1.07-20.03,2.63-2.57,.49-5.14-1.61-5.47-4.15Z"/>
    <path d="M380.9,269.01c-3.83,.21-6.58-2.56-8.32-5.67-.96-1.3-2.3-2.63-4.05-2.32-4.22,.35-8.43,1.1-12.63,1.7-4.6,.67-9.21,1.2-13.83,1.69-6.32,.68-7.61-8.62-1.32-9.62,3.45-.36,6.9-.74,10.34-1.19,10.89-1.05,23.82-6.63,30.37,5.61,3.43-1.13,5.54-4.92,9.34-5.37,3.99-.84,9.34,1.52,8.07,6.29-.74,2.73-3.66,4.1-6.3,3.31-3.44,2.65-7.04,5.7-11.67,5.57Z"/>
    <path d="M103.44,682.55c-3.58-3.55-4.99-8.88-7.05-13.41-2.89-4.18-3.97-9.12-5.28-13.95-2.26-.68-3.21-3.01-4.31-4.89-4.44-8.77-5.75-18.67-5.8-28.39-.01-3.51-2.02-7.76,.32-10.8,.62-3.61-.84-7.64,1.03-10.94,1.06-5.76,1.47-26.07,10.42-23.46,2.47,.83,3.92,3.66,3.04,6.15-2.74,6.89-3.7,14.36-3.99,21.74,1.16,2.57,.82,6.13,1.39,8.68,1,8.51,3.09,16.75,5.28,25.01,1.2,6.13,2.98,11.29,4.58,17.15,.89,2.61,2.38,5.42,1.66,8.2,1.76,4.95,4.61,9.51,6.21,14.49,.54,3.9-4.44,6.72-7.51,4.44Z"/>
    <path d="M98.77,666.35c-5.66-12.23-7.67-25.43-9.09-38.72-.75-5.61-3.63-10.66-3.72-16.4-.38-6.34,8.99-7.11,9.68-.77,.04,3.91,1.73,7.36,2.74,11.06,2.39,10.7,1.95,21.93,6.09,32.23,.74,4.73,6.61,11.27,.82,14.71-2.29,1.17-5.39,.27-6.53-2.11Z"/>
    <path d="M105.77,682.24c-2.66-.51-4.25-3.08-3.84-5.69,.16-1.03,.33-2.07,.5-3.1-7.77-.67-4.65-12.88-4.97-18.21,.1-12.09,3.21-24.13,9.12-34.68,4.07-7.38,7.32-15.29,12.24-22.14,2.14-2.34,5.77-2.47,7.93-.06,3.54,5.13,1.08,12.07-.15,17.64-2.5,11.46-6.05,23.52-9.51,34.57-2.41,9.17-4.16,18.46-5.63,27.83-.42,2.61-3.18,4.32-5.7,3.83Zm1.73-33.25c2.02-6.78,4.08-13.55,5.96-20.37-3.56,6.24-4.88,13.34-5.96,20.37Z"/>
    <path d="M114.34,707.11c-12.97-11.93-23.91-26.01-35.32-39.44-6.13-7.97-11.41-16.51-15.98-25.45-2.11-3.82-5.18-7.84-4.87-12.38,.77-4.22,6.07-5.33,9.01-2.55,2.83,2.45,5.92,6.12,7.92,8.81,7.05,7.99,14.26,13.96,19.72,23.15,4.11,5.07,7.24,10.76,10.93,15.99,1.22,3.79,3.34,7.05,5.61,10.29,2.12,3.33,3.88,6.87,6.31,10,1.56,2.08,3.7,3.89,4.38,6.49,1.05,4.27-4.16,7.56-7.7,5.1Z"/>
    <path d="M426.13,561.16c-7.74-.51-10.84-16.32-14.1-21.94-11.84-23.96-18.62-50.22-26.11-75.72-6.03-18.92-10.52-38.29-14.05-57.81-1.74-8.44-4.32-16.69-6.05-25.13-.28-4.1-3.07-8.83-.85-12.64,.02-1.97,1.31-3.75,3.22-4.55,6.01-2.82,13.1-2.95,18.88,.55,5.19,2.5,7.25,8.13,10.61,12.42,1.56,1.94,3.32,3.72,4.73,5.77,6.11,10,4.43,22.15,8.03,32.94,2.84,9.18,7.04,17.9,8.97,27.35,4.29,19.23,8.42,38.47,12.14,57.82,2.97,14.33,8.34,28.72,5.85,43.54-1.35,6.6-2.73,17.21-11.27,17.39Zm.33-12.87c5.31-17.14-2.61-34.27-5.43-51.12-2.67-14.9-6.13-29.63-9.27-44.43-1.63-8.01-3.48-16.01-6.67-23.57-3.05-8.04-5.91-16.31-6.88-24.89-.28-7.04-1.53-15.01-6.73-20.18-4.9-5.52-8.13-16.09-17.51-12.55,1.43,9.19,4.1,18.08,6.26,27.1,4.13,20.04,7.88,40.18,14.25,59.67,5.15,17.18,9.71,34.56,15.79,51.45,4.43,13.14,10.92,25.85,16.19,38.52Z"/>
    <path d="M334.59,708.36c-1.64-1.24-2.63-3.03-2.86-5.09-.04-.35-.06-.69-.07-1.03-6.58-3.01-1.15-9.2,1.04-13.37,2.75-5.01,4.21-9.68,6.5-14.75,3.41-7.83,8.24-14.91,12.71-22.16,5.92-7.98,10.32-16.83,15.08-25.51,3.02-5,6.74-9.52,9.56-14.65,4.26-8.16,9.14-16,15.89-22.35,8.85-13.06,21.94-7.06,24.83,6.79,1.12,11.01-7.31,19.95-12.88,28.61-9.31,16.28-21.32,30.72-31.6,46.34-3.36,6.15-5.64,12.84-9.5,18.71-5.99,7.63-17.57,24.9-28.67,18.46Zm7.07-9.02c5.51-4.76,10.63-10.22,14.51-16.4,4.32-8.09,7.48-16.79,13.13-24.12,9.11-12.36,18.31-24.63,26.03-37.92,4.32-8.05,19.05-20.9,8.44-29.13-9.62,8.06-15.78,19.15-21.89,29.96-7.16,9.11-11.42,19.88-17.72,29.52-5.77,8.49-11.57,17.11-15.94,26.42-2.87,6.38-4.68,12.22-8.22,17.96,1.05,.93,1.7,2.3,1.66,3.72Z"/>
    <path d="M247.58,286.05c-6.32-12.2-6.43-26.47-10.55-39.45-7.94-18.24-8.36-38.58-15.58-57.01-2.03-5.99,6.8-9.22,9.14-3.27,5.57,14.12,7.39,29.32,10.82,44.04,3.81,9.5,6.97,19.33,8.67,29.45,1.52,7.7,2.48,15,6.13,21.81,2.82,5.62-5.65,10.06-8.64,4.43Z"/>
    <path d="M228.41,219.82c-3.35-9.88-4.31-20.32-7.5-30.23-.8-3.28-1.69-6.54-2.59-9.8,1.04-1.09,2.15-2.09,3.22-3.13,.61-.59,1.21-1.17,1.78-1.78,.08-.09,.14-.16,.22-.25,.75-.67,1.4-1.42,1.78-2.34,.14-.36,.27-.72,.32-1.08,.09-.12,.18-.25,.27-.37,3.03,10.75,6.2,21.52,8.18,32.48,1.04,4.68,2.2,9.35,3.68,13.92,.94,3.65-1.96,6.08-4.83,6.08-1.89,0-3.77-1.05-4.53-3.5Z"/>
    <path d="M212.24,155.77c-4.14-18.48-7.92-37.01-14.03-54.97-4.94-11.72-5.99-24.55-10.17-36.5-1.98-4.87-5.95-10.04-10.75-12.23-6.31-1.92-11.39-6.98-18.17-4.86-5.1,.09-17.92,3.35-18.14-4.31,0-2.63,2.21-4.87,4.85-4.85,3.41,.41,6.78,0,10.11-.39,4.81-.58,9.55-1.16,14.27,.72,5.14,2.4,9.32,4.05,14.2,6.4,8.56,5.93,13.48,15.45,15.46,25.48,3.84,20.52,12.63,39.62,16.56,60.1,2.47,10.77,4.74,21.82,7.27,32.49-.38,.42-.75,.84-1.1,1.28-.47,.59-.92,1.2-1.36,1.82-.25,.3-.49,.61-.73,.92-.42,.53-.88,1.07-1.22,1.68-.38,.45-.77,.9-1.17,1.34,.05-.05,.09-.09,.13-.13-.07,.07-.12,.13-.19,.2,0,0,.02-.02,.03-.03,0-.01,.02-.02,.03-.03,0,0-.02,.02-.03,.03-.01,.01-.03,.03-.04,.04h0s0,0-.01,0c0,0,0,0,0,0-.01,.01-.02,.02-.03,.03-.63,.67-1.27,1.33-1.9,1.99-1.47-5.36-2.86-10.74-3.9-16.2Z"/>
    <path d="M218.05,169.98s0,0,0,0c-.01,.01-.02,.03-.03,.04,0-.01,.02-.02,.03-.03Z"/>
    <path d="M218.08,169.95s-.02,.02-.02,.02c0,0,.02-.02,.02-.02Z"/>
    <path d="M84.37,350.93c.12,.22,.26,.45,.38,.67,.13,.25,.25,.51,.37,.77,.03,.1,.06,.2,.09,.3,0-.04-.02-.09-.03-.13,.18,.67,.32,1.35,.44,2.04-.89-.98-1.32-2.33-1.24-3.64Z"/>
    <path d="M92.51,354.75c-.17-1.39-.36-2.79-.47-4.19-.09-1.06-.16-2.13-.19-3.19-.02-.99,0-1.97,0-2.96,0-.65,.04-1.37-.18-2-.01-.03-.02-.07-.04-.1,3.44-3.41,7.23-6.35,10.62-3.2,1.8,1.8,1.96,5.08,0,6.86-2.7,1.75-6.19,6.51-9.75,8.82,0-.01,0-.03,0-.04Z"/>
    <path d="M262.67,229.6c-2.6-8.25-5.67-16.37-8.74-24.47-1.67-6.33-2.61-12.83-4.13-19.2-3.25-11.15-6.23-22.43-8.45-33.84,.04-.05,.07-.09,.11-.14,.44-.53,.86-1.07,1.29-1.6,.52-.67,.98-1.36,1.06-2.23,.18-1.72-1.26-3.19-2.97-3.16-.26,0-.51,.05-.76,.12-.87-5.26-1.55-10.55-2.01-15.87-1.11-18.05-9.13-34.38-13.66-51.6-3.48-14.8-10.57-28.69-19.28-41.07-4.97-3.92-9.24-8.41-13.36-13.21-9.34-7.26-21.06-7.62-32.37-6.78-2.95-.12-6.04,.06-9.11,.24-2.86,.17-5.71,.34-8.41,.27-3.07,.65-6.79-.46-7.2-4.02-.49-5.88,5.72-5.86,10.04-5.74,2.13,.09,4.25-.08,6.39-.25,2.14-.17,4.28-.35,6.44-.24,9.15-.15,17.83-.75,26.67,1.72,4.1,1.39,7.79,3.77,11.62,5.77,4.25,2.56,6.62,7.09,10.21,10.36,2.91,2.28,5.89,4.51,8.05,7.57,8.54,12.9,15.82,26.9,19.51,41.99,2.09,10.37,7.03,19.77,9.49,30.02,3.32,10.4,4.26,21.31,5.59,32.07,2.05,20.53,9.38,39.99,13.24,60.1,1.57,9.64,6.73,18.28,9.11,27.72,1.7,3.13,1.72,7.77-2.38,8.87-.41,.12-.83,.17-1.25,.17-2.11,0-4.14-1.41-4.72-3.55Z"/>
    <path d="M186.57,57.93c-1.29-7.62,9.38-6.95,14.27-8.74,3.48-.83,6.95-1.83,10.35-2.95,2.99-1.73,6.99-2.04,8.58,1.64,2.41,7.9-9.69,8.28-14.68,10.24-4.17,1.13-8.44,1.85-12.57,3.18-2.47,.83-5.29-.92-5.96-3.38Z"/>
    <path d="M184.62,52.97c-4.68-6.4,8.29-11.31,12.18-14.94,4.55-2.02,9.55-10.24,14.47-4.74,4.06,6.57-6.12,10.2-10.15,13.51-3.2,2.4-6.56,4.54-9.68,7.04-2.04,1.67-5.22,1.18-6.81-.87Z"/>
    <path d="M183.3,47.62c-1.86-1.86-1.9-5.01,0-6.86,5.01-5.04,10.92-9.68,13.81-16.34,2.67-5.8,11.31-2.13,8.95,3.78-3.31,7.85-9.89,13.61-15.89,19.42-1.9,1.85-4.97,1.89-6.86,0Z"/>
    <path d="M177.05,48.08c-2.35-.99-3.72-3.97-2.59-6.36,2.86-9.72,10.41-17.9,10.91-28.23,.23-2.63,2.95-4.49,5.47-4.15,5.63,.92,4.13,7.55,3.34,11.56-1.33,5.27-4.22,9.96-6.7,14.76-2.66,4.37-3.16,14.75-10.42,12.42Z"/>
    <path d="M173.81,43.39c-2.55-.34-4.61-2.86-4.15-5.47,.11-.65,.19-1.32,.2-1.33-.07-8.89,3.03-17.61,.58-26.39-.71-6.32,8.59-7.61,9.62-1.32,1.88,7.24,.97,14.44-.2,21.71-.34,4.61,.87,13.32-6.04,12.79Z"/>
    <path d="M165.68,42.38c-2.85-.77-4.19-3.88-3.26-6.59-.08-4.64-1.88-9.04-2.76-13.56-.33-5.21-6.37-13.69,.76-16.39,2.55-.7,5.26,.84,5.97,3.39,.96,6.61,12.64,35.19-.71,33.16Z"/>
    <path d="M152.73,40.95c-3.53-.45-4.35-3.74-4.25-6.76-.8-3.06-2.54-5.76-3.52-8.75-1.17-3.9-1.14-8.05-2.43-11.94-1.52-6.18,7.54-8.68,9.36-2.58,1.29,3.92,1.43,8.07,2.47,12.04,2.51,5.18,8.27,17.68-1.63,17.99Z"/>
    <path d="M206.75,38.51c-3.19-5.35-10.04-8.6-12.85-14.11-5.61-8.23-16.38-9.48-25.36-11.51-9.99-.41-19.83,1.65-29.69,2.98-14.88,1.27-29.76,3.03-44.48,5.62-.46-.67-.97-1.3-1.56-1.89-2.08-2.11-4.25-4-6.92-5.33-.6-.3-1.2-.58-1.82-.83,3.87-.72,7.86-1.13,11.51-2.07,15.95-2.71,32.13-3.94,48.15-6.05,18.2-3.45,38.89-3.55,53.95,8.7,3.65,3.17,4.9,6.74,8.17,9.84,5.16,3.2,8.14,8.41,11.96,12.93,1.72,2.01,1.14,5.25-.88,6.8-.93,.74-1.84,1.04-2.73,1.04-3.14,0-5.9-3.88-7.46-6.12Z"/>
    <path d="M97.9,42.99c2.65-.47,5.3-.89,8.14-1.32,14.22-2.58,28.43-4.21,42.91-4.05,2.64-.11,4.85,2.29,4.85,4.85,0,2.73-2.22,4.74-4.85,4.85-10.29,.31-20.6,.02-30.71,2.34-6.85,1-13.75,1.86-20.54,3.22,.65-3.21,.71-6.58,.21-9.9Z"/>
    <path d="M331.74,604.33c-1.65-1.56-2.29-3.91-3.2-5.95-1.62-3.67-3.83-7.03-5.6-10.63-5.84-12.89-9.51-26.94-10.55-41.06-.34-4.67-5.84-11.34,.49-14.14,7.16-2.34,8.44,9.51,9.27,14.33,.85,11.78,4.15,23.65,8.48,34.43,2.64,5.53,5.89,10.7,8.19,16.39,1.9,1.87,1.68,5.14-.23,6.91-1.98,1.82-5,1.61-6.85-.28Z"/>
    <path d="M367.92,595.74c-1.91-6.27-2.8-12.58-4.66-18.84-1.91-5.05-4.4-9.89-5.67-15.17-3.22-13-5.35-26.24-9.13-39.13-.63-2.57,1.09-5.24,3.63-5.83,2.62-.61,5.18,1.07,5.83,3.63,1.18,4.75,2.61,9.44,3.61,14.22,2.21,8.86,3.5,17.85,6.02,26.64,1.58,5.39,4.61,10.24,5.78,15.75,1.25,4.66,2.3,9.2,3.14,13.84,1.51,2.78,.93,6.54-2.29,7.72-2.44,.94-5.29-.35-6.25-2.83Z"/>
    <path d="M333.86,612.04c-3.55-1.7-3.21-7.55,.62-8.77,3.49-1.12,6.84-2.17,9.82-4.39,5.22-2.83,11.32-2.62,16.91-4.26,1.89-.44,3.97,.13,5.75-.52,.9-.49,1.93-1.15,2.93-1.35,4.34-1.13,7.88,4.49,4.81,7.85-2.5,2.2-5.03,3.27-7.94,4.62-7.89,2.92-15.81,5.14-24.14,5.92-2.62,1.62-6.11,3.54-8.76,.9Z"/>
    <path d="M19.94,23.45c-.2-6.56,8.52-5.91,13.11-6.36,13.94-1.61,27.9-2.76,41.87-4.2,14.15-1.61,28.27-3.19,42.44-4.6,6.31-.5,7.28,8.84,.93,9.66-23,2.29-46.07,5.18-69.03,7.2-6.44,.28-13.19,1.6-19.52,1.87-4.02,.96-8.9,1.85-9.8-3.57Z"/>
    <path d="M21.13,53.88c-.3-8.63,14.44-4.62,20.02-6.29,17.9-1.81,35.98-.35,53.62-4.42,5.62-.74,11.17-1.85,16.76-2.76,4.15-.63,6.99,4.88,4.18,7.95-2.84,2.72-7.44,1.97-11.02,3.12-7.7,1.14-15.13,2.33-22.73,3.67-10.42,1.38-21.04,.41-31.51,1.52-8.02,.57-16.02,1.07-24.04,1.56-2.6,.28-5.06-1.74-5.3-4.36Z"/>
    <path d="M19.99,55.65c-7.43-.56-8.74-8.9-8.19-14.94,.49-5.24-.11-16.43,5.9-18.35-.11-4.55,6.24-6.57,8.8-2.77,1.26,1.75,2.7,3.48,3.39,5.54,1.96,5.2,2.04,10.69,.93,16.08-.1,6.81-2.47,15.09-10.83,14.44Z"/>
    <path d="M22,58.52c-6.34-.4-5.99-9.79,.39-9.69,4.24,.03,10.7-3.4,12.3,2.64,1.12,6.87-8.01,6.74-12.69,7.05Z"/>
    <path d="M13.33,51.66c.11-2.72,2.41-4.65,5.05-4.65s4.76,2.49,4.65,5.05c-.11,2.72-2.41,4.65-5.05,4.65s-4.76-2.49-4.65-5.05Z"/>
    <path d="M14.94,25.66c-3.48-6.05,3.68-8.67,8.55-8.93,1.32-.23,2.58-.09,3.72,.63,3.53,2.07,2.58,8.1-1.53,8.81-3.65,.2-8,3.4-10.75-.52Z"/>
    <path d="M336.76,618.62c-2.55-.05-4.61-2.28-4.66-4.77-3.66-4.15-3.1-10.61-3.56-15.84,0-2.65,2.48-4.76,5.04-4.65,4.55,.21,4.72,4.68,4.89,8.18,9.12-7.25,20.83-9.54,32.25-8.16,5.17,.24,9.45,5.55,5.67,10.14-3.01,3.36-7.46,4.95-10.94,7.79-9.02,3.89-18.94,6.44-28.7,7.31Zm11.39-11.84c4.2-.71,8.21-2.3,12.21-3.74-4.31,.05-8.59,1.38-12.21,3.74Z"/>
    <path d="M363.33,230.83c-19.98-2.01-39.79-3.68-59.84-2.87-4.6,.24-9.21,1.06-13.8,.74-7.32-2.28-4-10.5,2.63-10.92,2.33-3.28,7.36-1.98,10.88-2.19,7.43,.2,14.85-.15,22.29,.13,10.83,.77,21.97-1.46,32.62,.97,3.09,.4,6.17,.7,6.8,4.35,6.12,1.6,4.77,10.26-1.58,9.78Z"/>
    <path d="M356.87,225.37c-13.83-1.08-27.65-1.88-41.51-1.14-5.51,.09-11.03-.01-16.54,.3-2.64,.09-5.01-1.72-5.23-4.45-.24-2.97,2.39-5.57,5.39-5.26,9.17-1.62,18.82-1.3,28.17-1.55,11.46-.03,23.28-.31,34.33,2.96,5.79,3.53,1.53,10.74-4.61,9.13Z"/>
    <path d="M397.33,225.39c-2.97-1.43-6.31-1.38-9.53-1.56-2.63-.14-4.72-2.47-4.57-5.12,.66-6.39,8.52-4.43,12.92-3.87,4.08,.67,10.04,3.21,7.68,8.32-1.17,2.4-4.15,3.37-6.49,2.23Z"/>
    <path d="M492.94,237.31c.15-2.75,2.47-4.57,5.12-4.57s4.71,2.59,4.57,5.12c-.15,2.75-2.47,4.57-5.12,4.57s-4.71-2.59-4.57-5.12Z"/>
    <path d="M470.13,302.49c-3.44-.71-6.72-3.96-4.9-7.61,1.14-2.32,4.15-3.45,6.49-2.22,2.98,.89,5.74,3.36,4.56,6.78-.81,2.44-3.71,3.99-6.15,3.05Z"/>
    <path d="M95.98,599.29c-12.68-2.72,10.45-35.44,14.89-40.72,6.04-8.48,14.16-15.01,20.72-23.02,3.08-3.23,7.43-5.72,10.55-8.75,2.24-2.3,4.25-4.8,6.75-6.83,4.98-3.42,9.64-6.95,13.06-12.03,3.38-3.62,7.42-6.61,8.59-11.68,2.2-5.94,11.14-2.99,9.2,3.1-1.56,5.31-4.61,9.72-8.88,13.22-4.51,5.45-8.91,10.77-15.13,14.32-4.96,4.45-9.11,9.69-14.84,13.26-4.96,4.67-8.97,10.27-14.24,14.67-10.14,11.77-20.76,24.54-24.8,39.8-.26,2.92-2.94,5.26-5.87,4.65Z"/>
    <path d="M95.02,369.19c-4.57-1.96-3.89-8.07-4.4-12.2-1.65-7.72-.68-15.74-1.06-23.59,.24-2.63,2.56-4.66,5.22-4.45,4.94,.71,4.42,4.7,4.4,8.53,2.09,3.25,1.55,7.04,3.15,10.46,.78,3.88,4.02,9.3-.81,11.74,.76,4.64-.23,11.25-6.51,9.51Z"/>
    <path d="M229.25,495.49c-6.84-6.75-11.35-15.42-17.08-23.02-1.24-2.66-2.13-5.43-4.22-7.6-1.82-2.69-2.25-6.01-3.67-8.92-.43-1.8-1.32-3.29-2.58-4.63-1.63-2.08-1.54-5.07,.53-6.84,8.23-5.1,11.38,9.04,13.48,14.48,.93,1.58,2.2,2.84,3.06,4.48,1.09,2.79,2.39,5.22,4.41,7.46,3.51,6.3,7.8,12.17,12.56,17.4,4.58,4.41-1.73,11.4-6.51,7.19Z"/>
  </g>
</svg>