<?xml version="1.0" encoding="UTF-8"?>
<svg xmlns="http://www.w3.org/2000/svg" viewBox="0 0 1536 834">
  <defs>
    <style>
      .cls-1 {
        fill: #f3c25f;
      }

      .cls-2 {
        fill: #9eb4a5;
      }
    </style>
  </defs>
  <g id="Vektorebene">
    <path class="cls-1" d="M780.09,470.78c-2.66-.79-4.84-2.84-6.76-4.8-4.92,2.23-6.79-3.41-7.78-7.1-.55,.42-1.17,.7-1.81,.85-.21,.07-.43,.12-.64,.15-.22,.5-.53,.95-.91,1.33-.7,.7-1.59,1.17-2.54,1.39-10.32,13.27-27.12-25.48-28.83-33.32-3.08-12.71-4.33-26.04-2.69-39.05,.14-2.73,3.06-4.81,5.67-3.89,.16-.77,.55-1.47,1.08-2.03-.44-4.75-5.13-12.14-.08-15.54,7.04-3.21,8.47,8.09,10.8,12.43,.21-.13,.43-.25,.66-.35,.45-.65,1.08-1.18,1.87-1.51,1.37-.58,2.96-.4,4.17,.41,1.25-1.9,3.86-2.71,5.89-1.54,.39-.12,.8-.19,1.23-.19-.06-1.36,.68-2.61,1.75-3.42-.46-7.38,8.31-7.43,9.48-.53-.03-.19-.07-.39-.1-.58-.18-1.02,.07-2.04,.61-2.89-.18-1.99,.04-3.96,1.87-5.24,.83-.58,1.82-.88,2.79-.88-1.25-5.39,3.75-9.92,8.12-5.45,1.15,1.53,1.57,3.43,2.12,5.23,4.24-1.68,6.7,2.74,7.47,6.25,2.32-1.41,5.35-.36,6.4,2.11,9.1-5.4,11.32,15.91,13.29,21.4,1.57,6.51,3.11,13.02,5.19,19.4,.61,1.71,1.26,3.39,1.96,5.06,1.24,2.82-1.05,6.27-4.15,6.1,.43,1.96,.85,3.93,1.17,5.91,.34,2.06-1.01,4.1-2.95,4.76,1.11,3.5,2.3,6.98,3.52,10.44,.66,2.08-.58,4.4-2.53,5.22-2.48,1.06-5.48-.47-6.05-3.13-.1,.32-.24,.64-.41,.96-.71,1.28-2.01,1.99-3.36,2.12,.47,2.02,.76,4.13,.21,6.12-.56,2.05-2.4,3.21-4.37,3.19,1.2,3.01-1.18,5.27-3.49,6.74-2.12,1.36-5.01,.32-6.18-1.79-.36,.49-.82,.9-1.32,1.2-.39,.23-.8,.38-1.22,.48-.71,1.2-1.9,1.99-3.22,2.18-1.36,1.78-3.81,2.37-5.92,1.79Z"/>
    <path class="cls-1" d="M813.02,492.64c-.82-.55-1.57-1.15-2.3-1.79-3,.55-6.16-.06-8.81-1.52-2.27-.22-4.5-1.14-6.48-2.32-5.43,4.76-12.53,.54-16.59-4.01-5.95-.33-11.44-4.11-14.47-9.13-4.42-3.27-7.86-8.26-9.17-13.62-2.57-2.09-4.36-5.04-5.06-8.32-1.14-4.46,4.46-7.49,7.55-4.09,4.52-5.69,14.07-2.65,15.63,4.04,.49,.33,.96,.7,1.43,1.07,.56,.08,1.12,.21,1.66,.39,2.44-.76,4.94-.21,7.28,.86,1.76-.57,3.58-.53,5.44,.12,1.9,.65,3.61,1.66,5.15,2.87,.27-.21,.56-.41,.86-.58,.1-.06,.21-.12,.32-.18,.08-.14,.16-.27,.25-.41,1.13-1.81,3.06-2.41,5.05-2.51,.38-.55,.79-1.07,1.24-1.55,1.48-1.56,3.22-2.49,5.27-2.96,0,0,0-.03-.02-.04-.95-2.4-1.94-4.77-2.97-7.13-1.03,4.11-7.44,4.05-8.4-.12t-.02,0c-3.45-10.94-6.44-21.99-9.15-33.14-.65-4.13-3.38-8.49-1.85-12.64-2.86,2.25-7.24-.21-6.99-3.8-.2-.11-.39-.23-.58-.35-.24,.15-.5,.29-.76,.4-.64,2.82-4.12,4.26-6.58,2.78-1.13-.66-1.99-1.88-2.14-3.2-.89-6.52,2.17-13.19,.44-19.55-1.57,7.14-.96,15.01-3.86,21.74-1.06,1.4-2.95,2.02-4.65,1.55-5.79-2.15-2.48-10.34-2.45-14.96-1.34,3.43-1.52,7.61-3.97,10.46-4.37,3.62-8.55-1.09-8.04-5.78-.33,.88-.67,1.76-1.01,2.64-1.23,3.12-2.48,6.57-4.84,9.03-1.01,4.66,.03,10.95-4.15,14.16-1.84,1.08-4.25,.79-5.76-.72-2.56-2.87-1.75-7.16-1.84-10.69-.67-1.57-.87-3.43-1-5.06-.32-9.58,1.38-19.33,5.18-28.14,1.01-5.21,2.21-10.53,4.51-15.36,5.08-8.05,10.14-25.4,21.86-23.98,.81-6.89,5.14-13.31,11.07-16.77,5.07-4.8,12.35-11.63,19.66-7.4,2.62-1.15,5.58-2.18,8.49-2.31,.63,18.15,7.54,35.86,19.32,49.66,.26,6.85-.5,14.5-7.1,13.22,.33,5.94-.29,11.88-.5,17.73,.65,4.4-1.41,9.57-6.64,7.44-.11,.09-.22,.19-.34,.27-.67,.48-1.49,.78-2.32,.86,.04,1.06,.1,2.12,.16,3.18,.15,2.44,.3,4.88,.45,7.32,.67,.28,1.27,.73,1.71,1.36,.02,.02,.03,.04,.04,.06,9.06-5.2,13.57,11.01,17.08,16.7,2.46,4.46,5.8,8.43,7.51,13.38,6.14,.96,7.22,10.59,9.42,15.43,2.12,6.64,4.49,13.21,6.16,19.99,1.22,4.46,4.2,9.63,.94,14.01-3.44,3.31-6.96,9.9-12.66,7.35-2.16,3.66-6.17,6.19-10.46,6.21-2.63-.03-5.02-.69-7.19-2.17Z"/>
    <path class="cls-1" d="M797.5,354.5c-3.06-.9-4.12-3.91-5.14-6.61-2.97-7.28-5.42-14.76-8.13-22.13-2.38-4.97,4.95-8.89,7.74-4.13,.96,1.78,1.53,3.7,2.16,5.6-.3-3.94-.41-7.88-.3-11.82-.16-2.74,.75-6.1,3.99-6.39,.51-4.16,6.87-4.92,8.34-.93,.42,1.13,.54,2.34,1.21,3.36,9.42-4.44,8.99,15.51,10.03,21.02,.13,3.33,1.68,6.91-.03,10.06-1.18,2.23-4.32,2.8-6.34,1.42-.34,3.19-4.45,4.85-6.92,2.86,.09,3.71-2.14,8.86-6.62,7.68Z"/>
    <path class="cls-1" d="M917.56,328.42c-.57-.44-1.02-.96-1.38-1.53-6.72,2-20.49,5.77-23.02-3.64-1.36-.48-2.67-1.08-3.9-1.83-5.92,1.05-12.86-.68-16.81-5.41-7.02-1.73-11.9-7.2-17.08-11.78-3.4-2-7.25-3.14-10.19-5.87-2.65-1.32-5.35-2.54-7.82-4.22-5.34-3.44-10.43-7.16-16.29-9.7-5.55,5.41-11.84,.89-13.07-5.68-.77-2.86-.96-5.87-1.26-8.8-1.02-2.01-2.18-3.96-3.2-5.97-11.99,.06-9.58-29.23-10.35-37.65-.2-4.36-.17-8.7-.14-13.06,.07-2.72-.09-6.14,2.66-7.63,.19-1.98,1.16-3.79,1.96-5.59-1.24-3.13,1.49-6.05,3.04-8.57-8.62-4.47,2.78-13.27,6.1-17.67,4.12-4.92,8.68-9.42,13.46-13.69,4.04-3.17,7.75-6.83,12.36-9.23,4.32-1.69,7.74-4.88,11.78-7.19,5.63-3.53,12.27-3.9,18.42-5.5,3.69-.89,7.41,.28,11.06-.61,8.77-2.83,17.85-2.06,26.91-1.98,4,.46,8.15-.42,12.08,.24,5.88,.73,11.32,3.14,16.59,5.69,2.77-1.64,7.02-.84,7.61,2.71,10.43,5.48,19.14,13.7,27.48,21.91,1.5,1.72,3.78,2.48,5.54,3.92,2.82,2.05,4.19,5.1,5.29,8.26,5.32,.88,5.53,7.43,6.3,11.69,1.1,4.65-.1,9.27,.36,13.91,6.65,.38,4.1,8.36,3.98,12.71-.25,4.52-.33,9.07-.18,13.59-.09,2.21,.22,4.68-1.11,6.58,.09,3.76,.57,7.5,1.33,11.18,.53,2.11,.43,4.58-1.41,6.05,.02,.35,.01,.71-.02,1.08-.03,.33-.09,.66-.17,1,5.37,3.6-1.51,13.45-3.43,17.81-2.27,3.69-2.63,11.49-7.84,11.79-6.61,12-17.6,20.92-28.69,28.71-5.25,4.94-11.17,9-17.18,12.95-2.85,1.94-6.77,3.48-9.81,1.04Zm31.38-42.51c-1.13,1.84-2.3,3.67-3.49,5.48-.22,.33-.43,.66-.65,1,.15-.07,.31-.14,.46-.21,1.93-.9,3.9-1.76,5.95-2.36,.17-.26,.34-.52,.52-.79,.21-.31,.42-.62,.64-.93-1.44-.8-2.25-2.19-2.46-3.76-.32,.53-.65,1.05-.97,1.58Zm-34.07-30.81s.06-.04,.09-.06c.51-.34,1.08-.64,1.68-.84-.39,.11-.79,.2-1.19,.26-.19,.21-.38,.42-.58,.63Zm6.45-.28s.03-.03,.04-.04c-.09-.1-.18-.21-.27-.32-.37-.47-.63-1.02-.79-1.61-.15,.06-.29,.12-.44,.17-.94,.36-1.88,.76-2.85,1.06,.37-.1,.75-.15,1.14-.15,1.2,0,2.21,.27,3.17,.88Zm-50.43-20.42c.11,.08,.21,.15,.32,.23,.12-.15,.25-.3,.37-.44-.32-.22-.61-.49-.87-.78-.22,.17-.43,.35-.65,.52,.28,.13,.56,.28,.82,.47Zm-31.32-3.43c.88-1.48,1.85-2.91,2.99-4.2-2.97,1.66-7.7,2.74-9.48-1.03-.47,.29-.95,.58-1.45,.83-.54,.67-1.08,1.34-1.62,2.01,.21,.45,.4,.92,.56,1.4,2.52-2.72,7.2-2.32,9,1Zm127.07-2.26c.06-.43,.13-.85,.19-1.28,.06-1.18,.1-2.36,.13-3.55-.44,.81-.94,1.59-1.46,2.34,.57,.77,.95,1.6,1.14,2.49Zm-23.67-68.85c.57,1.2,.7,2.51,.52,3.79,.77-.14,1.54-.27,2.31-.39,.77-.12,1.53-.22,2.3-.26-1.42-1.2-2.71-2.52-4.1-3.76-.42-.36-.84-.7-1.28-1.02-.2,.14-.41,.26-.63,.36,.34,.37,.64,.8,.87,1.29Z"/>
    <path class="cls-1" d="M965.07,248.13c-2.14-.77-2.89-2.81-3.1-4.98-4.93,.32-5.29-5.73-6.19-9.29-.62-5.28-1.25-15.04,5.81-15.85-1-6.54-1.64-13.28-4.49-19.32-3.9-6.35-7.99-12.69-12.52-18.52-5.82-5.92-12.9-10.47-17.47-17.57-2.96-2.31-5.95-4.47-7.98-7.76-2.67-1.77-5.44-4.18-4.92-7.75-3.29,.3-7.47-.23-7.52-4.4,.2-5.58,6.65-4.31,10.52-4.34,6,.14,12.02,.5,17.68,2.66,4.61,1.98,2.69,9.14-2.31,8.4-2.59-.74-5.19-1.28-7.9-1.41,1.72,1.4,2.69,3.48,4.27,5.01,1.86,1.22,3.78,2.4,5.14,4.23,4.42,6.92,11.53,11.12,17.01,17.05,5.43,6.97,10.55,14.39,14.66,22.22,2.54,6.01,3.41,12.53,4.36,18.94,3.4,.41,4.15,3.93,3.79,6.79-.14,3.17-.17,6.34-.31,9.5-.1,2.47-.18,5.63-2.76,6.83,.08,2.4,.89,4.88,0,7.23-.85,2.23-3.61,3.25-5.76,2.34Z"/>
    <path class="cls-1" d="M895.36,326.9c-1.58-.15-3.21-1.06-4.17-2.32-.21-.27-.38-.55-.53-.84-2.38-.83-4.85-2.23-6.18-4.38-1.16-1.88-.57-4.37,1.11-5.7,2.07-1.64,4.52-.81,6.77-.14,1.05,.31,1.92,.98,2.49,1.84,2.25,.16,5-.59,6.51,1.67,4.94,3.98-.74,10.94-6,9.86Z"/>
    <path class="cls-1" d="M801.7,321.13c-1.01-.78-1.67-1.99-2.21-3.13-.13-.26-.25-.53-.36-.8-1.01,.71-2,1.46-3,2.19-3.45,2.76-8.56-1.22-6.72-5.22-3.41-4.71,2.25-9.38,6.9-9.39,1.7-1.33,4.32-1.25,5.92,.23,10.42-3.78,10.62,22.81-.54,16.13Z"/>
    <path class="cls-2" d="M632.92,540.23c-2.38-.65-3.61-3.07-3.07-5.41,1.56-8.15,8.49-13.17,13.83-18.89,7.66-8.08,15.22-16.44,24.41-22.82,2.51-2.53,5.38-4.65,8.19-6.84,1.27-1,2.97-1.14,4.39-.56,2.01-1.39,4.96-.62,6.14,1.47,3.08,5.92-7.45,9.64-10.71,13.29-5.65,6.26-11.97,11.75-18.17,17.44-2.01,2.04-4.49,5.04-7.68,3.86-3.56,4.17-8.46,7.29-10.93,12.3-.51,.96-.74,2.02-.99,3.07-.54,2.34-3.18,3.68-5.41,3.06Z"/>
    <path class="cls-2" d="M629.03,629.47c-1.99-1.17-2.89-4.01-1.58-6.02,.43-.68,.93-1.32,1.22-2.08,.92-5.7-.85-12.2,3.17-17.09,1.95-4.01,8.28-3.82,8.9,.97,.15,2.62-1.13,5-1.64,7.52-.38,1.55-.41,3.31-1.35,4.63,.46,4.91-2.07,15-8.73,12.06Z"/>
    <path class="cls-2" d="M586.94,496.44c-3.1-2.93-3.56-7.8-4.21-11.83-1.49-3.46-2.83-6.97-3.64-10.66-.63-2.31,.76-4.76,3.07-5.4,5.66-1.33,5.68,5.53,7.22,9.13,1.28,.89,1.95,2.49,1.91,4.1,.35,2.6,1.43,5.07,2.05,7.63,2.26,4.76-1.31,10.04-6.4,7.03Z"/>
    <path class="cls-2" d="M614.02,414.89c-4.71-.22-5.76-5.79-7.67-9.19-4.5-10.14-5.07-21.59-4.94-32.53,.72-6.95,10.04-5.05,8.79,1.74,5,9.32,6.62,19.82,7.74,30.21,.8,3.65,1.28,9.69-3.92,9.77Z"/>
    <path class="cls-2" d="M627.52,446.81c-8.1-1.84-.77-13.56,1.06-18.2,3.1-7.11,6.46-14.25,8.54-21.71-5.31-3.47,.64-8.55,2.22-12.44,3.05-7.57,6.92-15.02,9.54-22.64,.86-2.77,1.24-6.86,4.63-7.57,2.9-7.32,6.3-14.42,9.53-21.59,.47-1.95,.92-4.11,2.18-5.68,1.63-4.24,4.06-8.11,4.91-12.61,.89-4.34,3.92-7.4,7.64-9.58,1.42-2.54,4.17-5.07,7.17-3.2,5.83,4.19-1.58,9.46-4.04,13.28-2.07,3.23-3.53,5.64-3.56,9.34-.66,5.33-2.31,10.57-4.4,15.5-4.56,9.39-10.67,18.07-14.75,27.7-2.54,6.5-3.07,13.57-5.42,20.16-2.49,8.21-6.07,15.96-9.85,23.62-1.15,4.33-.59,12.43-6.87,12.1-1.42,3.03-2.83,6.09-3.52,9.38-.3,2.51-2.48,4.51-5.02,4.13Z"/>
    <path class="cls-2" d="M619.14,323.99c-1-1.91-.64-4.1-.79-6.17-.66-5.92-2.43-11.64-3.33-17.53-2.1-12.12-1.08-24.47-.24-36.66-1.37-12.65-.59-24.38-.47-36.92,.81-4.24-1.56-10.22,2.37-13.18,.18-2.08-.05-4.53,1.6-6.07,.27-5.15,8.07-5.47,8.71-.31-.43,7.32-2.55,14.69-2.17,22.12,4.19,1.76,3.71,7.21,3.51,10.97-.35,7.58,.53,15.14,.52,22.73,.05,1.63-.92,3.08-2.28,3.84,.44,11.88,1.18,23.78,1.07,35.67-.08,4.86-1.18,9.61-.54,14.46,.14,1.94,.66,4.1,.07,5.99-.9,3.63-6.27,4.4-8.03,1.06Z"/>
    <path class="cls-2" d="M633.84,317.37c0-2.4,2-4.4,4.4-4.4s4.4,2,4.4,4.4-2,4.4-4.4,4.4-4.4-2-4.4-4.4Z"/>
    <path class="cls-2" d="M645.05,308.03c-1.28-.54-2.22-1.71-2.56-3.02-2.83-1.92-2.1-5.62,.11-7.72,4.72-7.89,9.93-15.48,15.94-22.46,4.95-7.08,8.58-15.05,14.86-21.14,4.04-4.38,6.3-10.05,10.37-14.4,6.38-5.35,10.24-12.62,14.98-19.36,7.64-9.72,16.09-18.75,23.68-28.51,7.35-7.8,10.83-20.82,22.51-23.32,3.72-2.59,6.72-10.73,12.12-7.17,5.06,4.68-2.67,9.62-5.59,13.08,0,0,0,0,0,0-1.79,7.28-8.37,12.51-13.12,18.03-6.81,7.04-14.53,12.91-20.29,20.91-3.33,6.17-7.98,11.39-12.02,17.08-3.84,6.49-8.71,12.25-13.12,18.33-3.12,4.34-5.96,8.91-9.61,12.85-1.45,1.56-3.19,3.33-5.42,3.52-6.22,7.82-12.58,15.55-18.15,23.86-2.42,3.6-4.5,7.4-6.2,11.38-1.83,3.42-3.34,10.08-8.51,8.08Z"/>
    <path class="cls-2" d="M647.44,314.28c-4.75-2.13-2.28-7.97-.83-11.57-2.67-5.61,10.91-16.45,14.3-20.85,4.11-5.62,9.02-10.48,14.51-14.72,5.36-5.29,9.4-10.97,15.75-15.04,1.85-1.33,3.8-3.09,6.26-2.72,2.61,.32,4.31,3.02,3.65,5.52-1.14,3.58-5.46,4.9-7.94,7.45-4.72,4.67-8.72,10.02-14.11,14-4.1,3.44-6.87,8.1-10.48,11.98-4.73,5.21-10.24,9.92-13.25,16.42,1.03,1.53,1.01,3.62-.15,5.16-1.7,2.53-4.26,5.89-7.73,4.36Z"/>
    <path class="cls-2" d="M680.07,199.94c0-2.4,2-4.4,4.4-4.4s4.4,2,4.4,4.4-2,4.4-4.4,4.4-4.4-2-4.4-4.4Z"/>
    <path class="cls-2" d="M679.5,228.31c-2.29-15.45-.3-31.4-4.25-46.36-3.38-9.95-8.16-19.42-10.29-29.75-2.26-5.36-4.66-10.71-5.8-16.45-.34-1.61-.51-3.44,.49-4.85-.73-3.23-2.55-6.29-1.57-9.69,.07-3.4,2.11-7.27,6.07-6.28,3.31,.7,3.98,4.8,4.51,7.6,.77,4.67,1.35,9.3,3.2,13.7,1.26,.37,2.36,1.26,3.13,2.37,1.02,1.48,1.72,3.2,2.31,4.91,.99-.3,2.08-.28,3.05,.1-.66-4.18-1.11-8.38-1.4-12.61-.69-3.4-1.18-8.63,3.36-9.26,3.54-.51,5.4,2.99,5.19,6.08,.32,4.75,1.56,9.38,2,14.12,.68,.8,1.08,1.73,1.32,2.77,.52-3.45,1.04-6.91,1.65-10.35,.34-2.82,.8-6.54,4.22-7.02,.94-3.18,2.33-6.23,3.53-9.31,.77-1.97,1.91-4.19,3.97-5.06,4.51-1.83,7.56,2.77,6.61,6.89-1.2,9.86-4.37,19.8-5.18,29.53-.44,7.65-.59,15.33-1.47,22.95-.38,2.63-.39,5.66-2.22,7.7-.32,5.39-.58,10.85-1.97,16.08,4.22,2.07,2.35,7.74,2.96,11.52-.19,3.86,2.05,8.84-.78,12.02-.37,3.91,.42,8.98-2.89,11.78-2.67,2.09-6.68,.25-7.36-2.9-.7,11.93-11.3,10.87-12.38-.23Z"/>
    <path class="cls-2" d="M618.59,213.97c-2.24-.94-3.22-3.53-2.34-5.76,1.49-2.79,1.6-6.66,4.38-8.52,1.83-1.18,4.4-.56,5.69,1.12,1.37,1.77,1.04,3.99,1.14,6.04,.06,2.02-1.09,3.87-2.99,4.5-.77,2.4-3.62,3.6-5.88,2.63Z"/>
    <path class="cls-2" d="M628.65,329.91c-3.21-7.7,8.2-21.01,11.76-27.99,4.56-8,10.05-15.66,15.45-23.04,1.36-1.99,2.86-4.51,5.39-4.98,2.36-3.29,7.73-7.59,10.81-2.77,2.08,4.3-2.46,8.32-4.14,12.06-4.88,7.41-10.02,14.61-15.4,21.68-4.21,7.11-9.15,13.72-13.52,20.71-1.42,2.19-2.26,5.08-4.84,6.15-1.99,.77-4.43,.13-5.51-1.83Z"/>
  </g>
  <g id="Vektorebene-2" data-name="Vektorebene">
    <path d="M638.77,705.32c-6.37-4.28-9.96-11.04-14.71-16.84-4.72-4.14-8.43-8.84-11.14-14.49-6.01-6.86-11.59-14.2-16.05-22.12-3.74-5.82-9.2-10.31-12.57-16.39-2.9-7.07-8.73-12.13-12.54-18.59-2.65-5.13-5.33-10.26-8.47-14.96-9.87-11.9-14.68-26.65-19.79-41.04-4.63-14.65-2.9-30.34-1.53-45.39,1.18-14.91,3.71-30.08,6.63-44.6,2.89-19.75,4.54-39.81,8.74-59.33,1.62-8.34,2.19-16.85,3.37-25.25,1.85-13.14,5.08-26.07,6.46-39.27,2.17-31.74,8.19-63.09,14.38-94.2,1.3-4.73,1.78-9.28,1.6-14.14,0-2.4,2-4.4,4.4-4.4s4.39,2,4.39,4.4c.13,5.18-.25,10.33-1.67,15.33-1.21,6.7-2.67,13.35-3.8,20.07-5.62,25.62-8.7,51.21-10.87,77.27-3.26,18.88-6.65,37.72-8.78,56.78-4.16,20.69-6.5,41.47-9.26,62.37-2.94,15.54-5.62,30.24-6.83,45.9-1.12,12.45-2.46,24.74-.13,37.06,2.9,11.06,7.58,21.53,12.05,32.01,1.89,3.91,5.12,6.95,7.34,10.63,4,5.8,7.06,12.16,10.53,18.24,2.7,3.73,5.92,7.07,8.38,10.98,2.89,6.21,7,11.58,11.59,16.59,3.99,4.84,6.87,10.42,10.35,15.62,2.88,4.19,6.75,7.62,9.61,11.83,1.68,2.46,2.64,5.36,4.57,7.65,7.6,6.05,11.3,15.61,19.16,21.3,4.39,3.43-.66,10.5-5.37,6.96Z"/>
    <path d="M857.97,694.72c-2.42-2.41-.96-5.72,1.28-7.63,7.56-9.48,13.83-18.96,20.44-28.95,4.05-6.62,8.87-12.8,13.37-19.07,4.24-6.97,8.05-14.15,13.22-20.5,6.74-12.45,16.97-22.44,23.69-34.87,13.33-15.96,11.73-18.13,13.41-37.67,5.36-25.3-2.17-50.91-6.42-75.77-4.33-19.31-6.46-39.04-11.2-58.26-6.52-22.87-9.85-46.35-13.27-69.82-1.88-11.69-6.35-22.72-8.78-34.27-1.61-10.57-3.56-20.08-5.45-30.17-1.64-9.53-2.26-19.22-4.52-28.62-.92-4.27-2.29-8.43-4.07-12.39-1.78-3.11-4.87-7.48-.68-10.05,7.11-4.07,10.95,12.85,12.59,17.4,3.12,11.73,3.8,24.81,6.14,36.56,1.69,8.31,3.31,17.37,4.6,25.66,2.16,10.18,6.12,19.89,7.91,30.16,3.19,16.55,5.04,33.52,8.14,49.99,2.14,8.58,4.47,17.14,6.44,25.76,5.2,23.85,8.86,48.79,13.73,72.51,3.74,19.49,7.92,39.76,3.91,59.51-1.87,9.39-.03,19.4-4.33,28.25-2.49,6.05-6.89,10.92-10.83,16.02-4.68,9.07-11.47,16.62-17.5,24.77-6,10.2-13.25,19.45-18.92,29.86-5.86,8.22-11.88,16.31-17.12,24.95-4.51,6.41-8.73,12.17-12.94,18.53-3.29,3.67-7.26,12.59-12.88,8.1Z"/>
    <path d="M756.33,776.97c-23.02-1.94-45.87-4.66-68.67-8.32-12.62-1.56-24.69-3.98-36.77-7.52-5.38-1.38-11.04-1.87-16.06-4.4-9.94-4.2-13.43-15.55-10.39-25.15,.82-8.85,3.48-17.68,9.77-24.25,4.64-4.24,10.54,2.91,5.69,6.72-4.79,5.56-6.14,13.06-6.98,19.81-1.7,5.59-.54,12.24,5.32,14.76,4.48,2.31,9.61,2.65,14.43,3.9,11.2,3.24,22.31,5.72,33.75,7.04,27.17,3.74,54.51,8.88,81.99,8.58,20.45-1.09,40.86-3.52,61.11-6.2,11.03-2.64,22.86-4.65,31.68-12.28,9.97-4.67,13.38-9.5,8.75-20.38-2.54-4.44-4.13-9.34-7.16-13.5-2.69-4.73-13.51-20.49-5.12-23.53,6.38-1.34,5.39,6.61,7.67,10.3,3.16,6.49,7.89,12.11,10.41,18.9,6.51,10.08,7.69,25.28-3.8,32.24-5.23,2.48-9.35,6.57-14.61,8.95-6.46,3.11-13.35,4.95-20.31,6.53-8.59,2.22-17.5,3.24-26.34,3.85-18.2,1.93-36.19,4.64-54.36,3.92Z"/>
    <path d="M734.83,721.06c-21.38-1.34-43.1-1.25-63.97-6.71-5.14-1.14-10.24-2.51-15.22-4.21-2.86-.9-5.27-2.57-7.69-4.27-1.88-.92-4.05-.58-6.08-.82-2.39-.14-4.4-1.9-4.4-4.39,.36-5.03,4.9-4.53,8.68-4.14,4.13-.07,7.28,2.51,10.56,4.6,3.65,1.51,7.51,2.52,11.32,3.51,18.77,4.91,38.33,6.84,57.55,6.98,16.61,1.03,33.41,.72,50-.65,15.11,.13,29.74-3.35,44.04-7.94,11.53-2.89,23.42-6.09,34.18-11.07,5.23-2.16,8.74,5.65,3.42,8.1-19.61,8.39-40.74,13.27-61.4,18.25-20.25,2.18-40.62,2.66-60.98,2.77Z"/>
    <path d="M584.33,237.36c-1.58-7.31,11.41-7.22,18.27-7.13,1.06,.02,1.98,.03,2.68,.02,3.85-.32,7.65-1.1,11.47-1.64,13.72-1.71,27.75-.82,41.52-1.98,22.19,.88,44,.58,66.19,.41,22.29-.7,44.59-.33,66.87-.7,9.3,.06,18.59,.19,27.88,.18-.7,.47-1.38,1-2.02,1.59-2.15,1.98-3.74,4.49-4.64,7.23-16.09-.43-32.14-.09-48.21,.04-12.18-.08-24.35,.12-36.54,.32-11.13,.18-22.28,.36-33.41,.33-4.58-.15-9.13-.14-13.68-.13-6.34,.02-12.67,.03-19.03-.36-10.27-.32-19.74,.97-29.9,1-6.82-.51-13.54,.65-20.25,1.76-3.06,.7-6.17,.68-9.28,.65-2.91-.03-5.82-.06-8.68,.52-1.5,.45-3.31,.97-4.95,.97-1.91,0-3.59-.71-4.28-3.09Z"/>
    <path d="M880.3,235.78c-5.16-2.43-11.53-2.66-16.77-.32-4.31-.07-8.62-.2-12.93-.46-1.96-.04-3.92-.05-5.88-.04-1.28-3.52-3.69-6.62-6.77-8.69,11.62-.27,23.21,.48,34.83,.53,1.26,.17,2.88,.11,4.58,.04,4.73-.17,10.12-.34,10.51,4.65-.24,3.66-2.78,4.37-5.59,4.37-.65,0-1.32-.04-1.97-.09Z"/>
    <path d="M919.24,339.82c-.27-2,.95-4.04,2.81-4.73,0,.14,.01,.29,.02,.43,.15,2.7,.45,5.36,.92,7.97-1.8-.22-3.24-1.23-3.75-3.67Z"/>
    <path d="M772.2,248.98c-1.44-9.28-4.23-18.59-5.82-27.96,3,1.17,6.09,2.02,9.26,2.58,.04,.02,.09,.03,.13,.04,.61,3.04,1.36,6.06,2.24,9.05,1.24,5.37,1.69,10.92,3.24,16.21,1.21,2.9,2.81,5.65,4.77,8.12-.09,.59-.16,1.18-.2,1.77-.22,3.31,.4,6.63,1.76,9.63-.1,0-.2,.01-.3,.01-6.46,0-14.32-14.78-15.07-19.45Z"/>
    <path d="M918.49,337.79c-1.18-2.01-.54-4.89,1.57-6.02,.69-.4,1.37-.79,2.06-1.18-.1,1.64-.15,3.29-.06,4.93,.08,1.46,.21,2.9,.38,4.34-.11,0-.23,.01-.34,.01-1.32,0-2.55-.57-3.62-2.09Z"/>
    <path d="M776.4,225.25c.03-.46,.07-.92,.1-1.38,2.83,.87,5.71,1.4,8.6,1.61-.41,2.25-1.44,4.09-4.31,4.16-2.29,0-4.53-2-4.4-4.4Z"/>
    <path d="M918.8,342.45c.12-4.81,5.1-4.46,8.6-4.54,4.91-.93,9.59-3.34,13.31-6.68,4.59-3.29,9.58-5.96,14.55-8.63,11.82-8,22.56-16.99,31.34-28.14,3.08-3.52,4.94-7.76,7.09-11.85,1.67-2.77,3.78-5.25,5.2-8.17,6.86-15.97,5.94-33.93,4.95-50.91,.1-15.66-3.24-31.17-10.91-44.9-5.74-10.41-11.72-20.65-20.4-28.63-8.88-9.97-20.71-16.64-32.23-23.12-13.72-6.22-29.77-8.84-44.69-8.58-19.77,.59-40.08,2.33-57.58,12.36-9.98,5.05-18.39,11.45-25.24,20.16-5.16,4.79-10.94,8.98-14.47,15.24-4.57,6.98-9.66,13.12-13.8,20.29-2.84,6.69-3.4,14.09-6.34,20.8-.87,2.68-1.56,5.49-2.02,8.28,.12,3.16,.77,6.29,.66,9.47-.05,5.74-8.68,5.77-8.79,0,.17-3.69-.98-7.31-.54-11.01,.85-4.43,1.97-8.84,3.63-13.05,1.9-4.87,2.43-10.11,4.12-15.04,2.33-6.45,6.9-11.67,10.42-16.77,2.64-3.94,5.31-7.87,8.03-11.75,3.97-5.74,10.06-9.35,14.65-14.52,10.13-13.1,25.76-20.49,40.71-26.74,26.33-7.49,55.11-9.16,81.6-1.93,11.87,2.97,22.77,9.52,32.55,16.66,9.08,5.15,15.75,13.37,22.96,20.72,9.66,13.23,18.22,27.73,23.06,43.46,3.51,14.45,3.66,29.49,3.99,44.29,.38,13.35-1.05,27.36-6.7,39.6-4.6,6.67-7.61,13.87-12.29,20.15-5.59,7.48-12.58,13.85-19.39,20.22-8.75,7.01-18.22,12.82-27.93,18.37-4.78,4.25-10.58,7.32-16.8,8.84-3.96,.56-11.04,1.84-11.3-3.94Z"/>
    <path d="M917.34,331.31c-.42-2.88,1.94-4.78,4.49-5.16,4.34-1.77,7.58-3.52,11.71-5.27,5.06-2.53,9.4-6.81,14.36-9.43,5.11-3.05,8.79-7.76,13.44-11.39,6.6-5.38,10.01-13.2,14.38-20.28,1.84-2.75,4.04-5.3,5.25-8.42,.9-2.85,1.12-5.85,1.68-8.2,1.28-9,3.43-17.98,3-27.12-.22-12.77,1.69-25.98-4.48-37.7-4.98-14.58-10.83-29.54-23.68-38.97-4.14-3.59-7.62-7.91-12.15-11.03-6.29-3.89-13.26-7.13-20.04-9.84-10.64-4.26-22.17-3.93-33.42-3.53-10.25,1.53-20.27,3.09-30.18,5.49-11.26,3.64-21.83,8.76-31.89,14.97-2.63,1.81-5.74,4.12-7.85,6.4-2.84,2.73-4,5.91-6.28,8.96-1.82,2.53-4.3,4.33-6.48,6.51-2.84,3.24-4.72,7.15-6.81,10.88-1.83,4.43-1.65,8.67-2.88,13.09-2.7,6.25-5.56,12.34-6.83,19.1,.06,3.73,.86,8.73-4.31,9.01-10.49-.9-.3-24.7,2.49-29.89,1.34-4.98,1.35-9.51,3.15-14.1,2.15-4.21,4.32-8.48,7.23-12.22,2.26-3.25,5.9-5.17,8.05-8.53,2.6-4.78,5.83-8.9,9.92-12.21,14.98-11.16,32.91-19.9,51.41-22.72,21.01-4.64,44.08-6.58,63.96,3.18,6.11,2.93,12.15,5.54,17.57,9.55,5.21,4.21,9.6,9.31,14.77,13.58,14.38,11.69,18.62,30.45,25.46,46.79,3.63,10.77,1.5,22.59,2.06,33.78,.24,5.37-.28,10.7-1.3,15.96-1.36,8.24-1.82,15.63-4.47,23.2-4.15,7.18-8.89,13.99-12.93,21.26-4.08,6.44-10.63,10.85-15.64,16.16-3.88,3.64-8.51,6.36-13.01,9.14-4.82,4.09-10.32,7.08-16.21,9.35-3.99,2.09-11.96,6.55-13.56-.34Z"/>
    <path d="M902.64,236.63c-.73-.94-1.01-2.15-.86-3.3-3.57-1.77-9.53-2.88-9.54-7.84-.87-.22-1.67-.69-2.27-1.35-.73,.62-1.57,1.11-2.56,1.43-1.2,.38-2.42,.25-3.52-.21-1.81,4.39-8.43,3.15-8.5-1.63-.09-1.91-.19-3.81-.23-5.72-.68-7.42,6.85-10.12,10.65-3.54,2.23-5.73,10.1-5.57,11.13,.8,4.31,.33,8.32,4.72,6.1,9.01,15.24,4.59,6.13,18.81-.39,12.34Z"/>
    <path d="M875.53,215.63c-4.59-15.63-11.02-30.34-16.58-45.6-3.34-8.62-4.69-17.76-7.76-26.44-2.07-5.37,5.78-8.71,8.09-3.43,.77,2.15,1.57,4.3,2.26,6.48,4.68,23.08,16.01,44.07,22.47,66.65,1.42,5.54-6.76,7.9-8.48,2.34Z"/>
    <path d="M892.35,215.8c-6.46-2.07-.96-11.73-.14-16.07,2.67-7.87,4.03-15.99,4.93-24.14,.91-10.48,1.95-20.92,3.48-31.33,1.16-4.68-1.12-14.96,6.08-14.6,2.4,.33,4.05,2.58,3.76,4.95-.68,8.55-2.21,17-3.01,25.53-1.5,14.36-2.13,29.1-7.06,42.8-2.21,4.32-.96,14.09-8.04,12.87Z"/>
    <path d="M893.12,227.97c-1.72-1.72-1.67-4.49,0-6.22,3.99-3.92,7.95-7.91,11.17-12.5,1.99-2.88,3.71-6.03,6.21-8.52,2.11-1.99,4.63-3.5,6.52-5.73,3.78-4.78,6.01-10.68,10.46-14.96,6.74-8.82,12.19-19.19,14.57-30.09,.49-2.35,3.22-3.67,5.41-3.07,9.41,2.29-5.88,27.42-8.68,32.48-3.07,5.36-8.04,9.44-10.77,14.95-1.93,3.48-4.21,6.82-7.29,9.39-2.22,1.83-4.65,3.42-6.14,5.96-3.29,5.22-7.08,10.05-11.36,14.5-2.63,2.63-6.28,7.45-10.1,3.82Z"/>
    <path d="M879.88,228.63c-7.47-6.32-17.58-7.52-25.56-12.89-5.55-4.44-12.45-7.24-16.83-13.06-4.55-5.03-10.49-8.6-14.53-14.15-2.64-2.95-6.13-4.93-9.61-6.71-3.31-1.45-8.45-2.93-6.62-7.63,.94-2.21,3.55-3.26,5.76-2.34,3.91,1.64,7.83,3.42,11.31,5.85,6.39,4.67,10.44,11.13,17.27,16.02,2.47,2.28,3.83,4.42,6.03,6.36,3.99,3.27,8.72,5.45,12.67,8.75,5.7,3.79,12.85,4.54,18.51,8.38,3.62,2.33,11.33,5.2,7.76,10.62-1.44,1.85-4.32,2.31-6.16,.79Z"/>
    <path d="M896.64,232.24c-1.45-1.88-1.12-4.72,.79-6.16,2.96-2.23,5.79-4.59,8.63-6.98,5.33-5.08,12.46-7.07,19.06-9.9,3.26-1.57,6.84-2.26,10.29-3.23,5.57-2.31,10.97-5.04,16.8-6.68,5.53-2.32,11.1-4.96,17.09-5.82,4.98-.73,15.09-5.76,16.2,2.19,0,2.41-2,4.38-4.4,4.39-5.48,.53-10.5,2.19-15.6,3.29-9.61,3.77-19.18,7.64-28.78,11.43-7.54,1.99-15.01,4.88-21.89,8.58-4.14,3.07-7.88,6.63-12.03,9.69-1.9,1.44-4.68,1.12-6.16-.8Z"/>
    <path d="M979.48,250.53c-2.9-.81-5.68-1.97-8.51-3-.1-.03-.21-.07-.31-.11,.04,.01,.09,.03,.13,.04,.01,0,.03,0,.03,0-14.46-4.88-29.62-7.03-44.56-9.54-6.79-1.78-13.52-4.67-20.67-3.01-2.38,.28-4.63-1.35-4.95-3.76-.56-7.38,11.74-5.51,16.38-4.87,21.61,6.04,43.93,7.19,64.8,15.77,5.52,1.66,3.26,9.9-2.33,8.47Z"/>
    <path d="M954.1,300.84c-10.74-9.68-20.29-19.74-30.59-29.76-8.39-8.79-17.47-16.8-24.65-26.69-6.46-1.84-2.93-12.41,3.45-8.98,7.12,7.02,12.46,15.82,20.39,22.17,12.49,12.93,25.32,25.54,38.36,37.89,3.47,4.53-3.35,9.89-6.95,5.37Z"/>
    <path d="M894.39,333.57c-2.94-1.49-6.06-1.82-9.31-1.73-5.72,0-10.49-3.36-14.62-6.95-5.33-2.67-9.72-6.7-12.75-11.84-2.46-3.98-5.67-7.43-9.51-10.12-1.55-1.44-3.24-.96-5.06-.41-5.02,1.11-10.01-.75-14.77-1.97-3.31-1.36-4.35-5.12-5.83-8.04-1.86-5.6-8.18-4.84-12.75-6.61-2.81-.85-3.61-3.42-2.96-5.54,4.29,.28,8.56,.05,12.73-1.04,6.14,1.88,8.96,4.41,12.76,13.27,0,0,.02,0,0,0,4.1,1.08,8.14,2.16,12.22,.52,9.67-.26,16.49,9.2,21.38,16.46,2.37,4.02,6.34,6.21,10.17,8.55,2.15,1.71,4.13,3.67,6.79,4.56,5.04,.7,10.24,.25,14.89,2.78,4.66,2.07,2.6,8.46-1.65,8.46-.56,0-1.15-.11-1.77-.35Z"/>
    <path d="M874.7,320.74c-2.38-1.4-2.43-3.7-1.24-6.49,2.51,1.44,5.36,2.23,8.29,2.23,.18,0,.36,0,.54,0-1.3,2.35-2.79,4.91-5.29,4.91-.69,0-1.45-.19-2.31-.64Z"/>
    <path d="M897.4,292.97s.04-.09,.06-.14c.5-1.17,.84-2.35,1.06-3.54-.07,1.61-.38,3.15-.87,4.65-.08-.33-.16-.65-.25-.98Z"/>
    <path d="M853.51,237.4h0c-.09,0-.19,.03-.28,.03,.09,0,.19-.03,.27-.03Z"/>
    <path d="M855.64,237.11c-.82,.1-1.65,.19-2.47,.24-.4-.03-.81-.05-1.2-.09-1.85-.24-3.7-.47-5.55-.7,.89,.1,1.79,.21,2.7,.32-.6-.07-1.21-.15-1.81-.22-.73-.11-1.45-.26-2.16-.42-.13-.47-.28-.93-.45-1.39,1.3-.12,2.6-.21,3.91-.26,1.76,.02,3.57-.14,5.4-.29,3.77-.32,7.58-.64,11.04,.58-1.12,.39-2.21,.88-3.23,1.49-2.71,.33-5.42,.64-8.13,1,.65-.09,1.3-.17,1.97-.26Z"/>
    <path d="M845.17,236.39s0,0,0,0c.55,.07,1.11,.14,1.66,.22-.56-.07-1.11-.14-1.66-.22Z"/>
    <path d="M829.84,517.79c-15.49-3.11-31.69-3.41-46.61-8.91-3.67-1.25-7.89-3.8-11.03-5.53-6.73-3.12-13.88-6.5-19.13-11.81-6.21-4.77-11.78-11.44-15.44-18.01-2.52-3.74-5.54-6.52-8.14-9.81-.11-2.7-.77-5.41-2.05-7.95-1.8-3.57-4.41-6.5-6.9-9.57-.25-.34-.51-.69-.76-1.03-1.81-4.47-3.43-9.02-4.98-13.55-1.1-4.79-1.83-9.66-3.5-14.29-2.77-8.57-2.54-17.72-3-26.54-.8-7.59-.3-15.25,.85-22.78,2.61-11.01,5.16-22.11,9.23-32.63,.45-.94,.83-1.92,1.17-2.91,1.54-3.67,3.28-7.25,5.3-10.72,4.38-6.44,9.76-12.22,15.13-17.83,5.79-5.81,13.11-9.66,19.3-14.96,.67-.61,1.36-1.18,2.08-1.73,0,0,.03,0,.03-.02,3.85-.72,7.33-2.74,9.86-5.63,5.27-2.33,10.83-4.12,15.89-6.33,1.19-.64,2.41-1.24,3.64-1.83,2.42,2.75,5.43,4.63,8.78,5.73-9.48,4.61-19.45,7.97-28.9,12.45-5.9,3.55-10.72,8.66-16.71,12.14-7.42,5.06-13.04,12.1-18.89,18.79-8.32,11.28-11.95,25.15-15.16,38.62-4.54,13.47-2.89,27.61-2.37,41.5,.37,5.37,1.52,10.6,3.29,15.68,2.76,13.49,7.37,26.75,14.52,38.6,4.7,5.79,9.81,11.2,13.43,17.8,4.28,5.84,9.81,10.09,15.2,14.46,10.7,5.74,21.5,12.43,33.56,14.71,13.61,1.56,27.11,5.15,40.81,5.52,4.55-.77,9.38-.7,13.63-2.67-.51-6.88-2.54-13.63-4.43-20.22-2.56-6.73-5.36-13.36-6.64-20.48-3.47-17.49-1.94-35.58-7.91-52.49-4.16-12.46-7.63-25.19-10.08-38.09-1.95-8.03-.94-16.53-3.66-24.38-4.24-13.96-9.42-27.42-11.66-41.75-1.01-5.96-1.49-11.98-2.63-17.9-.84-3.75-1.85-7.6-1.73-11.44,.41,.06,.82,.11,1.24,.15,2.52,.27,5.04,.38,7.54,.27,.32,6.15,2.55,12.06,2.92,18.22,1.61,19.44,9.54,37.4,14.34,56.09,.95,7.78,1.27,15.87,3.04,23.44,3.54,18.27,11.41,35.42,13.63,53.93,1.86,13.64,1.33,27.73,5.82,40.86,4.32,11.49,9.23,23.66,8.81,36.1-.7,3.3-3.81,5.47-7.86,6.86-5.37-.4-10.7,.48-15.92,1.81,.76-.2,1.51-.39,2.27-.58-1.3,.31-2.6,.63-3.89,.96-2.1-.04-3.95-.16-5.34-.32Z"/>
    <path d="M809.89,499.17c-7.31,.29-14.36-1.47-20.83-4.84-8.52-1.67-16-6.02-22.45-11.73-4.6-3.38-8.97-7.04-13.39-10.63-4.37-2.42-8.46-5.6-11.25-9.81-4.35-8.84-7.97-18.11-10.95-27.49-2.06-5.72-5.26-10.12-7.13-15.74-1.72-8.51-4.22-17.04-4.27-25.78-.41-12.47,.18-25.45,5.7-36.77,5.13-10.34,10.38-21.85,17.21-31.04,2.11-2.71,4.8-4.84,8.01-6.1,2.34-.85,4.28-2.08,4.85-4.64,1.5-3.08,2.45-5.89,4.59-8.5,6.98-8.31,18.69-9.14,28.79-9.65,4.7-1.17,9.41-.37,14.18,.04,2.4,.21,4.07,2.67,3.76,4.95-.83,5.12-6.59,3.56-10.24,3.3-4.32-.3-9.08,.71-13.49,1.01-5.65,.29-11.87,1.41-15.97,5.63-3.02,3.75-3.46,8.54-6.6,12.06-2.78,3.11-7.53,3.37-10.28,6.49-4.34,4.48-6.18,10.52-9.53,15.67-4.47,8.51-9.37,16.2-10.83,25.62-3.05,14.29-1.25,28.53,1.88,42.57,1.15,5.76,4.58,10.23,6.71,15.48,1.64,3.89,2.5,7.79,3.94,11.6,2.67,5.52,4.4,11.47,7.28,16.88,2.99,4.37,8.25,6.08,11.92,9.7,7.18,5.3,13.65,11.81,21.67,15.83,2.52,1.33,5.36,1.71,8.06,2.52,3.75,1.35,7.19,3.43,11.18,4.11,2.8,.57,5.66,.3,8.49,.53,3.22,.2,6.51,1.42,9.71,.41,4.45-2.14,9.46-2.56,13.91-4.64,2.63-1.65,4.57-4.27,6.64-6.54,1.42-1.92,4.3-2.23,6.16-.79,4.44,3.77-.96,8.31-3.74,11.16-4.17,4.9-10.63,6.12-16.53,7.7-5.41,2.87-11.35,2.48-17.16,1.43Z"/>
    <path d="M835.98,450.62c-1.98-7.16-5.96-13.27-9.87-19.46-2.34-5.03-3.92-10.38-5.62-15.64-2.12-6.75-6.87-12.17-9.37-18.7-1.32-3.72-1.59-7.68-1.67-11.6-.57-10.36-.5-20.73,1.22-30.96,.05-3.91,1.99-7.31,4.27-10.35,.64-.96,1.48-1.7,2.63-2.02,3.58-1.13,7.07,3.27,4.96,6.46-.96,1.47-2.06,2.87-2.78,4.47-1.3,8.06-2.06,16.13-1.78,24.31-.04,8.62-.02,17.6,5.76,24.58,4.06,6.87,6.06,14.6,8.81,22.01,1.68,5.5,6.01,9.57,8.22,14.82,1.33,3.22,2.67,6.45,3.72,9.77,1.41,5.53-6.75,7.9-8.48,2.34Z"/>
    <path d="M803.46,362.4c-3.23-3.2-7.78-5.02-10.89-8.48-2.84-2.97-5.34-6.32-8.83-8.58-5.06-2.98-10.11-6.26-14.24-10.41-5.08-4.29-10.96-8.05-13.65-14.41-2.74-5.06,4.6-9.37,7.6-4.43,1.14,2.28,2.44,4.5,4.43,6.15,4.67,3.59,8.92,7.68,13.55,11.31,5.49,3.33,11.17,6.71,15.19,11.79,3.83,5.33,10.83,7.2,14.44,12.63,2.81,4.98-4.64,9.37-7.6,4.43Z"/>
    <path d="M806.54,387.29c-16.39-4.04-32.66-8.44-49-12.57-9.22-2.15-18.05-5.93-27.58-6.4-5.67-.87-4.57-9.33,1.19-8.7,8.26,.31,15.93,3.29,23.86,5.29,10.39,2.64,20.84,5.84,31.26,7.96,6.26,1.97,12.63,3.48,19.01,5.01,2.05,.75,3.98,.65,5.33,2.38,2.43,2.87-.35,7.79-4.08,7.04Z"/>
    <path d="M726.77,418.83c-1.77-4.82,3.23-6.12,6.63-7.58,5.39-3.4,11.84-3.39,17.77-5.26,7.35-3.04,14.95-5.47,22.27-8.57,10.25-2.72,20.46-5.65,30.38-9.33,2.19-.98,4.84,.16,5.76,2.34,2.11,7.39-9.24,7.54-13.7,9.49-6.48,2.54-13.15,4.06-19.83,5.88-11.4,4.56-22.77,9.38-34.92,11.5-4.51,1.47-11.04,7.56-14.37,1.54Z"/>
    <path d="M748.05,463.87c-1.52-3.6,1.85-5.84,4.78-6.96,5.13-3.71,10.37-7.15,15.99-10.12,6.74-4.96,14.09-9.05,19.66-15.41,6.14-4.59,10.81-10.71,16.88-15.35,3.77-3.08,17.37-11.76,19.7-4.1,1.3,6-6.44,5.8-10.04,8.04-5.52,3.09-9.58,7.91-13.99,12.3-7.25,5.64-13.05,12.9-21.17,17.41-4.93,3.83-10.27,6.94-15.74,9.9-4.11,2.82-12.17,11.12-16.07,4.28Z"/>
    <path d="M797.18,490.61c-6.17-3.26,.21-11.29,2.87-15.04,1.77-2.74,2.96-5.79,4.15-8.81,4.3-8.38,3.96-17.87,6.9-26.71,1.49-4.39,2.98-8.81,5.48-12.75,1.6-3.2,2.08-6.85,3.8-9.98,1.17-2.09,3.98-2.77,6.02-1.58,2.19,1.28,2.76,4.15,1.44,6.26-1.3,3.39-2.05,7-3.89,10.17-4.93,8.45-6.54,18.33-7.91,27.87-2.23,6.9-4.85,13.87-8.51,20.16-.89,1.45-2.09,2.7-2.93,4.2-1.33,3.32-2.85,7.95-7.4,6.21Z"/>
    <path d="M616.31,595.49c-6.38-3.23-7.68-6.21-7.09-13.2,.03-9.71,.37-19.42,1.35-29.09,.74-15.93,.73-32,4.78-47.47,1.44-18.06,4.67-35.85,6.31-53.85,.13-5.72,8.66-5.81,8.79,0-1.45,18.29-5.04,36.49-6.34,54.81-3.45,13.53-4.15,27.57-4.52,41.5-.78,12.97-1.88,25.29-1.6,37.99,2.89,1.49,6.45,4.13,4.34,7.74-1.2,2.04-3.99,2.83-6.02,1.58Z"/>
    <path d="M616.86,596.43c-6.41-2.25-.91-8.97-1.14-13.49,1.22-13.56,1.8-27.04-.4-40.35-.19-6.14-.44-12.29-.39-18.44,.3-3.4,1.09-6.76,.86-10.2-.09-2.4,2.06-4.4,4.4-4.4,7.4,.91,3.53,10.58,3.48,15.47-.18,12.36,1.56,24.61,2.02,36.94,.19,6.34-.5,11.44-1.02,17.48-.33,4.88-.45,18.52-7.81,16.97Z"/>
    <path d="M624.36,569.32c-6.41-1.15-2.87-10.2-1.99-14.4,1.78-6.18,2.32-11.91,4.89-17.75,1.55-4.57,2.68-9.51,5.97-13.21,4.09-3.33,7.13-7.31,9.73-11.89,5.9-6.54,10.04-14.21,16.69-19.94,5.09-5.19,11.79-8.22,17.85-12.08,3.99-1.76,8.45-1.85,12.69-2.65,5.7-.68,6.9,7.74,1.19,8.7-3.37,.69-6.91,.74-10.16,1.91-4.58,3.09-9.73,5.37-13.93,8.99-6.44,5.09-10.17,12.37-15.7,18.25-2.32,2.68-3.79,5.91-5.88,8.76-2.8,3.62-7.32,5.8-8.38,10.61-3.13,8-4.95,16.74-7.12,24.76-.74,3.81-.24,10.49-5.84,9.93Z"/>
    <path d="M620.28,555.03c-.22-.13-.42-.27-.61-.43-3.54,.54-6.14-3.5-4.35-6.56,2.36-4.28,4.32-9.12,5.88-13.54,2.98-8.61,2.97-17.89,4.73-26.77,1.68-7.64,4.2-15.05,6.21-22.6,1.05-6.01,1.87-12.05,2.96-18.05,1.04-5.28,.43-13.15,6.4-15.46,2.01-.65,3.99,.4,5.26,1.9,2.24,3.23,2.07,7.4,2.14,11.17,.45,4.94-.35,9.83-1.1,14.7-1.76,14.73-3.83,29.37-10.4,42.78-1.97,6.01-7.99,38.14-17.12,32.85Z"/>
    <path d="M617.61,590.51c-3.65-1.01-3.7-5.08-2.24-7.93,1.24-4.3,1.75-8.78,3.63-12.88,1.31-3.84-.89-10.85,5.1-11.11,2.31,0,4.52,2,4.39,4.4-.06,4.27-.38,8.53-2.29,12.42-2.1,4.66-1.11,16.36-8.59,15.11Z"/>
    <path d="M611.11,570.53c-1.78-7.04-1.75-14.41-3.66-21.39-2.23-5.74-5.52-11.04-8.93-16.15-5.43-9.47-9.43-19.63-13.68-29.67-4.37-6.17-5.85-13.65-8.03-20.76-.51-8.04-3.4-16.53-.47-24.34,7.22-11.64,15.75,5.86,17.34,12.76,2.73,6.6,4.82,13.37,5.75,20.47,2.58,7.78,3.23,15.98,5.19,23.89,2.96,6.24,5.73,13.11,7.99,19.35,1.37,2.12,3.06,4.61,1.23,7.01,4.5,8.5,3.65,18.48,5.99,27.62,.7,5.68-7.72,6.91-8.7,1.19Zm-18.87-71.88c-1.27-4.03-1.95-8.2-2.64-12.35-1.18-5.35-3.66-10.28-5.25-15.51,.59,3.88,.37,8.06,1.57,11.8,1.93,5.46,2.87,11.27,6.33,16.06Z"/>
    <path d="M615.68,533.36c-2.44-.29-4.1-2.7-3.75-5.08,.42-5.47-.07-10.93,.01-16.4-3.94-9.62-7.58-19.52-12.65-28.61-3.73-4.77-4.53-10.87-7.17-16.19-1.53-3.01-2.67-7.38,.5-9.75,2.4-1.84,5.94-1.1,7.43,1.52,2.03,3.36,4.78,6.23,7.22,9.29,4.29,7.03,8.31,14.67,9.58,22.91,1.99,6.94,4.54,13.74,3.83,21.11,0,5.82,.52,11.64-.05,17.45-.17,2.39-2.69,4.06-4.95,3.76Z"/>
    <path d="M618.96,467.97c-5.62-1.03-3.31-7.47-2.82-11.38,1.21-6.62,1.56-13.41,4.2-19.68,2.62-8.05,4.51-16.34,7.4-24.3,2.27-5.72,5.37-11.07,7.16-16.98,4.68-10.11,7.01-21.05,11.05-31.38,5.12-10.12,9.92-20.41,13.98-30.91,5.96-11.21,11.27-23.1,19.12-33.13,6.84-6.99,15.18-3.05,13.43,6.87-.73,9.95-6.14,18.47-9.21,27.72-.9,3.38-1.77,6.77-2.68,10.15-.74,1.09-1.27,2.31-1.66,3.58-.49,1.61-.7,3.31-.99,4.97-.04,.27-.04,.53,.02,.78-1.94,6.44-4.18,12.79-7.08,18.89-3.95,6.82-6.16,14.45-9.73,21.44-1.71,2.83-3.92,5.34-5.34,8.36-4.03,9.31-8.17,18.55-12.17,27.89-2.25,6.07-6.37,11.2-8.92,17.06-2.16,4.94-2.39,21.98-10.88,16.77-.5,1.95-2.31,3.35-4.29,3.35-.19,0-.39-.01-.58-.04Zm50.12-133.59c-2.53,5.55-4.29,11.43-7.23,16.78-4.49,10.23-9.92,19.99-12.59,30.94-4.61,16.19-13.41,30.81-17.49,47.16-.65,2.27-1.29,4.54-1.94,6.81-.45,1.57-.97,3.11-1.51,4.64,7.81-12.34,12.52-26.02,18.47-39.27,1.8-4.53,4.93-8.26,7.37-12.4,2.7-6.26,4.93-12.73,8.29-18.69,6.16-12.41,9.01-26.1,12.83-39.3,2.22-7.53,6.93-14.19,8.03-22.09-5.18,8.23-9.4,16.99-14.23,25.42Z"/>
    <path d="M616.04,475.55c.45-4.84-1.34-9.22-2.28-13.85-1.55-13.35-1.24-26.82-.94-40.21-2.46-22.21-4.94-44.54-9.68-66.32-1.46-5.53,6.74-7.87,8.46-2.36,.18,.78,.35,1.56,.52,2.34-.06,.28-.01,.58,.15,.82,.01,.02,.02,.04,.04,.05,4.32,20.17,6.46,40.79,8.96,61.29,.9,11.53-.64,23.26,.52,34.79-.24,8.38,3.53,15.22,3.05,23.44-.06,2.87-2.23,4.32-4.41,4.32-2.15,0-4.31-1.43-4.39-4.32Z"/>
    <path d="M619.53,444.44c-8.76-1.76,.46-18.78,1.2-24.43,2.49-8.4,4.92-16.83,7.74-25.13,2.66-5.79,4.48-12.67,5.14-18.89,.06-6.73,1.29-13.4,1.13-20.13-.11-2.4,2.09-4.4,4.4-4.4,7.65,.58,3.35,12.95,3.57,17.96,.06,10.67-2.56,21.02-6.81,30.74-2.42,8.35-5.25,16.59-7.47,25-.93,3.67-2.4,7.18-3.34,10.84-.48,3.65-.44,8.92-5.56,8.43Z"/>
    <path d="M617.09,422.95c-2.3-13.24,1.23-27.41,3.44-40.36,1.73-12.85,.3-26.04,.39-39-.62-5.71,7.81-6.91,8.71-1.19,.46,12.28,.48,24.65,.32,36.93-2,11.06-3.95,22.13-4.92,33.36-.29,3.05,.33,6.07,.77,9.06,.66,5.69-7.75,6.92-8.71,1.19Z"/>
    <path d="M624.14,405.28c-3.36-13.03-6.54-26.29-7.53-39.78-.15-1.93-.27-3.85-.37-5.77,0,0,0,0,.01,0h.08c1.14-.04,2.15-1.06,2.06-2.21-.09-1.38-.16-2.78-.34-4.15-.15-1.26-.33-2.52-.43-3.79-.08-.96-.15-1.93-.17-2.89-.02-.89,0-1.79,0-2.68,0-.59,.03-1.24-.16-1.81-.26-.73-.84-1.28-1.58-1.41-.1-10.34-.03-20.64-.48-31.12-2.72-19.48-4.03-39.02-5.09-58.59-.82-17.87-1.55-35.58,3.49-52.85,2.94-10.67,11.84-14.69,16.53-2.32,4.2,9.85,3.7,20.53,3.94,30.92,.55,5.04,.07,10.08-.16,15.12,.24,5.31,.25,10.56,.09,15.87,0,3.09,.08,6.17,.16,9.25-1.32,.88-2.13,2.44-1.99,4.06,.09,1.15,.65,2.2,1.49,2.94,.21,.31,.45,.58,.74,.83,.2,7.13,.29,14.23-.29,21.37-.6,6.07-1.02,12.11-1.21,18.2-1.33,10.29-3.18,20.57-3.6,30.64,7.97-17.46,11.35-37.04,22.53-52.91,6.57-8.86,12.19-18.57,20.35-26.11,6.16-6.32,11.49-13.41,18.36-19.02,9.63-7.97,17.89-17.25,28.35-24.17,3.68-3.06,10.49-4.94,11.21,1.74-.23,3.29-3.07,5.61-4.86,8.16-3.34,4.39-6.86,8.64-10.06,13.13-5.39,8.3-12.26,15.4-19.06,22.55-4.83,3.73-10.41,7.23-11.93,13.29-5.67,6.83-11.42,13.49-16.52,20.68-1.97,3.21-4.53,7.19-7.06,9.7-8.2,8.22-12.61,18.56-16.39,29.31-2.92,8.42-7.91,16.05-8.44,25.14-1.75,11.77-2.52,22.93-2.93,34.71,.17,3.49-2.19,6.33-4.84,6.33-1.31,0-2.69-.69-3.88-2.33Zm.93-47.94c.11,2.49,.14,4.99,.28,7.49,.19,2.46,.48,4.9,.78,7.35,.28-3.78,1.12-7.49,1.65-11.23-1.12-.95-1.66-2.45-1.5-3.97-.38,.17-.78,.3-1.21,.36Zm-6.24-111.83c.48,13.62,1.33,27.38,2.42,40.92,.85,9.05,2.7,18,2.91,27.09,.27-9.95,1.48-19.57,1.73-29.36-.33-11.9-1.05-23.85-.4-35.74-.84-8.36,.53-16.77-.25-25.17-.09-7.79-.12-16.07-2.91-23.31-4.41,14.58-4.58,30.65-3.49,45.56Zm62.1,24.16c-6.77,6.25-12.31,13.61-17.28,21.15-3.97,5.29-7.88,10.7-10.66,16.71,4.4-4.44,7.14-10.1,11.01-14.95,5.38-6.78,10.23-12.64,15.65-19.13,3.12-4.37,7.37-7.66,10.95-11.59,3.96-4.78,8.19-9.29,12.32-13.9-8.03,6.54-15.33,13.78-21.98,21.71Z"/>
    <path d="M625.8,357.19c-2.51-8.91-.77-18.58,1.04-27.5,1.55-9.62,5.72-18.49,8.07-27.92,2.28-5.73,4.63-11.49,7.84-16.77,1.62-2.52,3.49-4.86,5.36-7.19,.58-.11,1.04-.57,1.24-1.12,.62-.25,1.06-.86,1.06-1.57,0-.06,0-.12,0-.17,.1-.14,.21-.27,.32-.39,.74-.71,1.43-1.47,2.11-2.22,.82-.87,1.7-1.69,2.45-2.63,.56-.71,1.12-1.55,.97-2.5,0-.03,0-.04,0-.07,5.36-7.05,10.75-14.05,16.73-20.56,3.69-7.35,9.96-12.93,14.72-19.46,3.85-6.16,8.16-12.01,12.42-17.86,5.15-6.12,11.18-11.37,16.27-17.53,3.96-4.22,8.73-7.52,13.25-11.09,4.58-4.75,10.07-9.43,16.46-11.46-.09,.12-.18,.24-.27,.35-.58,.73-1.2,1.42-1.85,2.09l.26-.26c-.11,.11-.22,.22-.33,.33l.1-.1c-1.07,1.12-2.15,2.22-3.13,3.42-.64,.77-1.27,1.55-1.91,2.32-.29,.31-.58,.61-.87,.91-.76,.78-1.51,1.58-2.19,2.43-.44,.54-.84,1.09-1.23,1.66-.22,.27-.45,.55-.66,.82-.38,.48-.8,.98-1.11,1.52-.34,.41-.7,.82-1.06,1.21l.12-.12s-.09,.09-.13,.13c0,0,0,0,0-.01-.03,.03-.04,.05-.06,.07h0s0,0,0,0c0,0,0,0,0,0,0,0,0,0,0,0,0,0-.02,.02-.03,.03-1.44,1.53-2.93,3.01-4.27,4.62-1.32,1.58-2.42,3.32-3.73,4.91-.77,.9-1.57,1.79-2.38,2.66-.77,.82-1.53,1.67-2.2,2.58-1.05,1.41-2,2.88-3.02,4.31-2.8,2.86-5.76,5.57-8.34,8.66-6.95,8.29-11.28,17.49-18.53,25.29-3.8,3.93-6.69,8.5-9.52,13.13-6.18,6.76-11.83,13.98-17.35,21.33-3.54,5.03-7.49,9.75-11.25,14.63-3.55,5.39-5.96,11.44-8.31,17.43-3.08,11.81-8.09,23.08-9.08,35.38-.12,5.17-1.16,9.21,.46,13.92,.87,3.31-1.78,5.51-4.38,5.51-1.73,0-3.43-.96-4.09-3.18Z"/>
    <path d="M699.48,235.92c9.74-11.21,18.58-22.73,26.91-34.96,.71-.75,1.42-1.51,2.13-2.26,.02-.01,.04-.02,.06-.04,.68-.4,1.21-1.12,1.69-1.72,.22-.28,.44-.55,.66-.82,.73-.78,1.46-1.57,2.18-2.36,.6-.58,1.22-1.15,1.82-1.74,.55-.53,1.1-1.06,1.61-1.61,.06-.07,.13-.15,.2-.22,.68-.6,1.27-1.29,1.61-2.12,.06-.15,.11-.3,.16-.45,2.18-2.59,4.26-5.27,6.2-8.07-.47,.24-.93,.5-1.37,.77,.12-.15,.24-.3,.35-.45,1.02-1.1,2.03-2.2,3.06-3.3,1.49-1.61,3.01-3.18,4.46-4.82,.6-.69,1.19-1.39,1.77-2.1,.08-.09,.15-.18,.22-.27,2.04,1.35,3.27,3.88,2.7,6.52-1.35,6.51-6.13,11.52-10.1,16.6-3.46,4.52-7.32,8.64-11.41,12.57-6.39,8.79-12.67,17.6-19.33,26.19-2.7,3.49-6.03,6.45-8.63,10.03-.95,1.22-2.14,1.72-3.31,1.72-3.17,0-6.15-3.73-3.66-7.09Z"/>
    <path d="M723.77,195.51c-.04,.06-.09,.11-.13,.16,.04-.05,.09-.11,.13-.16Z"/>
    <path d="M734.33,176.51c-3.6-3.79,1.16-7.33,3.66-10.03,1.73-2.15,3.18-4.5,5.14-6.46,6.93-6.69,15.37-11.56,23.8-16.09,3.68-1.69,8.97-5.06,12.28-1.05,5.14,9.41-10.71,15.6-15.07,21.99-1.65,2.52-4.74,4.69-7.57,2.47-2.05-1.57-2.29-4.76-.44-6.59-1.27,.77-2.47,1.63-3.6,2.56-.04,0-.07,0-.11,0-1.3,.03-2.37,1.08-3.24,1.96-.64,.66-1.24,1.36-1.79,2.1-.53,.71-1.03,1.46-1.59,2.15-.58,.73-1.2,1.42-1.85,2.09l.26-.26c-.11,.11-.21,.22-.33,.33l.1-.1c-1.07,1.12-2.15,2.22-3.13,3.42-.64,.77-1.27,1.55-1.91,2.33-.05,.05-.09,.1-.14,.15-.51,.2-1.02,.31-1.55,.31-.96,0-1.94-.37-2.95-1.29Z"/>
    <path d="M749,166.36s-.05,.06-.08,.09c-.03,.03-.05,.06-.08,.09,.05-.07,.09-.13,.15-.19Z"/>
    <path d="M676.3,236.07c-1.78-8.04-1.06-16.11-.96-24.24,.11-.72,.09-1.43-.06-2.14-.13-3.44-.08-6.89,.13-10.32,.05-15.28,.18-30.5,1.4-45.75,.62-12.48-.36-25.01,2-37.36,.62-4.22,1.39-11.23,6.79-11.82,13.3-2.03,10.64,42.46,11.34,51.58,.8,13.01,.77,26.05,1.28,39.06,.4,10.77,.72,21.51-.7,32.23-.29,3.74-5.7,5.13-7.83,2.09-.75-.97-.96-2.09-.88-3.28,.76-7.18,1.35-14.34,.83-21.56-1.16-26.85-.48-53.86-3-80.62-1.36,9.31-.38,18.75-.97,28.12-1.44,17.98-1.28,35.35-1.68,53.28,.59,9.88-1.15,19.77,1.02,29.53,.36,3.14-2.05,4.93-4.44,4.93-1.93,0-3.85-1.17-4.28-3.73Z"/>
    <path d="M697.17,226.63c-2.29-.32-4.19-2.6-3.76-4.95,1.65-8.2,4.41-16.18,4.77-24.6,.43-5.18,2.03-10.17,2.5-15.34-.2-5.69,1.56-11.08,2.17-16.67,.7-16.91,3.63-33.95,3.2-50.73-2.5,5.96-4.56,12.14-6.01,18.43-.86,3.54-1.75,8.96-6.68,7.75-5.52-1.77-2.14-7.87-1.39-11.75,3.12-9.34,4.88-22.33,14.13-27.56,7.91-2.38,9.12,5.98,8.68,11.83,.17,4.13,.13,8.24-.14,12.24-.53,14.07-2.46,27.28-3.09,41.21-.26,4-1.71,7.78-1.95,11.78-.06,4.11-.47,8.27-1.49,12.25-1.59,10.57-2.85,21.28-5.84,31.56-.2,2.64-2.35,4.99-5.11,4.57Z"/>
    <path d="M672.09,195.2c-.13-.57-.28-1.14-.49-1.7-.38-1.04-.89-2.02-1.3-3.04-.63-2.08-.94-4.34-2.07-6.22-.5-.82-1.18-1.66-1.99-2.18-.18-.12-.38-.23-.57-.33-.4-2.17-.74-4.33-1.24-6.37-2.76-8.83-4.91-17.87-6.89-26.76-1.53-6.91-4.52-13.41-5.76-20.39-.59-6.32-1.3-13.34,.87-19.39,2.61-5.55,9.58-4.14,13.21-.44,4.18,3.77,5.6,9.53,7.9,14.49,2.62,6.64,6.45,12.93,7.17,20.17,.41,3.84,.75,7.7,1.4,11.51,.38,2.37-1.43,4.64-3.76,4.95-5.86,.51-5.25-6.76-5.89-10.75-.09-7.49-3.28-14.15-6.35-20.79-1.97-4.26-3.15-9.17-6.1-12.86-1.51,10.86,3.06,20.7,5.74,30.94,1.83,6.97,2.75,12.95,4.65,19.59,2.21,5.14,3.05,11.49,4.14,16.53,.4,2.25,1,4.47,2.53,6.24,2.47,3.4-.45,7.1-3.61,7.1-.53,0-1.06-.1-1.57-.33Z"/>
    <path d="M635.1,279.17c-2.24,0-4.12-.76-4.67-3.68-.18-1.99,.57-3.24,1.78-4.05,.17,1.02,.69,1.95,1.45,2.61,.32,.46,.71,.88,1.2,1.18,.04,.02,.08,.05,.12,.07-.22,1.33-.18,2.65,.29,3.87h-.17Z"/>
    <path d="M646.78,277.51c.18,.12,.39,.21,.61,.26-.25,.04-.5,.07-.75,.1,.04-.12,.09-.24,.13-.37Z"/>
    <path d="M649.33,276.71c.64-.25,1.09-.87,1.09-1.59,0-.09,0-.18-.02-.27,.68-.63,1.32-1.31,1.95-2,.2,2.81-1.43,4.04-3.58,4.63,.25-.2,.45-.47,.56-.77Z"/>
    <path d="M786.7,276.86c-2.83-.39-5.69-.37-8.55-.35-1.29,0-2.57,0-3.85-.02,.27-.71,.5-1.45,.67-2.21,.51-2.21,.55-4.46,.17-6.62,1.85,.09,3.67,.15,5.5,.11,2.26,0,4.54-.07,6.78,.27,.8,1.87,1.88,3.62,3.21,5.17,.37,.43,.76,.84,1.15,1.23-.65,1.44-2.01,2.56-3.87,2.56-.39,0-.79-.05-1.21-.15Z"/>
    <path d="M763.14,272.17s.02,.07,.03,.11c0,.07,.02,.15,.03,.22-.02-.11-.03-.22-.05-.33Z"/>
    <path d="M721.88,325.36c3.7,.74,5.22,6.42,.85,8.36-1.65,.7-3.22,1.56-4.77,2.46,1.84-3.43,2.51-7.25,3.92-10.83Z"/>
    <path d="M677.54,362.51c.06,.07,.13,.13,.2,.18-.39,1.38-.77,2.76-1.14,4.15-.05,.18-.09,.36-.15,.54,.33-1.63,.69-3.26,1.09-4.87Z"/>
    <path d="M729.58,469.56c-.19-.22-.38-.43-.57-.63,.06-.25,.11-.5,.15-.75,.47,.5,.84,1.12,1.05,1.81,.07,.21,.15,.42,.21,.64-.27-.37-.55-.72-.84-1.06Z"/>
    <path d="M749.41,177.49c-.86-.54-1.42-1.18-1.76-1.87,1.2-1.28,2.4-2.55,3.56-3.87,.6-.69,1.19-1.39,1.77-2.1,.39-.48,.78-.97,1.17-1.45,.47-.61,.88-1.23,.96-2.02,.12-1.17-.58-2.21-1.59-2.65,1.3-2.13,2.58-4.23,4.43-6.08,5.4-4.38,10.64,3.45,5.05,7.43-1.45,2.9-3.43,5.83-5.43,8.12-1.51,2.26-3.4,5.13-6,5.13-.67,0-1.39-.19-2.17-.64Z"/>
    <path d="M724.64,190.56c-5.41-3.67,.75-8.93,3.17-12.4,3.09-3.88,6.65-14.71,12.97-10.76,4.36,3.84-.66,7.39-2.7,10.82-.02,.03-.03,.06-.05,.09-.73,.76-1.46,1.53-2.12,2.36-.43,.54-.83,1.09-1.23,1.66-.22,.27-.44,.54-.66,.82-.38,.48-.8,.98-1.11,1.52-.34,.41-.7,.82-1.06,1.21l.12-.12c-.05,.05-.1,.11-.15,.16,.01-.01,.02-.02,.03-.04-.01,.02-.03,.04-.04,.05,0,0,0,0,0,0,0,0,0,0-.01,.01h0s-.02,.02-.04,.03c0-.01,.02-.02,.03-.03-1.44,1.54-2.94,3.03-4.29,4.65-.15,.18-.3,.37-.45,.55-.1,0-.19,.01-.29,.01-.72,0-1.44-.19-2.12-.6Z"/>
    <path d="M675.37,211.57c.12-1.13-.09-2.25-.57-3.32-.13-.29-.26-.59-.39-.89-.27-.75-.52-1.5-.73-2.27-.24-1.06-.35-2.15-.56-3.24-.26-1.3-.51-2.58-.63-3.9-.15-1.53-.36-3-.9-4.45-.38-1.04-.89-2.01-1.3-3.04-.63-2.08-.94-4.34-2.07-6.22-.13-.21-.27-.42-.42-.63,2.21-1.11,5.31-.5,6.27,2.66,.65,3.35,2.74,6.09,4.17,9.12,4.21,2.21,3.12,7.93,3.84,11.87,.37,3.15-2.03,4.93-4.42,4.93-.81,0-1.61-.2-2.31-.63Z"/>
    <path d="M630.15,326.18c-3.91-.57-3.89-4.34-3.71-7.46-1.35-13.62-.03-27.23,.08-40.85-.52-6.64,.79-13.26-.56-19.84-.67-5.71,7.76-6.9,8.71-1.19,1.07,5.83,.69,11.64,.5,17.5,.76,9.9-1.09,19.48-.43,29.34-.02,5.02-.02,10.04,.5,15.04,.41,3.55-.65,7.93-5.08,7.46Z"/>
    <path d="M616.23,496.23c.86-11.22-.7-22.37-2.83-33.37-1.65-9.42-1.21-19.2-4.25-28.37-4.87-14-8.91-27.93-11.71-42.31-.98-13.95-1.31-28.53,3.61-41.76,3.04-5.84,10.87-1.24,7.67,4.57-3.73,11.38-3.33,23.48-2.64,35.24,2.24,13.36,6.44,26.13,10.44,39,4.09,9.78,3.84,20.59,5.35,30.91,2.2,11.8,4.04,23.81,3.17,35.83,.09,5.89-8.64,6.25-8.81,.27Z"/>
    <path d="M636.24,384.98c-1.99-1.17-2.88-4-1.58-6.01,1.2-1.51,1.27-3.5,1.45-5.35,.62-11.78-.73-23.57,.01-35.32,.23-5.44,1.04-10.84,1.82-16.23,.25-2.38,2.64-4.07,4.95-3.75,4.17,.59,4.16,5.15,3.2,8.34-1.12,8.54-1.82,17.52-1.31,26.1,.54,4.74,.15,9.57,.09,14.3,.45,5.59,.4,21.29-8.63,17.92Z"/>
    <path d="M808.32,298.48c-4.69-.95-3.6-4.85-3.53-8.37-.55-3.88-1.15-7.48-1.46-11.35-4.92,1.35-9.38,3.77-14.29,5.07-2.75,1.54-6.4,1.95-7.88-1.46-.95-2.25,.16-4.76,2.33-5.76,5.84-2.12,11.56-4.38,17.42-6.36,6.36-4.63,10.47,.41,11.06,6.88-.22,5.62,5.74,21.49-3.66,21.35Z"/>
    <path d="M906.54,339.61c-2.68-.51-4.25-2.53-5.88-4.43-1.58-.65-3.54-.21-5.25-.74-2.37-.38-4.09-2.54-3.76-4.95,.32-2.33,2.59-4.13,4.95-3.76,1.08,.16,2.14,.43,3.24,.37,3.56-.2,6.93,2.15,8.81,4.97,2.83-.56,6-.45,6.92,2.88,1.26,5.31-5.1,6.53-9.04,5.66Z"/>
    <path d="M911.18,350.17c-1.48-.19-2.94-.55-4.39-.89-1.13-.26-2.11-.72-3.09-1.23-4.74,1.01-9.24,.35-13.77-1.23-4.02-.36-8.04-1.07-11.84-2.44-1.87-.71-3.38-2.17-5.15-3.07-1.72-.34-3.26-1.12-4.74-2.04-1.6-.14-3.12-.29-4.63-.98-5.23-2.58-9.08-6.67-13.88-9.82-4.5-1.56-9.15-3.21-12-7.38-1.28,.03-2.47,.62-3.7,.92-4.16,1.07-8.51-.69-11.56-3.53-1.33-1.08-2.21-2.57-3.57-3.6-1.09-.63-2.34-.83-3.45-1.47-4.74-2.82-.91-10.06,4.07-7.78,1.59,.71,3.21,1.15,4.64,2.21,2.2,1.54,3.47,4.09,5.91,5.33,1.28,.74,2.58,.04,3.84-.32,2.99-.85,6.39-.85,8.96,1.08,1.84,1.32,2.85,3.59,5.02,4.52,3.36,1.01,6.58,2.18,9.27,4.55,3.46,2.17,6.18,5.31,9.87,7.17,2.48,.48,5.03,.73,7.14,2.36,1.82,.34,4.01,1.44,5.29,2.46,3.77,2.8,8.7,2.49,13.07,3.41,2.02,.38,3.95,1.5,6.05,1.41,2.42-.12,4.86-.93,7.28-.39,4.19,2.23,8.54,2.44,13.06,1.59,5.69-.64,6.93,7.82,1.19,8.71-2.96,.32-5.91,.82-8.88,.45Z"/>
    <path d="M795.85,270.84c-3.5-1.72-4.6-5.47-5.57-9.01-1.76-4.23-2.19-8.88-4.24-13.02-.83-3.78-3.83-6.5-4.45-10.34-.59-4.32-3.29-12.43,3.34-12.93,5.93,.31,4.01,7.61,5.34,11.57,4.77,7.87,6.55,17.06,9.55,25.72,3.55,1.65,6.21,7.09,2.04,9.59-2.06,1.22-4.77,.48-6.01-1.58Z"/>
    <path d="M790.53,276.35c-2.67-1.58-4.04-4.51-6.52-6.3-3.48-1.75-8.47-6-4.81-9.95,2.38-2.39,5.75-1.09,7.52,1.33,3.25,1.64,5.74,4.29,7.95,7.11,1.05,.72,1.97,1.57,2.31,2.84,1.15,3.59-3.27,7.08-6.46,4.96Z"/>
    <path d="M815.81,281.53c-1.93-1.91-1.49-4.76,.29-6.58,1.7-3.42,3.69-6.65,6.38-9.4,2.39-2.66,4.83-6.4,8.07-8.04,1.27-.15,2.51-.42,3.7-.81,.59,.03,1.2,.14,1.83,.33,.28-.51,.58-1.01,.88-1.5,1.17-.63,2.27-1.42,3.3-2.36,2.68-2.48,4.5-5.77,5.18-9.33,2.37-1.79,5.27-2.8,7.7-4.6,2.31-2.11,5.94-3.79,8.28-.76,1.46,1.88,1.12,4.72-.79,6.16-3.12,2.66-7.06,4.23-10.32,6.59-1.43,2.26-2.52,4.64-4.45,6.54-2.15,4.52-6.11,9.49-11.74,7.8-2.79,3.07-5.59,6.18-8.09,9.49-1.57,2.93-3.82,7.81-7.12,7.81-.95,0-1.98-.4-3.1-1.36Z"/>
    <path d="M880.46,322.88c-.33-9.58-5.35-18.03-6.99-27.38-1.1-5.69-4.33-10.99-3.37-16.95,1-7.83,5.01-14.87,6.2-22.71-5.55,6.02-10.09,12.89-16.2,18.4-4.24,5.1-10.03,8.4-14.37,13.43-3.64,2.5-7.29,10.02-12.2,5.76-1.74-1.74-1.62-4.46,0-6.22,8.27-8.69,17.75-15.92,25.89-24.73,3.97-5.71,9.3-10.37,12.74-16.43,1.28-3.68,3.38-6.92,6.48-9.32,1.06-.87,2.51-1.49,3.9-1.24,9.42,2.34,1.93,21.92,.83,28.53-1.19,6.28-5.31,12.06-4.52,18.64,1.02,3.72,2.8,8.06,3.35,11.75,.51,6.62,13.07,30.51,3.21,32.23-2.34,.33-4.63-1.38-4.95-3.76Z"/>
    <path d="M791.56,247.48c-3.58-2.94-.78-6.96,2.09-9.19,5.83-4.8,13.02-6.36,20.5-6.48-1.47,2.44-2.33,5.24-2.45,8.12-.01,.29-.02,.57-.01,.86-.11,0-.22,0-.33,.02-3.37,.6-6.58,.64-9.53,2.35-2.61,1.44-4.84,5.27-7.76,5.27-.78,0-1.62-.28-2.52-.95Z"/>
    <path d="M864.54,241.65c-4.25,.64-8.48-.59-12.72-.73-2.05,.36-4.09,.9-6.15,1.35,.03-.31,.05-.63,.06-.94,.11-2.67-.47-5.32-1.57-7.72,.54-.13,1.08-.26,1.62-.4,2.4-.59,4.79-1.19,7.25-1.06,4.46,.37,8.91,1.43,13.37,.4,1.07-.13,2.03-.1,2.91-.09,1.73,.03,3.23,.07,5-.96,4.03-2.17,8.68,2.09,6.33,6.2-1.89,2.9-5.55,3.97-8.66,5.04-1.18,.62-2.52,1.06-3.78,1.06-1.45,0-2.8-.58-3.67-2.15Z"/>
    <path d="M605.02,281.54c-3.39-.59-5.93-3.13-9.16-4.04-3.91-.17-8.88,4.58-11.44-.82-.9-2.13,.09-4.94,2.34-5.76,6.43-3.15,12.47-2.93,18.31,1.35,1.7,.72,3.54,1.32,5.4,1.13,2-.13,4.23-.75,5.94,.63,3.04,2.15,1.69,7.53-2.09,7.84-3.11,.3-6.29,.7-9.31-.34Z"/>
    <path d="M629.2,276.89c0-4.23,4.5-4.62,7.75-4.57,6.53-1,13.17-2.59,19.72-.45,2.32,.58,3.69,3.14,3.06,5.41-.95,3.48-4.72,3.62-7.56,2.54-6.29-1.12-12.27,1.79-18.58,1.46-2.38,.12-4.4-2.08-4.4-4.39Z"/>
    <path d="M669.48,283.18c-.92-2.17,.11-4.88,2.33-5.76,10.03-4.44,21.15-6.48,32.1-5.43,7.66,1.39,15.36,1.61,22.93,.56,7.05,.34,13.12-1.52,19.95-2.16,8.7,.32,16.19-1.52,24.67-1.67,3.56-.17,6.5,2.82,9.94,.93,2.32-.61,4.76,.74,5.41,3.07,1.22,4.86-4.59,6.28-8.26,6.58-2.36,.05-4.36-1.09-6.56-1.74-4.76-.35-9.43,.96-14.17,1.21-7.22,.35-14.3,.44-21.33,2.22-7.13,.08-14.22,.96-21.35,1.12-4.71-.05-9.32-1.17-14-1.53-6.71-.26-13.47,.54-19.69,2.57-3.84,1.12-9.45,5.28-11.97,.05Z"/>
    <path d="M792.84,273.04c-.45-6.07,7.34-5.21,11.4-6.39,7.04-.72,14.09-1.35,21.15-1.94,5.12-.77,9.77,1.2,14.56,2.46,3.14-.09,5.61-.32,8.52-.81,5.83-1.16,25.03-8.79,25.17,1.64-.54,3.61-4.08,4.21-7.12,3.51-4.34-.3-8.37,1.62-12.55,2.5-6.93,1.79-14.7,3.22-21.42,.07-5.39-1.55-11.14-.07-16.61,.33-6.11,.39-12.19,.97-18.15,2.39-2.32,.44-4.65-1.46-4.95-3.76Z"/>
    <path d="M879.3,275.69c-3.47,.19-5.96-2.32-7.54-5.14-.87-1.18-2.08-2.38-3.67-2.1-3.82,.32-7.64,.99-11.44,1.54-4.16,.61-8.34,1.09-12.53,1.53-5.73,.61-6.9-7.81-1.19-8.71,3.12-.33,6.25-.67,9.37-1.08,9.86-.96,21.58-6,27.51,5.08,3.11-1.03,5.02-4.46,8.46-4.87,3.62-.76,8.46,1.37,7.31,5.7-.67,2.48-3.32,3.71-5.71,3-3.12,2.4-6.37,5.17-10.58,5.04Z"/>
    <path d="M627.94,650.32c-3.24-3.22-4.52-8.05-6.39-12.15-2.62-3.79-3.6-8.26-4.78-12.64-2.05-.61-2.9-2.73-3.9-4.43-4.02-7.94-5.21-16.91-5.26-25.72-.01-3.18-1.83-7.03,.29-9.78,.57-3.27-.76-6.92,.93-9.91,.96-5.22,1.33-23.62,9.44-21.25,2.24,.76,3.55,3.31,2.76,5.57-2.48,6.24-3.35,13.01-3.61,19.7,1.05,2.33,.75,5.56,1.26,7.86,.91,7.71,2.8,15.17,4.79,22.65,1.08,5.56,2.7,10.22,4.15,15.54,.81,2.36,2.15,4.91,1.51,7.43,1.59,4.48,4.18,8.62,5.62,13.13,.49,3.53-4.02,6.09-6.81,4.02Z"/>
    <path d="M623.71,635.64c-5.13-11.08-6.95-23.04-8.23-35.07-.68-5.08-3.28-9.66-3.37-14.85-.34-5.74,8.14-6.44,8.76-.7,.04,3.54,1.56,6.67,2.48,10.02,2.16,9.7,1.76,19.87,5.52,29.2,.67,4.28,5.99,10.21,.75,13.32-2.08,1.06-4.88,.25-5.91-1.91Z"/>
    <path d="M630.05,650.04c-2.41-.46-3.85-2.79-3.48-5.15,.15-.94,.3-1.87,.45-2.81-7.04-.61-4.21-11.67-4.5-16.5,.09-10.95,2.91-21.86,8.27-31.42,3.69-6.69,6.63-13.85,11.09-20.05,1.94-2.12,5.23-2.24,7.19-.05,3.21,4.65,.98,10.94-.14,15.98-2.27,10.38-5.48,21.31-8.62,31.32-2.18,8.31-3.77,16.72-5.1,25.21-.38,2.36-2.88,3.92-5.16,3.47Zm1.57-30.12c1.83-6.14,3.69-12.27,5.4-18.45-3.22,5.65-4.42,12.09-5.4,18.45Z"/>
    <path d="M637.81,672.57c-11.75-10.8-21.66-23.56-31.99-35.73-5.56-7.22-10.33-14.96-14.48-23.06-1.91-3.46-4.7-7.1-4.42-11.22,.69-3.82,5.5-4.83,8.16-2.31,2.57,2.22,5.37,5.55,7.18,7.98,6.39,7.24,12.92,12.64,17.86,20.97,3.73,4.59,6.56,9.75,9.9,14.48,1.11,3.44,3.03,6.39,5.08,9.32,1.92,3.02,3.51,6.22,5.71,9.06,1.41,1.89,3.35,3.53,3.97,5.88,.95,3.87-3.77,6.85-6.98,4.62Z"/>
    <path d="M920.27,540.36c-7.01-.46-9.82-14.78-12.77-19.87-10.72-21.71-16.87-45.5-23.65-68.59-5.46-17.14-9.53-34.68-12.73-52.37-1.58-7.65-3.92-15.12-5.48-22.77-.25-3.72-2.78-8-.77-11.45,.02-1.79,1.18-3.4,2.92-4.12,5.45-2.56,11.86-2.67,17.1,.5,4.7,2.26,6.57,7.36,9.61,11.25,1.42,1.76,3,3.37,4.29,5.23,5.54,9.05,4.01,20.06,7.27,29.84,2.57,8.31,6.37,16.21,8.13,24.78,3.88,17.42,7.63,34.85,11,52.38,2.69,12.98,7.56,26.02,5.3,39.45-1.22,5.98-2.47,15.59-10.21,15.75Zm.3-11.66c4.81-15.53-2.36-31.04-4.92-46.31-2.42-13.5-5.55-26.84-8.4-40.25-1.48-7.26-3.15-14.5-6.04-21.35-2.77-7.28-5.36-14.78-6.23-22.55-.26-6.38-1.39-13.6-6.1-18.28-4.44-5-7.37-14.57-15.87-11.37,1.29,8.32,3.72,16.38,5.67,24.55,3.74,18.15,7.14,36.4,12.91,54.06,4.66,15.57,8.8,31.31,14.3,46.61,4.01,11.91,9.89,23.42,14.67,34.89Z"/>
    <path d="M837.34,673.7c-1.49-1.12-2.39-2.75-2.59-4.61-.03-.31-.06-.62-.07-.94-5.96-2.72-1.04-8.33,.95-12.11,2.49-4.54,3.81-8.77,5.88-13.36,3.09-7.1,7.47-13.51,11.51-20.08,5.36-7.23,9.34-15.25,13.66-23.11,2.74-4.53,6.1-8.63,8.66-13.27,3.85-7.39,8.28-14.49,14.39-20.25,8.02-11.83,19.88-6.4,22.49,6.15,1.01,9.98-6.62,18.08-11.67,25.92-8.43,14.75-19.31,27.83-28.63,41.98-3.04,5.57-5.11,11.63-8.61,16.95-5.42,6.91-15.92,22.56-25.98,16.72Zm6.4-8.17c4.99-4.31,9.63-9.26,13.15-14.86,3.91-7.33,6.77-15.21,11.89-21.85,8.26-11.2,16.58-22.31,23.58-34.35,3.92-7.3,17.26-18.93,7.64-26.39-8.71,7.31-14.3,17.35-19.83,27.14-6.49,8.25-10.35,18.01-16.05,26.74-5.23,7.69-10.48,15.5-14.44,23.93-2.6,5.78-4.24,11.07-7.45,16.27,.95,.85,1.54,2.08,1.5,3.37Z"/>
    <path d="M758.52,291.12c-5.73-11.06-5.82-23.98-9.55-35.74-7.19-16.52-7.57-34.95-14.11-51.64-1.84-5.42,6.16-8.35,8.28-2.96,5.05,12.79,6.69,26.56,9.81,39.9,3.45,8.61,6.31,17.51,7.85,26.68,1.38,6.98,2.25,13.59,5.55,19.76,2.56,5.09-5.11,9.11-7.83,4.01Z"/>
    <path d="M741.15,231.13c-3.03-8.95-3.91-18.4-6.8-27.38-.73-2.97-1.53-5.93-2.34-8.88,.94-.99,1.95-1.89,2.92-2.84,.55-.53,1.1-1.06,1.61-1.61,.07-.08,.13-.15,.2-.22,.68-.61,1.27-1.29,1.61-2.12,.13-.33,.24-.65,.29-.98,.08-.11,.16-.22,.25-.33,2.75,9.74,5.61,19.49,7.41,29.43,.94,4.24,1.99,8.47,3.33,12.61,.85,3.3-1.77,5.5-4.38,5.5-1.71,0-3.41-.95-4.11-3.17Z"/>
    <path d="M726.51,173.1c-3.75-16.74-7.18-33.53-12.71-49.8-4.47-10.62-5.43-22.24-9.21-33.07-1.79-4.41-5.39-9.09-9.73-11.08-5.72-1.74-10.32-6.33-16.46-4.4-4.62,.09-16.23,3.03-16.43-3.91,0-2.39,2-4.41,4.4-4.4,3.09,.37,6.14,0,9.16-.35,4.36-.52,8.65-1.05,12.93,.65,4.65,2.17,8.45,3.67,12.87,5.79,7.75,5.37,12.22,13.99,14.01,23.08,3.48,18.59,11.44,35.89,15.01,54.44,2.24,9.75,4.3,19.77,6.58,29.43-.34,.38-.68,.76-1,1.16-.43,.53-.83,1.09-1.23,1.65-.22,.27-.45,.55-.66,.83-.38,.48-.8,.97-1.11,1.52-.34,.41-.7,.82-1.06,1.21,.04-.04,.08-.09,.12-.12-.06,.06-.11,.12-.17,.18,0,0,.02-.02,.03-.03,0,0,.02-.02,.03-.03,0,0-.02,.02-.03,.03-.01,.01-.03,.02-.04,.04h0s0,0-.01,0c0,0,0,0,0,0,0,0-.02,.02-.03,.03-.57,.61-1.15,1.2-1.72,1.81-1.33-4.86-2.59-9.73-3.54-14.68Z"/>
    <path d="M731.77,185.98s0,0,0,0c-.01,.01-.02,.02-.03,.04,0-.01,.02-.02,.02-.03Z"/>
    <path d="M731.79,185.95s-.01,.01-.02,.02c0,0,.01-.02,.02-.02Z"/>
    <path d="M610.66,349.91c.11,.2,.23,.4,.34,.61,.12,.23,.22,.46,.33,.69,.03,.09,.06,.18,.08,.27,0-.03-.02-.08-.03-.12,.16,.61,.29,1.23,.4,1.85-.8-.88-1.2-2.11-1.13-3.3Z"/>
    <path d="M618.04,353.36c-.15-1.26-.33-2.52-.43-3.79-.08-.96-.15-1.93-.17-2.89-.02-.89,0-1.79,0-2.68,0-.59,.03-1.24-.16-1.81-.01-.03-.02-.06-.03-.09,3.12-3.09,6.55-5.75,9.62-2.9,1.63,1.63,1.78,4.6,0,6.22-2.44,1.59-5.61,5.9-8.83,7.99,0-.01,0-.03,0-.04Z"/>
    <path d="M772.19,239.99c-2.35-7.48-5.13-14.83-7.91-22.16-1.51-5.73-2.36-11.62-3.74-17.39-2.95-10.11-5.64-20.32-7.65-30.66,.03-.04,.07-.08,.1-.12,.39-.48,.78-.97,1.17-1.45,.47-.61,.88-1.23,.96-2.02,.16-1.56-1.14-2.89-2.69-2.87-.24,0-.46,.04-.68,.11-.78-4.76-1.41-9.55-1.82-14.38-1-16.35-8.27-31.14-12.38-46.74-3.15-13.41-9.57-25.99-17.47-37.2-4.5-3.55-8.37-7.61-12.1-11.97-8.46-6.58-19.07-6.9-29.32-6.15-2.67-.11-5.47,.05-8.25,.21-2.59,.15-5.18,.31-7.62,.24-2.78,.59-6.16-.42-6.52-3.64-.45-5.33,5.18-5.31,9.09-5.2,1.93,.09,3.85-.07,5.79-.22,1.94-.15,3.88-.32,5.84-.21,8.29-.14,16.16-.68,24.16,1.55,3.72,1.26,7.06,3.42,10.52,5.23,3.85,2.32,6,6.42,9.25,9.38,2.64,2.07,5.34,4.09,7.29,6.86,7.73,11.68,14.33,24.37,17.68,38.04,1.9,9.39,6.37,17.91,8.6,27.2,3,9.43,3.86,19.31,5.06,29.05,1.85,18.6,8.5,36.23,11.99,54.44,1.42,8.73,6.09,16.56,8.25,25.11,1.54,2.83,1.55,7.04-2.15,8.04-.37,.1-.76,.16-1.13,.16-1.91,0-3.75-1.28-4.27-3.22Z"/>
    <path d="M703.25,84.47c-1.16-6.9,8.5-6.3,12.93-7.91,3.15-.75,6.3-1.66,9.38-2.67,2.71-1.56,6.33-1.85,7.78,1.49,2.18,7.16-8.78,7.5-13.3,9.28-3.78,1.02-7.65,1.67-11.38,2.88-2.24,.75-4.79-.83-5.4-3.06Z"/>
    <path d="M701.48,79.97c-4.24-5.8,7.51-10.24,11.03-13.54,4.12-1.83,8.65-9.28,13.11-4.29,3.68,5.96-5.54,9.24-9.2,12.24-2.9,2.17-5.94,4.12-8.77,6.38-1.85,1.51-4.72,1.07-6.17-.79Z"/>
    <path d="M700.28,75.13c-1.68-1.68-1.72-4.54,0-6.22,4.54-4.56,9.89-8.77,12.51-14.8,2.42-5.25,10.25-1.93,8.1,3.42-3,7.11-8.96,12.33-14.4,17.59-1.72,1.67-4.51,1.71-6.22,0Z"/>
    <path d="M694.63,75.54c-2.13-.9-3.37-3.6-2.34-5.76,2.59-8.81,9.43-16.22,9.88-25.57,.21-2.39,2.67-4.07,4.95-3.76,5.1,.84,3.75,6.84,3.02,10.47-1.21,4.78-3.82,9.03-6.07,13.37-2.41,3.96-2.86,13.36-9.44,11.25Z"/>
    <path d="M691.69,71.3c-2.31-.31-4.17-2.59-3.76-4.95,.1-.59,.17-1.19,.18-1.2-.06-8.05,2.74-15.96,.52-23.91-.64-5.73,7.78-6.9,8.71-1.19,1.71,6.56,.88,13.08-.18,19.67-.31,4.18,.79,12.06-5.47,11.59Z"/>
    <path d="M684.32,70.38c-2.58-.7-3.8-3.52-2.95-5.97-.07-4.2-1.7-8.19-2.5-12.29-.3-4.72-5.77-12.4,.69-14.85,2.31-.64,4.76,.76,5.41,3.07,.87,5.98,11.45,31.88-.64,30.04Z"/>
    <path d="M672.59,69.09c-3.2-.4-3.94-3.39-3.85-6.12-.73-2.77-2.3-5.21-3.19-7.93-1.06-3.53-1.03-7.29-2.21-10.82-1.37-5.6,6.83-7.87,8.48-2.34,1.17,3.55,1.29,7.31,2.24,10.9,2.27,4.69,7.5,16.01-1.47,16.3Z"/>
    <path d="M721.53,66.87c-2.89-4.85-9.1-7.79-11.64-12.78-5.08-7.45-14.84-8.58-22.97-10.43-9.05-.37-17.97,1.49-26.89,2.7-13.48,1.15-26.96,2.74-40.29,5.09-.42-.6-.88-1.17-1.41-1.71-1.89-1.91-3.85-3.62-6.27-4.83-.54-.27-1.09-.52-1.65-.75,3.51-.65,7.12-1.02,10.43-1.87,14.45-2.46,29.11-3.57,43.62-5.48,16.49-3.12,35.23-3.22,48.87,7.88,3.31,2.88,4.44,6.1,7.4,8.91,4.68,2.9,7.37,7.61,10.83,11.71,1.55,1.82,1.03,4.76-.8,6.16-.84,.67-1.67,.94-2.47,.94-2.85,0-5.34-3.52-6.76-5.55Z"/>
    <path d="M622.92,70.94c2.4-.43,4.81-.8,7.37-1.19,12.89-2.33,25.75-3.81,38.87-3.67,2.4-.1,4.4,2.08,4.4,4.4,0,2.47-2.01,4.29-4.4,4.4-9.32,.28-18.66,.02-27.82,2.12-6.2,.9-12.45,1.69-18.61,2.91,.59-2.91,.65-5.96,.19-8.97Z"/>
    <path d="M834.76,579.46c-1.49-1.41-2.07-3.54-2.9-5.39-1.46-3.33-3.47-6.37-5.08-9.63-5.29-11.68-8.62-24.41-9.55-37.2-.31-4.23-5.29-10.27,.45-12.81,6.48-2.12,7.64,8.62,8.39,12.98,.77,10.67,3.76,21.43,7.69,31.19,2.39,5.01,5.34,9.69,7.42,14.85,1.72,1.7,1.52,4.66-.21,6.26-1.79,1.65-4.53,1.46-6.21-.26Z"/>
    <path d="M867.54,571.68c-1.73-5.68-2.54-11.39-4.22-17.07-1.73-4.58-3.99-8.96-5.14-13.74-2.91-11.78-4.85-23.77-8.28-35.45-.58-2.33,.99-4.75,3.29-5.28,2.37-.55,4.7,.97,5.28,3.29,1.07,4.3,2.36,8.55,3.27,12.89,2.01,8.02,3.17,16.17,5.45,24.13,1.43,4.88,4.18,9.28,5.24,14.27,1.13,4.22,2.08,8.33,2.85,12.54,1.37,2.52,.84,5.92-2.08,6.99-2.21,.85-4.79-.32-5.67-2.57Z"/>
    <path d="M836.68,586.45c-3.22-1.54-2.91-6.84,.56-7.95,3.16-1.02,6.2-1.97,8.89-3.97,4.73-2.57,10.26-2.37,15.32-3.86,1.71-.4,3.59,.12,5.21-.47,.82-.45,1.75-1.04,2.65-1.22,3.93-1.03,7.14,4.07,4.36,7.11-2.26,1.99-4.56,2.96-7.19,4.19-7.15,2.64-14.32,4.66-21.87,5.36-2.38,1.47-5.54,3.2-7.93,.81Z"/>
    <path d="M552.3,53.23c-.18-5.94,7.72-5.36,11.87-5.76,12.63-1.46,25.28-2.5,37.93-3.81,12.82-1.46,25.61-2.89,38.45-4.16,5.72-.45,6.59,8.01,.84,8.75-20.84,2.07-41.74,4.69-62.54,6.52-5.83,.25-11.95,1.45-17.69,1.7-3.64,.87-8.06,1.68-8.88-3.23Z"/>
    <path d="M553.38,80.8c-.27-7.82,13.08-4.18,18.14-5.7,16.22-1.64,32.59-.32,48.58-4,5.09-.67,10.12-1.67,15.19-2.5,3.76-.57,6.33,4.42,3.79,7.2-2.57,2.47-6.74,1.78-9.98,2.82-6.98,1.03-13.7,2.11-20.59,3.33-9.44,1.25-19.06,.37-28.54,1.38-7.27,.52-14.51,.97-21.78,1.42-2.35,.26-4.58-1.57-4.8-3.95Z"/>
    <path d="M552.34,82.41c-6.73-.5-7.92-8.07-7.42-13.54,.45-4.74-.1-14.89,5.34-16.63-.1-4.12,5.66-5.95,7.97-2.51,1.14,1.59,2.45,3.15,3.07,5.02,1.77,4.71,1.85,9.69,.84,14.57-.09,6.17-2.24,13.67-9.81,13.08Z"/>
    <path d="M554.16,85c-5.74-.36-5.43-8.87,.35-8.78,3.84,.02,9.7-3.08,11.14,2.39,1.02,6.23-7.26,6.11-11.49,6.39Z"/>
    <path d="M546.3,78.79c.1-2.46,2.18-4.21,4.58-4.21s4.31,2.26,4.21,4.58c-.1,2.46-2.18,4.21-4.58,4.21s-4.31-2.26-4.21-4.58Z"/>
    <path d="M547.77,55.24c-3.15-5.48,3.33-7.85,7.74-8.09,1.19-.21,2.33-.09,3.37,.58,3.2,1.88,2.34,7.34-1.38,7.98-3.31,.19-7.25,3.08-9.73-.47Z"/>
    <path d="M839.31,592.41c-2.31-.05-4.17-2.06-4.22-4.32-3.32-3.76-2.81-9.61-3.23-14.35,0-2.4,2.25-4.31,4.57-4.21,4.12,.19,4.27,4.24,4.43,7.41,8.26-6.57,18.87-8.64,29.22-7.39,4.68,.22,8.56,5.03,5.13,9.19-2.73,3.04-6.76,4.48-9.91,7.06-8.17,3.53-17.16,5.83-26,6.62Zm10.31-10.73c3.8-.65,7.44-2.09,11.06-3.39-3.91,.04-7.78,1.25-11.06,3.39Z"/>
    <path d="M863.38,241.11c-18.1-1.82-36.05-3.34-54.21-2.6-4.16,.22-8.35,.96-12.5,.67-6.64-2.07-3.62-9.52,2.38-9.89,2.11-2.97,6.67-1.79,9.85-1.98,6.73,.18,13.46-.14,20.19,.12,9.82,.7,19.9-1.32,29.55,.88,2.8,.36,5.59,.63,6.16,3.94,5.54,1.45,4.32,9.3-1.43,8.86Z"/>
    <path d="M857.53,236.16c-12.52-.98-25.05-1.7-37.61-1.03-4.99,.08-9.99,0-14.98,.28-2.4,.08-4.54-1.56-4.74-4.03-.22-2.69,2.17-5.04,4.88-4.76,8.31-1.47,17.05-1.18,25.52-1.4,10.38-.03,21.09-.28,31.1,2.68,5.24,3.19,1.39,9.73-4.17,8.27Z"/>
    <path d="M894.18,236.18c-2.69-1.29-5.72-1.25-8.64-1.42-2.39-.13-4.28-2.24-4.14-4.64,.6-5.79,7.72-4.02,11.7-3.5,3.7,.61,9.09,2.91,6.95,7.54-1.06,2.18-3.76,3.05-5.88,2.02Z"/>
    <path d="M980.79,246.97c.14-2.49,2.24-4.14,4.64-4.14s4.27,2.34,4.14,4.64c-.14,2.49-2.24,4.14-4.64,4.14s-4.27-2.34-4.14-4.64Z"/>
    <path d="M960.13,306.02c-3.12-.64-6.09-3.59-4.44-6.89,1.03-2.1,3.76-3.12,5.88-2.01,2.7,.81,5.2,3.05,4.13,6.14-.74,2.21-3.36,3.61-5.57,2.76Z"/>
    <path d="M621.18,574.89c-11.49-2.47,9.47-32.11,13.49-36.89,5.47-7.68,12.83-13.59,18.77-20.85,2.79-2.92,6.73-5.18,9.55-7.92,2.02-2.09,3.85-4.35,6.11-6.19,4.51-3.1,8.73-6.3,11.83-10.9,3.06-3.28,6.72-5.99,7.78-10.58,2-5.38,10.09-2.71,8.33,2.81-1.41,4.81-4.17,8.8-8.04,11.98-4.09,4.93-8.07,9.76-13.7,12.98-4.49,4.03-8.25,8.78-13.45,12.01-4.5,4.23-8.12,9.3-12.9,13.29-9.18,10.66-18.81,22.23-22.47,36.06-.24,2.64-2.66,4.76-5.31,4.21Z"/>
    <path d="M620.31,366.44c-4.14-1.78-3.53-7.31-3.99-11.05-1.49-7-.61-14.26-.96-21.37,.21-2.39,2.32-4.22,4.73-4.03,4.47,.65,4,4.26,3.99,7.73,1.9,2.95,1.4,6.38,2.86,9.48,.71,3.52,3.64,8.42-.73,10.64,.69,4.21-.21,10.19-5.9,8.62Z"/>
    <path d="M741.91,480.86c-6.2-6.11-10.28-13.97-15.47-20.85-1.12-2.41-1.93-4.92-3.82-6.88-1.65-2.44-2.04-5.45-3.32-8.08-.39-1.63-1.2-2.98-2.33-4.2-1.48-1.88-1.39-4.59,.48-6.2,7.46-4.62,10.31,8.19,12.21,13.12,.84,1.43,1.99,2.57,2.78,4.06,.99,2.52,2.17,4.73,4,6.76,3.18,5.71,7.06,11.03,11.37,15.76,4.15,4-1.56,10.32-5.9,6.52Z"/>
  </g>
</svg>