<?xml version="1.0" encoding="UTF-8"?>
<svg xmlns="http://www.w3.org/2000/svg" viewBox="0 0 1536 834">
  <defs>
    <style>
      .cls-1 {
        fill: #fff;
      }

      .cls-2 {
        fill: #f3c25f;
      }
    </style>
  </defs>
  <g id="Vektorebene-3" data-name="Vektorebene">
    <path class="cls-1" d="M510.19,377.5c0-4.88,4.93-8.2,7.25-12.17,6.8-9.33,13.19-19.55,19.18-29.01,36.51-60.19,83.17-113.22,133.34-162.33,3.13-3.2,8.3,1.4,5.13,4.85-34.76,34.4-68.5,70.31-97.74,109.49-18.03,24.53-33.61,50.82-50.49,75.91,30.13-22.43,54.91-51.34,78.31-80.48,17.8-24.23,33.63-49.96,52.55-73.35,3.02-3.32,8.29,1.47,5.13,4.83-18.59,23.14-34.23,48.48-51.76,72.41-19.48,24.71-40.18,48.12-63.6,69.09-8.73,7.9-18.35,14.61-28,21.34-2.69,2.48-8.13,4.34-9.29-.58Z"/>
    <path class="cls-1" d="M541.58,376.01c-4.93-4.7,5-10.27,7.21-14.28,10.05-11.79,19.73-24.62,30.42-35.58,14.17-21.77,28.65-44.05,42.46-65.87,23.7-42.32,48.42-85.47,86.11-116.98,3.15-3.19,8.33,1.45,5.13,4.85-34.41,29.32-58.89,67.41-79.84,106.93-14.94,24.73-31.13,48.65-46.68,73-5.22,8.12-36.82,52.38-44.81,47.93Z"/>
    <path class="cls-2" d="M613.96,777.02c-28.96-19.23-47.52-53.6-48.04-88.18-122.07,4.85-158.26-134.4-94.51-221.73-126.34-81.36,9.73-239.98,86.1-307.06,60.68-51.6,117.89-123.36,199.07-56.9,63.65-37.68,161.15-48.43,194.95,32.81,111.06-24.96,230.44,69.69,159.82,182.09,130.09,86.72,4.48,248.99-77.04,323.97-61.7,51.59-133.82,145.88-218.6,79.36-45.42,59.04-133.42,103.5-201.74,55.65Z"/>
  </g>
  <g id="Vektorebene-4" data-name="Vektorebene">
    <path d="M661.81,579.54c-22.28-6.76-35.5-26.05-43.93-46.67-4.49-12.82-4.56-26.66-6.51-40-2.62-23.89-9.5-46.8-11.29-70.72-1.48-42.28-19.56-144.59,22.21-168.9,9.23-7.46,21.35-10.61,32.7-13.45,11.55-3,22.82-5.83,34.75-6.57,28.55-3.82,57.53-4.44,86.24-3.01,34.81,1.29,69.49-2.76,104.27-1.59,28.07-1.65,55.2,14.29,67.74,39.36,4.63,12.49,7.38,24.84,10.91,37.49,5.63,26.16,4.43,53.29,2.37,79.72-1.2,16.8,1.9,33.11,3.03,49.76-.05,28.96,8.84,57.71,5.15,86.6-3.12,23.7-22.8,43.14-46.15,47.21-11.84,3.79-24.25,5.32-36.52,7.08-12.61,3.11-25.33,5.93-38.41,6.01-20.37,1.61-40.25-2.76-60.5-2.07-16.73,1.74-33.05,6.45-50.21,6.2-25.31-.34-51.47,1.39-75.85-6.45Zm9.51-4.45c28.9,5.12,58.91,4.78,88.03,2.35,10.51-2.22,20.98-4.83,31.81-4.71,30.39,.6,61.2,6.29,90.74-3.1,25.4-4.98,56.76-4.91,72.35-28.7,15.78-21.78,7.17-50.06,5.29-74.66-2.17-15.98-1.75-32.18-3.93-48.18-5-39.5,6.48-80.4-5.68-119.09-3.41-10.06-4.8-20.86-9.49-30.27-7.81-13.81-20.16-23.39-34.46-29.74-10.51-3.47-21.64-3.16-32.57-3.5-33.25-.49-66.16,3.12-99.38,1.69-29.13-1.41-58.35-.47-87.1,3.49-10.37,.5-19.42,3.29-29.19,5.78-10.94,2.53-22.63,5.56-31.53,12.65-38.31,21.73-20.03,127.71-18.76,166.85,2.45,22.48,8.49,44.18,10.99,66.6,2.02,18.52,3.08,37.68,13.94,53.55,3.45,4.69,6.34,9.95,10.16,14.29,8.34,7.22,18.34,11.99,28.78,14.69Z"/>
    <path d="M770.68,578.36c-6.52-17.24-5.33-36.33-6.33-54.34-.86-20.66-2.3-41.29-1.83-61.88-8.81,.7-17.73,.19-26.38,1.06-5.17-.18-11.25,3.74-15.71-.08-6.45-8.86-3.08-23.73-4.38-34.12,.11-8.88-2.55-19.76,3.34-27.27,10.81-8.87,24.73,1.5,36.75-.3,1.66-.11,3.69-.73,3.8-2.61,1.09-9.56-.32-18.75-.16-28.21,.11-20.04,1.9-42.03,14.84-58.27,17.14-15.47,41.67-27.9,65.18-23.96,9.36,1.29,20.38,.59,28.12,6.38,3.55,6.18,1.52,15.13,2.52,22.09,1.96,26.56,1.86,29.58-25.57,27.53-7.14,1.73-14.83,4.83-18.6,11.37-6.15,12.4-2.34,26.13-1.41,39.09,12.29-2.64,24.79-3.75,37.36-2.64,2.15-.06,4.37,.59,5.75,2.33,4.14,7.09,3.05,16.54,3.49,24.55-.54,5.99-1.68,11.11-.96,16.96,2.56,6.73,1.7,12.72-5.48,15.81-8.37,3.11-17.49,3.38-26.33,3.56-4.89,.64-13.49-2.22-13.64,4.75-1.59,14.72,2.26,28.28,3.47,42.57,3.1,19.68,4.76,39.64,5.58,59.47,.04,3.36-.27,6.43-.07,9.36-.2,3.41,1.22,9.43-3.77,9.57-4.71-.4-3.03-6.09-3.26-9.18-.19-3.07,.09-7.06,.07-9.92-.83-22.84-3.61-45.17-6.57-67.78-1.89-12.31-4.16-24.88-2.05-37.3,1.77-9.6,12.72-8.59,20.21-8.56,8.13-.31,16.71-.2,24.3-3.4,3.39-1.56,1.12-4.59,.69-7.24-1.32-7.18,.79-14.92,.85-21.9-.61-5.49-.34-11.23-1.78-16.56-12.75-1.28-25.33,.17-37.68,2.65-7.7,.8-7.25-5.28-7.39-10.83-1.55-10.09-3.46-20.68-.32-30.62,2.82-17.15,22.44-25.49,38.22-22.62,2.74,.24,6.53,.58,8.3-1.88,.52-12.38-.88-24.25-1.32-36.54,0,0,0,0,.01,0,0,0,0,0,0,0,0,0,0,0-.01,0,0,0,0,0,0,0-10.63-3.91-22.6-3.94-33.55-4.95-18.05,1.67-35.48,10.39-48.86,22.3-15.87,20.55-13.09,48.72-12.91,73.06,1.6,12.36-2.64,20.26-16.19,18.72-8.63,.62-19.94-7.34-27.17-1.03-2.48,8.83-.4,18.18-.67,27.21,.77,7.63-.54,15.69,1.9,23.02,11.77-2.73,23.89-1.72,35.82-2.67,2.33-.11,5.01,.08,6.83,1.73,2.05,1.77,1.94,4.6,1.76,7.08-.28,13.21,.36,26.33,.97,39.4,1.29,19.76,.55,39.77,3.52,59.28,.32,4.78,1.28,9.04,3.31,13.31,1.65,4.19-4.99,6.79-6.61,2.47Z"/>
    <path d="M831.46,572.96c-2.59-5.74-3.13-11.79-3-18-.62-7.8-2.19-15.44-3.12-23.19,.44-22.28-4.18-44.34-4.99-66.57,.13-17.98,21.24-14.76,33.63-16.97,11.01-1.01,14.99-.2,15.59-12.91-.07-9.15,.67-18.14-1.43-27.11-.31-4.72,.96-9.47-.68-14.03-9.13,.74-18.05-.99-27.23-.45-4.6,4.94-12.83,4.5-17.31-.38-2.51-2.39-3.48-6.95-3.36-10.11-1.08-7.64-.9-15.74,3.66-22.29,3.26-24.92,36.32-20.04,54.32-18.35,15.11,3.18,11.02,25.59-4.21,23.11-7.65-.22-15.25-1.73-22.91-1.09-.51,1.19-1.18,2.28-1.96,3.36-.6,.82-1.2,1.62-1.86,2.38,12.7,.25,37.52-8.76,41.82,8.87,1.72,3.13,1.61,6.12,1.8,8.99,2,6.21,1.44,12.6,1.42,19.01,2.55,8.22,1.16,16.72,1.27,25.16,.72,12.41-2.96,25.84-13.57,33.33-11.08,6.88-23.37,5.13-35.11,7.33,3.18,22.63,3.31,44.19,6.11,66.48,0,0,0,0,0,0,.54-.91,1.21-1.76,2.05-2.52,1.87-1.72,4.15-2.68,6.54-3.4,1.5-1.7,3.5-2.99,5.79-3.71,2.98-13.14,42.96-27.03,52.14-15.5,5.67,1.66,9.26,7.57,8.22,13.39-1.1,7.05-7.42,9.71-12.98,12.63-6.06,12.86-22.69,14.63-35.18,16.76-6.32,7.83-14.27,15.35-24.42,17.43-5.43,7.02-16.92,6.52-21.05-1.65Z"/>
    <path d="M703.43,480.05c-4.41-4.66-2.86-13.36-4.24-18.05-1.65-10.04-2.78-20.01-2.94-29.93-8.57-4.7-6.64-16.46-5.82-24.66,4.09-22.02,30.65-30.91,50.28-25.27,1.51-20.63,4.08-41.67,11.33-61.15,2.96-7.46,8.14-13.7,13.34-19.67,4.02-6.64,9.49-13.8,15.63-18.05,2.06-2.83,4.98-5.26,7.97-7.16,2.24-3.86,6.54-5.34,10.67-6.39,9.02-6.3,19.72-8.48,30.62-8.14,5.09,.18,10.29,.52,15.19,2.01,8.09,2.58,14.45,8.14,23.14,8.36,5.43-2.28,12.32-.42,17.22,2.61,9.95,6.55,5.88,19.15,4.52,28.77-.29,6.92,2.02,13.78,.58,20.62-1.29,7.13-2.77,11.04-3.72,17.35-.57,5.87,1.87,11.82-1.12,17.41-6,12.63-25.38,5.61-21.94-7.92-2.16-10.88,2.03-21.42,3.83-32.03-.71-7.54-1.79-15.3-.46-22.83-4.76-1.69-9.99-1.54-14.79-3.4-3.37,2.47-7.42,2.19-11.36,2.09-10.82,.22-21.62-.96-32.38-1.89-7.32,1.96-12.19,8.29-17.92,12.84-5.18,7.5-11.23,14.45-16.18,22.09-6.46,12.53-6.31,26.96-9.64,40.43-1.77,14.18,1.7,39.47-18.94,38.88-9.74-.75-20.18-6.12-29.35,.06,4.78,8.4,2.42,18.03,2.78,26.57,.07,13.47,3.55,25.83,4.1,39.01,.13,10.14-13.97,15.09-20.42,7.43Z"/>
    <path d="M749.56,568.48c.31-5.36-1.48-10.21-2.98-15.27-1.34-7.26-.34-14.65-2.06-21.86,.86-17.03-1.67-33.45-1.1-50.08-7.33,.73-14.97-1.43-22.17-1.54,.2,0,.41,0,.61-.02,.36,.04,.73,.09,1.09,.13-7.76,.71-16.63-1.46-17.41-10.65-.55-6.09,4.22-12.59,10.63-12.79,3.41-.11,6.68-.17,9.65,.15,6.01,.42,10.15,1.44,15.43,1.34,12.43-2.38,25.98,.43,26.27,15.58-1.83,18.58,1.29,37.3,.4,55.4,1.22,6.05,1.38,12.2,1.41,18.36,1.86,6.27,3.99,12.43,3.65,19.06,1.12,15.3-21.49,17.58-23.41,2.18Z"/>
    <path d="M663.79,574.68c-27.69-2.66-36.62-33.68-44.83-55.38-4.52-14.95-4.52-30.68-6.5-46.05-2.32-12.32-3.68-24.55-5.62-36.02-3.47-19.17-1.26-39.04-5.87-57.78-2.28-14.76,.36-29.54-.96-44.29-.47-12.17-.56-24.32,1.63-36.36,.13-8.05,2.57-15.66,7.34-22.14,3.2-6.58,6.23-13.87,12.81-17.85,3.28-2.97,7.08-6.09,11.76-5.77,8.93-6.52,21.9-9.52,31.75-11.55,15.08-5.16,31.24-5.18,46.28-6.89,22.84-2.98,45.87-1.15,68.8-2.03,13.7-.72,27.5-.3,41.15-2.17,4.4-1.11,11.57-1.34,15.15-1.03,20.88-.09,42.74,.26,62.51,5.85,8.13,2.26,16.06,5.64,23.19,10.13,4.57,1.23,8.98,2.79,12.91,5.51,5.55,3.17,6.85,11.08,3.52,16.23-4.44,6.9-13.04,6.27-19.04,1.94-5.45-.77-11.28-4.99-15.89-7.13-11.55-5.81-24.19-6.81-36.77-8.29-22.47-2.51-44.73,.48-67.14,1.93-32.2,1.39-65.35-.76-97.1,3.55-10.5,.5-19.51,1.51-28.7,4.22-8.19,2.26-16.61,3.52-24.36,7.19-4.97,2.86-8.99,8.26-13.77,11.16-1.54,1.39-3.47,2.4-4.62,4.17-3.6,4.25-6.76,8.81-6.35,14.64-1.89,10.53-2.04,20.45-1.75,30.84,1.08,13.75-.22,27.27,.3,41.02,2.4,11.14,4.08,22.26,3.86,33.53,1.26,22.41,4.86,44.35,8.51,66.11,1.83,13.43,1.54,27.41,5.41,40.45,1.7,5.83,4.5,11.16,6.8,16.75,3.17,8.95,7.72,20.83,18.44,22.16,17.04,1.52,33.88,.58,50.76,.76,11.54,.22,22.57,4.23,34.11,4.94,14.55,1.27,19.15,19.3,5.52,26.03-12.03,4.97-25.71,4.43-38.53,4.82-14.34,.49-29.04,0-42.27-6.24-4.76-1.01-10.16-2.17-12.43-7Z"/>
    <path d="M610.36,508c1.95-6.08,8.71-9.53,14.8-7.55s9.53,8.71,7.55,14.8c-1.95,6.08-8.71,9.53-14.8,7.55s-9.53-8.71-7.55-14.8Z"/>
    <path d="M848.93,561.98c3.21-7.59,11.62-11.6,19.14-13.83,8.2-2.15,17.9-.17,25.94-2.53,7.25-.55,12.65-3.33,19.62-4.31,7.46-2.19,16.09,.16,21.18-6.35,16.72-18.26,4.73-47.64,5.76-69.63-.21-26.81-6.36-53.34-5.79-79.96-1.54-11.37-1.74-22.65,.48-33.96-.08-8.9-.93-17.82-2.11-26.65-8.52-11.67-8.76-27.56-11.91-41.29-1.07-4.96-4.69-9.11-5.44-14.36-6.36-3.04-8.93-11.24-5.02-17.21,8.61-12.36,25.3-.59,27.64,10.93,5.93,8.57,12.15,18.21,14.45,28.55,2.15,12.89,2.84,25.94,4.67,38.88,.72,7.19,.89,13.28,1.3,20.27-.25,6.6-2.15,13.11-1.95,19.77,1.9,18.89,1.4,37.91,4.45,56.75,2.48,19.52,2.36,39.28,4.01,58.87,5.04,27.46,.81,65-29.2,75.65-7.66,1.74-15.65,1.67-23.25,3.82-6.89,2.73-14.2,2.92-20.84,4.5-6.56,6.01-15.82,3.56-23.65,4.7-9.27,7.13-23.19-.89-19.47-12.6Z"/>
    <path d="M837.74,530.62c1.5-9.2-2.34-19.83,3.11-28.02-1.64-9.43-8.51-22.64,1.4-29.52,1.71-4.3,5.27-7.47,10.02-7.91,.49-.04,.97-.06,1.46-.04,3.02-3.18,7.64-4.82,12.03-3.11,.17,.07,.35,.14,.52,.21-.36-3.11-.1-6.2,1.86-8.92,3.91-5.42,10.41-6.76,16.22-3.51-3.51-7.92-3.16-19.34,7.09-21.42-.12-2.31,.04-4.6,.62-6.78,.14-.54,.33-1.06,.54-1.56-.94-2.52-1.59-5.17-2.14-7.8-.06-.29-.12-.57-.17-.86-15.75-3.79-30.57-17.2-34.73-33.02-9.57-2.35-21.51-10.29-16.37-21.59,2.37-4.98,7.66-7.38,12.96-7.36,19.07,2.42,37.89,9.29,54.88,18.27-2.12-11.5-5.78-23.81-3.46-35.47,3.26-10.35,18.53-10.72,22.2-.48,1.88,5.83,2.37,12.11,3.95,18.04,13.72,3.94,10.42,30.15,13.57,41.92,3.17,28.52,8.46,57.89,2.72,86.32,3.82,14.5,22.41,49.48-4.08,50.87,.19,4.76-.96,9.32-5.23,12.34-1.33,.94-2.91,1.62-4.55,1.99-2.86,3.34-7.27,4.98-11.81,4.17-2.72-.5-4.96-1.89-6.9-3.7-2.57,1.96-5.93,2.88-9.32,2.36-3.28-.51-5.78-2.3-7.88-4.58-2.61,.35-5.19-.08-7.53-1.14-1.35,1.61-3.07,2.9-5.07,3.65-4.91,1.83-9.23,.84-12.96-1.56-4.17,6.15-13.57,6.64-18.88,1.75-7.97,2.04-15.49-5.48-14.08-13.53Z"/>
    <path d="M894.82,375.23c-10.1-5.43-13.98-18.27-13.82-29.09-2.81-8.24-3.3-19.91,6.41-23.49-1.66-8.37-5.75-18.93,1.2-25.94-.11-2.07,.41-4.08,1.37-5.85-.11-.92-.12-1.84-.02-2.75-6.92-5.16-14.33-10.23-22.21-13.69-9.09-2.52-22.32-5.02-22.23-16.91-2.93,0-5.93,.11-8.76,.92-5.96,2.31-12.9-1-15.11-6.93-2.26-6.08,.96-12.79,6.93-15.11,17.05-5.24,35.61-1.26,52.24,3.85,10.3,3.64,21.75,6.23,29.13,14.93,7,8.96,13.57,19.78,13.91,31.26,4.53,5.21,10.09,10.26,11.06,17.39,.74,8.88,1.58,17.76,3.05,26.58,.09,9.45,6.92,17.5,6.03,26.85-1.35,7.44-9.9,11.96-16.71,8.48-.79,2.23-2.25,4.24-4.26,5.66-1.4,.98-3.03,1.63-4.73,1.92-4.3,9.27-17.29,9.51-23.47,1.89Z"/>
    <path d="M672.44,556.93c-6.81-2.37-12.49-6.56-17.7-11.32-4.2-1.32-7.61-3.95-8.75-8.7-7.91-9.75-25.18-24.08-13.45-36.94-.7-1.61-1.16-3.32-1.32-5.06-.07-.79-.09-1.56-.05-2.32-7.07-5.42-9.8-14.89-6.14-23.07-.07-.43-.13-.87-.17-1.32-.23-2.42,.03-5.29,.98-7.63-1.25-3.38-1.1-6.89-.47-10.37-1.46-3.47-1.71-7.38-.48-11.15,.23-.73,.52-1.43,.84-2.11-4.59-3.75-7.83-8.82-7.69-15.17,.07-2.9,.81-5.8,2.1-8.42-.99-3.16-1.15-6.54-.51-9.77-2.91-3.3-4.54-7.52-4.4-11.97-1.31-2.42-2.09-5.13-2.08-7.85-14.97-5.12-14.94-23.34-1.57-30.48-2.5-6.57-.88-14.27,4.44-18.97-2.09-2.92-3.27-6.54-3.12-9.98,.24-5.62,3.16-10.13,7.04-13.88-.09-.68-.14-1.36-.13-2.06,0-.4,.03-.79,.06-1.18-6.84-8.68,.35-19.7,8.45-24.51,4.18-21.53,102.26-48.94,119.2-35.69,11.93,.16,23.66,1.48,35.55,2.53,16.36-1.81,33.01-3.55,49.42-1.55,10.85,1.81,23.2-2.37,32.84,4.51,12.78,8.63,.46,27.77-12.78,19.72-2.35,2.54-5.57,3.56-8.95,3.92-13.65,.84-27.46-.55-41.1-1.4-2.12,8.77-11.6,9.1-19.11,8.72,1.09,2.31,1.5,4.94,1,7.7-1.67,9.25-11.91,12.07-19.73,14.62,4.29,7.68-1,18.16-10,18.18,.12,.25,.22,.5,.32,.76,1.46,3.91,.61,8.28-1.86,11.43,.49,2.3,.52,4.61-.24,6.94-.17,.53-.38,1.05-.61,1.57,5.72,8.64,6.82,20.54,1.74,29.67,.86,9.34-9.3,16.79-17.92,12.84-4.21,4.38-10.27,3.8-15.37,1.74-1.6,.51-3.19,.92-4.7,1.24-3.83,.81-7.81,1.24-11.77,1.3,.39,9.94-9.01,15.4-11.98,23.5,13.73,7.34,17.79,24.97,6.95,36.65,3.2,2.98,5.73,6.65,7.26,10.8,.3,.8,.54,1.61,.73,2.42,6.55,2.38,12.68,5.78,17.16,11.04,3.65,.66,7.08,.78,10.77,.53,20.22,.06,26.71,21.6,21.35,38.21-1.47,7.91-6.8,14.1-6.9,22.2,1.63,4.04,3.06,8.46,1.39,12.77,7.42,29.17-64.46,11.83-78.56,7.37Zm38.54-15.53c.65,.1,1.3,.2,1.95,.29-.12-.83-.19-1.66-.19-2.51-.12-.1-.25-.2-.37-.3-.39,.88-.86,1.73-1.4,2.51Z"/>
    <path d="M638.33,579.5c-15.94-10.84-25.94-29.38-29.12-48.2-2.33-17.51-3.71-35.33-5.18-53.03-3.73-23.31-6.69-45.22-4-68.54,2.12-12-6.57-31.11,7.09-37.79,.44-8.57,4.45-17.43,14.49-16.04,6.4,1.03,10.66,7.14,9.74,13.47-2.57,14.14-4.5,28.23-3.26,42.59,.52,4.92,1.41,9.81,1.23,14.78,1.01,7.08,1.85,16.63-6.04,19.93,2.74,19.37,5.27,38.8,6.74,58.31,1.31,6.78,.8,15.2,2.21,21.72,1.74,11.7,7.32,22.33,15.59,30.63,6.06,5.44,15.68,3.73,23.02,6.09,15.79,2.81,31.98,1.48,47.72-.9,8.05-.54,17.24-6.03,24.02,.8,6.87,6.96,2.13,18.68-7.19,20.39-3.93,.89-8.19,.85-12.13,1.8-27.98,4.6-58.36,4.37-84.92-6Z"/>
  </g>
</svg>