<?xml version="1.0" encoding="UTF-8"?>
<svg xmlns="http://www.w3.org/2000/svg" viewBox="0 0 862.74 834">
  <defs>
    <style>
      .cls-1 {
        fill: #fff;
      }

      .cls-2 {
        fill: #f3c25f;
      }
    </style>
  </defs>
  <g id="Vektorebene-3" data-name="Vektorebene">
    <path class="cls-1" d="M123.19,368.2c-.18-5.48,5.26-9.37,7.72-13.91,7.32-10.72,14.14-22.41,20.53-33.24,38.91-68.86,89.48-130.02,144.12-186.91,3.41-3.71,9.37,1.29,5.93,5.27-37.84,39.83-74.49,81.33-105.96,126.33-19.4,28.17-35.99,58.24-54.08,86.99,33.06-26.23,59.89-59.56,85.15-93.09,19.15-27.83,36.04-57.26,56.47-84.19,3.28-3.83,9.36,1.37,5.93,5.25-20.07,26.63-36.76,55.63-55.62,83.11-21.02,28.42-43.45,55.43-69.03,79.79-9.53,9.17-20.1,17.04-30.7,24.94-2.94,2.87-8.98,5.16-10.45-.33Z"/>
    <path class="cls-1" d="M158.38,365.44c-5.7-5.1,5.25-11.71,7.6-16.28,10.88-13.59,21.3-28.33,32.93-41.01,15.16-24.94,30.65-50.46,45.41-75.44,25.14-48.35,51.42-97.66,92.65-134.35,3.43-3.69,9.4,1.34,5.93,5.27-37.63,34.11-63.79,77.74-85.96,122.84-15.92,28.28-33.28,55.71-49.89,83.59-5.59,9.3-39.53,60.1-48.66,55.38Z"/>
    <path class="cls-2" d="M244.52,813.93c-33.19-20.59-55.22-58.55-57-97.36-136.91,9.68-182.37-145.45-113.81-245.73-144.7-87,2.62-269.83,86.05-347.81C226.12,62.98,287.88-19.58,381.34,52.24c70.17-44.51,179.29-59.97,220.06,30.1,123.85-31.87,261.2,70.28,185.78,198.95,149.09,92.88,13.65,279.45-75.3,366.48-67.51,60.08-145.22,168.45-242.73,96.69-48.96,67.88-146.25,120.84-224.62,69.48Z"/>
  </g>
  <g id="Vektorebene-4" data-name="Vektorebene">
    <path d="M300.45,589.84c-25.25-6.83-40.77-28.02-50.95-50.89-5.48-14.24-6.04-29.78-8.69-44.69-3.77-26.73-12.29-52.23-15.13-79.03-3.13-47.43-26.97-161.69,19.09-190.44,10.11-8.7,23.61-12.66,36.25-16.23,12.86-3.77,25.43-7.34,38.8-8.58,31.93-5.28,64.45-6.97,96.74-6.37,39.13,.24,77.94-5.5,117.03-5.39,31.47-2.83,62.49,14.14,77.44,41.86,5.63,13.86,9.15,27.64,13.55,41.72,7.22,29.19,6.81,59.69,5.42,89.44-.77,18.9,3.28,37.12,5.13,55.78,.94,32.53,11.92,64.5,8.79,97.08-2.68,26.73-24.11,49.23-50.2,54.61-13.16,4.67-27.04,6.81-40.77,9.22-14.05,3.93-28.24,7.53-42.92,8.08-22.81,2.51-45.29-1.71-68.01-.23-18.72,2.53-36.89,8.39-56.17,8.7-28.43,.5-57.76,3.35-85.4-4.62Zm10.52-5.33c32.64,4.75,66.32,3.33,98.94-.41,11.72-2.86,23.4-6.15,35.56-6.39,34.15-.38,68.95,4.95,101.8-6.62,28.36-6.47,63.57-7.48,80.25-34.73,16.97-25.01,6.32-56.47,3.36-84.03-2.99-17.87-3.08-36.08-6.08-53.97-6.99-44.19,4.49-90.51-10.5-133.54-4.18-11.18-6.11-23.26-11.7-33.67-9.25-15.24-23.44-25.57-39.73-32.2-11.92-3.53-24.41-2.8-36.7-2.81-37.35,.61-74.19,5.8-111.54,5.34-32.76-.58-65.55,1.49-97.7,6.93-11.63,.92-21.69,4.36-32.58,7.5-12.2,3.22-25.22,7.03-34.97,15.3-42.27,25.73-18.07,144.11-15.29,188.02,3.53,25.16,11.07,49.32,14.64,74.41,2.91,20.72,4.76,42.21,17.5,59.66,4.03,5.14,7.46,10.96,11.91,15.7,9.61,7.81,21.02,12.83,32.82,15.5Z"/>
    <path d="M422.66,584.74c-7.91-19.13-7.24-40.62-8.99-60.81-1.68-23.18-4.01-46.29-4.19-69.43-9.86,1.09-19.91,.83-29.59,2.11-5.82-.02-12.5,4.59-17.64,.46-7.55-9.73-4.28-26.54-6.1-38.16-.19-9.98-3.55-22.1,2.81-30.74,11.83-10.34,27.82,.83,41.26-1.61,1.85-.18,4.12-.95,4.18-3.06,.89-10.77-1.01-21.04-1.15-31.68-.57-22.51,.68-47.26,14.65-65.95,18.71-17.96,45.83-32.78,72.36-29.16,10.56,1.12,22.91-.04,31.8,6.19,4.2,6.82,2.23,16.94,3.6,24.72,3.13,29.76,3.11,33.15-27.76,31.81-7.96,2.19-16.49,5.94-20.49,13.41-6.47,14.14-1.72,29.43-.23,43.95,13.71-3.39,27.7-5.07,41.86-4.26,2.41-.14,4.93,.51,6.54,2.41,4.9,7.82,4,18.46,4.76,27.44-.4,6.75-1.51,12.53-.49,19.08,3.1,7.47,2.35,14.22-5.61,17.95-9.29,3.79-19.52,4.4-29.44,4.91-5.47,.89-15.23-2.03-15.15,5.8-1.28,16.59,3.52,31.68,5.37,47.68,4.17,21.99,6.72,44.35,8.32,66.59,.16,3.77-.09,7.23,.24,10.51-.1,3.83,1.69,10.54-3.9,10.87-5.3-.29-3.61-6.73-3.98-10.2-.32-3.44-.14-7.93-.27-11.14-1.72-25.62-5.62-50.6-9.72-75.89-2.55-13.75-5.54-27.79-3.6-41.82,1.66-10.84,13.98-10.09,22.39-10.31,9.12-.63,18.76-.8,27.17-4.66,3.75-1.87,1.1-5.19,.53-8.15-1.73-8.01,.37-16.78,.2-24.63-.87-6.14-.77-12.6-2.57-18.54-14.36-1-28.44,1.07-42.23,4.28-8.62,1.17-8.32-5.67-8.68-11.91-2.09-11.28-4.6-23.11-1.42-34.38,2.57-19.35,24.32-29.41,42.14-26.73,3.09,.18,7.35,.43,9.26-2.4,.16-13.92-1.82-27.21-2.74-40.98,0,0,0,0,.01,0,0,0,0,0,0,0,0,0,0,0-.01,0,0,0,0,0,0-.01-12.07-4.02-25.52-3.64-37.85-4.4-20.21,2.5-39.49,12.9-54.09,26.74-17.11,23.63-13.02,55.17-11.97,82.49,2.23,13.83-2.26,22.85-17.53,21.59-9.67,1-22.64-7.55-30.55-.21-2.48,10.01,.18,20.43,.18,30.58,1.12,8.54-.06,17.64,2.93,25.79,13.13-3.47,26.76-2.76,40.13-4.24,2.62-.21,5.63-.08,7.73,1.71,2.37,1.92,2.33,5.09,2.22,7.88,.14,14.84,1.32,29.55,2.45,44.21,2.14,22.14,1.99,44.65,6,66.45,.53,5.36,1.75,10.11,4.18,14.83,2,4.65-5.37,7.79-7.34,3Z"/>
    <path d="M490.74,576.58c-3.11-6.36-3.93-13.13-4-20.11-.97-8.73-2.99-17.26-4.3-25.93-.28-25.04-6.22-49.65-7.91-74.59-.47-20.19,23.34-17.31,37.18-20.22,12.33-1.52,16.82-.74,17.06-15.03-.4-10.28,.13-20.39-2.55-30.39-.51-5.28,.75-10.66-1.25-15.73-10.23,1.15-20.3-.49-30.59,.44-4.99,5.7-14.26,5.5-19.45,.18-2.91-2.6-4.14-7.68-4.12-11.24-1.48-8.54-1.56-17.64,3.33-25.16,2.8-28.09,40.1-23.76,60.37-22.49,17.07,3.05,13.26,28.36-3.93,26.1-8.59,.02-17.18-1.42-25.77-.43-.53,1.36-1.25,2.6-2.09,3.85-.65,.94-1.29,1.86-2,2.73,14.27-.16,41.83-11.13,47.27,8.51,2.04,3.45,2.02,6.81,2.33,10.04,2.46,6.9,2.05,14.1,2.25,21.3,3.15,9.14,1.88,18.74,2.3,28.21,1.24,13.91-2.43,29.12-14.08,37.9-12.2,8.11-26.06,6.57-39.17,9.45,4.36,25.31,5.24,49.51,9.17,74.44,0,0,0,0,0,0,.58-1.04,1.3-2.01,2.22-2.91,2.04-2,4.57-3.15,7.23-4.05,1.63-1.96,3.83-3.48,6.38-4.37,2.89-14.86,47.31-31.84,58.02-19.21,6.43,1.67,10.67,8.19,9.69,14.75-.99,7.96-8,11.16-14.14,14.63-6.36,14.66-24.97,17.22-38.92,20.04-6.83,9.01-15.49,17.73-26.82,20.42-5.86,8.07-18.78,7.91-23.7-1.12Z"/>
    <path d="M343.74,476.67c-5.11-5.09-3.67-14.9-5.39-20.13-2.2-11.21-3.81-22.38-4.34-33.51-9.78-4.98-8.03-18.26-7.39-27.49,3.83-24.87,33.35-35.78,55.59-30.12,.98-23.22,3.14-46.94,10.6-69.06,3.06-8.48,8.67-15.67,14.29-22.55,4.28-7.6,10.18-15.83,16.93-20.81,2.21-3.25,5.41-6.08,8.7-8.32,2.38-4.41,7.16-6.22,11.77-7.54,9.91-7.39,21.86-10.21,34.11-10.2,5.73,.03,11.58,.23,17.13,1.73,9.17,2.62,16.51,8.64,26.27,8.58,6.02-2.75,13.83-.89,19.43,2.33,11.4,7.01,7.27,21.3,6.07,32.15-.09,7.78,2.74,15.4,1.36,23.14-1.21,8.05-2.73,12.49-3.58,19.61-.44,6.61,2.51,13.21-.66,19.59-6.3,14.39-28.31,7.18-24.91-8.13-2.81-12.14,1.54-24.13,3.19-36.1-1.05-8.45-2.54-17.12-1.3-25.62-5.4-1.73-11.27-1.38-16.72-3.31-3.69,2.89-8.26,2.72-12.69,2.75-12.14,.62-24.31-.33-36.43-1-8.15,2.46-13.41,9.73-19.68,15.04-5.56,8.6-12.11,16.62-17.4,25.37-6.82,14.29-6.15,30.49-9.43,45.74-1.49,15.98,3.28,44.26-19.92,44.32-10.97-.5-22.87-6.18-32.96,1.08,5.66,9.27,3.34,20.16,4.05,29.74,.54,15.13,4.88,28.89,5.96,43.66,.49,11.38-15.16,17.43-22.67,9.05Z"/>
    <path d="M398.61,574.38c.16-6.04-2.02-11.42-3.88-17.04-1.75-8.1-.89-16.44-3.07-24.48,.37-19.16-3.03-37.5-2.97-56.2-8.21,1.08-16.86-1.09-24.95-.96,.23-.01,.46-.02,.68-.04,.41,.04,.82,.08,1.23,.11-8.69,1.07-18.72-1.07-19.92-11.35-.83-6.82,4.3-14.28,11.5-14.73,3.83-.24,7.49-.42,10.84-.16,6.76,.26,11.45,1.26,17.37,.97,13.88-3.1,29.2-.41,30.05,16.59-1.41,20.93,2.74,41.84,2.36,62.2,1.58,6.75,1.97,13.65,2.22,20.57,2.3,6.98,4.91,13.82,4.75,21.27,1.79,17.14-23.53,20.49-26.21,3.26Z"/>
    <path d="M302.5,584.31c-31.19-2.02-42.29-36.55-52.26-60.64-5.59-16.64-6.13-34.3-8.89-51.49-3.03-13.76-4.98-27.45-7.56-40.26-4.56-21.41-2.76-43.79-8.59-64.68-3.07-16.5-.62-33.18-2.61-49.7-.95-13.65-1.47-27.29,.57-40.88-.13-9.05,2.34-17.67,7.47-25.11,3.37-7.5,6.52-15.79,13.76-20.48,3.59-3.45,7.74-7.08,13.01-6.88,9.8-7.63,24.26-11.45,35.26-14.07,16.76-6.32,34.9-6.9,51.74-9.34,25.55-4.14,51.47-2.88,77.19-4.66,15.36-1.28,30.88-1.29,46.14-3.87,4.9-1.4,12.94-1.91,16.97-1.68,23.44-.83,48.01-1.19,70.41,4.41,9.21,2.25,18.23,5.77,26.39,10.57,5.17,1.23,10.18,2.82,14.69,5.74,6.35,3.37,8.08,12.21,4.51,18.11-4.74,7.91-14.43,7.5-21.31,2.84-6.15-.68-12.84-5.21-18.1-7.46-13.17-6.12-27.4-6.81-41.58-8.04-25.32-2.04-50.22,2.09-75.33,4.49-36.11,2.67-73.41,1.41-108.92,7.35-11.77,.93-21.86,2.37-32.09,5.74-9.12,2.82-18.53,4.52-27.1,8.92-5.49,3.39-9.81,9.59-15.08,13.01-1.69,1.61-3.82,2.82-5.04,4.84-3.9,4.9-7.29,10.13-6.62,16.66-1.76,11.89-1.59,23.03-.9,34.7,1.69,15.4,.7,30.63,1.76,46.06,3.08,12.42,5.36,24.85,5.5,37.52,2.19,25.13,6.99,49.64,11.85,73.95,2.52,15.01,2.68,30.72,7.47,45.23,2.11,6.49,5.44,12.38,8.21,18.57,3.87,9.94,9.39,23.12,21.48,24.25,19.19,1.11,38.06-.52,57.02-.9,12.97-.15,25.49,3.97,38.47,4.37,16.38,.93,22.17,21.01,7.09,29.04-13.33,6-28.71,5.87-43.1,6.75-16.08,1.05-32.61,1.01-47.68-5.55-5.38-.97-11.49-2.09-14.2-7.43Z"/>
    <path d="M240.2,511.28c1.98-6.9,9.45-11,16.36-8.99,6.89,2,11,9.45,8.99,16.36-1.98,6.9-9.45,11-16.36,8.99-6.89-2-11-9.45-8.99-16.36Z"/>
    <path d="M509.97,563.63c3.35-8.63,12.65-13.43,21.01-16.19,9.13-2.7,20.1-.81,29.04-3.74,8.13-.87,14.09-4.17,21.88-5.52,8.3-2.71,18.07-.38,23.56-7.87,18.14-21.09,3.66-53.66,4.06-78.4-1.17-30.1-8.98-59.68-9.27-89.59-2.12-12.72-2.74-25.38-.64-38.15-.4-10-1.66-19.98-3.29-29.86-9.97-12.8-10.79-30.65-14.81-45.96-1.38-5.53-5.58-10.06-6.61-15.93-7.25-3.19-10.41-12.31-6.23-19.15,9.25-14.18,28.4-1.54,31.42,11.32,6.95,9.42,14.27,20.02,17.22,31.56,2.86,14.4,4.09,29.03,6.59,43.5,1.05,8.05,1.46,14.88,2.17,22.71-.06,7.42-1.96,14.79-1.5,22.27,2.79,21.14,2.88,42.52,6.96,63.57,3.46,21.83,4.01,44.03,6.54,65.97,6.61,30.66,3.16,72.96-30.17,85.96-8.54,2.22-17.52,2.42-25.97,5.09-7.64,3.3-15.84,3.77-23.25,5.78-7.16,6.97-17.65,4.54-26.4,6.09-10.16,8.32-26.08-.2-22.3-13.47Z"/>
    <path d="M496.33,528.8c1.37-10.38-3.31-22.19,2.52-31.58-2.17-10.53-10.33-25.13,.54-33.2,1.77-4.89,5.66-8.57,10.98-9.23,.54-.07,1.09-.1,1.64-.09,3.28-3.68,8.42-5.68,13.41-3.91,.2,.07,.39,.14,.59,.22-.52-3.48-.32-6.96,1.78-10.08,4.21-6.22,11.46-7.96,18.09-4.51-4.22-8.78-4.21-21.61,7.22-24.3-.21-2.59-.12-5.16,.46-7.63,.14-.61,.33-1.2,.56-1.77-1.14-2.8-1.96-5.75-2.68-8.68-.08-.32-.15-.64-.22-.96-17.82-3.72-34.92-18.26-40.15-35.88-10.83-2.3-24.51-10.82-19.13-23.68,2.49-5.68,8.35-8.55,14.3-8.71,21.5,2.06,42.87,9.12,62.26,18.61-2.78-12.84-7.32-26.54-5.11-39.71,3.3-11.73,20.44-12.68,24.91-1.31,2.31,6.48,3.09,13.51,5.06,20.12,15.54,3.94,12.74,33.5,16.69,46.61,4.55,31.92,11.5,64.72,6.05,96.84,4.79,16.15,26.88,54.78-2.82,57.27,.37,5.34-.75,10.5-5.44,14.03-1.46,1.1-3.21,1.92-5.04,2.4-3.1,3.85-7.99,5.84-13.12,5.09-3.07-.46-5.64-1.95-7.88-3.91-2.81,2.29-6.56,3.44-10.39,2.97-3.71-.46-6.57-2.39-9.01-4.87-2.92,.48-5.83,.08-8.5-1.02-1.47,1.86-3.35,3.37-5.57,4.28-5.45,2.22-10.34,1.27-14.61-1.3-4.47,7.05-15.01,7.93-21.15,2.61-8.88,2.56-17.58-5.62-16.27-14.71Z"/>
    <path d="M555.04,352.33c-11.53-5.75-16.33-20.03-16.53-32.18-3.44-9.16-4.39-22.24,6.39-26.6-2.15-9.35-7.11-21.06,.44-29.17-.2-2.32,.31-4.59,1.34-6.61-.16-1.02-.2-2.06-.12-3.09-7.95-5.55-16.45-10.99-25.42-14.61-10.3-2.51-25.24-4.86-25.55-18.22-3.29,.1-6.66,.33-9.8,1.34-6.61,2.8-14.52-.67-17.2-7.25-2.74-6.75,.64-14.4,7.25-17.21,18.96-6.47,39.94-2.65,58.8,2.52,11.7,3.73,24.64,6.24,33.23,15.76,8.17,9.82,15.93,21.75,16.7,34.62,5.27,5.7,11.68,11.17,13.02,19.15,1.13,9.95,2.39,19.89,4.35,29.75,.43,10.61,8.38,19.42,7.7,29.95-1.26,8.4-10.7,13.77-18.47,10.1-.81,2.53-2.38,4.84-4.59,6.51-1.54,1.15-3.35,1.93-5.24,2.32-4.5,10.56-19.08,11.28-26.29,2.94Z"/>
    <path d="M311.61,564.07c-7.73-2.42-14.25-6.93-20.27-12.1-4.77-1.34-8.68-4.18-10.13-9.47-9.21-10.68-29.11-26.17-16.39-41.02-.84-1.79-1.42-3.69-1.66-5.64-.11-.88-.15-1.75-.13-2.61-8.13-5.84-11.52-16.38-7.69-25.69-.1-.48-.18-.98-.24-1.48-.34-2.71-.15-5.94,.84-8.61-1.52-3.75-1.47-7.7-.88-11.63-1.76-3.84-2.17-8.22-.93-12.51,.24-.82,.53-1.62,.87-2.4-5.28-4.05-9.09-9.64-9.16-16.77-.02-3.26,.71-6.54,2.07-9.53-1.22-3.51-1.52-7.3-.91-10.96-3.38-3.6-5.36-8.29-5.36-13.29-1.56-2.67-2.53-5.69-2.61-8.74-16.99-5.23-17.58-25.7-2.81-34.18-3.04-7.29-1.49-15.99,4.33-21.45-2.45-3.21-3.9-7.23-3.84-11.1,.08-6.32,3.2-11.49,7.43-15.83-.12-.76-.21-1.52-.22-2.31,0-.45,0-.89,.03-1.33-7.98-9.51-.29-22.14,8.64-27.81,3.94-24.32,113.14-58.5,132.63-44.21,13.4-.23,26.63,.85,40.01,1.61,18.31-2.59,36.94-5.13,55.44-3.45,12.24,1.66,25.97-3.46,37.03,3.93,14.66,9.24,1.48,31.17-13.67,22.59-2.55,2.93-6.13,4.19-9.92,4.72-15.3,1.42-30.85,.34-46.2-.14-2.08,9.92-12.72,10.62-21.16,10.45,1.3,2.56,1.85,5.49,1.39,8.62-1.56,10.45-12.96,13.97-21.65,17.1,5.09,8.48-.5,20.42-10.6,20.77,.14,.28,.27,.56,.38,.85,1.78,4.35,.97,9.28-1.69,12.9,.63,2.57,.74,5.16-.03,7.81-.18,.6-.39,1.2-.63,1.78,6.73,9.51,8.36,22.83,2.99,33.26,1.29,10.46-9.87,19.18-19.68,15.04-4.58,5.06-11.4,4.62-17.2,2.49-1.78,.63-3.55,1.15-5.24,1.55-4.27,1.04-8.73,1.67-13.17,1.87,.79,11.15-9.58,17.6-12.63,26.81,15.67,7.77,20.84,27.43,9.08,40.92,3.69,3.24,6.66,7.27,8.52,11.87,.37,.89,.66,1.79,.91,2.69,7.43,2.45,14.44,6.05,19.66,11.8,4.12,.61,7.98,.63,12.11,.22,22.71-.64,30.74,23.33,25.3,42.17-1.38,8.93-7.15,16.07-6.98,25.16,1.97,4.48,3.73,9.4,2,14.3,9.34,32.5-71.98,15.51-87.96,11Zm42.75-18.77c.73,.09,1.47,.18,2.2,.26-.17-.92-.27-1.86-.3-2.81-.14-.11-.29-.21-.43-.32-.41,1-.91,1.97-1.48,2.87Z"/>
    <path d="M274.08,590.6c-18.28-11.62-30.15-32.1-34.37-53.12-3.22-19.59-5.39-39.55-7.66-59.38-5-26.04-9.08-50.55-6.86-76.83,1.96-13.55-8.46-34.71,6.65-42.68,.19-9.64,4.4-19.73,15.72-18.52,7.22,.94,12.21,7.65,11.41,14.79-2.39,15.97-4.07,31.86-2.19,47.94,.76,5.51,1.92,10.97,1.89,16.56,1.38,7.91,2.65,18.61-6.1,22.59,3.75,21.66,7.26,43.39,9.58,65.25,1.71,7.57,1.43,17.04,3.23,24.31,2.36,13.08,9,24.83,18.57,33.86,6.99,5.9,17.73,3.64,26.06,6.04,17.83,2.61,35.97,.55,53.56-2.67,9.02-.89,19.15-7.37,27,.07,7.96,7.57,3.04,20.9-7.37,23.14-4.39,1.13-9.17,1.23-13.56,2.44-31.26,6.13-65.38,6.92-95.57-3.79Z"/>
  </g>
</svg>