<?xml version="1.0" encoding="UTF-8"?>
<svg xmlns="http://www.w3.org/2000/svg" viewBox="0 0 1536 445.86">
  <defs>
    <style>
      .cls-1 {
        fill: #f3c25f;
      }
    </style>
  </defs>
  <g id="Bildebene_Image" data-name="Bildebene Image">
    <path id="Pfad_90" data-name="Pfad 90" class="cls-1" d="M139.04,329.77C-97.84,196.98,35.78,78.94,266.58,108.45c230.8,29.51,255.09,83.61,479.81,44.26C971.11,113.36,983.26-14.51,1153.33,10.08c170.06,24.59,400.86-44.26,370.49,142.63-30.37,186.89-85.03,157.39-267.24,177.05s-546.63-49.18-637.73,44.26c-91.1,93.44-242.94,88.52-479.81-44.26Z"/>
  </g>
  <g id="Vektorebene">
    <path d="M1480.62,283.97s.04-.07,.05-.1c.11-.06,.24-.09,.38-.09,.09,0,.18,.01,.27,.03,0,.05,0,.1,0,.16,0,.03,0,.06,0,.09-.07,.06-.14,.12-.21,.19-.02,.02-.05,.05-.07,.07-.13-.13-.27-.25-.43-.34Z"/>
    <path d="M1463.35,143.61c0-.24,0-.49,0-.73,.16,.18,.26,.43,.26,.68,0,.26-.11,.49-.28,.67,0-.21,0-.41,.01-.62Z"/>
    <path d="M1461.62,143.52c0-.24,.09-.45,.23-.62-.04,.26-.07,.53-.11,.79-.01,.08-.03,.15-.04,.23-.05-.13-.08-.26-.08-.41Z"/>
    <path d="M1474.59,331.14l-.11-.02s-.04-.02-.06-.03c.19-.28,.51-.45,.86-.45,.01,0,.03,0,.04,0-.07,.08-.13,.15-.21,.23-.07,.07-.15,.13-.23,.19-.04,.02-.07,.04-.11,.05-.02,0-.04,.01-.06,.02-.03,0-.06,0-.09,0h-.03Z"/>
  </g>
</svg>