<?xml version="1.0" encoding="UTF-8"?>
<svg xmlns="http://www.w3.org/2000/svg" viewBox="0 0 1536 384.23">
  <defs>
    <style>
      .cls-1 {
        fill: #f3c25f;
      }
    </style>
  </defs>
  <g id="Bildebene_Image" data-name="Bildebene Image">
    <path id="Pfad_89" data-name="Pfad 89" class="cls-1" d="M34.68,191.72S685.1-84.07,753.24,38.92c2.39,2.78,232.43,109.79,245.72,115.53,99.28,42.95,424.15-116.9,476.97-81.99,167.25,70.81-84.72,224.87-94.98,231.07-51.72,31.23-338.63,156.53-745.41-111.81C565.33,102.28,184.58,415.53,51.19,370.62c-32.71-11.03-72.26-119.27-16.51-178.9Z"/>
  </g>
  <g id="Vektorebene">
    <path d="M1480.62,283.97s.04-.07,.05-.1c.11-.06,.24-.09,.38-.09,.09,0,.18,.01,.27,.03,0,.05,0,.1,0,.16,0,.03,0,.06,0,.09-.07,.06-.14,.12-.21,.19-.02,.02-.05,.05-.07,.07-.13-.13-.27-.25-.43-.34Z"/>
    <path d="M1463.35,143.61c0-.24,0-.49,0-.73,.16,.18,.26,.43,.26,.68,0,.26-.11,.49-.28,.67,0-.21,0-.41,.01-.62Z"/>
    <path d="M1461.62,143.52c0-.24,.09-.45,.23-.62-.04,.26-.07,.53-.11,.79-.01,.08-.03,.15-.04,.23-.05-.13-.08-.26-.08-.41Z"/>
    <path d="M1474.59,331.14l-.11-.02s-.04-.02-.06-.03c.19-.28,.51-.45,.86-.45,.01,0,.03,0,.04,0-.07,.08-.13,.15-.21,.23-.07,.07-.15,.13-.23,.19-.04,.02-.07,.04-.11,.05-.02,0-.04,.01-.06,.02-.03,0-.06,0-.09,0h-.03Z"/>
  </g>
</svg>