<?xml version="1.0" encoding="UTF-8"?>
<svg id="Vektorebene-3" data-name="Vektorebene" xmlns="http://www.w3.org/2000/svg" viewBox="0 0 694.09 850.06">
  <defs>
    <style>
      .cls-1 {
        fill: #fff;
      }

      .cls-2 {
        fill: #f3c25f;
      }
    </style>
  </defs>
  <path class="cls-1" d="M100.36,404.02c-.33-5.37,3.85-9.92,5.64-14.72,5.44-11.51,10.45-23.93,15.15-35.43,28.51-72.93,66.55-139.81,107.99-203.03,2.58-4.1,7.5,.03,4.9,4.4-28.68,44.21-56.35,89.89-79.79,138.36-14.43,30.29-26.55,62.08-39.92,92.78,25.36-30.18,45.51-66.54,64.42-102.88,14.25-29.93,26.63-61.13,41.92-90.34,2.47-4.2,7.49,.11,4.9,4.38-15.02,28.87-27.26,59.61-41.28,89.16-15.71,30.75-32.59,60.3-52.07,87.66-7.25,10.29-15.38,19.43-23.53,28.6-2.23,3.22-6.96,6.26-8.32,1.05Z"/>
  <path class="cls-1" d="M128.25,396.66c-4.71-4.27,3.76-12.22,5.47-17.03,8.17-14.81,15.94-30.7,24.73-44.72,11.18-26.55,22.58-53.72,33.44-80.26,18.28-50.91,37.43-102.93,68.92-144.49,2.59-4.09,7.53,.07,4.9,4.4-28.71,38.55-47.98,84.96-64.01,132.28-11.66,29.95-24.49,59.24-36.72,88.88-4.11,9.89-29.31,64.38-36.73,60.94Z"/>
  <path class="cls-2" d="M212.65,826.82c-27.12-15.89-45.99-50.35-48.78-88.33-108.53,27.6-150.19-119.12-99.22-226.9-118.16-66.55-7.48-265.98,56.11-353.76C171.39,89.96,217.58,.53,294.45,58.9c54.23-53.08,140.46-82.7,176.07,.59,97.36-47.72,210.21,34.72,154.79,171.34,121.86,71.76,20.76,273.31-46.89,370.73-51.56,68.05-109.52,185-189.61,127.22-36.53,73.29-112.02,138.27-176.17,98.05Z"/>
</svg>