<?xml version="1.0" encoding="UTF-8"?>
<svg xmlns="http://www.w3.org/2000/svg" viewBox="0 0 1536 834">
  <defs>
    <style>
      .cls-1 {
        fill: #fff;
      }

      .cls-2 {
        fill: #f3c25f;
      }
    </style>
  </defs>
  <g id="Vektorebene-3" data-name="Vektorebene">
    <path class="cls-2" d="M610.45,739c-63.23,8.29-121.67-53.65-110.42-116.77-46.26-6.6-82.85-42.85-89-90.28-3.59-27.63,5.29-54.42,19.72-77.61-87.32-58.08-42.11-153.65,11.37-218.29,36.86-44.78,75.54-89.32,126.77-118.11,59.52-47.81,107.34-106.24,186.62-51.52,47.75-41.56,127.61-36.51,160.81,20.58,63.01-36.22,150.43,8.68,153.81,82.27,62.14,11.71,99.16,89.03,67.7,144.67,27.87,45.91,13.07,104.44-27.03,137.92,21.42,44.06,3.54,94.63-30.32,126.8-30.5,47.79-72.64,85.72-111.93,126.1-65.25,59.17-116.48,146.18-213.22,75.69-48.88,30.69-119.26,10.18-144.87-41.45Z"/>
  </g>
  <g id="Vektorebene-4" data-name="Vektorebene">
    <path d="M625.9,564.94c-30.99-15.22-34.8-54.26-38.24-84.89-5.44-36.43-2.19-72.99,.09-109.4,2.24-35.15,3.09-70.59,13.91-104.29,4.98-16.61,16.5-29.19,29.27-40.14-.5-6.59,14.57-6.4,19.03-8.41,16.97-5.64,34.46-9.86,52.37-11.06,48.5-2.91,97.35-6.27,145.73-.02,35.7,3.04,78.69,6.78,102.06,37.45,6.49,12.57,5.82,27.6,7.49,41.26,1.56,13.68,3.7,27.33,4.87,41.04,1.84,32.47-2.56,65.14-3.35,97.58-.94,40.75,1.5,84.3-18.08,121.22-29.08,39.11-84.62,29.75-127.51,33.77-62.52,.89-127.84,8.05-187.63-14.1Zm12.03-3.12c55.62,15.84,113.8,11.49,170.9,10.05,40.23-3.76,92.6,4.89,123.18-26.4,20.14-30.69,18.03-70.61,19.85-105.78-.7-35.3,4.58-70.7,3.66-105.88-.39-13.4-2.63-26.33-4.16-39.59-2.32-14.61-1.48-29.7-6.22-43.69-15.19-24.79-50.82-31.82-77.64-34.65-44.48-5.63-89.01-6.58-133.67-3.85-17.7,1.64-35.81,1.21-53.12,5.01-14.63,2.81-27.8,7.7-42.1,11.12-6.41,8.5-16.67,14.97-22.57,24.09-18.87,36-17.88,78.03-20.93,117.54-2.95,39.63-5.17,79.39,.69,118.69,3.52,28.56,10.14,65.45,42.6,73.46,0,0-.46-.13-.46-.13Z"/>
    <path d="M721.73,451.68c-10.15-12.56-17.07-27.84-18.12-44.04-3.29-21.28,3.67-45.4,17.56-61.85,12.28-10.95,28.32-19.69,44.92-20.88,3.56-1.11,8.7-.12,13.34,.4-1.07-.04-2.15-.04-3.25,.03-1.84,.12-3.6,.4-5.41,.7-.14,.01-.28,.03-.42,.03-.1,0-.19,0-.29,0,.1,0,.2,0,.29,0,.08,0,.15,0,.23,0,0,0-.01,0-.02,0-2.09,.08-4.13,.26-6.23,.64-1.87,.32-3.63,.88-5.43,1.42-1.25,.31-2.49,.57-3.69,.96-1.47,.49-2.8,1.2-4.17,1.85-1.01,.39-2.04,.72-3.01,1.21-1.36,.72-2.57,1.58-3.8,2.48-.04,.02-.07,.04-.11,.06,.01,0,.02-.02,.04-.03-.04,.03-.08,.05-.12,.07-.06,.03-.12,.06-.18,.09,.06-.02,.12-.05,.18-.09,.03-.01,.05-.03,.08-.05-.02,.02-.04,.03-.05,.04-3.58,1.98-6.8,4.38-10.24,6.6,.27-.15,.53-.33,.79-.49-2.07,1.37-3.63,2.86-5.35,4.75,.32-.36,.63-.7,.95-1.06-1.15,1.28-2.42,2.49-3.64,3.7-1.06,1.09-2.15,2.14-3.12,3.31-.81,.98-1.47,2.09-2.21,3.14-2.54,3.68-4.96,7.51-7.15,11.4-1.5,2.55-3.02,5.04-4.12,7.83-.76,1.92-1.38,3.86-1.97,5.82-.07,.22-.14,.42-.19,.64-.05,.16-.11,.35-.16,.51,.05-.12,.09-.27,.13-.4-.41,1.49-.63,2.97-.84,4.49-.26,1.48-.6,2.94-.98,4.38,.14-.48,.26-.96,.41-1.44-.87,3.09-1.2,5.9-1.47,9.1l.14-1.49c-.06,.82-.14,1.67-.17,2.53-.01,.03-.01,.08-.03,.11-.47,2.98-.92,5.94-.54,8.96,.2,1.57,.33,3.13,.49,4.7,.15,1.78,.27,3.58,.94,5.25,.37,.92,.8,1.79,1.22,2.69,.52,1.34,1,2.69,1.57,4.01,.47,1.07,1.06,2.06,1.66,3.06,.98,1.67,1.99,3.32,2.98,4.96,.68,1.26,1.24,2.61,2.1,3.72,.82,1.07,1.69,1.98,2.58,2.98,1.31,1.44,2.58,2.83,3.93,4.2,0,0-.02-.02-.03-.02,.99,1.02,1.92,2.12,3.05,2.99,1.01,.78,2.04,1.51,3.03,2.26,3.52,2.68,7.27,5.14,11.09,7.35h-.03s.06,.03,.1,.05c-.02,0-.03-.03-.06-.05,2.91,1.68,5.85,2.87,8.97,4.11-.48-.18-.93-.38-1.39-.55,.88,.35,1.74,.74,2.62,1.16,.7,.34,1.41,.66,2.12,.97l.05,.02c-.32-.12-.64-.25-.95-.38,.31,.13,.63,.27,.95,.38h.02s-.02,0-.02,0h.02s.01,.01,.02,.01l.4,.17-.31-.13c.61,.26,1.21,.5,1.83,.74-.09-.02-.17-.06-.25-.09-.06-.02-.12-.05-.17-.07,.06,.02,.12,.05,.17,.07,.29,.12,.59,.24,.88,.35,.11,.04,.21,.08,.32,.12,.26,.1,.52,.2,.78,.3,.95,.41,1.91,.81,2.86,1.22,18.84,5.03,39.25,4.23,57.26-2.77,13.13-6.9,18.08-20.93,24.26-33.42,2.01-4.48,3.43-9.13,4.32-13.86,.51-1.36,.99-2.72,1.44-4.1,.06-.2,.12-.38,.18-.56-.05,.15-.1,.3-.15,.44,.01-.04,.03-.09,.04-.14-.05,.16-.09,.31-.15,.45,1.09-3.37,1.79-6.8,2.13-10.35,.24-2.39,.42-4.79,.12-7.19-.14-1.26-.36-2.5-.5-3.76-.19-2.51-.44-4.97-.97-7.44-.21-1-.47-1.99-.7-3-.15-.85-.3-1.72-.47-2.57-.37-1.79-.86-3.46-1.47-5.2,.01,.07,.02,.13,.03,.19-.02-.07-.03-.14-.04-.22v.02c.11,.29,.22,.58,.31,.85-.21-.58-.38-1.15-.5-1.74,.06,.29,.14,.59,.2,.89v-.02s-.02-.02-.02-.03c-.64-2.76-1.56-5.24-2.9-7.75,.05,.09,.1,.18,.15,.27,.07,.14,.15,.27,.22,.41-.07-.13-.14-.27-.22-.41-.1-.19-.2-.37-.31-.56-.03-.06-.06-.11-.09-.16,.02,.03,.03,.06,.06,.08-.09-.16-.18-.3-.27-.47-.18-.39-.38-.76-.59-1.14,.09,.18,.17,.36,.27,.53-1.13-2.05-2.36-3.89-3.74-5.84,.29,.39,.57,.8,.85,1.21-.73-1.05-1.36-2.19-2.14-3.2-.75-1-1.62-1.86-2.49-2.77-.1-.15-.22-.3-.34-.46,.07,.09,.13,.18,.19,.27-.98-1.29-2.01-2.44-3.12-3.6-.22-.24-.44-.48-.66-.71h0s0,0,0,0c0,0,0,0,0,0,0,0,0,0,0,0,0,0,0,0,0,0-.19-.2-.38-.41-.58-.62,.17,.19,.34,.37,.51,.56-.02-.02-.04-.04-.07-.07,0,0-.01-.01-.02-.02-.04-.05-.09-.09-.13-.14,.05,.05,.09,.1,.13,.14-.78-.8-1.51-1.48-2.38-2.23,.03,.02,.05,.04,.08,.06,.02,.02,.04,.04,.06,.05-.02-.02-.04-.04-.06-.05-.14-.13-.29-.25-.44-.37,.01,.01,.03,.02,.04,.04-2.2-1.8-4.43-3.47-6.77-5.1,.02,.01,.03,.02,.05,.03-.19-.14-.4-.27-.59-.41,.05,.04,.1,.07,.15,.11,0,0-.02-.01-.02-.02,0,0,.02,.01,.02,.02,.02,.02,.05,.03,.07,.05,.03,.02,.06,.05,.09,.07-.19-.14-.37-.27-.57-.4-1-.7-1.92-1.25-3.07-1.93l1.24,.72c-3.94-2.32-7.96-4.55-12.17-6.37l1.31,.56c-1.46-.64-2.91-1.24-4.39-1.83,.04,0,.08,.02,.12,.03,.03,.01,.05,.02,.08,.03-.02,0-.05-.02-.08-.03-.14-.05-.29-.1-.43-.17-.26-.11-.53-.21-.79-.32l.31,.13c-2.32-.89-4.67-1.66-7.11-2.27-.09-.02-.18-.04-.27-.06,7.39,.62,14.66,1.93,21.52,5.17,25.26,15.41,40.18,46.99,38.14,76.28-1.11,12.33-5.81,23.83-11.75,34.55-3.81,9.36-9.95,17.67-18.48,23.27-21.21,11.3-48.68,11.4-71.11,3.44-9.88-5.16-20.84-9.14-28.9-17.09Z"/>
    <path d="M754.18,462.18c-.11-.04-.21-.08-.32-.12,.11,.04,.21,.08,.32,.12Z"/>
    <path d="M721.83,442.79l.04,.05s-.03-.03-.04-.05Z"/>
    <path d="M845.13,409.42s-.02,.08-.03,.12c-.04,.09-.06,.2-.1,.29,.05-.13,.09-.27,.13-.41Z"/>
    <path d="M744.26,334.61c.13-.08,.27-.15,.41-.21-.14,.08-.28,.15-.42,.22,0,0,0,0,0,0Z"/>
    <path d="M842.97,369.73c.06,.15,.12,.29,.16,.43-.05-.14-.1-.29-.16-.43Z"/>
    <path d="M839.91,361.82s.03,.05,.04,.08c-.01-.03-.03-.05-.04-.08Z"/>
    <path d="M770.73,326.07c.25-.02,.48-.02,.71-.03-.25,.02-.5,.01-.75,.03t.04,0Z"/>
    <path d="M828.15,346.04s.03,.03,.05,.05c-.04-.04-.07-.07-.11-.11,0,0,0,0,0,0,.07,.07,.14,.15,.21,.22-.05-.05-.1-.1-.15-.16Z"/>
    <path d="M827.86,345.73s.04,.04,.07,.07c.05,.05,.1,.1,.14,.15,0,0,0,0,0,0-.07-.07-.14-.15-.21-.22Z"/>
    <path d="M817.98,337.84s0,0,0,0c.02,.01,.03,.02,.05,.03-.02-.01-.03-.02-.05-.03Z"/>
    <path d="M772.48,442.51s-.09-.03-.13-.05c.04,.01,.09,.03,.13,.05Z"/>
    <path d="M774.01,442.93c-.24-.06-.48-.12-.7-.2,.22,.05,.46,.13,.7,.2Z"/>
    <path d="M749.69,426.48c-.09-.04-.17-.09-.25-.15-1.39-1.05-2.75-2.12-4.16-3.16l-.4-.36c-.31-.3-.61-.61-.91-.9-.01-.02-.04-.04-.05-.06,.08,.1,.19,.18,.29,.29l-.43-.43s-.08-.1-.14-.14c-.07-.07-.14-.14-.21-.23-.49-.68-.88-1.43-1.45-2.06-.43-.49-.87-.95-1.32-1.41-.18-.24-.39-.49-.59-.75-1.45-1.73-3.31-2.96-5.34-3.62-.06-.52-.12-1.05-.16-1.58,0,0,0,0,0,0,0,.08,.01,.15,.03,.22,0,.08,.02,.17,.03,.25,0-.09-.02-.17-.03-.25,0-.07-.02-.15-.03-.22,0,0,0-.01,0-.02,0-.01,0-.02,0-.04-.03-.23-.05-.45-.08-.68-.01-.09-.02-.18-.03-.27,.01,.09,.02,.18,.03,.27,.03,.23,.05,.45,.08,.68,0,0,0,.01,0,.02-.21-1.58-.51-3.13-.67-4.7,0-.04,0-.07-.01-.11,0,0,0,0,0-.01v-.03s0,0,0,0c0,0,0,0,0,0,0-.01,0-.03,0-.04,0-.01,0-.02,0-.04,0-.02,0-.04,0-.07,0-.02,0-.03,0-.05-.02-.2-.03-.4-.05-.62,0,.13,.03,.26,.04,.39-.13-1.67-.09-3.36-.14-5.03,.02,.25,.02,.48,.04,.74-.01-.5-.02-1.02,0-1.52,0,.02,0,.04,0,.06,0-.14,.02-.3,.03-.46-.04,.33-.05,.64-.08,.95,0-.01,0-.02,0-.02,.08-1.3,.08-2.56,.04-3.86,.02,.11,.02,.19,.02,.3,0-.1,0-.19-.02-.3,0-.02,0-.04,0-.06,0,0,0,0,0,0,0,.02,0,.04,0,.06,0-.02,.01-.03,0-.06,0,0,0-.01,0-.02,.17-1.18,.47-2.4,.66-3.57-.05,.35-.11,.74-.16,1.11,.24-1.42,.58-2.85,.96-4.23-.05,.2-.12,.39-.18,.59,.37-1.24,.68-2.5,1.08-3.71,1.45-3.5,3.28-6.83,4.97-10.21,.21-.4,.44-.8,.69-1.19,.42-.5,.82-.99,1.22-1.5,.04-.05,.08-.1,.13-.15,.21-.25,.41-.5,.62-.75,0,0,.01,0,.01-.02,0,0,0,.01-.01,.02,0,0,0,0-.01,0,.02-.02,.03-.04,.05-.06,.02-.02,.04-.05,.06-.07-.02,.02-.04,.05-.06,.07-.02,.02-.04,.04-.06,.06-.03,.04-.06,.07-.09,.11-.02,.02-.03,.04-.05,.06,0,0,0,0-.01,.01,0,0-.01,.01-.02,.02,.55-.65,1.08-1.31,1.63-1.98,.86-.89,1.75-1.77,2.56-2.72,.53-.62,.99-1.27,1.51-1.89,.41-.38,.84-.76,1.27-1.13,.93-.74,1.85-1.48,2.78-2.22-.02,.02-.04,.03-.06,.04,.45-.35,.91-.66,1.39-.94,1.16-.68,2.31-1.36,3.47-2.05,.21-.11,.43-.23,.66-.34,1.17-.47,2.34-.94,3.49-1.42-.13,.07-.27,.11-.41,.18,.25-.1,.5-.2,.76-.29,1.98-.49,4.03-.88,6.05-1.23,.5-.07,1.01-.13,1.52-.18-4.71,1.79-9.42,3.38-13.59,6.33-5.96,1.89-10.23,7.06-12.35,12.63-6.16,13.39-8.42,30.9-.03,43.47,3.38,2.19,6.24,4.98,9.08,7.77,0,0-.01,0-.02,0l-.51-.22-1.03-.44c-.4-.16-.79-.31-1.18-.48-.28-.12-.57-.25-.84-.38Z"/>
    <path d="M733.71,412.57s-.02-.09-.03-.13c-.01-.11-.03-.21-.04-.32,.02,.16,.05,.32,.07,.48-.02,0-.01-.02-.01-.02Z"/>
    <path d="M734.55,411.88s0,.01,0,.02c0,0,0,.01,0,.02,0-.01,0-.02,0-.04Z"/>
    <path d="M733.95,408.03c0-.12-.02-.24-.03-.36,0,0,0,0,0,0,0,0,0,0,0,0-.01-.14-.03-.27-.05-.41,0-.06,0-.1-.01-.17,0,0,0-.01,0-.02,0,.06,0,.12,.02,.18,.03,.33,.06,.68,.09,1.02,0-.08-.02-.15-.02-.24Z"/>
    <path d="M733.87,407.07s0,0,0,0c0,0,0,0,0,0,0,0,0,0,0,0,0,0,0,0,0,0Z"/>
    <path d="M733.87,407.06s0,0,0,0c0,0,0,0,0,0Z"/>
    <path d="M733.87,407.05s0,0,0,0c0,0,0,0,0,0,0,0,0,0,0,0Z"/>
    <path d="M733.87,407.05h0s0,0,0,0h0Z"/>
    <path d="M733.86,407.05s0,0,0,0h0s0,0,0,0Z"/>
    <path d="M733.86,407.03h0s0,0,0,.01c0,0,0-.01,0-.01Z"/>
    <path d="M733.86,407.03s0,0,0,0c0,0,0,0,0,0,0,0,0,0,0,0Z"/>
    <path d="M733.86,407.01s0-.01,0-.02c0,.01,0,.02,0,.03,0,0,0,0,0-.01Z"/>
    <path d="M733.86,406.98h0s0,.01,0,.01c0,0,0,0,0-.01Z"/>
    <path d="M733.85,406.96c0-.06-.02-.11-.01-.17,0,.01,0,.03,0,.04,0,.02,0,.03,0,.05,0,.02,0,.04,0,.07,0,.01,0,.02,0,.03v-.02Z"/>
    <path d="M733.67,401.48c0,.11-.02,.23-.03,.36,0-.12,.01-.24,.03-.36Z"/>
    <path d="M733.67,396.27c.03,.32,.04,.63,.05,.95,0,0,0,.01,0,.02-.02-.32-.02-.64-.04-.97Z"/>
    <path d="M741.82,376.05s.05-.05,.07-.08c-.03,.04-.06,.08-.09,.12v-.03Z"/>
    <path d="M742.13,375.67s-.06,.08-.09,.11c.03-.04,.06-.08,.09-.11Z"/>
    <path d="M743.03,374.57s-.04,.04-.05,.08c-.03,.03-.04,.04-.07,.07,.04-.04,.09-.11,.13-.15Z"/>
    <path d="M743.19,374.39s-.07,.07-.09,.12c-.02,.01-.03,.03-.05,.04,.04-.06,.08-.11,.14-.17Z"/>
    <path d="M743.24,374.31s.03-.03,.04-.04c.09-.1,.17-.2,.26-.3,0,0,0,0,.01-.01,.02-.02,.03-.04,.05-.05-.12,.15-.25,.3-.38,.44,0,0,.01-.02,.01-.03Z"/>
    <path d="M743.7,373.78s0,0,0,0c-.02,.03-.04,.05-.07,.08,.02-.02,.03-.04,.06-.07Z"/>
    <path d="M753.85,363.56s-.02,.01-.03,.03c-.07,.05-.15,.08-.22,.12,.08-.05,.17-.11,.25-.15Z"/>
    <path d="M753.88,363.55l.66-.4c-.23,.15-.46,.3-.7,.42,0-.02,.02-.01,.03-.03Z"/>
    <path d="M839.62,345.04c-17.57-13.62-4.88-36.04,15.32-33.31,10.39,2.51,20.06,12.37,21.1,23.14-.45,8.55-9.87,15.6-18.06,15.43-3.02,1.76-6.47,1.2-9.78-.22-3.14-1.34-6.16-3.45-8.57-5.05Zm17.44-31.76c-4.27-.58-8.62,.28-12.27,2.58-5.34,3.39-9.16,10.36-8.09,16.74-.38,4.17,1.13,8.77,4.2,11.62,1.02,.95,2.07,1.71,3.22,2.32,1.13,1.45,2.61,2.64,4.3,3.36,1.06,.45,2.21,.72,3.4,.79,2.96,.13,5.69-.51,8.4-1.56-.09,.04-.19,.08-.29,.13,.11-.04,.22-.1,.32-.15,.04-.02,.09-.03,.13-.05l.85-.34c-.21,.07-.41,.15-.61,.24,2.72-1.2,5.35-2.76,7.12-5.21,.22-.32,.43-.62,.63-.95,1.32-1.25,2.45-2.75,3.37-4.46,2.38-4.47,1.82-9.64-.54-13.92,.03,.05,.07,.09,.1,.14,.09,.15,.17,.29,.26,.42-.09-.15-.17-.29-.26-.42-.06-.1-.12-.21-.18-.31-.01-.02-.03-.04-.04-.07,.01,.02,.03,.04,.04,.07,.03,.06,.07,.12,.09,.17-.15-.23-.31-.48-.48-.7-.66-1.56-1.59-3.05-2.83-4.38-1.92-2.08-4.22-3.84-6.82-4.94-1.27-.54-2.61-.93-4-1.11Z"/>
    <path d="M839.59,345.01s.02,.01,.03,.02c.11,.09,.23,.17,.34,.26l-.37-.28Z"/>
    <path d="M850.01,348.37c.25,.04,.51,.07,.78,.11-.47-.06-.93-.09-1.4-.14,.2,0,.42,.03,.62,.04Z"/>
    <path d="M870.6,338.49c.07-.16,.12-.32,.18-.48-.17,.44-.32,.89-.49,1.34l.3-.86Z"/>
    <path d="M687.88,489.27c-.18-.1-.35-.19-.51-.3-.52-.39-1.03-.77-1.52-1.18-.26-.26-.52-.51-.76-.78-.86-1.13-1.62-2.3-2.61-3.32-.86-.88-1.8-1.72-2.6-2.65,.3,.36,.6,.73,.9,1.08-1.04-1.23-2.03-2.31-3.12-3.37v-.02s.1,.09,.15,.15c-.05-.06-.12-.11-.17-.18l-.02-.05c-.53-1.65-1.08-3.27-1.8-4.83-.68-1.49-1.53-2.75-2.45-3.97-.11-.75-.22-1.47-.4-2.19-.48-1.83-1.25-3.46-2.06-5.17-.02-.04-.03-.06-.04-.09l-.03-.06s0-.02-.01-.03c0,0,0,.02,.01,.03-.13-.26-.26-.52-.4-.77-4.83-25.67-5.2-52.01-3.75-77.98,.65-10.07,1.76-20.07,2.86-30.1,1.56-2.41,1.88-5.18,1.87-8.11v-.02c0-.79-.02-1.58-.05-2.38,.11-.35,.24-.7,.36-1.04,0,.06-.02,.09-.03,.13,.04-.09,.08-.19,.1-.29l.03-.07v-.02s.02-.08,.04-.13c.04-.09,.06-.18,.1-.29l.04-.09s.02-.05,.01-.08v-.03s.04-.05,.03-.09c-.04,.15-.1,.29-.14,.42,.62-2.04,1.04-4.09,1.32-6.2-.01,.18-.04,.38-.05,.56,.04-.38,.08-.71,.1-1.05,.02-.05,.03-.11,.02-.15v-.18s0,.02,0,.02c.05-.56,.09-1.12,.11-1.71,.01,.02,0,.04,.02,.05v.03s-.01,0,0-.02v-.03s0-.02,.01-.04c0,0-.01-.02,0-.04,0-.12,.02-.24,.01-.37,0-.04,0-.1,.02-.14,.07-.73,.14-1.44,.27-2.17v-.03s.01-.04,.01-.04c.02-.05,.02-.09,.04-.15v.02s0-.08,.02-.11c-.01-.02,0-.04,0-.06v-.02s.01-.02,.02-.03c.02-.09,.03-.17,.05-.27v-.03c.07-.27,.14-.53,.19-.79-.02,.09-.05,.21-.07,.32,.6-2.71,1.11-5.36,1.45-8.13-.01,.18-.05,.35-.06,.53l.2-1.34c.96-2,2-3.97,2.78-6.09,.48-1.26,.94-2.49,1.55-3.67,.23-.4,.48-.79,.76-1.14,.13-.15,.24-.31,.36-.46,.14-.19,.28-.37,.42-.54,.28-.31,.56-.63,.83-.93,1.44-1.34,2.94-2.58,4.24-4.05,1.15-1.3,2.27-2.66,3.48-3.92,.2-.18,.4-.36,.6-.53,.82-.66,1.68-1.24,2.56-1.79,1.55-.88,3.2-1.65,4.83-2.39,.85-.34,1.71-.67,2.59-.94,0-.02,.03-.03,.05-.02h.02s.05-.03,.09-.03c0,0,.02,0,.02-.01,0,0,.02-.01,.04,0,.07-.03,.16-.04,.23-.07,0-.02,.02-.01,.05-.02,.07-.01,.14-.04,.23-.07,.02-.01,.05-.02,.09-.02h-.02s-.12,.04-.17,.06c.05-.02,.12-.03,.17-.05t.04,0s.1-.04,.14-.04c.07-.01,.12-.03,.18-.05,.05-.02,.09-.02,.14-.04-.05,.02-.09,.02-.14,.04l.2-.04s-.04,0-.06,0c.04,0,.07-.01,.09-.02t.02-.01h.02c1.25-.32,2.47-.67,3.7-1.07l-.17,.07c.23-.07,.49-.14,.73-.22-.12,.03-.21,.06-.33,.09,.26-.08,.51-.18,.77-.25-.07,.03-.14,.04-.22,.07,2.22-.7,4.58-1.37,6.88-1.77,.73-.08,1.44-.13,2.16-.13,2.32,.06,4.65,.13,6.96,.22,1.05,.68,2.23,1.2,3.45,1.53,2.64,.73,5.34,1.16,8.04,1.49,2.6,.33,5.17,.31,7.78,.27-.08,0-.19,0-.27,0,.18,.01,.37,.01,.54,0,2.73,.03,5.46,.35,8.19,.46,2.47,.11,4.89-.06,7.33-.13,2.54,.03,5.17,.31,7.68,.76,2.13,.37,4.29,.57,6.46,.53,1.04-.03,2.07-.11,3.11-.1,2.13,.17,4.3,.45,6.45,.73,2.36,.31,4.7,.52,7.08,.65,.02,0,.04,0,.04,0,.16,0,.34,.02,.5,.03,.08,.01,.16,0,.24,.02,1.75,.06,3.49,.13,5.25,.22,1.69,.14,3.38,.43,5.07,.64,2.09,.23,4.16,.21,6.25,.29,2.77,.23,5.5,.68,8.27,.81,2.48,.13,4.98,.02,7.48,.12,3.85,.26,7.64,.93,11.5,1.22l.54,.04c3.57,.38,7.01-.99,9.33-3.45,3.77,.48,7.5,1.1,11.2,1.94,5.79,1.51,11.33,3.5,16.94,5.63-.02,0-.03-.01-.05-.01,2.62,.97,5.23,1.9,7.88,2.79l.12,.05c.43,.14,.88,.31,1.33,.46-.11-.04-.22-.07-.32-.11-.22-.08-.44-.16-.67-.23,.34,.12,.7,.26,1.04,.4,.56,.67,1.12,1.34,1.68,2.01,0,0,.01,.01,.02,.02l.39,.46s.02,.02,.03,.03c.03,.03,.06,.07,.08,.1,0,0,.01,.02,.02,.03,0,0,0,0,0-.01,.01,.01,.02,.03,.04,.04,.04,.06,.09,.11,.14,.17,.01,.02,.03,.03,.04,.05,0,0,0-.01-.01-.02,.01,.02,.03,.04,.04,.05,.61,1.6,1.25,3.17,1.9,4.75-2.09-3.58-5.5-5.89-9.33-7.53-4.2-1.79-8.93-2.76-12.94-3.7-28.08-4.02-56.54-3.13-84.7-5.26-18.33-1.8-36.67-2.59-54.91-2.02-9.29-.31-18.97-.42-27.55,3.44-3.76,3.01-7.45,6.59-10.24,10.56-4.16,7.98-4.73,17.32-6.43,26.04-1.22,16.98-4.11,34.29-4.77,51.2-1.23,25.06-.95,49.84,4.21,74.29,1.25,10.7,5.8,20.92,12.81,28.93-1-.45-1.98-.93-2.97-1.41Z"/>
    <path d="M670.86,462.38s-.01-.03-.02-.05c0,.02,.01,.03,.02,.05,0,0,0,.01,.01,.02l.04,.09s-.03-.07-.06-.11Z"/>
    <path d="M831.02,504.23c9.1-.98,17.9-.74,26.1-4.97,8.83-3.68,15.78-10.22,23.13-16.09,.42-.68,.81-1.37,1.18-2.06-.07,.37-.14,.74-.22,1.11-.32,.85-.71,1.67-1,2.54-.57,1.67-.96,3.32-1.29,5.06v.03c.02-.23,.06-.46,.11-.67-.07,.3-.13,.6-.22,.9-.07,.22-.16,.43-.25,.64-.07,.11-.15,.25-.21,.39l-.16,.24c-.82,1.11-1.68,2.19-2.5,3.3-.1,.14-.22,.28-.35,.43-1.21,1.3-2.37,2.6-3.51,3.97,0,0,0,0,.01-.01-.02,.03-.04,.05-.07,.08-.23,.17-.46,.33-.69,.5-1.11,.55-2.16,1.19-3.16,2.01-.34,.27-.67,.56-.99,.84-.32,.21-.63,.41-.95,.61-1.81,.36-3.52,.92-5.3,1.74,.06-.04,.11-.06,.16-.08-.02,0-.04,.02-.06,.03,.2-.1,.41-.19,.61-.29,.16-.07,.33-.15,.49-.23l-.49,.23c-.21,.1-.42,.19-.62,.29,0,0,0,0,.01,0-.07,.03-.15,.07-.22,.1l-.57,.23c-.11,.02-.23,.05-.34,.08l-.53,.08c-.4,.02-.8,.03-1.21,.02-1.56-.11-3.11-.4-4.69-.31-2.31,.11-4.45,.58-6.69,1.08-.05,.02-.11,.02-.18,.03,.15-.02,.29-.06,.45-.1-.32,.07-.63,.12-.96,.17-.24,.02-.47,.03-.7,.05-1.07,0-2.13-.04-3.19-.1-1.96-.28-3.87-.74-5.82-.91-2.62-.23-5.17,.43-7.71,.92-.37,.05-.72,.09-1.08,.12-1.43,.07-2.87,.1-4.31,.1-.43-.02-.84-.05-1.26-.08-.46-.06-.92-.13-1.38-.2,3.53-.59,7.07-1.2,10.63-1.82Z"/>
    <path d="M878.9,489.85s0,0,0,.01c0,0,0-.01,0-.01Z"/>
    <path d="M788.36,296.19h.02s0,0-.02,0Z"/>
    <path d="M885.58,316.92c.14,.34,.28,.68,.42,1.02,.06,.19,.13,.37,.2,.54,.32,1.29,.59,2.58,.93,3.86,.29,1.15,.72,2.28,.98,3.45,.01,.07,.04,.16,.05,.23,0,.03,0,.06,0,.09,0,0,0,0,0,0,0,.03,0,.06,.01,.09,.01,.14,.03,.27,.04,.41,0-.01,0-.02,0-.03,.14,1.44,.31,2.86,.49,4.27,0,.04,0,.08,.02,.12,0,.04,.01,.09,.02,.13,0-.04,0-.09-.02-.13,0-.04-.01-.08-.02-.12,0,0,0,0,0,0,.04,.29,.08,.59,.11,.89,.03,.22,.04,.43,.07,.65,0,.14,.02,.3,.04,.45,0,.29,.02,.59,.02,.87,0,.07,0,.14,0,.21-.74-5.75-1.98-11.4-3.37-16.99Z"/>
    <path d="M888.98,333.31c0-.27,0-.52,0-.78v.87s0,.03,0,.04c0-.04,0-.08,0-.12Z"/>
    <path d="M888.19,326.19v-.08s0,.02,0,.02c0,.05,.01,.1,.01,.15,0-.03,0-.06-.01-.09Z"/>
    <path d="M888.14,325.64s0,.05,0,.08c0-.02-.02-.05,0-.08Z"/>
    <path d="M888.1,325.12c.02,.14,.03,.3,.04,.45-.02-.15-.03-.3-.04-.45Z"/>
    <path d="M883.02,310.34s.03,.03,.03,.03c.08,.14,.15,.27,.24,.41-.1-.15-.18-.3-.26-.44Z"/>
    <path d="M882.89,310.11h.02s0,0-.02,0h.02s.04,.06,.05,.09c-.03-.03-.04-.06-.06-.09Z"/>
    <path d="M848.95,295.39l.23,.04c-.2-.02-.42-.03-.62-.06,.12,0,.24,.02,.38,.02Z"/>
    <path d="M882.71,309.9s-.06-.06-.08-.1c0,0,.01,.01,.02,.02,.02,.02,.03,.04,.05,.06,.01,.02,.02,.03,.03,.05,0-.01-.02-.02-.02-.03Z"/>
    <path d="M882.65,309.82s.03,.04,.05,.06c-.02-.02-.03-.04-.05-.06Z"/>
    <path d="M882.45,309.57s-.01-.01-.02-.02c0,0,0,0,.01,.01,.01,.02,.03,.03,.04,.05,.01,.01,.02,.03,.03,.04-.02-.03-.04-.05-.07-.08Z"/>
    <path d="M882.48,309.61s-.03-.03-.04-.05c0,0,0,0-.01-.01,.02,.01,.03,.04,.05,.06Z"/>
    <path d="M882.43,309.55c-.05-.07-.11-.14-.17-.2-.01-.02-.02-.03-.03-.05,.07,.08,.13,.17,.2,.25,0,0,0,0,0,0Z"/>
    <path d="M882.02,309.08s-.01-.01-.02-.02c-.04-.05-.08-.1-.13-.15,.13,.14,.25,.29,.38,.44,.04,.06,.1,.12,.15,.19-.13-.16-.26-.31-.39-.46Z"/>
    <path d="M882.45,309.14s.04,.09,.06,.14c0,.02,.02,.05,.03,.07,0,.01,0,.02,0,.03-.04-.08-.07-.16-.1-.25Z"/>
    <path d="M882.51,309.28s.01,.03,.02,.05c0,0,0,.02,0,.03,0-.02-.02-.05-.03-.07Z"/>
    <path d="M883.1,308.92s.04,.04,.07,.06c-.02-.02-.05-.04-.07-.06Z"/>
    <path d="M852.77,295.9s-.01,0-.02,0c0,0,.01,0,.02,0Z"/>
    <path d="M853.06,295.95s-.08-.01-.13-.02c.04,0,.08,.01,.13,.02Z"/>
    <path d="M880.27,306.98c-.11-.03-.22-.07-.32-.11,.11,.04,.21,.07,.32,.11Z"/>
    <path d="M864.21,297.33s-.03,0-.05,0c-.03-.01-.06,0-.08-.01,.04,0,.08,0,.13,.02Z"/>
    <path d="M864.28,297.33s-.01,0-.02,0c0,0,0,0,0,0,0,0,0,0,0,0,0,0,.02,0,.03,0Z"/>
    <path d="M864.49,297.36s.1,.02,.14,.03c0,0,0,0,0,0-.11-.02-.21-.04-.32-.05,0,0-.02,0-.03,0,.08,0,.14,.01,.21,.02Z"/>
    <path d="M864.63,297.39s0,0,0,0c0,0-.02,0-.02,0,0,0,0,0,0,0Z"/>
    <path d="M864.64,297.39s.03,0,.04,0c0,0,0,0,0,0-.01,0-.03,0-.04,0,0,0,0,0,0,0Z"/>
    <path d="M864.64,297.39s0,0,0,0c0,0,0,0,0,0,0,0,0,0,0,0Z"/>
    <path d="M676.77,477.92c.17,.13,.31,.28,.48,.43,0,0,.02,0,.01,.02l-.49-.45Z"/>
    <path d="M788.42,296.2s-.01,0-.02,0c0,0,.01,0,.02,0Z"/>
    <path d="M673.46,332.75s0-.04,0-.05c0,0,0,.02,0,.03,0,0,0,.02,0,.03,0,0,0,0,0,0,0,0,0,0,0,0Z"/>
    <path d="M671.45,345.37s0,0,0,0c0,0,0,0,0,0,0,0,0,0,0,0Z"/>
    <path d="M671.85,341.71s0,0,0,0c0,0,0,0,0,0h0s0,0,0,0Z"/>
    <path d="M673.46,332.8s0-.01,0-.02c0,0,0,.01,0,.02,0,.04,0,.08,0,.12,0,.01,0,.02,0,.03,0-.05,0-.1,0-.16Z"/>
    <path d="M673.47,332.65s0,.02,0,.04c0,0,0,0,0,.01,0-.02,0-.03,0-.05Z"/>
    <path d="M673.46,332.58s0,.07,0,.11c0-.04,0-.07,0-.11Z"/>
    <path d="M673.82,329.76v.02s0-.01,0-.02Z"/>
    <path d="M700.8,293.32s-.02,.01-.02,.01t.02-.01Z"/>
    <path d="M671.85,341.68s0,.02,0,.03c0,.03-.02,.06-.03,.08-.02,.05-.04,.11-.06,.16,.03-.09,.06-.18,.09-.27Z"/>
    <path d="M672,341.27s0,.02,0,.03h0s0-.02,0-.03Z"/>
    <path d="M672.03,341.17s0,.02,0,.03l-.03,.07s.02-.06,.03-.1Z"/>
    <path d="M673.35,334.41c0,.05,0,.1-.01,.15,0,0,0,.02,0,.03,0-.07,.01-.13,.02-.18Z"/>
    <path d="M673.48,332.16s0,.08,0,.12c-.01,.03-.01,.08,0,.12,0,.03,0,.06,0,.09,0-.11,.01-.22,.02-.33Z"/>
    <path d="M673.78,329.91s0,.01,0,.02c0,.02,0,.03,0,.05-.01,.06-.03,.11-.04,.16,.02-.08,.03-.15,.05-.23Z"/>
    <path d="M673.83,329.64s-.02,.08-.03,.12c0-.04,.02-.08,.03-.12Z"/>
    <path d="M673.89,329.35s0,0,0-.01h0s-.03,.1-.03,.16c0-.06,.02-.11,.02-.15Z"/>
    <path d="M673.89,329.36s-.01,.08-.02,.12c0-.04,.01-.08,.02-.12Z"/>
    <path d="M673.92,329.23s0,0,0,0c0,.03-.01,.06-.02,.09h0s.02-.06,.03-.09Z"/>
    <path d="M673.92,329.23s.01-.04,.02-.07c0,.02,0,.04-.01,.06h0Z"/>
    <path d="M680.31,309.42s0,0,0,0c0,0,0,0,0,0h0Z"/>
    <path d="M680.61,309.04s-.03,.04-.04,.06c.01-.03,.02-.05,.04-.06Z"/>
    <path d="M680.76,308.85s-.04,.05-.06,.07l.06-.07Z"/>
    <path d="M681.03,308.49s-.05,.08-.09,.12c-.05,.06-.12,.13-.17,.2l.26-.32Z"/>
    <path d="M698.72,294.01c-.16,.08-.31,.15-.48,.21,.15-.06,.32-.13,.48-.21Z"/>
    <path d="M701.3,293.19s-.07,.02-.1,.03c-.03,0-.05,.01-.08,.02,0,0-.01,0-.02,0,.07-.02,.13-.04,.2-.05Z"/>
    <path d="M701.46,293.14s-.07,.02-.1,.03c-.02,0-.04,0-.06,.01,.05-.02,.1-.03,.16-.05Z"/>
    <path d="M701.85,293.04s-.04,.01-.06,.02c-.06,.01-.12,.03-.17,.04-.01,0-.02,0-.03,0,.09-.02,.17-.05,.26-.07Z"/>
    <path d="M715.13,289.76c.08,0,.14,0,.21,0-.02,0-.03,0-.05,0,.02,0,.04,0,.06,0,.02,0,.04,0,.06,0-.35,0-.71-.02-1.06-.02,.26,0,.52,0,.78,0Z"/>
    <path d="M689.61,533.87c-6.22-3.5-13.22-5.31-18.95-9.67-10.69-8.54-21-18.83-27.51-30.93-3.08-12.16-8.1-23.7-8.89-36.18-1.27-20.6,.75-41.35,1.18-61.88,.35-28.57-.15-57.69,8.91-84.94,4.04-14.26,7.6-29.37,20.81-38.11,14.58-12.38,34.73-9.97,52.94-9.09-.62,.06-1.24,.11-1.86,.16-2.13,.06-4.28,.11-6.4,.07-2.48-.03-4.94,.28-7.39,.64,.11-.02,.23-.05,.34-.06-.48,.06-.96,.13-1.43,.21-.02,0-.02,.01-.04,0,.02,0,.02-.01,.04,0-2.4,.4-4.75,.98-7.11,1.48-2.94,.56-5.86,1.21-8.75,1.92-2.47,.57-4.86,1.25-7.15,2.4-2.15,1.08-4.22,2.36-6.28,3.65,.4-.26,.81-.5,1.21-.76-3.18,1.9-5.8,4.23-8.54,6.69,.36-.3,.7-.63,1.06-.93-2.42,2.14-4.65,4.24-6.71,6.74,.3-.37,.59-.72,.89-1.08-1.64,1.96-3.41,3.74-4.84,5.88-1.59,2.37-2.52,5.19-3.46,7.91-1.16,3.05-2.1,6.07-2.94,9.22l-.16,.51s0,0,0,0c0,0,0,.02,0,.02,0,0,0,.01,0,.02,0,0,0-.01,0-.02,0,.01,0,.03-.01,.04,0,0,0-.02,0-.03,0,.03-.01,.05-.02,.08,0,.01,0,.03-.01,.04,0,0,0,0,0-.01-.09,.33-.18,.64-.26,.95-.04,.15-.08,.28-.12,.42,0,0,0-.02,0-.03-.01,.04-.02,.08-.03,.12-.02,.05-.03,.11-.04,.15-.02,.05-.03,.11-.05,.16l.03-.07c-1.46,5.42-1.93,10.91-2.12,16.48,0,0,0-.01,0-.02,0,.06,0,.12,0,.18,0,.02,0,.04,0,.06,0,.26-.04,.54-.07,.79-.65,3.79-1.59,7.4-1.05,11.3l.08,.53c0,.97,.02,1.93,.05,2.89-2.4,19.7-1.96,39.82-2.35,59.59-.78,19.77-2.54,39.8-.68,59.31,.66,3.89,1.57,7.73,2.62,11.55-.33,1.61-.35,3.31-.13,5.04,.28,2.14,.96,4.08,1.51,6.13,.39,1.46,.73,2.93,1.22,4.35,.96,2.84,2.2,5.24,3.9,7.61-.01-.01-.03-.03-.04-.05-.02-.03-.04-.06-.07-.09-.06-.09-.14-.17-.21-.26l.25,.32s.03,.05,.05,.08c0,0,0-.02-.01-.03l.11,.14c.04,.06,.08,.12,.13,.18,.48,.69,.96,1.39,1.36,2.12,0-.02-.02-.04-.03-.06,0,.01,.02,.03,.02,.04,0,0,0,.02,0,.02h0s0,0,0,0c0,0,0,0,0,.01h0s.02,.02,.03,.03c0,.02,.02,.04,.03,.07,0-.01,0-.03,0-.04v.02c.07,.11,.13,.24,.18,.34,0,.02,.02,.04,.03,.06,.04,.07,.07,.14,.1,.21-.03-.07-.07-.13-.09-.18,0,0,.01,.02,.03,.03-.01-.02-.03-.04-.04-.06-.04-.07-.07-.15-.11-.21-.04-.07-.06-.13-.1-.19,0,0,0-.02-.01-.02,0-.01-.01-.02-.02-.03,0,0,0-.02-.01-.02v-.02s-.01,0-.01,0c0-.01-.01-.03-.02-.04-.03-.07-.06-.13-.1-.19,0,.01,.02,.02,.03,.02l.58,1.11s0,0,0,0c-.06-.12-.12-.24-.18-.35,.03,.07,.06,.13,.09,.2,0-.02-.02-.04-.03-.05,.01,.02,.03,.05,.04,.08,0,.02,.02,.04,.02,.06,0-.02-.01-.03-.02-.05,.08,.14,.17,.3,.24,.45,.79,1.62,1.6,3.22,2.52,4.77,1.23,1.99,2.76,3.82,4.26,5.63,1.65,1.98,3.17,4.07,4.9,6.01,3.75,4.2,9.17,7.13,14.2,9.48,1.42,.64,2.83,1.29,4.26,1.9,7.8,3.33,15.94,5.98,24.26,7.61-.09-.02-.2-.02-.29-.04,1.01,.19,2,.38,3,.56l-1.37-.27c3.49,.71,6.96,1.24,10.47,1.52,.78,.09,1.54,.19,2.31,.3,0,0,.01,0,.02,0-.22-.01-.43-.04-.64-.07,.6,.09,1.18,.17,1.78,.27-.27-.05-.56-.09-.82-.15,0,0,0,0,0,0,.07,0,.13,.01,.19,.02,.02,0,.05,0,.08,.01,0,0-.01,0-.02,0,.03,0,.05,0,.08,0,4.72,.73,9.44,.96,14.18,.96-.11,0-.21,0-.32,0,.99,0,1.96,.02,2.95,.04-.05,0-.09,0-.14,0h.31c.24,0,.48,0,.72,.01h-.04c-.07,0-.15,0-.22,0,.08,0,.15,0,.22,0,.15,0,.29,0,.43,.01-.13,0-.26,0-.39-.01,1.37,0,2.73-.02,4.08-.04-.23,0-.45,0-.7,0,.13,0,.25,0,.38,0,.11,0,.22,0,.33,0,0,0,0,0,0,0,.04,0,.09,0,.12,0,.04,0,.08,0,.12,0-.03,0-.05,0-.08,0h.06s.04,0,.06,0c.01,0,.02,0,.03,0-.02,0-.05,0-.07,0,.03,0,.06,0,.09,0,.18,0,.37,0,.54,0-.12,0-.23-.01-.35-.01,.04,0,.08,0,.12,0,1.34-.01,2.64-.08,3.97-.19-.04,0-.08,0-.13,.01-.05,0-.1,0-.15,.01,.05,0,.1,0,.15-.01,.12,0,.24-.02,.36-.03,.03,0,.06,0,.09,0-.03,0-.06,0-.09,0-.04,0-.07,0-.11,0,.88-.08,1.77-.17,2.65-.27,2.91-.3,5.88-.4,8.81-.51,1.22-.01,2.45,.01,3.66,.02-.1,0-.21,0-.32,.01-.05,0-.09,0-.14,0,.05,0,.09,0,.14,0,.16,0,.32,0,.48,0,.07,0,.13,0,.2,0-.01,0-.02,0-.03,0,.05,0,.09,0,.14,0,.16,0,.32,0,.47,.01-.16,0-.32,0-.47-.01-.04,0-.07,0-.11,0,1.29,0,2.54-.06,3.82-.15,2.51-.14,4.94-.32,7.44-.66-.46,.07-.94,.12-1.4,.19,.74-.1,1.49-.17,2.23-.2,.27,0,.54,0,.81,0,.09,0,.18,0,.28,.01h0c.18,0,.36,.02,.55,.03,.02-.01,.04,0,.04,0h-.02c.06,0,.1,0,.16,0h.02s-.02,0-.02,0c2.39,.11,4.79,.23,7.14,.08,2.01-.11,3.98-.43,5.97-.57,4.06-.04,8.13,.33,12.18,.31,0,0,0,0,0,0-.14,0-.28,0-.41,0,.14,0,.29,0,.41,0,.41,0,.82,0,1.23-.01-.14,0-.29,0-.44,0,.07,0,.13,0,.19,0-.14,0-.31,0-.46,.01-.02,0-.05,0-.07,0,1.95-.04,3.84-.25,5.76-.52,.88-.08,1.76-.12,2.63-.12,.63,.02,1.26,.08,1.89,.17,3.62,.51,7.13,1.27,10.81,1.19,2.83-.05,5.62-.37,8.43-.53,2.64-.05,5.28,.05,7.93,.06-.08-.01-.16,0-.26,0,2.58-.01,5.07-.23,7.64-.45,2.02-.19,3.98-.67,5.98-1.02,1.74-.31,3.5-.51,5.21-.89,1.96-.44,3.86-1.07,5.8-1.57,.81-.17,1.62-.32,2.41-.48,.86-.12,1.67-.27,2.49-.43-.05,.01-.11,.03-.16,.04,.45-.1,.91-.21,1.37-.32l-1.03,.24c2.54-.63,4.91-1.64,7.36-2.55,.43-.13,.85-.26,1.29-.36-.07,.01-.13,.03-.18,.05,.03-.01,.06-.02,.08-.03,.02,0,.04,0,.05-.01,0,0,0,0,0,0,.03,0,.05,0,.07-.01h-.02s.07,0,.11-.02c.09-.01,.16-.03,.24-.05-.08,.01-.16,.03-.24,.05-.02,0-.04,0-.06,0h-.02s-.02,.02-.04,.01c-.01,0-.02,0-.02,0,0,0,0,0,0,0,0,0,.02,0,.03,0,3.02-.69,5.78-1.8,8.36-3.59,1.43-.99,2.67-2.17,3.91-3.36,.95-.62,1.88-1.27,2.78-1.95,1.19-1.43,2.21-3.06,3.13-4.79,2.68-3.81,4.78-8.05,6.26-12.43-.1,.31-.2,.6-.31,.91,.11-.31,.21-.6,.31-.91,0-.02,.01-.04,.02-.06,.05-.12,.09-.25,.12-.37,.93-2.92,1.63-5.85,2.38-8.81,.78-3.01,1.59-5.98,2.28-8.99,.05-.16,.08-.32,.11-.49,1.24-5.98,2.04-11.99,2.01-18.1,0-.03,0-.05,0-.09,0-.35,0-.71,0-1.07,0,.35,0,.72,0,1.07,0-.35,0-.71,0-1.07,0-.02,0-.05,0-.07,0,.02,0,.05,0,.07,0-.04,0-.08,0-.11,0-.33,0-.68,0-1.03,.22-1.53,.57-3.08,.75-4.61,.28-2.4,.46-4.79,.61-7.18,.27-3.93,.24-7.87,.41-11.82,0-.1,.01-.2,.02-.3,0-.01,0-.02,0-.03,0-.02,0-.03,.01-.05v.03c0-.22,0-.44,.01-.65v.61c.18-2.48,.55-4.97,.74-7.46,0,.09,0,.18-.01,.27,0,.05,0,.11-.01,.16,0-.05,.01-.11,.01-.16,.03-.32,.04-.63,.06-.94,0-.07,0-.13,0-.2,0-.02,0-.04,0-.07,.08-1.6,.15-3.19,.19-4.79,.52,14.37,2.06,28.75,.48,43.13-1.69,14.89-.88,30.68-7.91,44.31-.56,1.45-1.32,2.7-1.73,3.76-2.65,7.47-9.57,11.79-16.58,14.47-18.55,8.83-39.74,5.52-59.63,7.51-26.31,.43-52.69-1.67-78.81,.86-19.55,.16-39.45,3.01-57.92-4.87-.7-.3-1.4-.6-2.08-.93Z"/>
    <path d="M722.24,536.52s-.05,0-.08,0c0,0,0,0,0,0h0s-.04,0-.06,0c-.08-.01-.17-.03-.26-.05,0,0,0,0,.01,0-.01,0-.02,0-.03,0-.07-.01-.14-.03-.22-.04,.22,.03,.43,.07,.64,.1Z"/>
    <path d="M737.73,537.51c-.29,0-.58,0-.86,0,.29,0,.58,0,.86,0Z"/>
    <path d="M744.3,537.52c-.12,0-.24,0-.36,0-.06,0-.12,0-.19,0,.19,0,.37,0,.55,0Z"/>
    <path d="M744.35,537.52s.02,0,.04,0c0,0,0,0,0,0,0,0-.01,0-.02,0-.04,0-.08,0-.12,0,.03,0,.06,0,.09,0Z"/>
    <path d="M744.38,537.52s.02,0,.03,0c0,0,0,0,0,0h-.02s0,0,0,0c0,0-.02,0-.03,0-.02,0-.04,0-.06,0,.03,0,.06,0,.08,0Z"/>
    <path d="M744.43,537.52s0,0,0,0c0,0,0,0,0,0,0,0,0,0,.01,0Z"/>
    <path d="M744.42,537.52h0s0,0,0,0h0Z"/>
    <path d="M744.5,537.52s0,0-.01,0c-.02,0-.04,0-.06,0,.02,0,.05,0,.07,0Z"/>
    <path d="M744.82,537.52s-.08,0-.12,0c-.04,0-.07,0-.11,0-.01,0-.03,0-.05,0-.02,0-.03,0-.05,0,.11,0,.21,0,.32,0Z"/>
    <path d="M744.59,537.53s.08,0,.11,0c.03,0,.06,0,.09,0-.06,0-.13,0-.19,0,0,0-.01,0-.02,0,0,0,0,0,.01,0Z"/>
    <path d="M744.96,537.52s-.04,0-.06,0c-.03,0-.06,0-.09,0,.05,0,.1,0,.15,0Z"/>
    <path d="M652.66,497.82s0-.02-.01-.03c0,0,0,.01,.01,.02,0,.01,.01,.02,.02,.03,0,0,0,0,0,0,0-.01-.01-.02-.02-.03Z"/>
    <path d="M652.64,497.78h0s0,.01,.01,.02c0,0,0-.01-.01-.02Z"/>
    <path d="M652.63,497.78s0,0,0,0h0s0,0,0,0h0s0,0,0,0Z"/>
    <path d="M652.64,497.77h0s0,0,0,0c0,0,0,0,0,0Z"/>
    <path d="M652.62,497.74s-.03-.05-.04-.08c0,.02,.02,.04,.03,.06,0,.01,.01,.02,.02,.03,0,0,0,0-.01-.01Z"/>
    <path d="M652.44,497.38s0,.01,.01,.02c-.01,0-.01-.02-.01-.02Z"/>
    <path d="M652.32,497.19s.04,.08,.05,.1c-.02-.03-.03-.07-.05-.1Z"/>
    <path d="M650.99,495.28s-.02-.03-.04-.05c.02,.03,.04,.05,.06,.07,0,0,0,.02,.01,.02-.01-.02-.02-.03-.04-.04Z"/>
    <path d="M650.93,495.21s0,0,0,0c0,0,0,.01,.01,.02,0,0-.01-.01-.02-.02Z"/>
    <path d="M760.18,536.55c-.13,0-.27,0-.42,0,.14,0,.27,0,.42,0Z"/>
    <path d="M777.11,535.73h.02s-.07,0-.11,0c.03,0,.06,0,.09,0Z"/>
    <path d="M777.77,535.76s-.04,0-.06,0c-.01,0-.03,0-.05,0h0s0,0-.01,0c.04,0,.08,0,.12,0Z"/>
    <path d="M833.22,535.79h.02s0,0-.02,0h-.13s.09,0,.14,0h0s.08,0,.12,0c.02,0,.03,0,.05,0-.16,0-.32,.02-.48,.02,.06,0,.11-.01,.17-.02-.13,0-.25,.02-.4,.02,.19,0,.36-.01,.53-.02Z"/>
    <path d="M833.24,535.79s.02,0,.03,0c0,0-.02,0-.03,0h0Z"/>
    <path d="M833.85,535.77s0,0-.01,0c-.01,0-.02,0-.03,0,0,0,.02,0,.02,0-.02,0-.05,0-.07,0-.02,0-.05,0-.07,0,0,0,0,0-.01,0,0,0,0,0,.01,0-.06,0-.13,0-.2,0,0,0,.02,0,.02,0,.03,0,.05,0,.08,0-.03,0-.05,0-.08,0-.03,0-.07,0-.1,0-.02,0-.03,0-.05,0-.03,0-.06,0-.1,0,.2-.01,.38-.01,.58-.03Z"/>
    <path d="M834.1,535.77s-.09,0-.14,0c.05,0,.1,0,.14,0Z"/>
    <path d="M867.9,531.49s-.04,0-.06,0c.02,0,.04,0,.06,0Z"/>
    <path d="M868.52,531.4c-.14,.03-.3,.06-.45,.07,.15-.02,.3-.05,.45-.07Z"/>
    <path d="M868.55,531.4h-.01s-.03,0-.05,0c.02,0,.04,0,.06,0Z"/>
    <path d="M868.54,531.4s0,0,0,0c0,0,0,0-.01,0h0Z"/>
    <path d="M868.64,531.39s.04,0,.06,0c.06,0,.12-.02,.19-.03-.11,.02-.23,.04-.34,.05l.09-.02Z"/>
    <path d="M868.56,531.4s.05,0,.08,0c-.03,0-.06,0-.08,.01h0Z"/>
    <path d="M868.64,531.39h0s0,0,0,0c0,0,0,0,0,0Z"/>
    <path d="M878.7,528.26s-.01,0-.02,0c0,0,.01,0,.02,0Z"/>
    <path d="M879.63,528.05s0,0,0,0c0,0,0,0-.01,0,0,0,0,0,.01,0Z"/>
    <path d="M904.12,501.86s0,0,0,0v.02s0-.02,0-.03Z"/>
    <path d="M904.24,501.49c-.03,.12-.07,.25-.12,.36,.04-.12,.08-.24,.12-.36Z"/>
    <path d="M904.24,501.49s0,0,0,0h0s0,0,0,0Z"/>
    <path d="M909.17,482.39c-.05,.27-.11,.55-.16,.82-.04,.16-.08,.33-.11,.49,0,.02,0,.04-.02,.05,.09-.46,.2-.9,.29-1.36Z"/>
    <path d="M911.01,465.02s0,.06,0,.09c0-.03,0-.06,0-.09Z"/>
    <path d="M912.79,438.9s0,0,0,0h0s0,0,0,0Z"/>
    <path d="M912.79,438.85s0,.01,0,.02c0,.01,0,.02,0,.03,0-.02,0-.03,0-.05Z"/>
    <path d="M913.62,430.46s0,.02,0,.03c0,0,0,0,0,0,0-.01,0-.02,0-.04Z"/>
    <path d="M913.62,430.4s0,.02,0,.03c0,.01,0,.03,0,.04,0-.02,0-.04,0-.07Z"/>
    <path d="M913.86,420.87c0,.18,0,.37,0,.55,0-.18,0-.37,0-.55Z"/>
    <path d="M648.57,307.82s0-.03,.01-.05c0,.03-.01,.05-.02,.08,0,0,0-.02,0-.03Z"/>
    <path d="M648.59,307.72s0,0,0-.01c0,0,0,.01,0,.02,0,0,0,0,0,0Z"/>
    <path d="M916.59,374.61c-.04-3.23-.03-6.46-.2-9.69,0,.23,.02,.48,.03,.71-.14-2.53-.17-5.06-.27-7.58-.1-2.13,.06-4.24,.03-6.36,0-2.31-.03-4.61-.08-6.92-.06-2.48-.31-4.93-.26-7.41,.09-2.44,.21-4.9,.05-7.32-.18-2.78-.78-5.42-1.27-8.15-.4-3.08-.57-6.2-1.49-9.23-.93-3.16-2.05-6.11-3.44-9.06,.11,.23,.23,.47,.34,.71-.12-.26-.23-.51-.36-.75,0,.01,.01,.03,.02,.04-1.74-3.62-3.4-7.01-6.17-10.05-2.48-2.75-5.68-5.1-8.54-7.48-3.26-2.71-7.05-4.93-10.92-6.64-4.12-1.84-8.22-3.49-12.62-4.58,.47,.12,.95,.24,1.43,.36-4.2-1.13-8.33-2.52-12.61-3.36,.02,0,.04,0,.05,0,.03,0,.05,.01,.08,.02-.02,0-.05-.01-.08-.02-2.8-.56-5.61-1.06-8.43-1.53-3.23-.65-6.36-1.29-9.67-1.36,.25,0,.47,.01,.7,0-.83-.03-1.68-.08-2.51-.16,.33,.05,.67,.08,1,.12-1.61-.18-3.1-.3-4.69-.27,.14,0,.3-.02,.42-.03-.71,.03-1.45,.02-2.18,0-1.31-.11-2.62-.25-3.93-.36,.17,.02,.33,.02,.49,.03,.08,0,.16,.01,.25,.02-.08,0-.16-.01-.25-.02-.17-.01-.33-.02-.49-.03-.24-.02-.48-.04-.74-.05,.25,.01,.5,.03,.74,.05-.5-.03-1.02-.07-1.54-.1-.59-.07-1.17-.15-1.76-.23-1.72-.32-3.42-.53-5.19-.69,.27,.03,.53,.06,.8,.09-3.44-.31-6.5-.24-9.61,1.87-.11,.07-.21,.15-.32,.23-.96,.03-1.91,.05-2.86,.03-2.31-.18-4.58-.67-6.88-.89-2.62-.23-5.17-.1-7.76-.18-2.49-.2-4.99-.62-7.46-.87-2.86-.25-5.69-.1-8.53-.2-2.31-.18-4.63-.61-6.93-1-2.55-.41-5.1-.36-7.67-.44-2.66-.23-5.3-.78-7.96-1.06-2.42-.23-4.84-.29-7.27-.4-2.02-.14-4.02-.44-6.02-.67-2.39-.3-4.74-.39-7.14-.43-.64,0-1.28-.03-1.93-.08,32.31-.05,64.63,1.46,96.82,3.09,28.83,1.25,70.44,1.43,80.45,34.65,5.55,15.93,8.68,32.87,6.36,49.72-.48,9.46-1.23,18.96-2.01,28.47,.02-1.51,0-3.03-.05-4.56Z"/>
    <path d="M823.53,268.74s-.06,0-.08,0c-.08-.01-.16-.03-.24-.04,.11,.01,.21,.02,.32,.04Z"/>
    <path d="M841.71,268.97c.05,.02,.11,.03,.17,.03h-.18s0-.03,0-.03Z"/>
    <path d="M644.75,335.22s0,.03,0,.04c0-.01,0-.03,0-.04Z"/>
    <path d="M644.78,335.05s0,.02,0,.03c0,0,0-.01,0-.03Z"/>
    <path d="M648.15,309.31l.04-.09c-.02,.07-.04,.14-.07,.21,.01-.04,.02-.08,.03-.12Z"/>
    <path d="M600.59,437.23c-2.28-1.08-2.03-3.69-2.15-5.78-.9-11.85-.09-24.04,1.72-35.78,1.89-10.49,4.47-20.86,6.77-31.26,1.39-3.89,2.41-9.61,6.54-11.32,6.92-1.81,6.21,10.85,1.48,12.36-5.56,16.1-5.75,33.21-6.91,50.03,.02,4.53-.78,8.98-1.39,13.45,.07,3.69-.71,10.53-6.06,8.3Z"/>
    <path d="M630.09,564.81c-13.36-7.84-32.67-21.83-27.86-39.53-16.63-34.64-14.39-75.85-13.5-113.4,1.34-30.21,.44-60.57,8-90.15-5.61-13.59,.91-28.54,5.5-41.55,4.65-9.3,6.38-19.36,11.1-28.54,6.07-10.85,27-36.09,40.65-30.91,9.3-2.42,17.95,6.98,15.65,16.05-3.43,10.06-12.57,17.09-17.44,26.52,.17,1.19,.2,2.38,.09,3.56-.09,.89-.22,1.76-.34,2.64,5.03,6.67,3.5,16.58,.5,26.38-.25,.7-.49,1.4-.73,2.1-.78,2.05-1.46,4.09-2.07,6.16-1.85,5.12-3.71,9.93-4.77,13.89-5.06,13.47-4.46,28.34-7.55,42.36-3.18,11.26,2.81,22.08,2.49,33.6,.16,11.22-1.22,22.39-.79,33.62,.12,8.38,1.69,17.4-1.85,25.31-1.75,6.18,1.9,12.42,3.32,18.42,4.35,16.43,9.78,33.28,19.74,47.24,5.73,5.66,14.3,11.23,12.13,20.63-1.36,5.89-7.04,9.74-12.94,9.55,5.81,15.42-14.54,22.65-26.59,17.51-.97-.41-1.88-.9-2.72-1.48Z"/>
    <path d="M598.89,288.65c-.23-22.53,8.99-43.47,23.99-60.16,11.02-11.39,28.44-12.69,43.43-13.68,13.59-1.94,27.33-1.91,40.91-3.69,12.12-3.49,29.24-1.19,25.01,15.37-2.15,5.63-8.41,8.93-14.19,7.5-20,3.12-40.25,3.7-60.38,5.75-1.9,7-10.05,7.87-15.3,11.52-.76,6.7-5.48,9.63-8.43,14.82-3.84,7.11-7.52,14.43-10.74,21.73,.23,16.01-23.59,16.65-24.27,.83Z"/>
    <path d="M591.5,402.68c-1.94-32.05-6.01-64.32-2.2-96.42-.78-20.63,4.87-41.13,15.92-58.53,4.78-12.69,24.94-34.86,37.4-19.12,7.83,3.28,9.45,15.37,2.41,20.39-4.72,3.16-8.48,7.42-12.32,11.56-3.17,3.99-6.52,8.13-7.16,13.37-.27,6.59-3.86,13.34-10.75,14.24,0,0-.02,0-.02,0-1.68,18.8-3.34,38.59-2.56,57.38,1.01,10.31,.62,20.71,1.14,31.04,1.39,9.38,3.13,18.86,2.32,28.41-1.82,15.72-25.18,13.69-24.19-2.32Z"/>
    <path d="M632.25,297.22c-4.51-3.24-6.11-9.45-4.09-14.49-9.54-9.16-.41-22.81,8.2-28.95-4.06-2.47-6.77-6.91-6.28-11.91,2.11-15.97,30.2-14.68,42.53-18.46,6.82-12.99,25-11.58,37.45-13.74,14.2-2.56,28.5-2.73,42.86-1.88,14.22,.99,31.67-1.65,43.47,7.61,6.48,1.38,13.11,3.68,15.01,10.4,.79,2.75,.59,5.49-.37,7.88,.5,1.29,.8,2.67,.8,4.11,4.06,0,8.07-.31,12.11-.3,3.81,.06,8.5-.29,11.94,1.69,6.85,.47,15.56,.84,19.6,7.27,5.3,8.18-1.87,19.57-11.53,18.44-21.28-2.93-42.73-3.3-64.14-1.61-10.73-.92-21.33-.03-31.99,.91-1.26-.14-2.51-.3-3.76-.45-2.39-.3-4.74-.39-7.14-.43-1.33-.03-2.67-.11-3.98-.23-2.86-.31-5.7-.56-8.57-.54-2.74,0-5.4,.52-8.12,.66-2.13,.06-4.28,.13-6.41,.09-2.39-.04-4.76,.26-7.11,.59-2.87,.36-5.65,1.07-8.48,1.69-2.94,.56-5.86,1.21-8.75,1.92-2.47,.57-4.86,1.25-7.15,2.4-2.15,1.08-4.22,2.36-6.28,3.65,.4-.26,.81-.5,1.21-.76-3.18,1.9-5.8,4.23-8.54,6.69,.36-.3,.7-.63,1.06-.93-2.42,2.14-4.65,4.24-6.71,6.74,.3-.37,.59-.72,.89-1.08-1.06,1.27-2.18,2.47-3.23,3.74-1.43,1.3-2.84,2.62-4.23,3.97-5.29,4.99-10.65,9.78-17.54,6.84-.89-.38-1.8-.88-2.74-1.54Z"/>
    <path d="M736.28,258.04c-.24-1.38-.2-2.81,.05-4.18-3.16-5.1-2.74-10.88,1.17-15.46,7.46-7.87,19.28-2.71,28.58-3.73-1.51-.42-2.86-1.22-4.46-1.28-12.76-2.72-12.07-21.68,.75-23.8,12.55-1.88,23.62-.32,35.32-.25,24.78-4.15,50.78-.92,75.2,5.35,9.62,2.72,19.29,5.67,28.37,9.91,3.79,1.47,6.55,4.84,7.3,8.7,9.68,3.45,11.76,11.39,9.17,17.36-2.65,6.11-10.18,10.15-19.45,5.1,.37,6.88-6.2,13.66-13.3,12.53-4.2-.7-8.48-.28-12.69-.69-16.58-1.05-33.31-.12-49.92-1.23-14.65,.53-29.35,.36-44,.82-1.8-.21-3.57-.54-5.37-.83-2.54-.42-5.1-.38-7.66-.46-2.67-.21-5.3-.78-7.97-1.05-2.41-.24-4.84-.31-7.26-.42-2.02-.14-4.03-.42-6.03-.65-1.86-.25-3.71-.35-5.58-.4-1.03-1.38-1.79-3.13-2.2-5.34Z"/>
    <path d="M925.15,299.13c-.32-6.6,.67-13.23-.08-19.81-5.29,5.72-13.89,3.9-20.32,.78-8.99,.19-17.15-5-25.77-7.03-8.22,1.09-16.51-2.52-24.68-3.59-7.83-2.15-17.42-2.61-23.43-8.53-4.98-5.73-3.15-15.67,3.99-18.72,2.41-10.12,11.92-16.49,21.28-19.64,3.51-11.7,17.97-10.74,27.61-8.72,11.02,2.31,22.26,3.64,32.41,8.57,12.65,5.54,24.12,14.61,29.81,27.23,3.84,17.35,3.58,34.32,3.37,51.5-1.67,15.79-25.09,13.95-24.18-2.03Zm-8.26-43.38c1.94,1.34,3.96,2.6,5.84,4.06,.27,.21,.53,.42,.78,.64,.18-2.65-1.61-4.42-3.35-6.15-1.14-.2-2.22-.57-3.25-1.06-.69,.44-1.42,.8-2.18,1.1,.73,.45,1.46,.92,2.17,1.42Z"/>
    <path d="M914.84,542.96c-13.26-15.5,.45-37.57,2.25-55.07,4.61-38.01,9.45-76.77,9.75-114.6-.27-31.01-.28-62.18-8.63-92.23-3.75-10.96-3.34-22.35-14.81-26.85-8.63-5.5-5.58-20.55,4.73-21.86,9.69-1.41,16.7,6.44,22.51,13.05,27.44-8.17,23.03,49.99,23.67,65.67,1.35,1.86,2.19,4.1,2.32,6.48,.61,10.83,.63,21.69,.36,32.54,.89,27.55-2.2,54.91-4.31,82.33,2.09,2.41,3.25,5.65,3.1,9.07-.25,11.27-2.12,22.1-2.63,33.23-1.36,17.53-9.14,87.58-38.32,68.23Z"/>
    <path d="M903.13,533.02c-11.01-7.93-.73-18.72,1.65-28.08,3.1-9.27,4.62-18.9,5.45-28.67,.52-3.73,.82-7.47,.79-11.25,.01,.02,.01,.07,0,.08,0-.02,0-.06,0-.1v.02c0-.15,0-.3,0-.46,0,.15,0,.3,0,.44,0-.31,0-.64-.02-.96,0-.07,0-.14,0-.2,0-.22,0-.43,0-.64,0-.16,.01-.33,.02-.49,.23-1.51,.56-3,.74-4.52,.28-2.4,.46-4.79,.61-7.18,.25-4,.23-7.99,.41-11.97,0-.05,0-.1,.01-.14,0-.03,0-.06,.01-.07v.02c0-.2,0-.43,.02-.65,0,.2-.02,.43-.02,.63,.18-2.56,.58-5.07,.77-7.61,0,0,0,0,0,0-.01,.18-.02,.38-.03,.56,.02-.18,.03-.37,.03-.56,0,0,0,0,0,0,0,0,0,0,0,0,0-.18,.01-.35,.02-.53,.01-.06,.02-.13,.02-.2,0-.03,0-.06,0-.1,0,.03,0,.06,0,.1,0,0,0,.02,0,.02,.17-3.21,.25-6.39,.26-9.64,0,.48-.01,.94,0,1.4,.15-7.89,1.4-15.75,1.4-23.67,0-3.67,.49-7.34,.89-10.98,.47-4.38,.57-8.62,.43-12.99-.03-3.16-.03-6.28-.18-9.41,0,.01,0,.02,0,.03,0,.13,.01,.25,.02,.38,0-.13-.01-.25-.02-.38,0-.04,0-.08,0-.12,0-.06,0-.13,0-.19,0,.02,0,.04,0,.06-.11-2.32-.15-4.64-.24-6.94-.1-2.13,.06-4.24,.03-6.36,0-.5,0-1.01,0-1.51,.43-4.18,.97-8.35,1.71-12.49-1-6.42-2.15-12.88-3.67-19.24-.23-1.94-.5-3.88-1.07-5.79-.89-2.94-1.9-5.71-3.16-8.46,0-.02-.01-.04-.02-.05,.03,.06,.06,.11,.08,.16-.03-.07-.07-.14-.1-.2-.21-.57-.42-1.13-.64-1.7-.3-.5-.6-.99-.91-1.47-1.33-2.62-2.78-5.1-4.86-7.38-.84-.93-1.77-1.82-2.73-2.68-2-2.18-4.16-4.21-6.51-6.05-3.47-3.21-7.86-7.77-7.99-12.79-12.76-7.98-2.97-27.45,11.07-21.71,18.79-9.53,58.97,55.87,42.78,68.41,3.61,14.06,5.11,28.63,5.25,43.08-1.73,5.9-1.85,11.79-1.96,17.99-.31,13.29,.49,27.71-6.78,39.19-.55,11.15-.15,22.43-.97,33.6,2.29,4.01,1.09,8.96,.53,13.3-1.69,15.19-6.67,78.51-31.21,68.04-.62-.26-1.24-.57-1.89-.93Z"/>
    <path d="M911,464.12c0,.15,0,.3,0,.44,0-.15,0-.29,0-.44Z"/>
    <path d="M910.99,463.86c0,.06,0,.12,0,.18,0,.03,0,.05,0,.08,0-.09,0-.17,0-.26Z"/>
    <path d="M641.58,563.1c-7.88-6.47-5.83-19.72,4.35-22.33,.33-.52,.71-1.04,1.15-1.53-4.39-3.54-7.47-8.34-11.95-11.78-6.2-5.08-12.67-12.64-8.27-21.07,2.66-5.11,8.85-7.71,14.43-6.46,4.59-2.76,9.05-1.9,12.78,.64,.55,1.08,1.12,2.15,1.74,3.2,1.23,1.99,2.76,3.82,4.26,5.63,1.65,1.98,3.17,4.07,4.9,6.01,3.75,4.2,9.17,7.13,14.2,9.48,.08,.04,.16,.08,.25,.11,.5,1.17,.84,2.42,1.01,3.76,6.21,1.62,12.57,2.81,19.02,3.69,2.72,.76,5.47,1.42,8.24,1.96l-.28-.06c1.01,.19,2,.38,3,.56l-1.37-.27c3.49,.71,6.95,1.25,10.47,1.52,.6,.08,1.19,.16,1.79,.24,.46,.07,.92,.14,1.38,.21,.1,.02,.2,.03,.3,.05-.1-.02-.2-.03-.3-.05-.18-.03-.35-.06-.53-.08,.12,0,.22,.01,.33,.04,4.72,.71,9.45,.94,14.18,.94-.11,0-.21,0-.32,0,1,.02,1.99,.02,2.99,.06h-.18c.1-.01,.2-.01,.31,0,.22,0,.44,.01,.66,.02,.15,0,.3,0,.45,0-.15,0-.3,0-.45,0-.07,0-.14,0-.21-.01,1.38,0,2.75-.01,4.11-.04,0,0,.02,0,.02,0,.08,0,.16,0,.24,0,.03,0,.06,0,.09,0,.01,0,.03,0,.04,0,.03,0,.06,0,.08,0-.25,0-.49,0-.76-.01,.4,0,.79,0,1.18,0-.08,0-.15,0-.23,0-.03,0-.07,0-.1,0,0,0-.01,0-.02,0-.02,0-.04,0-.06,0,.01,0,.04,0,.06,0,0,0-.01,0-.02,0-.04,0-.08,0-.12,0,.04,0,.09,0,.12,0,.2,0,.41,0,.6,0-.12,0-.24,0-.36,0,.05,0,.1,0,.15-.01,1.33,0,2.62-.07,3.93-.17,.08,0,.16-.02,.25-.03,.03,0,.05,0,.08,0-.02,0-.04,0-.06,0,.02,0,.04,0,.06,0,0,0,0,0,0,0,0,0,0,0,0,0,.03,0,.06,0,.09,0,.2-.01,.41-.03,.61-.06,.58-.06,1.17-.12,1.76-.19,2.91-.3,5.87-.38,8.81-.51,1.22-.01,2.45,.01,3.66,.03-.06,0-.11,0-.17,0-.09,0-.19,0-.28,0,.1,0,.19,0,.28,0,.11,0,.22,0,.33,0,.08,0,.15,0,.23,0-.02,0-.05,0-.07,0,.05,0,.1,0,.14,0,.16,0,.32,0,.48,0-.07,0-.15,0-.23,0,1.17-.02,2.31-.08,3.47-.16,2.15-.12,4.22-.26,6.34-.52-.1,.01-.2,.03-.3,.04,.74-.1,1.49-.15,2.23-.2,.26,0,.54,0,.8,.01,.09,0,.18,0,.27,0,0,0,0,0,0,0,.04,0,.07,0,.11,0,.15,0,.31,0,.46,.02,0,0,.01,0,.02,0h0s0,0,0,0c0,0,0,0,0,0,.06,0,.1,0,.15,0,2.39,.11,4.8,.21,7.15,.06,2.01-.11,3.98-.43,5.98-.54,4.04-.05,8.11,.32,12.17,.28,0,0,0,0,0,0-.14,0-.28,0-.41,0,.14,0,.29,0,.41,0,.11,0,.22,0,.33,0,.05,0,.1,0,.16,0h.16c.07,0,.14,0,.21,0,.02,0,.03,0,.05,0-.08,0-.16,0-.26,.01,.2,0,.39,0,.59-.02-.11,0-.22,0-.33,0,.03,0,.05,0,.08,0-.04,0-.09,0-.13,0-.07,0-.14,0-.21,0-.04,0-.08,0-.12,0-.01,0-.02,0-.04,0-.05,0-.11,0-.16,0-.02,0-.03,0-.05,0,2.01-.03,3.96-.25,5.93-.5,.88-.08,1.76-.12,2.63-.13,.62,.04,1.26,.1,1.89,.17,3.61,.53,7.12,1.29,10.81,1.19,2.82-.03,5.61-.35,8.42-.51,2.58-.07,5.14,.04,7.73,.05,.07,0,.14,0,.21,0-.07,0-.14,0-.21,0-.02,0-.04,0-.06,0,2.58-.01,5.07-.23,7.64-.45,1.62-.15,3.19-.49,4.78-.8,4.09,.25,8.16,.64,12.23,1.21,9.19-3.52,18.67-6.76,27.47-11,7.16-5.71,17.56-15.31,26.67-8.64,6.9-14.05,28.03-4.66,22.15,9.88,7.53,15.27-10.59,26.37-21.01,34.23-10.75,7.41-24.79,4.85-36.29,10.21-29.82,3.2-57.16,4.79-86.56,4.48-48.22-1.64-98.1,9.97-144.87-5.01-4.56-2.42-8.17-3.61-11.97-6.84Z"/>
    <path d="M722.43,536.54c-.1,0-.22-.01-.33-.04-.08-.01-.16-.03-.24-.04,.19,.03,.38,.06,.57,.08Z"/>
    <path d="M737.73,537.5c-.28,0-.57,0-.86,0,.29,0,.57,0,.86,0Z"/>
    <path d="M744.04,537.52s0,0-.01,0c-.15,0-.3,0-.46-.01,.16,0,.32,.01,.48,.01Z"/>
    <path d="M744.26,537.52c-.07,0-.14,0-.21,0,0,0,0,0,0,0,.07,0,.15,0,.22,0Z"/>
    <path d="M744.39,537.53s0,0,0,0c-.03,0-.06,0-.09,0,0,0-.02,0-.03,0,.04,0,.09,0,.13,0Z"/>
    <path d="M744.59,537.52s.05,0,.07,0c-.03,0-.06,0-.09,0,0,0,.01,0,.02,0Z"/>
    <path d="M749.08,537.32c-.07,0-.14,.01-.21,.02-.08,0-.17,.01-.27,0,.17-.01,.33-.02,.48-.03Z"/>
    <path d="M749.81,537.25c-.17,.02-.34,.04-.51,.05,.17-.02,.34-.03,.51-.05Z"/>
    <path d="M760.18,536.54c-.13,0-.27,0-.42,0,.14,0,.27,0,.42,0Z"/>
    <path d="M775.75,535.76c-.15,.02-.29,.04-.44,.06,.15-.02,.29-.04,.44-.06Z"/>
    <path d="M777.06,535.74s-.06,0-.1,0c-.04,0-.08-.01-.12,0,.07,0,.15,0,.22,0Z"/>
    <path d="M778.08,535.76c-.07,0-.13,0-.19,0,.06,0,.13,0,.19,0Z"/>
    <path d="M833.1,535.8s0,0-.01,0h.14s0,0,0,0c.03,0,.06,0,.09,0,.03,0,.06,0,.09,0h.03c.05,0,.09,0,.15,0-.2,.01-.4,.02-.6,.02,.03,0,.07,0,.1,0-.04,0-.08,0-.12,0-.04,0-.07,0-.11,0-.05,0-.11,0-.16,0,.14,.01,.27,0,.4,0Z"/>
    <path d="M832.97,535.81s.01,0,.02,0c-.03,0-.06,0-.09,0,.02,0,.05,0,.07,0Z"/>
    <path d="M833.24,535.79s0,0-.02,0c-.04,0-.08,0-.11,0,.04,0,.09,0,.14,0Z"/>
    <path d="M833.24,535.79c.06,0,.11,0,.16,0-.02,0-.05,0-.08,0-.03,0-.06,0-.09,0Z"/>
    <path d="M833.43,535.78s0,0-.01,0h0s.02,0,.02,0Z"/>
    <path d="M833.73,535.78s-.03,0-.04,0c-.08,0-.16,0-.25,0,.1,0,.19,0,.29,0Z"/>
    <path d="M833.73,535.78s.05,0,.08,0c0,0,0,0,0,0,.01,0,.02,0,.03,0-.02,0-.04,0-.08,0-.02,0-.05,0-.07,0,.01,0,.03,0,.04,0Z"/>
    <path d="M833.87,535.76h.02s.09,0,.14,0c-.06,0-.12,.01-.19,.01,0,0,0,0,0,0-.01,0-.02,0-.03,0,.02,0,.04,0,.06-.01Z"/>
    <path d="M732.19,482.73c.32-10.32,12.08-13.53,20.52-10.59,10.31-3.73,21.59,1.62,32.2,1.3,11.46-1.25,22.43-5.07,33.37-8.49,13.57-16.97,32.94-29.12,45.93-46.59,7.01-8.89,17.53-5.04,21.01,2.17,0,.01,0,.02,0,.03,0,.03,0,.05,0,.08,0,.06,0,.13,0,.19,0,0,0,0,0,.01,0,0,0,.02,0,.03,0,.01,0,.03,0,.05,0-.02,0-.03,0-.05h0s0,.05,0,.07c0,0,0,.02,0,.03,0-.02,0-.03,0-.05,0,.03,0,.05,0,.08,0,.01,0,.03,0,.04-.02,2.7-.15,5.4-.11,8.12,0-.08,0-.16-.01-.24,0-.13,0-.26,0-.39,0,.09,0,.17,0,.26,0,.65,0,1.3-.02,1.96-.64,1.24-1.53,2.47-2.71,3.65,.53,.25,1.03,.54,1.53,.86,.33,.2,.64,.42,.93,.66-.14,2.38-.29,4.76-.32,7.14-.02,2.36-.34,4.7-.25,7.07,.06,1.41,.22,2.82,.26,4.22,0,.66-.02,1.31-.04,1.98,0,.06,0,.14-.01,.22,0-.03,0-.07,0-.1,0-.03,0-.07,0-.1,0,.03,0,.07,0,.1,0,.03,0,.07,0,.1s0,.07,0,.1c-.01,.37,0,.74-.03,1.12,0-.11,0-.22,.01-.33,0,.08,0,.17,0,.25,0-.1,0-.19,0-.29,0-.04,0-.08,0-.12l-.06,2.76c-.03,.56-.09,1.12-.16,1.68-.2,1.19-.41,2.4-.59,3.6,.06-.49,.15-.97,.22-1.43-.16,.94-.33,1.88-.48,2.81l.04-.23c-.7,4.21-1.1,8.46-1.67,12.68-.02,.14-.04,.28-.06,.42,0-.03,.01-.06,.02-.09,0,.05-.01,.1-.02,.15-.14,.87-.29,1.73-.48,2.58-.32,.85-.7,1.68-1,2.54-.22,.67-.41,1.32-.59,1.99-2.21,2.3-4.46,4.43-6.62,6.32-7.14,7.93-17.34,10.87-27.6,13.14-.08,0-.15,.01-.23,.02-1.07,0-2.14-.05-3.21-.11-1.95-.27-3.85-.74-5.82-.91-2.61-.22-5.17,.43-7.71,.92-.35,.06-.72,.09-1.08,.12-1.43,.07-2.87,.1-4.29,.11-.43-.02-.86-.06-1.28-.09-.86-.12-1.71-.25-2.55-.35,.07,0,.15,.01,.22,.02,.07,0,.14,.02,.21,.02-.07-.01-.14-.02-.21-.02-.17-.02-.34-.05-.51-.06,.09,.02,.2,.02,.29,.04-1.21-.12-1.8-.13-3.22-.14,.49,.02,.96,.02,1.45,.04-2.26-.06-4.46,.22-6.74,.42-1.68,.13-3.36,.28-5.05,.42-.1,0-.22-.01-.32-.01-.44-.02-.89-.05-1.32-.09-1-.16-2-.3-3-.35-.04,0-.07,0-.1,0-.04,0-.07,0-.12-.01,.04,0,.08,.01,.12,.01,0,0,.01,0,.02,0h0s-.02,0-.03,0c0,0-.02,0-.03,0,0,0,.02,0,.03,0,.01,0,.02,0,.03,0,0,0,.01,0,.02,0,0,0,0,0-.01,0,.19,.02,.39,.04,.59,.06-2.85-.23-5.64-.07-8.47,.1,.04,0,.11-.02,.15-.02-1.14,.07-2.26,.09-3.4,.1-1.17-.02-2.32-.06-3.49-.13-.3-.02-.58-.04-.88-.07-.33-.04-.65-.07-.98-.11-1.13-.15-2.25-.32-3.36-.53-2.21-.38-4.41-.54-6.62-.66,.07,0,.13,0,.19,.01-.1,0-.2,0-.3-.02,.02-.01,.06,0,.1,0-.05,0-.12-.01-.18,0,0,0,0,0-.01,0-.06,0-.11,0-.17-.01-.11,0-.23-.02-.35-.02-2.05-.14-4.1-.26-6.15-.39-2.54-.24-5.09-.63-7.59-1.1-3.28-.72-6.5-1.54-9.75-2.43-3.45-.96-7.03-1.27-10.56-1.74-3.14-.52-6.22-1.17-9.34-1.69-3.06-.55-6.11-1.02-9.12-1.78,0,0,0,0,0,0-.03,0-.07-.02-.1-.03,.02,0,.04,0,.05,.01-.08-.02-.16-.04-.24-.05,.19,.05,.38,.09,.57,.14,0,0,0,0,.01,0,0,0,0,0,0,0,.26,.07,.53,.14,.78,.21-2.56-.67-5.13-1.32-7.7-1.98,0,0,0,0-.01,0-.02,0-.03,0-.05-.01-.14-.04-.29-.07-.43-.11,.05,.02,.09,.03,.13,.04-.1-.02-.2-.05-.3-.07,.13,.03,.24,.06,.37,.1-.02,0-.05-.02-.07-.02,.1,.02,.2,.05,.3,.07l.06,.02c.07,.03,.14,.04,.2,.07,.17,.03,.34,.08,.5,.13-.96-.25-1.92-.49-2.88-.7-.4-8.69,9.14-17.57,19.76-10.84Z"/>
    <path d="M773.74,504.9c.08,0,.15,.01,.23,.02-.17,0-.34-.01-.52-.03,.1,0,.19,0,.29,.01Z"/>
    <path d="M774.09,504.92c.05,0,.1,0,.15,.01-.09,0-.18-.01-.27-.02,.04,0,.08,0,.12,0Z"/>
    <path d="M774.26,504.93s0,0,0,0c0,0-.02,0-.03,0,0,0,.01,0,.02,0Z"/>
    <path d="M774.27,504.93s.01,0,.02,0c0,0-.02,0-.02,0,0,0,0,0,0,0Z"/>
    <path d="M803.74,506.5c-.33-.04-.67-.09-1-.13,.33,.03,.67,.08,1,.13Z"/>
    <path d="M803.82,506.51s-.01,0-.02,0c0,0,.01,0,.02,0Z"/>
    <path d="M881.75,479.16c.03-.2,.07-.4,.11-.6-.06,.31-.1,.62-.15,.93,.02-.11,.03-.22,.05-.33Z"/>
    <path d="M885.09,428.8s0,.08,0,.12c0,.29,.01,.57,.02,.86-.01-.33-.02-.66-.02-.98Z"/>
    <path d="M885.09,428.79s0-.05,0-.07c0,.03,0,.05,0,.08,0,0,0,0,0,0Z"/>
    <path d="M885.24,421.34c0,.17,0,.34,.01,.5-.01-.18-.01-.33-.01-.5Z"/>
    <path d="M885.23,421.06s0,.09,0,.13c0-.05,0-.1,0-.13Z"/>
    <path d="M885.22,420.65s0-.05,0-.08v-.03s0,0,0,.01c0,.05,0,.11,0,.16,0-.02,0-.04,0-.07Z"/>
    <path d="M840.9,463.7c-14.87-9.23-.68-26.29,2.21-38.33,4.1-16.09,10.62-31.38,16.81-46.76,1.95-4.82,3.57-10.44,8.58-12.71,.51-8.79-1.07-19.01,3.47-26.85,.04-.44,.07-.88,.06-1.29,2.05-4.32,1.44-9.22-.83-13.32,.13,.18,.23,.37,.36,.55-.16-.25-.34-.51-.49-.79,.05,.08,.09,.16,.12,.24-.14-.25-.31-.48-.48-.72-.66-1.54-1.59-3.03-2.83-4.38-2.86-3.1-6.57-5.48-10.84-6.06-4.27-.58-8.62,.28-12.27,2.58-3.11,1.97-5.72,5.19-7.13,8.79-11.88,2-24.44,5.2-33.29,5.68-1.29-.55-2.58-1.1-3.88-1.63l.21,.09c-.17-.07-.36-.13-.53-.21-.26-.11-.51-.2-.77-.31l.31,.13c-2.32-.89-4.69-1.67-7.11-2.27-1.07-.25-2.17-.47-3.27-.61-5.51-7.19-1.5-20.35,10.54-19.73,19.08,0,37.28-7.77,56.49-7.08,4.98,1.42,9.79,3.16,14.66,5.01-.02,0-.04-.01-.06-.02,2.6,.96,5.23,1.9,7.87,2.78l.12,.05c.45,.15,.89,.32,1.33,.46h.02c-.12-.03-.24-.07-.35-.11,.11,.04,.23,.08,.33,.11-.11-.04-.22-.07-.33-.11-.22-.08-.44-.16-.66-.23,.36,.13,.7,.26,1.04,.4,.56,.67,1.12,1.34,1.68,2.01,0,0,.01,.01,.02,.02l.39,.46s.02,.01,.03,.02c.04,.04,.07,.09,.11,.13,0,0,0,0,0,0,0,0,0,0,0,0,0,.01,.02,.02,.03,.04,.06,.09,.14,.16,.2,.25,1.02,2.68,2.15,5.31,3.24,7.96,.05,.18,.12,.36,.19,.53,.33,1.3,.59,2.58,.93,3.86,.29,1.15,.72,2.28,.98,3.45,.03,.07,.04,.16,.05,.23l.06,.58c0-.16-.03-.31-.04-.47,0,0,0,0,0,0,.15,1.67,.34,3.32,.56,4.96-.02-.09-.03-.18-.05-.27,.04,.29,.08,.59,.11,.89,.03,.22,.06,.44,.07,.65,.02,.15,.02,.3,.04,.45,0,.29,.02,.59,.04,.88-.14,4.1-.56,8.22-.56,12.34,0-.01,0-.03,0-.04-.02,6.8-.18,13.65-.76,20.42-.16,1.68-.29,3.34-.34,5.05,0-.31,.01-.61,.03-.94l-.07,1.76c.01-.18,.01-.37,.03-.55-.01,.37-.02,.71-.05,1.07l-.03,.79c-.09,1.96-.14,3.94-.19,5.92-.1,1.48-.27,2.96-.27,4.46,.01,1.61,.15,3.22,.21,4.81,0,.02,.01,.02,.01,.02-.1,1.83-.2,3.65-.22,5.49,0-.49,.02-1,.02-1.5-.16,7.38-.94,14.71-1.38,22.09v-.31c0,.14-.01,.28,0,.43-.03,.32-.04,.62-.06,.92,0-.04,.01-.09,.02-.13,0,.05,0,.09-.02,.13,0,.04,0,.06,0,.1,0-.07,.01-.15,.02-.22-.09,1.58-.14,3.15-.12,4.74,0,.03,0,.05,0,.08,0,.06,0,.13,0,.19,0,0,0,0,0,.01,0,0,0,.02,0,.03,0,.01,0,.03,0,.05,0-.02,0-.03,0-.05h0s0,.05,0,.07c0,0,0,.02,0,.03,0-.02,0-.03,0-.05,0,.03,0,.05,0,.08,0,.01,0,.03,0,.04-.02,2.7-.15,5.4-.11,8.12,0-.08,0-.16-.01-.24,0-.13,0-.26,0-.39,0,.09,0,.17,0,.26,.01,4.77-.53,9.52-.59,14.27-.02,2.36-.34,4.7-.25,7.07,.04,1.04,.14,2.09,.21,3.13-3.16,1.67-6.97,2.04-10.34,.36-4.36,3.98-10.27,2.77-15.5,1.97-1.96,7.12-10.03,11.43-16.82,8.54-.3-.13-.6-.28-.91-.43Z"/>
    <path d="M885.09,428.8s0,.08,0,.12c0,.29,.01,.57,.02,.86-.01-.33-.02-.66-.02-.98Z"/>
    <path d="M885.09,428.79s0-.05,0-.07c0,.03,0,.05,0,.08,0,0,0,0,0,0Z"/>
    <path d="M885.24,421.34c0,.17,0,.34,.01,.5-.01-.18-.01-.33-.01-.5Z"/>
    <path d="M885.23,421.06s0,.09,0,.13c0-.05,0-.1,0-.13Z"/>
    <path d="M885.22,420.65s0-.05,0-.08c0-.06,0-.11,0-.17,0,.1,0,.21,0,.31,0-.02,0-.04,0-.07Z"/>
    <path d="M885.37,415.27s.01-.08,.02-.11c0,.15-.02,.29-.03,.44,0-.11,0-.22,.01-.33Z"/>
    <path d="M887.31,371.52s0,.02,0,.02c0,0,0-.01,0-.02Z"/>
    <path d="M888.41,345.83s0,.05,0,.07c0-.02,0-.05,0-.07Z"/>
    <path d="M888.97,333.31c0-.27,0-.52,0-.78v.87s0,.03,0,.04c0-.04,0-.09,0-.13Z"/>
    <path d="M888.14,325.67s0,.03,0,.05c0-.02,0-.03,0-.05Z"/>
    <path d="M888.09,325.12c0,.07,.01,.14,.02,.21,0-.07-.02-.14-.02-.21Z"/>
    <path d="M883.02,310.33s.03,.03,.04,.04c.07,.13,.15,.27,.22,.4-.08-.14-.18-.3-.26-.44Z"/>
    <path d="M882.9,310.12h-.02s0-.02,0-.02c0,0,0,.01,.01,.02,.03,.03,.04,.06,.05,.08-.01-.02-.04-.06-.05-.08Z"/>
    <path d="M882.87,310.07s.01,.02,.02,.03h0s-.01-.02-.02-.03Z"/>
    <path d="M882.63,309.8s.06,.07,.09,.11c-.03-.03-.07-.07-.09-.11Z"/>
    <path d="M882.54,309.69s-.03-.04-.04-.06c.02,.02,.04,.05,.05,.07,0,0,0,0,0,0Z"/>
    <path d="M882.47,309.6s-.02-.03-.03-.04c0,0,0,0,0,0,.02,.02,.04,.04,.05,.05,0,0,0,0,0,0Z"/>
    <path d="M882.43,309.56s0,0-.01-.01c0,0,.01,0,.02,.01,0,.01,.02,.02,.03,.03,0-.01-.02-.02-.03-.03Z"/>
    <path d="M882.42,309.55s-.07-.08-.1-.12c-.03-.04-.06-.08-.1-.13,.07,.08,.14,.17,.21,.26,0,0,0,0-.01,0Z"/>
    <path d="M882.02,309.07s-.01-.01-.02-.02c-.04-.05-.08-.1-.13-.15,.15,.17,.3,.34,.44,.52,.03,.04,.06,.07,.09,.12-.13-.16-.26-.31-.39-.46Z"/>
    <path d="M882.41,309.04l-.05-.12,.05,.12,.08,.2-.08-.2,.11,.27s.03,.08,.04,.12c-.06-.13-.11-.25-.15-.39Z"/>
    <path d="M883.1,308.92s.04,.04,.06,.06c-.02-.02-.04-.04-.06-.06Z"/>
    <path d="M883.05,308.86s0,0,0,0c0,0,0,0,0,0Z"/>
    <path d="M803.59,329.98l.77,.33s-.01,0-.02,0c-.25-.11-.5-.22-.75-.33Z"/>
    <path d="M679.82,335.9c-2.22-8.8-1.47-18.26,.92-27.01,.11-.16,.21-.3,.33-.44,.14-.19,.28-.36,.42-.54,.28-.31,.55-.61,.83-.93,1.43-1.33,2.93-2.56,4.23-4.03,1.16-1.32,2.28-2.68,3.49-3.93,.19-.16,.4-.35,.6-.53,.81-.64,1.68-1.22,2.55-1.78,1.58-.89,3.2-1.66,4.84-2.41,.87-.35,1.76-.69,2.65-.95,0,0,0-.02,.02-.01,8.38-1.67,16.98-1.89,25.59-1.73,2.54,.68,5.14,1.09,7.74,1.41,2.6,.33,5.17,.31,7.78,.27-.08,0-.19,0-.27,0,2.91-.01,5.82,.34,8.73,.47,2.45,.1,4.87-.07,7.33-.13,.54,0,1.09,.02,1.63,.05,1.46,.45,2.84,1.08,4.09,1.96,6.14-.17,12.29-.08,18.44-.03,2.25,.28,4.49,.44,6.75,.59-.05,0-.1,0-.15,0,.06,0,.11,0,.16,0,.07,0,.15,0,.22,.01,.06,0,.12,.01,.18,.02,.31,0,.63,.02,.93,.05-.3-.02-.62-.04-.92-.06,1.82,.09,3.65,.15,5.49,.24,1.68,.16,3.37,.45,5.06,.65,2.09,.23,4.16,.21,6.25,.29,2.77,.23,5.5,.68,8.27,.81,2.49,.11,4.98,.02,7.48,.1,3.85,.26,7.64,.93,11.5,1.22,.17,.03,.36,.03,.53,.06,.38,.04,.76,.06,1.13,.06,4.36,5.78,2.86,15.3-4.36,18.52-3.65,1.78-7.83,1.44-11.78,1.66-2.79,2.77-6.53,3.56-10.32,3.37-8.8,.14-17.56,1.34-26.39,1.11-7.85-.5-17.95,2.92-23.41-4.48-11.78,.3-23.49,1.65-35.26,1.99-5.79,1.16-12.69,.42-15.96-5.12-1.15,.17-2.25,.65-3.32,1.08-1.03,4.55-1.81,9.12-.17,13.64,1.93,11.09-9.13,16.58-16.98,13.23-3.19-1.36-5.87-4.22-6.89-8.75Z"/>
    <path d="M680.74,308.87s.01-.02,.02-.03c0,.01-.02,.02-.02,.03h0Z"/>
    <path d="M680.94,308.61c-.05,.08-.1,.14-.17,.21,.06-.07,.12-.14,.17-.21Z"/>
    <path d="M680.99,308.55s-.03,.04-.04,.05c.01-.02,.03-.04,.04-.05Z"/>
    <path d="M700.42,293.42s0,0,0,0c0,0,0,0,0,0,.05-.01,.1-.03,.16-.04,.04,0,.07-.01,.11-.02h0c-.25,.06-.49,.12-.72,.19,.15-.04,.3-.08,.45-.13Z"/>
    <path d="M687.87,489.27c-.17-.09-.35-.19-.52-.28-.52-.39-1.01-.76-1.51-1.2-.25-.23-.51-.5-.77-.76-.86-1.13-1.6-2.29-2.6-3.33-.86-.88-1.8-1.72-2.6-2.65,.3,.36,.6,.73,.9,1.08-.89-1.06-1.74-2.02-2.68-2.96-4.37-8.75-3.8-18.94-3.63-28.52-3.67-4.64-6.49-11.18-4.59-17.03-2.84-18.33,1.36-38.72,1.69-56.7,0-10.25-.4-20.52,1.28-30.65-.91-11.31,5.54-24.54,18.65-18.54,1.66-7.08,6.86-12.51,12.02-17.3,4.5-6.74,14.57-8.34,20.08-2.03,8.48-3.78,19.42-8.54,27.32-1.4,16.74-6.47,36.62-11.7,53.26-2.52,7.65,5.12,6.43,17.36-1.84,21.17-1.91,.57-3.94,1.1-6.04,1.55-1.21-.39-2.46-.76-3.71-1.07-1.78-.43-3.59-.73-5.4-.82-1.59-.08-3.12,.05-4.66,.2-.02,0-.03-.01-.06,0-.08-.01-.14-.02-.22-.01-2.01-.16-3.99-.26-6.08-.14-1.84,.1-3.6,.4-5.41,.7-.13,0-.27,0-.4,.02t-.04,0c-2.02,.11-3.99,.26-6.01,.65-1.85,.32-3.63,.87-5.43,1.42-1.22,.3-2.47,.57-3.69,.96-1.47,.49-2.79,1.18-4.17,1.85-1.01,.38-2.03,.7-3.01,1.21-1.36,.72-2.56,1.57-3.79,2.46-.13,.07-.25,.14-.38,.21,.11-.06,.21-.1,.3-.16-.03,.03-.06,.04-.09,.06-3.58,1.98-6.8,4.38-10.24,6.6,.28-.17,.53-.33,.79-.51-2.07,1.38-3.64,2.88-5.35,4.77,.32-.36,.63-.7,.95-1.06-1.15,1.28-2.42,2.49-3.64,3.7-1.06,1.09-2.15,2.14-3.12,3.31-.81,.98-1.47,2.09-2.21,3.14-2.53,3.66-4.96,7.51-7.15,11.4-1.48,2.56-3.02,5.04-4.12,7.83-.76,1.92-1.37,3.85-1.97,5.82-.07,.22-.12,.42-.18,.62-.06,.18-.11,.35-.16,.53,.06-.14,.09-.27,.14-.42-.42,1.51-.63,2.97-.85,4.5-.25,1.46-.59,2.92-.98,4.38,.14-.48,.26-.96,.41-1.44-.87,3.09-1.2,5.9-1.47,9.1l.14-1.49c-.04,.62-.09,1.24-.12,1.89-.41,.18-.82,.33-1.25,.48,.26,1.9,.41,3.82,.53,5.77-.06,1.15-.03,2.3,.11,3.47,.03,.22,.06,.44,.07,.65,.17,4.01,.34,8,1.07,11.94,3.36,10.24,8.21,18.88,15.3,26.28,10.93,11.22,21.64,21.52,37.72,22.4,12.61,3.07,12.44,21.3-.47,23.82-5.35,.32-10.63-.06-16.01-.07,1.06,2.64,1.12,5.15,.46,7.42-.91-.11-1.82-.22-2.72-.35-3.14-.52-6.22-1.17-9.34-1.69-3.06-.55-6.11-1.02-9.12-1.78,0,0,0,0,0,0-.03,0-.07-.02-.1-.03,.02,0,.04,0,.05,.01-.08-.02-.16-.04-.24-.05,.19,.05,.38,.09,.57,.14,0,0,0,0,.01,0,0,0,0,0,0,0,.26,.07,.53,.14,.78,.21-2.56-.67-5.13-1.32-7.7-1.98,0,0,0,0-.01,0-.02,0-.03,0-.05-.01-.14-.04-.29-.07-.43-.11,.05,.02,.09,.03,.13,.04-.1-.02-.2-.05-.3-.07,.13,.03,.24,.06,.37,.1-.02,0-.05-.02-.07-.02,.1,.02,.2,.05,.3,.07l.06,.02c.07,.03,.14,.04,.2,.07,.17,.03,.34,.08,.5,.13-2.26-.59-4.48-1.11-6.77-1.38-1.87-.28-3.73-.58-5.62-.83,.07,0,.13,.02,.2,.02,.09,.01,.19,.02,.28,.04-.09-.02-.19-.03-.28-.04-.29-.04-.57-.07-.86-.11-.1-.01-.19-.02-.29-.04,.1,.01,.19,.02,.29,.04,.15,.02,.3,.04,.45,.06-1.48-.16-2.93-.24-4.39-.2-.16,0-.35,0-.51-.01-.08-.01-.16,0-.24-.02-.56-.09-1.12-.19-1.68-.26,.06,0,.14,.02,.2,.02-.14-.02-.29-.04-.42-.08,.07,.01,.15,.02,.23,.04,.03,0,.06,.01,.09,.02-.03,0-.06-.01-.09-.02-.16-.03-.31-.05-.47-.07-.02,0-.05,0-.07-.01-.04,0-.08,0-.11-.01-.03,0-.06-.01-.09-.02,.02,0,.04,0,.05,0l-.11-.02s-.08-.01-.12-.02l.12,.02s.04,0,.06,.01c-.08,0-.15-.02-.22-.03,.01,0,.03,0,.04,0l-.11-.02s-.04,0-.06-.01c-.03,0-.06,0-.1-.01l-.19-.03s.07,.01,.11,.02c0,0,0,0-.01,0,.21,.04,.42,.07,.64,.1,.04,0,.09,.02,.13,.02,.02,0,.03,0,.05,0,.05,.01,.1,.02,.15,.03,0,0-.02,0-.03,0-.07-.01-.13-.02-.2-.03-.01,0-.03,0-.04,0,0,0,.02,0,.03,0-.07-.01-.14-.02-.21-.02-.73-.13-1.42-.24-2.14-.34,.23,.04,.47,.06,.72,.1-.91-.16-1.84-.31-2.78-.45-1.03-.48-2.05-.97-3.06-1.46Z"/>
    <path d="M694.81,491.34s.02,0,.03,0h-.07s.03,0,.05,0Z"/>
    <path d="M695.56,491.48l.09,.02s-.04,0-.06-.01c.04,0,.07,0,.1,0,.02,0,.03,.01,.05,.02-.08-.01-.15-.02-.23-.04,.02,0,.03,0,.05,0Z"/>
    <path d="M744.26,334.6c.26-.13,.55-.28,.82-.41-.28,.15-.57,.3-.88,.46,.02-.01,.04-.03,.06-.05Z"/>
    <path d="M770.31,326.07s.03,0,.04,0c-.1,0-.21,.02-.32,.02,.09,0,.19-.02,.27-.02Z"/>
    <path d="M770.36,326.07s.06,0,.09,0c-.03,0-.06,0-.09,0,0,0,0,0,0,0Z"/>
    <path d="M770.59,326.06s-.02,.01-.04,0c-.03,0-.06,0-.08,0,.04,0,.09,0,.13,0Z"/>
    <path d="M770.73,326.06c.07,0,.13,0,.2,0-.07,0-.14,0-.21,0,0,0,0,0,0,0Z"/>
    <path d="M753.25,428l-.51-.22-1.03-.44c-.69-.27-1.38-.55-2.02-.86-.09-.04-.17-.09-.25-.15-1.39-1.05-2.75-2.12-4.16-3.16l-.4-.36c-.31-.3-.61-.61-.91-.9-.01-.02-.04-.04-.05-.06,.08,.1,.19,.18,.29,.29l-.43-.43s-.08-.1-.14-.14c-.07-.07-.14-.14-.21-.23-.49-.68-.88-1.43-1.45-2.06-.31-.35-.63-.69-.95-1.02-7.93-13.4-5.73-30.87,2.5-44.24,.07-.08,.13-.16,.2-.24,0,0,.01,0,.01-.02,0,0,0,.01-.01,.02,0,0,0,0-.01,0,.02-.02,.03-.04,.05-.06,.02-.02,.04-.05,.06-.07-.02,.02-.04,.05-.06,.07-.02,.02-.04,.04-.06,.06-.03,.04-.06,.07-.09,.11-.02,.02-.03,.04-.05,.06,0,0,0,0-.01,.01,0,0,0,0,0,0,0,0,0,0,0-.01,.54-.64,1.06-1.3,1.61-1.96,.86-.89,1.75-1.77,2.56-2.72,.53-.62,.99-1.27,1.51-1.89,.41-.38,.84-.76,1.27-1.13,.93-.74,1.85-1.48,2.78-2.22-.02,.02-.04,.03-.06,.04,.45-.35,.91-.66,1.39-.94,1.16-.68,2.31-1.36,3.47-2.05,.21-.11,.43-.23,.66-.34,1.17-.47,2.34-.94,3.49-1.42-.13,.07-.27,.11-.41,.18,.25-.1,.5-.2,.76-.29,1.98-.49,4.03-.88,6.05-1.23,1.1-.15,2.22-.27,3.33-.31,.6-.01,1.19-.03,1.78-.02,.58,0,1.15,.02,1.73,.06,.04,0,.07,0,.11,.01,0,0,0,0-.01,0,.02,0,.04,0,.06,0,.03,0,.05,0,.08,.02h-.02s.07,0,.11,0c-.03,0-.06,0-.09,0,.06,0,.12,.01,.18,.02,.29,.04,.57,.07,.86,.11,2.38,.31,4.77,.85,7.12,1.44,1.83,.47,3.7,.97,5.49,1.63,.72,.35,1.45,.72,2.16,1.13,1.72,1,3.43,2.1,5.01,3.33,.69,.65,1.35,1.34,2.02,1.99,.89,.87,1.83,1.65,2.81,2.41,.42,.37,.82,.74,1.21,1.13,1.49,1.69,2.89,3.52,4.22,5.34,.07,.11,.15,.23,.22,.36,.99,1.99,1.9,4.05,2.76,6.09-.17-.42-.36-.85-.55-1.28,.52,1.21,1.13,2.38,1.66,3.55,.14,.35,.27,.67,.39,1.03,.36,1.53,.59,3.13,.81,4.69-.01-.07-.02-.15-.03-.21,.01,.08,.03,.17,.04,.25,.02,.11,.03,.21,.05,.32,0-.06-.01-.12-.02-.18,.1,.65,.21,1.29,.32,1.96,.02,.15,.03,.32,.04,.49,0,1.5,.02,3,.04,4.51,.02,2.56-.04,5.18-.3,7.75,0,.06-.02,.14-.03,.21-.2,.86-.42,1.72-.65,2.59l-2.78,7.97c-.39,1.07-.9,2.11-1.4,3.14,.03-.07,.07-.11,.1-.18-.04,.09-.1,.18-.14,.27l.04-.09c-.05,.12-.12,.24-.17,.36,.03-.06,.06-.12,.09-.18-.11,.22-.22,.44-.32,.67,.08-.16,.15-.33,.23-.48-.19,.38-.39,.77-.58,1.16-.31,.64-.65,1.28-1,1.92-.76,.67-1.53,1.31-2.3,1.97,.37-.29,.73-.6,1.1-.89-1.57,1.27-3.06,2.59-4.56,3.91-.04,.04-.09,.06-.13,.11-.52,.29-1.06,.57-1.59,.84,.11-.06,.23-.12,.34-.17-.93,.43-1.89,.84-2.83,1.23-.05,.02-.12,.03-.17,.07l.12-.05c.09-.02,.17-.07,.27-.09-.02,0-.03,.01-.05,.02l.05-.02s.02,0,.02-.01c.07-.03,.15-.06,.24-.08-.11,.04-.22,.08-.33,.12,0,0,0,0,.01,0,0,0,0,0-.01,0-.07,.02-.13,.05-.2,.07-.05,.02-.1,.04-.15,.06,0,0,.02,0,.02-.01-.23,.07-.46,.16-.7,.24,.15-.05,.29-.1,.43-.15h0s.04,0,.06-.02c.01,0,.02,0,.03,0-1.06,.4-2.08,.83-3.13,1.25-.17,.05-.35,.1-.52,.15-2.14,.43-4.31,.74-6.43,1.11-.81,.11-1.61,.2-2.4,.26,.34-.02,.67-.02,1.01-.04-.34,.02-.69,.03-1.03,.05h0s.01,0,.02-.01c-.01,0-.02,0-.02,0h-.03s-.06,0-.08,0c.03,0,.05,0,.08,0,0,0,.02,0,.02,0-.14,0-.3,.02-.44,.02,.02,0,.04,0,.07,0,.09,0,.18,0,.27-.01-.1,0-.19,0-.27,.01-1.09,.05-2.18,.12-3.27,.21-2.17,.11-4.32,.22-6.47,.37,.36-.03,.72-.06,1.09-.08,.13,0,.26-.02,.39-.03-.13,0-.26,.02-.39,.03-.77,.04-1.53,.03-2.29-.02-.94-.07-1.88-.14-2.79-.26-1.58-.3-3.18-.72-4.75-1.14h.03c-.84-.2-1.66-.45-2.47-.71-1.16-.41-2.33-.83-3.51-1.25,.44,.17,.89,.32,1.32,.48-.56-.2-1.13-.4-1.68-.61l.1,.04c-.51-.18-1-.38-1.5-.59-.99-.42-1.96-.88-2.95-1.3Z"/>
    <path d="M795.4,430.02s-.08,.02-.11,.04c0,0-.02,0-.02,0-.02,0-.03,0-.04,.01-.02,0-.04,.01-.06,.02,.07-.03,.15-.06,.24-.08Z"/>
    <path d="M795.4,430.02c.05-.02,.1-.04,.15-.06-.06,.02-.13,.05-.19,.07,.01,0,.03-.01,.04-.02Z"/>
    <path d="M796.88,429.48c-.29,.1-.61,.22-.9,.32,.29-.1,.59-.22,.9-.32Z"/>
    <path d="M806.47,421.23c-.03,.06-.06,.13-.09,.19,.03-.07,.06-.13,.09-.19Z"/>
    <path d="M808.44,417.23c-.04,.1-.08,.23-.13,.36,.03-.13,.09-.25,.13-.36Z"/>
    <path d="M743.54,373.96s0,0,0,0c0,0,0,0,.01-.01,.02-.02,.03-.04,.05-.05-.02,.03-.05,.06-.07,.09,0,0,0,0,0-.02Z"/>
    <path d="M743.7,373.78s0,0,0,0c-.02,.03-.04,.05-.07,.08,.02-.02,.03-.04,.06-.07Z"/>
    <path d="M812.49,397.93l.02,1.12c-.02-.38-.03-.75-.02-1.12Z"/>
    <path d="M753.85,363.56s-.02,.01-.03,.03c-.07,.05-.15,.08-.22,.12,.08-.05,.17-.11,.25-.15Z"/>
    <path d="M753.88,363.55l.66-.4c-.23,.15-.46,.3-.7,.42,0-.02,.02-.01,.03-.03Z"/>
    <path d="M775.22,357.68c-.2-.02-.39-.04-.61-.07,.2,.02,.41,.05,.61,.07Z"/>
    <path d="M775.61,357.73s.02,0,.02,0c0,0-.02,0-.02,0,0,0,0,0,0,0-.01,0-.02,0-.04,0,.01,0,.02,0,.03,0Z"/>
    <path d="M775.66,357.73s.01,0,.02,0h.01s-.03,0-.05,0c0,0,.01,0,.02,0Z"/>
    <path d="M775.67,357.73s0,0-.01,0c0,0-.02,0-.02,0,.01,0,.03,0,.04,0Z"/>
    <path d="M776.05,357.77c-.05,0-.1,0-.14,0l-.16-.02c.1,0,.21,.02,.3,.03Z"/>
    <path d="M776.19,357.79s-.07,0-.11-.01c.04,0,.07,0,.11,.01Z"/>
    <path d="M777.38,357.94c-.34-.04-.69-.09-1.04-.13,.35,.04,.7,.09,1.04,.13Z"/>
    <path d="M784.84,359.57c-.05-.01-.11-.03-.16-.04,.05,.01,.11,.03,.16,.04Z"/>
    <path d="M847.61,408.41c-.63-.76-1.14-1.55-1.56-2.35,.52-2.18,.88-4.4,1.1-6.67,.24-2.39,.42-4.79,.12-7.19-.16-1.26-.37-2.51-.52-3.77-.18-2.48-.42-4.89-.92-7.31,.04,.18,.08,.36,.11,.53l-.14-.68c-.02-.09-.04-.18-.06-.27-.03-.14-.06-.27-.1-.41,.03,.14,.06,.27,.1,.41,.01,.06,.03,.12,.04,.17-.23-.95-.48-1.92-.68-2.88-.17-.86-.32-1.72-.47-2.57-.35-1.75-.83-3.38-1.41-5.04,.08,.23,.16,.46,.24,.68-.15-.44-.29-.87-.4-1.3-.03-.15-.06-.29-.1-.43,.03,.15,.06,.29,.1,.43,.03,.14,.06,.29,.09,.43v-.02s0,.02,0,.02c0,.01,0,.02,.01,.03,.03,.16,.07,.31,.1,.49-.05-.18-.07-.36-.12-.55-.64-2.79-1.58-5.25-2.91-7.78,.12,.24,.26,.46,.38,.7-.16-.34-.35-.67-.54-1-.02-.04-.04-.08-.07-.13-.02-.05-.04-.09-.08-.13-.05-.09-.11-.19-.16-.28l-.58-1.11c.09,.18,.18,.35,.27,.53-1.12-2.06-2.38-3.9-3.74-5.84,.29,.39,.57,.8,.85,1.21-.73-1.05-1.36-2.19-2.14-3.2-.75-1-1.61-1.88-2.48-2.79-.05-.05-.1-.11-.14-.17-.05-.06-.09-.12-.14-.18-.02-.03-.05-.06-.07-.09,.02,.03,.04,.06,.07,.09,.04,.06,.09,.12,.14,.18,.02,.02,.03,.04,.04,.06h-.03c-.97-1.32-2.03-2.51-3.14-3.68-.25-.27-.51-.54-.77-.81-.16-.17-.32-.34-.48-.51,.16,.17,.32,.34,.48,.51,.05,.05,.09,.1,.14,.15-.01-.01-.03-.03-.04-.04,.02,.02,.04,.04,.06,.06,.04,.04,.07,.08,.11,.12,.01,.02,.03,.03,.04,.05-.95-1-1.8-1.82-2.85-2.7-2.17-1.79-4.38-3.45-6.69-5.07-.01-.05-.02-.1-.03-.15-.05,0-.1,0-.15,.01-.17-.12-.35-.24-.52-.36,.08,.05,.18,.12,.26,.17-.03-.02-.07-.05-.1-.08,.1,.07,.2,.15,.31,.22-.11-.08-.21-.15-.31-.22-.13-.09-.26-.18-.38-.28-.05-.04-.09-.07-.14-.1-.9-.61-1.74-1.14-2.73-1.71,.3,.17,.59,.34,.89,.51-3.14-1.85-6.33-3.64-9.63-5.21-3.03-6.71-.68-15.99,8.67-17.84,8.42-.37,18.09,3.22,23.5,9.86-1.46,2.94-2.14,6.26-1.6,9.42-.38,4.17,1.13,8.77,4.2,11.61,1.02,.95,2.07,1.71,3.21,2.34,1.13,1.45,2.61,2.62,4.31,3.34,1.06,.45,2.2,.73,3.4,.79,3.01,.15,5.8-.54,8.57-1.62,2.8-1.2,5.53-2.77,7.36-5.31,9.37-3.88,21.44,3.39,17.57,15.27-1.36,4.26-5.54,5.68-7.24,9.57-3.61,10.6-1.58,22.36-7.3,32.39-2.68,8.36-11.07,14.02-18.52,10.84-1.62-.69-3.18-1.79-4.64-3.38Z"/>
    <path d="M845.78,380.88s.02,.07,.02,.1c.01,.05,.02,.1,.03,.14-.02-.08-.04-.16-.05-.25Z"/>
    <path d="M839.92,361.85s.05,.08,.07,.12c.01,.02,.02,.05,.03,.07-.03-.06-.07-.13-.1-.2Z"/>
    <path d="M839.91,361.83s0,0,0,.01c0,0,0,0,0,0,0,0,0-.01-.01-.02Z"/>
    <path d="M828.06,345.93s-.01-.02-.02-.02c.02,.02,.05,.05,.07,.08-.02-.02-.03-.03-.05-.05Z"/>
    <path d="M817.43,337.45s.1,.07,.16,.1c.05,.03,.09,.07,.14,.1,.03,.02,.06,.05,.09,.08-.12-.09-.26-.19-.39-.28Z"/>
    <path d="M817.23,337.32s.08,.05,.13,.08c-.04-.03-.08-.06-.13-.08Z"/>
    <path d="M850.01,348.37c.26,.03,.51,.05,.79,.09-.47-.06-.93-.09-1.4-.14,.2,.02,.42,.03,.62,.06Z"/>
    <path class="cls-1" d="M791.57,506.4s-.06,0-.09,0c.03,0,.06,0,.09,0Z"/>
    <path class="cls-1" d="M803.69,506.49s.03,0,.05,0c-.02,0-.04,0-.06,0,0,0,0,0,0,0Z"/>
    <path class="cls-1" d="M805.84,506.63c-.06,0-.12,.01-.18,.02-.1,0-.22-.01-.32-.01-.44-.02-.89-.05-1.32-.09-.09-.01-.18-.03-.26-.04,.7,.04,1.4,.08,2.09,.13Z"/>
    <path class="cls-1" d="M803.82,506.51s-.01,0-.02,0c0,0,.01,0,.02,0Z"/>
    <path class="cls-1" d="M887.96,325.16c.06,.21,.11,.42,.16,.63,.03,.07,.04,.16,.05,.23l.06,.58c0-.16-.03-.31-.04-.47,0,0,0,0,0,0,.15,1.67,.34,3.32,.56,4.96-.02-.09-.03-.18-.05-.27,.04,.29,.08,.59,.11,.89,.03,.22,.06,.44,.07,.65,.02,.15,.02,.3,.04,.45,0,.29,.02,.59,.04,.88,0,.09,0,.18-.01,.28-.26-2.95-.59-5.89-1-8.81Z"/>
    <path class="cls-1" d="M888.97,333.31c0-.27,0-.52,0-.78v.87s0,.03,0,.04c0-.04,0-.09,0-.13Z"/>
    <path class="cls-1" d="M888.14,325.67s0,.03,0,.05c0-.02,0-.03,0-.05Z"/>
    <path class="cls-1" d="M888.09,325.12c0,.07,.01,.14,.02,.21,0-.07-.02-.14-.02-.21Z"/>
    <path class="cls-1" d="M842.88,296.12c2.43,.31,4.84,.68,7.24,1.13-1.44-.18-2.87-.37-4.28-.59-1.07-.11-2.12-.2-3.19-.31,.08-.08,.15-.15,.23-.23Z"/>
    <path class="cls-1" d="M848.94,295.39l.23,.04c-.2-.02-.42-.03-.62-.06,.12,0,.26,.03,.38,.02Z"/>
    <path class="cls-1" d="M883.1,308.92s.04,.04,.06,.06c-.02-.02-.04-.04-.06-.06Z"/>
    <path class="cls-1" d="M883.05,308.86s0,0,0,0c0,0,0,0,0,0Z"/>
    <path class="cls-1" d="M852.77,295.9s-.02,0-.02,0c0,0,.02,0,.02,0Z"/>
    <path class="cls-1" d="M853.05,295.94s-.06,0-.09-.01c.03,0,.06,0,.09,.01Z"/>
    <path class="cls-1" d="M864.21,297.32s-.03,0-.05,0c-.02,0-.06,0-.08-.01,.05,0,.09,0,.13,.02Z"/>
    <path class="cls-1" d="M864.28,297.33s-.01,0-.02,0c0,0,0,0,.02,0Z"/>
    <path class="cls-1" d="M864.49,297.36s.09,.02,.14,.03c0,0,0,0,0,0-.1-.01-.21-.04-.32-.05,0,0,0,0-.01,0,.07,0,.13,.01,.19,.02Z"/>
    <path class="cls-1" d="M864.63,297.39s0,0,.01,0c0,0,0,0-.02,0,0,0,0,0,0,0Z"/>
    <path class="cls-1" d="M864.64,297.39s.02,0,.04,0h0s-.03,0-.04,0c0,0,0,0,0,0Z"/>
    <path class="cls-1" d="M864.64,297.39h0s0,0,0,0c0,0,0,0,0,0Z"/>
    <path class="cls-1" d="M722.54,289.99s.08,.05,.12,.07c-.44-.04-.89-.09-1.33-.13,.4,.02,.81,.04,1.21,.06Z"/>
    <path class="cls-1" d="M672.22,305.39h0s0,0,0,0h0Z"/>
    <path class="cls-1" d="M684.73,291.36h0s0,0,0,0c0,0,0,0,0,0Z"/>
    <path class="cls-1" d="M767.37,465.23c2.55,.11,5.1,.33,7.65,.53,.41,.08,.82,.15,1.23,.21,.5,.08,1.01,.15,1.51,.21-3.63,0-7.28-.33-10.88-.97l.49,.02Z"/>
    <path class="cls-1" d="M772.48,442.51s-.09-.03-.13-.05c.04,.01,.09,.03,.13,.05Z"/>
    <path class="cls-1" d="M774.01,442.93c-.24-.06-.48-.12-.7-.2,.22,.05,.46,.13,.7,.2Z"/>
    <path class="cls-1" d="M821.61,373.79s0,.01,.01,.02h0s0-.01-.01-.02Z"/>
    <path class="cls-1" d="M787.34,347.28h0s0,.01,0,.01c0,0,0,0,0-.01Z"/>
    <path class="cls-1" d="M837.9,324.03c-1.18,2.72-1.68,5.7-1.19,8.56-.02,.26-.04,.52-.05,.78-.74-3.3-.21-6.54,1.24-9.33Z"/>
    <path class="cls-1" d="M855,334.85h0s-.08,0-.12,.01c.04,0,.08,0,.12-.01Z"/>
    <path d="M758.62,435.48c-18.13-6.02-30.61-25.9-25.61-44.75,3.21-35.9,50.67-55.68,76.53-29.44,12.68,14.05,16.37,36.27,9.2,53.74-11.8,21.51-37.63,33.43-60.18,20.43,0,0,.06,.03,.06,.02Zm10.44-3.58c1.92,.57,3.82,1.06,5.77,1.43,.24,.03,.47,.07,.71,.09,0-.02,0-.05-.01-.07-.02-.2-.03-.39-.03-.58-1.12-.83-2.72-1.04-3.51-2.31-5.36-.28-8.55-6.54-7.07-11.37-.64,.84-1.63,1.35-2.72,1.6-.25,.06-.51,.09-.77,.11,2.54,1.95,1.75,6.12-1.02,7.5,2.85,1.31,5.63,2.74,8.65,3.59Zm20.35,.11c2.06-.8,4.02-1.74,5.83-3.02-.23-.06-.45-.14-.66-.24-1.45,1.5-3.33,2.36-5.17,3.25Zm-17.16-9.08c.61-1.27,1.86-1.97,2.65-3.03-.17-.13-.33-.27-.5-.4-.01,0-.02-.02-.03-.02-.11,0-.23-.02-.34-.03-.1,0-.21-.02-.31-.03-1.21,.71-2.56,2.15-1.48,3.52Zm-6.71-5.2c.25-.43,.51-.83,.8-1.22-.3-.21-.59-.43-.87-.66,.18,.61,.21,1.26,.07,1.88Zm-2.9-4.83c-3.37-3.89-4.3-9.9-1.59-14.36-.12-.45-.24-.89-.36-1.34-2.05,.49-3.87,1.54-5.56,2.76,1.17,4.87,3.55,9.75,7.51,12.94Zm-21.94-16.82c.2,.18,.37,.36,.52,.56,.86-1.43,1.22-3.34,2.71-4.31,2.26-9.53,8.18-17.39,13.69-25.18,.97-2.27,2.42-5.09,4.36-6.45-13.09,6.4-21.46,20.35-22.35,34.68,.39,.17,.75,.4,1.08,.69Zm55.6,19.68c.33,.33,.63,.64,.9,1.04,.06,.08,.11,.16,.16,.24,3.14-2.64,4.9-7.39,8.85-8.75,.84-4.04-1.07-8.76,2.51-11.51,.1-3-.8-6.04-.4-9-.71-2.58-1.32-5.18-2-7.78-.9-.49-1.62-1.28-2.13-2.16-.28-.48-.53-.97-.77-1.46-4.17-1.36-6.36-8.04-9.84-11.1-1.76,.13-2.65-1.55-4.14-2.07-4.86-.43-9.59-3.97-14.4-1.67,3.47,2.75,.71,6.82-.81,9.74-3.3,6.1-8.28,11.62-7.42,19.05,1.01,.31,1.99,.73,2.92,1.22,6.17-4.89,16.04-3.95,21.9,1.05,6.32,5.63,3.2,14.69,.43,21.36,1.51,.18,3.12,.75,4.25,1.81Zm-18.69-17.48c1.72,2.1,3.05,4.56,4.11,7.05,.38,.89,.69,1.82,.95,2.78,3.75-5.88,2.41-14.95-6.29-11.29,.42,.49,.83,.98,1.23,1.47Zm-22.83-6.63c1.5-.73,3.07-1.29,4.71-1.65-.23-6.41,2.04-12.69,5.74-17.88-7.16,3.85-7.99,12.63-10.46,19.53Z"/>
    <path d="M807.25,473.95c.05-.39,.15-.74,.28-1.07-13.31-4.55,12.19-16.45,16.81-18.35,4.87-3.55,8.95-7.78,12.55-12.49,2.6-2.37,4.36-5.15,6.68-7.72,1.03-2.94,4.44-6.22,7.39-3.49,1.98,1.84,1,4.42-.62,6.11-3.17,5.43-8.06,9.83-11.89,14.61,6.14,4.58-3.37,9.96-7.03,12.44,6.12,6.06-5.9,9.49-10.34,10.69-4.05,1.3-13.28,6.78-13.83-.73Z"/>
    <path d="M861.44,481.98c.68-1.79,2.87-2.9,4.7-2.12s2.84,2.78,2.12,4.7c-.68,1.79-2.87,2.9-4.7,2.12s-2.84-2.78-2.12-4.7Z"/>
    <path d="M798.84,468.69c-.87-2.76,1.51-4.1,3.49-5.28,4.32-2.59,8.7-5.31,12.31-8.89,17.84-17.81,31.35-40.82,34.28-66.06,1.01-4.57,8.2-2.98,7.11,1.61-3.25,25.86-16.81,50.28-35.19,68.35-2.74,3.39-6.68,6.12-10.26,8.32-3.16,2.2-9.28,7.68-11.73,1.95Z"/>
    <path d="M752.12,473.59c-4.15-1.45-4.58-6.93,.08-7.93,7.19-.82,14.46,1.16,21.71-.24,15.75,.52,31.22-2.33,42.33-14.31,2.75-2.86,8.25-5.17,10.25-.31,4.38,7.01-16.58,15.11-21.45,17.51-7.84,4.3-16.45,6.23-25.24,7.4-8.8,2.01-19.98,3.49-27.69-2.12Z"/>
    <path d="M681.03,246.58c.11-1.95,1.87-3.57,3.85-3.41,7.7,.24,15.38,1.41,23.02,1.47,11.39,.45,22.61,2.1,33.95,2.77,16.05,3.33,32.35,5.79,48.7,6.93,1.11-1.32,3.1-1.4,4.76-1.14,7.63,1.31,15.93,1.79,23.27,3.82,13.44,1.86,26.58,4.97,39.9,7.37,1.54,.34,3.33,.44,4.41,1.7,5.65,.77,10.97,2.79,16.59,3.63,1.61,.28,2.86,1.71,2.95,3.32-.02,5.47-6.56,3.7-9.97,2.76-.49,.21-1.04,.31-1.62,.24-6.33-.74-12.57-2.09-18.81-3.37-4.64,2.32-10.38-1.06-15.13-.96-13.93-1.9-27.75-1.72-41.21-4.87-1.23,.01-2.4-.04-3.45-.88-1.29-1.02-1.55-2.75-.99-4.16-23-1.4-45.25-7.04-68.15-8.82-8.57-.63-17.4-.85-25.93-1.82-4.54-1.14-15.81,1.91-16.15-4.58Z"/>
    <path d="M708.99,296.35c-2.88-1.32-2.66-5.72,.37-6.73,3.21-1.04,6.65,.18,9.95-.5,16.18-.58,32.38,.34,48.55,1.02,25.01,2.46,50.32,1.95,75.06,5.48,9.56,1.66,19.33,2.21,28.31,6.09,4.22,2.08,1.17,8.6-3.13,6.56-3.92-1.21-7.72-3.08-11.9-3.2-3.59,2.79-9.11,1.09-13.26,.56-11.17-1.05-22.89-.74-33.93-2.14-23.8-1.07-47.48-3.25-71.02-6.07-5.64,.12-11.14-.63-16.73-1.16-4.05,.64-8.28,1.04-12.27,.07Z"/>
    <path d="M874.44,313.48c-2.57-2.09-7.26-1.96-8.23-5.68-2.64-2.47,.29-7.27,3.75-5.95,2.12,.62,4.16,1.92,5.87,3.25,1.49,.88,3.46,1.48,4.56,2.98,2.67,3.8-2.44,8.01-5.95,5.4Z"/>
    <path d="M690.83,491.01c-4.17-2.67-6.11-7.25-8.54-11.32-2.84-2.07-3.08-5.51-4.69-8.32-2.17-4.18,4.36-7.53,6.5-3.29,1.05,1.52,1.58,3.24,2.01,5.01,3.01,2.7,4.26,6.69,6.62,9.93,2.82,3.56,7.63,3.55,11.39,5.52,12.03,4.33,24.73,6.54,37.04,9.05,15.29,2.94,31.29,2.53,46.74,3.35,13.38-2.1,26.87-4.7,40.32-5.19,2.92-.44,6.76-2.34,8.17,1.44,2.2,8.73-20.37,5.14-25.89,7.72-7.55,.37-14.39,2.53-21.87,3.27-6.99,.27-13.31-.75-20.22-.75-16.45-.31-32.89-2.66-48.71-7.08-9.9-1.85-19.75-5.03-28.87-9.32Z"/>
  </g>
</svg>