<?xml version="1.0" encoding="UTF-8"?>
<svg xmlns="http://www.w3.org/2000/svg" viewBox="0 0 790.46 787.15">
  <defs>
    <style>
      .cls-1 {
        fill: #fff;
      }

      .cls-2 {
        fill: #f3c25f;
      }
    </style>
  </defs>
  <g id="Vektorebene-3" data-name="Vektorebene">
    <path class="cls-2" d="M250.38,714.97c-63.26,9.99-123.56-50.66-113.92-114.32-46.61-5.41-84.3-40.84-91.73-88.29-4.33-27.64,3.88-54.77,17.75-78.43-89.19-56-46.32-153.14,5.66-219.45,35.83-45.93,73.48-91.66,124.15-121.91,58.49-49.57,104.96-109.48,185.99-56.64,46.85-42.98,127.15-40.01,161.98,16.43,62.3-38.02,151.25,4.76,156.58,78.54,62.69,10.12,101.89,86.77,71.78,143.46,29.19,45.36,15.87,104.5-23.5,139.17,22.67,43.67,6.05,94.91-27.1,128.09-29.36,48.78-70.67,87.97-109.04,129.54-63.95,61.12-113.09,149.81-212.06,81.6-48.26,32.1-119.45,13.36-146.53-37.79Z"/>
  </g>
  <g id="Vektorebene-4" data-name="Vektorebene">
    <path d="M248.19,531.5c-31.52-14.47-36.36-53.55-40.62-84.21-6.42-36.43-4.12-73.22-2.79-109.83,1.33-35.35,1.25-70.95,11.22-105.06,4.57-16.81,15.79-29.74,28.33-41.07-.68-6.6,14.45-6.81,18.88-8.94,16.89-6.11,34.34-10.8,52.28-12.49,48.61-4.2,97.57-8.86,146.3-3.86,35.92,2.11,79.18,4.73,103.45,34.91,6.85,12.45,6.57,27.55,8.61,41.22,1.93,13.69,4.43,27.34,5.97,41.07,2.7,32.55-.86,65.47-.8,98.04,.13,40.93,3.73,84.59-14.96,122.17-28.16,40.03-84.17,32.09-127.12,37.26-62.74,2.54-128.13,11.45-188.73-9.21Zm11.99-3.45c56.25,14.44,114.55,8.54,171.83,5.59,40.29-4.83,93.09,2.47,122.97-29.75,19.41-31.34,16.25-71.36,17.14-106.71-1.64-35.42,2.74-71.1,.88-106.39-.75-13.44-3.33-26.37-5.22-39.63-2.71-14.61-2.27-29.77-7.39-43.69-15.9-24.49-51.85-30.61-78.85-32.74-44.8-4.48-89.53-4.26-134.3-.34-17.72,2.11-35.91,2.15-53.2,6.43-14.61,3.21-27.71,8.46-41.97,12.27-6.22,8.7-16.34,15.46-22.02,24.78-17.99,36.64-15.9,78.8-17.92,118.55-1.92,39.87-3.1,79.83,3.82,119.14,4.29,28.58,11.9,65.44,44.7,72.62,0,0-.46-.12-.46-.12Z"/>
    <path d="M341.41,415.27c-10.52-12.34-17.87-27.5-19.35-43.73-3.87-21.28,2.49-45.67,16-62.55,12.04-11.31,27.91-20.52,44.55-22.14,3.54-1.21,8.73-.35,13.4,.05-1.08-.01-2.16,.02-3.27,.11-1.85,.17-3.6,.5-5.42,.85-.14,.02-.28,.03-.43,.05-.1,0-.19,.01-.3,.02,.1,0,.2,0,.3-.02,.08,0,.15,0,.23-.01,0,0-.01,0-.02,0-2.1,.13-4.14,.37-6.24,.81-1.87,.37-3.63,.98-5.41,1.56-1.24,.35-2.48,.63-3.68,1.06-1.46,.53-2.78,1.28-4.14,1.97-1.01,.42-2.03,.77-2.99,1.29-1.34,.76-2.54,1.66-3.75,2.59-.04,.02-.07,.04-.11,.06,.01,0,.02-.02,.03-.03-.04,.03-.08,.05-.12,.08-.06,.03-.12,.07-.18,.09,.06-.03,.12-.06,.18-.09,.03-.02,.05-.03,.08-.05-.02,.02-.04,.03-.05,.04-3.55,2.08-6.71,4.58-10.1,6.9,.27-.16,.53-.34,.78-.51-2.04,1.43-3.57,2.97-5.24,4.91,.31-.37,.61-.72,.92-1.09-1.12,1.32-2.37,2.57-3.56,3.81-1.04,1.12-2.1,2.2-3.05,3.4-.79,1-1.42,2.14-2.13,3.21-2.45,3.76-4.78,7.67-6.88,11.64-1.44,2.6-2.9,5.14-3.93,7.97-.71,1.95-1.28,3.92-1.82,5.89-.07,.22-.13,.42-.17,.65-.05,.17-.1,.35-.14,.52,.05-.12,.09-.27,.12-.4-.37,1.51-.55,3-.73,4.53-.22,1.49-.52,2.97-.87,4.43,.13-.48,.24-.97,.37-1.45-.79,3.13-1.05,5.96-1.24,9.18l.1-1.5c-.04,.82-.09,1.68-.1,2.54-.01,.04-.01,.08-.02,.11-.39,3-.77,5.98-.31,9.01,.24,1.57,.42,3.14,.61,4.71,.2,1.78,.36,3.58,1.08,5.24,.4,.91,.86,1.77,1.3,2.67,.56,1.33,1.07,2.68,1.68,3.98,.5,1.06,1.12,2.04,1.75,3.03,1.02,1.66,2.08,3.28,3.12,4.9,.72,1.25,1.31,2.59,2.21,3.68,.85,1.05,1.75,1.94,2.67,2.92,1.35,1.41,2.67,2.77,4.06,4.12,0,0-.02-.02-.03-.02,1.02,1,1.98,2.08,3.14,2.92,1.03,.76,2.08,1.46,3.11,2.19,3.6,2.59,7.43,4.97,11.33,7.09h-.04s.06,.03,.1,.05c-.02,0-.03-.03-.06-.05,2.97,1.61,5.95,2.72,9.11,3.89-.49-.17-.95-.35-1.41-.52,.89,.33,1.77,.7,2.66,1.09,.71,.32,1.43,.63,2.16,.92l.05,.02c-.33-.11-.64-.23-.96-.36,.32,.13,.64,.25,.96,.36h.02s-.02,0-.02,0h.02s.01,.01,.02,.01l.41,.16-.32-.13c.62,.25,1.23,.47,1.86,.69-.09-.02-.17-.05-.25-.08-.06-.02-.12-.05-.18-.07,.06,.02,.12,.05,.18,.07,.3,.11,.6,.22,.9,.33,.11,.04,.21,.08,.32,.11,.26,.09,.53,.19,.79,.28,.97,.38,1.94,.76,2.9,1.15,19.05,4.55,39.51,3.21,57.41-4.29,13-7.27,17.6-21.48,23.47-34.19,1.9-4.55,3.2-9.25,3.97-14.02,.47-1.38,.92-2.75,1.34-4.15,.06-.2,.11-.39,.16-.57-.05,.15-.09,.3-.13,.45,.01-.04,.02-.09,.03-.14-.05,.17-.08,.32-.14,.46,1-3.41,1.62-6.88,1.86-10.45,.18-2.41,.29-4.82-.07-7.22-.18-1.26-.42-2.5-.6-3.76-.25-2.52-.57-4.98-1.17-7.45-.24-1-.52-1.99-.78-2.99-.18-.85-.35-1.71-.54-2.57-.42-1.78-.95-3.45-1.61-5.19,.01,.07,.03,.13,.04,.19-.02-.07-.04-.14-.05-.22v.02c.12,.29,.23,.58,.33,.84-.22-.58-.41-1.14-.54-1.73,.07,.29,.15,.59,.22,.89v-.02s-.02-.02-.02-.03c-.71-2.76-1.7-5.22-3.11-7.7,.05,.09,.11,.17,.16,.26,.08,.14,.16,.27,.23,.4-.07-.13-.15-.27-.23-.4-.11-.18-.22-.37-.33-.56-.03-.06-.06-.11-.09-.16,.02,.03,.04,.06,.06,.08-.1-.16-.19-.3-.29-.46-.2-.38-.4-.75-.62-1.13,.09,.18,.19,.36,.28,.52-1.18-2.03-2.47-3.85-3.9-5.76,.3,.38,.59,.79,.88,1.19-.76-1.04-1.42-2.16-2.23-3.16-.78-.98-1.67-1.83-2.57-2.72-.11-.14-.23-.3-.36-.45,.07,.09,.14,.18,.2,.27-1.01-1.26-2.08-2.39-3.23-3.53-.23-.23-.45-.47-.68-.7h0s0,0,0,0c0,0,0,0,0,0,0,0,0,0,0,0,0,0,0,0,0,0-.2-.2-.4-.4-.6-.61,.17,.19,.35,.37,.53,.54-.02-.02-.05-.04-.07-.06,0,0-.01-.01-.02-.02-.04-.04-.09-.09-.14-.14,.05,.05,.09,.09,.14,.14-.8-.78-1.55-1.44-2.45-2.18,.03,.02,.05,.04,.08,.06,.02,.02,.04,.03,.06,.05-.02-.02-.04-.04-.06-.05-.15-.13-.3-.24-.45-.36,.01,.01,.03,.02,.04,.04-2.25-1.75-4.54-3.37-6.93-4.94,.02,.01,.03,.02,.05,.03-.19-.14-.41-.26-.6-.4,.05,.04,.1,.07,.15,.11,0,0-.02-.01-.02-.02,0,0,.02,.01,.03,.02,.02,.02,.05,.03,.07,.05,.03,.02,.06,.04,.09,.07-.2-.13-.38-.26-.58-.39-1.02-.67-1.96-1.21-3.14-1.86l1.26,.69c-4.01-2.22-8.11-4.36-12.39-6.07l1.33,.53c-1.48-.61-2.96-1.17-4.46-1.72,.04,0,.08,.02,.12,.03,.03,0,.06,.02,.08,.03-.02,0-.05-.02-.08-.03-.14-.05-.29-.1-.44-.16-.27-.11-.54-.19-.8-.3l.32,.13c-2.35-.83-4.73-1.55-7.2-2.09-.09-.02-.18-.04-.27-.06,7.44,.43,14.77,1.55,21.74,4.62,25.76,14.81,41.57,46.12,40.3,75.58-.79,12.41-5.21,24.07-10.88,35-3.58,9.5-9.52,18-17.94,23.85-21,11.9-48.57,12.73-71.3,5.33-10.05-4.92-21.17-8.62-29.46-16.39Z"/>
    <path d="M374.26,424.95c-.11-.04-.22-.07-.32-.11,.11,.04,.22,.08,.32,.11Z"/>
    <path d="M341.27,406.34l.05,.04s-.03-.03-.05-.04Z"/>
    <path d="M464.18,369.59s-.02,.08-.03,.12c-.04,.09-.06,.2-.09,.29,.04-.13,.08-.27,.12-.41Z"/>
    <path d="M360.94,297.15c.13-.08,.27-.15,.41-.23-.14,.08-.27,.16-.41,.23,0,0,0,0,0,0Z"/>
    <path d="M460.96,329.8c.06,.15,.13,.29,.17,.43-.06-.14-.11-.29-.17-.43Z"/>
    <path d="M457.68,321.95s.03,.05,.05,.08c-.01-.03-.03-.05-.05-.08Z"/>
    <path d="M387.29,287.88c.25-.02,.48-.03,.71-.04-.25,.02-.5,.03-.76,.05t.04,0Z"/>
    <path d="M445.46,306.41s.03,.03,.05,.05c-.04-.04-.07-.07-.11-.11,0,0,0,0,0,0,.07,.07,.15,.15,.22,.22-.05-.05-.1-.1-.16-.15Z"/>
    <path d="M445.16,306.11s.05,.04,.07,.06c.05,.05,.1,.1,.15,.15,0,0,0,0,0,0-.07-.07-.15-.15-.22-.22Z"/>
    <path d="M435.04,298.45s0,0,0,0c.02,.01,.03,.02,.05,.03-.02-.01-.03-.02-.05-.03Z"/>
    <path d="M392.11,404.73s-.09-.03-.13-.04c.04,.01,.09,.02,.13,.04Z"/>
    <path d="M393.66,405.11c-.24-.06-.49-.11-.71-.18,.23,.05,.46,.12,.71,.18Z"/>
    <path d="M368.81,389.24c-.09-.04-.17-.09-.25-.14-1.42-1.01-2.81-2.06-4.26-3.06l-.42-.35c-.32-.29-.62-.6-.94-.88-.01-.02-.05-.04-.06-.06,.09,.1,.2,.18,.3,.28l-.45-.42s-.09-.1-.15-.14c-.07-.07-.15-.14-.22-.23-.51-.67-.92-1.41-1.51-2.03-.44-.48-.9-.93-1.36-1.38-.19-.24-.4-.49-.61-.73-1.5-1.7-3.41-2.88-5.46-3.49-.08-.52-.15-1.05-.21-1.58,0,0,0,0,0,0,0,.08,.02,.15,.03,.22,.01,.08,.02,.17,.04,.25,0-.09-.02-.17-.04-.25-.01-.07-.02-.15-.03-.22,0,0,0-.01,0-.02,0-.01,0-.02,0-.04-.03-.23-.06-.45-.1-.68-.01-.09-.03-.18-.04-.27,.01,.09,.03,.18,.04,.27,.03,.23,.06,.45,.1,.68,0,0,0,.01,0,.02-.25-1.58-.59-3.13-.79-4.7,0-.04,0-.07-.01-.11,0,0,0,0,0-.01v-.03s0,0,0,0c0,0,0,0,0,0,0-.01,0-.03,0-.04,0-.01,0-.02,0-.04,0-.02,0-.04,0-.07,0-.02,0-.03,0-.05-.02-.2-.04-.4-.07-.62,.01,.13,.04,.26,.05,.39-.18-1.67-.18-3.37-.28-5.05,.02,.25,.03,.48,.06,.74-.03-.5-.05-1.02-.03-1.53,0,.02,0,.04,0,.06,0-.14,.02-.3,.02-.46-.03,.33-.04,.65-.06,.96,0-.01,0-.02,0-.02,.05-1.31,.02-2.57-.06-3.88,.02,.11,.03,.19,.03,.3,0-.1,0-.19-.03-.3,0-.02,0-.04,0-.06,0,0,0,0,0,0,0,.02,0,.04,0,.06,0-.02,.01-.03,0-.06,0,0,0-.01,0-.02,.14-1.19,.41-2.42,.57-3.61-.04,.35-.09,.74-.13,1.11,.2-1.44,.5-2.87,.85-4.27-.05,.2-.11,.4-.16,.59,.33-1.25,.62-2.53,.98-3.75,1.37-3.56,3.12-6.94,4.72-10.38,.2-.41,.43-.81,.66-1.21,.41-.51,.79-1.02,1.18-1.54,.04-.05,.08-.1,.12-.16,.2-.25,.4-.51,.6-.76,0,0,.01,0,.01-.02,0,0,0,.01-.01,.02,0,0,0,0-.01,0,.02-.02,.03-.04,.05-.06,.02-.02,.04-.05,.06-.07-.02,.02-.04,.05-.06,.07-.02,.02-.04,.04-.06,.07-.03,.04-.06,.07-.09,.11-.02,.02-.03,.04-.05,.06,0,0,0,0-.01,.01,0,0-.01,.01-.02,.02,.53-.67,1.05-1.35,1.58-2.04,.83-.92,1.71-1.82,2.5-2.8,.52-.63,.96-1.3,1.46-1.94,.4-.39,.82-.78,1.24-1.17,.92-.76,1.82-1.53,2.73-2.3-.02,.02-.04,.03-.06,.04,.45-.36,.89-.69,1.37-.98l3.43-2.14c.21-.12,.42-.24,.65-.36,1.16-.5,2.32-1.01,3.47-1.52-.13,.07-.27,.12-.4,.19,.25-.11,.49-.21,.76-.31,1.98-.55,4.02-.99,6.04-1.4,.5-.08,1.01-.16,1.52-.22-4.68,1.92-9.37,3.64-13.47,6.72-5.93,2.05-10.08,7.36-12.07,13-5.84,13.6-7.64,31.24,1.12,43.64,3.45,2.11,6.4,4.84,9.32,7.56,0,0-.01,0-.02,0l-.51-.2-1.04-.41c-.4-.15-.81-.3-1.2-.45-.29-.11-.57-.23-.85-.36Z"/>
    <path d="M352.4,375.69s-.03-.09-.03-.13c-.01-.11-.03-.21-.05-.32,.03,.16,.06,.32,.09,.48-.02,0-.01-.02-.01-.02Z"/>
    <path d="M353.23,374.98s0,.01,0,.02c0,0,0,.01,0,.02,0-.01,0-.02,0-.04Z"/>
    <path d="M352.53,371.13c-.01-.12-.03-.24-.04-.37,0,0,0,0,0,0,0,0,0,0,0,0-.02-.14-.04-.27-.06-.41,0-.06,0-.1-.01-.17,0,0,0-.01,0-.02,0,.06,0,.12,.02,.18,.04,.33,.08,.68,.12,1.02,0-.08-.02-.15-.03-.24Z"/>
    <path d="M352.42,370.16s0,0,0,0c0,0,0,0,0,0,0,0,0,0,0,0,0,0,0,0,0,0Z"/>
    <path d="M352.42,370.16s0,0,0,0c0,0,0,0,0,0Z"/>
    <path d="M352.41,370.15s0,0,0,0c0,0,0,0,0,0,0,0,0,0,0,0Z"/>
    <path d="M352.41,370.15h0s0,0,0,0h0Z"/>
    <path d="M352.41,370.14s0,0,0,0h0s0,0,0,0Z"/>
    <path d="M352.41,370.13h0s0,0,0,.01c0,0,0-.01,0-.01Z"/>
    <path d="M352.41,370.12s0,0,0,0c0,0,0,0,0,0,0,0,0,0,0,0Z"/>
    <path d="M352.41,370.11s0-.01,0-.02c0,.01,0,.02,0,.03,0,0,0,0,0-.01Z"/>
    <path d="M352.41,370.08h0s0,.01,0,.01c0,0,0,0,0-.01Z"/>
    <path d="M352.4,370.06c0-.06-.02-.11-.01-.17,0,.01,0,.03,0,.04,0,.02,0,.03,0,.05,0,.02,0,.04,0,.07,0,.01,0,.02,0,.03v-.02Z"/>
    <path d="M352.07,364.56c0,.12-.02,.24-.02,.36,0-.12,0-.24,.02-.36Z"/>
    <path d="M351.94,359.33c.04,.32,.06,.64,.07,.95,0,0,0,.01,0,.02-.03-.33-.04-.64-.07-.97Z"/>
    <path d="M359.58,338.82s.05-.06,.07-.09c-.03,.04-.06,.08-.09,.12v-.04Z"/>
    <path d="M359.88,338.43s-.05,.08-.08,.12c.03-.04,.06-.08,.08-.12Z"/>
    <path d="M360.76,337.3s-.04,.05-.05,.08c-.03,.03-.04,.05-.07,.07,.04-.05,.08-.11,.12-.16Z"/>
    <path d="M360.91,337.11s-.07,.07-.09,.13c-.02,.01-.03,.03-.04,.04,.04-.06,.08-.11,.14-.17Z"/>
    <path d="M360.97,337.03s.03-.03,.04-.05c.09-.1,.17-.2,.26-.31,0,0,0,0,.01-.01,.02-.02,.03-.04,.05-.06-.12,.15-.24,.31-.37,.46,0,0,.01-.02,.01-.03Z"/>
    <path d="M361.41,336.49s0,0,0,0c-.02,.03-.04,.05-.06,.08,.02-.02,.03-.05,.05-.07Z"/>
    <path d="M371.33,325.96s-.02,.01-.03,.03c-.07,.05-.14,.09-.22,.13,.08-.05,.16-.11,.25-.16Z"/>
    <path d="M371.36,325.95l.66-.42c-.23,.16-.45,.31-.69,.44,0-.02,.02-.01,.03-.03Z"/>
    <path d="M456.95,305.11c-18-13.21-5.85-36.05,14.5-33.84,10.5,2.25,20.47,11.89,21.79,22.68-.23,8.59-9.5,15.92-17.73,15.96-2.99,1.85-6.46,1.37-9.82,.04-3.19-1.26-6.28-3.3-8.74-4.84Zm16.68-32.34c-4.3-.47-8.64,.51-12.25,2.91-5.27,3.54-8.92,10.64-7.68,17.01-.27,4.2,1.36,8.77,4.52,11.56,1.05,.93,2.13,1.66,3.29,2.24,1.18,1.43,2.69,2.58,4.4,3.26,1.08,.43,2.24,.66,3.43,.7,2.97,.05,5.69-.66,8.39-1.79-.09,.04-.19,.09-.29,.14,.11-.05,.22-.1,.32-.16,.04-.02,.09-.04,.13-.05l.84-.36c-.21,.08-.41,.16-.6,.25,2.7-1.28,5.3-2.91,7.01-5.42,.21-.33,.42-.63,.61-.97,1.29-1.29,2.39-2.82,3.26-4.57,2.27-4.55,1.57-9.72-.91-13.96,.04,.05,.07,.09,.1,.14,.09,.14,.18,.28,.27,.42-.09-.14-.18-.28-.27-.42-.07-.1-.13-.21-.19-.31-.01-.02-.03-.04-.04-.07,.01,.02,.03,.04,.04,.07,.04,.06,.07,.12,.09,.17-.16-.23-.32-.48-.5-.69-.7-1.55-1.67-3.02-2.96-4.33-1.98-2.04-4.34-3.74-6.97-4.78-1.29-.51-2.64-.86-4.05-1.01Z"/>
    <path d="M456.92,305.09s.02,.01,.03,.02c.12,.09,.23,.17,.35,.25l-.38-.27Z"/>
    <path d="M467.47,308.18c.25,.04,.51,.06,.79,.09-.47-.04-.94-.06-1.41-.11,.21,0,.42,.02,.63,.02Z"/>
    <path d="M487.87,297.72c.06-.16,.11-.33,.17-.49-.16,.45-.3,.91-.45,1.36l.28-.87Z"/>
    <path d="M308.41,453.9c-.19-.09-.36-.18-.52-.29-.53-.37-1.06-.75-1.55-1.15-.27-.25-.54-.5-.78-.76-.89-1.11-1.68-2.26-2.7-3.26-.89-.86-1.86-1.68-2.68-2.6,.31,.35,.62,.72,.93,1.06-1.08-1.21-2.09-2.26-3.22-3.3v-.02s.1,.08,.16,.15c-.06-.06-.12-.11-.18-.17l-.02-.05c-.58-1.64-1.17-3.25-1.93-4.8-.73-1.48-1.6-2.72-2.56-3.92-.13-.75-.26-1.47-.46-2.19-.53-1.83-1.34-3.44-2.21-5.13-.02-.04-.03-.06-.05-.09l-.03-.06s0-.02-.01-.03c0,0,0,.02,.01,.03-.14-.26-.27-.52-.42-.76-5.52-25.64-6.59-52.07-5.81-78.19,.38-10.13,1.24-20.2,2.08-30.29,1.5-2.46,1.75-5.25,1.66-8.19v-.02c-.03-.79-.06-1.58-.11-2.38,.1-.35,.22-.71,.34-1.06,0,.06-.02,.1-.03,.13,.04-.09,.08-.19,.09-.29l.03-.07v-.02s.02-.08,.04-.13c.04-.09,.05-.18,.09-.29l.04-.09s.02-.05,.01-.08v-.04s.04-.05,.03-.1c-.04,.15-.09,.29-.13,.42,.57-2.07,.94-4.13,1.17-6.26,0,.18-.03,.38-.04,.56,.03-.38,.06-.71,.07-1.06,.02-.05,.02-.11,.02-.16v-.18s0,.02,0,.02c.04-.56,.06-1.12,.06-1.72,.01,.02,0,.04,.02,.05v.04s-.01,0,0-.02v-.04s0-.02,.01-.04c0,0-.01-.02,0-.04,0-.12,.01-.24,0-.37,0-.04,0-.1,.01-.14,.05-.74,.1-1.45,.21-2.19v-.04s.01-.04,.01-.04c.02-.05,.02-.1,.04-.15v.02s0-.08,.02-.11c-.01-.02,0-.04,0-.06v-.02s.01-.02,.02-.04c.02-.1,.03-.17,.05-.27v-.04c.06-.27,.12-.53,.17-.8-.02,.1-.04,.21-.07,.32,.53-2.74,.97-5.41,1.24-8.2,0,.18-.04,.35-.05,.53l.16-1.35c.91-2.04,1.91-4.04,2.63-6.19,.44-1.28,.88-2.52,1.45-3.73,.22-.4,.46-.8,.73-1.17,.12-.16,.23-.32,.35-.48,.14-.19,.27-.38,.4-.56,.27-.32,.54-.65,.81-.95,1.41-1.39,2.88-2.67,4.15-4.17,1.12-1.34,2.21-2.73,3.39-4.02,.2-.19,.39-.38,.59-.55,.8-.69,1.66-1.29,2.52-1.87,1.54-.93,3.17-1.74,4.79-2.53,.84-.36,1.7-.72,2.57-1.01,0-.02,.03-.03,.05-.02h.02s.05-.03,.09-.04c0,0,.02,0,.02-.01,0,0,.02-.01,.04,0,.07-.03,.16-.04,.23-.07,0-.02,.02-.01,.05-.02,.07-.01,.14-.05,.23-.07,.02-.01,.05-.02,.09-.03h-.02s-.12,.05-.17,.07c.05-.02,.12-.04,.17-.06t.04,0s.1-.04,.14-.05c.07-.01,.12-.04,.18-.05,.05-.02,.09-.03,.14-.05-.05,.02-.09,.03-.14,.05l.2-.04s-.04,0-.06,0c.04,0,.07-.01,.09-.03t.02-.01h.02c1.25-.36,2.47-.74,3.68-1.18l-.17,.07c.23-.07,.49-.15,.73-.24-.12,.04-.21,.06-.33,.1,.26-.08,.51-.19,.76-.27-.07,.03-.14,.05-.22,.08,2.21-.76,4.56-1.49,6.86-1.96,.74-.1,1.44-.17,2.16-.19,2.33,0,4.67,0,6.99,.04,1.07,.65,2.27,1.14,3.5,1.45,2.67,.67,5.39,1.03,8.11,1.29,2.62,.26,5.2,.17,7.82,.06-.08,0-.19,0-.27,.02,.18,0,.37,0,.54-.01,2.74-.04,5.49,.21,8.24,.25,2.48,.04,4.91-.19,7.36-.32,2.55-.03,5.2,.17,7.73,.56,2.15,.32,4.32,.46,6.49,.36,1.05-.06,2.07-.16,3.12-.18,2.15,.11,4.33,.34,6.5,.56,2.38,.25,4.74,.4,7.13,.47,.02,0,.04,0,.04,0,.16,0,.34,.01,.51,.02,.08,.01,.16,0,.24,.01,1.75,.02,3.51,.04,5.27,.08,1.7,.1,3.41,.35,5.11,.51,2.1,.18,4.18,.1,6.28,.13,2.78,.16,5.54,.54,8.33,.59,2.49,.07,5-.11,7.51-.08,3.87,.16,7.7,.73,11.58,.92l.54,.03c3.6,.29,7.01-1.17,9.28-3.71,3.79,.38,7.55,.91,11.3,1.66,5.85,1.37,11.47,3.22,17.15,5.2-.02,0-.04,0-.05-.01,2.65,.91,5.3,1.77,7.99,2.59l.12,.05c.44,.13,.89,.29,1.35,.43-.11-.03-.22-.07-.33-.1-.23-.07-.45-.15-.67-.21,.34,.12,.7,.24,1.06,.38,.58,.66,1.16,1.32,1.74,1.98,0,0,.01,.01,.02,.02l.4,.46s.02,.02,.04,.03c.03,.03,.06,.07,.09,.1,0,0,.01,.02,.02,.03,0,0,0,0,0-.01,.01,.01,.02,.03,.04,.04,.05,.06,.09,.11,.14,.16,.01,.02,.03,.03,.04,.05,0,0-.01-.01-.02-.02,.01,.02,.03,.03,.04,.05,.65,1.59,1.34,3.15,2.03,4.72-2.19-3.54-5.68-5.77-9.57-7.31-4.27-1.69-9.03-2.53-13.08-3.38-28.29-3.29-56.84-1.65-85.17-3.05-18.44-1.32-36.88-1.63-55.18-.58-9.33-.07-19.06,.07-27.57,4.18-3.7,3.13-7.31,6.82-10,10.87-3.97,8.12-4.29,17.51-5.77,26.31-.78,17.08-3.22,34.53-3.44,51.53-.57,25.19,.36,50.06,6.18,74.47,1.54,10.71,6.37,20.85,13.63,28.7-1.02-.42-2.01-.88-3.01-1.34Z"/>
    <path d="M290.62,427.36s-.01-.03-.02-.05c0,.02,.01,.03,.02,.05,0,0,0,.01,.01,.02l.05,.09s-.03-.07-.06-.11Z"/>
    <path d="M452.51,465.14c9.11-1.23,17.95-1.21,26.07-5.68,8.76-3.92,15.57-10.67,22.8-16.76,.4-.69,.78-1.39,1.13-2.1-.06,.38-.12,.75-.19,1.12-.3,.86-.67,1.7-.94,2.58-.53,1.7-.88,3.36-1.16,5.11v.04c.02-.23,.05-.47,.09-.68-.06,.3-.12,.61-.19,.91-.07,.22-.15,.43-.23,.64-.07,.12-.14,.25-.2,.39l-.16,.24c-.8,1.14-1.63,2.24-2.42,3.38-.1,.15-.21,.28-.34,.44-1.18,1.33-2.31,2.67-3.42,4.08,0,0,0,0,.01-.01-.02,.03-.04,.05-.06,.08-.23,.17-.45,.35-.68,.52-1.1,.58-2.14,1.25-3.12,2.1-.34,.28-.65,.58-.98,.87-.31,.21-.62,.43-.94,.64-1.81,.41-3.51,1.01-5.27,1.89,.06-.04,.11-.06,.16-.08-.02,0-.04,.02-.06,.03,.2-.1,.4-.2,.6-.3,.16-.08,.32-.16,.48-.24l-.48,.24c-.21,.1-.41,.2-.62,.31,0,0,0,0,.01,0-.07,.04-.14,.07-.22,.11l-.57,.25c-.11,.02-.23,.05-.34,.09l-.53,.1c-.4,.03-.8,.05-1.21,.05-1.57-.07-3.13-.32-4.72-.19-2.32,.17-4.45,.69-6.69,1.27-.05,.02-.11,.02-.18,.03,.15-.02,.29-.07,.45-.11-.32,.08-.63,.14-.96,.19-.24,.03-.47,.04-.7,.07-1.08,.03-2.14,.01-3.21-.02-1.98-.23-3.9-.64-5.86-.76-2.64-.16-5.18,.57-7.72,1.12-.37,.06-.72,.11-1.08,.15-1.44,.11-2.87,.17-4.32,.21-.43,0-.85-.03-1.27-.05-.47-.05-.93-.11-1.39-.16,3.53-.68,7.07-1.39,10.63-2.1Z"/>
    <path d="M500.2,449.45s0,.01,0,.01c0,0,0-.01,0-.01Z"/>
    <path d="M404.2,257.41h.02s0,0-.02,0Z"/>
    <path d="M502.35,275.67c.15,.34,.3,.68,.45,1.02,.07,.19,.14,.36,.22,.54,.35,1.29,.66,2.58,1.04,3.85,.32,1.15,.78,2.27,1.08,3.44,.01,.07,.04,.16,.05,.23,0,.03,0,.06,.01,.09,0,0,0,0,0,0,0,.03,.01,.06,.02,.09,.02,.14,.04,.27,.05,.41,0-.01,0-.02,0-.03,.18,1.44,.39,2.86,.6,4.27,0,.04,.01,.08,.02,.12,0,.04,.01,.09,.02,.13,0-.04-.01-.09-.02-.13,0-.04-.01-.08-.02-.12,0,0,0,0,0,0,.05,.29,.09,.59,.14,.89,.04,.22,.05,.43,.09,.65,0,.14,.03,.3,.05,.45,0,.29,.03,.59,.04,.88,0,.07,0,.14,0,.21-.89-5.75-2.29-11.39-3.83-16.97Z"/>
    <path d="M506.19,292.03c-.02-.27-.02-.52-.02-.79l.02,.87s0,.03,0,.04c0-.04,0-.08,0-.13Z"/>
    <path d="M505.21,284.9v-.08s0,.02,0,.02c0,.05,.01,.1,.02,.15,0-.03,0-.06-.01-.09Z"/>
    <path d="M505.15,284.36s0,.05,0,.08c-.01-.02-.02-.05,0-.08Z"/>
    <path d="M505.09,283.84c.02,.14,.03,.3,.05,.45-.02-.15-.04-.3-.05-.45Z"/>
    <path d="M499.61,269.13s.03,.03,.03,.03c.09,.14,.16,.27,.25,.41-.11-.14-.19-.3-.28-.44Z"/>
    <path d="M499.47,268.91h.02s0,0-.02,0h.02s.04,.06,.05,.09c-.03-.03-.04-.06-.07-.09Z"/>
    <path d="M465,255.02l.23,.03c-.2-.02-.42-.02-.62-.04,.12,0,.24,.01,.39,0Z"/>
    <path d="M499.28,268.7s-.06-.06-.08-.1c0,0,.02,.01,.02,.02,.02,.02,.03,.04,.05,.06,.01,.02,.02,.03,.04,.05,0-.01-.02-.02-.03-.03Z"/>
    <path d="M499.22,268.62s.03,.04,.05,.06c-.02-.02-.03-.04-.05-.06Z"/>
    <path d="M499.01,268.38s-.01-.01-.02-.02c0,0,0,0,.01,.01,.01,.02,.03,.03,.04,.05,.01,.01,.02,.03,.03,.04-.02-.03-.05-.05-.07-.08Z"/>
    <path d="M499.05,268.42s-.03-.03-.04-.05c0,0,0,0-.01-.01,.02,.01,.03,.04,.06,.06Z"/>
    <path d="M498.99,268.35c-.06-.07-.11-.13-.17-.2-.01-.02-.02-.03-.03-.05,.07,.08,.13,.16,.21,.25,0,0,0,0,0,0Z"/>
    <path d="M498.57,267.89s-.01-.01-.02-.02c-.04-.05-.09-.1-.13-.15,.13,.14,.26,.29,.39,.44,.05,.06,.1,.12,.16,.19-.13-.16-.27-.3-.4-.46Z"/>
    <path d="M499,267.94s.04,.09,.06,.14c0,.02,.02,.05,.03,.07,0,.01,0,.02,0,.03-.04-.08-.07-.16-.1-.24Z"/>
    <path d="M499.06,268.08s.01,.03,.02,.04c0,0,0,.02,0,.03,0-.02-.02-.05-.03-.07Z"/>
    <path d="M499.65,267.7s.04,.04,.07,.06c-.02-.02-.05-.04-.07-.06Z"/>
    <path d="M468.85,255.43s-.01,0-.02,0c0,0,.01,0,.02,0Z"/>
    <path d="M469.15,255.47s-.08-.01-.13-.02c.04,0,.08,0,.13,.02Z"/>
    <path d="M496.75,265.83c-.11-.03-.22-.07-.33-.1,.11,.03,.22,.07,.33,.1Z"/>
    <path d="M480.38,256.56s-.03,0-.05,0c-.04-.01-.06,0-.08-.01,.04,0,.08,0,.13,.01Z"/>
    <path d="M480.45,256.57s-.01,0-.02,0c0,0,0,0,0,0,0,0,0,0,0,0,0,0,.02,0,.03,0Z"/>
    <path d="M480.67,256.59s.1,.02,.15,.03c0,0,0,0,0,0-.12-.01-.22-.03-.32-.04,0,0-.02,0-.03,0,.08,0,.14,.01,.21,.02Z"/>
    <path d="M480.81,256.62s0,0,0,0c0,0-.02,0-.02,0,0,0,0,0,0,0Z"/>
    <path d="M480.82,256.62s.03,0,.04,0c0,0,0,0,0,0-.01,0-.03,0-.04,0,0,0,0,0,0,0Z"/>
    <path d="M480.82,256.62s0,0,0,0c0,0,0,0,0,0,0,0,0,0,0,0Z"/>
    <path d="M296.96,442.8c.17,.13,.32,.27,.49,.42,0,0,.02,0,.01,.02l-.5-.44Z"/>
    <path d="M404.26,257.42s-.01,0-.02,0c0,0,.01,0,.02,0Z"/>
    <path d="M289.82,297.15s0-.04,0-.05c0,0,0,.02,0,.03,0,0,0,.02,0,.03,0,0,0,0,0,0,0,0,0,0,0,0Z"/>
    <path d="M288.13,309.87s0,0,0,0c0,0,0,0,0,0,0,0,0,0,0,0Z"/>
    <path d="M288.44,306.18s0,0,0,0c0,0,0,0,0,0h0s0,0,0,0Z"/>
    <path d="M289.82,297.2s0-.01,0-.02c0,0,0,.01,0,.02,0,.04,0,.08,0,.12,0,.01,0,.02,0,.03,0-.05,0-.1,0-.16Z"/>
    <path d="M289.83,297.04s0,.02,0,.04c0,0,0,0,0,.01,0-.02,0-.03,0-.05Z"/>
    <path d="M289.81,296.98s0,.07,0,.11c0-.04,0-.07,0-.11Z"/>
    <path d="M290.09,294.14v.02s0-.01,0-.02Z"/>
    <path d="M316.23,256.84s-.02,.01-.02,.01t.02-.01Z"/>
    <path d="M288.43,306.16s0,.02,0,.03c0,.03-.02,.06-.02,.08-.02,.05-.04,.11-.06,.16,.03-.09,.05-.18,.08-.27Z"/>
    <path d="M288.58,305.74s0,.02,0,.03h0s0-.02,0-.03Z"/>
    <path d="M288.61,305.64s0,.02,0,.03l-.03,.07s.02-.07,.03-.1Z"/>
    <path d="M289.75,298.82c0,.05,0,.1,0,.15,0,0,0,.02,0,.03,0-.07,0-.13,.02-.19Z"/>
    <path d="M289.82,296.55s0,.08,0,.12c-.01,.04-.01,.08,0,.12,0,.03,0,.06,0,.09,0-.11,0-.22,0-.34Z"/>
    <path d="M290.06,294.29s0,.01,0,.02c0,.02,0,.03,0,.05-.01,.06-.02,.11-.04,.17,.01-.08,.03-.16,.04-.23Z"/>
    <path d="M290.11,294.01s-.02,.09-.02,.12c0-.04,.01-.08,.02-.12Z"/>
    <path d="M290.16,293.72s0,0,0-.01h0s-.02,.1-.03,.16c0-.06,.02-.11,.02-.15Z"/>
    <path d="M290.16,293.73s-.01,.08-.02,.12c0-.04,.01-.08,.02-.12Z"/>
    <path d="M290.19,293.6s0,0,0,0c0,.03-.01,.06-.02,.09h0s.01-.06,.02-.09Z"/>
    <path d="M290.19,293.6s0-.05,.01-.07c0,.02,0,.04-.01,.06h0Z"/>
    <path d="M296.08,273.54s0,0,0,0c0,0,0,0,0,0h0Z"/>
    <path d="M296.37,273.15s-.03,.04-.04,.06c.01-.03,.02-.05,.04-.06Z"/>
    <path d="M296.52,272.96s-.04,.05-.06,.08l.06-.08Z"/>
    <path d="M296.78,272.59s-.05,.08-.09,.13c-.05,.06-.12,.14-.16,.2l.25-.33Z"/>
    <path d="M314.15,257.59c-.16,.08-.31,.16-.48,.22,.15-.06,.32-.14,.48-.22Z"/>
    <path d="M316.72,256.7s-.06,.02-.1,.03c-.03,0-.05,.02-.08,.02,0,0-.01,0-.02,0,.07-.02,.13-.04,.2-.06Z"/>
    <path d="M316.88,256.65s-.07,.02-.1,.03c-.02,0-.04,.01-.06,.02,.05-.02,.1-.04,.16-.05Z"/>
    <path d="M317.27,256.53s-.04,.02-.06,.02c-.06,.02-.12,.03-.17,.05-.01,0-.02,0-.03,0,.08-.03,.17-.05,.26-.08Z"/>
    <path d="M330.52,252.89c.08,0,.14,0,.21,0-.02,0-.03,0-.05,0,.02,0,.04,0,.06,0,.02,0,.04,0,.06,0-.35,0-.72,0-1.07,0,.27,0,.52-.02,.79-.02Z"/>
    <path d="M311.33,498.63c-6.34-3.35-13.41-4.98-19.28-9.21-10.95-8.29-21.57-18.35-28.43-30.32-3.41-12.13-8.75-23.58-9.88-36.09-1.82-20.65-.34-41.53-.44-62.16-.4-28.69-1.67-57.91,6.71-85.5,3.68-14.42,6.86-29.69,19.89-38.81,14.31-12.81,34.6-10.92,52.91-10.52-.63,.08-1.24,.14-1.86,.2-2.14,.12-4.29,.23-6.43,.24-2.49,.04-4.96,.41-7.4,.84,.11-.02,.23-.05,.34-.07-.48,.08-.96,.15-1.43,.25-.02,0-.02,.01-.04,0,.02,0,.02-.01,.04,0-2.4,.46-4.74,1.11-7.1,1.68-2.94,.64-5.85,1.37-8.74,2.15-2.47,.64-4.85,1.38-7.11,2.59-2.13,1.14-4.18,2.48-6.21,3.83,.4-.27,.8-.52,1.2-.8-3.14,1.99-5.71,4.4-8.4,6.94,.35-.31,.69-.65,1.04-.96-2.37,2.22-4.56,4.38-6.56,6.95,.29-.38,.58-.73,.87-1.11-1.59,2.01-3.32,3.85-4.7,6.03-1.53,2.42-2.4,5.28-3.26,8.03-1.08,3.09-1.94,6.15-2.71,9.33l-.15,.52s0,0,0,0c0,0,0,.02,0,.02,0,0,0,.01,0,.02,0,0,0-.01,0-.02,0,.01,0,.03-.01,.04,0,0,0-.02,0-.03,0,.03-.01,.05-.02,.08,0,.01,0,.03-.01,.04,0,0,0,0,0-.01-.08,.33-.17,.65-.23,.96-.04,.15-.07,.28-.11,.43,0,0,0-.02,0-.03,0,.04-.02,.08-.03,.12-.02,.05-.02,.11-.04,.15-.02,.05-.02,.11-.05,.17l.03-.07c-1.33,5.48-1.65,11-1.7,16.6,0,0,0-.01,0-.02,0,.06,0,.12,0,.18,0,.02,0,.04,0,.06,0,.27-.03,.54-.05,.8-.55,3.82-1.4,7.47-.76,11.38l.1,.53c.02,.97,.07,1.93,.12,2.9-1.89,19.84-.92,40.03-.79,59.89-.27,19.87-1.51,40.02,.88,59.56,.76,3.89,1.78,7.72,2.93,11.53-.28,1.62-.27,3.33,0,5.06,.34,2.14,1.07,4.07,1.68,6.11,.43,1.46,.81,2.92,1.33,4.34,1.04,2.82,2.35,5.2,4.11,7.54-.01-.01-.03-.03-.04-.05-.02-.03-.04-.06-.07-.09-.07-.09-.14-.17-.22-.25l.26,.32s.04,.05,.05,.07c0,0,0-.02-.01-.03l.12,.14c.04,.06,.09,.12,.13,.17,.5,.68,1,1.37,1.43,2.09-.01-.02-.02-.04-.03-.06,0,.01,.02,.03,.02,.04,0,0,0,.01,0,.02h0s0,0,0,0c0,0,0,0,0,.01h0s.02,.02,.03,.03c0,.02,.02,.04,.03,.07,0-.01,0-.03-.01-.04v.02c.07,.11,.13,.23,.19,.34,0,.02,.02,.04,.03,.06,.04,.07,.08,.14,.11,.2-.03-.07-.07-.13-.09-.18,0,0,.01,.02,.03,.03-.02-.02-.03-.04-.05-.06-.04-.07-.08-.15-.11-.21-.04-.06-.07-.13-.1-.19,0,0,0-.01-.01-.02,0-.01-.01-.02-.02-.03,0,0,0-.01-.01-.02v-.02s-.01,0-.02,0c0-.01-.01-.03-.02-.04-.03-.07-.07-.13-.11-.18,.01,.01,.02,.02,.03,.02l.61,1.1s0,0,0,0c-.06-.12-.13-.23-.19-.35,.03,.07,.07,.13,.1,.2-.01-.02-.02-.04-.03-.05,.01,.02,.03,.05,.04,.07,0,.02,.02,.04,.03,.06,0-.02-.02-.03-.02-.05,.09,.14,.18,.3,.25,.45,.84,1.6,1.69,3.19,2.66,4.72,1.29,1.97,2.87,3.76,4.42,5.54,1.71,1.95,3.29,4.01,5.08,5.9,3.88,4.12,9.39,6.91,14.51,9.14,1.44,.61,2.88,1.22,4.33,1.8,7.92,3.13,16.16,5.58,24.55,7-.1-.02-.2-.02-.29-.03,1.02,.16,2.02,.33,3.03,.48l-1.38-.24c3.52,.62,7.02,1.06,10.55,1.25,.78,.07,1.56,.15,2.33,.24,0,0,.01,0,.02,0-.22,0-.43-.03-.64-.05,.61,.08,1.19,.14,1.8,.22-.27-.04-.56-.08-.83-.12,0,0,0,0,0,0,.07,0,.13,.01,.19,.02,.03,0,.05,0,.08,0,0,0-.01,0-.02,0,.03,0,.05,0,.08,0,4.75,.6,9.51,.71,14.26,.59-.11,0-.21,0-.32,.01,1-.03,1.97-.03,2.96-.04-.05,0-.09,0-.14,0h.31c.24-.01,.48-.01,.72-.01h-.04c-.07,0-.15,0-.23,0,.08,0,.15,0,.23,0,.15,0,.29,0,.43,0-.13,0-.26,0-.39,0,1.38-.03,2.75-.09,4.1-.15-.23,.01-.45,0-.7,0,.13,0,.25,0,.38,0,.11,0,.22,0,.33,0,0,0,0,0,0,0,.04,0,.09,0,.13,0,.04,0,.08,0,.12,0-.03,0-.05,0-.08,0h.06s.04,0,.06,0c.01,0,.02,0,.03,0-.02,0-.05,0-.07,0,.03,0,.06,0,.09,0,.19,0,.37,0,.55,0-.12,0-.24,0-.36,0,.04,0,.08,0,.12,0,1.35-.05,2.65-.15,3.98-.29-.04,0-.08,.01-.13,.02-.05,0-.1,.01-.15,.01,.05,0,.1,0,.15-.01,.12-.01,.24-.03,.36-.04,.03,0,.06,0,.09-.01-.03,0-.06,0-.09,.01-.04,0-.07,0-.11,0,.88-.1,1.77-.22,2.66-.34,2.92-.38,5.89-.55,8.84-.74,1.23-.05,2.46-.05,3.68-.08-.1,0-.21,.01-.32,.02-.05,0-.09,0-.14,0,.05,0,.09,0,.14,0,.16,0,.32-.02,.48-.02,.07,0,.13,0,.2,0-.01,0-.02,0-.03,0,.05,0,.09,0,.14,0,.16,0,.32,0,.48,0-.16,0-.32,0-.48,0-.04,0-.07,0-.11,0,1.29-.04,2.55-.13,3.83-.25,2.52-.21,4.95-.46,7.45-.86-.46,.08-.94,.14-1.4,.22,.74-.12,1.5-.21,2.23-.26,.27-.02,.54-.01,.81-.03,.09,0,.19,0,.28,0h0c.18,0,.37,.01,.55,.02,.02-.01,.04,0,.04,0h-.02c.06,0,.1,0,.16,0h.02s-.02,0-.02,0c2.4,.05,4.81,.1,7.17-.11,2.01-.17,3.98-.53,5.98-.73,4.07-.15,8.17,.12,12.23-.01,0,0,0,0,0,0-.14,0-.28,.01-.41,.02,.14,0,.29,0,.41-.02,.41-.02,.82-.02,1.23-.05-.14,0-.29,.01-.44,.01,.07,0,.13-.01,.19-.01-.14,0-.31,0-.46,.02-.02,0-.05,0-.07,0,1.96-.09,3.85-.35,5.77-.67,.88-.1,1.76-.16,2.63-.19,.63,0,1.27,.05,1.9,.12,3.64,.42,7.19,1.08,10.89,.91,2.84-.13,5.63-.52,8.45-.75,2.65-.12,5.3-.09,7.96-.15-.08-.01-.16,0-.27,0,2.59-.08,5.08-.36,7.65-.66,2.02-.24,3.98-.78,5.98-1.18,1.74-.36,3.5-.6,5.2-1.03,1.96-.5,3.85-1.18,5.78-1.73,.81-.19,1.62-.36,2.41-.54,.86-.14,1.67-.31,2.49-.5-.05,.01-.11,.03-.16,.05,.45-.11,.91-.23,1.37-.36l-1.03,.27c2.53-.7,4.88-1.78,7.32-2.76,.42-.14,.85-.28,1.28-.39-.07,.01-.13,.03-.18,.05,.03-.01,.06-.02,.08-.04,.02,0,.04,0,.05-.01,0,0,0,0,0,0,.03,0,.05,0,.07-.01h-.02s.07-.01,.11-.02c.09-.02,.16-.04,.24-.06-.08,.01-.16,.03-.24,.06-.02,0-.04,0-.06,.01h-.02s-.02,.02-.04,.01c-.01,0-.02,0-.02,0,0,0,0,0,0,0,0,0,.02,0,.03,0,3.01-.77,5.75-1.96,8.29-3.82,1.41-1.03,2.62-2.25,3.84-3.47,.94-.65,1.86-1.32,2.74-2.03,1.16-1.46,2.14-3.13,3.02-4.89,2.59-3.9,4.59-8.21,5.96-12.64-.09,.31-.18,.61-.29,.92,.1-.31,.2-.6,.29-.92,0-.02,.01-.04,.02-.06,.05-.12,.08-.25,.11-.38,.85-2.95,1.48-5.91,2.15-8.91,.7-3.05,1.43-6.04,2.05-9.08,.04-.16,.07-.32,.1-.49,1.08-6.03,1.73-12.09,1.54-18.22,0-.03,0-.05,0-.09-.01-.35-.02-.72-.04-1.07,.01,.35,.02,.72,.04,1.07,0-.36-.02-.71-.04-1.07,0-.02,0-.05,0-.07,0,.02,0,.05,0,.07,0-.04,0-.08,0-.11-.01-.33-.02-.68-.02-1.03,.18-1.55,.49-3.1,.63-4.65,.22-2.41,.33-4.83,.42-7.23,.17-3.95,.04-7.91,.1-11.87,0-.1,0-.2,0-.3,0-.01,0-.02,0-.03,0-.02,0-.03,0-.05v.04c0-.22,0-.45,0-.65v.62c.13-2.5,.43-5.01,.57-7.5,0,.09,0,.18,0,.27,0,.05,0,.11,0,.16,0-.05,0-.11,0-.16,.02-.32,.02-.64,.04-.95,0-.07,0-.13,0-.2,0-.02,0-.04,0-.07,.04-1.61,.06-3.21,.06-4.82,.9,14.41,2.82,28.81,1.61,43.29-1.3,14.99-.07,30.82-6.78,44.69-.52,1.47-1.25,2.74-1.63,3.82-2.46,7.57-9.29,12.09-16.27,14.96-18.39,9.35-39.75,6.59-59.67,9.11-26.4,1.12-52.94-.29-79.1,2.93-19.62,.67-39.52,4.06-58.27-3.36-.71-.28-1.42-.56-2.11-.88Z"/>
    <path d="M344.15,500.43s-.05,0-.08,0c0,0,0,0,0,0h0s-.04,0-.06,0c-.08-.01-.17-.02-.27-.04,0,0,0,0,.01,0-.01,0-.02,0-.03,0-.07-.01-.14-.02-.22-.03,.23,.03,.44,.06,.65,.09Z"/>
    <path d="M359.73,501.01c-.29,.01-.58,.02-.87,.03,.29,0,.58-.02,.87-.03Z"/>
    <path d="M366.32,500.85c-.12,0-.24,0-.37,.01-.06,0-.13,0-.19,0,.19,0,.37,0,.55,0Z"/>
    <path d="M366.38,500.85s.02,0,.04,0c0,0,0,0,0,0,0,0-.01,0-.02,0-.04,0-.08,0-.12,0,.03,0,.06,0,.09,0Z"/>
    <path d="M366.41,500.85s.02,0,.03,0c0,0,0,0,0,0h-.02s0,0,0,0c0,0-.02,0-.03,0-.02,0-.04,0-.06,0,.03,0,.06,0,.09,0Z"/>
    <path d="M366.45,500.85s0,0,0,0c0,0,0,0,0,0,0,0,0,0,.01,0Z"/>
    <path d="M366.45,500.85h0s0,0,0,0h0Z"/>
    <path d="M366.52,500.85s0,0-.01,0c-.02,0-.04,0-.06,0,.02,0,.05,0,.07,0Z"/>
    <path d="M366.84,500.84s-.08,0-.12,0c-.04,0-.07,0-.11,0-.01,0-.03,0-.05,0-.02,0-.03,0-.05,0,.11,0,.21,0,.32-.01Z"/>
    <path d="M366.61,500.85s.08,0,.11,0c.03,0,.06,0,.09,0-.06,0-.13,0-.19,.01,0,0-.01,0-.02,0,0,0,0,0,.01,0Z"/>
    <path d="M366.99,500.83s-.04,0-.06,0c-.03,0-.06,0-.09,0,.05,0,.1,0,.15,0Z"/>
    <path d="M273.29,463.41s0-.02-.01-.03c0,0,0,.01,.01,.02,0,.01,.01,.02,.02,.03,0,0,0,0,0,0,0-.01-.01-.02-.02-.03Z"/>
    <path d="M273.26,463.36h0s0,.01,.01,.02c0,0,0-.01-.01-.02Z"/>
    <path d="M273.25,463.37s0,0,0,0h0s0,0,0,0h0s0,0,0,0Z"/>
    <path d="M273.26,463.36h0s0,0,0,0c0,0,0,0,0,0Z"/>
    <path d="M273.24,463.33s-.03-.05-.04-.08c0,.02,.02,.04,.03,.06,0,.01,.01,.02,.02,.03,0,0,0,0-.01-.01Z"/>
    <path d="M273.05,462.97s0,.01,.01,.02c-.01,0-.01-.02-.01-.02Z"/>
    <path d="M272.93,462.78s.04,.07,.05,.1c-.02-.03-.04-.06-.05-.1Z"/>
    <path d="M271.53,460.9s-.02-.03-.04-.05c.02,.03,.04,.05,.06,.07,0,0,0,.02,.01,.02-.01-.01-.02-.03-.04-.04Z"/>
    <path d="M271.48,460.83s0,0,0,0c0,0,0,0,.01,.01,0,0-.01-.01-.02-.02Z"/>
    <path d="M382.24,499.46c-.13,.01-.27,.02-.42,.02,.14,0,.27-.02,.42-.02Z"/>
    <path d="M399.21,498.19h.02s-.07,0-.11,0c.03,0,.06,0,.09,0Z"/>
    <path d="M399.88,498.2s-.04,0-.06,0c-.01,0-.03,0-.05,0h0s0,0-.01,0c.04,0,.08,0,.12,0Z"/>
    <path d="M455.55,496.77h.02s0,0-.02,0h-.13s.09,0,.14,0h0s.08,0,.12,0c.02,0,.03,0,.05,0-.16,.01-.32,.02-.48,.03,.06,0,.11-.01,.17-.02-.13,.01-.25,.02-.4,.03,.19,0,.36-.02,.53-.04Z"/>
    <path d="M455.56,496.78s.02,0,.03,0c0,0-.02,0-.03,0h0Z"/>
    <path d="M456.18,496.73s0,0-.01,0c-.01,0-.02,0-.03,0,0,0,.02,0,.02,0-.02,0-.05,0-.07,0-.02,0-.05,0-.07,0,0,0,0,0-.01,0,0,0,0,0,.01,0-.06,0-.13,0-.2,.01,0,0,.02,0,.02,0,.03,0,.05,0,.08,0-.03,0-.05,0-.08,0-.04,0-.07,0-.11,0-.02,0-.03,0-.05,0-.03,0-.06,0-.1,0,.2-.02,.38-.02,.58-.04Z"/>
    <path d="M456.43,496.73s-.09,0-.14,0c.05,0,.1,0,.14,0Z"/>
    <path d="M490.25,491.55s-.04,0-.06,0c.02,0,.04,0,.06,0Z"/>
    <path d="M490.86,491.44c-.14,.04-.3,.06-.45,.08,.15-.03,.3-.06,.45-.08Z"/>
    <path d="M490.9,491.44h-.01s-.03,.01-.05,.01c.02,0,.04,0,.06-.01Z"/>
    <path d="M490.89,491.44s0,0,0,0c0,0,0,0-.01,0h0Z"/>
    <path d="M490.99,491.42s.04,0,.06,0c.06,0,.12-.02,.19-.03-.11,.02-.23,.05-.34,.06l.09-.02Z"/>
    <path d="M490.91,491.43s.05,0,.08-.01c-.03,0-.06,0-.08,.01h0Z"/>
    <path d="M490.99,491.42h0s0,0,0,0c0,0,0,0,0,0Z"/>
    <path d="M501.01,488.02s-.01,0-.02,0c0,0,.01,0,.02,0Z"/>
    <path d="M501.93,487.79s0,0,0,0c0,0,0,0-.01,0,0,0,0,0,.01,0Z"/>
    <path d="M525.83,460.84s0,0,0,0v.02s0-.02,0-.03Z"/>
    <path d="M525.94,460.47c-.03,.12-.06,.25-.11,.37,.04-.12,.07-.25,.11-.37Z"/>
    <path d="M525.94,460.47s0,0,0,0h0s0,0,0,0Z"/>
    <path d="M530.39,441.17c-.05,.27-.1,.56-.14,.82-.03,.16-.07,.33-.1,.49,0,.02,0,.04-.01,.06,.08-.46,.18-.91,.26-1.37Z"/>
    <path d="M531.78,423.67s.01,.06,0,.09c0-.03,0-.06,0-.09Z"/>
    <path d="M532.88,397.41s0,0,0,0h0s0,0,0,0Z"/>
    <path d="M532.88,397.36s0,.01,0,.02c0,.01,0,.02,0,.03,0-.02,0-.03,0-.05Z"/>
    <path d="M533.48,388.92s0,.02,0,.03c0,0,0,0,0,0,0-.01,0-.02,0-.04Z"/>
    <path d="M533.48,388.85s0,.02,0,.03c0,.01,0,.03,0,.04,0-.02,0-.04,0-.07Z"/>
    <path d="M533.48,379.28c0,.19,0,.37,.01,.55,0-.18,0-.37-.01-.55Z"/>
    <path d="M264.17,272.77s0-.03,.01-.05c0,.03-.01,.05-.02,.08,0,0,0-.02,0-.03Z"/>
    <path d="M264.2,272.68s0,0,0-.01c0,0,0,.01,0,.02,0,0,0,0,0,0Z"/>
    <path d="M534.99,332.77c-.13-3.25-.2-6.49-.45-9.72,.01,.23,.03,.48,.04,.71-.2-2.54-.3-5.08-.47-7.6-.16-2.13-.05-4.26-.14-6.38-.06-2.32-.15-4.63-.26-6.94-.12-2.49-.44-4.95-.46-7.43,.03-2.45,.09-4.92-.14-7.35-.25-2.78-.92-5.43-1.49-8.15-.48-3.08-.74-6.21-1.73-9.23-1.01-3.15-2.22-6.08-3.69-9,.12,.23,.24,.47,.36,.7-.12-.25-.25-.51-.38-.74,0,.01,.01,.03,.02,.04-1.84-3.59-3.59-6.94-6.45-9.92-2.56-2.69-5.84-4.97-8.77-7.28-3.34-2.63-7.21-4.76-11.14-6.38-4.19-1.74-8.35-3.28-12.79-4.27,.47,.1,.96,.22,1.45,.33-4.24-1.02-8.43-2.31-12.75-3.04,.02,0,.04,0,.06,0,.03,0,.06,0,.08,.01-.02,0-.05-.01-.08-.01-2.83-.49-5.66-.92-8.51-1.32-3.26-.57-6.42-1.13-9.74-1.11,.25,0,.47,0,.7,0-.84,0-1.69-.03-2.52-.1,.34,.04,.67,.06,1.01,.1-1.62-.14-3.12-.22-4.72-.15,.14,0,.3-.03,.42-.04-.71,.04-1.46,.06-2.19,.05-1.32-.07-2.63-.18-3.95-.25,.17,.01,.34,.02,.5,.02,.08,0,.17,0,.25,0-.08,0-.16,0-.25,0-.17,0-.33-.01-.5-.02-.24-.01-.48-.03-.75-.03,.25,0,.5,.02,.75,.03-.51-.02-1.03-.04-1.55-.06-.59-.05-1.18-.12-1.77-.19-1.73-.28-3.45-.44-5.23-.55,.28,.02,.54,.04,.8,.06-3.47-.23-6.53-.07-9.6,2.13-.11,.08-.21,.16-.31,.23-.96,.06-1.91,.1-2.87,.1-2.33-.12-4.61-.56-6.93-.71-2.64-.16-5.2,.03-7.79,.03-2.51-.13-5.03-.49-7.51-.68-2.88-.18-5.71,.05-8.57,.03-2.33-.12-4.66-.49-6.99-.82-2.57-.34-5.13-.23-7.71-.24-2.68-.16-5.34-.64-8.02-.86-2.43-.16-4.87-.17-7.31-.21-2.03-.09-4.05-.33-6.06-.52-2.41-.24-4.77-.27-7.18-.24-.64,.01-1.29,0-1.93-.03,32.43-.9,64.92-.23,97.28,.56,28.97,.49,70.75-.42,81.68,32.66,5.99,15.85,9.58,32.77,7.69,49.75-.23,9.51-.74,19.07-1.26,28.63-.02-1.52-.08-3.04-.17-4.58Z"/>
    <path d="M438.78,228.93s-.06,0-.08,0c-.08-.01-.16-.02-.24-.04,.11,.01,.22,.02,.32,.03Z"/>
    <path d="M457.05,228.69c.05,.02,.11,.02,.17,.03h-.18s0-.03,0-.03Z"/>
    <path d="M261.06,300.38s0,.03,0,.04c0-.02,0-.03,0-.04Z"/>
    <path d="M261.08,300.21s0,.02,0,.03c0,0,0-.01,0-.03Z"/>
    <path d="M263.79,274.28l.04-.09c-.02,.07-.04,.14-.06,.21,0-.04,.02-.08,.03-.12Z"/>
    <path d="M219.42,403.95c-2.32-1.02-2.14-3.65-2.31-5.75-1.22-11.87-.73-24.14,.79-35.96,1.62-10.58,3.94-21.06,5.97-31.56,1.29-3.94,2.17-9.71,6.27-11.54,6.9-2,6.52,10.73,1.81,12.37-5.16,16.31-4.89,33.49-5.62,50.4,.14,4.54-.55,9.04-1.04,13.54,.16,3.71-.43,10.59-5.86,8.49Z"/>
    <path d="M252.39,531.26c-13.61-7.52-33.37-21.05-29.01-38.95-17.6-34.33-16.44-75.76-16.54-113.49,.55-30.36-1.16-60.82,5.66-90.71-5.99-13.49,.17-28.67,4.42-41.86,4.42-9.45,5.9-19.6,10.39-28.95,5.81-11.05,26.16-36.94,39.99-32.1,9.27-2.68,18.2,6.53,16.13,15.71-3.17,10.19-12.17,17.49-16.81,27.08,.21,1.19,.27,2.38,.18,3.57-.07,.89-.17,1.78-.27,2.66,5.23,6.57,3.95,16.56,1.2,26.47-.23,.71-.45,1.42-.68,2.13-.73,2.08-1.35,4.14-1.92,6.24-1.73,5.19-3.47,10.07-4.42,14.07-4.73,13.65-3.73,28.57-6.47,42.73-2.89,11.39,3.4,22.1,3.39,33.66,.46,11.26-.63,22.51,.09,33.77,.34,8.41,2.16,17.42-1.19,25.46-1.59,6.25,2.23,12.42,3.81,18.41,4.8,16.38,10.7,33.16,21.06,46.91,5.9,5.53,14.65,10.9,12.72,20.4-1.21,5.95-6.81,9.96-12.74,9.93,6.24,15.33-14,23.12-26.23,18.28-.98-.39-1.91-.86-2.77-1.41Z"/>
    <path d="M213.8,254.83c-.83-22.61,7.88-43.88,22.5-61.02,10.76-11.73,28.22-13.49,43.23-14.87,13.59-2.3,27.38-2.64,40.97-4.78,12.07-3.82,29.32-1.96,25.51,14.77-2.01,5.71-8.21,9.18-14.05,7.91-19.99,3.66-40.31,4.78-60.47,7.37-1.72,7.08-9.88,8.17-15.06,11.97-.59,6.74-5.25,9.81-8.08,15.1-3.67,7.24-7.17,14.68-10.21,22.09,.65,16.06-23.25,17.33-24.35,1.48Z"/>
    <path d="M209.38,369.51c-2.79-32.12-7.73-64.42-4.75-96.74-1.33-20.69,3.81-41.42,14.44-59.17,4.46-12.86,24.12-35.65,37.04-20.18,7.94,3.08,9.9,15.18,2.96,20.41-4.66,3.29-8.31,7.67-12.06,11.92-3.08,4.09-6.34,8.34-6.83,13.61-.1,6.62-3.52,13.49-10.42,14.58,0,0-.02,0-.02,0-1.19,18.92-2.33,38.83-1.06,57.67,1.28,10.32,1.16,20.77,1.96,31.13,1.64,9.38,3.64,18.85,3.07,28.46-1.42,15.83-24.92,14.4-24.34-1.69Z"/>
    <path d="M247.51,262.57c-4.62-3.14-6.38-9.33-4.49-14.43-9.81-8.94-1.02-22.89,7.47-29.28-4.14-2.38-6.97-6.75-6.62-11.8,1.7-16.08,29.93-15.54,42.21-19.65,6.5-13.22,24.79-12.29,37.23-14.78,14.19-2.94,28.54-3.49,42.98-3.02,14.3,.62,31.75-2.49,43.84,6.5,6.54,1.22,13.26,3.34,15.34,10.05,.86,2.74,.73,5.49-.17,7.92,.54,1.28,.87,2.66,.91,4.11,4.08-.11,8.09-.52,12.15-.62,3.83-.04,8.52-.52,12.03,1.38,6.89,.29,15.64,.44,19.87,6.78,5.53,8.07-1.37,19.7-11.09,18.82-21.44-2.39-42.99-2.19-64.43,.08-10.8-.64-21.41,.53-32.09,1.76-1.26-.1-2.52-.24-3.78-.35-2.41-.24-4.77-.27-7.18-.24-1.33,0-2.69-.04-4-.13-2.88-.24-5.74-.41-8.62-.32-2.75,.08-5.41,.67-8.13,.88-2.14,.12-4.3,.25-6.43,.26-2.4,.02-4.78,.39-7.13,.78-2.87,.43-5.65,1.23-8.46,1.92-2.94,.64-5.85,1.37-8.74,2.15-2.47,.64-4.85,1.38-7.11,2.59-2.13,1.14-4.18,2.48-6.21,3.83,.4-.27,.8-.52,1.2-.8-3.14,1.99-5.71,4.4-8.4,6.94,.35-.31,.69-.65,1.04-.96-2.37,2.22-4.56,4.38-6.56,6.95,.29-.38,.58-.73,.87-1.11-1.04,1.3-2.13,2.54-3.14,3.83-1.4,1.34-2.78,2.71-4.14,4.1-5.18,5.15-10.44,10.1-17.43,7.33-.9-.36-1.83-.84-2.79-1.47Z"/>
    <path d="M350.92,220.49c-.27-1.38-.28-2.81-.06-4.2-3.31-5.04-3.04-10.85,.77-15.55,7.28-8.1,19.28-3.22,28.59-4.49-1.53-.38-2.9-1.15-4.51-1.17-12.88-2.39-12.69-21.45,.13-23.91,12.55-2.22,23.7-.94,35.45-1.18,24.77-4.82,50.95-2.26,75.63,3.39,9.73,2.48,19.52,5.19,28.74,9.21,3.84,1.38,6.71,4.68,7.56,8.54,9.81,3.21,12.11,11.12,9.67,17.18-2.5,6.2-9.96,10.46-19.4,5.64,.55,6.89-5.86,13.88-13.03,12.93-4.23-.59-8.52-.05-12.76-.36-16.67-.62-33.44,.75-50.15,.08-14.7,.92-29.45,1.14-44.15,1.98-1.81-.17-3.6-.45-5.41-.69-2.56-.36-5.13-.25-7.7-.26-2.69-.14-5.34-.64-8.02-.84-2.43-.18-4.86-.18-7.3-.23-2.03-.09-4.05-.31-6.07-.5-1.88-.2-3.74-.25-5.61-.25-1.07-1.36-1.88-3.1-2.35-5.3Z"/>
    <path d="M541.6,256.77c-.5-6.62,.32-13.3-.61-19.89-5.16,5.88-13.84,4.28-20.37,1.31-9.02,.42-17.35-4.57-26.06-6.38-8.23,1.31-16.64-2.1-24.87-2.96-7.92-1.95-17.55-2.16-23.75-7.95-5.15-5.63-3.57-15.65,3.51-18.9,2.15-10.23,11.53-16.87,20.84-20.27,3.21-11.84,17.75-11.25,27.49-9.48,11.13,2.03,22.44,3.07,32.76,7.75,12.85,5.22,24.6,14.03,30.64,26.55,4.31,17.32,4.49,34.36,4.74,51.61-1.26,15.9-24.82,14.66-24.33-1.4Zm-9.43-43.33c1.99,1.3,4.05,2.5,5.97,3.92,.27,.2,.54,.41,.8,.62,.11-2.66-1.73-4.4-3.52-6.08-1.15-.17-2.25-.52-3.29-.98-.68,.46-1.4,.84-2.16,1.16,.75,.43,1.49,.89,2.21,1.36Z"/>
    <path d="M537.68,501.82c-13.72-15.22-.54-37.73,.81-55.34,3.63-38.28,7.47-77.31,6.77-115.3-1.09-31.13-1.91-62.42-11.09-92.36-4.05-10.9-3.94-22.35-15.57-26.56-8.81-5.3-6.15-20.48,4.17-22.07,9.7-1.67,16.94,6.03,22.94,12.51,27.33-8.93,24.44,49.58,25.49,65.3,1.4,1.83,2.3,4.05,2.5,6.44,.89,10.85,1.21,21.75,1.22,32.66,1.61,27.63-.76,55.18-2.15,82.77,2.17,2.36,3.42,5.58,3.35,9.02,.04,11.32-1.55,22.24-1.76,33.43-.9,17.63-6.87,88.16-36.67,69.5Z"/>
    <path d="M525.65,492.15c-11.26-7.67-1.23-18.78,.91-28.23,2.86-9.38,4.14-19.09,4.72-28.92,.43-3.76,.62-7.52,.5-11.31,.01,.02,.01,.07,0,.08,0-.02,0-.06,0-.1v.02c-.01-.15-.02-.31-.02-.46,0,.15,.02,.3,.02,.44-.01-.31-.02-.64-.04-.96,0-.07,0-.14,0-.2,0-.22,0-.43-.01-.64,0-.16,0-.33,0-.5,.19-1.53,.48-3.03,.62-4.55,.22-2.41,.33-4.83,.42-7.23,.15-4.02,.02-8.03,.1-12.03,0-.05,0-.1,0-.14,0-.03,0-.06,.01-.07v.02c0-.21,0-.43,0-.65,0,.21,0,.43,0,.63,.12-2.57,.45-5.11,.57-7.66,0,0,0,0,0,0,0,.18,0,.38-.02,.56,.01-.19,.02-.37,.02-.56,0,0,0,0,0,0,0,0,0,0,0,0,0-.18,0-.36,0-.53,.01-.07,.02-.13,.02-.2,0-.03,0-.06,0-.1,0,.03,0,.06,0,.1,0,0,0,.02,0,.02,.09-3.22,.08-6.42,0-9.69,.02,.48,.01,.95,.04,1.41-.06-7.93,.99-15.85,.78-23.8-.1-3.68,.3-7.38,.6-11.05,.35-4.41,.34-8.67,.09-13.05-.12-3.17-.19-6.3-.43-9.44,0,.01,0,.02,0,.03,0,.13,.02,.26,.03,.38,0-.13-.02-.25-.03-.38,0-.04,0-.08,0-.12,0-.06,0-.13-.01-.19,0,.02,0,.04,0,.06-.17-2.33-.27-4.65-.42-6.96-.16-2.13-.05-4.26-.14-6.38-.01-.51-.03-1.01-.05-1.52,.32-4.21,.76-8.41,1.39-12.58-1.17-6.41-2.5-12.87-4.19-19.22-.28-1.95-.61-3.88-1.23-5.79-.97-2.93-2.06-5.68-3.4-8.41,0-.02-.01-.04-.02-.05,.03,.06,.06,.11,.09,.16-.03-.07-.07-.14-.1-.2-.22-.56-.45-1.13-.68-1.69-.31-.49-.63-.97-.95-1.46-1.4-2.6-2.93-5.04-5.07-7.28-.87-.91-1.82-1.78-2.81-2.62-2.06-2.13-4.29-4.12-6.7-5.9-3.57-3.13-8.1-7.59-8.36-12.63-13.02-7.67-3.71-27.48,10.55-22.08,18.61-10.06,60.67,54.54,44.74,67.55,4,14.02,5.88,28.61,6.41,43.11-1.58,5.97-1.55,11.88-1.5,18.11,.04,13.35,1.22,27.81-5.77,39.52-.26,11.2,.44,22.52-.09,33.76,2.4,3.96,1.33,8.96,.89,13.34-1.3,15.29-4.63,78.99-29.54,69.13-.63-.25-1.26-.54-1.92-.88Z"/>
    <path d="M531.75,422.78c0,.15,.01,.3,.02,.44,0-.15-.01-.3-.02-.44Z"/>
    <path d="M531.73,422.52c0,.06,0,.12,.01,.19,0,.03,0,.05,0,.08,0-.09,0-.18-.02-.26Z"/>
    <path d="M263.88,529.24c-8.08-6.29-6.38-19.65,3.78-22.53,.31-.53,.69-1.06,1.11-1.57-4.5-3.44-7.72-8.18-12.3-11.51-6.36-4.94-13.05-12.36-8.86-20.94,2.53-5.2,8.69-7.97,14.31-6.87,4.53-2.89,9.04-2.15,12.85,.31,.58,1.07,1.18,2.13,1.84,3.17,1.29,1.97,2.87,3.76,4.42,5.54,1.71,1.95,3.29,4.01,5.08,5.9,3.88,4.12,9.39,6.91,14.51,9.14,.08,.04,.17,.07,.25,.11,.53,1.16,.91,2.4,1.11,3.75,6.28,1.46,12.69,2.49,19.19,3.2,2.75,.69,5.53,1.28,8.32,1.75l-.29-.05c1.02,.16,2.02,.33,3.03,.48l-1.38-.24c3.52,.62,7.01,1.07,10.55,1.25,.6,.07,1.2,.13,1.81,.2,.47,.06,.93,.11,1.39,.17,.1,.01,.21,.03,.31,.04-.1-.01-.2-.03-.31-.04-.18-.02-.36-.05-.53-.07,.12,0,.22,0,.34,.03,4.76,.59,9.51,.7,14.26,.57-.11,0-.21,0-.32,.01,1.01-.01,2-.03,3-.02h-.18c.1-.01,.21-.01,.31-.01,.22,0,.44,0,.66,0,.15,0,.3,0,.45-.01-.15,0-.3,0-.45,.01-.07,0-.14,0-.21,0,1.39-.03,2.76-.09,4.13-.15,0,0,.02,0,.02,0,.08,0,.16,0,.24,0,.03,0,.06,0,.09,0,.01,0,.03,0,.04,0,.03,0,.06,0,.08,0-.25,0-.5,0-.76,0,.4,0,.79-.01,1.18-.02-.08,0-.15,.01-.23,.01-.03,0-.07,0-.1,0,0,0-.01,0-.02,0-.02,0-.04,0-.06,0,.01,0,.04,0,.06,0,0,0-.01,0-.02,0-.04,0-.08,0-.13,0,.04,0,.09,0,.13,0,.21,0,.41,0,.6-.02-.12,0-.24,0-.36,0,.05,0,.1,0,.15-.02,1.33-.04,2.62-.13,3.95-.28,.08-.01,.16-.02,.25-.03,.03,0,.05,0,.08,0-.02,0-.04,0-.06,0,.02,0,.04,0,.06,0,0,0,0,0,0,0,0,0,0,0,0,0,.03,0,.06,0,.09-.01,.2-.02,.41-.04,.61-.08,.59-.07,1.17-.15,1.76-.24,2.92-.38,5.89-.54,8.84-.74,1.23-.05,2.46-.05,3.67-.06-.06,0-.11,0-.17,0-.1,0-.19,0-.29,0,.1,0,.19,0,.29,0,.11,0,.22,0,.33,0,.08,0,.15,0,.23,0-.02,0-.05,0-.07,0,.05,0,.1,0,.14,0,.16,0,.33-.01,.48-.01-.08,0-.15,0-.23,0,1.17-.06,2.31-.14,3.48-.25,2.15-.18,4.23-.37,6.35-.69-.1,.02-.2,.03-.3,.05,.74-.12,1.49-.19,2.23-.26,.27,0,.54-.01,.8,0,.09,0,.18,0,.27,0,0,0,0,0,0,0,.04,0,.07,0,.11,0,.15,0,.31,0,.47,0,0,0,.01,0,.02,0h0s0,0,0,0c0,0,0,0,0,0,.06,0,.1,0,.15,0,2.4,.05,4.82,.09,7.18-.13,2.01-.17,3.98-.53,5.99-.7,4.06-.16,8.15,.11,12.22-.04,0,0,0,0,0,0-.14,0-.28,.01-.41,.02,.14,0,.29,0,.41-.02,.11,0,.22,0,.33-.01,.05,0,.11,0,.16,0h.16c.07,0,.14,0,.21-.01,.02,0,.03,0,.05,0-.08,0-.16,.01-.26,.02,.21,0,.39,0,.59-.03-.11,0-.22,.01-.33,.02,.03,0,.05,0,.08-.01-.04,0-.09,0-.13,.01-.07,0-.14,0-.21,0-.04,0-.08,0-.12,0-.01,0-.02,0-.04,0-.05,0-.11,0-.16,0-.02,0-.03,0-.05,0,2.02-.08,3.97-.35,5.94-.66,.88-.1,1.76-.16,2.64-.2,.63,.02,1.26,.07,1.9,.12,3.64,.44,7.18,1.1,10.89,.91,2.83-.11,5.62-.5,8.44-.73,2.59-.13,5.16-.1,7.76-.16,.07,0,.14,0,.21,0-.07,0-.14,0-.21,0-.02,0-.04,0-.06,0,2.59-.08,5.08-.36,7.65-.66,1.62-.2,3.19-.58,4.78-.93,4.11,.14,8.21,.42,12.31,.89,9.14-3.78,18.57-7.27,27.29-11.77,7.03-5.92,17.23-15.83,26.55-9.38,6.56-14.28,28.02-5.42,22.5,9.34,7.96,15.13-9.93,26.75-20.19,34.92-10.6,7.73-24.76,5.52-36.16,11.21-29.85,4-57.25,6.32-86.78,6.77-48.46-.38-98.22,12.59-145.56-1.22-4.64-2.31-8.3-3.41-12.2-6.55Z"/>
    <path d="M344.35,500.44c-.1,0-.22,0-.34-.03-.08-.01-.16-.02-.24-.03,.2,.03,.39,.05,.58,.07Z"/>
    <path d="M359.73,501c-.29,.01-.57,.02-.86,.03,.29,0,.58-.02,.86-.03Z"/>
    <path d="M366.06,500.86s0,0-.01,0c-.15,0-.31,0-.46,0,.16,0,.32,0,.48,0Z"/>
    <path d="M366.28,500.85c-.07,0-.14,0-.21,0,0,0,0,0,0,0,.07,0,.15,0,.22,0Z"/>
    <path d="M366.41,500.86s0,0,0,0c-.03,0-.06,0-.09,0,0,0-.02,0-.03,0,.05,0,.09,0,.13,0Z"/>
    <path d="M366.62,500.84s.05,0,.07,0c-.03,0-.06,0-.09,0,0,0,.01,0,.02,0Z"/>
    <path d="M371.12,500.52c-.07,0-.14,.02-.21,.03-.08,0-.17,.01-.27,.02,.17-.01,.33-.03,.48-.04Z"/>
    <path d="M371.85,500.43c-.17,.03-.34,.05-.51,.07,.17-.02,.34-.04,.51-.07Z"/>
    <path d="M382.24,499.45c-.13,.01-.27,.02-.42,.02,.14,0,.27-.02,.42-.02Z"/>
    <path d="M397.85,498.25c-.15,.03-.29,.05-.44,.07,.15-.02,.29-.05,.44-.07Z"/>
    <path d="M399.16,498.2s-.06,0-.1,0c-.04,0-.08-.01-.12,0,.07,0,.15,0,.22,0Z"/>
    <path d="M400.19,498.2c-.07,0-.13,0-.19,0,.06,0,.13,0,.19,0Z"/>
    <path d="M455.43,496.79s0,0-.01,0h.14s0,0,0-.01c.03,0,.06,0,.09,0,.03,0,.06,0,.09,0h.03c.05,0,.09,0,.15,0-.2,.02-.4,.03-.61,.03,.03,0,.07,0,.1,0-.04,0-.08,0-.12,0-.04,0-.07,0-.11,0-.05,0-.11,0-.16,0,.14,0,.27,0,.41,0Z"/>
    <path d="M455.3,496.8s.01,0,.02,0c-.03,0-.06,0-.09,0,.02,0,.05,0,.07,0Z"/>
    <path d="M455.57,496.78s0,0-.02,0c-.04,0-.08,0-.11,0,.04,0,.09,0,.14-.01Z"/>
    <path d="M455.57,496.77c.06,0,.11,0,.17,0-.02,0-.05,0-.08,0-.03,0-.06,0-.09,0Z"/>
    <path d="M455.76,496.76s0,0-.01,0h0s.02,0,.02,0Z"/>
    <path d="M456.06,496.75s-.03,0-.04,0c-.08,0-.16,.01-.25,0,.1,0,.19-.01,.29-.02Z"/>
    <path d="M456.06,496.75s.05,0,.08,0c0,0,0,0,0,0,.01,0,.02,0,.03,0-.02,0-.04,0-.08,0-.02,0-.05,0-.07,0,.01,0,.03,0,.04,0Z"/>
    <path d="M456.2,496.73h.02s.09,0,.14,0c-.06,0-.12,.01-.19,.02,0,0,0,0,0,0-.01,0-.02,0-.03,0,.02,0,.04,0,.06-.01Z"/>
    <path d="M352.72,446.17c.05-10.37,11.77-13.9,20.32-11.17,10.25-4.01,21.72,1.06,32.36,.46,11.47-1.56,22.38-5.68,33.28-9.4,13.18-17.4,32.3-30.11,44.89-47.98,6.8-9.11,17.46-5.52,21.14,1.62,0,.01,0,.02,0,.03,0,.03,0,.05,0,.08,0,.06,.01,.13,0,.19,0,0,0,0,0,.01,0,0,0,.02,0,.03,0,.01,0,.03,0,.05,0-.02,0-.03,0-.05h0s0,.05,0,.07c0,0,0,.02,0,.03,0-.02,0-.03,0-.05,0,.03,0,.05,0,.08,0,.01,0,.03,0,.04,.05,2.71,0,5.43,.1,8.16,0-.08-.01-.16-.02-.24,0-.13-.01-.26-.02-.39,0,.09,0,.17,0,.26,.02,.65,.03,1.31,.03,1.96-.61,1.26-1.47,2.52-2.62,3.73,.54,.24,1.05,.52,1.56,.82,.33,.19,.65,.41,.95,.64-.08,2.39-.17,4.79-.14,7.18,.04,2.37-.21,4.73-.07,7.1,.1,1.41,.3,2.82,.38,4.22,.02,.66,.01,1.32,.01,1.99,0,.06,0,.14,0,.22,0-.03,0-.07,0-.1,0-.03,0-.07,0-.1,0,.03,0,.07,0,.1,0,.03,0,.07,0,.1s0,.07,0,.1c0,.37,.01,.74,0,1.13,0-.11,0-.22,0-.33,0,.08,0,.17,0,.25,0-.1,0-.19,0-.29,0-.04,0-.08,0-.12,0,.92,0,1.85,0,2.77-.02,.57-.06,1.12-.12,1.69-.17,1.2-.35,2.42-.5,3.63,.05-.49,.12-.98,.18-1.44-.13,.95-.28,1.9-.4,2.83l.03-.23c-.6,4.25-.88,8.52-1.34,12.77-.02,.14-.04,.28-.05,.42,0-.03,0-.06,.01-.09,0,.05-.01,.1-.02,.15-.12,.87-.24,1.75-.42,2.6-.3,.86-.66,1.71-.94,2.58-.2,.67-.38,1.34-.54,2.01-2.16,2.37-4.36,4.56-6.48,6.52-6.96,8.15-17.12,11.37-27.37,13.91-.08,0-.15,.02-.23,.03-1.08,.03-2.15,0-3.23-.03-1.96-.22-3.89-.64-5.86-.76-2.62-.16-5.18,.57-7.72,1.12-.35,.06-.72,.11-1.08,.15-1.44,.11-2.87,.17-4.31,.22-.43,0-.87-.04-1.29-.06-.86-.1-1.72-.21-2.57-.28,.07,0,.15,0,.22,.01,.07,0,.14,.01,.22,.02-.07,0-.15-.01-.22-.02-.17-.02-.35-.04-.52-.05,.1,.02,.2,.02,.29,.03-1.21-.09-1.81-.08-3.24-.05,.49,0,.97,0,1.45,0-2.27,0-4.48,.34-6.75,.6-1.69,.17-3.36,.37-5.06,.56-.1,0-.22,0-.33,0-.45-.01-.89-.03-1.33-.06-1.01-.13-2.01-.24-3.02-.28-.04,0-.07,0-.1,0-.04,0-.07,0-.12,0,.04,0,.08,0,.12,0,0,0,.01,0,.02,0h0s-.02,0-.03,0c0,0-.02,0-.03,0,0,0,.02,0,.03,0,.01,0,.02,0,.03,0,0,0,.01,0,.02,0,0,0,0,0-.01,0,.2,.02,.4,.03,.59,.05-2.87-.15-5.66,.07-8.5,.32,.04,0,.11-.02,.15-.02-1.15,.1-2.27,.15-3.41,.19-1.17,0-2.33,0-3.51-.04-.3-.02-.58-.03-.88-.04-.34-.03-.65-.05-.99-.08-1.14-.12-2.27-.26-3.39-.44-2.23-.33-4.44-.43-6.67-.49,.07,0,.13,0,.19,0-.1,0-.2,0-.3,0,.02-.01,.06,0,.1,0-.05,0-.12,0-.18,0,0,0,0,0-.01,0-.06,0-.11,0-.17,0-.12,0-.23,0-.35-.01-2.06-.09-4.13-.15-6.18-.23-2.55-.17-5.13-.49-7.65-.9-3.31-.64-6.57-1.37-9.85-2.18-3.49-.87-7.09-1.09-10.64-1.47-3.17-.43-6.28-1.01-9.42-1.46-3.09-.47-6.16-.86-9.2-1.55,0,0,0,0-.01,0-.03,0-.07-.01-.1-.02,.02,0,.04,0,.05,.01-.08-.02-.17-.03-.25-.05,.19,.04,.38,.08,.57,.13,0,0,0,0,.01,0,0,0,0,0,0,0,.27,.06,.53,.12,.79,.19-2.59-.6-5.19-1.19-7.78-1.79,0,0,0,0-.01,0-.02,0-.03,0-.05-.01-.15-.03-.29-.07-.44-.1,.05,.02,.09,.03,.13,.04-.1-.02-.2-.04-.31-.07,.13,.03,.24,.06,.38,.09-.02,0-.05-.02-.07-.02,.1,.02,.21,.04,.3,.06h.06c.07,.04,.14,.05,.21,.08,.17,.03,.34,.07,.51,.12-.97-.23-1.94-.44-2.91-.63-.63-8.71,8.71-17.88,19.55-11.4Z"/>
    <path d="M395.02,467.33c.08,0,.15,0,.23,.01-.17,0-.34,0-.52-.01,.1,0,.19,0,.29,0Z"/>
    <path d="M395.37,467.34c.05,0,.1,0,.15,0-.09,0-.18,0-.27-.01,.04,0,.08,0,.12,0Z"/>
    <path d="M395.54,467.35s0,0,0,0c0,0-.02,0-.03,0,0,0,.01,0,.02,0Z"/>
    <path d="M395.55,467.35s.01,0,.02,0c0,0-.02,0-.02,0,0,0,0,0,0,0Z"/>
    <path d="M425.18,468.15c-.34-.04-.67-.07-1.01-.11,.33,.02,.68,.07,1.01,.11Z"/>
    <path d="M425.26,468.16s-.01,0-.02,0c0,0,.01,0,.02,0Z"/>
    <path d="M502.78,438.64c.03-.2,.06-.4,.09-.61-.05,.32-.08,.62-.13,.94,.01-.11,.02-.22,.04-.33Z"/>
    <path d="M504.81,388s0,.08,0,.12c.01,.29,.03,.58,.04,.87-.02-.33-.04-.66-.05-.98Z"/>
    <path d="M504.81,387.99s0-.05,0-.08c0,.03,0,.05,0,.08,0,0,0,0,0,0Z"/>
    <path d="M504.75,380.5c0,.17,.01,.34,.03,.5-.02-.18-.02-.34-.03-.5Z"/>
    <path d="M504.74,380.23s0,.09,0,.13c0-.05,0-.1,0-.13Z"/>
    <path d="M504.72,379.81s0-.05,0-.08v-.03s0,0,0,.01c0,.05,0,.11,0,.16,0-.02,0-.05,0-.07Z"/>
    <path d="M461.36,424.2c-15.17-8.87-1.38-26.37,1.21-38.54,3.69-16.26,9.84-31.79,15.65-47.39,1.83-4.89,3.3-10.57,8.28-12.99,.28-8.84-1.57-19.06,2.78-27.04,.03-.44,.04-.88,.02-1.3,1.94-4.39,1.2-9.29-1.19-13.35,.14,.18,.25,.36,.38,.54-.17-.25-.35-.51-.51-.78,.05,.08,.1,.16,.13,.24-.15-.24-.32-.48-.5-.71-.71-1.53-1.68-3-2.96-4.33-2.96-3.03-6.74-5.33-11.04-5.8s-8.64,.51-12.25,2.91c-3.07,2.06-5.6,5.36-6.93,9.01-11.88,2.32-24.4,5.87-33.27,6.58-1.31-.52-2.62-1.04-3.94-1.54l.21,.08c-.18-.07-.36-.12-.54-.19-.27-.11-.52-.19-.79-.29l.32,.13c-2.35-.83-4.75-1.55-7.2-2.09-1.08-.22-2.19-.42-3.29-.53-5.72-7.08-2.05-20.39,10.06-20.08,19.16-.51,37.22-8.78,56.52-8.59,5.04,1.3,9.92,2.92,14.85,4.64-.02,0-.04-.01-.06-.01,2.63,.9,5.3,1.77,7.97,2.58l.12,.05c.46,.14,.91,.3,1.35,.43h.02c-.12-.03-.24-.06-.36-.1,.12,.04,.23,.07,.34,.1-.11-.03-.22-.07-.34-.1-.22-.07-.45-.15-.66-.21,.36,.12,.7,.24,1.06,.38,.58,.66,1.16,1.32,1.74,1.98,0,0,.01,.01,.02,.02l.4,.46s.02,.01,.03,.02c.04,.04,.07,.09,.11,.13,0,0,0,0,0,0,0,0,0,0,0,0,.01,.01,.02,.02,.03,.04,.07,.09,.14,.16,.21,.25,1.1,2.67,2.3,5.27,3.47,7.91,.05,.18,.13,.36,.2,.53,.37,1.29,.66,2.58,1.04,3.85,.32,1.15,.78,2.27,1.08,3.44,.03,.07,.04,.16,.05,.23l.08,.58c-.01-.16-.03-.31-.05-.47,0,0,0,0,0,0,.2,1.68,.43,3.32,.7,4.97-.03-.09-.03-.18-.06-.27,.05,.29,.09,.59,.14,.89,.04,.22,.07,.44,.09,.65,.02,.15,.03,.3,.05,.45,0,.29,.03,.59,.06,.88-.03,4.12-.34,8.26-.24,12.4,0-.01,0-.03,0-.04,.16,6.83,.18,13.71-.22,20.52-.12,1.69-.2,3.36-.21,5.08,0-.31,0-.62,0-.94l-.03,1.77c0-.18,0-.37,.01-.55,0,.37,0,.72-.02,1.08v.8c-.05,1.97-.04,3.96-.05,5.95-.06,1.49-.19,2.97-.16,4.48,.06,1.62,.24,3.23,.34,4.83,0,.02,.01,.02,.01,.02-.05,1.84-.1,3.67-.08,5.52,0-.5-.01-1.01-.02-1.5,.04,7.41-.55,14.8-.81,22.21v-.31c0,.14-.01,.28,0,.43-.02,.32-.02,.63-.04,.93,0-.04,.01-.09,.01-.13,0,.05,0,.09-.01,.13,0,.04,0,.06,0,.1,0-.07,0-.15,.01-.22-.05,1.59-.06,3.16,0,4.76,0,.03,0,.05,0,.08,0,.06,.01,.13,0,.19,0,0,0,0,0,.01,0,0,0,.02,0,.03,0,.01,0,.03,0,.05,0-.02,0-.03,0-.05h0s0,.05,0,.07c0,0,0,.02,0,.03,0-.02,0-.03,0-.05,0,.03,0,.05,0,.08,0,.01,0,.03,0,.04,.05,2.71,0,5.43,.1,8.16,0-.08-.01-.16-.02-.24,0-.13-.01-.26-.02-.39,0,.09,0,.17,0,.26,.14,4.78-.29,9.57-.22,14.34,.04,2.37-.21,4.73-.07,7.1,.07,1.05,.2,2.09,.29,3.14-3.13,1.76-6.94,2.23-10.37,.64-4.27,4.11-10.24,3.05-15.51,2.38-1.79,7.2-9.77,11.74-16.66,9.01-.3-.12-.61-.26-.92-.41Z"/>
    <path d="M504.81,388s0,.08,0,.12c.01,.29,.03,.58,.04,.87-.02-.33-.04-.66-.05-.98Z"/>
    <path d="M504.81,387.99s0-.05,0-.08c0,.03,0,.05,0,.08,0,0,0,0,0,0Z"/>
    <path d="M504.75,380.5c0,.17,.01,.34,.03,.5-.02-.18-.02-.34-.03-.5Z"/>
    <path d="M504.74,380.23s0,.09,0,.13c0-.05,0-.1,0-.13Z"/>
    <path d="M504.72,379.81s0-.05,0-.08c0-.06,0-.11,0-.17,0,.11,.01,.21,.01,.32,0-.02,0-.05,0-.07Z"/>
    <path d="M504.73,374.41s0-.08,.01-.12c0,.15-.01,.29-.02,.44,0-.11,0-.22,0-.33Z"/>
    <path d="M505.52,330.44s0,.01,0,.02c0,0,0-.01,0-.02Z"/>
    <path d="M505.95,304.62s0,.05,0,.07c0-.02,0-.05,0-.07Z"/>
    <path d="M506.18,292.03c-.02-.27-.02-.52-.02-.79l.02,.87s0,.03,0,.04c0-.04,0-.09,0-.13Z"/>
    <path d="M505.15,284.38s0,.03,0,.05c0-.02,0-.03,0-.05Z"/>
    <path d="M505.09,283.83c0,.07,.02,.14,.03,.21,0-.07-.02-.14-.03-.21Z"/>
    <path d="M499.6,269.13s.03,.03,.05,.04c.07,.13,.16,.27,.23,.4-.09-.14-.19-.3-.28-.44Z"/>
    <path d="M499.48,268.91h-.02s0-.02,0-.02c0,0,0,.01,.01,.02,.03,.03,.04,.06,.05,.08-.01-.02-.04-.06-.05-.08Z"/>
    <path d="M499.44,268.86s.02,.02,.02,.03h0s-.01-.02-.02-.03Z"/>
    <path d="M499.2,268.6s.06,.06,.1,.1c-.03-.03-.07-.07-.1-.1Z"/>
    <path d="M499.1,268.49s-.03-.04-.05-.06c.02,.02,.04,.05,.05,.07,0,0,0,0,0,0Z"/>
    <path d="M499.03,268.4s-.02-.03-.03-.04c0,0,0,0,0,0,.02,.02,.04,.04,.05,.05,0,0,0,0,0,0Z"/>
    <path d="M498.99,268.36s0,0-.01-.01c0,0,.01,0,.02,.01,0,.01,.02,.02,.03,.03,0-.01-.02-.02-.03-.03Z"/>
    <path d="M498.98,268.35s-.07-.08-.11-.12c-.03-.04-.06-.08-.1-.12,.07,.08,.14,.17,.22,.25,0,0,0,0-.01,0Z"/>
    <path d="M498.57,267.89s-.01-.01-.02-.02c-.04-.05-.09-.1-.13-.15,.15,.17,.31,.34,.46,.51,.03,.04,.06,.07,.09,.12-.13-.16-.27-.3-.4-.46Z"/>
    <path d="M498.96,267.85l-.05-.12,.05,.12,.09,.2-.09-.2,.12,.27s.03,.08,.05,.12c-.06-.13-.12-.25-.16-.39Z"/>
    <path d="M499.65,267.7s.04,.04,.06,.05c-.02-.02-.04-.04-.06-.05Z"/>
    <path d="M499.59,267.65s0,0,0,0c0,0,0,0,0,0Z"/>
    <path d="M420.38,290.94l.78,.31s-.01,0-.02,0c-.25-.1-.51-.21-.76-.31Z"/>
    <path d="M296.28,300.14c-2.46-8.78-1.96-18.29,.21-27.14,.11-.16,.2-.31,.32-.45,.14-.19,.27-.37,.4-.56,.27-.32,.54-.63,.81-.95,1.4-1.37,2.87-2.65,4.14-4.16,1.13-1.35,2.21-2.75,3.4-4.04,.19-.17,.39-.36,.59-.55,.8-.67,1.65-1.27,2.52-1.85,1.56-.94,3.17-1.75,4.8-2.55,.87-.37,1.75-.74,2.64-1.02,0,0,0-.02,.02-.01,8.37-1.9,17-2.35,25.65-2.41,2.57,.62,5.19,.96,7.8,1.21,2.62,.26,5.2,.17,7.82,.06-.08,0-.19,0-.27,.02,2.92-.09,5.85,.18,8.78,.24,2.47,.03,4.89-.19,7.36-.32,.54-.01,1.09,0,1.64,0,1.48,.42,2.88,1.01,4.16,1.86,6.16-.33,12.34-.41,18.51-.51,2.27,.22,4.52,.33,6.79,.41-.05,0-.1,0-.15,0,.06,0,.11,0,.16,0,.07,0,.15,0,.22,0,.06,0,.12,0,.18,.01,.31,0,.63,0,.93,.02-.3-.02-.63-.02-.93-.04,1.83,.05,3.66,.06,5.51,.09,1.69,.12,3.4,.36,5.1,.52,2.1,.18,4.18,.1,6.28,.13,2.78,.16,5.54,.54,8.33,.59,2.5,.05,5-.11,7.51-.1,3.87,.16,7.7,.73,11.58,.92,.17,.03,.36,.02,.53,.05,.38,.03,.76,.04,1.14,.03,4.52,5.69,3.27,15.29-3.89,18.71-3.61,1.89-7.82,1.65-11.78,1.97-2.73,2.85-6.46,3.75-10.27,3.65-8.83,.37-17.59,1.8-26.46,1.81-7.89-.3-17.94,3.41-23.62-3.88-11.81,.61-23.53,2.28-35.34,2.93-5.78,1.31-12.73,.76-16.16-4.72-1.15,.2-2.25,.71-3.31,1.17-.92,4.59-1.58,9.21,.19,13.7,2.23,11.08-8.73,16.88-16.7,13.73-3.24-1.28-6.01-4.08-7.14-8.6Z"/>
    <path d="M296.5,272.98s.01-.02,.02-.03c0,.01-.01,.02-.02,.03h0Z"/>
    <path d="M296.69,272.71c-.05,.08-.1,.15-.17,.22,.06-.07,.11-.15,.17-.22Z"/>
    <path d="M296.73,272.66s-.03,.04-.04,.05c.01-.02,.03-.04,.04-.05Z"/>
    <path d="M315.84,256.96s0,0,0,0c0,0,0,0,0,0,.05-.02,.1-.03,.16-.05,.04,0,.07-.02,.11-.02h0c-.25,.07-.48,.14-.72,.21,.15-.05,.3-.09,.45-.14Z"/>
    <path d="M308.41,453.9c-.17-.09-.36-.18-.53-.27-.53-.37-1.04-.74-1.55-1.17-.26-.23-.52-.49-.79-.74-.89-1.11-1.67-2.26-2.7-3.28-.89-.86-1.86-1.68-2.68-2.6,.31,.35,.62,.72,.93,1.06-.92-1.04-1.8-1.98-2.77-2.9-4.62-8.67-4.31-18.91-4.39-28.53-3.81-4.56-6.81-11.05-5.06-16.98-3.34-18.32,.35-38.9,.2-56.96-.27-10.29-.94-20.59,.48-30.8-1.21-11.33,4.92-24.78,18.23-19.1,1.48-7.16,6.56-12.74,11.61-17.69,4.34-6.88,14.41-8.76,20.11-2.57,8.41-4.02,19.27-9.09,27.39-2.12,16.63-6.93,36.45-12.71,53.4-3.93,7.82,4.94,6.91,17.26-1.29,21.31-1.9,.62-3.92,1.21-6.02,1.71-1.23-.36-2.49-.7-3.75-.97-1.79-.38-3.62-.63-5.45-.68-1.6-.04-3.13,.13-4.67,.32-.02,0-.04-.01-.06,0-.08-.01-.14-.01-.22,0-2.03-.11-4.01-.16-6.11,.02-1.84,.15-3.6,.5-5.42,.85-.13,.01-.27,.02-.4,.03t-.04,0c-2.03,.16-4,.36-6.02,.81-1.85,.37-3.62,.96-5.41,1.56-1.22,.34-2.47,.64-3.68,1.06-1.46,.53-2.77,1.26-4.14,1.97-1,.4-2.02,.76-2.99,1.29-1.34,.76-2.53,1.64-3.74,2.57-.13,.07-.24,.15-.37,.22,.11-.06,.2-.1,.29-.17-.03,.03-.06,.04-.09,.07-3.55,2.08-6.71,4.58-10.1,6.9,.28-.18,.53-.34,.78-.53-2.05,1.44-3.58,2.99-5.25,4.93,.31-.37,.61-.72,.92-1.09-1.12,1.32-2.37,2.57-3.56,3.81-1.04,1.12-2.1,2.2-3.05,3.4-.79,1-1.42,2.14-2.13,3.21-2.44,3.74-4.78,7.67-6.88,11.64-1.42,2.61-2.9,5.14-3.93,7.97-.71,1.95-1.28,3.9-1.82,5.89-.07,.22-.11,.43-.17,.63-.05,.18-.1,.35-.15,.53,.06-.14,.09-.27,.13-.42-.38,1.53-.55,3-.73,4.54-.21,1.47-.51,2.95-.87,4.43,.13-.48,.24-.97,.37-1.45-.79,3.13-1.05,5.96-1.24,9.18l.1-1.5c-.02,.63-.06,1.25-.07,1.9-.4,.19-.82,.35-1.25,.51,.31,1.91,.51,3.83,.68,5.78-.03,1.16,.03,2.31,.2,3.48,.04,.22,.07,.44,.09,.65,.27,4.02,.55,8.02,1.39,11.96,3.65,10.19,8.74,18.74,16.06,25.98,11.26,10.97,22.3,21.03,38.46,21.49,12.74,2.75,13.05,21.06,.16,23.92-5.36,.46-10.68,.22-16.08,.35,1.13,2.62,1.26,5.14,.66,7.44-.91-.09-1.83-.18-2.74-.28-3.17-.43-6.28-1.01-9.42-1.46-3.09-.47-6.16-.86-9.2-1.55,0,0,0,0-.01,0-.03,0-.07-.01-.1-.02,.02,0,.04,0,.05,.01-.08-.02-.17-.03-.25-.05,.19,.04,.38,.08,.57,.13,0,0,0,0,.01,0,0,0,0,0,0,0,.27,.06,.53,.12,.79,.19-2.59-.6-5.19-1.19-7.78-1.79,0,0,0,0-.01,0-.02,0-.03,0-.05-.01-.15-.03-.29-.07-.44-.1,.05,.02,.09,.03,.13,.04-.1-.02-.2-.04-.31-.07,.13,.03,.24,.06,.38,.09-.02,0-.05-.02-.07-.02,.1,.02,.21,.04,.3,.06h.06c.07,.04,.14,.05,.21,.08,.17,.03,.34,.07,.51,.12-2.29-.54-4.52-.99-6.83-1.21-1.88-.23-3.76-.48-5.66-.68,.07,0,.13,.01,.2,.02,.09,0,.19,.02,.28,.03-.09-.01-.19-.02-.28-.03-.29-.03-.58-.06-.86-.08-.1-.01-.19-.02-.29-.03,.1,0,.2,.02,.29,.03,.15,.02,.3,.03,.46,.04-1.49-.12-2.95-.16-4.41-.09-.16,0-.35,0-.51,0-.08-.01-.16,0-.24-.01-.56-.08-1.13-.16-1.69-.22,.06,0,.14,.01,.2,.02-.14-.01-.29-.03-.42-.07,.07,.01,.15,.02,.23,.03,.03,0,.06,.01,.1,.02-.03,0-.06-.01-.1-.02-.16-.03-.31-.04-.48-.06-.02,0-.05,0-.07-.01-.04,0-.08,0-.12-.01-.03,0-.06-.01-.09-.02,.02,0,.04,0,.05,0h-.11s-.08-.03-.12-.03l.12,.02s.04,0,.06,0c-.08,0-.15-.02-.23-.03,.01,0,.03,0,.04,0h-.11s-.04-.02-.06-.03c-.03,0-.06,0-.1,0l-.19-.03s.07,.01,.11,.02c0,0,0,0-.01,0,.21,.03,.43,.06,.65,.09,.04,0,.09,.01,.13,.02,.02,0,.03,0,.05,0,.05,0,.1,.02,.16,.03,0,0-.02,0-.03,0-.07-.01-.13-.02-.2-.03-.01,0-.03,0-.05,0,.01,0,.02,0,.03,0-.07,0-.14-.01-.21-.02-.74-.11-1.44-.2-2.16-.28,.23,.03,.47,.04,.73,.08-.92-.14-1.85-.26-2.8-.38-1.05-.46-2.09-.92-3.11-1.39Z"/>
    <path d="M315.42,455.8s.02,0,.03,0h-.07s.03,0,.05,0Z"/>
    <path d="M316.18,455.91h.09s-.04,0-.06,0c.04,0,.07,0,.1,0,.02,0,.03,.01,.05,.02-.08-.01-.15-.02-.23-.03,.02,0,.03,0,.05,0Z"/>
    <path d="M360.94,297.14c.26-.14,.55-.3,.81-.44-.28,.16-.57,.32-.87,.49,.02-.02,.04-.03,.06-.05Z"/>
    <path d="M386.87,287.89s.03,0,.04,0c-.1,.01-.21,.02-.32,.03,.09-.01,.19-.02,.28-.03Z"/>
    <path d="M386.92,287.89s.06,0,.09,0c-.03,0-.06,0-.09,0,0,0,0,0,0,0Z"/>
    <path d="M387.15,287.87s-.02,.01-.04,0c-.03,0-.06,0-.09,0,.04,0,.09,0,.13-.01Z"/>
    <path d="M387.29,287.87c.07,0,.13,0,.2,0-.07,0-.14,0-.21,0,0,0,0,0,0,0Z"/>
    <path d="M372.43,390.67l-.51-.2-1.04-.41c-.7-.26-1.4-.51-2.05-.81-.09-.04-.17-.09-.25-.14-1.42-1.01-2.81-2.06-4.26-3.06l-.42-.35c-.32-.29-.62-.6-.94-.88-.01-.02-.05-.04-.06-.06,.09,.1,.2,.18,.3,.28l-.45-.42s-.09-.1-.15-.14c-.07-.07-.15-.14-.22-.23-.51-.67-.92-1.41-1.51-2.03-.32-.35-.65-.68-.98-1-8.31-13.24-6.57-30.84,1.34-44.47,.06-.08,.13-.16,.19-.24,0,0,.01,0,.01-.02,0,0,0,.01-.01,.02,0,0,0,0-.01,0,.02-.02,.03-.04,.05-.06,.02-.02,.04-.05,.06-.07-.02,.02-.04,.05-.06,.07-.02,.02-.04,.04-.06,.07-.03,.04-.06,.07-.09,.11-.02,.02-.03,.04-.05,.06,0,0,0,0-.01,.01,0,0,0,0,0,0,0,0,0,0,0-.01,.52-.66,1.03-1.33,1.56-2.01,.83-.92,1.71-1.82,2.5-2.8,.52-.63,.96-1.3,1.46-1.94,.4-.39,.82-.78,1.24-1.17,.92-.76,1.82-1.53,2.73-2.3-.02,.02-.04,.03-.06,.04,.45-.36,.89-.69,1.37-.98l3.43-2.14c.21-.12,.42-.24,.65-.36,1.16-.5,2.32-1.01,3.47-1.52-.13,.07-.27,.12-.4,.19,.25-.11,.49-.21,.76-.31,1.98-.55,4.02-.99,6.04-1.4,1.1-.18,2.22-.33,3.33-.4,.6-.03,1.19-.06,1.79-.07,.58-.02,1.15-.01,1.74,.01,.04,0,.07,0,.11,.01,0,0,0,0-.01,0,.02,0,.04,0,.06,0,.03,0,.05,0,.08,.01h-.02s.07,0,.11,0c-.03,0-.06,0-.09,0,.06,0,.12,0,.18,.01,.29,.03,.57,.06,.87,.09,2.4,.25,4.81,.73,7.18,1.26,1.85,.43,3.74,.87,5.56,1.49,.73,.33,1.47,.68,2.2,1.07,1.75,.96,3.5,2.02,5.12,3.21,.71,.63,1.39,1.31,2.08,1.95,.91,.85,1.88,1.61,2.88,2.35,.43,.36,.84,.72,1.24,1.11,1.54,1.65,2.99,3.46,4.37,5.25,.08,.11,.16,.23,.23,.36,1.04,1.97,2.02,4.01,2.94,6.04-.18-.42-.38-.85-.58-1.27,.55,1.2,1.2,2.36,1.76,3.52,.15,.35,.29,.67,.41,1.02,.4,1.53,.67,3.13,.93,4.68-.01-.07-.03-.15-.04-.21,.02,.08,.03,.17,.05,.25,.02,.11,.04,.21,.05,.32,0-.06-.02-.12-.03-.18,.12,.64,.24,1.29,.37,1.96,.02,.15,.04,.32,.05,.49,.04,1.51,.1,3.01,.15,4.53,.09,2.57,.09,5.2-.09,7.79,0,.06-.01,.14-.02,.22-.18,.87-.38,1.73-.58,2.62l-2.58,8.07c-.37,1.08-.85,2.14-1.32,3.18,.03-.07,.07-.12,.09-.19-.04,.09-.09,.19-.13,.28l.04-.09c-.05,.12-.12,.24-.16,.36,.02-.06,.06-.12,.09-.19-.1,.23-.21,.45-.31,.68,.07-.16,.14-.33,.22-.49-.18,.39-.37,.78-.55,1.18-.3,.65-.62,1.3-.96,1.95-.74,.69-1.5,1.35-2.26,2.03,.37-.31,.72-.62,1.08-.92-1.54,1.31-3.01,2.68-4.47,4.05-.04,.05-.09,.07-.13,.11-.52,.3-1.05,.6-1.58,.88,.11-.06,.23-.13,.34-.18-.92,.46-1.87,.9-2.81,1.3-.05,.02-.12,.04-.17,.07l.12-.05c.09-.03,.17-.07,.26-.1-.02,0-.03,.01-.05,.02l.05-.02s.02,0,.02-.01c.07-.03,.15-.06,.24-.09-.11,.04-.22,.08-.33,.13,0,0,0,0,.01,0,0,0,0,0-.01,0-.07,.03-.13,.05-.2,.08-.05,.02-.1,.04-.15,.06,0,0,.02,0,.02-.01-.23,.07-.46,.17-.7,.26,.15-.05,.29-.11,.43-.16h0s.04,0,.06-.02c.01,0,.02,0,.03,0-1.05,.43-2.07,.88-3.11,1.33-.17,.06-.35,.11-.52,.16-2.14,.49-4.31,.85-6.43,1.29-.81,.13-1.61,.24-2.4,.32,.34-.03,.67-.04,1.01-.07-.34,.03-.7,.05-1.04,.08h0s.01-.01,.02-.01c-.01,0-.02,0-.02,0h-.03s-.06,0-.08,0c.03,0,.05,0,.08,0,0,0,.02,0,.02,0-.14,0-.3,.03-.44,.03,.02,0,.04,0,.07,0,.09,0,.18-.01,.27-.02-.1,0-.19,.01-.27,.02-1.09,.08-2.19,.18-3.27,.3-2.17,.16-4.33,.33-6.48,.55,.36-.04,.73-.08,1.1-.11,.13-.01,.26-.02,.4-.04-.13,.01-.26,.02-.4,.04-.77,.06-1.54,.07-2.3,.04-.94-.05-1.89-.09-2.81-.19-1.6-.26-3.21-.64-4.8-1.02h.04c-.85-.18-1.68-.4-2.5-.65-1.18-.38-2.36-.77-3.55-1.16,.45,.16,.91,.3,1.34,.45-.56-.18-1.14-.37-1.7-.57l.11,.04c-.51-.17-1.02-.36-1.52-.56-1-.4-1.99-.83-2.99-1.23Z"/>
    <path d="M414.79,391.58s-.08,.03-.11,.05c0,0-.02,0-.02,0-.02,0-.03,0-.04,.01-.02,0-.04,.01-.06,.02,.07-.03,.15-.06,.24-.09Z"/>
    <path d="M414.79,391.58c.05-.02,.1-.04,.15-.06-.06,.03-.13,.05-.19,.08,.01,0,.03-.01,.04-.02Z"/>
    <path d="M416.27,391c-.29,.11-.6,.23-.89,.34,.29-.11,.59-.24,.89-.34Z"/>
    <path d="M425.68,382.47c-.03,.07-.06,.13-.09,.2,.03-.07,.06-.13,.09-.2Z"/>
    <path d="M427.55,378.4c-.04,.11-.07,.24-.12,.36,.03-.13,.08-.25,.12-.36Z"/>
    <path d="M361.26,336.68s0,0,0,0c0,0,0,0,.01-.01,.02-.02,.03-.04,.05-.06-.02,.03-.05,.06-.07,.09,0,0,0-.01,0-.02Z"/>
    <path d="M361.41,336.49s0,0,0,0c-.02,.03-.04,.05-.06,.08,.02-.02,.03-.05,.05-.07Z"/>
    <path d="M431.1,358.92l.05,1.12c-.03-.38-.05-.76-.05-1.12Z"/>
    <path d="M371.33,325.96s-.02,.01-.03,.03c-.07,.05-.14,.09-.22,.13,.08-.05,.16-.11,.25-.16Z"/>
    <path d="M371.36,325.95l.66-.42c-.23,.16-.45,.31-.69,.44,0-.02,.02-.01,.03-.03Z"/>
    <path d="M392.63,319.5c-.2-.02-.4-.03-.61-.06,.2,.02,.41,.04,.61,.06Z"/>
    <path d="M393.03,319.53s.02,0,.02,0c0,0-.02,0-.02,0,0,0,0,0,0,0-.01,0-.03,0-.04,0,.01,0,.02,0,.03,0Z"/>
    <path d="M393.08,319.54s.01,0,.02,0h.01s-.03,0-.05,0c0,0,.01,0,.02,0Z"/>
    <path d="M393.09,319.53s0,0-.01,0c0,0-.02,0-.02,0,.01,0,.03,0,.04,0Z"/>
    <path d="M393.47,319.56c-.05,0-.1,0-.14,0h-.16c.1,0,.21,0,.3,0Z"/>
    <path d="M393.61,319.58s-.07,0-.11,0c.04,0,.07,0,.11,0Z"/>
    <path d="M394.8,319.7c-.34-.03-.7-.07-1.04-.1,.35,.03,.7,.07,1.04,.1Z"/>
    <path d="M402.34,321.14c-.05-.01-.11-.02-.16-.04,.05,.01,.11,.02,.16,.04Z"/>
    <path d="M466.64,368.52c-.65-.75-1.19-1.52-1.63-2.32,.46-2.21,.77-4.44,.93-6.72,.18-2.41,.29-4.82-.07-7.22-.2-1.27-.44-2.51-.62-3.77-.24-2.49-.55-4.9-1.11-7.31,.04,.18,.09,.36,.13,.53l-.16-.68c-.02-.09-.05-.18-.07-.27-.04-.14-.07-.27-.11-.41,.03,.14,.07,.27,.11,.41,.01,.06,.03,.12,.04,.17-.26-.95-.53-1.91-.76-2.87-.19-.86-.36-1.72-.54-2.57-.4-1.74-.93-3.37-1.55-5.02,.09,.23,.17,.45,.26,.68-.17-.44-.31-.86-.43-1.3-.04-.15-.07-.29-.11-.43,.03,.15,.07,.29,.11,.43,.03,.14,.07,.28,.1,.43v-.02s0,.02,0,.02c0,.01,0,.02,.01,.03,.04,.16,.08,.31,.11,.49-.05-.18-.08-.36-.13-.54-.72-2.78-1.72-5.23-3.13-7.73,.13,.24,.27,.46,.4,.69-.17-.34-.37-.66-.57-.98-.02-.04-.05-.08-.07-.13-.02-.05-.05-.09-.08-.13-.05-.09-.11-.18-.17-.28l-.61-1.1c.09,.18,.19,.34,.28,.52-1.18-2.04-2.49-3.85-3.9-5.76,.3,.38,.59,.79,.88,1.19-.76-1.04-1.42-2.16-2.23-3.16-.78-.98-1.67-1.85-2.56-2.74-.05-.05-.1-.11-.15-.16-.05-.06-.1-.12-.14-.18-.02-.03-.05-.06-.07-.09,.02,.03,.04,.06,.07,.09,.05,.06,.09,.12,.14,.18,.02,.02,.03,.04,.05,.06h-.04c-1.01-1.29-2.1-2.46-3.25-3.61-.26-.27-.53-.53-.79-.79-.17-.17-.33-.33-.5-.5,.16,.17,.33,.33,.5,.5,.05,.05,.1,.1,.14,.15-.01-.01-.03-.03-.04-.04,.02,.02,.04,.04,.07,.06,.04,.04,.07,.08,.11,.12,.01,.02,.03,.03,.04,.05-.98-.98-1.86-1.78-2.93-2.63-2.23-1.74-4.49-3.35-6.85-4.92-.01-.05-.03-.1-.04-.15-.05,0-.1,.01-.15,.02-.18-.12-.35-.24-.53-.35,.08,.05,.18,.11,.26,.17-.04-.02-.07-.05-.11-.07,.1,.07,.21,.14,.32,.22-.11-.07-.21-.15-.32-.22-.13-.09-.26-.18-.39-.27-.05-.04-.1-.07-.15-.1-.92-.58-1.78-1.09-2.78-1.64,.3,.16,.6,.33,.9,.49-3.2-1.77-6.45-3.49-9.8-4.98-3.21-6.66-1.1-16.04,8.24-18.13,8.45-.59,18.24,2.76,23.86,9.28-1.39,2.99-1.98,6.34-1.36,9.5-.27,4.2,1.36,8.77,4.53,11.54,1.05,.93,2.13,1.66,3.28,2.26,1.18,1.43,2.69,2.56,4.41,3.24,1.08,.43,2.23,.68,3.43,.7,3.02,.07,5.8-.69,8.56-1.86,2.78-1.28,5.48-2.93,7.25-5.53,9.3-4.14,21.61,2.84,18.04,14.86-1.26,4.32-5.41,5.85-7.01,9.8-3.35,10.74-1,22.49-6.48,32.71-2.47,8.46-10.75,14.36-18.31,11.37-1.65-.65-3.23-1.71-4.75-3.27Z"/>
    <path d="M464.07,340.93s.02,.07,.03,.1c.01,.05,.02,.1,.03,.14-.02-.08-.04-.16-.06-.25Z"/>
    <path d="M457.7,321.98s.05,.08,.08,.12c.01,.02,.02,.05,.03,.07-.03-.06-.07-.13-.11-.19Z"/>
    <path d="M457.68,321.96s0,0,0,0c0,0,0,0,0,0,0,0,0-.01-.01-.02Z"/>
    <path d="M445.37,306.31s-.02-.02-.02-.02c.03,.02,.05,.05,.07,.07-.02-.02-.03-.03-.05-.05Z"/>
    <path d="M434.48,298.08c.05,.03,.1,.07,.16,.1,.05,.03,.1,.07,.15,.1,.03,.02,.06,.05,.09,.08-.13-.09-.26-.18-.4-.27Z"/>
    <path d="M434.27,297.95s.09,.05,.13,.08c-.04-.03-.09-.05-.13-.08Z"/>
    <path d="M467.46,308.18c.26,.02,.52,.04,.79,.07-.47-.04-.94-.06-1.41-.11,.2,.02,.42,.02,.62,.04Z"/>
    <path class="cls-1" d="M412.96,468.37s-.06,0-.09,0c.03,0,.06,0,.09,0Z"/>
    <path class="cls-1" d="M425.13,468.14s.03,0,.05,0c-.02,0-.04,0-.06,0,0,0,0,0,0,0Z"/>
    <path class="cls-1" d="M427.29,468.22c-.06,0-.12,.01-.18,.02-.1,0-.22,0-.33,0-.45-.01-.89-.03-1.33-.06-.09-.01-.18-.02-.27-.03,.7,.02,1.4,.04,2.1,.08Z"/>
    <path class="cls-1" d="M425.26,468.16s-.01,0-.02,0c0,0,.01,0,.02,0Z"/>
    <path class="cls-1" d="M504.95,283.88c.06,.21,.12,.42,.18,.63,.03,.07,.04,.16,.05,.23l.08,.58c-.01-.16-.03-.31-.05-.47,0,0,0,0,0,0,.2,1.68,.43,3.32,.7,4.97-.03-.09-.03-.18-.06-.27,.05,.29,.09,.59,.14,.89,.04,.22,.07,.44,.09,.65,.02,.15,.03,.3,.05,.45,0,.29,.03,.59,.06,.88,0,.09,0,.18,0,.28-.33-2.96-.74-5.9-1.24-8.82Z"/>
    <path class="cls-1" d="M506.18,292.03c-.02-.27-.02-.52-.02-.79l.02,.87s0,.03,0,.04c0-.04,0-.09,0-.13Z"/>
    <path class="cls-1" d="M505.15,284.38s0,.03,0,.05c0-.02,0-.03,0-.05Z"/>
    <path class="cls-1" d="M505.09,283.83c0,.07,.02,.14,.03,.21,0-.07-.02-.14-.03-.21Z"/>
    <path class="cls-1" d="M458.93,255.91c2.45,.25,4.88,.55,7.3,.94-1.45-.15-2.89-.3-4.31-.48-1.08-.08-2.13-.15-3.21-.23,.07-.08,.15-.16,.22-.24Z"/>
    <path class="cls-1" d="M465,255.02l.23,.03c-.2-.02-.42-.02-.62-.04,.12,0,.26,.02,.39,0Z"/>
    <path class="cls-1" d="M499.65,267.7s.04,.04,.06,.05c-.02-.02-.04-.04-.06-.05Z"/>
    <path class="cls-1" d="M499.59,267.65s0,0,0,0c0,0,0,0,0,0Z"/>
    <path class="cls-1" d="M468.85,255.43s-.02,0-.02,0c0,0,.02,0,.02,0Z"/>
    <path class="cls-1" d="M469.14,255.47s-.06,0-.09-.01c.03,0,.06,0,.09,.01Z"/>
    <path class="cls-1" d="M480.38,256.56s-.03,0-.05,0c-.02,0-.06,0-.08-.01,.05,0,.09,0,.13,.01Z"/>
    <path class="cls-1" d="M480.44,256.57s-.01,0-.02,0c0,0,0,0,.02,0Z"/>
    <path class="cls-1" d="M480.66,256.59s.1,.02,.14,.03c0,0,0,0,0,0-.11-.01-.22-.03-.32-.04,0,0,0,0-.01,0,.07,0,.13,0,.19,.02Z"/>
    <path class="cls-1" d="M480.8,256.62s0,0,.01,0c0,0,0,0-.02,0,0,0,0,0,0,0Z"/>
    <path class="cls-1" d="M480.81,256.62s.02,0,.04,0h0s-.03,0-.04,0c0,0,0,0,0,0Z"/>
    <path class="cls-1" d="M480.81,256.62h0s0,0,0,0c0,0,0,0,0,0Z"/>
    <path class="cls-1" d="M337.97,252.93s.08,.05,.12,.07c-.45-.03-.89-.07-1.34-.1,.41,0,.81,.02,1.22,.03Z"/>
    <path class="cls-1" d="M287.85,269.71h0s0,0,0,0h0Z"/>
    <path class="cls-1" d="M300.04,255.3h0s0,0,0,0c0,0,0,0,0,0Z"/>
    <path class="cls-1" d="M387.58,427.67c2.57,.04,5.13,.2,7.7,.33,.41,.07,.82,.13,1.24,.18,.51,.07,1.01,.13,1.52,.17-3.65,.09-7.32-.14-10.95-.69h.49Z"/>
    <path class="cls-1" d="M392.11,404.73s-.09-.03-.13-.04c.04,.01,.09,.02,.13,.04Z"/>
    <path class="cls-1" d="M393.66,405.11c-.24-.06-.49-.11-.71-.18,.23,.05,.46,.12,.71,.18Z"/>
    <path class="cls-1" d="M439.63,334.45s0,.01,.01,.02h0s0-.01-.01-.02Z"/>
    <path class="cls-1" d="M404.52,308.73h0s0,.01,0,.01c0,0,0,0,0-.01Z"/>
    <path class="cls-1" d="M454.67,284.06c-1.11,2.77-1.53,5.77-.96,8.62-.02,.26-.03,.52-.03,.78-.83-3.29-.39-6.56,1-9.4Z"/>
    <path class="cls-1" d="M472.12,294.48h0s-.08,.01-.12,.01c.04,0,.08,0,.12-.01Z"/>
    <path d="M378.02,398.04c-18.36-5.56-31.41-25.19-26.89-44.25,2.28-36.12,49.4-57.23,76.06-31.57,13.1,13.77,17.38,35.98,10.65,53.7-11.28,21.9-36.9,34.55-59.88,22.1,0,0,.06,.02,.06,.02Zm10.38-3.87c1.94,.52,3.86,.96,5.83,1.29,.24,.03,.48,.05,.72,.08,0-.02-.01-.05-.01-.07-.03-.2-.04-.39-.05-.58-1.15-.8-2.76-.97-3.58-2.23-5.38-.14-8.76-6.34-7.39-11.22-.62,.86-1.6,1.4-2.69,1.68-.25,.07-.51,.11-.77,.13,2.6,1.89,1.92,6.1-.83,7.56,2.9,1.24,5.72,2.61,8.78,3.37Zm20.43-.43c2.05-.85,3.99-1.85,5.77-3.18-.23-.06-.45-.13-.67-.22-1.42,1.54-3.28,2.46-5.1,3.4Zm-17.46-8.67c.58-1.29,1.82-2.03,2.58-3.11-.17-.13-.34-.26-.51-.39-.01,0-.02-.02-.03-.02-.11,0-.23-.01-.34-.02-.1,0-.21-.02-.31-.03-1.2,.74-2.52,2.23-1.39,3.57Zm-6.87-5.04c.24-.43,.49-.85,.77-1.24-.31-.2-.6-.42-.89-.64,.2,.61,.25,1.26,.12,1.89Zm-3.03-4.77c-3.49-3.81-4.58-9.82-1.97-14.38-.13-.44-.26-.89-.4-1.33-2.04,.55-3.84,1.65-5.51,2.92,1.31,4.86,3.82,9.69,7.88,12.79Zm-22.47-16.31c.21,.17,.38,.35,.53,.55,.83-1.46,1.14-3.39,2.6-4.39,2.01-9.62,7.75-17.67,13.08-25.64,.91-2.31,2.29-5.18,4.21-6.59-12.98,6.77-21.01,21-21.53,35.41,.39,.16,.77,.38,1.1,.67Zm56.34,18.29c.34,.32,.65,.63,.93,1.02,.06,.08,.11,.16,.16,.24,3.08-2.73,4.72-7.55,8.65-9.01,.73-4.08-1.31-8.76,2.21-11.62,.03-3.02-.96-6.04-.63-9.03-.78-2.57-1.47-5.17-2.21-7.75-.92-.46-1.66-1.24-2.19-2.11-.29-.47-.55-.96-.81-1.45-4.22-1.25-6.6-7.91-10.17-10.88-1.76,.18-2.7-1.49-4.21-1.97-4.89-.31-9.73-3.74-14.5-1.3,3.55,2.67,.89,6.83-.56,9.8-3.15,6.21-8,11.89-6.95,19.32,1.02,.29,2.02,.68,2.97,1.14,6.06-5.07,16-4.39,22.01,.48,6.5,5.49,3.6,14.66,.99,21.43,1.52,.14,3.15,.67,4.31,1.7Zm-19.22-17.05c1.79,2.06,3.18,4.49,4.31,6.97,.4,.88,.74,1.81,1.03,2.76,3.61-6,2.03-15.07-6.61-11.17,.44,.48,.86,.96,1.28,1.44Zm-23.1-6.05c1.48-.77,3.05-1.38,4.69-1.78-.4-6.43,1.71-12.8,5.3-18.1-7.09,4.06-7.69,12.89-9.98,19.88Z"/>
    <path d="M427.84,435.37c.04-.39,.13-.75,.26-1.08-13.48-4.22,11.8-16.84,16.4-18.87,4.8-3.69,8.78-8.04,12.27-12.86,2.54-2.45,4.24-5.29,6.5-7.93,.96-2.98,4.29-6.36,7.32-3.7,2.03,1.79,1.12,4.41-.46,6.15-3.04,5.54-7.83,10.08-11.55,14.98,6.28,4.44-3.12,10.09-6.73,12.67,6.3,5.92-5.67,9.68-10.1,11.01-4.03,1.41-13.15,7.15-13.9-.37Z"/>
    <path d="M482.46,442.01c.64-1.82,2.8-2.99,4.66-2.25s2.92,2.71,2.25,4.66c-.64,1.82-2.8,2.99-4.66,2.25s-2.92-2.71-2.25-4.66Z"/>
    <path d="M419.26,430.32c-.95-2.74,1.41-4.16,3.36-5.39,4.27-2.71,8.6-5.56,12.12-9.25,17.44-18.35,30.39-41.81,32.67-67.22,.89-4.61,8.15-3.21,7.18,1.43-2.58,26.04-15.55,50.91-33.53,69.54-2.66,3.47-6.54,6.32-10.08,8.63-3.11,2.29-9.12,7.95-11.72,2.26Z"/>
    <path d="M372.49,436.47c-4.2-1.34-4.78-6.84-.13-7.96,7.2-1.01,14.55,.79,21.79-.82,15.83,.11,31.28-3.16,42.12-15.48,2.68-2.94,8.14-5.4,10.29-.58,4.59,6.92-16.25,15.6-21.07,18.14-7.75,4.53-16.35,6.69-25.14,8.09-8.78,2.25-19.97,4.03-27.85-1.4Z"/>
    <path d="M295.15,210.44c.06-1.96,1.79-3.63,3.77-3.52,7.74,.04,15.48,1.01,23.15,.87,11.45,.15,22.76,1.51,34.16,1.89,16.2,2.92,32.63,4.96,49.08,5.68,1.08-1.35,3.08-1.49,4.75-1.27,7.69,1.12,16.04,1.38,23.47,3.23,13.55,1.51,26.82,4.29,40.25,6.35,1.55,.3,3.35,.36,4.47,1.59,5.69,.63,11.09,2.52,16.75,3.21,1.63,.23,2.91,1.64,3.05,3.26,.12,5.49-6.49,3.89-9.93,3.03-.49,.23-1.04,.34-1.62,.28-6.37-.58-12.67-1.76-18.97-2.89-4.6,2.45-10.44-.79-15.22-.57-14.04-1.54-27.9-1-41.5-3.81-1.24,.05-2.41,.03-3.49-.79-1.32-.99-1.63-2.72-1.11-4.15-23.13-.8-45.61-5.88-68.65-7.06-8.62-.41-17.49-.39-26.08-1.14-4.59-1.02-15.82,2.33-16.34-4.18Z"/>
    <path d="M324.52,259.67c-2.93-1.25-2.82-5.68,.2-6.76,3.2-1.13,6.68,0,9.97-.76,16.22-1.01,32.51-.51,48.77-.26,25.17,1.81,50.57,.63,75.5,3.53,9.64,1.41,19.46,1.71,28.58,5.37,4.29,1.98,1.4,8.6-2.97,6.67-3.97-1.12-7.83-2.89-12.03-2.9-3.53,2.9-9.12,1.33-13.3,.91-11.25-.76-23-.14-34.12-1.25-23.92-.45-47.75-2.02-71.45-4.22-5.66,.27-11.2-.34-16.83-.72-4.05,.75-8.29,1.26-12.31,.39Z"/>
    <path d="M491.07,272.51c-2.63-2.03-7.34-1.78-8.42-5.48-2.72-2.41,.1-7.3,3.61-6.07,2.14,.56,4.22,1.82,5.98,3.1,1.52,.84,3.51,1.4,4.66,2.87,2.78,3.75-2.24,8.11-5.83,5.58Z"/>
    <path d="M311.42,455.57c-4.26-2.57-6.32-7.12-8.87-11.14-2.91-2-3.24-5.45-4.93-8.23-2.29-4.14,4.18-7.67,6.43-3.47,1.1,1.5,1.67,3.21,2.15,4.98,3.09,2.63,4.46,6.6,6.91,9.79,2.92,3.5,7.76,3.36,11.58,5.24,12.19,4.03,25,5.92,37.42,8.11,15.42,2.55,31.48,1.72,47.01,2.13,13.38-2.46,26.85-5.42,40.34-6.28,2.92-.52,6.72-2.53,8.24,1.23,2.44,8.71-20.31,5.69-25.79,8.43-7.57,.57-14.38,2.91-21.87,3.86-7.01,.45-13.38-.4-20.31-.22-16.52,.12-33.08-1.81-49.08-5.83-9.98-1.6-19.96-4.53-29.22-8.6Z"/>
  </g>
</svg>