<?xml version="1.0" encoding="utf-8"?>
<!-- Generator: Adobe Illustrator 26.5.0, SVG Export Plug-In . SVG Version: 6.00 Build 0)  -->
<svg version="1.1" id="Ebene_1" xmlns="http://www.w3.org/2000/svg" xmlns:xlink="http://www.w3.org/1999/xlink" x="0px" y="0px"
	 viewBox="0 0 572.8 837.1" style="enable-background:new 0 0 572.8 837.1;" xml:space="preserve">
<style type="text/css">
	.st0{fill:#EA6558;}
	.st1{fill:#0B090E;}
	.st2{fill:#F4C35F;}
	.st3{fill:#FEFEFE;}
</style>
<g>
	<path class="st0" d="M253.2,338.9c4.1,0.1,5.8-2.4,5.2-6.7c-0.8-5.3-1.6-10.7-1.1-16.1c0.1-1.6-0.8-3.7,1.6-4.2
		c2.2-0.5,4.2,0.2,5.2,2.1c1.9,3.6,5.7,6.7,3.3,11.6c-0.4,0.9,0,2.1,0,3.2c0.1,1.7,0,3.5,2.6,3.4c2.7,0,2.3-1.9,2.3-3.5
		c0-0.7,0.1-1.4,0.1-2.5c3.8,1.7,6,4.8,8.3,7.4c1.4,1.5,1.5,4-1.8,4.1c-1.3,0.1-2.5,0-3.1,1.4c-6.3,0-12.7,0-19-0.1
		C255.7,339,253.9,340.4,253.2,338.9z"/>
	<path class="st1" d="M481.6,129.6c-1.8,0.3-3.6,0.6-5.4,0.9c-1.9,0.3-1,0.2-2.9,0.6c-8,0.8-16,1.6-25.4,2.5
		c13.8,2.4,26.1,4.6,38.4,6.8c1.1,0.4,1.1,0.4,1.9,0.7c0.9,0.2,1.8,0.3,2.7,0.5c3.6,1.5,1.8,0.5,6.9,2.1c1.9,0.5,1.4,0.4,2.5,0.5
		c1.8,0.2,2.3,0.5,3.6,0.5c1.1,0.5,0.5,0.2,1.7,0.6c16.3,3.6,32.4,8.2,47.7,15.1c9.7,4.4,12.3,12.8,13.9,22.2
		c2.6,15.8,0.4,31.5-0.6,47.2c-1.1,16.8-2.2,33.6-3.7,50.4c-1.3,15.7-3.1,31.4-4.7,47c-1.2,12-2.4,24-3.6,36
		c-1.7,18.1-3.6,36.3-5.1,54.5c-0.9,11.7-2.1,23.4-3.2,35.1c-1.9,19.7-3.6,39.4-5.3,59.1c-1.6,17.9-3,35.7-4.5,53.6
		c-1.5,17.4-2.6,34.8-4.5,52.2c-1.2,11-2.2,21.9-3.3,32.9c-2.1,1.1,0.5,3.8-1.9,5.1c-2.4-2.9-5-5.7-7.3-8.7
		c-1.4-1.7-2.3-1.2-3.8-0.1c-1.6,1.2-1.8,2.2-0.4,3.7c3.2,3.6,6.1,7.4,9.4,10.8c1.6,1.7,2.4,3.5,2.4,5.7c-0.2,1-0.3,2-0.5,3
		c-2.1-2.4-4.1-5-6.4-7.3c-2.4-2.3-3.4-6-7.1-6.8c-1-4.9,0.3-9.7-0.1-15.6c-6,5.2-11.4,9.9-16.9,14.6c-2,1.5-0.9,0.6-2.2,1.8
		c-1.5,1.2-0.4,0.3-2.3,1.7c-2.9,2.4-4.9,3.6-7.4,5.2c-25.4,16.7-53.2,28-82.7,35.1c-18,4.3-36.3,7.3-54.8,8.7
		c-25.6,2.1-51.3,2.4-77,0.4c-23.8-1.8-47.4-5.9-70.5-12.2c-11-3-22.5-3.9-33.2-8.2c-11.2-4.5-22.8-7.8-34-12.4
		c-20.9-8.4-41.2-17.9-60.4-29.7c-8.3-5-16.5-10.1-25.3-15.5c0.4,4.6,1.2,8.5,0.9,12.2c-0.6,6.5,2.7,10,7.7,13.1
		c12.9,8.2,26.5,15,39.9,22.2c5.7,3.1,6.7,7.7,2.7,12.3c-2.6,3-6,1.8-9,1.1c-8.9-2.2-16.4-7.3-24-12.1c-4.9-3.1-9.4-6.8-15.1-8.6
		c-1.2,6.6-0.4,11.3,6,15.1c14.8,8.6,29.3,18,44.9,25c11.3,5.1,22.8,9.7,35,12.3c9.2,1.9,18.3,4.2,27.4,6.4c4.2,1,5.5,3.9,5,8
		c-0.6,4.4-3.4,6-7.3,6.3c-2.5,0.2-4.9-0.3-7.4-0.7c-9.3-1.4-18.3-3.9-27.3-6.6c-3.2-0.7-2.3-0.5-4.5-1.1c-2.5-0.7-0.7-0.2-4-1.7
		c-5.7-1.3-9.2-3.3-13.9-5.1c-14.9-6-29.2-13-42.8-21.6c-3-1.9-5.8-4.5-9.9-4.6c0.9,16.3,1.7,32.5,2.9,48.7
		c0.3,3.9,1.5,7.8,4.1,11.1c5.9,7.5,13.7,12.3,22,16.4c18.5,9.1,38.1,14.9,58.1,20c17.7,4.5,35.5,7.8,53.5,10.3
		c26.2,3.7,52.5,6,79,6.9c38.2,1.4,76.4,1,114.5-2.7c12.3-1.2,24.5-2.9,36.7-5.2c11.1-2,22.1-4.3,32.9-7.4
		c11.6-3.3,23.2-7.1,33.5-13.7c4.3-2.7,8.1-6,10.5-10.6c0.7-1.4,1.3-3.2,0.3-4.3c-0.9-1.1-2.1,0.3-3.2,0.7
		c-8.3,3.1-16.2,7.3-24.8,9.8c-10.2,3-20.4,5.7-30.9,7.6c-10.5,1.9-21.2,2.4-31.8,3.4c-7.5,0.8-15.1,1.5-22.5-0.8
		c-5-1.6-6.5-4.9-4-9.5c2.2-4.2,6.4-4.4,10.3-4.5c20.6-0.7,41-1.9,61.1-7.1c17.3-4.5,33.7-11.1,49.1-20.3c1.4-0.9,2.3-1.5,2.4-3.3
		c0.3-6.5,0.8-13,1.5-19.4c1.7-15.1,2-30.2,4.5-45.2c1.4,2.3,2.7,1.2,4.1,0c1.3-1.1,1-2.3-0.1-3.1c-2.7-2.3-2.9-5.5-3.4-8.6
		c0.2-2.7,0.3-5.5,0.5-8.2c1.9-0.7,2.7,0.7,3.6,1.9c1.8,2.3,3.8,4.4,5.5,6.7c2,2.7,3.9,3.2,6,0.3c-0.4,3.8-0.3,7.4-0.7,11.1
		c-1.6,16.3-2.8,32.7-4.8,48.9c-2,16.4-3.1,32.9-8,48.8c-2.2,7.1-7.4,11.8-13.1,16c-11.6,8.8-25.3,13.4-38.9,17.7
		c-10.1,3.2-20.5,5.4-30.9,7.4c-14.6,2.9-29.2,4.9-44,6.4c-27.3,2.8-54.6,3.5-82.1,3.5c-26.3,0-52.6-1-78.8-3.5
		c-18.7-1.8-37.4-4.3-56-7.6c-20.9-3.7-41.6-8.2-61.8-14.6c-17-5.4-33.7-11.8-48.6-21.9c-7.8-5.2-13.3-12.6-18.9-19.8
		c-2.3-2.9-1.7-7.4-1.8-11.2c-1.2-28.8-3.7-57.4-4.9-86.2c-1.1-24.6-3.2-49.1-4.8-73.6c-0.4-5.4-0.4-10.8-0.6-16.2
		c-0.3-4.5,1-9.1-0.7-13.5c-0.2-1.9-0.4-3.8-0.6-5.6c4.7,4.1,9.7,6,15.3,1.6c1.2,15.8,2.6,31.6,3,47.4c0,1.4-0.7,3.2,0.9,4.2
		c4,2.6,7.7,5.9,12.6,6.9c0.1,0.3,0.1,0.7,0.3,0.8c13.5,8.7,26.8,17.9,41.1,25.3c4.4,2.3,8.8,4.7,13.8,5.9c-3-14-7.9-27.1-11-40.8
		c-4.1-18.1-10-35.9-12.6-54.4c-2.9-20.6,1-39.4,15.5-55.3c5.5-6.1,12.6-9.6,19.2-14c5-3.3,5.1-5.6-0.1-8.3
		c-9.6-5-17.8-12-26.4-18.3c-16-11.8-31.2-24.7-48.8-34.2c-5-4.1-9.6-8.7-15.6-12.3c0,2.5-0.1,4.5,0,6.5c1.2,17.3,2.2,34.6,3.1,51.8
		c0.9,16.3,2,32.7,2.9,49c-0.9,0.8,0.2,2.4-1.3,3.2c-0.7-0.8-1.3-1.5-1.8-2.2c-1.2-1.7-2.2-2.2-4.1-0.6c-1.9,1.6-1.3,2.8-0.1,4.2
		c2.5,3,5,6.1,7.5,9.2c0.3,1.8,0.6,3.7,1,5.5c-0.6,2.3-1.1,4.5,0.6,6.6c0,2.4-0.1,4.7-0.1,7.1c-5.4,5.6-7,5.5-11.9-1
		c-0.9-1.2-2-2.2-2.9-3.3c-1.1-1.7-0.8-3.6-0.4-5.4c2.3-1,4.2-2.8,7-2.6c1.7,0.1,2.9-1.3,2.9-2.9c0.1-2.3-2-1.4-3.1-1.5
		c-2.3-0.1-4.6-0.2-6.6,1.2c-1.1-0.3-1.3-1.1-1.3-2.2c-0.9-15.1-1.8-30.3-2.8-45.4c-1.6-26.1-3.4-52.1-5-78.2
		c-0.9-15.4-1.7-30.9-2.8-46.3c-1.4-19.4-2.3-38.9-3.3-58.3c-0.1-1.5-0.2-2.5-0.2-4.4c-0.5-6.1-0.3-4.2-0.6-10.1
		c-0.2-2.3-0.5-3.6-0.6-5.7c-0.9-16.5-1.8-33.1-3-49.5c-1.1-13.6-2.4-27.1-2.1-40.7c0.1-5.4,0.8-10.8,1.7-16.1
		c1.8-9.8,8.6-16,17-20.3c17.1-8.9,35.7-13.3,54.5-17.1c15.8-3.2,31.6-5.3,47.6-7.4c10-1.3,19.9-2.5,30-3.3
		c40.4-3,80.9-5.4,121.4-5.7c19.8-0.1,39.6,1.4,59.4,0.9c6.6-0.2,6.8-0.2,4.5-6.5c-3.2-8.8-2-17.1,2-25.4c4.7-9.7,9.2-19.4,18.2-26
		c6.3-4.7,13.6-6.9,21.4-7.3c17.2-0.8,34.3,0.3,51.5,1.4c26.3,1.7,43.4-12.4,57-32.7c4.5-6.7,7.6-14.2,13.1-20.3
		c5.2-5.8,12-5.9,17.4-0.6c14.7,14.5,23.6,31.5,22.1,52.8c-0.3,3.7,1.2,7.4-0.2,11c-1.9,0-2.2,3.5-4.4,2.3c-2.5-1.3-4-4.1-6.7-5.5
		c-0.5-0.3,0.1-2.9,0.2-4.4c0.5-9.3,0.1-18.4-5.4-26.4c-1.9-5.3-3.9-10.4-9.2-14.5c-0.2,4.2-0.3,7.5-0.5,10.7
		c-0.2,3.6-1.2,6.9-2.9,10.1c-11,20.1-29.2,28.4-50.9,29.9c-15.7,1.1-31.5,0.5-47.2-1c-8.3-0.8-16.7-1.5-25-1.3
		c-10.3,0.3-20.7,0.9-27.6,10.6c-3.3,4.7-6.9,9.4-8.8,14.8c-2.3,6.7-5.5,13.7-0.6,20.8c5.1,4.7,11.8,4.2,17.9,4.6
		c19.9,1.4,39.8,0,59.7-1.6c22-1.8,43.9-4.1,65.6-8c0.4,0.1,0.7,0.2,1.1,0.3c1.6,4.1,5.2,6.8,6.9,10.7c-6.3,0.6-12.2,3.5-18.7,2.6
		 M279.7,339.2c2.4-0.2,2.3,0,5.2,0c4.8-0.7,4.8-0.7,7.5-0.7c10,0.1,19.9,0,30,0c-0.1-2.3-0.8-2.9-1.4-3.6
		c-11.4-13.5-23.3-26.7-36.3-38.6c-10.8-9.9-16.5-21.4-16.9-35.5c-0.6-17.6-20.8-30.9-32.3-31.5c-19.9-1-39.8-1.9-59.7-3.2
		c-13.2-0.9-26.5-2.2-39.7-3.4c-1.9-0.4-1.7-0.2-4.4-0.4c-2.9-0.2-5.8-0.5-8.7-0.7c-1.8-0.2-2.8-0.2-4.3-0.8
		c-1.8-0.3-3.1,0.1-4.4,1.6c-3,3.4-5.9,7-8.3,10.9c-8.3,12.8-16.6,25.5-24.5,38.5c-4.2,6.9-9.4,13.2-12.6,20.6
		c-0.8,1.9-0.9,2.8,1.4,3.7c6.3,2.4,12.4,5.2,18.6,7.8c5.9,4.1,12.7,6.2,19.4,8.4c15.1,4.8,30.4,8.8,45.9,12.3
		c7.2,1.6,14.5,3,21.7,4.5c4.7,0.9,9.4,2,14.1,2.6c21.1,2.6,42.2,6.9,63.6,7c2.6,0.2,2.2,0.1,3.4,0.1c6.3,0.1,12.7,0.1,19,0.1
		 M42.2,357.8c0.3-0.1,0.7-0.2,0.8-0.4c8.6-13.5,16.2-27.6,23.7-41.8c1.1-2,0.5-3.7-1.8-4.9c-9.5-4.8-19-9.7-28.5-14.5
		c-2.3-1.5-4.5-3-6.9-4.4c-0.9-0.5-1.6-1.8-2.8-1.1c-1.2,0.7-0.5,2-0.4,2.9c0.6,13.7,1.2,27.4,2,41.1c0.8,14.4,1.9,28.8,2.9,44.3
		C35.3,371.5,39.4,365,42.2,357.8z M417.1,324.2c7.8-1.4,15.5-2.9,23.8-4.4c-1.7-2.5-3.1-3.7-4.9-4.6c-4.4-2.2-8.7-4.5-13-6.9
		c-13.7-7.7-28.4-9.4-43.4-6.2c-14.9,3.2-28.1,10.9-40.6,19.5c-5.1,3.5-4.9,3.8-0.9,9.1c1.3,3.9,3.3,5.8,8.1,5.4
		c17.7-1.7,35.3-4,52.8-6.9C405.2,328.1,411.6,327.7,417.1,324.2z M400.6,209.6c13.1-0.7,26.3-1.3,39-5c-4.4-0.7-8.8-0.6-13.2-0.7
		c-3.1,0-6.3,0.4-9.2-0.4c-19.7-5-38.9-11.7-57.2-20.6c-15.6-7.6-29.9-17.4-44.4-26.8c-7.8-5-7.8-5-13.4,1.9
		c-0.3,0.3-0.3,0.9-0.4,1.3c-10.5,10-15.2,22.8-16.6,36.8c-0.8,8.4,3.9,14.1,12.1,16.5c4.5,1.3,9.1,1.9,13.7,1.8
		c22.5-0.7,45.1-1.2,67.6-2.4C385.9,211.7,393.4,211.8,400.6,209.6z M117,528.8c-0.7,1.3-0.1,2.5,0.4,3.5c3.3,6.7,6,13.8,10.1,20.2
		c4.7,7.5,10.7,12,19.8,14.1c10.7,2.4,21.5,2.1,32.2,3c24.3,2,48.1-0.7,71.6-6.5c13.7-3.4,27.4-7,41-10.9c4.2-1.2,8.7-2,13.1-5
		c-11.4-7-19-17.3-27.6-26.6c-10.2-11-21.6-20.9-31.4-32.4c-3.6-4.3-7.2-8.7-12.3-11.5c-1.3-1.7-2.9-3.2-3.9-5c-2.1-3.8-4-3.4-7-0.6
		c-8.7,8.1-17.8,15.6-28.3,21.3c-12.6,6.8-25.1,8-38.2,2c-5.9-2.7-11.9-4.5-18-0.3c-5.4,3.7-10.7,7.6-16.4,10.8
		C111.7,510.6,111.9,517.7,117,528.8z M114.1,329.7c-9.3-3.1-18.6-6.1-27.9-9.4c-2.8-1-4.1-0.3-5.6,2c-4.6,7-8.2,14.5-12.3,21.8
		c-7.6,13.8-16.1,27.1-22.6,41.5c-4.5,10-3,16.2,6,21.9C72,420.1,91.2,434,110,448.6c14.6,11.3,29.7,21.8,46.4,29.8
		c9.9,4.7,20.2,6.2,30.2,0.6c16.6-9.3,30.7-21.5,42.2-36.7c12.3-16.2,22.5-33.7,32.8-51.1c6.3-10.6,12.4-21.3,17.4-32.7
		c1.7-3.8,0.7-4.4-2.9-4.3c-18,0.5-35.8-1.7-53.7-2.8c-9.1-0.5-18.1-1.9-27.1-3.3c-12.9-2-25.8-4.3-38.7-6.5
		c-0.2-0.2-0.3-0.6-0.6-0.7C141.8,337.9,128.1,333.5,114.1,329.7z M418.4,581.8c-0.6-7.6-4.7-13.8-7.5-20.6
		c-0.8-1.9-2.2-2.2-4.1-1.2c-4.1,2.1-7.6,5.1-11.5,7.5c-12.3,7.4-25.3,12.2-39.9,8.7c-5.6-1.4-11-3.6-16.5-5.4c-3.2-2-7-3.6-9.6-6.2
		c-5.1-5-11-4.9-16.7-3c-6.5,2.1-13,4.4-19.7,6.3c-17.5,4.9-35,9.5-52.8,12.8c-13.7,2.6-27.3,5.1-41.2,5.4
		c-16.1,0.3-32.1-0.9-48.1-3.1c-7.7-1.1-15.6-2.4-22.2-7c-11.7-8.1-16.8-21.1-23.4-32.9c-1.2,1.3-0.7,3-0.6,4.7
		c0.4,4.6,0.6,9.3,1.6,13.8c1.6,6.7,1.9,13.7,5.3,19.9c0.1,1.8-0.1,3.8,0.4,5.5c3.9,13.6,8,27.1,11.9,40.7c2.5,8.9,5.4,17.7,6.1,27
		c0.2,2.8,1.3,4.1,3.7,4.9c10.5,3.6,20.9,7.2,31.3,10.8c25.5,8.7,51.5,15.6,78.4,19.1c23.8,3,47.6,5.1,71.6,4.5
		c27.7-0.7,55.2-2.8,82.3-9.1c8.7-2,17.3-4.4,25.5-8c1.8-0.8,3.5-1.4,3.7-4c2.4-22.6-0.4-45-3.3-67.3
		C421.5,597.5,421,589.4,418.4,581.8z M438.5,336.6c-4.1-0.8-8,0.8-11.8,1.6c-20.8,4.3-41.6,8.6-62.8,11.2c-20.3,2.5-40.7,2.6-61,5
		c-3.4,0.4-5.3,1.5-6.8,4.1c-1.1,2-2.2,4.1-3.3,6.1c-15.8,28.9-30.6,58.3-50.3,84.8c-4.3,5.8-4.1,8.6,0.9,13.6
		c15.1,14.8,28.4,31.3,43.9,45.8c5.6,5.2,10.1,11.5,16.5,15.9c13.2,13.5,27.5,25.4,44.9,33.1c12.5,5.5,24.5,4.7,36.5-2.2
		c12.6-7.2,23.7-16.5,35.9-24.3c10.9-7,21.7-13.9,34.9-15.5c11.6-1.4,21.1-6.6,29.1-15c19.3-20.4,33.3-43.8,42.1-70.5
		c6.5-19.7,4-37.3-7.7-54.5c-11.2-16.5-24.4-31.2-38-45.6c-4.2-4.4-8.3-4.9-14.2-2.6c-3.4,1.4-6.9,2.4-10.4,3.5
		C450.8,333.2,444.4,333.8,438.5,336.6z M529.8,467.1c-0.3-0.1-0.6-0.2-1-0.3c-0.7,0.8-1.4,1.6-1.9,2.4c-6.7,10.1-13,20.4-20,30.2
		c-9.2,13-21.1,22.8-35.9,29.1c-4.9,2.1-10.1,1-15,2.5c-10.7,3.3-19.9,9.4-29.3,15.2c-5.3,3.2-5.3,3.5-2.3,8.9
		c2.9,5.1,5.6,10.3,7.1,15.9c6,22.1,9.2,44.7,10.3,67.6c0.4,8.6,0.3,17.3,0.3,26c0,2.7,0.6,3.5,3.5,2.7c3.6-1,7.1-2.4,10.2-4.1
		c20.2-11,38.1-25,53.4-42.4c3.6-4.1,6.9-8.2,7.5-13.9c1.3-13.5,2.8-27,4.1-40.5c1.6-17.8,3.1-35.7,4.7-53.5
		C527,497.5,528.4,482.3,529.8,467.1z M254.2,141.5c-7.4,0.4-13.6,0.9-19.8,0.9c-22.8,0.2-45.4,2.3-68.1,4.2
		c-13.9,1.1-27.7,2.5-41.5,4.3c-14.1,1.8-28.1,4-42.1,6.5c-11,2-22.1,4.3-32.8,7.7c-8.3,2.6-16.8,5-23.4,11.2
		c-2.1,2-2.1,3.3,0.1,5.7c4.6,4.9,11.1,5.4,16.7,8c11.5,5.4,24,7.3,36.4,9.7c8.6,1.6,17.4,2.8,26.1,4.2c2.7,0.4,4.3-0.5,5.9-3
		c6.1-9.3,13.1-17.9,20.8-26c12-12.6,27.3-14.1,42.3-8.1c16.1,6.4,29.9,16,42.9,27.4c7.2,6.3,15.1,11.9,23.2,17
		c11,6.9,23.2,3.3,34.9,3.5c1.6,0,0.8-1.6,0.5-2.9c-0.8-3.3-3.1-6-3.3-9.6c-0.9-12.2,1.7-23.6,7.8-34c4.5-7.7,9.7-15.1,14.7-22.5
		c1.9-2.9,2-4.2-2.1-4.2C280,141.6,266.5,141.5,254.2,141.5z M391.8,259.3c-19.3,0.7-40-0.2-60.7,1.4c-14.5,1.2-29,1.2-43.3,4.3
		c-3.2,0.7-3.8,2-3.4,4.6c0.7,3.8,2.5,6.9,5.1,9.6c9.9,10.3,19.9,20.4,29.5,30.9c3.2,3.5,5.5,3.1,9,0.8c7.3-5,14.9-9.7,22.8-13.9
		c12.4-6.4,25.3-11.4,39.4-12.1c18.5-0.8,35,5.4,50.4,15.1c5.3,3.3,11.5,5.7,15,11.2c2,3.2,4,3.3,7.2,2.4c14.1-3.9,27.8-8.7,41-15
		c9.8-4.7,19.5-9.7,26.8-18.2c4.3-5,4.1-5.8-1.7-8.1c-1.3-0.5-2.6-1.1-3.9-1.4c-21-5.6-42.4-7.8-64-9.8
		C438.4,259.3,415.8,259.5,391.8,259.3z M430,244.1c18.1,1.8,35.8,2.3,53.5,4.4c18,2.2,36,4.2,53.2,10.9c4.1,1.6,7.5,4.7,12,5.7
		c0.4-5.1,0.7-10,1.1-14.9c1.7-18,3.6-36,4.3-54.1c0.1-1.3,0.8-3.1-0.7-3.8c-1.4-0.7-2.9,0.5-4,1.4c-4,3.2-8.6,5.4-13.3,7.2
		c-20.6,8-42.1,12.3-63.8,15.8c-7.9,1.3-16,1.2-23.7,3.7c-0.8,0.3-2-0.2-2.5,0.8C442.2,229.9,434.8,235.9,430,244.1z M26,265.6
		c2-0.4,3.6-0.6,5.3-1.2c12.3-4.5,24.8-8.6,37.1-13.4c4-1.6,9.6-1.4,11.9-5.4c4.9-8.5,10.7-16.3,15.9-24.5c1.2-1.8,1.1-2.7-1.2-3.1
		c-4.7-0.9-9.4-1.8-14-2.8c-9.7-2.1-19.5-4.3-29.2-6.6c-9.8-2.4-18.9-6.9-28.3-10.7c-2.3-1-3.8-1.3-3.5,2.2
		c1.2,14.2,2.2,28.3,2.5,42.5c0.2,6.8,0.9,13.6,1.3,20.3C24,264.5,24,266.1,26,265.6z M453.3,151c-1.1-0.1-2.2-0.2-3.2-0.2
		c-1.3,0-3-1.2-3.9,0.1c-0.9,1.4,0.3,2.9,1,4.2c2.4,4.2,5,8.4,7.1,12.8c5,10.4,4.5,21.2,0.9,31.9c-1.2,3.5-0.3,4.4,3.2,3.8
		c12.3-2.1,24.7-3.8,36.8-6.6c13.7-3.2,27.5-6.4,40.3-12.6c3.2-1.6,7.8-2.9,7.9-6.8c0.2-4-4.5-5.3-7.6-6.9
		c-11.3-6.1-23.7-9-36.1-11.9C484.4,155.1,468.9,152.9,453.3,151z M493,320.3c15.1,16.7,30.8,32.3,41.5,51.9c0.7,1.2,1.4,3,2.8,2.7
		c1.8-0.4,1.4-2.5,1.5-3.9c2.1-22.8,4.3-45.5,6.3-68.3c0.4-4.5-0.1-4.8-4.5-2.9c-8.2,3.5-16.4,6.8-24.6,10.3
		C508.5,313.3,501,316.8,493,320.3z M213.5,213.1c-0.1-2.3-1.3-3.4-2.3-4.4c-11.6-10.7-24.1-20.3-38.6-26.5
		c-6.7-2.8-14.1-5-21.5-1.8c-10.6,4.6-15.9,14.2-21.8,23.2c-1.9,2.9-0.8,3.1,1.9,3.4c12.3,1.1,24.6,2.3,36.9,3.7
		C183,212.2,198.1,212.7,213.5,213.1z M401.1,145.5c-0.6,0-1.2,0-1.9,0c-2.6,0.2-6.3-1.3-7.4,0.5c-1.3,2.3,1.5,5,3.1,7.1
		c7.1,9.5,11.2,20,10.9,32c0,1.6,0.4,2.7,2,3.1c8.9,2.3,17.9,4.6,27.2,2.7c6.7-1.4,9.3-5.1,8.3-11.9c-1.4-10-7.3-17.6-13.5-25.1
		c-2.7-3.4-5.6-6.5-10.4-6.8C413.4,146.8,407.3,145.3,401.1,145.5z M373,243.9c0.2-1.3-0.3-1.7-0.9-2c-11.7-7.7-23.3-15.6-38.5-12.9
		c-2,0.3-4,0.1-6,0.1c-17.9,0.2-35.9,0.4-53.8,0.6c-1.1,0-2.6-0.7-3.3,0.8c-0.6,1.4,0.6,2.3,1.3,3.3c2,2.9,3.8,5.9,6,8.5
		c2,2.4,0.7,7,4.7,7.6c3.1,0.5,6.5-0.1,9.7-0.3c1.1-0.1,2.1-0.4,3.2-0.5c12.3-0.6,24.5-3.1,36.9-3.6
		C345.8,245.1,359.4,244.2,373,243.9z M318.2,142.1c1.5,1.7,2,2.6,2.8,3.2c10,6.4,19.7,13.2,30,19.1c12.3,7,24.8,13.8,38.6,17.8
		c3.5,1,3.7,0,3.2-2.7c-1.3-8-4.8-15.2-9.3-21.7c-4.2-6-8.2-12.7-16.7-13.9C351.2,141.6,335.4,141.9,318.2,142.1z M405.8,241.2
		c10.9-0.6,17.6-7.2,23.1-15.4c1.3-1.9,0.6-3-2.1-2.8c-16.2,1.3-32.4,2.4-48.6,3.5c-1.2,0.1-2.8-0.3-3.2,1.2
		c-0.5,1.7,1.4,2.2,2.3,2.9c1.4,1.1,3.1,2,4.8,2.7C389.7,237,397.4,240.5,405.8,241.2z M64.8,269.4c-8.8,2.7-16.2,5-23.6,7.4
		c-2,0.6-3,1.5-0.7,3.4c3.3,2.8,7.1,4.8,10.9,6.8c1.4,0.7,2.2,0.3,3-1C57.6,280.8,60.9,275.7,64.8,269.4z"/>
	<path class="st2" d="M519.9,111.9c-21.7,3.9-66.5,9-88.5,10.8c-19.8,1.6-39.8,3-59.7,1.6c-6.1-0.4-12.7,0.1-17.9-4.6
		c3.2-0.9,4.4-3.5,5.7-6.2c3.8-8.1,8-15.7,15.6-21.1c10.4-7.4,22.4-8.3,34.3-9.2c21.4-1.6,43-0.3,64.2-4.5
		c11.8-2.3,23.3-5.8,33.4-12.5c9.7-6.5,15.9-15.6,19.5-26.6c5.5,8.1,5.9,17.2,5.4,26.4c-0.1,1.5-0.7,4.1-0.2,4.4 M446.2,103.9
		c4.1,0.1,7.9-0.7,11.5-2.8c2.8-1.7,4.7-4.2,4.7-7.3c0-3.3-3.1-4.7-5.6-5.3c-6.1-1.5-12.3-1.3-17.9,1.8c-2.6,1.5-4.6,4.2-4.2,7.7
		c0.4,3.6,3.3,4.6,6,5.5C442.4,103.9,444.4,103.7,446.2,103.9z"/>
	<path class="st3" d="M190.6,781.9c2.5,0.3,5.2-0.5,8-0.9c3.4-0.5,6.2-2,6.6-5.8c0.4-3.2-2.8-7.5-6.2-8.2c-3-0.6-6.1-1.2-9.2-1.3
		c-14.5-0.4-28.3-4.2-42-8.2c-7.4-2.1-14.3-6.6-22.6-4.6c-1.6,0.4-3.5,0.1-3.1-2.6c0.3-1.7-1.3-2.3-2.6-2.8
		c-13.9-5.4-27.7-10.8-40.3-18.9c-1.8-1.1-3.9-1.8-6-2.4c-3.4-0.9-6,0.7-8,3.3c-2,2.7-1.2,5.2,0.5,7.7c1.3,1.9,2.9,3.6,4.8,4.8
		c12.6,8,26.4,13.7,40.1,19.2c14.9,6,30.3,10.8,45.9,15C167.7,779.2,178.9,781.5,190.6,781.9z M442.1,765.4c6.3-0.5,12.9-1.8,19.4-4
		c8.7-2.9,17.6-5.3,25.5-10.2c3.6-2.2,4.9-7.4,3.2-10.6c-1.6-3.1-6.1-4.4-10.3-2.9c-13.5,5.2-27,10-41.2,12.9
		c-3.3,0.7-6.4,2.2-6.8,6.5C431.4,763.1,434,765.4,442.1,765.4z M460.8,729.4c5,0,10.4-2.3,13.3-5.1c2.7-2.6,3.6-5.7,1.8-8.7
		c-1.7-3.1-4.9-4.7-8.6-3.9c-2.8,0.6-5.6,1.5-8.3,2.6c-4,1.7-5.9,5.8-4.8,10.3C455.1,728.7,458.4,729.1,460.8,729.4z"/>
	<path class="st0" d="M338.9,570.7c5.5,1.8,10.9,4,16.5,5.4c14.6,3.6,27.6-1.3,39.9-8.7c3.9-2.4,7.3-5.4,11.5-7.5
		c1.9-1,3.3-0.7,4.1,1.2c2.8,6.8,6.9,13,7.5,20.6c-14.5,3.4-24.1,12.5-30,25.9c-1.7,3.8-1.4,7.6,1.5,10.8c2.8,3.1,6.5,4.1,10.5,3.2
		c3.3-0.7,6.4-2.1,9.3-3.9c5.4-3.2,8.5-8.6,13.2-12.5c2.9,22.4,5.7,44.7,3.3,67.3c-0.3,2.7-2,3.3-3.7,4c-8.2,3.6-16.8,6-25.5,8
		c-27.1,6.3-54.6,8.4-82.3,9.1c-24,0.6-47.8-1.4-71.6-4.5c-26.9-3.4-52.8-10.3-78.4-19.1c-10.5-3.6-20.9-7.2-31.3-10.8
		c-2.4-0.8-3.5-2.1-3.7-4.9c-0.7-9.2-3.6-18.1-6.1-27c-3.9-13.6-8-27.1-11.9-40.7c-0.5-1.7-0.3-3.7-0.4-5.5
		c9,5.7,17.1,12.4,26.9,17.2c14.5,7.2,29,12.6,45.3,12.7c20.9,0.1,41.1-4.1,61-9.9c17.4-5,33.9-12.8,51.6-17.3
		c12.2-3.1,24-7.7,36.4-10C335,573.7,337.3,572.8,338.9,570.7z M311.1,631.3c13.7-0.2,26.7-7.8,29.6-21.6
		c2.6-12.2-5.2-28.1-21.5-28.1c-7.5,0-14.1,3-20.2,7c-9.1,5.9-13.3,16.6-10.6,26.5C291,624.6,300.4,631.3,311.1,631.3z"/>
	<path class="st0" d="M438.5,336.6c2.2,2.2,5,3.2,7.9,3.5c2.4,0.2,4.6,1,6.6,1.9c1.7,0.8,4.5,1,4.3,3.5c-0.1,2-2.6,2.5-4.2,3.2
		c-18.3,8-35.5,18.2-52.3,29c-22.5,14.3-42.7,31.5-60.3,51.6c-12.8,14.7-23.7,30.6-30.1,49c-4.5,13-7.2,26.4-6.4,40.4
		c0.1,2-0.1,4-0.2,6c-6.4-4.4-10.9-10.7-16.5-15.9c-15.4-14.5-28.8-31-43.9-45.8c-5-5-5.2-7.8-0.9-13.6c19.7-26.6,34.5-56,50.3-84.8
		c1.1-2,2.1-4.1,3.3-6.1c1.5-2.6,3.5-3.7,6.8-4.1c20.3-2.4,40.7-2.5,61-5c21.2-2.6,42-6.9,62.8-11.2
		C430.5,337.4,434.4,335.8,438.5,336.6z M356.5,387.6c-0.5-11.2-7.5-17.2-17.5-17.6c-8-0.3-13.7,5.9-13.8,14.2
		c-0.1,9.7,7.4,17.4,17.1,17.5C350.3,401.7,356.5,395.5,356.5,387.6z"/>
	<path class="st0" d="M529.8,467.1c-1.4,15.2-2.9,30.4-4.2,45.6c-1.6,17.8-3,35.7-4.7,53.5c-1.2,13.5-2.7,27-4.1,40.5
		c-0.6,5.7-3.9,9.8-7.5,13.9C494.2,638,476.2,652,456,663c-3.2,1.7-6.6,3.1-10.2,4.1c-2.9,0.8-3.5,0-3.5-2.7c0-8.7,0.1-17.3-0.3-26
		c-1.1-22.9-4.3-45.4-10.3-67.6c-1.5-5.6-4.2-10.9-7.1-15.9c-3.1-5.4-3-5.7,2.3-8.9c9.4-5.8,18.6-11.8,29.3-15.2
		c4.9-1.5,10.1-0.4,15-2.5c14.8-6.3,26.7-16.2,35.9-29.1c7-9.8,13.3-20.1,20-30.2c0.6-0.9,1.3-1.6,1.9-2.4
		C529.2,466.8,529.5,466.9,529.8,467.1z"/>
	<path class="st0" d="M234,476.5c5.1,2.8,8.7,7.2,12.3,11.5c9.7,11.5,21.2,21.3,31.4,32.4c8.6,9.3,16.2,19.6,27.6,26.6
		c-4.4,3-8.9,3.8-13.1,5c-13.6,3.9-27.3,7.5-41,10.9c-23.5,5.8-47.3,8.6-71.6,6.5c-10.7-0.9-21.5-0.5-32.2-3
		c-9.1-2.1-15.1-6.6-19.8-14.1c-4-6.4-6.7-13.4-10.1-20.2c-0.5-1-1.1-2.2-0.4-3.5c1-0.9,2.2-1.7,3-2.8c11.2-13,25.1-17.4,42.1-15.4
		c19.6,2.3,38.8-0.2,55.8-11.4C226.2,493.7,234,487.8,234,476.5z M225.7,536.3c-0.1,7,5,12.1,12.2,12.2c6.8,0.1,12.6-5.8,12.5-12.7
		c-0.1-5.8-5.9-11-12.6-11.2C231,524.5,225.7,529.5,225.7,536.3z"/>
	<path class="st0" d="M49.2,424.4c17.6,9.5,32.8,22.4,48.8,34.2c8.6,6.3,16.9,13.3,26.4,18.3c5.2,2.7,5.1,5,0.1,8.3
		c-6.6,4.4-13.7,7.9-19.2,14c-14.5,16-18.4,34.7-15.5,55.3c2.6,18.5,8.5,36.3,12.6,54.4c3.1,13.7,8,26.8,11,40.8
		c-5-1.2-9.4-3.6-13.8-5.9c-14.3-7.4-27.6-16.6-41.1-25.3c-0.2-0.1-0.2-0.5-0.3-0.8c0.6-2.5,0.4-4.9,0.1-7.4
		c-1.8-12.7-2.8-25.5-2.6-38.3c0.2-8.8-0.7-17.5-0.8-26.3c-0.1-12.1-1.3-24.2-1.7-36.4c-0.4-13.1,0.4-26.3-0.6-39.4
		C51.4,454.9,50.3,439.6,49.2,424.4z"/>
	<path class="st0" d="M391.8,259.3c24,0.2,46.6-0.1,69.2,2c21.5,1.9,43,4.2,64,9.8c1.3,0.4,2.6,0.9,3.9,1.4c5.8,2.2,6,3.1,1.7,8.1
		c-7.3,8.5-17,13.5-26.8,18.2c-13.2,6.3-27,11.1-41,15c-3.2,0.9-5.2,0.8-7.2-2.4c-3.5-5.5-9.7-7.8-15-11.2
		c-15.4-9.7-31.9-15.9-50.4-15.1c-14.1,0.6-27,5.6-39.4,12.1c-7.9,4.1-15.5,8.8-22.8,13.9c-3.4,2.4-5.8,2.7-9-0.8
		c-9.6-10.5-19.6-20.6-29.5-30.9c-2.6-2.7-4.5-5.9-5.1-9.6c-0.5-2.6,0.2-3.9,3.4-4.6c14.3-3.1,28.9-3.1,43.3-4.3
		C351.7,259.1,372.5,260,391.8,259.3z"/>
	<path class="st2" d="M400.6,209.6c-7.2,2.2-14.7,2.1-22,2.4c-22.5,1.1-45,1.7-67.6,2.4c-4.6,0.1-9.2-0.5-13.7-1.8
		c-8.2-2.4-13-8.1-12.1-16.5c1.4-14,6.1-26.8,16.6-36.8c0.5,0.6,0.9,1.3,1.5,1.7c11.6,8,22.8,16.5,35.2,23.2
		c11.7,6.3,23.3,12.7,35.6,17.7C382.7,205.5,391.7,207.3,400.6,209.6z"/>
	<path class="st0" d="M88.9,304.1c4.1-6.2,10.9-6.7,17.1-7.3c9.7-0.9,19.4,0.3,29.1,1.1c11.1,0.9,22,2.6,33,4.3
		c4.1,0.6,7.5,1.8,9.9,6.4c4,7.8,13.2,7.2,17.6-0.6c1.4-2.5,3.3-3.6,6.2-4.1c12-2,23.6-5.3,33.9-12.4c7.1-4.9,14.8-4.2,20.3,1
		c2.3,2.2,2.4,4.9,2.3,7.7c-0.2,2.6-2.3,2.5-4.2,2.5c-6.5,0.1-12.9,0.8-19.4,1.6c-10.7,1.3-20.6,4.8-30.3,9
		c-7.9,3.3-15.6,7.1-23.3,10.8c-2.2,1.1-5.1,1.7-5.2,5.1c-7.2-1.5-14.5-2.9-21.7-4.5c-15.5-3.5-30.8-7.5-45.9-12.3
		C101.6,310.3,94.8,308.2,88.9,304.1z"/>
	<path class="st0" d="M493,320.3c8-3.6,15.5-7,23.1-10.2c8.2-3.5,16.4-6.8,24.6-10.3c4.4-1.9,4.9-1.6,4.5,2.9
		c-2.1,22.8-4.2,45.5-6.3,68.3c-0.1,1.4,0.3,3.5-1.5,3.9c-1.4,0.3-2.1-1.5-2.8-2.7C523.8,352.6,508,337.1,493,320.3z"/>
	<path class="st2" d="M401.1,145.5c6.2-0.2,12.3,1.2,18.4,1.7c4.8,0.3,7.7,3.4,10.4,6.8c6.1,7.5,12.1,15.1,13.5,25.1
		c0.9,6.9-1.7,10.6-8.3,11.9c-9.3,1.9-18.3-0.4-27.2-2.7c-1.6-0.4-2.1-1.6-2-3.1c0.3-12-3.8-22.5-10.9-32c-1.6-2.1-4.4-4.8-3.1-7.1
		c1.1-1.9,4.9-0.4,7.4-0.5C399.9,145.5,400.5,145.5,401.1,145.5z"/>
	<path class="st0" d="M156.5,341.7c-13.2,4.7-22.9,14.6-33.5,23c-9.6,7.7-19.2,15.3-29.5,22.1c-1.4,0.9-2.9,2.5-4.6,1.3
		c-1.9-1.3-0.6-3.3-0.3-5.1c2.7-14.7,11.2-26.8,18.3-39.4c2.6-4.6,4.8-9.3,7.2-13.9c13.9,3.8,27.7,8.2,41.8,11.3
		C156.1,341.1,156.3,341.4,156.5,341.7z"/>
	<path class="st0" d="M36.4,296.2c9.5,4.9,18.9,9.8,28.5,14.5c2.3,1.2,2.9,2.8,1.8,4.9c-7.4,14.2-15.1,28.3-23.7,41.8
		c-0.1,0.2-0.5,0.3-0.8,0.4c-0.3-3.7-0.5-7.4-0.8-11.1C39.7,329.9,38,313,36.4,296.2z"/>
	<path class="st0" d="M338.2,330.6c7.4-2.2,13.3-7.5,20.4-10.4c10.9-4.4,21.9-4.7,33.2-2.7c5.5,1,10.6,3,15.8,5
		c3.1,1.2,6.3,1.2,9.5,1.7c-5.5,3.5-12,4-18,5c-17.5,2.9-35.1,5.2-52.8,6.9C341.5,336.4,339.5,334.5,338.2,330.6z"/>
	<path class="st2" d="M405.8,241.2c-8.3-0.7-16-4.2-23.7-7.8c-1.7-0.8-3.4-1.6-4.8-2.7c-0.9-0.8-2.8-1.2-2.3-2.9
		c0.4-1.4,2-1.1,3.2-1.2c16.2-1.2,32.4-2.3,48.6-3.5c2.7-0.2,3.3,1,2.1,2.8C423.3,233.9,416.7,240.5,405.8,241.2z"/>
	<path class="st0" d="M64.8,269.4c-4,6.3-7.2,11.4-10.4,16.6c-0.8,1.3-1.6,1.7-3,1c-3.8-1.9-7.6-4-10.9-6.8
		c-2.3-1.9-1.2-2.7,0.7-3.4C48.6,274.5,56.1,272.2,64.8,269.4z"/>
	<path class="st1" d="M190.6,781.9c-11.8-0.4-22.9-2.7-34-5.7c-15.6-4.2-30.9-9-45.9-15C97,755.7,83.2,750.1,70.7,742
		c-2-1.2-3.5-2.9-4.8-4.8c-1.7-2.5-2.5-5-0.5-7.7c2-2.6,4.6-4.2,8-3.3c2.1,0.6,4.2,1.2,6,2.4c12.6,8.1,26.5,13.5,40.3,18.9
		c1.3,0.5,0.9,0.2,3.6,1.6c2.6,1.3,1.2,0.7,3,1.5c10.9,2.7,14.3,4.8,21.7,7c13.8,4,27.6,7.8,42,8.2c3.1,0.1,6.1,0.6,9.2,1.3
		c3.3,0.7,6.5,5,6.2,8.2c-0.4,3.9-3.2,5.4-6.6,5.8C195.9,781.4,193.2,782.2,190.6,781.9z"/>
	<path class="st1" d="M442.1,765.4c-8.1,0.1-10.7-2.3-10.2-8.3c0.4-4.3,3.5-5.8,6.8-6.5c14.2-2.8,27.7-7.7,41.2-12.9
		c4.1-1.6,8.6-0.2,10.3,2.9c1.7,3.1,0.4,8.3-3.2,10.6c-7.9,4.9-16.8,7.3-25.5,10.2C455,763.6,448.4,764.8,442.1,765.4z"/>
	<path class="st1" d="M460.8,729.4c-2.4-0.3-5.7-0.8-6.6-4.8c-1-4.5,0.8-8.6,4.8-10.3c2.7-1.1,5.5-2,8.3-2.6
		c3.7-0.8,6.9,0.8,8.6,3.9c1.7,3.1,0.8,6.2-1.8,8.7C471.2,727.1,465.8,729.5,460.8,729.4z"/>
	<path class="st1" d="M311.1,631.3c-10.8,0-20.1-6.7-22.8-16.2c-2.7-9.8,1.5-20.6,10.6-26.5c6.2-4,12.8-7,20.2-7
		c16.3,0,24.1,15.9,21.5,28.1C337.8,623.5,324.8,631.1,311.1,631.3z M296.5,609.2c0,5.9,3.7,11.6,8.7,12.7
		c8.3,1.9,15.9,0.6,22.2-5.5c7.3-7,7.5-19-1.3-24.1c-4.4-2.6-9.3-2.1-13.9-0.9C303.3,593.8,296.5,600.1,296.5,609.2z"/>
	<path class="st1" d="M356.5,387.6c0,7.9-6.3,14.1-14.2,14c-9.7-0.1-17.2-7.8-17.1-17.5c0.1-8.3,5.8-14.5,13.8-14.2
		C349.1,370.4,356,376.4,356.5,387.6z M334,384.7c0.1,4.4,3.9,8.6,7.9,8.7c3.1,0,6.3-3.1,6.2-6.2c-0.1-4.2-4.7-9-8.4-8.9
		C336.3,378.4,333.9,381.1,334,384.7z"/>
	<path class="st0" d="M203.3,244.8c10.9,1,21.9,0.3,32.7,1.9c1.7,0.2,3.4,0.1,5.1,0.1c7,0,9.4,2,10.5,8.7c0.3,2,0.5,4,1,5.9
		c1.2,4.8-0.3,6.5-5.3,5.7c-3-0.5-6-1-9-1.5c-7-1.1-13.5,1.2-19.8,3.5c-13.9,4.9-28.2,5.4-42.8,4.4c-4.6-0.3-9.2-0.6-13.8-0.9
		c5.7-8.7,5.4-17.7,1.3-26.8c7.7-0.3,15.3-1.6,23.1-1.2c-0.6,1.4-1.3,2.7-1.8,4.2c-2,5.8-0.3,13.8,3.5,16.4
		c4.7,3.2,8.8,3.4,13.2,0.5c4.5-3.1,5.2-7.7,4.3-12.6C205.2,250.3,204.1,247.5,203.3,244.8z"/>
	<path class="st1" d="M163.4,245.9c4.1,9.2,4.3,18.1-1.3,26.8c-8.6,7.9-14.4,8.3-24.1,1.4c-1-0.7-2-1.3-3.1-1.9
		c-4.5-8.5-6.3-17.2-2.9-26.6c3.2-3.4,5.6-7.5,10.8-8.6c7.7-1.7,14.7,0.8,19,7.3C162.2,244.9,162.9,245.3,163.4,245.9z M158.4,259.5
		c-0.2-3.6-1.1-7.1-3-10c-3.9-6.1-12.9-5.8-15.7,0.6c-2.1,4.9-1.6,10,1.1,14.6c2.7,4.6,6.4,6.1,10.6,5
		C155.4,268.6,158.2,264.4,158.4,259.5z"/>
	<path class="st0" d="M132,245.6c-3.4,9.3-1.6,18.1,2.9,26.6c-11.4-0.4-22.2,2.8-33.1,5.7c-0.7,0.2-1.5,0.6-2.2,0.6
		c-1.6,0-3.7,1.6-4.7,0c-1.2-1.6,0.3-3.4,1.3-5c4.6-7.6,9.3-15.2,13.6-22.9c1.8-3.3,4.4-4.5,7.8-4.6
		C122.4,245.8,127.2,245.7,132,245.6z"/>
	<path class="st1" d="M203.3,244.8c0.8,2.8,1.9,5.5,2.4,8.3c0.9,4.9,0.2,9.5-4.3,12.6c-4.4,3-8.5,2.7-13.2-0.5
		c-3.8-2.6-5.6-10.6-3.5-16.4c0.5-1.4,1.2-2.8,1.8-4.2C193.2,239.8,195,239.8,203.3,244.8z M197.8,254.4c0.5-2.2-1.4-3.7-3.2-4
		c-1.9-0.3-2.5,1.7-2.4,3.6c0.1,2-0.2,4.3,2.7,4.5C197.3,258.6,197.7,256.7,197.8,254.4z"/>
	<path class="st1" d="M225.7,536.3c0.1-6.8,5.3-11.8,12.1-11.6c6.7,0.2,12.5,5.4,12.6,11.2c0.1,6.9-5.7,12.8-12.5,12.7
		C230.6,548.4,225.6,543.3,225.7,536.3z M237.7,540c2-0.3,3.3-1.4,3.5-3.4c0.2-2.2-1.5-2.9-3.2-3.1c-2.1-0.2-3.2,1-3.1,3
		C234.9,538.2,235.5,539.8,237.7,540z"/>
	<path class="st0" d="M483.6,418.3c0.1-0.3,0-0.6,0.2-0.7"/>
	<polygon class="st1" points="23.9,514.9 27.8,582 43.3,580.8 38.9,513 	"/>
</g>
<path class="st1" d="M543,73.5c0,0-8.8,43.1-37.9,52.2c0,0-16.1-9-9.6-10.1c26.5-4.7,36.2-46,36.2-46L543,73.5z"/>
<g>
	<path class="st1" d="M479.5,431.4c-14.6,0-26.5-13.4-26.5-29.9c0-16.5,11.9-29.9,26.5-29.9S506,385,506,401.5
		C506,418,494.1,431.4,479.5,431.4z M479.5,380.2c-9.8,0-17.8,9.5-17.8,21.3c0,11.7,8,21.3,17.8,21.3s17.8-9.5,17.8-21.3
		C497.4,389.8,489.3,380.2,479.5,380.2z"/>
</g>
<polygon class="st1" points="513,642.8 509.4,689.2 525.3,688.3 529.4,642 "/>
</svg>
