<?xml version="1.0" encoding="utf-8"?>
<!-- Generator: Adobe Illustrator 26.5.0, SVG Export Plug-In . SVG Version: 6.00 Build 0)  -->
<svg version="1.1" id="Vektorebene-12" xmlns="http://www.w3.org/2000/svg" xmlns:xlink="http://www.w3.org/1999/xlink" x="0px"
	 y="0px" viewBox="0 0 434.1 81.4" style="enable-background:new 0 0 434.1 81.4;" xml:space="preserve">
<g>
	<path d="M18.2,16.5c47.5,14.6,97.4,19.4,146.6,24.6c19.2,2.2,38.5,2.7,57.8,2.4c25.4,0.1,51,0.5,76.3-2.2c21.6-0.6,42.5-5.8,64-7.1
		c6.8-0.1,8.2,11,0,11.5l0,0c-15.4,1.1-30.6,3.9-45.9,6c-11,0.6-21.9,1.5-32.8,2.6c-54.4,2-108.8,1.5-162.8-6.2
		C74.3,41.6,47.9,42.8,5.2,20.4C-5.2,11.1,10.5,14.3,18.2,16.5z"/>
	<path d="M430.9,46.5c-10.7,5.4-23,8.8-33.7,14.2c-7,3.4-14.2,6.6-20.5,10.9c-5.3,2.1-10.3,4.5-15.2,7.4c-6.6,3.6-12.2-6-5.8-9.9
		c18.8-9.9,37.4-19.7,57.1-27.5c-13-4-25.3-10.3-38.4-13.9c-7.8-3-15.4-6.5-22.7-10.4c-4.2-1.6-8.5-6.1-5.1-10.5
		c2-2.5,5.9-3,8.3-0.8c7.3,4.2,15.2,7.5,23,10.8c11.8,3.7,23.3,8.1,34.6,12.9c6.2,2.3,13.6,2,19.2,5.4
		C435.4,37.8,434.6,43.8,430.9,46.5L430.9,46.5z"/>
</g>
</svg>
