<?xml version="1.0" encoding="UTF-8"?>
<svg id="Vektorebene-12" data-name="Vektorebene" xmlns="http://www.w3.org/2000/svg" viewBox="0 0 415 752">
  <path d="M43.3,669.77c-1.13-15.41-3.87-30.58-5.99-45.86-.59-10.96-1.46-21.88-2.57-32.8-2-54.37-1.45-108.84,6.22-162.79,6.43-47.14,11.82-95.73,34.25-138.47,9.31-18.34,15.85-37.88,24.12-56.67,6.05-14.48,16.16-26.67,24.58-39.77,7.15-11.4,13.34-23.39,22.17-33.63,11.6-14.05,25.37-26.15,37.81-39.44,13.71-10.96,27.65-21.66,41.94-31.85,11.54-7.32,23.91-13.28,35.52-20.52,7.33-4.77,15.16-8.53,23.48-11.22,14-5.48,27.46-12.81,42.59-14.65,13.24-3.61,26.26-8.16,40.01-9.37,10.87-1.95,21.45-4.81,32.51-5.68,3.1-.4,6.05,1.79,6.47,4.91,.43,3.09-1.81,6.08-4.92,6.48-6.29,.76-13.86,1.5-19.85,3.14-9.22,2.4-18.73,3.15-28.05,5.06-7.07,1.83-14.03,4.14-21.08,6.05-15.79,2.15-29.88,9.28-44.49,15.14-9.01,2.75-16.99,7.64-25.01,12.46-10.23,6.36-21.77,11.89-31.8,18.39-13.43,9.89-26.83,19.85-39.8,30.32-9.93,10.17-19.77,20.47-29.99,30.37-13.39,14.12-21.83,31.66-32.84,47.5-14.57,19.27-23.6,40.83-31.86,63.34-7.46,18.56-17.55,36-24.29,54.87-14.64,47.48-19.42,97.42-24.59,146.64-2.19,19.2-2.66,38.48-2.37,57.79-.09,25.41-.53,50.95,2.18,76.26,.58,21.58,5.79,42.5,7.13,63.99,.11,6.83-11.05,8.22-11.5,0Z"/>
  <path d="M42.45,737.8c-5.37-10.69-8.83-22.98-14.16-33.71-3.39-7.04-6.65-14.16-10.94-20.55-2.06-5.26-4.51-10.3-7.37-15.18-3.6-6.61,6-12.24,9.94-5.81,9.87,18.81,19.7,37.36,27.47,57.06,4.03-12.99,10.26-25.26,13.93-38.42,2.97-7.77,6.5-15.39,10.39-22.74,1.59-4.21,6.07-8.49,10.51-5.11,2.53,1.95,3.04,5.94,.83,8.32-4.22,7.35-7.49,15.2-10.77,23-3.67,11.77-8.09,23.27-12.88,34.61-2.34,6.15-2.01,13.58-5.38,19.17-2.89,3.91-8.89,3.08-11.58-.65Z"/>
</svg>