<?xml version="1.0" encoding="UTF-8"?>
<svg id="Vektorebene" xmlns="http://www.w3.org/2000/svg" viewBox="0 0 652.19 834">
  <defs>
    <style>
      .cls-1 {
        fill: #fff;
      }
    </style>
  </defs>
  <path d="M100.3,607.48c0-1.97,1.63-3.61,3.61-3.61s3.61,1.63,3.61,3.61-1.63,3.61-3.61,3.61-3.61-1.63-3.61-3.61Z"/>
  <path d="M345.8,282.74c-3.57-16.02-7.61-32.3-7.68-48.77,1.45-32.6,10.33-65.77,27.44-93.56,4.04-6.33,4.66-13.99,8.11-20.58,5.6-10.55,9.95-22.4,19.36-30.18,20.43-25.41,59.08-26.05,86.31-11.74,49.64,20.94,38.41,45.17,38.09,89.41,0,7.61,2.22,15.85,7.7,21.28,10.76,8.47,21.9,17.73,24,32.13,4.11,10.85,2.39,21.14-1.46,31.09-.65-.77-1.39-1.51-2.23-2.02-.64-.94-1.37-1.78-2.35-2.4-.37-.24-.76-.41-1.17-.52,1.9-5.13,2.95-10.44,2.2-16.1-1.13-5.86-2.63-11.49-4.64-17.01-3.74-7.93-11.04-13.03-17.62-18.42-24.73-22.59-1.43-59.38-13.99-86.29-5.35-11.64-17.13-17.69-28.11-22.97-19.34-10.33-44.79-15.1-64.77-4.6-3.76,2.52-8.38,4.32-11.66,7.42-3.4,4.26-7.55,7.79-11.19,11.79-6.55,11.36-13.2,22.59-16.53,35.31-4.81,11.27-12.73,20.45-15.64,32.55-10.29,23.93-16.34,51.12-13.9,77.17,2.61,16.98,5.77,33.92,10.2,50.48,3,7.62,6.1,15.42,9.56,22.91-2.37,.39-4.7,1.09-6.89,2.16-5.41-12.51-11.49-24.85-13.13-38.52Z"/>
  <path d="M335.15,264.57c-7.23-3.74-7.68-11.31-10.54-17.82-4.99-8.56-8.27-17.78-10.26-27.38-2-7.48-4.28-15.67-1.83-23.24,.35-6.33-2.51-12.06-4.38-17.87-1.45-8.38-1.92-16.87-2.59-25.33-.53-7.63,2.15-14.63,6.91-20.48,5.87-13.08,7.59-28.52,16.08-40.16,4.65-9.97,11.53-17.3,20.84-22.8,8.7-10.97,17.52-22.1,26.03-33.13,6.31-7.11,16.46-8.37,25.22-10.42,12.45-.21,22.85,9,33.28,14.74,6.57,2.94,12.57-4.29,15.61-9.34,10-17.87,16.19-21.88,36.41-25.36,17.41-4.61,34.82,2.75,49.51,11.74,5.4,4.3,11.01,7.24,15.38,12.36,3.91,5.61,7.53,11.46,10.44,17.65,8.83,17.87,4.17,39.27,12.75,57.25,2.03,5.31,6.01,8.87,9.43,13.16,8.78,12.21,4.67,28.7,2.57,42.46-2.26,10.62-8.8,20.3-10.65,30.66-1.06,16.12,5.05,33.4-1.93,48.84-4.06,8.76-12.38,13.9-21.95,11.34-1.8-.77-2.5-3.1-1.67-4.81,1.46-3.23,5.16-1.33,7.76-1.98,7.07-.44,10.6-8.65,11.45-14.77,2.25-14.5-2.99-29.01-.1-43.28,6.75-17.38,14.03-34.7,12.44-53.58-.03-4.29-1.73-8.22-4.29-11.38-22.36-20.66-10.5-54.92-26.46-78.66-8.9-16.41-27.36-25.07-44.53-30.42-13.07-2.13-26.82,1.13-38.6,6.66-7.31,5.86-10.23,15.64-16.65,22.37-4.85,5.3-13.01,9.28-19.94,5.67-10.67-5.3-21.7-17.12-34.39-13.05-3.98,1.36-8.53,1.9-12.19,4-3.82,2.34-5.98,6.27-8.64,9.6-7.17,9.26-14.35,18.51-21.86,27.44-5.19,3.76-11.04,6.67-14.2,12.53-5.62,8.29-10.49,17.43-13.48,26.89-3.14,10.18-5.86,20.36-12.24,29.03-2.65,10.49,.26,21.31,1.07,31.84,1.17,4.62,3.37,8.94,4.21,13.67,1.77,6.81-1.77,13.39,.22,20.13,2.18,8.76,3.34,17.91,7.68,25.92,1.48,4.38,4.09,7.77,5.65,12.02,.65,2.3,1.06,4.42,1.95,6.58,.77,2.14,2.59,3.48,4.42,4.69,3.96,2.43-.12,8.73-3.94,6.05Z"/>
  <path d="M462.74,182.44c-1.52-5.19,5.45-5.23,8.54-6.83,10.85-4.98,23.73-8.68,35.52-6.2,4.28,.33,8.2,2.35,11.81,4.51,3.58,2.96-1.12,8.5-4.65,5.51-3.4-1.71-6.77-3.09-10.64-3.2-7.98-1.79-15.69,1.53-23.29,3.4-4.67,.92-14.08,8.85-17.3,2.81Z"/>
  <path d="M468.19,190.11c-3.95-.69-3.85-5.16-4.54-8.26-.36-1.93,.79-3.87,2.74-4.3,3-.66,4.58,2.17,4.7,4.76,10.13-4.25,21.46-5.67,32.3-4.89,4.57-.08,15.8-2.32,14.89,5.13-.58,1.8-2.72,3-4.54,2.31-3.54-1.19-7.23-.28-10.85-.23-5.8-.5-11.26,.06-16.97,.71-6.14,.65-11.62,4.67-17.71,4.77Z"/>
  <path d="M375.04,186.54c-6.33-3.76,.49-10.21,5.03-11.83,5.69-1.44,11.36-3.79,17.3-3.14,3.17-.71,6.5-1.86,9.76-1.14,4.93,.02,9.28,1.55,13.6,3.68,4.39,.92,10.59,1.24,13.06,5.44,4.07,2.3,.18,8.62-3.67,6.18-2.67-1.43-6.55-1.87-9.37-1.84-15.46-1.38-30.57,4.71-45.71,2.65Z"/>
  <path d="M520.85,204.84c-.25-.21-.52-.42-.78-.62-.89-3.63-3.13-6.92-6.47-9.03-1.3-.83-2.76-1.58-4.21-2.14-1.46-.58-2.99-1.22-4.56-1.43-1.43-.19-2.76-.17-4.13-.09-2.67-.28-5.22-.24-8.02,.49-.81,.17-1.62,.34-2.4,.53-.04-.03-.09-.06-.13-.09,.35-.07,.7-.13,1.05-.19,11.76-4.39,25.79-.21,34.99,7.74,2.41,2.57-.1,6.02-2.82,6.02-.86,0-1.75-.35-2.51-1.18Z"/>
  <path d="M494.09,191.71c-.41,.09-.81,.17-1.22,.26,.39-.09,.81-.19,1.22-.26Z"/>
  <path d="M460.89,235.28c-.8-3.93-1.28-7.92-1.22-11.94-.24-5.03-2.58-23.74,5-22.94,1.95,.38,3.23,2.29,2.89,4.23-.79,4.64-1.93,9.37-.96,14.03,.57,6.16,.16,11.97,1.86,17.82-.35,.11-.7,.22-1.05,.34-2.13-.8-4.32-1.32-6.53-1.53Z"/>
  <path d="M433.05,377.69c-9.43-.36-17.95-4.26-26.33-8.23-3.98-2.03-8.41-3.16-11.62-6.4-8.94-7.94-15.14-17.9-23.02-26.78-4.6-3.02-6.69-8.15-9.97-12.15-3.31-2.61-9.75-9.8-4.75-13.28,4.51-2.05,5.26,3.51,7.25,5.9,3.51,2.74,6.08,6.74,8.3,10.46,10.4,9.24,17.07,21.73,27.49,30.95,12.21,6.63,25.92,14.1,40.23,11.94,16.57-3.52,31.94-12.04,43.84-24,.54-.1,1.07-.29,1.57-.57,.56-.3,1.07-.73,1.52-1.2,.54-.32,1.05-.69,1.58-1.11,.79-.6,1.56-1.24,2.29-1.9,.11-.09,.24-.19,.36-.3,.13-.08,.26-.13,.41-.19l.17-.06c.06,.11,.09,.21,.13,.32,.08,.21,.13,.43,.21,.66-.02,.09-.02,.17-.04,.26-.06,.54,0,1.09,.02,1.63,.1,1.42,.11,2.9,.44,4.29-6.47,7.15-15.02,12.43-22.48,18.34-11.21,5.48-23.12,11.44-35.83,11.44-.58,0-1.16,0-1.75-.04Z"/>
  <path d="M492.43,340.77s.08,.09,.09,.13c-.04-.04-.06-.09-.09-.13Z"/>
  <path d="M401.78,211.61c-8.68,.37-15.37-12.34-6.67-17.3,3.66-3.42,8.58-3.62,13.07-1.78,3.03,.92,6.97,4.43,5.22,7.83,1.83,6.03-6.37,11.25-11.62,11.25Zm.59-7.19c1.53-.34,2.71-1.58,3.95-2.48-.22-1.08-.9-1.95-1.44-2.87-3.19-1.27-4.52,.1-6.7,2.08,.55,1.98,2.04,3.44,4.19,3.28Z"/>
  <path d="M373.73,201.95c-2.29-5.46,5.76-6.95,9.28-8.64,7.96-5.01,19.17-4.8,28.28-4.68,6.2,.57,12.41,3.58,17.45,6.91,4,2.41,.21,8.66-3.74,6.16-1.02-.74-2.19-1.5-3.27-2.05-5.69-3.26-11.94-4.57-18.42-3.81-4.85,.44-10.1,.62-14.6,2.38-2.26,1.57-4.82,2.63-7.26,3.37-2.33,1.65-5.79,3.65-7.72,.35Z"/>
  <path d="M472.04,204.7c-.49-1.88,.72-4.16,2.75-4.45,1.17-.94,2.08-2.1,3.33-2.95,2.88-1.33,5.49-2.78,8.09-4.6,6.04-2.74,12.98-2.98,19.49-2.35,5.53,1.7,12.51,3.06,15.93,8,3.73,5.37-4.16,8.78-6.72,3.04-7.9-4.27-17.96-5.95-26.28-1.78-2.01,1.97-4.75,2.63-7.04,4.1-2.22,2.84-7.83,5.97-9.56,.99Z"/>
  <path d="M497.33,211.77c-4.13-.95-5.77-5.52-6.69-9.2-.47-5.65,4.75-10.24,10.01-10.72,7.67-.62,7.84,9.11,.16,7.24-1.3,.43-2.55,1.22-3,2.58,.38,1.33,.79,2.05,1.38,3.14,.02,0,.03,.01,.05,.02,.05,0,.1,.02,.14,.02,3.21-1.3,3.93-6.76,8.24-4.41,5.84,4.41-5.27,13.54-10.29,11.34Z"/>
  <path d="M502.87,206.8c-1.48-1.16-1.88-3.59-.58-5.07,.66-.47,.43-1.26,.22-1.92-6.91-3.76-.26-10.84,4.97-5.31,4.61,3.52,2.33,16.03-4.6,12.3Z"/>
  <path d="M487.63,425.21c.02-1.97,1.65-3.59,3.62-3.59s3.61,1.67,3.59,3.62c-.02,1.97-1.65,3.59-3.62,3.59s-3.61-1.67-3.59-3.62Z"/>
  <path d="M408.53,448.66c-12.3-.74-24.54-1.43-36.49-4.71-16.1-4.55-29.64-14.48-44-22.5-8.32-4.65-13.52-12.59-18.2-20.51-4.98-5.05-10.14-10.31-12.58-17.12-2.84-11.28,4.97-9.59,12.36-12.32,7.49-2.7,14.55-6.68,21.47-10.59,14.35-6.17,16.79-22.62,16.51-36.6,1.07-7.65,.97-14.98,.36-22.43-.97-4.38,5.96-6.12,7-1.64,1.59,10.24-.16,19.81-.17,29.94-.74,10.06-2.47,21.36-9.3,29.17-3.87,3.12-7.59,6.4-12.04,8.59-9.46,4.9-18.81,11.03-29.48,12.38,1.28,6.27,6.19,10.47,10.32,14.79,4.26,4.72,6.45,11.21,11.27,15.51,20.58,14.5,43.55,28.92,69.35,29.84,18.9,2.14,39.38,.29,56.07-9.33,13.36-8.3,24.35-21.28,30.97-35.39,1.59-6.13,3.52-12.2,4.31-18.49-.46-8.08-1.36-16.09-.41-24.1-.91-5.22,6.9-6.41,7.23-.98-.39,7.19-.9,14.31,.32,21.43,.07,25.64-16.43,48.92-37.17,62.74-14.05,9.08-31.22,11.65-47.68,12.34Z"/>
  <path d="M16.15,797.66c-5.49-12.42-1.33-26.11-.04-38.74,3.06-23.31,6.47-46.72,12.55-69.47,3.82-24.61,10.57-48.43,17.92-72.18,6.89-28.64,19.28-55.28,32.11-81.66,11.62-25.14,24.21-50.06,38.84-73.58,8.7-10.92,18.18-21.16,27.18-31.81,13.65-12.06,29.62-20.66,45.88-28.7,10.45-3.08,22-3.09,32.28-6.85,8.16-5.29,18.3-6.52,26.2-11.67,7.79-9.06,16.49-17.46,27.98-21.63,9.56-2.37,19.4-6.98,29.28-6.67,8.38-1.6,15.85,2.81,23.78,4.81,4.39,1.52,2.41,8.19-2.18,6.87-5.03-1.31-9.87-3.25-14.83-4.72-5,.03-9.4,.29-14.19,.83-11.4,3.47-23.41,5.76-32.98,13.37-3.87,3.04-6.2,6.35-9.32,9.87-4.41,5.52-11.43,7.05-17.62,9.75-5.42,1.33-9.56,4.03-14.48,6.31-10.64,3.74-22.38,3.52-32.99,7.16-14.91,8.07-30.14,15.67-42.66,27.32-11.75,14.73-26,27.66-34.38,44.65-18.16,34.01-35.39,68.48-50.36,104.03-15.54,46.44-27.86,94.1-35.89,142.35-3,19.74-7.28,39.98-7.62,59.67,.64,3.13,1.74,6.01,2.57,9.06,1.13,4.4-5.97,6.28-7.02,1.62Z"/>
  <path d="M139.95,812.57c-5.71-2.6,.26-10.64,1.63-14.63,3.47-7.02,5.54-14.1,8.94-20.94,1.54-3.11,4.07-6.35,5.31-9.5,1.35-3.77,.88-7.98,2.5-11.72,1-2.18,3.77-2.63,5.58-1.22,1.09,.85,1.33,2.16,1.31,3.46-.02,5.62-.85,11.21-2.18,16.66-2.65,11.43-4.12,23.14-7.02,34.5-.56,1.88-2.69,2.93-4.53,2.35-1.9-.6-2.91-2.65-2.35-4.53,1.59-5.16,2.14-10.54,3.19-15.82-1.68,4.6-4.15,9.46-6.1,13.79-1.28,3.01-1.66,8.89-6.29,7.61Z"/>
  <path d="M641.54,809.88c-1.92-.32-3.31-2.23-2.95-4.17,2.22-10.47-.89-20.67-.62-31.19,.2-13.31,4.17-27.13,3.46-40.26-1.1-20.74-4.69-40.86-5.12-61.58-.24-25.25-2.14-50.12-3.82-75.22-1.03-14.36-4.69-28.03-5.09-42.33-.58-7.55-2.26-15.04-3.37-22.41-1.99-17.51-5.17-34.65-11.62-51.1-3.19-12.16-2.5-25.73-9.54-36.63-5.14-8.78-10.84-17.08-19.68-22.47-6.65-5.33-11.86-11.83-19.89-15.04-9.26-6.3-19.09-12.31-29.9-15.02-7.3-1.5-14.92-.94-22.16-2.82-5.47-1.61-10.73-3.73-16.3-4.96-1.92-.51-2.93-2.72-2.35-4.53,2.58-6.48,15.85,2.22,20.79,2.6,6.57,1.38,12.78,1.2,19.31,2.21,12.22,2.35,23.67,8.97,33.69,15.98,5.74,2.71,11.15,6.27,15.47,10.89,8.67,7.61,18.72,13.68,23.96,24.41,10.36,12.9,10.24,29.51,13.92,44.83,6.77,16.34,9.29,33.79,11.5,51.17,2.5,12.29,3.4,24.49,4.57,36.95,5.03,22.86,4.45,46.36,6.46,69.48,2.13,23.36,.23,46.93,4.33,70.05,1.25,12.01,2.42,23.95,1.72,36.06-.24,10.19-3.43,20.76-3.12,30.74-.93,7.54,6.07,34.14-3.66,34.35Z"/>
  <path d="M533.71,817.13c-3.79-22.37-2.26-44.72-1.39-67.23,.55-28.36,6.55-56.27,10.47-84.29,.94-21.58,1.38-43.13,5.01-64.51,1.49-9.78,.45-19.63,2.8-29.22,.87-4.52,7.9-3.51,7.1,1.22-2.62,18.69-3.01,37.58-6.21,56.17-1.39,14.5,.18,29.15-2.39,43.55-5.82,32.42-10.02,64.98-10.35,97.86-.96,15.31-.13,30.59,2.14,45.75,.4,4.57-6.68,5.45-7.17,.7Z"/>
  <path d="M336.39,799.16c-3.8-2.7,.12-6.66,1.56-9.58,4.71-8.82,8.56-18.1,12.65-27.23,18.11-37.31,38.15-73.86,55.14-111.67-.08,.22-.11,.28-.17,.45,10.4-29.12,25.8-55.75,39.29-83.44,4.7-8.95,10.6-17.18,15.02-26.24,3.04-3.38,4.75-13.2,10.57-10.48,3.95,2.88-.47,7.14-1.97,10.18-4.1,6.51-7.11,13.67-11.57,19.98-14.86,27.42-29.62,55.26-41.35,84.14-7.63,22.26-20.46,42.06-30.1,63.42-6.24,14.31-13.8,27.92-21.05,41.73-6.55,12.54-11.73,25.73-17.94,38.43-2.72,3.63-4.16,12.86-10.08,10.31Z"/>
  <path d="M274.69,782.81c-5.32-3.64,5.65-14.03,7.25-18.59,18.14-31.38,35.26-63.03,50.97-95.53,2.46-3.91,8.63-.04,6.07,3.91-8.35,17.05-16.66,35.09-26.5,51.14-9.83,18.52-19.49,37.14-30.86,54.78-1.37,2.59-3.53,6.39-6.93,4.3Z"/>
  <path d="M451.16,269.7c-2.72-.89-5.39-1.59-8.26-1.01-4.64,.31-5.03-7-.36-7.19,1.99-.17,3.94-.41,5.92,0,3.06,.84,6.36,2.08,9.25,.08,3.52-2.07,12.09-4.74,12.38,1.63-.32,3.19-3.19,3.37-5.72,3.36-4.29,1.57-8.39,4.34-13.21,3.14Z"/>
  <path d="M440.06,269.11c-1.78-1.42-3.96-1.04-6.11-1.26-5.07-.96-3.26-8.26,1.69-7.12,3.92-.24,11.7,1.77,9.2,7.07-.97,1.58-3.14,2.24-4.77,1.31Z"/>
  <path d="M467.32,303.19c.17-.08,.32-.17,.47-.26,.39-.06,.77-.09,1.15-.15,.14-.02,.29-.03,.43-.05-.07,.05-.14,.09-.21,.14-.6,.14-1.22,.26-1.83,.35v-.02Z"/>
  <path d="M479.09,291.48s-.04-.02-.06-.02c-.09-.02-.17-.02-.26-.04,.75-.24,1.52-.45,2.31-.6,.8-.23,1.51-.2,2.13,.01-.21,0-.42,.02-.62,.06-.45,.09-.86,.27-1.2,.55-.12,0-.24,.02-.36,.03-.66-.13-1.3-.09-1.93,0Z"/>
  <path d="M482,287.09c-.86-.75-1.77-1.51-2.66-2.11-.97,3.77-5.5,4.37-8.41,2.36-2.31,1.34-5.05,.35-7.13-.23-1.42,.6-2.93,1-4.48,.74-2.12-.26-3.35-1.63-5.17-2.05-1.62,.16-3.27,.36-4.84-.23-2.28,2.22-5.68,2.42-8.52,1.33-2.3,1.73-5.74,2.49-8.11,.53-2.37,2.66-6.98,1.97-8.27-1.45-3.09,2.39-8.02,1.6-9.62-2.15-1.48,1.06-3.51,1.85-5.32,1.61-1.13-.16-2.01-.73-2.66-1.53-2.68,5.06-9.75,.56-6.16-3.93,2.54-3.17,6.77-12.7,11.73-9.46,1.67,1.29,1.88,3.87,.37,5.38,.01,.07,.03,.15,.04,.22,.88-.71,1.82-1.31,2.86-1.48,4.38-4.19,11.16-3.38,16.66-4.72,6.5-.21,11.78,2.67,18.09,1.76,4.82,1.13,7.93,.37,12.48,.94,3.77-.57,10.36,.61,7.68,5.8,.12,.07,.23,.15,.35,.23,.14-.04,.27-.07,.42-.1,.97-.19,1.91-.05,2.85,.14,3.98-5.23,9.65-.74,13.04,2.77,1.33,1.22,2.85,2.65,2.85,4.58-.54,5.2-5.87,3.92-8.41,.79,0,0,.36,.3,.36,.3Zm-45.64-5.93c.25-.15,.49-.31,.74-.48,.09-.06,.19-.12,.28-.17-1.04-.31-1.92-.91-2.75-1.59-.99,.57-2.17,.19-3.13,.67,1.83-.48,3.56,.35,4.87,1.57Z"/>
  <path d="M472.36,291.92c-4.38-1.68-6.43-6.67-9.95-9.58-3.31-3.3,1.84-8.43,5.11-5.11,1.9,2.01,3.82,3.99,5.59,6.13,2.1-3,7.48-1.19,6.88,2.59-1.08,3.01-3.93,6.87-7.63,5.97Z"/>
  <path d="M490.62,312.84c-3.63-2.23-.53-6,.42-8.86,2.12-5.38,1.07-11.61-.97-16.62-.67-4.44-6.95-11.17-1.67-14.44,1.73-.73,4.06,.08,4.71,1.93,3.85,10.24,9.16,21.28,4.49,32.19-1.1,2.99-2.97,7.96-6.99,5.8Z"/>
  <path d="M388.81,308.31c-5.98-4.57-3.79-14.19-3.12-20.64,.1-5.59,2.39-10.79,6.22-14.84,2.35-2.63,7.79-5.38,9.29-.57,4.02,4.46-2.29,6.64-5.53,8.11-1.73,1.58-1.87,4.49-2.56,6.69-.47,4.36-.89,8.89-.21,13.25,1.57,3.78,1.49,9.38-4.08,7.99Z"/>
  <path d="M398.27,202.08c0-1.97,1.63-3.61,3.61-3.61s3.61,1.63,3.61,3.61-1.63,3.61-3.61,3.61-3.61-1.63-3.61-3.61Z"/>
  <path d="M496.65,203.64c0-1.97,1.63-3.61,3.61-3.61s3.61,1.63,3.61,3.61-1.63,3.61-3.61,3.61-3.61-1.63-3.61-3.61Z"/>
  <path d="M480,805.64c-46.52-7.15-96.56-20.39-142.39-27.08-22.33-3.74-44.3-7.08-66.93-8.11-17.34-.8-34.68-9.71-47.59-21.78-36.09-6.27-74.37-21.3-89.65-57.43-14.96-32.15-5.68-73.47,21.08-96.23,3.84-13.42,11.07-25.81,20.73-36.07-8.97-79.24,58.14-105.22,125.56-101.52,13.26,.49,26.57,1.05,39.88,1.83,19.72-7.07,41.93-5.02,62,.11,49.84,8.81,113.09,22.27,133.43,74.85,25.44,11.31,50.26,27.31,61.43,54.17,15.34,35.8,5.22,79.49-26.89,102.62-1.83,13.81,2.5,27.18,.75,41.12-4.74,44.72-47.11,78.95-91.4,73.51Z"/>
  <path d="M91.59,765.3c-42.56-10.59-73.09-57.09-60.43-100.51,4.59-13.51,10.94-33.76,15.34-43.42,6.14-12.61,8.33-23.91,13.77-36.45,6.71-14.53,14.66-26.99,21.46-41.2,1.95-11.46,9.67-20.23,13.53-30.86,6.86-18.19,18.68-33.43,27.16-50.73,27.6-45.76,82.97-69.49,135.03-67.31,16.04,1.31,31.66,8.23,45.36,16.03,30.85,12.37,51.46,41.32,52.96,75.15,6.26,58.11-49.74,106.85-106.13,89.17-3.08,16.72-14.14,29.5-20.13,44.82-4.54,24.11-20.16,43.01-29.92,64.77,0,0,.04,.03,.04,.03-3.58,7.03-7.43,20.66-9.54,26.36-12.64,40.01-57.73,65.16-98.48,54.15Zm149.76-176.23c.53-1.64,1.06-3.28,1.59-4.92,.64-3.5,1.26-7,1.88-10.52-.05-.02-.09-.03-.14-.05-.68,5.25-1.83,10.4-3.33,15.49Z"/>
  <path d="M400.47,616.51c-22.21,3.11-43.24-2.34-64.2-9.49-67.44-25.42-68.94-125.35-2.52-152.98,18.58-8.17,38.9-8.81,58.06-3.08,11.12-.73,22.51-1.16,33.46,1.26,17.84-6.05,29.01-13.25,44.14-22.42,96.68-53.05,177.05,82.58,85.45,142.17-44.86,27.11-103.54,57.18-154.39,44.55Z"/>
  <path d="M538.73,778.04c-59.88-8.64-82.11-60.66-71.34-115.85,.71-37.49-.48-71.77-2.54-107.54-45.13-56.68,2.17-149.02,76.38-140,27.72,2.27,51.98,20.38,65.26,44.4,10.95,17.18,19.5,36.07,20.04,56.91,7.31,40.04,5.2,81.65,6.78,122.32,.65,22.12-1.06,44.24-3.17,66.26-5.02,45-46.95,78.61-91.4,73.51Z"/>
  <path d="M441.94,816.42c-19.81-2.46-40.7-4.59-60.49-7.78-22.62-.97-41.18-4.04-62.18-8.46-23.83-1.33-47.6-2.56-71.15-6.69,1.15,.21,2.3,.41,3.45,.62l2.42,.44c-22.58-3.78-45.62-6.96-68.53-8.42-6.32-.03-12.68,.39-18.96,.9-32.31,40.83-98.61,42.26-130.38-.01-21.6-26.25-20.65-60.92-10.4-91.56-.38-37.5,25.32-73.96,61.1-84.75,13.38-19.53,30.08-35.68,50.07-48.28,52.76-43.54,138.05-1.19,134.03,67.03,32.27,6.17,65.57,3.17,97.52,11.7,0,0,8.77,1.63,8.77,1.63,28.97,.84,57.74,6.03,86.5,9.18,.64-46.58,5.62-92.12,53.24-113.51,33.88-15.5,75.51-4.41,98.5,24.47,14.93,18.17,18.88,41.96,21.58,64.66,4.83,23.56,7.01,47.01,5.26,71.13,2.84,28.76,5.72,58.24-13.81,82.57-41.35,50.39-128.32,46.98-186.54,35.14Z"/>
  <path d="M602.76,490.83c.94-7.72-1.83-14.72-5.06-21.57-6.65-.95-8.32-9.34-11.75-14.11-9.26-11.1-20.86-20.82-28.63-32.95-.29-.16-.59-.34-.87-.52-4.34,4.17-10.4,.81-15.5,.38-6.02,5.83-15.59,3.81-23.14,3.07-7.73-.85-15.55-.65-23.32-1.31-6.8,8.2-14.18,15.93-23.99,20.36-1.97,2.2-5.03,3.35-7.94,2.66-12.71,4.43-25.99,6.86-39.27,8.89,1.55,7.78-6.13,10.03-12.35,8.52-13.35-.54-26.6-4.23-39.58-6.13-2.26,1.93-5.39,1.77-8.11,1.06-6.41-1.48-12.61-3.7-18.78-5.93-7.63-3.73-20.09-4.1-24.33-12.08-3.24-.3-6.04-2.99-8.36-5.19-3.6,.55-6.45-1.6-8.65-4.19-9.48,2.4-11.9-10.05-13.85-16.76-4.06,2.75-10.28,.84-11.79-3.93-.92,1.39-1.84,2.78-2.77,4.17-1.67,2.49-5,3.37-7.79,2.58-6.42,2.5-11.7,7.07-15.03,13.15,3.02-.73,5.55-3.47,8.57-3.75,10.76-.64,10.73,12.95,1.2,15.5,.57,7.65-10.09,10.48-13.68,3.84-2.05,.15-4.09-.04-6.04-.88-6.35-2.72-6.96-10.6-5.02-16.51-2.19,.47-4.4,.59-6.45-.28,0,0,0,0,0,0-2.33,1.56-4.94,3.21-7.74,3.68-5.67,1.14-10.51-5.75-7.4-10.67,3.23-4.29,6.28-7.53,9.69-11.28-.42-.86-.66-1.82-.63-2.84,.03-1.55,.36-2.9,1.05-4.15,.84-9.66,12.54-13.56,19.5-18.5,14.06-21.41,41.32-23.74,64.53-27.2,8.15-1.4,17.74,3.76,11.25,12.49-2.08,2.18-5.15,2.44-7.98,2.59-4.99,.07-9.63,2.63-14.64,3.17,.21,.56,.37,1.14,.47,1.74,5.22,2.36,4.12,8.68,2.98,13.14,1.98,.93,3.35,2.95,4.44,4.79,9.57,3.03,15.92,11.88,22.93,18.57,5.25,5.81,11.74,11.4,17.44,16.41,2.69-1.32,5.77-.47,8.31,.83,5.38,2.07,10.82,3.99,16.22,6.01,29.35,8.46,61.18,4.47,89.62-5.34,5.08-5.92,9.95-12.14,14.4-18.52,2.46-4.8,3.54-11.54,8.56-14.31,1.29-3.38,4.08-6.1,4.88-9.61-2.03-4.81,2.14-10.64,7.46-9.88,3.31,.47,6.5,2.07,9.58,3.32,9.35,4.16,19.14,6.88,28.91,9.63,4.31-1.13,8.27,1.88,11.99,3.63,11.78,4.61,21.96,12.51,31.7,20.31,3.73,.24,6.97,2.97,9.84,5.12,8.36,6.99,17.23,15.19,19.49,26.31,.84,8.02,3.25,15.51,6.72,22.74,2.96,7.07,7.59,25.74-3.93,26.78-3.86,.1-7.38-3.1-7.38-7.02Z"/>
  <path d="M98.29,823.26c-7.25,.16-14.02-2.18-20.94-3.97-9.76-1.43-19.67-2.35-28.97-5.83-11.58-2.85-30.5-4.87-29.12-20.68-3.12-4.12-2.78-9.91-3.16-14.85-.23-6.83-.22-14.7,4.66-20.06,4.25-4.83,12.89-3.33,14.5,3.15,7.48,.1,10.73,11.52,3.72,14.86-1.26,3.76-.44,7.89-.78,11.79,9.57,3.22,34.56,2.16,32.9,16.23,8.62,.39,16.66,4.02,25.13,4.88,13.54,1.25,27.42-.08,40.72-2.63,5.49-3.61,4-11.2,10.3-13.15,4.53-7.19,15.98-1.32,12.7,6.58-1.89,3.71-3.44,8.4-7.31,10.47-2.61,3.12-5.17,7.33-8.78,9.13-2.39,.86-4.8,1.2-7.04,1.72-12.85,1.95-26.01,3.74-38.99,2.34,0,0,.46,.02,.46,.02Z"/>
  <path d="M547.69,826.35c-68.23-4.76-136.01-14.53-203.65-23.92-24.83-3.06-48.86-10.96-73.96-12.17-18.55-3.03-36.88-6.99-55.75-7.33-2.02,2.26-5.32,2.73-8.03,1.73,.32,.09,.62,.19,.94,.3-7.83-2.93-15.95-2.6-24.24-2.13-8.16,1.11-24.93,4.83-24.91-7.79-3.12-3.36-1.89-9.69,2.54-11.33,3.64-1.61,8.21-1.31,11.87-.94,9.01-.85,19.56,2.14,28.02,3.21,18.18,4.2,37.07,2.47,55.12,7.36,26.4,3.69,52.67,7.05,78.69,13.03,40.45,5.32,80.69,11.92,121.23,16.51,26.04,4.23,52.46,5.27,78.71,7.55,7.32,.43,14.6,2.01,21.93,1.86,6.65-.47,12.28-3.93,18.68-5.53,1.74-6.29,10.79-5.82,15.36-8.16,6.41-3.2,13.61-4.69,19.76-8.24,3.52-2.52,7.32-5.55,11.89-4.59-.45-8.79,4.91-29.84,16.71-20.01,7.06-.83,9.8,7.41,6.88,12.6-2.2,6.26-3.4,12.77-2.93,19.42,4.04,12.6-4.81,16.64-15.61,18.42-8.57,1.98-16.73,3.91-25.52,3.4-7.92-.25-15.33,2.93-23.16,3.96-10.08,.79-20.34,4.3-30.56,2.78Z"/>
  <path d="M332.81,263.54c-2.84-1.42-4.17-5.15-4.39-7.98-1.18-6.45-2.44-12.85-3.35-19.35-1.79-1.85-2.3-4.47-2.52-6.92-4.54-11.67-4.95-24.76-7.34-37.04-1.26-12.39-2.92-24.72-3.96-37.11,1.3-9.25,3.41-18.49,5.56-27.63,2.18-9.17,5.35-17.99,8.88-26.69,1.06-4.05,5.22-6.15,8.89-5.19,3.94-7.11,6.59-19,16.04-20.04,2.23-13.69,29.94-41.75,44.07-40.79,7.48-5.26,14.84-1.72,21.02,3.48,1.34-.7,2.89-.98,4.44-.79,0,.01,0,.03-.01,.04,.93,.1,1.87,.37,2.8,.85,2.48,1.26,3.84,4.14,3.64,6.86,4.87,4.25,4.92,12.46,.42,16.97-2.14,2.17-4.73,3.85-7.03,5.8-.59,6.02-4.65,13.77-11.74,12.55-.68,.37-1.37,.7-2.08,.97-1.8,.69-3.56,1.01-5.4,.89-7.44,9.89-13.07,21.01-21.12,30.4,.82,6.55-5.15,11.64-7.92,17.12-2.2,4.03-3,8.93-6.69,12.05-6.05,17.39-11.06,35.11-16.73,52.64-2.47,6.02-1.55,14.56-6.99,18.81-1.4,13.18,1.48,26.43,3.3,39.44,1.3,6.75-4.8,14.44-11.78,10.63Z"/>
  <path d="M479.71,180.19c-1.07-8.71,9.98-9.49,16.25-10.1,4.23-1.71,10.04-2.81,12.76,1.97,4.66,9.1-6.78,12.4-13.71,12.48-5.64,1.74-13.78,3.6-15.31-4.35Z"/>
  <path d="M548.51,249.98c-4.54-5.97,1.91-11.8,3.4-17.51-.59-1.29-.99-2.69-1.31-4.04-4.75-4.74-3.15-13.04-6.24-19.33-5.59-5.79-12.02-11.77-15.65-18.79-.03-.01-.07-.03-.1-.05-11.91,.67-14.65-22.27-12.89-31.01-3.93-3.59-1.81-8.93-.48-13.21,3.15-8.15-.26-16.77,.24-25.19-4.61-6.3-5.6-14.24-9.19-20.69-3.83-4.86-7.87-10.21-13.5-13-8.86-2.93-17.14-7.97-24.78-13.31-2.23,.15-4.49-.73-6.01-2.47-3.7,3.58-10.49,4.94-13.94,.31-3.16,2.15-7.51,3.74-11.02,1.45-2.29,1.07-4.84,1.32-7.32-.08-.3-.17-.58-.35-.84-.54-5.85,5.21-15.98,1.42-16.71-6.26-4.87-3.64-2.3-9.35,.65-13.29-4.42-9.31,7.94-16.88,13.41-7.88,11.42-3.16,22.43-11.92,29.37-21.11,6.09-9,15.43-15.66,26.69-14.95,5.11-.61,10.15,.72,15.25,0,4.81-.76,9.75-1.39,14.44,.28,8.05,2.47,13.92,8.77,21.7,11.82,13.44,4.24,22.44,10.95,25.12,25.47,5.23,9.61,7.7,19.83,8.05,30.66,1.63,5.3,4.03,10.47,4.38,16.08-.11,4.55,1.06,9.06,2.56,13.26,2.21,6.09,7.55,10,10.38,15.72,4.97,8.64,4.06,20.24-1.38,28.45,.09,.94,.13,1.88,.04,2.8-.08,.93-.32,1.83-.69,2.66,2.72,3.43,1.24,9.14-2.75,10.86-1.83,3.4-5.89,6.19-6.55,9.94,1.7,6.9,1.06,14.11,.2,21.09-.5,9.19,1.61,18.72-1.58,27.61-3.6,8.51-9.76,35.49-22.95,24.28Z"/>
  <path d="M548.31,235.45c-1.06-5.52-2.24-11.02-2.63-16.65-3.54-7.52-9.33-13.86-14.31-20.49-7.17-1.65-11.69-13.48-3.44-16.87,5.35-1.72,13.68-.06,13.81,6.75,6.25,8.1,13.12,15.95,17.46,25.3,1.17,5.62,1.85,11.34,2.73,17.02,4.04,10.17-11.19,15.26-13.72,4.46,0,0,.11,.48,.11,.48Z"/>
  <path d="M495.63,200.37c-.09-3.87,3.1-7.4,7.02-7.4s7.31,3.04,7.4,7.02c.09,3.87-3.1,7.4-7.02,7.4s-7.31-3.04-7.4-7.02Z"/>
  <path d="M396.9,198.59c-.09-3.87,3.1-7.4,7.02-7.4s7.31,3.04,7.4,7.02c.09,3.87-3.1,7.4-7.02,7.4s-7.31-3.04-7.4-7.02Z"/>
  <path d="M487.87,348.87c-1.38-.86-2.32-1.83-2.88-2.88,.36-.11,.71-.26,1.04-.44,.56-.32,1.05-.73,1.5-1.2,.56-.34,1.07-.71,1.6-1.11,.79-.6,1.56-1.24,2.29-1.9,.11-.09,.23-.21,.34-.3,.15-.08,.28-.13,.43-.21l.17-.06c.04,.11,.09,.23,.13,.32,.08,.23,.13,.43,.21,.66-.02,.09-.04,.19-.04,.28-.06,.54,0,1.09,.02,1.63,.11,1.54,.11,3.16,.53,4.64,.1,.37,.26,.73,.47,1.05-.76,.32-1.56,.5-2.4,.5-1.08,0-2.21-.3-3.41-.99Z"/>
  <path d="M492.42,340.78s.02-.02,.02-.02c.04,.06,.06,.09,.09,.15-.04-.06-.08-.09-.11-.13Z"/>
  <path d="M482.76,352.49c-4.41-4.14,2.75-8.79,5.76-11.3,2.26-2.45,4.6-4.79,7.26-6.85,2.78-2.84,3.48-7.44,6.36-10.09,2.25-3.28,4.04-6.8,7.17-9.38,2.17-2.74,3.53-6.23,5.08-9.21,2.51-5.35,5.37-10.39,7.98-15.65-.02,.06-.05,.13-.08,.19,4.52-10.69,9.42-21.13,13.63-31.91,1.74-4.61,3.72-9.18,5.35-13.8,.6-1.86,2.37-3.12,4.38-2.63,6.35,2.35-.72,11.23-1.65,15.55-4.61,12.1-10.04,23.84-15.15,35.72-3.68,7.04-7.23,14.03-10.7,21.05-3.31,6.27-8.91,11.18-12.45,17.47,.03-.07,.06-.14,.09-.21-2.41,6.94-8.58,11.01-13.54,16.02-3.4,1.64-5.14,7.89-9.5,5.03Z"/>
  <path d="M538.45,253.08c-1.01-4.49,1.9-9.88,2.37-14.2,1.38-6.28,1.12-12.67,1.95-18.86,0,.05,0,.1,0,.14,0,.01,0,.02,0,.03-.43-11.65-3.03-23.59,3.42-33.99,2.24-4.09,8.61-.53,6.29,3.53-6.44,10.41-1.6,22.46-2.74,33.72,3.78,.38,3.8,4.7,3.26,7.59-.06,6.15-4.57,10.82-6.4,16.43-1.04,2.6-.62,6.6-3.82,7.6-1.66,.58-3.66-.43-4.32-2.01Z"/>
  <path d="M465.53,251.58c-1.57-5.35-10.16-22.9-1.6-24.64,4.45,.04,3.64,4.87,3.68,7.94,.18,1.55,.94,3.33,1.26,4.42,1.28,3.39,2.17,6.92,3.57,10.25,1.38,4.44-5.61,6.54-6.91,2.03Z"/>
  <path d="M417.59,284.25c-1.26,.96-3.06,1.22-4.47,.43-.3-.17-.56-.37-.79-.6-.83,.19-1.72,.09-2.51-.38-.39-.23-.74-.51-1.03-.84-2.81,3.38-8.75,3.55-8.57-1.75,1.04-3.39,3.48-6.3,5.41-9.27,.22-3.84,6.97-8.68,9.51-3.99,.89-.65,1.99-.95,3.12-.82,.95,.1,1.86,.61,2.53,1.33,1.97-1.63,5.4-.38,5.77,2.21,.92-.63,2.12-.97,3.21-.65,.74,.21,1.39,.59,1.89,1.1,1.54-2.23,5.1-1.68,6.15,.72,.95-.88,2.24-1.22,3.51-.9,.65,.16,1.23,.5,1.69,.97,2.5-2.52,6.39-.56,6.93,2.67,.81-3.65,5.34-5.44,7.67-2.04,1.1-1.31,2.93-1.92,4.59-1.21,.43,.19,.81,.42,1.17,.68,.26-.48,.59-.91,1.06-1.3,1.26-1.04,2.9-.98,4.24-.27,1.25-.78,2.95-.84,4.31-.02,.1,.06,.19,.12,.28,.18,2.27-1.32,4.7,.17,6.54,1.57,3.09-1.72,5.63,1.68,7.26,3.91,2.7,3.21-1.91,7.74-5.07,5.03-.78,.17-1.62,.09-2.44-.28-.47-.22-.89-.51-1.31-.83-.54,.48-1.21,.81-1.9,.92-1.09,.17-1.99-.15-2.81-.69-1.05,1-2.63,1.37-3.99,.8-.84-.34-1.49-.9-2.09-1.51-.82,.82-1.86,1.42-3.05,1.38-.99-.02-1.88-.23-2.72-.78-1.54,2.4-5.09,2.94-7.1,.85-1.74,3.53-6.76,5.54-9.37,1.85,0,0,0-.01-.01-.02-1.42,2.09-3.55,4.11-6.2,2.97-.88-.38-1.61-1.07-2.04-1.92-1.22,.8-2.58,1.24-4.01,.89-.65-.16-1.23-.47-1.71-.89-1.82,1.29-4.38,1.03-5.83-.7-1.69,2.64-5.72,4.37-7.82,1.19Z"/>
  <path d="M445.51,316.98c-10.23-.63-19.17-5.81-28.17-10.12-4.55-2.76-7.33-7.6-10.69-11.59-1.86-.77-2.95-2.79-2.15-4.75,1.69-3.11,5.91-3.79,9.15-3.32,5.65,.41,11.27,.45,16.94,.49,11.84,.21,23.67,1.96,35.48,1.99,4.7-.76,9.92-1.21,14.6-1.13,2.52-.71,5.23,1.31,4.81,3.99,5.34,4.17-6.74,14.37-10.35,16.72-5.04,3.1-9.79,7.51-15.91,7.81-4.82-.12-8.99,.2-13.71-.09Zm9.28-7.24c8.93-2.45,18.39-6.05,23.89-13.92-20.11,2.3-40.13-1.37-60.33-1.12,2.93,2.46,5.52,5.39,8.35,7.93,8.58,4.58,18.44,6.73,28.09,7.11Z"/>
  <path d="M408.53,298.24c-2.49-2.66-7.15-3.02-8.37-6.77-3.52-2.12-2.76-8.02,1.78-7.69,2.64,.69,4.87,2.57,7.49,3.43,1.63,.29,2.91,1.61,3.07,3.23,1.17,.62,1.95,1.76,2.04,3.01,4.71,4.56-1.9,9.2-6.01,4.79Z"/>
  <path d="M468.46,298.26c-15.45-1.17-31.21-4.77-46.18-7.87-6.53-2.04-15.82,.55-20.55-5.01-1.83-8.15,9.28-4.3,12.36-3.89,2.01-.24,4.62-.73,5.94,1.22,17.96,2.98,35.6,8.53,53.86,8.27,5.91-1.06,10.98-4.23,16.82-5.4,4.37-1.38,7.77,3.49,4.24,6.78-2.6,2.16-7.38,6.43-10.33,2.72-5.1,2.3-10.54,3.68-16.17,3.17Z"/>
  <path d="M464.24,291.62c-4.74-2.38-10.46-.71-15.31-3.06-5.62-1.76-5.18-6.92-.7-9.86,2.69-2.76,7.41,.31,5.94,3.9,0,0,0,.02,0,.02,4.61,.73,9.47,.14,13.6,2.73,4.11,2.2,.5,8.57-3.53,6.27Z"/>
  <path d="M477.19,284.16c-.06-1.93,1.56-3.7,3.51-3.7s3.64,1.52,3.7,3.51c.06,1.93-1.56,3.7-3.51,3.7s-3.64-1.52-3.7-3.51Z"/>
  <path d="M429.29,268.49c-.06-1.93,1.56-3.7,3.51-3.7s3.64,1.52,3.7,3.51c.06,1.93-1.56,3.7-3.51,3.7s-3.64-1.52-3.7-3.51Z"/>
  <path d="M429.69,270.12c-.06-1.93,1.56-3.7,3.51-3.7s3.64,1.52,3.7,3.51c.06,1.93-1.56,3.7-3.51,3.7s-3.64-1.52-3.7-3.51Z"/>
  <path d="M433.56,272.68c-.06-1.93,1.56-3.7,3.51-3.7s3.64,1.52,3.7,3.51c.06,1.93-1.56,3.7-3.51,3.7s-3.64-1.52-3.7-3.51Z"/>
  <path d="M439.46,272.97c-.06-1.93,1.56-3.7,3.51-3.7s3.64,1.52,3.7,3.51c.06,1.93-1.56,3.7-3.51,3.7s-3.64-1.52-3.7-3.51Z"/>
  <path d="M441.37,272.19c-.06-1.93,1.56-3.7,3.51-3.7s3.64,1.52,3.7,3.51c.06,1.93-1.56,3.7-3.51,3.7s-3.64-1.52-3.7-3.51Z"/>
  <path d="M443.16,271.34c-.06-1.93,1.56-3.7,3.51-3.7s3.64,1.52,3.7,3.51c.06,1.93-1.56,3.7-3.51,3.7s-3.64-1.52-3.7-3.51Z"/>
  <path d="M446.49,273c-.06-1.93,1.56-3.7,3.51-3.7s3.64,1.52,3.7,3.51c.06,1.93-1.56,3.7-3.51,3.7s-3.64-1.52-3.7-3.51Z"/>
  <path d="M449.01,272.11c-.06-1.93,1.56-3.7,3.51-3.7s3.64,1.52,3.7,3.51c.06,1.93-1.56,3.7-3.51,3.7s-3.64-1.52-3.7-3.51Z"/>
  <path d="M454.49,274.5c-.06-1.93,1.56-3.7,3.51-3.7s3.64,1.52,3.7,3.51c.06,1.93-1.56,3.7-3.51,3.7s-3.64-1.52-3.7-3.51Z"/>
  <path d="M456.48,271.75c-.06-1.93,1.56-3.7,3.51-3.7s3.64,1.52,3.7,3.51c.06,1.93-1.56,3.7-3.51,3.7s-3.64-1.52-3.7-3.51Z"/>
  <path d="M458.99,271.81c-.06-1.93,1.56-3.7,3.51-3.7s3.64,1.52,3.7,3.51c.06,1.93-1.56,3.7-3.51,3.7s-3.64-1.52-3.7-3.51Z"/>
  <path class="cls-1" d="M375.72,756.69c-1.5-1.13-1.99-3.55-.71-5.05,3.68-4.34,7.14-8.85,10.78-13.22,10.46-11.69,20.69-23.21,30.25-35.63,18.83-22.3,33.64-47.36,47.59-72.89,5.42-9.5,10.97-19.03,14.45-29.45,2.11-6.67,1.45-13.82,4.07-20.36,1.19-4.49,8.16-2.87,7,1.73-2.58,6.59-1.92,13.69-4.08,20.4-4.68,14.5-13.21,27.34-20.47,40.64-14.41,27.25-32.31,52.31-52.13,75.87-6.69,8.02-13.49,15.96-20.58,23.62-3.75,4.5-7.31,9.14-11.12,13.62-1.29,1.5-3.44,1.94-5.05,.71Z"/>
  <path class="cls-1" d="M272.68,739.17c-3.79-5.52,8.76-9.53,11.66-13.31,19.53-15.78,36.04-34.75,51.7-54.22,9.67-11.37,17.22-24.19,25.32-36.49,17.38-25.14,36.67-49.92,46.39-79.27,1.65-4.3,8.45-1.69,6.71,2.68-10.36,31.37-31.48,57.44-49.67,84.48-20.1,32.24-44.86,61.92-73.76,86.62-4.26,3.6-8.7,6.93-13.28,10.08-1.6,1.14-3.8,1.03-5.07-.58Z"/>
  <path class="cls-1" d="M157.83,791.73c-4.92-1.6-1.6-7-.76-10.34,4.18-12.64,6.16-25.93,10.76-38.46,7.63-16.79,16.44-33.12,24-49.9,5.47-11.17,5.18-24.65,7.47-36.49,2.23-10.56,4.29-21.11,6.67-31.64,4.99-22.32,12.07-44.31,11.43-67.43-.09-19.25,9.31-37.53,3.56-56.37-3.18-12.64,2.14-26.51-3.18-38.52-1.48-2.78-5.05-6.53-1.24-9.01,4.67-2.37,6.66,4.29,8.39,7.4,4.81,10.63,.97,22.6,2.43,33.75,6.13,20.3-.96,40.41-2.67,60.45-.03,43.05-17.86,83.12-21.65,126.26-6.98,29.16-28.3,53.14-33.82,82.88-1.88,6.3-3,12.95-5.2,19.04-1.33,3.22-1.4,9.26-6.18,8.39Z"/>
  <path class="cls-1" d="M512.89,814.67c-1.99-.51-2.99-2.44-2.63-4.38,3.36-22.69,11.5-44.35,15.42-66.8,4.27-30.72,.23-61.83,.99-92.74,.75-20.2,2.77-40.03,1.99-60.21-1.24-18.12-3.62-35.35-5.32-53.3-.75-4.53,6.46-5.8,7.14-1.13,1.81,20.91,5.32,41.74,5.58,62.69-.52,24.98-2.42,49.73-2.05,74.67-.75,18.82,2.32,37.76,.32,56.57-1.03,21.53-8.21,42.02-13.34,62.78-1.86,6.61-2.22,12.73-3.73,19.22-.36,1.93-2.54,3.08-4.38,2.63Z"/>
  <path class="cls-1" d="M532.69,73.83c-5.91-16.39-18.42-27.6-35.14-32.23-10.25-3.25-22.61,2.16-29.32,10.07-3.2,3.37-8.46-1.71-5.16-5.03,6.24-7.86,15.7-11.34,25.26-13.22,13.35-.45,26.97,6.69,36.94,15.19,3.55,3.67,19.33,24,12.17,27.08-1.77,.78-3.96-.06-4.75-1.86Z"/>
  <path class="cls-1" d="M550.34,181.48c-34.95-20.28-22.85-45.24-22.18-77.72-.07-7.01-5.97-11.27-10.52-15.73-4.72-4.66-9.41-9.88-15.5-12.65-2.96-1.8-9.25-2.58-7.7-7.32,2.61-5.12,8.29,.14,11.91,1.35,10.06,5.87,18.43,14.87,25.88,23.64,6.96,13.24,1.24,29.1,.09,43.06-.47,19.09,6.04,30.1,22.33,39.59,3.77,2.72-.59,8.6-4.32,5.77Z"/>
  <path class="cls-1" d="M562.43,151.1c-1.3-7.15-2.18-14.43-6.14-20.61-1.44-2.04-3.07-3.93-4.69-5.83-2.94-3.61,2.78-8.16,5.65-4.47,5.84,5.96,9.45,13.55,10.8,21.77,.35,3.8,4.04,10.73-1.48,12.15-1.91,.3-3.86-1.04-4.13-3Z"/>
  <path class="cls-1" d="M334.3,119.58c-9.16-4.25,18.89-38.2,24.36-42.33,7.07-7.02,16.37-10.36,25.43-13.99,1.8-.75,3.94,.04,4.75,1.86,.77,1.77-.06,4-1.86,4.75-18.52,5.3-32.14,19.3-41.69,35.32-2.46,3.94-4.53,8.07-6.29,12.38-.75,1.82-2.89,2.74-4.7,2.01Z"/>
  <path class="cls-1" d="M330.25,195.81c-6.67-1.44-.95-14.37-1.13-19.23,2.02-19.57,6.62-38.88,16.74-55.86,2.28-5.82,5.95-10.72,11.36-13.91,3.63-2.87,8.18,2.79,4.47,5.65-4.09,2.56-7.25,5.92-8.91,10.49-9.42,16.2-14.51,34.07-16.22,52.65-.85,5.65-1.95,11.31-2.33,17.01-.13,1.95-2.09,3.4-3.98,3.19Z"/>
  <path d="M430.6,183.34c-1.22-.02-2.13-.64-2.9-1.46-2.58-.62-2.97-3.44-2.81-5.74-8.88-1.61-17.52,.31-25.61,3.63-4.45,1.38-6.52-5.64-2.03-6.91,8.44-3.93,36.41-9.62,37.82,4.17,2.18,3.13-.56,8.02-4.47,6.31Z"/>
</svg>