<?xml version="1.0" encoding="UTF-8"?>
<svg xmlns="http://www.w3.org/2000/svg" viewBox="0 0 621.81 834">
  <defs>
    <style>
      .cls-1 {
        fill: #fff;
      }

      .cls-2 {
        fill: #f3c25f;
      }

      .cls-3 {
        fill: #fbd679;
      }
    </style>
  </defs>
  <g id="Vektorebene">
    <path class="cls-2" d="M78.98,556.31c-65.57-55.55,57.1-103.63,43.64-166.72-7.7-26.98-23.26-52.01-20.9-81.14,3-70.4,77.87-115.23,124.77-158,19.85-28.12,45.78-49.93,76.7-65.18,39.75-32.68,88.42-48.21,136.85-62.79,50.1-10.09,101.72-18.65,136.4,27.9,39.4,50.08-34.15,102.13-71.21,50.24-52.91,3.89-107.27,20.47-149.49,53.27-14.53,10.29-31.84,16.63-44.83,29.06-10.95,14.12-21.84,28.31-35.59,39.92-31.22,25.19-64.92,49.05-86.73,83.47-3.36,17.07,9.55,32.28,13.67,48.31,13.16,37.9,6.05,80.03-10.73,115.68-11.95,24.64-31.38,43.85-47.59,65.58-11.57,24.21-41.86,35.78-64.94,20.41Z"/>
    <path class="cls-2" d="M296.19,827.16c-5.84-.36-11.65-.41-17.45-1-.05-.01-.1-.03-.17-.04-8.18-3.02-16.04-6.88-24.23-9.92-9.23-3.43-18.67-7.07-28.38-8.84-19.11-3.51-38.53-4.57-57.76-7.46-7.52-1.53-14.92-3.46-22.39-5.28-.78-.19-1.56-.38-2.34-.58-4.08-2.11-8.1-4.33-12.07-6.65-41.15-19.18-76.68-50.74-104.59-86.25-15.36-23.5-18.41-52.32-19.21-79.75,3.68-45.12,51.77-127.23,84.77-158.37,7.42-7.08,15.91-12.09,24.33-17.66,15.37-12.13,29.79-29.59,51.29-27.94,21.18,.71,39.41,18.68,40.62,39.79,2.69-2.36,5.49-4.52,8.4-6.5-16.28-34.7-23.07-74.66-20.91-112.65-15.03-65.28,19.63-157.76,98.53-149.96,1.77-2.41,3.64-4.74,5.54-6.95-3.15-94.59,84.93-172.77,178.15-163.4,37.73,4.7,80.86,6.47,108.65,35.78,26.21,28.62,35.24,71.54,28.95,109.2-12.79,71.11-47.26,90.48-96.48,133.84-37.33,34.99-34.83,47.71-11.51,90.96,11.12,23.22,22.05,46.57,33.9,69.4,18.4,29.56,44.57,55.96,46.91,92.54,10.71,86.64-50.64,160.37-110.11,215.59-14.13,12.7-30.83,21.42-48.11,28.99-24.22,14.61-50.2,25.19-77.2,31.6-4.93,.23-9.86,.3-14.78,.56-7.13,.39-14.27,1.09-21.39,1.84-2.07,.14-4.14,.23-6.23,.26-4.91-.34-9.81-.83-14.72-1.15Z"/>
    <path class="cls-3" d="M255.51,800.06c-5.62-2.09-11.31-4.25-17.1-6.01,2.08-.23,4.2-.34,6.34-.34,10.92,0,22.01,5.91,29.19,13.87,.06,.07,.12,.13,.17,.2-6.21-2.53-12.31-5.37-18.61-7.71Z"/>
  </g>
  <g id="Vektorebene-2" data-name="Vektorebene">
    <path d="M255.68,357.95c-1.53-.22-3.04-.56-4.56-.88-.99-.22-1.72-1.03-1.9-1.98-.62,.93-1.87,1.43-2.96,.99-10.81-3.3-15-14.92-19.82-24.06-1.51-8.09-4.76-15.66-7.88-23.17-2.97-8.91-5.43-18.01-8.69-26.82-4.06-24.13-16.23-53.05,2.76-73.89,5.05-6.74,5.21-15.36,7.63-23.12,4.71-20.81,8.75-42.12,20.9-60.12,6.62-12.3,12.49-24.22,27.99-25.87,3.67-.58,7.99-.34,10.88,2.25,2.36,2.01,3.8,4.83,6.63,6.17,11.66,3.02,30.58-4.01,35.39,11.57,1.09,3.51,1.54,8.21,6.14,8.54,2.33,.25,5.08,0,6.73,2.01,4.95,5.49,1.7,16.5,9.41,19.41,2.99,.34,6.54-.74,8.95,1.61,2.11,2.05,2.88,4.99,3.31,7.81,.51,2.42,.01,5.91,2.88,6.93,3.8,1.34,8.95,.68,10.81,5.07,2.78,5.04,1.33,11.97,6.14,15.93,3.28,2.35,7.63,3.6,9.28,7.65,2.34,5.33,.76,11.46,1.5,16.91,.84,2.64,3.47,4.41,3.68,7.35,.4,7.32-2.6,14.54-3.38,21.79-1.03,5.66-1.27,11.59-1.32,17.16,.57,12.31,.44,25.09-4.85,36.5-5.79,10.18-12.61,20.86-22.62,27.33-19.85,15.52-43.49,27.26-68.13,30.84-6.14,2.26-12.22,4.32-18.84,4.47-5.32,.8-10.61,2.44-16.06,1.62Zm-7.68-6.54c.82,.34,1.41,1.06,1.57,1.89,.55-.85,1.6-1.31,2.63-1.09,3.14,.77,6.33,1.22,9.49,.84,7.72-1.84,15.91-1.43,23.14-4.47,9.21-3.32,19.15-3.83,28.29-7.32,18.3-6.95,34-16.98,49.13-29.23,5.32-6.05,10.27-12.66,14.23-19.62,4.39-9.56,5.59-20.46,4.79-30.76-.22-8.2,.17-16.33,1.67-24.38,.38-6.35,4.57-14.11,2.3-20.04-6.66-6.2,.18-17-5.63-23.15-5.43-2.75-10.6-6.61-11.62-13.04-1-3.03-.45-7.48-3.27-9.45-4.29-.86-9.62-1.26-11.68-5.81-1.62-3.56-.68-7.95-2.91-11.29-.61-.74-1.7-.37-2.54-.45-3.71,.27-7.79-.41-9.97-3.76-4.39-4.89-3.23-12.16-6.49-17.44-2.39-.25-4.87-.28-7.08-1.39-8.52-3.75-3.85-16.55-14.93-17.73-9.31-1.94-20.46,2.64-28.12-4.21-2.19-1.82-3.6-5.12-6.64-5.57-5.23-.63-10.76,1.39-15.34,3.77-4.45,3.79-7.69,8.68-10.2,13.84-7.07,11.8-13.58,23.59-17.31,36.87,.02-.06,.03-.12,.05-.18,.02-.05,.04-.11,.05-.17-4.63,16.74-6.24,34.7-13.3,50.62-7.6,8.73-11.47,18.53-11.25,30.1,.8,14.49,5.55,28.29,7.79,42.59,4.38,11.21,6.86,23.06,11.72,34.05,3.04,5.23,3.09,11.56,5.49,16.93,4.36,7.03,7.16,16.53,15.96,19.03Z"/>
    <path d="M182.62,262.78c-7.46-3.08,.31-13.95,2.11-18.7,2.84-7.85-.31-16.17,1.44-24.16,1.9-4.34,3.78-8.62,4.77-13.28,1.11-3.59,2.86-6.87,2.42-10.66-1.43-7.24-8.62-15.54-2.56-22.5,1.77-2.22,5.01-2.39,6.81-4.46,.65-2.78-.04-5.69,.09-8.51-.04-4.48,2.34-8.37,4.87-11.83,2.15-2.8,5.57-5.18,6.75-8.56,4.33-10.34,3.67-24.94,16.06-29.53,2.7-1.64,5.06-3,6.73-5.51,4.08-9.83,3.69-19.3,16.91-20.53,1.58-.54,3.75-.88,4.53-2.54,.29-1.46,.36-2.97,.66-4.42,2.34-12.34,16.11-19.75,27.94-18.5,3.79,.4,7.08-1.45,9.17-4.54,3.9-5.39,9.27-9.38,14.97-12.68,8.35-4.64,18.55-2.69,27.45-.99,1.94,.23,4.96,.33,4.78,3.04-.54,3.58-4.69,1.86-7.08,1.59-13.94-3.76-25.7-.83-34.93,10.51-2.42,2.99-4.83,6.28-8.68,7.38-4.13,1.34-8.49,.01-12.65,.88-4.98,1.31-9.67,3.5-12.84,7.42-2.08,2.55-3.04,5.14-3.48,8.16,.43,7.74-7.65,9.61-13.69,10.61-6.13,2.93-5.5,11.1-8.34,16.37-2.77,5.54-9.12,7.59-13.8,10.94-2.14,2.07-3.61,5.36-4.45,8.06-2.02,6.93-2.77,14.53-7.13,20.54-3.46,3.8-7.57,7.51-8.7,12.73-.12,7.58,1.97,13.95-7.09,16.87-6.72,5.14,3.9,14.7,2.73,21.51-.41,6.06-3.29,11.61-4.62,17.49-2.81,4.98-3.81,10.37-3,15.97,1.53-.68,3.38-.68,4.58-1.98,1.75-1.73,2.06-4.34,3.33-6.4,1.48-2.84,5.94-.5,4.4,2.33-1.67,3.19-2.44,6.75-5.61,8.75-1.61,1.21-3.68,1.32-5.44,2.18-1.72,1.18-.66,3.84-1.29,5.61-.92,4.06-2.57,7.94-3.88,11.88-1.22,3.03,.22,9.17-4.23,9.47Z"/>
    <path d="M122.31,573.48c-1.4-5.48-3.78-10.87-3.88-16.63,.42-6.5,6.01-11.23,6.98-17.58,.73-5.07-1.12-9.67-.02-14.64,1.66-6.25,2.57-12.99,6.02-18.57,1.89-3.34,4.96-5.89,6.96-8.97,2.16-3.64,2.46-7.68,3.47-11.65,1.82-8.55,7.89-15.23,12.38-22.36,1.31-3.93,.52-8.26,2.05-12.18,1.77-6.13,5.87-11.13,10.72-15.14,3.64-3.33,5.16-8.28,5.66-12.93-.5-5.62-3.28-11.02-2.22-16.77,.56-6.93,7.79-9.16,11.77-13.6,.89-2.61-.78-5.59-1.44-8.16-2.71-5.93-4.49-13.12-2.04-19.43,1.75-2.91,4.49-5.03,5.13-8.48-.12-3.29-3.58-5.67-3.72-9.15-.36-5.46-1.26-11.14-.08-16.53,.79-4.47,2.96-8.8,4.32-12.97,1.65-4.2,.39-8.49-.67-12.66-1.64-7.02,1.35-14.1,4.74-20.02,1.5-3.85,3.17-8.12,6.06-10.98,1.84-2.48,3.82-4.93,4.93-7.79-.18-3.77-.96-7.52-.87-11.34-.15-3.14,4.77-3.58,4.97-.26-.3,5.94,2.76,12.44-1.63,17.51-1.83,3.08-4.1,5.49-6.08,8.22-1.72,3.26-2.6,6.81-4.5,9.97-4.61,6.52-2.76,14.07-1.15,21.18,.56,6.76-3.61,12.55-4.92,18.93-1.11,3.22-.82,6.3-.61,9.56-.31,4.85,.92,9.09,3.68,13.03,2.14,5.45-2.5,10.32-5.32,14.35-1.97,7.43,2.56,13.8,4.04,20.78,3.31,9.46-8.86,10.76-11.47,17.55-1.52,5.81,1.9,11.27,2.05,16.9-.23,4.94-1.92,9.97-4.76,14.02-3.78,4.45-8.93,7.76-11.06,13.49-2.53,5.1-.89,11.13-3.63,16.11-4.83,7.16-10.63,13.81-11.99,22.58,4.95-9.84,10.83-23.6,24.3-21.02,2.5,.27,4.99,1.46,7.54,1.2,4.2-.84,8.5-1.42,11.73-4.29,7.04-8.71,14.65-17.83,26.28-19.74,5.55-4,7.82-10.91,12.6-15.71,2.8-4.15,7.86-5.05,11.75-7.74,4.14-2.83,6.11-7.69,9.97-10.8,5-4.67,7.09-11.2,8.22-17.74,1.62-8.4,4.16-16.65,5.48-25.11,.45-2.16,.46-4.41,.26-6.64-.2-3.16,4.87-3.49,4.97-.25,.57,7.84-1.91,15.59-3.66,23.18-2.39,8.11-2.41,17.34-7.3,24.45-4.13,5.58-8.89,10.81-13.65,15.87-3.05,2.93-7.41,3.73-10.69,6.26-7.62,7.57-10.7,19.9-22.99,20.81-7.98,3.7-12.56,11.26-18.43,17.31-4.13,3.38-9.69,4.43-14.85,5.15-5.75-.16-11.7-3.45-16.85,.73-1.61,1.18-2.91,2.72-3.94,4.42-8.54,14.86-15.4,30.5-20,47.03-3.89,14.74-11,29.41-9.98,44.85,1.49,3.22-3.07,6.03-4.64,2.36Zm7.83-42.23c2.82-9.04,5.71-18.08,8.86-27.01-4.42,4.44-6,10.02-7.37,15.8-1.1,3.78-1.97,7.34-1.49,11.21Z"/>
    <path d="M263.84,428.23c-4.33-.93-1.14-7.12-1.68-10.19-1.1-17.21-3.08-34.61-.52-51.77,.36-3.37,.31-6.17,.08-9.36-.09-1.36,1.02-2.54,2.36-2.62,1.37-.06,2.51,1.01,2.6,2.37,.68,6.56-.75,13-.93,19.55-1.43,12.38,.84,24.56,.86,36.96,.93,4.24,.29,8.52-.09,12.78-.11,1.35-1.34,2.39-2.68,2.27Z"/>
    <path d="M204.97,544.48c-12.34-2.24-6.25-36.1-6.65-45.56,.14-13.04,2.53-25.97,1.55-38.92-.19-1.33,.62-2.64,1.99-2.89,6.3-.94,2.01,19.41,2.47,23.67-.75,12.33-1.46,24.3-1.94,36.58-.14,7.43-.86,14.97,2.41,21.88,4.01,1.27,8.02-2.37,12.04-2.87,12.18-1.29,22.18-8.89,32.14-15.42,12.04-7.97,24.98-14.94,33.81-26.65,.92-.98,2.51-1.05,3.51-.13,.98,.92,1.06,2.52,.13,3.52-3.9,4.42-7.8,8.87-12.43,12.57-10.47,7.63-21.71,14.29-32.5,21.51-7.25,4.62-14.91,8.56-23.57,9.45-4.36,.9-8.38,3.87-12.95,3.27Z"/>
    <path d="M297.02,593.89c-1.06-.75-1.44-2.41-.58-3.47,2.76-3.42,5.19-9.21,10.54-8.44,2.26,.19,4.12,1.71,6.36,2.05,3.91,.01,6.18-4.05,8.09-6.88,6.12-5.95,1.73-18.37,10.72-21.53,1-.31,.98-1.88,1-2.55-.73-8,4.79-15.07,9.01-21.43,2.49-3,5.92-5.35,7.54-9.02,2.15-5.36,1.84-11.22,3.94-16.59,.77-2.04,2.26-4.18,4.56-4.57,.94-.14,1.91-.11,2.82-.44,4.76-2.72,8.19-7.31,12.46-10.58,1.56-1.17,3.7-2.1,4.33-4.08,2.03-5.4,4.8-10.65,9.04-14.64,2.24-2.21,4.87-3.95,6.56-6.53,2.18-4.8,3.73-10,8.07-13.42,5.13-4.73,11.97-7.9,16.2-13.49,1.05-4.03-.1-8.23,.96-12.29,1.88-5.46,4.54-9.99,5.2-15.73,2.68-7.55-.57-15.16,2.73-21.77,2.42-3.96,6.15-6.94,9.01-10.53,.05-5.73-3.7-10.67-4-16.37-.27-6.12,5.81-10.15,7.77-15.64,.98-1.97,1.48-4.62-.13-6.36-6.49-7.1,1.31-14.76,5.44-20.73,5.76-8.13,1.72-9.04-.5-16.99-2.14-10.63-3.03-18.68,6.52-25.76,1.67-2.52,3.45-5.37,3.45-8.39-3.81-8.88-2.05-19.33,5.66-25.43,1.52-5.5-1.77-10.73-3.6-15.73-3.47-9.97,10.32-15.77,9.57-25.77,.07-1.78-.33-3.05-1.49-4.3-11.27-8.36-4.66-12.14-3.74-22.83,.53-4.46-2.28-8.15-2.7-12.47-1.08-6.51,2.9-13.7-.74-19.71-1.44-1.66-3.59-1.98-5.32-3.22-7.65-4.02-1.75-13.99-6.71-19.66-4.19-6.23-10.62-9.33-17.06-12.58-12.15-5.42-5.45-19.72-6.37-29.77-3.77-19.08-18.94,4.34-27.54-5.62-4.49-4.16-7.99-9.25-12.79-13.08-2.79-3.09-5.15-6.68-9.28-8.12-9.3-4.26-20.7-3.94-29.59,1.07-3.06,1.93-4.4,5.46-7.31,7.58-2.46,2.11-5.65-1.74-3.19-3.82,1.86-1.45,3.01-3.37,4.44-5.17,9.12-8.51,23.58-9.21,34.97-5.33,5.42,1.75,9.8,5.29,13.06,9.86,1.8,1.92,4.08,3.3,5.69,5.41,3.74,3.3,7.28,11.69,13.07,8.37,3.26-1.42,6.48-3.08,9.96-3.93,9.22-1.39,14.66,8.77,13.53,16.87,.06,5.77-2.19,11.7-.56,17.37,2.72,4.55,8.71,5.74,12.96,8.47,4.56,2.75,8.35,6.86,11.21,11.33,1.84,3.08,2.18,6.74,2.12,10.25,.1,1.88-.57,4.39,1.22,5.68,15.75,7.16,7.48,16.36,9.49,29.13,1.76,4.3,2.97,8.74,2.19,13.42-.22,3.8-2.37,7.27-2.64,11.01,.48,3.36,4.77,4.58,6.32,7.43,3.72,5.98,.96,13.78-2.67,19.16-2.18,3.93-7.81,7.82-4.93,12.69,10.98,23.99-4.61,16.38-4.29,33.07,.28,2.65,1.34,5.12,1.97,7.69,.43,2.27-.67,5.07-1.53,6.95-1.62,5.88-8.51,8.19-9.75,14.14-.85,23.49,14.1,18.1-4.86,41.51-.76,1.44-1.44,3.18-1.11,4.82,1,2,2.74,3.55,3.21,5.82,1.49,7.8-5.63,13.57-8.47,20.03-.02,5.73,3.88,10.71,3.99,16.48,.23,7.07-9.17,9.78-10.5,16.4,.49,8.81-.67,17.56-3.3,26.01-2.34,5.12-4.36,9.55-3.66,15.23,.53,13.39-17.5,15.68-22.48,26.37-1.8,8.96-10.43,12.97-14.89,20.25-2.31,3.48-2.65,7.31-5.34,10.39-1.8,1.77-4.21,2.83-5.96,4.69-4.7,3.86-8.68,9.96-15.27,10.17-3.19,5.28-2.26,12.15-4.68,17.77-2.08,5.47-7.5,8.6-10.48,13.44-1.99,4.14-5.45,8.07-5.9,12.7,.22,3.63,.12,8.08-3.73,9.82-.8,.51-2.03,.55-2.41,1.53-1.51,3.85-1.52,8.09-2.86,12-2.36,5.21-5.61,10.53-10.36,13.89-2.08,1.42-4.66,1.77-7.1,1.24-2.17-.22-4.01-2.24-6.21-1.68,0,0,0-.01,0-.01-2.97,1.7-4.15,8.91-8.42,6.85Z"/>
    <path d="M261.03,631.7c-2.95,.08-6.15-1.46-8.58-2.65-6.12-2.55-12.28-5.22-16.3-10.63-1.08-1.56-1.71-3.4-2.65-5.04-1.07-1.2-2.06-2.79-1.35-4.43,1.99-3.18,6.03-4.25,8.96-6.37,4.1-4.58,8.08-9.9,10.99-15.31,7.81-15.03-5.23-50.35,19.7-49.72,18.72-2.15,15.49-18.63,14.61-32.42,.09-2.22,.38-4.52,1.36-6.54,1.26-2.61,4.27-3.38,6.5-4.89-.02,.02-.03,.04-.05,.06,0,0-.02,.01-.09,.11,.03-.04,.06-.07,.09-.11,.01,0,.03-.02,0,0,.4-.41,.54-1.47,.51-1.87-.16-5.1-3.37-9.54-5.37-13.94-4.94-10.19,.33-20.47,5.28-29.51,.85-1.89,3.4-4.55,1.61-6.5-4.27-4.4-8.25-9.15-11.7-14.22-1.23-2.28-.99-5.12-.61-7.59,.95-4.95,1.74-10.43,5.43-14.16,10.12-9.19,23.07-15.64,30.99-27.07,4.4-7.86,6.79-16.15,11.15-23.92,3.61-6.65,12.98-7.24,15.27-15.03,1.36-2.51,5.33-6.73,7.91-3.65,.69,1.09,.41,2.77-.76,3.43-3.5,1.65-3.79,6.14-6.6,8.58-2.59,3.01-6.28,4.43-9.38,6.56-5.15,5.61-6.69,13.77-10.18,20.22-4.88,12.33-16.5,20.51-26.89,28.07-3.57,2.29-6.79,4.6-9.22,7.93-1.96,4.12-3.02,8.93-2.96,13.43,2.28,4.68,6.67,8.98,10,12.82,1.23,1.22,2.59,2.48,2.99,4.24,.68,3.14-.79,6.15-2.4,8.74-2.96,5.79-6.06,11.08-7.11,17.4-.08,8.54,6.88,14.81,7.5,23.18,.26,2.34-.34,5.07-2.23,6.64-1.69,1.67-4.78,1.75-5.54,4.1-1.5,7.84,1.4,15.94-.12,23.86-2.45,14.2-14.14,16.4-26.21,18.07-3.96,2.1-3.83,7.31-4.76,11.09-1.39,13.49,1.09,28.35-7.21,40-2.67,3.25-4.75,6.4-7.17,9.75-2.34,2.87-5.99,4.02-8.89,6.16,1.93,4.09,4.28,7.78,8.41,9.95,4.89,2.43,9.49,5.05,14.69,6.25,9.2,.18,14.37-9.37,23.16-10.94,3.78-.95,7.21,1.13,10.15,3.25,3.56,1.99,7.51,3.41,11.37,4.62,0,0,0,.04,0,.04,3.1-.6,4.96-3.93,7-6.05,1.6-2.11,3.73-3.93,4.66-6.46,.24-4.8,1.56-9.9,1.77-14.6-.69-8.35,2.56-16.1,5.2-23.85,1.38-4.68,1.09-9.66,2.97-14.21,1.06-2.99,5.81-1.3,4.66,1.73-1.22,3.03-1.44,6.21-1.85,9.39-1.08,6.57-4.34,12.93-5.72,19.33-.58,3.68-.08,7.22-.49,10.89-.5,3.81-1.41,7.49-1.48,11.35-1.75,6.53-7.48,11.76-12.43,16.13-4.43,3.12-9.39-.49-13.8-1.83-4.28-1.15-7.79-6.57-12.5-4.4-7.9,2.96-13.44,11.24-22.62,10.56,0,0,.32,0,.32,0Z"/>
    <path d="M261.13,541.25c-.43-1.35,.35-2.64,1.62-3.12,7.77-1.76,12.54-8.61,15.19-15.58,1.2-6.36,1.99-12.94,1.98-19.44-.06-6.66,1.71-10.39,2.83-16.33,.68-6.9-3.18-13.52-3.88-20.02-2.09-13.6,.62-27.37,7.87-39.05,2.68-6.85,11.02-8.67,14.12-15.31,3.78-6.6,6.71-13.98,9.01-21.15,2.58-8.66,4.37-18.4,11.95-24.19,8.37-9.8,19.7-16.4,27.83-26.31,5.47-8.01,10.02-16.2,15.29-24.21,1.04-3.56,6.71-11.05,10.15-7.24,.7,1.1,.41,2.76-.76,3.43-4.2,1.75-4.56,6.42-6.99,9.68-5.97,7.35-9.25,16.53-15.59,23.5-5.56,5.43-10.66,11.11-17.04,15.36-4.34,3.04-7.3,7.67-11.27,11.08-4.49,3.94-5.76,10.36-7.52,15.67-2.64,9.65-6.17,19.3-11.39,27.86-3.89,7.32-12.03,8.57-14.63,16.66-6.22,9.81-7.59,21.72-6.16,33.07,1.09,7.92,5.37,15.37,3.74,23.57-5.09,13.69,.11,29.85-8.58,42.34-2.59,4.54-6.44,8.63-11.59,10.15-2.02,.82-5.09,2.49-6.16-.44Z"/>
    <path d="M519.37,514.37c-3.03-1.58-4.8-5.15-6.15-7.98-2.76-4.48-5.06-9.2-7.25-13.96-6.55-7.3-15.7-13.85-17.72-24.05-1.06-3.68-1.26-7.07-2.75-10.37-2.14-3.13-4.85-6.17-8.02-8.15-5.83-3.54-12.83-4.45-17.71-9.32-3.08-3.59-2.71-8.67-4.16-12.93-1.76-3.91-3.85-7.36-6.54-10.36-5.46-3.9-11.92-6.1-17.56-9.69-1.8-1.24-5.42-1.2-4.84-4.22,1.59-4.28,6.83-.28,9.3,1.16,2.57,1.41,5.32,2.49,7.84,4,7.74,2.98,13.01,9.16,16.17,16.69,2.19,4.25,.69,10.71,5.23,13.48,13.87,6.08,25.75,10.53,27.61,27.54,1.8,9.53,9.87,15.61,16.34,22.1,2.3,2.96,3.46,7.23,5.29,10.31,2.52,3.54,3.75,8.44,7.05,11.24,3.94-1.57,3.64-10.95,2.14-14.21-2.2-7.06-7.23-11.45-12.63-15.94-7.59-12.35,3.29-27.25-1.66-40.36-1.51-3.53-4.11-6.94-7.63-8.61-2.87-1.18-6-1.72-8.69-3.36-13.29-8.89-5.52-26.67-9.75-39.31-1.67-3.57-4.49-6.67-8.09-8.21-3.15-.86-6.55-1.02-9.56-2.49-4.52-2.15-6.31-7.29-8.34-11.5-2.94-5.97-6.54-11.67-8.61-18.02-1.38-4.29-2.57-8.08-2.37-12.51,.27-3.04,1.31-6.04,1.63-9.02,.35-3.15,5.19-2.89,4.96,.41-.13,.74-.21,1.41-.33,2.1-2.87,8.64,.07,17.44,4.2,25.17,3.51,5.94,5.53,13,10.02,18.23,3.62,2.54,8.57,1.64,12.33,3.98,2.89,1.71,5.27,4.28,7.2,7.01,8.3,11.89-3.07,31.05,9.91,40.24,17.88,4.24,21.79,18.66,18.25,35.05-.57,5.92-2.83,12.72,.49,18.16,9.3,6.65,16.9,18.03,14.1,29.87-.52,4.52-4.71,9.98-9.7,7.82Z"/>
    <path d="M406.5,457.18c-1.97-2.66,1.72-4.56,3.28-6.27,3.06-3.02,7.34-3.86,10.7-6.22,6.53-2.9,12.96-7.32,20.37-6.99,6.8-.82,13.74-1.78,19.94,2.01,1.89,1.95,6.66,1.69,6.14,5.14-.28,1.29-1.64,2.2-2.97,1.88-5.09-1.53-9.51-5.8-15.19-4.91-3.98,.87-8.05,.58-12.04,1.18-7.62,2.41-14.54,6.78-21.71,10.11-2.82,1.17-5.21,7.13-8.52,4.07Z"/>
    <path d="M534.25,628.22c-4.2-.92-1.4-6.42-1.25-9.28,.63-6.7,2.03-13.44,1.32-20.15-2.01-20.47-4.66-40.64-10.12-60.5-1.47-7.33-.98-15.08-4.31-21.97-1.37-2.88,3.18-5.06,4.51-2.11,2.81,6.03,3.46,12.46,4.01,18.96,3.34,17.65,8.64,34.8,9.38,52.84,1.5,10,2.31,19.94,.61,29.99-.28,2.88-.87,5.66-1.32,8.36,.04,1.81-.57,4.08-2.83,3.88Z"/>
    <path d="M117.9,617.05c.94-14.58-1.33-29.43,2.46-43.8,.97-2.51,.14-7.81,4.08-7.33,3.71,1.23,.93,5.95,.73,8.65-2.86,11.86-2.28,23.93-1.86,35.96,.04,2.11-.45,4.18-.44,6.27,.16,1.35-1.06,2.55-2.36,2.62-1.39,.07-2.47-1.02-2.6-2.36Z"/>
    <path d="M214.74,474.06c-3.75-1.82-.25-6.94,.26-9.79,2.08-5.07,2.79-9.94,4.29-15.09-1.82,1.17-5.09,2.53-6.1-.28-.4-1.27,.31-2.74,1.61-3.13,3.78-.95,5.66-5.06,9.23-6.19,6.48-7.78,13.03-15.68,18.53-24.15,1.5-2.84,5.95-.5,4.39,2.33-3.4,5.94-8.2,10.78-11.89,16.5-3.83,4.75-8.63,8.81-10.11,14.97-1.34,7.76-1.82,16.02-6.51,22.67-.61,1.4-1.99,2.82-3.69,2.16Z"/>
    <path d="M267.82,210.06c.49-.27,.97-.57,1.46-.84-.6,.35-1.18,.7-1.75,1.07,.09-.08,.19-.16,.28-.23Z"/>
    <path d="M330.59,225.44c-6.41-.41-13.03-6.72-8.14-12.9-3.72,.19-7.68,.42-10.86,2.55-2.09,2.04-8.77,6.06-10.5,2.1-.4-1.24,.3-2.77,1.61-3.12,4.11-.44,6.41-4.16,10.33-5.11,9.5-2.79,19.74-1.49,28.84,2.14,1.67,.56,3.44,1.17,4.64,2.55,1.7,1.79-.12,4.9-2.52,4.22-1.69-.53-3.23-1.5-4.84-2.25,2.33,5.44-3.17,10.51-8.55,9.82Zm.71-4.94c2.57,.17,4.82-2.39,2.17-4.22-.73-.57-2.3-1.49-2.88-.31,1.23,.46,1.82,1.97,1.37,3.16-.23,.62-.67,1.07-1.2,1.33,.18,.02,.36,.03,.53,.04Z"/>
    <path d="M248.15,211.17c-2.98-1.8-4.54-5.66-2.6-8.78-5.31-.85-10.24,1.88-15.53,1.22-3.21-.21-2.79-5.22,.41-4.96,1.42,0,3.04,.17,4.39-.12,6.28-1.71,13.36-1.63,19.58-.39,2.71,1.52,4.48,4.67,5.49,7.52,.93,6.1-7.45,8.75-11.74,5.5Zm4.41-3.58c-.29-.91-.03-1.94,.69-2.6-1.61-2.22-2.75-2.06-3.61,.55,.42,1.16,1.71,1.9,2.91,2.04,0,0,0,0,.01,0Z"/>
    <path d="M255.77,207.1c-2.1-1.6-4.1-3.34-6.4-4.66-1.14-.73-1.33-2.41-.58-3.47,3.07-3.28,7.61,2.95,10.36,4.48,2.39,2.16-1.02,5.85-3.38,3.65Z"/>
    <path d="M290.48,202.59c-.47-1.16-1.14-2.23-1.97-3.19,.02-.06,.04-.12,.06-.18-2.94-5.79,16.38-10.41,20.48-10.5,7.2-1.79,14.48-2.99,21.9-1.62,3.56,1.13,7.41,2.74,10.2,5.24,3.86,5.17-2.33,8.97-7.24,7.47-12.95-1.29-30.82-8.23-41.21,2.01-.49,.53-1.17,.8-1.84,.8-.13,0-.26-.01-.38-.03Zm41.35-8.21c.85,.17,1.71,.35,2.56,.49,.79,.12,1.58,.18,2.38,.21-1.11-.63-2.36-.98-3.44-1.63-.43,.43-.95,.71-1.5,.93Z"/>
    <path d="M257.9,191.58c-8.77-4.58-18.49-4.19-27.95-5.88-6.35-.23-5.47-7.71-.79-9.88,3.74-1.79,8.36-.26,11.85,.96,7.99,2.14,16.34,5.25,22.83,10.48,2.42,1.66,.18,5.54-2.46,4.29-.99,.81-2.39,.59-3.47,.03Zm-24.2-10.33c1.21-.32,2.41-.4,3.67-.37,.05,0,.1,0,.16,0-2.19-.61-4.95-1.75-6.8-.07,.99,.14,1.98,.29,2.97,.44Z"/>
    <path d="M251.03,297.24c.21,0,.42,.02,.63,.02,.67,.26,1.37,.48,2.07,.65,.35,.45,.72,.88,1.11,1.29-1.34-.55-2.62-1.19-3.81-1.96Z"/>
    <path d="M271.83,288.92c-4.91-1.12-34.53,.14-32.15-6.85,1.46-3.31,4.81-.37,7.25-.23,14.45,2.14,28.81,1.84,43.27,1.68,4.72-.57,9.44,.37,14.04,.04,4.55-.16,8.6-.76,13.06-1.11,3.11-.4,11.47-4.26,12.58,0,.25,1.29-.66,2.69-1.99,2.9-3.85,.42-7.52,1.53-11.3,2.24-14.89,1.69-29.81,.25-44.75,1.33Z"/>
    <path d="M255.42,312.03c-4.43-5.2-7.36-13.14-6.07-19.95,.26-3.21,5.26-2.79,4.95,.41-1.13,5.14,1.35,12.21,4.72,16.07,7-2.69,17.62-1.38,25.45-3.62,5-2.57,11.03-2.72,15-5.6,4.01-2.5,7.96-4.49,10.68-8.36,2.54-2.31,5.28-4.36,6.91-7.47,1.82-2.63,5.94,.25,4.05,2.89-1.7,3.17-4.37,5.5-7.11,7.76-3.66,5.04-9.26,7.62-14.29,11.01-8.64,2.34-17.2,6.7-26.34,6.07-3.75,1.2-7.76,.32-11.45,1.55-2.15,1.12-4.72,1.08-6.5-.74Z"/>
    <path d="M249.83,292.64c-.52-2.42-1.17-7.12,2.65-6.59,2.67,.62,1.67,3.71,2.24,5.7,.59,3.16-4.35,4.06-4.89,.89Z"/>
    <path d="M422.83,370.32c-.06-1.31,1.01-2.62,2.36-2.62s2.54,.96,2.62,2.36c.06,1.31-1.01,2.62-2.36,2.62s-2.54-.96-2.62-2.36Z"/>
    <path d="M269.25,263.59c-9.88,.12-13.72-6.33-12.52-15.52,.16-3.73,3.3-5.89,5.17-8.73,6.43-8.92,7.14-20.15,7.61-30.74,.57-2.72-1.99-7.32,1.68-8.34,5.18-.4,2.93,10.63,2.94,13.92-.45,6.97-1.2,13.91-3.94,20.43-1.59,3.6-3.7,7.11-6.18,10.18-2.26,1.56-2.67,4.57-2.42,6.98-.41,5.26,3.43,6.97,8.05,6.86,3.21,.22,2.81,5.23-.4,4.96Z"/>
    <path d="M334.71,294.73c-1.39-.12-2.34-1.33-2.28-2.68-.69-6.25-2.92-13.24-7.11-18.03-.82-.69-1.89-1.25-2.9-.61-1.26,.49-2.73-.39-3.12-1.62-.62-5.33,7.55-3.98,9.78-1.09,3.16,2.42,13.04,23.95,5.63,24.02Z"/>
    <path d="M410.64,358.58c-.06-1.31,1.01-2.62,2.36-2.62s2.54,.96,2.62,2.36c.06,1.31-1.01,2.62-2.36,2.62s-2.54-.96-2.62-2.36Z"/>
    <path d="M405.6,361.35c-.06-1.31,1.01-2.62,2.36-2.62s2.54,.96,2.62,2.36c.06,1.31-1.01,2.62-2.36,2.62s-2.54-.96-2.62-2.36Z"/>
    <path d="M252.42,213.33c-5.21-.56-7.84-7.58-3.76-11.14-4.82-1.17-9.55-.02-14.38,.27-2.38,.47-6.09,3.09-7.42-.24-1.43-5.44,14.03-5.14,17.61-5.61,6.22,.74,16.36,1.5,18.67,8.46,1.01,5.54-5.77,9.7-10.72,8.26Zm-.79-6.35c.13-.46,.39-.88,.75-1.2,0,0,0,0,0,0-.07,0-.15-.01-.22-.02-.34,.3-.66,.75-.52,1.22Z"/>
    <path d="M328.51,222.56c-3.63-2.73-1.05-8.1,2.65-9.32,3.13-.97,8.89-1.56,10.77,1.67,3.31,3.01,.44,6.15-2.98,7.07-3.26,1.25-7.32,3.11-10.44,.58Z"/>
    <path d="M287.31,260.41c-1.87-.13-3.13-1.65-4.8-2.22-2.77-.68-6.84,3.17-8.39-.59-1.19-4.21,8.05-5.04,10.66-3.91,1.9,1.01,3.7,2.55,5.99,1.88,3.05-1.03,4.59,3.78,1.52,4.73-1.6,.54-3.34,.4-4.97,.12Z"/>
    <path d="M339.07,445.71c-9.99-13.73-.69-37.82,6.27-51.42,2.9-8.93,6.68-17.85,13.08-24.87,9.58-10.72,16.93-4.05,17.29,8.31,2.59-4.8,5.68-9.87,6.29-15.35-.05-1.36,.95-2.56,2.32-2.64,7.61,.83-3.31,18.5-5.26,22.09,3.65,.65,3.25,4.89,1.6,7.33-2.69,4.75-4.94,9.73-7.14,14.7-6.29,12.82-12.78,56.49-34.44,41.86Zm13.19-4.74c.61-.64,1.19-1.29,1.73-1.99,.37-.49,.72-.99,1.06-1.5-.12-.2-.22-.42-.3-.65-.72,1.46-1.53,2.87-2.5,4.15Zm-7.43-.34c.75-.16,1.31-.47,1.7-.79,.98-.76,1.72-1.77,2.39-2.79-1.64,.48-3.48,.37-4.95-.52,.07,1.04-.45,4.39,1.17,4.01-.1,.03-.21,.06-.31,.09Zm2.04-8.27c4.55-1.07,7.19-5.43,8.28-9.7,2.55-7.84,5.68-15.46,8.31-23.27-5.48,6.48-22.58,24.71-16.59,32.97Zm-6.83-5.96c-.05,.79-.08,1.58-.1,2.36,.79-2.73,.75-5.53,.91-8.35-.39,1.97-.69,3.98-.81,5.99Zm6.39-13.2c3.77-6.23,8.45-11.82,13.36-17.17,3.5-4.59,9.08-8.34,8.82-14.65-14.36,3.22-21.78,18.12-22.18,31.83Zm9.51-31.61c-.16,.28-.31,.57-.46,.86,4.28-2.99,9.63-7.04,15.12-5.71-.68-2.41-.33-8.54-4.14-7.5,.1-.03,.21-.05,.31-.08-.12,.04-.24,.08-.36,.12-.31,.13-.61,.28-.61,.29-4.37,2.95-7.32,7.5-9.87,12.02Z"/>
    <path d="M341.36,501.89c-30.56-2.52-41.5-24.7-47.46-51.53-3.69-16.58,4.4-32.95,10.66-47.91,6.53-12.7,15.16-23.94,25.04-33.89,3.48-3.32,7.53-5.87,11.67-8.24,7.2-8.24,12.68-15.44,17.42-23.51,17.77-48.58,89.26-28.92,79.77,21.63-6.28,23.39-22.92,42.44-38.54,60.34,9.27,38.39-14.64,86.24-58.57,83.1Z"/>
    <path d="M396.69,355.54c-21.8-5.43-11.38-28.78-9.26-43.92,3.84-20.16,7.64-40.49,11.19-60.9,2.83-15.11-1.48-30.2-3.58-45.15-.91-5.29,.57-10.55,3.73-14.46,.49-15.52-3.54-42.01,12.64-50.4,14.88-6.71,27.29,7.06,26.18,21.65,.49,13.24-.85,26.03,2.01,38.88-.55,12.42-2.81,24.87-2.64,37.29-.77,12.39,6.56,27.37-3.25,37.48-.07,20.19-10.35,38.22-12.5,57.99-.02,0-.04-.01-.06-.02-3.25,11.26-10.61,24.5-24.46,21.56Z"/>
    <path d="M192.17,177.24c1.74-15.46,7.22-30.51,16.48-43.11,6.22-10.39,12.54-21.19,21.26-29.7,6.75-10.63,13.22-24.13,26.47-27.78,9.91-14.64,17.04-22.1,36.04-22.71,17.37-26.15,59.86-15.3,52.94,18.06,6.18,6.45,5.14,15.62,6.37,23.76,4.16,8.57,.67,19.18-7.96,23.38-8.47,4.15-19.24,.52-23.29-8.06-12.35,.8-22.04-11.5-20.03-23.35-1.97,.46-3.98,.78-6.07,1.02-1.43,.17-2.85,.31-4.28,.47-3,4.97-5.68,9.88-10.47,13.56-3.83,4.03-10.05,4.66-13.33,8.95-2.65,3.15-3.95,7.06-6.06,10.56-2.72,4.77-7.71,7.68-10.68,12.27-8.96,14.28-19.48,27.56-22.95,44.41-2.72,20.03-33.68,18.42-34.43-1.72Z"/>
    <path d="M261.55,612.87c-13.23-10.18-5.61-21.18-1.02-33.23-.31-13.95,4.25-36.25,22.18-34.74,.9-6.81,2.85-14.11,7.09-19.86,1.88-8.85,5.68-17.25,9.87-25.21,5.14-12.44,9.95-29.35,23.66-34.52,2.64-4.39,7.35-7.26,12.39-8.03,16.03-24.46,31.44-19.63,53.75-30.4,3.31-3.71,7.25-6.74,10.81-10.17,1.66-3.2,3.73-6.43,6.92-8.36,1.25-4.95,2.54-9.9,4.28-14.68,1.5-4.09,3.6-8.53,6.37-12.41-.03-1.17,.06-2.37,.28-3.61-6.62-10-9.79-21.65-12.02-33.32-10.25,8.66-25.98,3.64-31.4-8.09-8.06-16.84,1.35-37.89,6.5-53.84,4.24-18.38,4.94-37.44,6.77-56.19,.69-14.89-4.14-29.04-6.82-43.49-13.83-15.42-23.89-33.94-38.88-48.5-6.37-7.74-16.15-12.1-21.34-20.87-4.55-8.44-.05-19.82,8.52-23.62,1.28-1.89,2.83-3.49,4.58-4.76-5.16-17.35,17.29-30.55,29.7-17.13,3.18-1.31,6.74-1.74,10.18-1.06,4.1,.82,7.09,2.92,9.7,5.59,19.86-14.1,30.32,11.58,36.82,26.36,2.6,.97,5.02,2.58,7.01,4.85,2.06,2.35,3.83,4.95,5.39,7.68,7.27,1.41,12.49,8.16,14.66,14.62,3.59,7.74,8.79,18.48,10.3,26.37,4.58,17.81,3.76,37.49,1.27,55.76-.47,18.26-4.55,36.65-14.36,52.17-.03,15.56-1.7,31.04-2.24,46.56,.32,11.54,3.48,23.89-1.34,34.92,1.54,12.21,10.2,21.52,12.86,33.37,10.85,9.23,19.58,20.54,30.27,29.98,7.06,6.85,12.56,14.9,18.22,22.87,3.02,3.68,5.11,7.51,5.6,12.36,1.06,9.65-7.11,17.62-16.23,18.5-17.65,.95-38.8-29.43-50.94-41.67-3.12,11.36-6.39,27.11-20.55,28.46-5.69,4.58-10.07,10.41-16.85,13.65-7.82,3.04-15.66,6-23.71,8.48-7.12,.35-12.65,4.05-16.09,10.31-6.63,13.81-16.34,26.01-19.79,41.08-6.11,14.64-10.87,30-20.99,42.54-1.26,4.24-3.52,8.28-6.69,11.22-7.09,13.63-13.35,30.71-29.12,36.16-7.62,5.31-16.88,10.36-25.62,3.9Z"/>
    <path d="M166.03,466c-10.17-9.09-5.11-22.58,3.82-30.36,5.85-17.93,19.05-32.36,25.36-49.97-1.25-8.85-1.24-17.85-2.62-26.67-3.27-11.27-8.39-22.3-8.54-34.2-3.28-19.68,12.14-40.03,31.53-25.53,11.91,12.1,12.64,30.12,14.19,46.08,4,1.13,7.52,3.69,9.81,7.18,.69,1.04,1.23,2.12,1.66,3.23,46.5-5.25,4.74,90.5-26.1,75.68-9.91,14.49-27.88,51.84-49.1,34.58Z"/>
    <path d="M184.4,267.33c-1.83-.84-2.33-3.21-2.78-4.99-1.07-3.65-1.06-7.4-.42-11.13-.49-9.17,1.16-18.37,1.39-27.55,.86-4.54,3.31-8.55,5.36-12.64,.68-1.9,1.55-4.47-.1-6.07-4.07-4.37-7.44-11.72-1.96-16.38,1.95-2.03,5.42-3.57,5.62-6.72-1.18-2.18-3.94-3.38-4.59-6.02-1.72-5.44,1-11.62,4.69-15.64,3.26-4.54,9.89-5.22,12.55-10.14-.22-2.65-1.89-5-1.93-7.73-.35-4.63,1.93-8.91,3.95-12.91,1.37-2.65,3.21-5.14,6.02-6.34,2.55-1.31,6-.79,7.93-3.17,2.68-7.52,1.25-16.51,6.9-22.88,3.94-3.46,7.66-7.59,12.6-9.59,2.95-1.13,5.8-.5,8.42-1.37,3.15-2.4,2.99-6.68,4.31-10.07,1.01-2.62,2.89-4.72,5.01-6.5,3.02-3.82,6.52-7.32,11.46-8.43,4.18-1.16,7.37-3.27,11.74-2.66,3.55-.15,6.56-2.53,10.16-2.81,2.35-1.94,3.57-5.4,6.1-7.42,5.36-6.47,13.8-8.64,21.83-8.46,3.92-1.12,8.01-1,11.68,.99,5.75,2.45,2.21,10.23-2.77,6.16-2.92-2.31-6.45-.69-9.75-.43-3.17-.09-6.87,.24-9.71,1.57-5.64,2.08-8.67,7.53-12.1,12-1.87,1.97-4.63,2.15-7.1,2.79-1.92,.63-3.64,1.69-5.66,2.02-2.37,.53-5.07-.34-7.29,.75-3.42,1.68-7.69,1.82-10.46,4.64-1.93,2.68-4.52,4.58-6.45,7.13-1.65,3.03-1.39,6.73-3.36,9.67-2.27,4.96-7.32,6.32-12.32,6.34-4.76,.91-8,5.4-11.62,8.34-2.5,3.58-2.9,7.91-3.58,12.02,.01-.07,.01-.09,.03-.17-.23,8.34-3.67,14.29-12.45,15.26-1.48,.31-2.57,1.6-3.24,2.83-1.72,3.52-4.38,7.35-3.48,11.43,1.29,3.59,2.94,7.72,.39,11.19-2.32,4.19-7.14,5.85-10.74,8.33-3.16,2.52-5.95,6.58-5.62,10.7,1.69,2.87,5.45,4.76,5.09,8.69,1.08-.67,2.35-.94,3.6-.5,1.52,.52,2.38,1.94,2.63,3.44,.15,.03,.31,.07,.47,.13,1.01,.35,1.7,1.03,2.11,1.89,.68-.14,1.42-.12,2.06,.1,.14,.05,.29,.11,.44,.18,.26-2.93,4.21-4.24,5.99-1.84,3.46-.13,3.96,3.8,3.45,6.45,1.47,3.86-1.28,8.33-2.21,12.15-2.43,7.48-7.35,13.34-12.57,18.71-2.2,4.12-3.82,8.56-6.28,12.52-1.97,3.03-5.14,5.33-6.46,8.75-1.38,2.36-1.2,5.77-3.46,7.49,0,4.44,5.15,17.9-3.5,15.88Z"/>
    <path d="M486.24,310.47s0,.02,0,.02c.02,.35-.01,.7-.11,1.04,.03-.36,.07-.71,.1-1.07Z"/>
    <path d="M207.83,310.73c-1.71-1.02-2.99-2.76-4.08-4.39-.4-.6-.76-1.23-1.1-1.87-.5,3.6-3.86,7.07-7.57,4.92-8.76,5.11-10.17-11.85-11.09-17.24-1.11-6.56,3.97-19.51,12.23-15.04,.21-.98,.69-1.97,1.45-2.63-.96-4.1-.24-8.24-.54-12.38-.84-3.91,.51-7.79,1.05-11.65,1.03-3.01,1.55-9.07,5.62-9.04,1.67,.12,2.94,1.45,3.09,3.09-.03,5.37-1.09,10.73-1.71,16.03,2.11,5.73,3.42,11.69,4.25,17.73,5.07,6.85,5.29,16.27,8.04,24.18,1.22,2.54,1.4,6.67-2.26,6.97-.3,.64-.8,1.17-1.5,1.51-.7,.35-1.51,.41-2.26,.23-1.21,.45-2.53,.24-3.64-.42Z"/>
    <path d="M185.7,425.94c-8.41-1.58-16.78-9.07-15.08-18.31,.36-5.73,4.29-12.99,10.9-12.05,.73-.27,1.51-.41,2.33-.37,.51,.02,1.01,.07,1.49,.18-2.64-4.74-6.33-10.91-3.55-16.31-2.39-6.43-6.34-17.32,1.29-21.49-.44-2.54-.32-5.4-.61-7.84-2.56-4.02-5.1-8.45-5.44-13.37-.39-3.09,.48-6.07,1.93-8.76,1.08-3.71,3.25-6.69,6.36-8.93,0,0,0,0,0,0-.57-6.14-5.69-10.85-5.49-17.23,.6-7.04,2.28-14.17,5.59-20.43,2.44-4.33,6.72-5.29,10.44-7.87,2.32-10.6-2.64-21.01-2.49-31.63,.03-3.53-1.81-9.39,2.66-10.84,.33-2.27,.11-4.89,1.59-6.77-.17-2.99,2.96-5.9,5.78-4,2.11,1.4,1.62,4.21,1.23,6.37,1.96,6.11,.74,12.59,.2,18.83-.14,.98-.7,1.91-1.55,2.44-.1,.25-.23,.5-.39,.73-.11,.16-.23,.31-.37,.45,1.79,5.35,1.7,11.02,1.48,16.57-.02,.78-.37,1.5-.9,2.05,.03,1.24,0,2.48-.13,3.72-.07,.69-.18,1.37-.32,2.04,.87,6.45-6.57,15.07-13.18,14.96-1.43,5.05-3.72,10.54-2.62,15.82,1.63,5.86,6.96,11.39,4.42,17.74-1.3,2.84-4.98,3.74-5.62,7.04,.1,.07,.2,.15,.3,.24,.71,.63,1.14,1.54,1.47,2.45,7.24,8.96,7.46,23.57,11.13,34.46,.95,4.14,2.01,8.13,3.3,12.15,.23,1.14,.16,2.54-.66,3.43-.11,4.03,3.47,12.73-2.16,13.94-.18,1.2-.63,2.3-1.69,3.09-.25,.19-.52,.33-.81,.44-.01,.02-.02,.04-.04,.05-.02,.03-.05,.07-.07,.1,.7,4.67,1.41,9.95-1.26,14.15,.05,2.37-.02,5.08-1.76,6.89,.3,4.26-3.84,6.8-7.71,5.89Z"/>
    <path d="M152.9,477.67c-3.03-1.59-1.51-5.12,.11-7.18-.56-1.17-.38-2.45,.05-3.64,2.8-7.64,6.33-14.56,8.83-22.13,.57-1.71,2.54-2.62,4.22-2.02,3.81,1.48,1.54,5.66,.56,8.35,6.91,2.36-1.11,9.33-2.42,13.25-2.22,4.32-4.66,8.61-7.37,12.62-.91,1.15-2.7,1.39-3.97,.74Z"/>
    <path d="M126.23,540.35c-7.48-.92,.39-21.56,1.8-26.26,2.06-3.19,1.69-9.64,6.44-9.4,.29-.35,.59-.69,.92-1.01,.61-.58,1.25-1.03,1.94-1.44-.03-5.57-1.49-11.39,1.29-16.62,1.64-5.07,8.53-23.33,15.64-18.43,4.18-1.75,5.28-6.96,7.97-10.4,1.58-2.86,3.45-9.01,7.68-5.91,6.06,.26,3.53,7.08,.82,9.93,2.78,5.22-6.36,10.66-9.8,13.37-.64,1.13-1.42,2.25-2.72,2.62-1.07,.3-2.13,.13-2.95-.44-.28,.39-.55,.78-.82,1.18-.28,.41-.56,.83-.84,1.24-.39,4.11-3.36,7.44-4.84,11.19-1.78,3.49-2.01,8.08-4.74,10.95,.27,3.22-1.01,6.14-4,7.52-3.65,4.56-5.34,10.43-8.17,15.38-.75,2.91-1.41,5.98-1.96,8.9-.22,3.14,.69,7.67-3.65,7.65Z"/>
    <path d="M209.48,474.54c-3.85-3.47-2.23-8.52-1.5-12.9,.78-3.63,.1-7.45,.15-11.18-.5,.31-1.05,.53-1.65,.58-1.33,1.75-2.33,4.22-4.52,5.02-2.79,.91-5.25-1.98-4.16-4.66,3.07-5.45,6.36-10.95,10.74-15.46-.06-2.56,3.21-6.06,5.92-5.35,.36-.18,.75-.32,1.16-.39,.88-.79,1.83-1.49,2.86-2.11,4.69-13.37,10.49-26.69,19.51-37.74,7.11-8.6,12.14-18.15,18.9-26.93-11.87,.67-26.93-1.59-30.44-15.03-1.31-3.42-1.32-10.38,4.16-8.44,2.63,1.71,4.58,4.34,7.07,6.26,5.85,3.72,11.37,7.34,17.46,10.49,1.8-.1,3.57,.02,5.36-.19,3.04-.18,4.4,3.56,3.95,6.11-3.51,8.51-10.48,15.19-14.75,23.37-8.16,10.07-15.34,20.16-20.35,32.02-.27,.67-.64,1.58-.19,1.44,1.46-2.82,5.33-3.82,6.88-.57,4.92-5.63,10.08-10.97,14.27-16.92,1.31-2.31,2.17-6.31,5.71-5.1,8.67,2.89-12.24,25.35-16.2,28.04-6.63,3.58-9.91,10.92-14.21,16.83-4.49,8.03-2.73,17.98-8.24,25.74-.15,4.71-2.23,11.68-7.89,7.08Z"/>
    <path d="M255.49,402.81c-2.85-.15-3.8-3.18-3.65-5.62-4.55-3.67-1.06-9.65-.12-14.17-4.93-3.11-6.84-8.93-10.7-13.08-4.17-3.28-7.41-7.63-8.89-12.78-1.02-2.72,.28-5.75-1.21-8.32-1.88-3.84-10.53-8.64-4.66-12.84,4.84-1.97,7.37,5,9.69,8.09,5.38,6.9,12.98,11.51,19.66,17.01,9.95,7.12,3.7-4.11,10.88-3.59,5.84,1.73,.66,11.31-3.46,12.39-5.11,1.33-10.13-2.41-13.86-5.53-3.36-1.96-6.78-5.74-9.99-7.27,1.14,3.14,3.43,5.56,5.98,7.63,3.7,3.38,5.51,8.34,9.03,11.84,5.93,3.14,4.03,9.11,2.19,14.18,6.34-.32,4.65,12.37-.88,12.04Z"/>
    <path d="M384.85,191.89c-7.74-.75-14.73-7.56-14.71-15.47-.66-1.54-.18-3.4,.91-4.62-.79,.06-1.53-.13-2.21-.46-4.98,.85-11.63-2.69-12.48-7.92-.38-.4-.69-.87-.91-1.42-.27-.7-.36-1.41-.28-2.11-1.03-1.22-1.35-2.65-.87-4.21,.07-.25,.17-.49,.29-.72-.78-.52-1.53-1.08-2.23-1.7-5.72,.15-21.7-10.71-20.29-17.13-.1-.16-.21-.32-.31-.49-.71-1.13-1.3-2.44-1.47-3.78-4.02-1.57-6.58-5.18-9.7-7.99-.96-1-1.77-2.36-1.61-3.79-.63-.53-1.21-1.13-1.57-1.84-.12-.22-.21-.45-.29-.68-2.89-2.29-5.72-4.75-7.91-7.73-1.04-.22-2.02-.58-3.02-.93-1.86,4.32-7.39,3.28-10.47,.95-3.69,1.58-7.75,.11-11.2-1.45-5.07-2.22-9.32-6.31-11.13-11.54-.83-.85-1.56-1.84-1.81-3.02-.08-.35-.1-.71-.08-1.05-1.72-2.3-.47-5.77,2.17-6.73,.09-1.38,.89-2.59,2.08-3.4,.84-.57,1.83-.84,2.84-.93,.52-4.49,5.69-3.16,8.29-1.3,.92-1,2.46-1.18,3.73-.8,5.53-5.64,9.48,4.96,11.81,8.82,1.76,1.33,3.47,2.72,5.35,3.89,2.05,.9,4.32,2.73,3.27,5.24,8.28,7.24,21.11,10.74,23.97,22.61,2.62,1.35,4.88,3.34,6.78,5.61,5.89,1.23,10.17,6.42,12.92,11.5,6.06,3.88,9.28,10.65,11.41,17.27,2.31,1.77,4.31,4.03,5.13,6.88,1.75,1.53,4.37,1.94,6.01,3.75,2.4,2.26,3.74,5.37,5.29,8.23,1.49,1.46,3.2,3.2,2.76,5.37,3.58,4.07,8.69,12.6-.44,13.1Z"/>
    <path d="M455.94,213.28c-.83-1.15-.88-2.78-.28-4.05,.49-1.05,1.26-1.76,2.11-2.42-1.81-2.54-1.76-7.33,2.28-7.22,.33-.27,.71-.47,1.11-.6-1.46-1.59-4.14-1.49-5.84-2.96-5.59-4.28-6.36-12.19-5.87-18.74-3.29-15.33-6.14-22.36,3.57-36.11-6.67-2.42-6.42-10.54-8.93-15.98-3.09-6.12-7.7-11.36-13.42-14.88-3.84-1.94-8.98-2.09-11.14-6.41-6.01,1.09-3.75-6.1-4-9.58-4.52-.39-6.14-5.95-7.24-9.65-2.91,1.42-5.77-.75-7.89-2.61-2.13-1.37-3.33-3.52-4.18-5.85-.35,.09-.71,.12-1.06,.1,1.44,2.34-.41,5.9-3.32,5.35-1.71-.34-3-1.58-4.14-2.84-3.81,2.05-6.38-2.71-7.85-5.53-.61,.05-1.2,0-1.76-.16-.64,.68-1.49,1.06-2.41,1.28-1,.23-2.01,.04-2.95-.34-.64,.3-1.28,.46-1.92,.51-1.5,1.95-4.34,2.37-6.5,1.35-5.52,4.47-11.75-2.08-15.82-5.65-4.66-4.41-14.65-13.44-6.79-19.21-1.21-.79-2.64-1.18-3.83-2.01-3.62,4.07-9.31-1.28-4.87-4.62,.43-5.18,5.9-4.41,8.38-1.04,2.1,1.27,4.05,1.83,5.7,3.52,.97-.59,2.15-.82,3.31-.85,.27,0,.55,0,.82,.03-1.13-4.79,5.24-8.08,9.27-6.43,8.55,4.52,17.82,9.44,22.6,18.22,5.14-.69,8.92,3.69,12.48,6.72,4.74,2.88,5.64,9.04,9.25,12.53-2.08-6.76,5.16-12.05,11.13-8.8,2.05-2.19,5.81-1.16,7.32,1.25,3.85,6.42,1.38,14.78,.96,21.73-.12,3.29-.57,7.56,1.82,10.15,2.41,1.3,5.29,1.48,7.65,2.94,7.91,4.74,14.32,12.18,17.53,20.8,1.08,2.95,1.42,6.45,3.1,9.08,1.07,.93,2.55,1.2,3.71,2,6,3.5,3.21,10.81,3.47,16.41,.28,10.55,1.15,20.97-.95,31.41-.38,2.38,1.14,4.98-.12,7.17,9.11,1.63,10.29,13.69,3.64,18.99-1.39,1.33-1.93,3.68-4,4.31-1.47,.58-3.2-.02-4.12-1.29Z"/>
    <path d="M471.28,393.74c-2.58-2.66-4.84-5.7-7.17-8.61-5.25,5.17-10.64-4.45-13.72-7.98-2.66-1-2.89-4.47-4.48-6.52-1.85-3.87-6.75-10.81-1.72-13.99-2.43-13.95-8.54-27.56-4.85-41.78-2.4-2.41-.6-6.41-.65-9.44-8.89,.56-1.26-9.95-.56-14.08-2.9-2.49-1.12-8.55,2.33-9.78-2.37-4.84,.85-10.45,2.17-15.25-1.26-2.07-.84-4.63-.11-6.82,1.35-4.83,3.21-9.79,6.65-13.53-.14-.31-.23-.63-.26-.96-.03-.28-.04-.56-.02-.84-1.65,1.36-4.48,1.18-5.52-.84-1.3-4.38,2.42-10.06,3.16-14.61,1.18-7.52,6.28-13.62,7.47-20.97-.16-.41-.26-.85-.29-1.3-.03-.44-.01-.87,.04-1.29-1.58-1.51-.97-3.82,.24-5.36,.94-1.87,1.38-4.05,2.67-5.71,2.02-2.56,6.35-.58,5.94,2.52,1.98,2.11,.91,4.81-.16,7.09,1.37,2.21-.29,4.6-1.26,6.62-2.24,4.72-4.74,9.4-6.57,14.3,4.6-1.66,5.9,3.74,4.47,7.11,9.47,2.59,3.34,17.37-3.74,19.52-.17,.85-.41,1.69-.66,2.51,1.41,3.14,.36,6.7-.49,9.87,7.06,2.15,.61,11.66-2.74,14.67-1.2,3.67-3.58,6.81-5.85,9.89-.11,.98-.3,1.95-.55,2.91-.25,.96-.5,1.92-.76,2.87,1.48,1.31,2.08,3.34,2.28,5.29,1.63,2.26,1.08,5.38,1.1,8,3.25,3.36,1.3,8.58,1.35,12.75,5.28-.14,4.44,5.37,3.1,8.76-.57,3.52-1.11,6.95-1.12,10.37,6.33,14.43,11.93,29.22,19.69,42.9,1.57,3.21,4.94,5.42,6.01,8.79,.43,2.84-3.21,4.8-5.4,2.93Z"/>
    <path d="M525.25,532.23s-.01-.01-.03-.01c-4.13-.69-2.35-6.07-2.84-8.73-.04-3.7-1.66-8.02,.34-11.4,0-.06,0-.12-.01-.18-3.09-.06-5.11-2.96-6.92-5.11-3.65-4.51-6.84-9.35-9.6-14.44-4.93-.05-4.96-7.82-6.27-11.38-6.22-1.76-9.12-9.13-11.13-14.71-2.77-4.94-6.22-10.33-6.05-16.16-4.85-3.19-10.1-6.11-15.58-7.97-6.18-1.58-12.32-2.09-18.63-2.67-.66,.31-1.32,.47-2.07,.36-3.82-.69-7.79,.95-11.56,1.61-3.88,.59-8.05-4.7-5.55-8.08-1.6-1.07-2.1-3.6-.79-5.08-1.67-1.82-.92-5.17,1.52-5.86,.35-4.42,5.11-3.59,7.51-1.28,0,0,0,0,0,0,.49-.02,.99-.02,1.48-.02-1.82-1.88-4.05-3.48-5.5-5.65-1.79-3.34,2.72-6.6,5.33-3.86,3.41,3.29,6.67,6.69,10.66,9.25,.24-.01,.48-.03,.72-.04-3.25-6.13-8.39-10.79-12.24-16.36-1.76-3.08,2.29-6.42,5.01-4.16,6.86,4.78,12.38,13.46,20.98,14.81-.14,.03-.27,.05-.41,.08,5.32-2.39-.06-21.16,.51-26.55-9.57-5.06-8.69-18.19-13.52-26.76-3.05-8.44-9.54-20.75,.23-27.08-.71-2.36-2.31-5.56,.77-6.98-1.94-4.02-6.86-4.83-8.95-8.65-1.26-2.4-2.86-6.35,.53-7.73,3.87-1.27,4.25,2.67,5.67,5.06,7.76,4.55,13.91,13.38,12.74,22.68,.26,4.22-3.05,7.13-4.03,10.95,1.19,2.04,1.57,4.4,1.52,6.73,.47,.82,1.04,1.59,1.57,2.38,8.5,1.56,10.87,10.34,12.88,17.45,4.51,.61,7.45,4.1,9.61,7.75,3.25,4.27,4.83,9.3,4.93,14.66,2.55,8.03-3.93,12.7-9.44,5.1-4.07,.1-5.29-4.92-7.13-7.71,1.79,10.9,2.97,31.33-14.16,23.65,.16,.37,.32,.74,.46,1.11,.07,.18,.14,.36,.21,.55,3.47,1.11,4.5,6.16,1.12,8.03,.07,.35,.12,.7,.14,1.05,.05,.9-.13,1.83-.49,2.69,12.63,2.13,25.27,7.34,34.15,16.78,.67-.69,1.61-1.13,2.57-1.11,.25,0,.49,.03,.73,.08,.3-.28,.68-.53,1.07-.71,.77-2,3.24-3.39,5.3-2.54,.26-2.6-.36-6.08,2.07-7.78-1.33-4.43,4.39-7.08,6.42-2.71,1.34,5.52,1.85,11,1.7,16.63-.48,4.03,.97,11.01-3.88,12.58-.04,1.31-.11,2.62-.2,3.93-.06,.74-.12,1.48-.21,2.21,5.76,4.96,11.01,10.89,14.51,17.68,3.27-.07,3.89,3.81,5.06,6.13,.94,3.01,4.3,7.09,1.2,9.78-.1,4.81,.07,9.63,.95,14.37,.23,1.38-.02,3.01-1.27,3.84,.03,3.31,1.46,9.9-3.72,9.53Zm-60.97-152.24c.15-.6,.42-1.12,.79-1.53-.56-.99-1.15-1.98-1.74-2.95-.57-.9-1.18-1.78-1.77-2.66,.68,2.45,1.49,4.91,2.72,7.15Z"/>
    <path d="M523.06,539.96c-1.17-5.45-2.9-10.46-4-15.86-.2-2.2-.06-4.46-1.38-6.37-4.92-4.95-10.07-10.95-12.37-17.34-1.02-3.59-2.12-6.59-3.38-10.01-.82-1.52-1.46-3.33-2.77-4.49-1.59-.74-3.19-1.2-4.63-2.18-5.67-4.23-7.54-11.91-10.41-18.1-1-2.72-.06-6.11-1.74-8.54-6.52-3.22-13.29-5.77-19.11-10.22-5.21,1.55-9.47-2.59-13.89-4.26-3.23-1.12-5.41,2.29-8.4,2.83-2.83,.71-4.93-.08-7.5-.07-5.21,.68-9,4.15-13.06,7.14-2.35,2.28-6.06,2.74-8.13,5.13-1.57,3.81-2.32,8.31-6.38,10.34-1.67,1.16-3.85,2.33-5.84,1.27-1.88,1.35-4.18,2.44-5.68,4.01-2.01,2.18-2.16,5.4-3.36,8.03-1.63,3-4.14,5.39-6.1,7.95-2.51,3.24-6.56,3.94-9.92,5.44-2.47,1.73-5.93,5.84-8.7,2.29-2.42-4.06,3.48-6.33,6.03-8.4,2.09-1.16,3.91-1.2,5.74-2.13,2.78-2.03,4.66-5.11,6.82-7.72,1.5-5.87,4.24-11.27,9.85-13.88,3.34-1.4,3.64-5.14,4.56-8.17,1.14-2.61,5.24-2.46,6.1,.27,1.1-4.44,4.93-6.51,8.78-8.2,4.94-3.03,9.1-7.78,14.92-9.06,3.36-1.5,6.8-.57,10.25-.67,2.77-1.25,5.29-3.5,8.57-3.28,6.14-.29,9.57,5.99,15.5,4.47,4.41,.45,7.45,4.39,11.37,6.11,3.8,1.93,8.07,3.06,11.6,5.49,3.9,2.9,3.25,7.93,4.13,12.14,1.81,4.49,3.7,8.04,5.68,12.22,1.31,2.37,4.1,2.87,6.31,4.04,7.56,5.44,6.66,16.6,12.01,23.49,3.58,6.31,11.39,10.27,11,18.29,.76,5.66,2.91,10.97,4,16.51,.44,1.75-.76,3.57-2.49,3.98-1.75,.42-3.54-.72-3.98-2.49Z"/>
    <path d="M299.81,491.41c-2.59-.13-3.73-2.67-4.56-4.79-3.11-7.82-6.74-17.4-2.81-25.5-2.93-11.05-10.4-23.43-4.58-34.7-6.22-16.01,9.33-30.78,21.2-39.31,1.63-3.29,6.67-4.42,9.25-1.6,.09-.2,.18-.39,.27-.59-.23-.25-.44-.52-.62-.8-1.37-2-2-4.88-1.37-7.31-1-2.13-1.02-4.9,.44-6.83,.9-5.79,6.19-12.97,12.61-12.66,1.5-.77,3.18-1.3,4.85-1.48,.77-.09,1.55-.02,2.29,.21,.05-.12,.1-.24,.15-.35,.26-.61,.58-1.17,.99-1.66,.56-4.61,3.24-8.59,4.42-13.08,4.11-7.95,11.63-15.76,20.53-17.9,.43-.67,.84-1.35,1.25-2.03,.66-1.12,1.32-2.49,2.36-3.33,1.76-6.55,2.01-12.68,10.15-13.96,5.33-.59,5.33,6.43,.14,6.86,1.36,3.5-1.32,7.31-2.78,10.42-1.6,2.67-2.07,6.27-4.75,8.09-2.89,4.59-6.84,8.13-10.25,12.19,.23,7.86-2.96,16.8-10.12,20.76,.02,.97-.18,1.93-.84,2.7-.87,1.04-2.22,1.39-3.47,1.11-1.74,3.97-5.15,8.14-9.7,8.61,0,0,0,0,0,0-1.14,1.17-2.52,2.1-4.03,2.7-.37,.51-.77,1-1.22,1.47-.58,.61-1.21,1.29-1.91,1.89-2.2,4.55-3.39,10.34-7.83,13.28-.35,1.51-.98,2.97-1.94,4.2-.25,.33-.55,.62-.86,.87-1.33,4.24-4.87,7.13-8.2,9.8-.86,4.88-2.02,9.7-3.34,14.47-.52,1.83-1.12,4.07-2.98,4.79,4.37,.88,3.75,7.32-.8,6.8-3.02,2.17-6.54-.99-9.01-2.71-1.82,11.22,5.85,21.3,7.07,32.17,1.69,5.69,1.29,11.72,2.27,17.54,.55,3.29,3.08,9.36-2.25,9.66Z"/>
    <path d="M288.09,632.04c-3.5-1.17-7.48-4.48-8.93-7.95-.89,.6-1.92,1-2.96,1.1-.68,.07-1.35,.01-2-.14-.92,3.09-6.12,4.68-7.98,1.62-1.44,2.66-4.08,5.11-7.29,4.06-3.16-1.71-7.15-3.74-9.51-6.46-2.02,.22-4.17-.61-5.77-1.87-.93-.74-1.75-1.62-2.41-2.6-3.56-1.33-8.36-7.94-3.54-10.53h0c2.38-4.07,6.37-6.99,9.03-10.84-5.38-11.65,0-24.36,9.1-32.41-.19-7.08,2.31-13.74,5.12-20.05,.62-3.78,2.1-11.78,7.5-9.41,.26-.28,.52-.57,.78-.85-4.34-8.53-1.6-18.71,5.01-24.86,1.61-1.61,3.24-3.29,3.71-5.59-5.74-5.12-7.9-18.15-3.67-24.73,1.01-4.62,1.68-10.67,6.9-12.39-.21-6.99,.54-13.94,1.73-20.82,.03-4.07-.88-10.03,3.37-12.29,.56-3.59,.45-9.14,4.52-10.57,4.89-1.03,5.11,6.51,2.36,8.76-.06,.42-.12,.84-.17,1.26-.05,.63-.1,1.25-.15,1.88,.13,.1,.26,.22,.4,.34,.33,.3,.59,.65,.81,1.01,13.47-2.21,10.25,24.73,10.85,33.12,3.37-3.29,8.73-.8,9.02,3.73,2.6,.95,3.3,3.98,3.03,6.47,15.96-15.22,17.04,6.49,13.73,18.15,3.03-3.64,6.3-7.99,10.91-9.59,7.33-1.25,8.12,8.08,6.21,13.1,3.44-2.17,6.51-7.31,11.01-6.33,1.15,.59,1.64,.9,2.76,.04,3.54-1.89,5.78-6.9,10.45-5.88,1.29-3.45,6.79-2.19,6.41,1.46-.64,4.48-2.89,9.29-7.43,10.89-2.53,2.57-6.34,2.54-9.59,1.65-7.41,1.76-6,11.24-8.11,16.94-1.69,4.69-6.07,7.97-8.17,12.44-1.31,2.13-1.99,4.94-4.1,6.41-4.43,7.79-6.6,16.72-10.63,24.82-2.62,4.65-3.72,10.64-7.69,14.32-.73,8.97-1.97,17.62-2.83,26.26-1.05,4.32,.49,18.86-6.98,14.56-.52,.37-1.12,.67-1.72,.79-.58,.11-1.14,.18-1.71,.17-.42,.41-.89,.78-1.41,1.1-.62,.37-1.31,.56-2.01,.6-1.65,4.96-7.19,7.96-12.18,6.14-1.08,2.11-3.4,3.46-5.78,2.97Zm-29.44-36.07c.63-.88,1.39-1.66,2.32-2.19,1.1-.62,2.38-.89,3.62-.71,1.36-3.57,6.16-4.78,8.43-1.35,4.04-6.36,10.29-2.68,10.64,3.87,1.63-1.65,4.54-1.59,5.93,.32,1.88-.53,3.75-.26,5.65-.2,.73-3.15,2.17-6.75,5.2-8.29,1.29-3.6,5.77-4.71,8.68-2.32,.4-4.68,.04-10.15,3.17-13.97,.9-2.98,1.71-6.44,4.34-8.41,0,0,0,0,0,0,2.82-4.81,3.94-20.2,11.11-19.27,1.44-3.87,2.97-7.89,5.85-10.95,.69-2.94,1.41-5.88,2.39-8.74-4.71-1.52-1.43-6.35,.16-9.1,2.81-5.6,5.33-11.58,5.96-17.86-11.89,10.28-16.23,26.41-22.01,40.49-1.21,3.01-6.16,2.17-6.31-1.09-.04-1.1,.36-2.08,.73-3.09,4.49-16.48,11.88-33.11,10.72-50.26-14.75,9.65-14.73,29.23-22.61,43.23-.3,3.95-5.72,5.28-6.85,1.1-.87,.83-1.92,1.4-3.04,1.48-.92,5.18-4.31,27.12-10.98,25.91-.51,1.63-.97,3.43-2.37,4.47-1.44,1.07-3.38,.64-4.47-.64-.83,.27-1.76,.25-2.55-.14-1.11,1.21-1.67,2.73-2.65,4.03-.27,7.17-2.74,14.43-5.02,21.03-1.52,4.27-4.53,7.5-6.43,11.52,.13,.39,.26,.77,.39,1.15Zm-2.99-10.06c1.2-1.65,2.36-3.16,2.89-5.14-1.63,1.23-2.77,3.07-2.89,5.14Zm27.22-91.52c.21-.15,.42-.29,.65-.41-.08-.01-.15-.03-.23-.04-.16-.03-.32-.07-.48-.11,.02,.19,.04,.38,.06,.56Zm1.73-6.95c.02-.42,.03-.84,.03-1.27,0-.07-.01-.14-.02-.22-.22-.18-.44-.36-.66-.54-.05,.12-.1,.23-.15,.35-.1,.29-.19,.58-.27,.88,.24,.4,.6,.72,1.07,.8Zm13.72-23.04c-.62-6.53,.38-13.8-2.43-19.85-.02,.02-.03,.04-.04,.06-.12,.19-.24,.38-.36,.57,.52,5.7,1.17,11.41,1.19,17.14,.71,.6,1.24,1.31,1.65,2.09Z"/>
    <path d="M405.56,331.01c.06-1.85,1.62-3.2,3.43-3.2s3.26,1.67,3.2,3.43c-.06,1.85-1.62,3.2-3.43,3.2s-3.26-1.67-3.2-3.43Z"/>
    <path d="M334.41,198.34c-2.1-.63-4.75-.34-6.39-1.95-2.82-4.03,1.54-6.61,5.37-5.24,6-3.21,8.1,8.31,1.02,7.19Z"/>
    <path d="M258.33,190.87c-5.84-3.02-12.6-5.06-18.97-6.29-3.56-.98-7.87,1.5-10.93-1.23-1.57-1.54-.99-4.47,1.01-5.35,.77-1.3,2.28-1.63,3.66-1.67,2.14-.08,4.99-.78,6.19,1.52,6.09,.98,11.98,2.65,17.59,5.19,3.04,.73,8.22,2.96,6.02,6.84-.94,1.47-3.12,2.03-4.58,.98Z"/>
    <path d="M288.43,198.1c.35-4.27,5.66-2.85,8.51-4.28,5.69-1.87,10.26-2.7,16.25-2.51,7.45-.22,14.95-.89,22.23,1.36,4.1,1.31,2.18,7.57-1.97,6.32-3.04-.94-6.48-1.1-9.24-1.4-5.74-.03-11.61,.68-17.35,.47-4.75,.18-17.67,7.77-18.43,.05Z"/>
    <path d="M326.08,224.86c-4.58-1.15-7.21-7.89-4.1-11.61-3.62,.87-9.68,1.66-12.71,3.09,.03-.01,.05-.03,.08-.05,.01,0,.03-.01,.04-.02-2.5,2.47-8.71,4.83-9.69-.21-.24-2.22,1.75-3.81,3.87-3.71,2.42-2.23,5.54-3.52,8.81-3.74,5.59-1.34,10.77-3,16.5-2.24,7.48,.54,28.33,7.76,15.21,16.26-6.01,1.66-11.87,3.23-18,2.23Zm3.62-6.23c3.83-.19,7.02-1.11,10.53-1.67-3.85-2.07-8.05-3.87-12.49-4,.01,.02,.02,.03,.04,.05,.95,1.38,.7,3.18-.45,4.3-.04,1.4,1.34,1.28,2.37,1.32Z"/>
    <path d="M250.83,212.72c-2.79-.97-4.66-4.35-2.6-6.89,1.72-2.4,5.96-2.13,6.51,1.07,.36-.03,.71-.15,1.05-.29,0,0,0,0,0-.01-1.67-3.31-6.59-2.75-9.8-3.17-5.67-1.77-10.89,2.08-16.61,1.09-4.31-.21-4.11-6.74,.22-6.62,3.35,.61,6.47-.73,9.63-1.42,3.3-.66,6.51,.48,9.81,.48,4.61,.53,9.79,1.4,12.24,5.8,4.32,6.86-3.99,13.19-10.45,9.96Z"/>
    <path d="M252.81,213.94c-1.8-.03-3.26-1.63-3.2-3.42,.11-3.41,3.87-3.33,6.3-3.16,.42-.01,.84-.02,1.26-.02,.11,0,.22-.01,.33-.02-1.01-.76-2.2-1.25-3.34-1.78-3.91-1.85-1.12-7.78,2.81-5.99,2.66,1.02,4.93,2.59,6.82,4.71,1.05,.6,1.89,1.31,2.21,2.57,.68,2.58-1.84,4.06-3.66,5.28-2.69,2.29-6.23,1.9-9.53,1.84Z"/>
    <path d="M299.21,519.65c.06-1.85,1.62-3.2,3.43-3.2s3.26,1.67,3.2,3.43c-.06,1.85-1.62,3.2-3.43,3.2s-3.26-1.67-3.2-3.43Z"/>
    <path d="M249.17,360.87c-2.54-.61-5.85-1.69-5.15-5.07-2.46-8.54,14.25-3.49,9.84,2.46-.2,2.24-2.74,3.53-4.7,2.61Z"/>
    <path d="M308.31,623.34c.45-7.57,10.73,1.58,13.78-17.3-4.58-.76-2.46-5.68-1.1-8.42-1.56-6.48-2.97-14.19,2.53-19.27-2.58-23.54,19.8-13.54,6.99,2.19,1.23,6.07-.03,12.15-2.62,17.69,3.2,11.21-2.87,27.33-15.94,28.06-1.76,.24-3.46-1.17-3.64-2.94Z"/>
    <path d="M322.12,648.83c-3.62-2.95-4.04-9.2-2.73-13.37,.63-4.09-1.78-14.93,4.52-14.69,1.76,.28,3.07,2.02,2.76,3.79-.89,4.97-.79,10.14-.48,15.17,.38,2.52,1.85,5.12,.87,7.65-.71,1.8-3.33,2.53-4.93,1.45Z"/>
    <path d="M127.95,541.08c-5.1-2.83,2.1-9.65,2.94-13.63,3.27-7.35,6.42-14.89,10.1-22.01,3.41-5.33,6.71-10.16,7.11-16.68-2.61-4.46,6.74-15.7,10.92-17.4,3.23-1.44,6.04-2.18,9.17-3.24,2.76-.39,4.73,3.06,3.04,5.26,1.96,.15,3.49-1.42,5.3-1.97,4.49-1.46,8.43-2.4,12.39-4.84,3.84-1.63,7.61-6.21,12.06-4.34-.01-.54,0-1.41-.58-1.63-4.2-1.72-1.38-8.07,2.7-6.03,1.22-1.79,4.01-2.31,5.65-.81,4.96,1.02,1.84,6.08,1.29,9.23,.98,3.36-.09,8.64-4.19,9.13-1.78,12.07-9.63,7.23-9.41-2.27-6.06,4.37-13.25,6.03-19.98,8.9-4.28,9.69-13.33,16.02-20.79,22.84-4.85,3.9-6.01,9.68-8.71,14.85-2.59,3.92-6.03,7.36-6.63,12.26-1.57,3.82-1.9,15.15-8.33,11.31-.95,1.24-2.62,1.74-4.04,1.07Zm38.37-60.16c.05-.06,.1-.13,.15-.19,0,0-.01,.02-.02,.03,.17-.25,.35-.5,.52-.75-.19,.02-.38,.04-.57,.07-.13,.03-.27,.06-.4,.09,.14,.24,.24,.49,.33,.75Z"/>
    <path class="cls-1" d="M398.3,170.52c-4.26-7.22-7.05-15.17-10.06-22.84-2.6-2.29-6.54-2.68-9.01-5.32-3.75-3.08-3.57-8.69-7-11.98-.53-.39-1.2-.64-1.86-.65-8.02,1.71-5.39-5.18-9.75-8.26-1.92-.8-4.01,.44-5.98,.35-1.86,.08-3.11-1.61-3.04-3.37-.17-3.62-.28-7.35-1.46-10.8-9.2,3.83-18.7-2.47-19.82-12.14-.14-2.31-.84-6.42,2.55-6.42,1.37,.08,2.38,1.27,2.34,2.62-.76,5.55,3.33,12.91,9.61,12.03,11.31-3.93,10.84,4.21,11.67,12.79,6.19-1.77,10.35,2.88,11.93,8.39,8.32-1.76,10.51,7.43,13.46,13.01,2,2.47,5.27,3.14,7.94,4.64,3.74,2.24,4.64,6.76,5.66,10.66,1.01,2.99,2.65,5.72,3.95,8.59,.75,3.04,5.79,7.22,2.23,9.8-1.2,.62-2.7,.12-3.35-1.09Z"/>
    <path class="cls-1" d="M416.99,279.33c-4.74-1.11,.77-12.04,1.59-15.12,1.73-5.06,5.61-9.4,6.47-14.69-.57-7.5-12.66-11.68-4.2-19.62,2.07-2.17,4.6-4.69,4.61-7.85-1.55-9.37-3.5-18.23,2.07-26.8,2.5-4.2,7.72-6.86,8.43-12.03,.48-1.67,.68-3.25,.75-4.7,.47-4.97-5.11-7.2-6.29-11.71-2.72-9.43,4.09-19.08,5.99-28.04,.35-4.5-4.43-6.12-7.24-8.63-1.03-.76-2.13-1.49-3.34-1.8-2.97-.62-5.69,.77-8.65,.54-5.05,.06-10.62-2.03-10.17-7.99,.29-7.06-2.88-19.33-12.2-15.07-1.31,.34-2.68-.62-2.95-1.9-.53-3.2,3.52-3.32,5.71-3.88,12.09-.99,14.3,13.71,14.75,22.79,3.38,1.82,7.32,.91,10.9,.39,5.49-.66,9.45,3.56,13.47,6.31,11.91,9.09-3.56,23.29-1.91,34.65,.9,3.94,4.76,5.82,6.15,9.41,1.91,6.25,.03,13.69-4.03,18.66-3.62,3.1-6.58,6.88-7.59,11.66-2.88,12.88,7.05,19.17-5.83,30.54-1.13,1.01-.24,2.4,.5,3.35,3.26,3.56,6.72,7.95,5.94,13.09-1.9,7.6-7.34,13.94-8.96,21.72-.99,2.39-.26,7.15-3.97,6.74Z"/>
    <path class="cls-1" d="M307.93,461.22c-6.09-7.44-10.29-18.77-4.65-27.57,3.15-4.62,10.75-2.96,13.22-8.06,2.8-7.03-4.53-16.67,1.22-22.52,3.26-2.07,7.56-2.36,10.31-5.31,5.59-4.99,2.54-16.48,11.59-17.94,3.38-.88,6.84-2.1,8.89-5.03,5.99-6.51,.43-20.39,13.15-17.92,2.78-.2,4.12-3.17,6.4-4.42,2.71-1.81,6.4-2.08,8.36-4.92,4.09-6.98,5.46-15.09,5.6-23.07,.17-2.65,1.56-5.59,2.11-8,.94-2.49,.88-7.75,4.7-6.9,3.39,1.3,.44,5.52,.21,7.73-1.74,4.82-2.34,9.69-2.53,14.79-1.48,9.24-3.97,21.16-14.39,23.83-2.35,.96-3.78,3.17-5.86,4.54-2.48,1.86-5.53,1.17-8.34,1.27,0,0,0,0-.01,0-1.69,12.72-5.77,20.82-19.07,23.67-1.93,2.63-2.01,6.41-3.21,9.45-1.38,4.21-4.6,7.63-8.52,9.62-2,1.22-4.47,1.48-6.47,2.65-.18,.26-.1,.62-.14,.93,.26,8.07,4.93,18.94-3.57,24.34-2.91,2.02-7.06,1.84-9.69,4.29,.08-.12,.12-.16,.18-.26-4.37,7.2-.17,16.07,4.6,22,1.86,2.61-2.25,5.48-4.09,2.82Z"/>
    <path class="cls-1" d="M487.06,445.39c-3.29-4.13-7.73-6.56-10.32-11.14-2.43-4.45-2.31-9.87-4.57-14.38-1.57-2.39-4.54-3.09-6.75-4.72-3.68-2.59-3.8-7.39-4.93-11.34-5.99-17.08-24.01-11.19-25-37.67-.27-3.18,4.71-3.63,4.96-.4-.07,23.54,21.54,18.83,25.38,38.86,.61,2.66,.91,6.2,3.77,7.31,10.37,3.59,7.72,14.41,12.75,21.79,1.94,3,11.6,8.1,8.22,11.88-.99,.88-2.62,.82-3.51-.19Z"/>
    <path class="cls-1" d="M300.72,604.93c-5.91-7.97-11.46-19.42-7.95-29.38,2.87-6.92,11.29-6.99,17.29-9.58,2.85-.93,4.35-3.6,4.6-6.46,.97-6.91-1.32-13.54,.46-20.27,1.95-4.09,4.44-7.83,5.54-12.3,2.06-5.05,2.07-10.01,3.66-15.06,1.43-3.63,4.65-6.12,6.93-9.21,2.55-3.28,4.74-7.07,8.22-9.46,1.63-1.02,3.67-1.68,5.06-2.98,3.14-3.42,3.45-8.81,7.19-11.74,4.21-2.34,6.33-6.69,8.95-10.5,1.7-3.08,4.96-4.93,7.48-7.1,2.41-2.84,4.09-6.37,4.99-9.97-2.5-6.62-2.14-14.08,.9-20.57,3.32-4.14,7.3-7.69,10.94-11.56,4.95-3.2,10.18-6.77,11.24-12.95-.59-6.94-3.09-13.84-2.09-20.94,.13-1.35,1.22-2.42,2.62-2.34,1.31,.06,2.49,1.27,2.34,2.62-.33,3.37,.03,7.22,.43,10.35,4.55,14.82-1.24,20.24-12.7,28.34-2.54,3.16-5.6,5.86-8.35,8.75-2.01,4.88-3.09,10.79-.75,15.71,1.37,5.65-2.53,11.39-5.74,15.76-1.87,2.17-4.76,3.16-6.38,5.58-3.24,4.47-5.89,10.03-10.95,12.84-2.67,3.09-3.25,7.59-6.07,10.66-1.67,1.98-4.1,3.04-6.36,4.19-3.38,2.58-5.2,6.23-7.83,9.36-1.98,2.7-5.03,4.8-5.82,8.21-1,6.64-2.7,13.14-5.26,19.36-1.45,3.44-4.46,6.58-3.92,10.54,.03,8.4,3.01,20.29-6.04,25.09-5.52,3.41-15.98,2.11-16.77,10.34-.11,7.58,3.27,15.44,7.82,21.37,2.19,2.33-1.63,5.8-3.7,3.32Z"/>
    <path class="cls-1" d="M166.25,470.7c-1.5-11.26,.22-24.49,14.41-24.15,.77-.09,1.57-.53,2.12-1,5.07-5.34,4.97-13.65,9.78-19.03,6.89-5.13,8.39-14.05,8.47-22.09-.27-7.3,1.2-14.42,1.72-21.51,.13-3.19,5.17-2.95,4.96,.27-.26,5.41-1.39,10.17-1.61,15.36,.35,11.84-1.05,24.86-10.97,32.64-3.67,7.19-4.85,19.12-14.53,20.37-2.4,.22-5.1,.27-6.92,2.07-3.88,4.62-2.82,11.13-2.49,16.66,.3,3.19-4.73,3.63-4.95,.4Z"/>
    <path class="cls-1" d="M222.3,428.75c-1.23-.41-2.07-1.9-1.57-3.16,2.28-4.94,.86-10.62,2.95-15.62,1.66-5.39,6.74-9.49,7.04-15.28-1.08-4.02-.45-8.14-1.22-12.18-.78-2.71-3.58-3.95-4.99-6.19-1-1.5-.71-3.3,.15-4.79,1.29-3.24,1.61-7.05,.36-10.34-.78-2.08-2.63-3.77-2.66-6.11,.35-2.93,2.14-5.62,.41-8.39-1.79-2.64-5.13-3.87-6.53-6.86-1.49-2.83,2.96-5.16,4.43-2.27,.81,1.53,2.45,2.36,3.69,3.5,4.3,3.33,5.05,9.2,2.97,13.99,3.91,5.53,4.51,12.84,1.64,18.97,2.07,1.86,4.13,3.85,5.1,6.53,1.46,4.3,.28,8.93,1.57,13.31,.68,6.57-4.93,11.84-7.16,17.42-2.47,4.09,.37,17.95-6.2,17.48Z"/>
    <path class="cls-1" d="M198.83,187.2c-1.4-3.11,2.56-3.83,4.51-5,3.58-2.64,5.3-6.93,4.21-11.21-.26-2.88-1.98-6.34,.1-8.88,1.93-1.9,4.55-2.7,6.61-4.3,2.37-2.08,2.67-5.56,3.61-8.41,.64-3.77,4.73-5.09,6.28-8.38,1.46-3.57,2.58-7.2,4.51-10.57,1.43-3.29,1.5-6.93,2.82-10.25,.88-2.6,3.29-4.2,5.17-6.08,1.86-1.88,3.21-4.63,5.99-5.24,2.12-.35,5.71-1.07,6.05,1.94,.1,1.32-.92,2.6-2.28,2.68-.95,.11-2.03-.05-2.91,.35-2.21,2.55-4.51,5-6.98,7.3-1.6,3.16-1.49,6.82-2.83,10.09-1.01,2.97-3,5.51-3.69,8.61-1.06,4.09-3.97,7.22-7.02,9.91-1.31,3.87-1.8,8.34-4.88,11.31-1.91,1.72-4.29,2.8-6.46,4.13,1.46,6.62,2.27,13.79-3.05,18.98-1.9,1.93-7.68,6.47-9.74,3.02Z"/>
    <path class="cls-1" d="M285.81,102.37c-1.13-.75-1.45-2.32-.7-3.44,1.77-2.69,4.09-5.44,4.99-8.53,1.33-13.29,8.7-24.54,22.88-25.92,4.31-.57,8.67-1.96,12.83-.17,1.52,.45,2.93,2.01,4.58,1.61,2.54-1.84,4.73-4.74,8.28-4.22,5.53,1.09,9.83,5.63,14.79,8.17,5.58,2.16,11.52,3.56,15.26,8.75,3.24,3.84,6.13,8.39,9.23,12.16,.84,1.05,.85,2.56-.19,3.51-.97,.87-2.67,.85-3.51-.21-5.11-5.73-8.44-13.69-15.54-17.13-3.78-1.05-7.41-2.09-10.55-4.54-3.06-1.73-5.87-3.84-8.94-5.51-.65-.29-1.51-.39-2.14,0-1.96,1.4-3.47,3.56-5.98,4-2.77,.71-5.39-1.29-7.79-2.23-2.78-.73-5.52,.24-8.26,.52-23.43,3.03-14.58,19.09-25.78,32.5-.76,1.14-2.32,1.44-3.44,.7Z"/>
    <path class="cls-1" d="M273.68,101.04c-.62-1.22-.12-2.72,1.07-3.34,3.6-2.01,8.68-3.28,7.84-8.4-.31-2.25-.61-5.49-2.65-6.77,0,0-.03-.04-.03-.04-4.43-.11-8.76,2.9-12.21,5.1-2.69,2.47-5.96,4.27-9.7,4.07-1.36,0-2.42-1.33-2.34-2.63,.15-2.65,3.03-2.21,4.88-2.61,6.37-3.56,12.9-10.22,20.84-8.65,6.91,2.53,8.6,16.41,2.51,20.59-2.68,1.12-7.99,6.3-10.22,2.69Z"/>
  </g>
</svg>