<?xml version="1.0" encoding="UTF-8"?>
<svg xmlns="http://www.w3.org/2000/svg" viewBox="0 0 636.02 834">
  <defs>
    <style>
      .cls-1 {
        fill: #fff;
      }

      .cls-2 {
        fill: #f3c25f;
      }
    </style>
  </defs>
  <g id="Vektorebene">
    <path class="cls-2" d="M254.72,826.88c-7.8-.28-15.22-1.53-22.55-3.78-8.05,.26-16.13,.51-24.17,.84-14.86,.34-29.71-4.54-43.95-8.28-17.82-3.3-35.98-7.56-50.8-18.56-13.95-8.74-28.23-17.34-38.5-30.48-15.58-13.98-29.07-29.37-38.65-48.05-18.06-22.88-30.71-50.55-31.13-80.07-2.32-40.77,18.89-77.29,38.45-111.47,16.08-18.06,26.4-40.89,45.63-56.11,24.87-27.14,57.78-44.72,86.86-66.92,8.58-5.77,15.98-12.88,24.78-18.37,6.74-3.84,13.34-8.01,17.56-14.74,19.59-26.01,26.72-56.98,40.42-85.85,4.94-48.53,14.62-96.71,28.71-143.4,5.9-15.62,12.84-30.88,21.39-45.17,6.9-15.13,15.64-29.8,29.04-40.05,18.01-21.52,41.62-37.35,67.94-47.05,30.18-11.06,63.14-5.41,92.11,6.74,34.32,12.86,61.41,43.43,63.75,80.84,3.65,34.87-1.47,70.79-13.58,103.63-16.91,32.44-25.71,67.72-38.18,101.92-5.54,19.33-11.27,38.84-13.44,58.89,.53,31.16,3.93,62.29,5.56,93.44-.03,24.75,4.86,48.97,6.25,73.59,.87,30.37-6.06,60.43-11.32,90.18-4.67,28.82-20.52,53.97-35.39,78.56-8.14,13.84-19.39,25.14-31.31,35.7-6.72,10.17-16.98,17.51-26.07,25.5-10.29,11.07-22.5,19.7-35.76,26.84-13.46,6.47-23.9,17.53-37.72,23.42-23.54,11.44-49.47,19.93-75.92,18.27Zm168.48-223.35c9.34-30.18,14.43-63.44,9-94.92-3.75-27.51-3.38-55.43-5.88-83.07-7.42,19.84-11.1,42.16-23.59,59.58-2.3,21.79-5.81,33.09,5.48,53.55,8.87,20.72,7.89,43.8,14.98,64.86Zm-261.56-23.6c6.84-16.5,20.36-31.38,37.65-37.02,15.07-15.32,40.19-18.81,58.84-8.13,1.38-.16,2.77-.27,4.17-.32,.94-.03,1.88-.04,2.81-.01,1.87-2.26,3.92-4.38,6.13-6.36-.77-14.16-.31-28.49,2.42-42.43-3.83-10.16-4.37-21.32-3.01-32.01,.91-7.19,2.94-14.34,5.91-21.12-7.63,8.92-17.58,15.1-26.77,22.18-12.62,13.73-28.95,23.47-40.28,38.45-14.56,13.38-23.94,30.64-33.92,47.46-7.88,10.88-11.63,23.64-16.49,36,.91,1.05,1.77,2.15,2.55,3.29Z"/>
  </g>
  <g id="Vektorebene-2" data-name="Vektorebene">
    <path d="M82.2,593.42c-1.08-.3-1.84-1.52-1.48-2.61,1.81-4.94,2.26-10.36,4.8-15.03,3.13-5.8,4.24-12.43,7.51-18.15,3.86-8.2,5.89-16.96,8.89-25.4,3.58-6.12,5.58-12.47,9.01-18.55,2.4-3.25,3.76-7,5.05-10.72,2.24-5.39,5.89-10.04,8.72-15.11,4.37-6.01,5.89-13.63,10.68-19.35,5.34-4.79,7.51-11.76,12.14-17.02,2.66-2.44,5.96-4.12,8.33-6.89,3.15-3.91,6.15-8.07,10.66-10.52,5.6-2.85,9.61-7.73,15.02-10.75,4.44-2.29,8.81-4.64,13.34-6.72,4.94-1.85,9.52-4.37,13.9-7.29,15.02-7.45,30.74-13.63,46.48-19.42,13.8-4.34,27.77-8.41,40.9-14.49,1.47-.87,3.74-1.83,4.66,.24,.74,1.98-1.14,2.89-2.64,3.49-17.67,8.43-36.92,12.41-54.96,19.77-13.11,5.77-26.93,10.19-38.91,18.17-8.76,4.27-18.47,7.56-26.02,13.72-3.28,3.19-7.34,5.59-11.17,7.94-4,2.66-6.21,7.08-9.65,10.32-2.36,2.31-5.39,3.82-7.67,6.22-2.82,3.65-4.37,8.12-7.34,11.69-6.91,6.2-8.84,15.12-13.8,22.61-2.44,4.25-5.36,8.52-7.7,12.75-1.8,3.51-2.44,7.16-4.42,10.53-4.49,6.42-6.52,14.06-10.53,20.76-2.78,7.59-4.64,15.49-7.83,22.98-3.94,7.85-6.33,16.33-10.2,24.22-1.55,3.04-1.69,13.45-5.75,12.65Z"/>
    <path d="M625.91,593.71c.27-17.02-4.29-33.44-9.64-49.36-6.11-23.37-15.37-46.25-27.04-67.28-3.44-4.76-6.8-9.95-10.23-14.65-7.99-7.53-15.08-15.57-23.79-22.28-5.47-5.6-10.97-10.68-17.78-14.44-11.95-9.34-25.96-16.07-39.84-22.07-15.47-3.55-29.24-11.55-43.54-17.97-2.62-1.24-9.4-1.44-8.32-5.21,1.23-2.63,4.49-.3,6.24,.14,12.4,3.95,23.31,11.47,35.58,15.71,13.55,3.12,25.95,9.56,37.87,16.51,5.67,2.29,10.31,6.29,15.14,9.89,3.41,2.35,7.24,4.13,10.2,7.08,5.59,6.41,12.62,11.19,18.71,17.04,5,6.2,11.51,10.31,15.68,16.96,8.81,11.32,15,24.11,20.31,37.32,4.64,9.43,8.49,19.39,11.22,29.58,3.75,13.06,8.5,25.73,11.07,39.04,1.58,7.89,2.49,15.92,2.4,23.98,0,1.15-.97,2.12-2.12,2.12s-2.12-.97-2.12-2.12Z"/>
    <path d="M394.81,445.23c-8.61,.34-16.4-2.64-24.42-5.24-10.44-2.55-19.74-8.42-28.68-14.06-4.96-2.15-9.22-5.24-12.67-9.41-4.43-3.01-9.55-5.2-12.79-9.71-3.01-5.75-7.74-9.86-11.73-14.79-2.78-2.93-4.23-6.97-6.15-10.31-1.02-1.93-4.25-4.35-1.99-6.44,3.29-2.5,7.02,7.07,8.18,9.37,2.8,5.09,7.05,8.83,10.78,13.08,3.6,6.01,7.82,11.34,14.47,14.13,2.36,1.31,4.19,3.91,5.97,5.63,3.19,2.82,7.13,4,10.54,6.23,8.22,5.67,17.29,10.34,26.99,12.69,5.6,1.7,10.97,4.33,16.92,4.34,16.68,1.81,33.25-5.37,43.37-18.47,5.85-6.89,7.28-16.29,9.48-24.79,1.11-4.95,1.79-10.23,.99-15.22-.42-2.7,3.9-3.34,4.22-.58,1.29,13.49-2.91,27.55-8.64,39.64-9.95,14.79-26.89,24.29-44.84,23.91Z"/>
    <path d="M376.22,386.43c-9.19-.41-18.43-2.71-26.51-7.2-3.1-2.23-5.96-4.8-9.21-6.85-7.7-3.89-13.14-10.71-18.72-16.99-5.02-4.34-8.12-10.12-11.46-15.73-2.99-4.34-6.45-8.36-8.86-13.08-2.83-5.31-5.02-11-7.39-16.5-5.64-9.16-10.12-19.34-10.02-30.3-1.11-8.08-.15-16.02,1.14-23.95,.2,3.28,.96,6.48,2.95,9.24,.06,.09,.13,.18,.19,.26-.7,7.72-.7,15.45,.88,23.16,1.65,9.23,7.67,16.4,10.88,24.98,3.29,8.9,8.41,16.82,14.1,24.33,4.79,9.7,12.86,16.82,19.87,24.84,3.98,3.97,9.36,6.01,13.59,9.6,7.8,6.95,18.62,9.3,28.81,9.95,5.47,.25,10.41-.96,15.51-2.59,1.12-.25,2.29,.52,2.52,1.65,.39,3.05-3.81,2.88-5.82,3.77-3.5,.75-7.05,1.47-10.65,1.47-.6,0-1.19-.02-1.79-.06Z"/>
    <path d="M394.55,378.81c-1.7-2.3,1.67-3.85,3.09-4.81,2.83-1.75,5.89-4.06,7.95-6.56,5.4-7.24,12.81-12.72,18.68-19.52,5.13-6.36,7.55-14.16,11.33-21.28,4.47-6.68,4.77-14.54,7.16-21.94,2.95-9.61,5.34-19.82,4.5-29.81-.6-6.26-3.08-12.1-4.8-18.1-1.58-10.03-2.61-20.27-6.91-29.65-1.12-2.01-2.17-4.11-3.1-6.27-.04-.44-.08-.89-.12-1.33-.13-1.42-.32-2.83-.53-4.23-.31-1.99-.63-3.94-1.35-5.82-.75-1.95-1.86-3.63-3.09-5.29-.42-.56-.87-1.08-1.34-1.57-.63-2.23-1.08-4.51-1.28-6.82-.85-4.39-4.71-6.94-7.52-10.02-3.98-4.23-8.52-8.57-14.08-10.41-6.39-1.36-12.63-3.16-18.24-6.63-18.42-8.86-39.65-24.26-60.34-13.21-11.16,6.37-21.59,16.36-24.35,29.33-3.25,9.73-5.13,19.72-6.27,29.81-1.16,1.13-2.12,2.47-2.8,3.98-1.2,2.66-1.89,5.62-2.44,8.57,.86-11.19,1.74-22.36,4.36-33.36,2.98-10.41,5.53-21.18,13.19-29.31,14.95-16.46,35.05-22.27,55.5-12,11.1,5.08,21.91,10.98,32.84,16.23,4.39,1.52,9.22,1.78,13.39,3.97,7.46,4.27,13.51,10.81,18.96,17.33,2.72,3.86,2.08,9.02,3.67,13.25,1.8,4.22,3.45,8.56,4.54,13,1.54,4.36,3.89,7.76,5.53,11.94,2,6.96,4.79,13.89,4.9,21.21,.44,6.49,3.23,12.5,4.83,18.75,3.95,15.18-1.77,30.33-5.45,44.93-.95,6.25-3.4,12.05-6.64,17.44-3.39,7.24-6.33,15.14-11.72,21.09-4.6,5.16-10.12,9.76-14.79,14.8-3.47,4.91-8.12,8.97-13.29,11.96-.66,.62-1.56,1.15-2.41,1.15-.56,0-1.1-.23-1.54-.81Z"/>
    <path d="M298.77,376.93c-.02-1.34,1.19-2.17,2.41-2.15,11.33-.7,10.24-5.06,10.75-14.57,1-5.69-.44-11.35-2.03-16.77-.41-2.24-3.32-5.73-.47-7.31,3.63-1.07,3.64,4.81,4.83,7.05,1.6,5.63,2.9,11.61,1.88,17.41-.25,4.63,.03,9.25-2.32,13.31-1.65,2.91-5.12,3.88-8.18,4.51-2.22,.3-6.54,1.93-6.88-1.49Z"/>
    <path d="M441.36,382.22c-12.3-3.3-8.42-19.27-8.62-28.83-.05-3.85-.07-7.71,.29-11.55,.75-2.72-1.66-9.63,2.14-9.92,3.88,.09,1.75,9.59,1.92,12.31,.04,7.42-.71,14.82-.33,22.14-.05,4.53,.25,10.68,5.72,11.75,2.66,.69,1.51,4.88-1.13,4.09Z"/>
    <path d="M444.29,383.19c-1.77-.9-5.36-1.64-4.41-4.33,.43-1.02,1.75-1.64,2.79-1.13,1.07,.53,2.16,1.12,3.29,1.55,2.56,1.03,.85,4.99-1.66,3.91Z"/>
    <path d="M390.36,382.9c-1.61-2.28,1.47-3.66,2.87-4.98,1.81-1.46,3.73-5.55,6.36-3.42,1.71,1.79-.45,3.46-1.72,4.66-1.78,1.63-5,6.35-7.51,3.74Z"/>
    <path d="M288.28,302.21c-1.64-.93-4.31-2.06-4.47-4.16-5.81-5.32-9.28-12.63-13.14-19.38-1.81-4.18-2.37-8.84-3.85-13.08-3.23-9.44-7.72-18.25-9.1-28.22-1.94-13.14-.04-26.63,1.9-39.64,1.38-6.25,1.46-12.71,2.9-18.94,3.09-7.34,5.87-14.85,10.32-21.51,1.42-1.95,2.93-3.77,4.09-5.89,.64-.96,1.87-1.37,2.91-.76,3.11,2.27-2,6.5-3.28,8.71-4.31,6.31-6.79,13.44-9.88,20.37-1.22,4.98-1.35,10.12-2.25,15.16-2.2,13.14-4.23,26.62-2.8,39.94,1.03,10.21,5.8,19.52,9.04,29.04,1.71,4.6,2.18,9.59,4.3,14.06,1.67,2.96,3.58,5.78,5.16,8.79,2.31,3.84,5.26,7.55,8.85,10.16,1.14,.92,2.72,1.63,3.23,3.1,.64,2.51-2.42,3.5-4.19,2.12,0,0,.24,.13,.24,.13Z"/>
    <path d="M450.3,270.41c-.91-.7-1.12-2.07-.39-2.98,2.76-3.68,2.61-8.52,4.06-12.73,1.11-5.13,3.22-9.98,4.32-15.13,.37-7.19,.82-14.32,.07-21.44-1.3-7.1-5.51-13.04-7.21-19.99-2.01-4.67-5.25-8.71-6.31-13.79-2.45-9.17-5.68-18.29-10.76-26.34-3.71-5.39-8.45-10.3-12.13-15.61-3.74-3.91-6.88-8.65-10.71-12.34-4.19-2.79-8.37-5.63-12.51-8.49-9.7-5.14-19.46-11.38-30.68-12.37-10.07-1.29-19.44,2.07-28.99,4.61-8.36,1.07-15.88,4.01-23.21,8.03-9.04,3.99-16.54,10.89-23.3,17.91-4.94,5.48-9.27,11.59-14.31,16.88-2.69,1.82-4.92-2.39-1.98-3.88,7.77-9.71,15.64-19.66,25.49-27.39,5.04-3.17,9.68-6.7,15.31-8.78,6.9-4.4,14.84-5.69,22.69-7.35,9.53-2.79,19.08-5.56,29.12-4.24,7.08,.45,13.39,3.83,19.95,6.21,8.16,4.15,15.67,9.34,23.38,14.25,4.53,3.23,7.72,8.39,11.3,12.37,8.53,10.32,17.48,20.62,21.81,33.53,2.54,7.96,4.28,16.17,8.92,23.22,1.12,2.26,1.65,4.69,2.39,6.98,1.29,3.23,3,6.03,4.08,9.33,3,7.35,2.3,15.41,2.1,23.17,.12,5.98-1.46,11.79-3.64,17.32-1.64,3.68-3.09,22.12-8.87,19.03Z"/>
    <path d="M434.08,219.48c-1.8-.23-1.91-2.04-1.83-3.47-.04-.57-.26-1.03-.59-1.4-.28-1.74-.6-3.45-1.24-5.11-.06-.15-.12-.3-.18-.45,2.77,1.08,5.55,2.56,6.11,5.63,.18,1,.18,1.98,.11,2.99-.08,1.06-1.11,1.83-2.12,1.83-.09,0-.18,0-.27-.02Z"/>
    <path d="M432.68,222.25c-.06-.14-.11-.28-.17-.42,0-.09-.01-.18-.02-.26,.99-.26,2.09,.27,2.5,1.23,.54,1.42-.25,2.3-1.35,2.89-.21-1.16-.52-2.31-.96-3.43Z"/>
    <path d="M282.94,270.43c-1.77-18.74,1.94-37.36,4.57-55.79-.13-1.64,.42-3.81,2.49-3.53,1.2,.15,1.97,1.28,1.82,2.45-1.42,13.94-4.84,27.62-4.83,41.71-.36,4.95-.49,9.7,.17,14.59,.37,2.71-3.88,3.32-4.22,.58Z"/>
    <path d="M287.4,270.27c-1.12-.15-2-1.25-1.81-2.39,.29-2.31,.07-4.66,.21-6.98,.98-8.75,1.64-17.53,2.11-26.31,.6-6.71,.73-13.6,1.12-20.2,.2-2.34,.56-4.67,.64-7.02,.08-1.15,1.31-1.96,2.39-1.81,2.88,.59,1.51,4.16,1.53,6.22-.88,10.91-1.28,21.8-1.95,32.7-.68,5.33-.83,10.8-1.58,16.08-.63,2.8,1.58,9.64-2.66,9.71Z"/>
    <path d="M295.72,244.64c-4.28-4.78,13.33-13.48,16.76-15.48,5.76-3.72,11.79-8.24,18.84-8.55,5.35,.42,10.59-.89,15.81,.8,11.59,3.77,2.04,12.98-5.7,13.62-8.08,.43-16.16,.22-24.08,1.75-5.15,1.2-10.61,1.93-13.91,6.38-.9,1.38-3.07,1.46-3.79-.13-.82,1.36-2.35,2.82-3.93,1.61Zm18.37-11.5c6.15-1.52,12.5-1.7,18.8-2.12,5.29-.08,12.04,.61,15.39-4.28-3.2-2.45-7.83-2.21-11.64-1.69-2.21,0-4.29-.35-6.48-.15-5.98,1.23-11.06,5.04-16.07,8.24Z"/>
    <path d="M381.22,224.77c-1.85-.66-1.86-2.97-2.9-4.39-.55-.74-1.18-1.43-1.78-2.15-1.17-1.36,.14-3.66,1.87-3.4,.96-5.91,7.14-6.96,11.79-8.59,13.23-4.16,26.83-.62,39.76,2.78,2.63,.72,1.52,4.87-1.13,4.09-8.68-2.18-17.27-4.65-26.29-4.53-4.95,.08-9.93,1.13-14.55,2.93-5.05,.72-6.93,4.9-4.69,9.37,1.31,1.63,.19,4.54-2.1,3.89Z"/>
    <path d="M380.16,225.16c-.74-.96-.5-2.22,.38-2.99,1.75-2.05,4.23-2.23,6.72-2.55,9.22-2.64,18.76-2.03,28.22-1.92,5.43-.03,10.52-1.07,15.91-.17,1.62,0,3.93,.07,3.95,2.21-.41,3.63-5.24,1.58-7.62,1.71-7.42-.05-14.89,.98-22.36,.35,.04,0,.08,0,.12,.01-5.76-.36-11.23,.53-16.72,1.83-1.97,.56-4.22,.13-5.62,1.89-.87,.76-2.3,.5-2.98-.38Z"/>
    <path d="M431.88,215.76c-1.2-1.2-2.53-1.8-3.97-2.58-2.39-1.37-.23-5.06,2.15-3.67,1.73,.9,3.46,1.84,4.82,3.24,1.98,1.9-1.05,4.96-3,3.01Z"/>
    <path d="M297.09,243.27c-1.4,1.21-3.81-.16-3.48-2.07,.59-2.87,3.11-4.9,5.36-6.56,4.86-3.19,9.62-6.43,15.08-8.49,4.82-2.46,10.44-3.26,15.65-4.57,4.39-1.52,9.35-3.53,13.86-3.78,1.94-.08,4.1-.91,5.9,.18,3.42-1.01,3.01,2.86,2.7,4.88-.54,2.71,1.45,9.55-3.1,8.97-4.89,2.14-10.26,2.69-15.54,2.71-8.07,1.03-16.2,2.05-24.21,3.35-3.6,1.24-6.37,3.83-9.48,5.9-.88,.56-2.08,.27-2.72-.51Zm15.24-10.85c-.33,.22-.66,.44-.99,.65,6.9-.36,13.54-1.95,20.38-2.64,5.47-.28,10.54-.29,15.53-2.46-.12-1.63,.04-3.39-.59-4.89-6.08-.64-12.01,.95-17.51,3.3-5.68,1.85-12.09,2.14-16.83,6.04Z"/>
    <path d="M379.26,245.17c-.69-.87-.58-2.32,.38-2.98,6.66-4.2,12.96-9.11,21.05-10.02,8.36-1.12,18.97-1.44,25.1,5.32,1.73,2.18-1.73,4.8-3.38,2.57-7.73-6.83-20.95-4.48-29.81-1.17-2.98,1.95-5.87,4.09-9.04,5.76-1.23,.96-3.05,2.14-4.3,.52Z"/>
    <path d="M402.01,247.21c-9.01-.7-9.03-11.34-.92-13.31,2.74-.15,12.46-1.13,10.09,3.65,4.84,6.13-3.63,10.74-9.17,9.66Zm2.99-4.79c.65-.03,1.38-.24,1.76-.8-.58-1.5-3.18-1.36-2.99-3.38-2.16-.46-4.48,.34-3.87,2.93,1.68,1.11,3.52,1.29,5.38,1.24,0,0-.29,.01-.29,.01Z"/>
    <path d="M435.02,416.05s-.02,.02-.02,.04c0-.01,.02-.02,.02-.04Z"/>
    <path d="M307.59,258.84c-3.64-2.51,1.7-6.74,3.47-8.87,3.13-4.02,8.35-4.24,12.9-5.47,7.06-.55,14.28-1.03,21.14,.93,1.91,.38,5.11-.63,5.24,2.24-.63,4.18-7.24,1.34-9.91,1.07-5.42-.92-10.76-.35-16.07,0-2.56,.83-5.3,1.04-7.78,2.04-2.43,1.77-4.54,4-5.99,6.44-.35,1.3-1.72,2.17-3,1.62Z"/>
    <path d="M324.54,259.8c-7.21-1.53-4.79-11.66,1.22-12.92,3-.77,6.55-.59,9.04,1.39,2.46,1.27,3.36,4.66-.14,4.9,2.78,6.15-5.62,8.44-10.11,6.63Zm4.01-3.68c.8-.1,1.65-.21,2.35-.63-.42-2.16-2.8-5.5-5.21-3.87-.15,.51-.48,.93-.91,1.21-.27,.67-.46,1.4-.49,2.13,0,0,0,0,0,0h0c1.23,.93,2.78,1.21,4.26,1.16Z"/>
    <path d="M346.37,295.03c-4.78-5.05,.39-11.45,4.12-15.33,1.75-3.32,3.44-6.84,4.68-10.37,.35-1.77,.33-4.67,2.86-4.4,1.12,.15,2.01,1.25,1.81,2.39-.84,5.47-3.48,10.66-6.28,15.37-2.07,2.47-5,4.7-4.8,8.23,.04,.63,.64,1.02,.98,1.51,1.72,2.14-1.67,4.77-3.36,2.6Z"/>
    <path d="M375.08,292.23c-2.16-5.27,16.94-6.17,14.81-.63-.43,1.03-1.74,1.64-2.79,1.13-2.24-.76-4.52-.54-6.78-.41-1.69,.64-4.15,2.29-5.24-.09Z"/>
    <path d="M354.57,295.61c-2.84-4.35,10.14-7.9,9.28-2.32-.65,2.18-2.62,1.27-4.24,1.52-1.65,.55-3.42,2.84-5.04,.81Z"/>
    <path d="M355.32,266.46c.07-4.12,1.08-8.23,.61-12.35-.12-1.15,.64-2.22,1.83-2.39,4.91-.28,1.43,11.57,1.81,14.74-.04,2.77-4.23,2.77-4.25,0Z"/>
    <path d="M346.01,323.09c-1.69-.11-4.25,.14-4.28-2.22,0-1.14,.96-2.16,2.12-2.12,2.47,.06,4.38,.35,6.74,.09,7.8-1.53,14.67-6.42,22.63-7.5,11.54-3.51,24.29,2.26,35.6-2.23,2.5-1.09,4.22,2.85,1.65,3.92-11.33,4.91-24.16-.72-35.74,2.34-9.98,1.19-18.48,8.93-28.78,7.73,0,0,.05,0,.05,0Z"/>
    <path d="M375.68,341.61c-6.5-.2-13.33-2.3-17.89-7-2.55-1.4-4.74-3.27-6.72-5.38-2.52-1.19-4.49-3.25-6.87-4.56-2.54-1.05-.87-5.02,1.65-3.92,1.59,.5,2.64,1.72,3.94,2.67,1.72,1.28,3.83,2.02,5.21,3.71,3.01,2.92,6.61,4.99,9.84,7.62,6.24,2.94,13.82,3.41,20.27,1.3,4.67-2.4,9.09-4.13,11.26-9.2,1.48-1.64,2.97-3.32,4.27-5.12,1.68-2.32,2.06-5.06,4.01-7.14,.86-.78,1.79-1.41,2.36-2.46,1.64-2.18,5.05,.42,3.36,2.6-.72,1.28-1.93,2.12-2.94,3.12-1.96,4.61-4.77,8.54-8.1,12.22-1.09,3.39-4.26,5.15-7.06,7.02-4.95,3.17-10.69,4.73-16.57,4.5Z"/>
    <path d="M277.73,290.62c-3.08-2.22-2.88-6.15-4.01-9.35-.01,0-.02,.01-.03,.02-2.04-7.06-5.22-13.56-5.53-21.01-4.43-9.02-5.79-19.56-7.05-29.5-6.69-6.91-2.43-20.84-1.46-29.49,2.25-14.92,8.22-29.41,16.34-42.06-2.3-3.25-.72-7.48,2.22-9.74,4.04-4.2,8.49-8.01,12.58-12.11,8.27-6.28,16.9-12.04,26.04-17.02,5.82-2.41,12.34-8.83,18.88-5.93,4.64-2.31,12.22-4.17,14.17,2.41,.68,.12,1.35,.35,2,.73,1.77,1.04,2.89,2.78,3.2,4.68,10.25,7.72-5.14,15.66-11.18,19.66-4.67,2.9-9.63,5.37-14.13,8.55-1.2,1.3-2.97,2.11-4.87,2.14-11.04,6.65-17.27,19.23-27.13,27.53-2.73,10.3-5.76,20.02-6.87,30.2-.92,5.18,.49,11.95-4.23,15.53-.3,9.86-1.32,19.71-1.34,29.56,.19,5.01,1.53,10.12-.27,14.93,.43,2.97,.72,4.32,1.26,6.94,1.01,4.16,3.51,9.23-.08,12.81-2.19,2.19-6.09,2.6-8.52,.52Z"/>
    <path d="M445.17,264.43c-1.16-3-.03-6.19-.73-9.28-.9-2.01-1.11-4.26-1.71-6.32-2.79-6.23-2.15-13.17-4.15-19.56-4.7-11.88-7.45-24.33-11.16-36.51-5.43-3.12-9.09-8.42-13.78-12.48-6.73-1.89-11.3-7.81-18-9.35-3.57-1-7.2-1.83-10.74-2.97-3.9-.72-5.84-3.39-9.04-4.9-9.01-4.31-19.47-7.01-26.82-14.02-6.01-1.82-12.39,.7-18.28-.96-7.99-3.38-4.17-14.45,3.6-14.95-1.48-5.49,4.13-9.95,9.33-9.23-3.42-3.95-4.97-10.76,.8-13.46,2.78-1.29,5.84,.35,8.75-.45,2.4-4.09,7.55-2.92,11.48-2.43,5.91,.59,11.55,1.77,16.51,5.2,6.9,1.27,13.36,3.92,18.89,8.28,8.65,3.57,15.97,9.67,23.28,15.44,4.74,4.55,6.87,10.9,9.71,16.65,2.03,4.07,5.88,7.12,7.42,11.43,2.45,5.62,4.49,10.48,7.63,15.51,2.69,6.92,3.16,14.52,6.75,21.13,3.76,13.14,7.5,26.01,6.48,39.72-.94,6.14-3.43,11.41-3.82,17.41,.07-.31,.11-.55,.17-.83-.39,3.4,.29,7.05-2.81,9.5-3.13,2.52-8.27,1.23-9.76-2.57Z"/>
    <path d="M402.62,248.41c-11.91-2.72-3.59-18.63,5.42-11.4,4.53,4.1,.8,12.51-5.42,11.4Z"/>
    <path d="M323.1,258.41c-5-4.96,1.19-13.26,7.38-12.2,3.77,.42,6.77,3.86,6.24,7.72-.77,6.03-9.42,8.38-13.62,4.48Z"/>
    <path d="M135.61,492.79c-7.45-2.94-3.51-12.02,.71-16.13,3.02-5.99,6.94-11.47,10.67-17.02,6.58-7.14,13.99-13.56,22.13-18.91,3.48-3.95,8.54-5.65,11.98-9.6,5.36-3.6,8.95-7.71,15.12-9.55,4.51-1.67,8.17-5.23,13.06-5.82,.51-.2,.43-.2,.83-.4,10.42-5.81,21.82-9.78,33.09-13.57,5.53-1.09,11.98-6.61,17.26-2.56,6.97-1.43,10.52,8.33,4.36,11.78,0,.05,0,.1,0,.15,4.33-1.07,10.18-3.13,12.72,2.02,3.23,7.02-4.77,10.01-10.22,11.15-11.44,3.95-22.62,8.65-33.71,13.51-6.11,2-14.22,9.58-20.05,3.57-1.3,.31-2.63,.45-3.97,.26-1.59-.23-2.97-1.21-3.89-2.5-3.49,1.46-7.98,.11-9.37-3.59-3.62,3.28-7.69,5.6-11.08,9.1-3.5,1.84-6.37,4.33-9.36,6.89-7.35,5.19-15.01,10.78-20.27,18.15-4.27,5.39-6.74,12-11.25,17.17-.74,4.1-4.57,7.41-8.77,5.92Z"/>
    <path d="M384.58,455.58c-1.36-9.66,12.03-8.08,18.16-10.59,6.78-1.55,13.78-4.21,19.28-8.34,4.75-3.45,9.46-7,12.95-11.69,2.96-7.44,5.29-15.58,6.31-23.52,2.39-7.09-.68-24.67,11.13-22.16,4.01,1.36,5.19,5.94,3.49,9.55-.37,3.43-.87,6.83-1.24,10.27-1.69,8.77-2.71,17.76-6.29,26.01-.74,3.83-3.32,8.45-6.05,10.78-3.07,3.92-7.1,6.88-11.11,9.7-4.81,3.68-9.63,6.55-15.05,8.75-7.87,2.45-15.94,4.49-24.04,6.16-3.35,.6-6.83-1.41-7.56-4.92Z"/>
    <path d="M389.46,457.8c-8.1-.56-15.06-5.3-22.54-7.81-12.26-2.28-22.02-10.55-32.2-17.13-12.33-5.45-21.63-15.07-29.91-25.45-4.11-6.09-8.32-10.38-10.69-16.73-2.86-4-7.77-7.7-3.59-12.8,4.92-4.95,9.76-1.92,12.48,3.41,2.32,2.64,3.36,5.99,5.02,9.02,2.37,2.28,4.12,5.04,5.67,7.9,7.7,9.8,16.43,18.97,27.96,23.97,7.85,5.2,14.7,10.49,23.18,14.15,5.62,1.28,10.98,3.36,16.1,5.69,3.08,1.18,6.17,3.01,9.52,3.08,6.62-1.47,13.32-1.23,20.03-1.39,8.17-1.55,10.8,10.57,2.62,12.47-4.1,.87-8.26,0-12.39,.44-3.81-.1-7.45,1.44-11.26,1.18Z"/>
    <path d="M82.83,597.73c-6-3.33-2.78-9.09-.41-13.7,3.72-9.33,7.42-18.65,11.43-27.86,2.39-8.73,7.42-16.2,10.41-24.66,2.91-5.5,6.53-10.62,8.64-16.51,2.12-5.09,4.5-9.93,7.46-14.54,1.74-4.01,3.5-8.06,5.93-11.77,1.96-2.41,2.96-5.28,4.35-8.01,2.84-4.6,6-8.5,8.2-13.23,5.79-7.26,10.66-15.24,16.89-22.18,1.56-1.66,3.42-2.69,5.29-3.92,2.35-2.18,4.57-4.3,7.55-5.61,6.3-2.73,10.38-6.27,16.61-8.33,3.76-3.17,9.38-5.1,13.56-7.04,3.16-1.94,6.1-4.14,9.8-5.03,9.6-5.3,19.34-10.67,30.03-13.32,7.01-3,15.51-4.41,22.75-5.92,5.08-2.19,12.44-1.39,12.28,5.61-.21,3.6-3.37,6.06-6.83,6.06-12.71,3.09-25.77,5.39-37.52,11.39-7.21,2.65-13.56,7.2-20.67,10.03-5.34,4.08-12.27,5.23-17.5,9.52-4.16,1.31-7.52,3.89-11.45,5.67-3.71,1.95-7.56,3.52-10.4,6.72-5.77,3.53-10.22,10.15-14.06,15.74-1.56,2.68-3.45,5.14-5.54,7.41-.97,2.13-2.17,4.48-3.59,6.22-4.24,5.65-7.18,12.86-11.04,18.62-1.88,3.46-2.82,7.26-5.31,10.39-4.56,8.84-7.98,18.21-13.43,26.59-2.45,5.61-4.68,11.28-7.67,16.64-2.84,8.14-6.03,16.02-9.57,23.8-1.66,5.03-3.74,9.9-5.89,14.74-1.5,4.42-5.17,8.99-10.27,6.48Z"/>
    <path d="M180.85,436.93c-5.83-7.38,5.67-13.3,11.08-15.87,3.49-1.86,6.4-4.77,10.52-5.33,4.16-1.18,7.36-4.1,11.25-5.82,9.51-3.77,19.01-7.5,28.12-12.15,5.91-1.92,11.6-4.29,17.49-6.32,4.63-1.34,9.33-2.33,13.6-4.62,4.72-2.03,8.81-2.5,12.27-6.18,3.73-3.23,9.98-6.71,13.61-1.46,1.93,2.84,1.21,6.95-1.7,8.85-3.4,1.59-5.7,4.54-8.84,6.48-4.99,2.21-10.33,3.69-15.18,6.3-3.87,1.18-8.36,2.09-12.07,3.56-4.85,1.48-8.31,3.67-13.13,4.69-4.46,1.94-8.65,4.56-13.28,6.08-5.65,4.5-13.03,6.57-19.3,10.22-3.95,1.75-8.62,1.71-12.28,4.11-2.94,2.32-6.57,3.34-9.67,5.32-3.24,3.3-8.69,6.49-12.5,2.14Z"/>
    <path d="M616.86,596.39c-3.84-2.9-4.32-8.16-4.76-12.6-1.27-6.13-1.78-12.4-3.39-18.46-6.22-16.87-10.36-34.37-16.25-51.36-1.51-5.34-4.84-9.78-6.99-14.85-2.32-5.53-3.79-11.38-6.75-16.64-3.84-10.42-12.81-16.35-20.66-23.2-4.1-4.13-8.16-8.63-12.32-12.6-5.65,1.02-9.26-5.05-13.47-7.81-6.99-7.11-15.32-12.22-24.06-16.9-6.63-4.29-14.63-5.56-21.3-9.7-2.89-1.99-5.42-4.57-8.75-5.86-2.59-.41-5.28-.62-7.6-1.95-3.96-2.64-8.89-4.14-12.67-6.93-2.37-.23-5.02,.44-7.54,.01-8.32-.68-7.6-13.02,.79-12.72,2.92,.46,5.77-.88,8.69-.02,4.85,1.2,8.49,4.68,13.14,6.34,2.35,1.48,4.64,2.65,7.48,2.73,3.34,.62,6.24,2.53,9.05,4.35,5,4.91,11.78,6.23,17.97,8.97,9.74,5.18,19.16,9.9,27.44,16.78,6.83-1.21,11.95,6.47,16.42,10.42,4.85,4.82,9.85,9.36,14.29,14.5,6.13,5.51,11.82,9.88,17.42,15.71,4.16,5.43,6.25,10.5,9.12,16.38,2.16,2.84,2.95,6.34,4.34,9.61,4.78,5.55,7.21,12.25,8.5,19.35,5.03,13.54,11.48,26.64,15.54,40.52,1.4,5.63,1.77,11.38,2.99,17.02,1.29,4.63,3.74,8.88,4.25,13.71,1.27,7.37-.56,20.24-10.91,15.19Z"/>
    <path d="M211.04,523.02c-5.96-3.25-7.24-15.26,1.05-16.11,3.43-.25,6.29,2.27,6.8,5.56,9.22,.64,18.11-2.41,26.58-5.7,11.29-3.34,22.27-7.34,32.95-12.28,1.2-6.82,11.7-6.85,14.46-1.07,1.46,2.87,.66,6.8-1.89,8.82-13.92,8.26-29.82,12.63-45.04,17.94-10.74,3.73-24.09,8.08-34.91,2.84Z"/>
    <path d="M222.54,526.7c-5.15-.22-7.88-6.74-4.42-10.56,6.1-4.56,13.31-7.83,19.7-12.14,.25-2.05,1.53-3.93,3.45-5.02,6.79-4.01,13.73-7.77,20.71-11.44,5.45-3.31,10.91-6.67,16.87-8.98,4.2-1.75,9.17,2.36,8.41,6.76,2.63-.72,5.58-1.91,8.33-1.29,6.68,1.56,6.62,10.41,.48,12.81-12.09,6.74-25.69,9.98-38.27,15.7-10.8,3.91-20.3,8.34-30.62,12.83-1.46,.79-2.97,1.51-4.65,1.33Z"/>
    <path d="M101.46,636.25c-20.93-18.26-21.92-49.7-4.77-70.87,2.54-9.67,8.12-18.89,14.89-26.38,4.48-3.59,4.7-8.99,6.59-14.05,2-4.77,3.86-9.5,5.92-14.26,6.44-12.21,15.86-22.21,22.23-34.54,12.8-18.64,29.81-35.47,49.57-46.5,9.46-7.5,20.89-12.06,31.97-16.73,4.33-4.61,9.2-8.63,15.17-11.3,11.74-4.32,22.79-8.91,35.54-8.46,19.02,.83,36.37,14.02,43.25,31.53,11.08,4.35,19.64,12.91,29.61,19.28,8.38,1.95,25.99,6.55,31.69,9.02,5.2,2.58,10.87,3.32,16.59,3.68,5.56-3.44,12.11-5.67,17.08-7.11,5.03-2.35,10.02-5.08,15.19-7.05,17.94-41.28,65.79-44.21,97.9-16.99,9.39,7.2,15.76,16.53,24.75,24.16,19.5,18.09,33.24,41.86,42.33,66.76,4.1,7.99,7.62,15.61,9.64,24.36,13.53,27.61,13.81,54.74-12.92,74.34-13.36,9.52-29.91,9.95-45.66,10.4-17.92,1.29-26.53,2.57-40.83,2.34-35.65-.47-71.15,2.41-106.67,4.38,0,0,0,.07,0,.07-28.09,.58-53.6,1.83-80.87,4.01-23.59,3.59-47.7,3.35-71.35,.46-11.68,.23-23.34,3.78-35.04,.36-13.25-3.73-26.92-6.06-40.69-6.8-16.6,21.17-51.63,24.65-71.11,5.88Z"/>
    <path d="M104.96,644.21c-26.88-13.73-33.3-43.97-22.27-68.13,3.33-11.16,11.19-19.62,19.98-27.08,6.46-8.05,13.56-15.75,21.91-21.91,5.07-3.96,8.33-9.38,13.28-13.45l1-1.47c6.27-10.14,14.86-18.04,26.4-22.11,21-7.69,46.22,.9,58.08,19.86,42.5-3.77,84.82,.08,127.31,.97,25.39,.39,51.11,1.92,76.47,3.45,9.26,.05,18.44,.33,27.69,.46,15.63-6.05,35.72-3.88,49.44,5.7,22.19,14.73,28.97,46.76,13.6,68.78-17.18,24.65-47.08,26.67-73.88,24.16-21.42-.15-42.04-.95-63.26-2.39-43.92-1.3-87.86-3.75-131.83-3.68-11.03,.33-21.98,2.01-33.01,2.34-9.02,.84-19.2-.57-27.23,3.95-7.48,5.48-15.73,8.65-21.44,16.15-14.74,18.18-40.85,25.17-62.23,14.41Z"/>
    <path d="M290.18,408.31c-11.13-1-8.62-24.4,3.22-18.26,7.54-3.33,12.63,8.73,6.6,13.32-1.21,3.71-6.02,6.77-9.81,4.94Z"/>
    <path d="M448.11,428.12c-2.39-3.86,1.14-8.04,1.15-12.04,.14-2.68,.36-5.37,.4-8.06-.39-2.76-.32-6.38,3-7.18,.93-3.94,4.93-4.04,8.09-3.07,4.09-5.69,9.56,1.41,12.43,4.75,5.66-4.24,9.33,4.98,13.86,7.11,3.87,3.29-.72,9.59-5.03,6.8-.91,.74-2.13,1.11-3.43,.95-.11,.36-.28,.71-.5,1.04-.68,1.01-1.86,1.73-3.09,1.88,.07,3.72-5.07,5.69-7.44,2.76-1.63-2.45-3.29-4.86-4.77-7.41-.25,3.17-.09,6.37,0,9.52-.16,3.58-4.85,5.34-7.29,2.7-1.68,2.52-5.67,2.94-7.37,.25Z"/>
    <path d="M556.12,624.4c-5.08-9.1,10.79-8.33,15.93-10.21,9.41-3.46,19.52-5.03,28.48-9.69,4.26-2.47,6.21-7.46,8.06-11.85,1.15-2.48,4.68-3.11,6.65-1.25,.56-.05,1.15,.02,1.75,.22,1.25,.43,2.08,1.24,2.69,2.24,.29,.15,.57,.33,.82,.53,.37-.4,.72-.82,1.06-1.24,.03-.04,.06-.08,.08-.11-4.42-2.49-1.42-9.35,3.45-7.75,11.68,2.13,4.66,13-1.21,17.65-4.43,4.59-9.98,7.3-16.04,8.89-6.79,3.49-13.92,6.42-21.58,7.13-4.17,1.62-8.56,2.66-12.83,3.82-4.26,1.79-8.84,2.93-13.46,3.19-1.45,0-2.86-.35-3.87-1.56Z"/>
    <path d="M125.47,651.94c-4.5-.83-14.27-.97-12.73-7.7,2.2-5.5,8.03-1.06,12.06-.93-.59-3.59,4.35-6.23,7.01-3.59,.84,.82,1.66,1.65,2.56,2.39,5.52,.57,11.57,.13,16.94-1.27-5.69-3.31-1.91-9.04,3.82-9.03-.51-8.19,34.67-7.12,41.22-7.52,3.55-.11,7.1-.15,10.62-.52,2.46-.68,5.66-.56,6.82,2.02,13.2,.23,24.78-7.23,37.78-7.85,4.62-.85,7.86,4.93,3.78,7.86-4.14,1.89-8.95,2.08-13.31,3.51,.36,3.68-3.14,4.96-6.1,4.74-8.19,1.33-16.57,1.36-24.86,1.6-5.19,1.23-10.01,2.47-14.82,4.26-7.95,2.29-16.33,2.41-24.35,4.32-9.12,1.45-17.23,5.73-26.4,6.48-6.9-.06-13.3,1.54-20.05,1.24Z"/>
    <path d="M378.67,224.72c-.91-3.62-3.26-6.91-2.7-10.69-.41-2.95,3.02-4.65,4.69-1.92,.53-.38,1.22-.43,1.83-.24,.27-.21,.59-.37,.93-.43,.42-.58,1.14-.95,1.85-.88,.32,.03,.61,.11,.87,.24,.36-.3,.79-.45,1.25-.48,.11-.3,.28-.56,.48-.81,.7-.89,2.12-.93,2.95-.24,.47-.2,1.01-.23,1.5-.09,.21-.7,.75-1.23,1.44-1.49,.79-.29,1.59-.06,2.15,.47,.35-.11,.73-.14,1.08-.08,.83-2.06,3.95-1.6,4.26,.56,.2-.02,.41-.01,.62,.04,.16-.51,.44-.95,.93-1.28,1.02-.7,2.28-.34,2.96,.6,.48-.05,.98,.05,1.45,.33,.32,.19,.56,.44,.74,.74,.05-.04,.09-.07,.14-.1,.6-1.65,3.07-1.81,3.95-.38,.17,0,.34,0,.51,.05,.43,.12,.81,.28,1.13,.57,.32-.19,.69-.31,1.05-.33,.59-.04,1.21,.18,1.68,.57,.44-.17,.93-.19,1.42-.03,.08,.03,.15,.05,.22,.09,2.34-2.72,6.22-.02,8.74,1.12,1.94,1.02,4.18,1.4,5.84,2.95,3.46,2.69,.03,6.78-3.4,4.32-.86,.43-1.88,.58-2.81,.29-.46,.32-.98,.51-1.54,.63-.92,.2-1.85,.07-2.77-.14-1.35,1.96-4.52,1.06-6.02-.28-.26-.02-.52-.08-.76-.18-.25,.43-.6,.79-1.1,1.02-.75,.34-1.69,.3-2.32-.28-.77,.23-1.66-.03-2.24-.63-.09-.09-.17-.2-.24-.3-.35,2.76-4.19,2.91-4.52,.06-.03,0-.06,0-.09,0-.59,1.73-3.04,2.08-3.98,.47-.57,.27-1.23,.27-1.81,.04-.03,.03-.07,.05-.1,.08-.86,.58-2.01,.47-2.77-.21-.12,.06-.25,.12-.39,.17-.38,.12-.79,.14-1.17,.06-.2,.23-.45,.42-.74,.57-.48,.24-1.01,.29-1.51,.17-.28,.51-.7,.93-1.32,1.15-.93,.33-1.79-.03-2.37-.71-.09,0-.17,0-.26-.01-.46,.76-1.17,1.32-2.16,1.26-.28-.02-.54-.09-.78-.2-.43,.2-.94,.24-1.41,.12-.05,.03-.11,.06-.16,.09-.57,.27-1.21,.28-1.76,.06h0c.46,1.55,1.21,3.84-.83,4.56-.98,.35-2.12-.1-2.6-1.05Z"/>
    <path d="M319.26,232.45s-.01,0-.02-.01c-3.53-.08-2.44-5.11,.84-4.22,.1-.14,.22-.27,.36-.4,.46-.41,1.06-.58,1.65-.54,.46-.62,1.2-.96,1.96-.91,.44-.26,.95-.37,1.46-.32,.03-.03,.06-.05,.09-.08,.49-.45,1.12-.6,1.76-.55,.34-.47,.89-.79,1.44-.87,.07-.15,.15-.3,.26-.44,.59-.79,1.56-1.13,2.48-.83,.5-.63,1.24-.94,1.98-.84,.29-.17,.61-.25,.94-.25,.31-.33,.7-.57,1.15-.67,.97-.2,1.85,.27,2.39,1.03,.22-.1,.46-.16,.7-.17,.36-1.94,3.08-2.34,3.98-.57,.22-.02,.44-.01,.66,.03,0,0,0,0,.01-.01,.53-.5,1.32-.64,2-.45,.27-.33,.65-.58,1.07-.7,.13-1.44,.13-3.39,1.61-4.15,1.11-.54,2.77-.15,3.32,1.01,2.44,2.02,2.65,6.33,2.74,9.18,.05,1.7,.87,4.31-1.47,4.82-1.45,.33-2.61-.93-2.65-2.32-.17-.17-.3-.37-.39-.58-.05,.02-.09,.05-.14,.07-.09,.25-.22,.48-.41,.7-.4,.45-.93,.69-1.48,.73-.02,1.89-2.59,2.69-3.76,1.27-.44,1.02-1.58,1.71-2.7,1.28-.46-.18-.79-.42-1.1-.8-.57,.4-1.33,.49-2,.26,0,0,0,0,0,0-.57,.26-1.18,.27-1.72,.06-.17,.09-.35,.15-.54,.19-.05,.01-.1,.02-.15,.02-.91,1.28-2.95,1.04-3.67-.28-.19,.07-.38,.11-.59,.12-.4,.03-.79-.06-1.15-.22-.6,.33-1.36,.35-2,.06-.23-.1-.42-.24-.58-.41-.16,.08-.34,.15-.53,.19-.68,.14-1.28-.04-1.78-.41-.34,.47-.85,.81-1.43,.91-.05,0-.1,.01-.14,.02-.91,1.96-3.19,1.3-4.46,.05Z"/>
    <path d="M307.3,235.82c-.58-1.76,1.07-3.27,2.26-4.34,.21-1.4,2.11-2,2.96-2.76,1.76-1.7,3.99-3.09,6.19-3.91,2.58-2.06,5.83-2.68,8.89-3.61,1.37-1.03,3.07-1.95,4.72-2.18,1.97-.85,3.8-1.27,5.89-1.6,2.76-1.02,5.65-2.08,8.6-1.8,3.34-1.45,5.67,2.51,2.18,3.89-2.54,.49-5.09,.29-7.57,1.21-1.89,.97-4.04,1.03-5.93,1.61-1.31,.74-2.94,.81-4.24,1.5-2.78,2.44-7.01,1.94-9.84,4.29,0,0,0,0,0,0,3.26,4.53-4.88,5.73-7.69,6.6-1.84,1.12-4.94,4.35-6.42,1.09Z"/>
    <path d="M300.01,239.9c-7.28-2.16,6.33-11.93,8.92-13.52,3.51-1.57,6.21-4.02,9.84-4.85,4.22-1.54,7.76-3.68,12.25-4.13,5.71-1.25,11.39-2.56,17.27-1.65,1.15,.12,2.07,1.06,1.99,2.25-.08,1.13-1.11,2.11-2.26,1.99-4.98-.68-9.82-.01-14.6,1.34,.36,2.35-2.2,2.45-3.79,3.05-2.38,.75-4.84,1.26-7.23,1.91-2.35,1.75-5.42,3.02-8.01,4.28-1.93,1.45-3.76,2.89-6.09,3.65-1.54,1.63-3.18,3.01-5.29,3.89-.83,.81-1.72,1.86-3,1.78Z"/>
    <path class="cls-1" d="M455.45,508.2c-4.78-5.49-5.21-13.16-6.78-19.97-.61-2.69,3.61-3.58,4.15-.9,1.42,6.07,1.7,12.21,5.22,17.35,1.76-4.16,.74-9.2,3-13.11,1.96-2.13,4.66,.04,5.7,2.01,2.09-5.76,7-1.85,9.07,1.67,1.85-3.63,6.11-5.15,9.96-5.39,1.74,0,4.49,0,4.4,2.4-.16,2.21-2.48,2.09-4.12,1.84-1.3,.07-2.59,.37-3.78,.84-1.57,.56-2.47,1.82-3.28,3.19-3.34,4.57-6.16,.29-8.43-2.67-1.01,3.65-4.89,5.99-6.75,1.57-.45,4.28-1.7,16.28-8.37,11.17Z"/>
  </g>
</svg>