<?xml version="1.0" encoding="UTF-8"?>
<svg xmlns="http://www.w3.org/2000/svg" viewBox="0 0 586.02 823.73">
  <defs>
    <style>
      .cls-1 {
        fill: #fff;
      }

      .cls-2 {
        fill: #f3c25f;
      }

      .cls-3 {
        fill: #f5cf1f;
      }
    </style>
  </defs>
  <g id="Vektorebene">
    <path class="cls-3" d="M459.03,447.42c2.43,2.56,5.06,4.98,7.84,7.18-4.29,.82-8.57,1.66-12.85,2.51,1.93-3.09,3.62-6.33,5.01-9.68Z"/>
    <path class="cls-3" d="M456.64,452.53c.91,1.17,1.81,2.34,2.7,3.53-1.77,.35-3.54,.69-5.31,1.04,.93-1.49,1.81-3.02,2.62-4.57Z"/>
    <path class="cls-2" d="M238.47,824.34c-22.81-.91-44.46-8.55-66.25-14.58-18.48-3.75-37.23-7.04-54.88-13.91-13.61-5.52-25.07-14.83-36.46-23.86-14.5-9.94-26.07-23.2-34.6-38.54-14.64-13.28-23.46-30.69-29.54-49.23-18.73-52.37-3.9-109.76,12.32-160.92,5.4-14.9,17.35-25.56,23.71-39.9,14.43-26.47,35.38-49.95,63.67-61.7,3.24-5.3,7.62-9.85,11.35-14.73,1.71-5.59,3.15-11.26,4.51-16.94,2.52-15.29,4.97-30.5,1.23-45.84-10.03-29.85-17.23-60.97-18.7-92.52-1.56-36.96,5.67-75.07,28-105.3,7.95-14.19,12.85-30.19,24.65-42.03,21.18-27.26,45.73-52.43,76.06-69.49,17.14-9.77,37.04-12.27,54.04-22.23,33.47-15.25,61.6-13.3,89.91,11.24,12.11,5.36,23.86,12.08,31.77,23.24,15.04,15.65,27.38,32.22,37.29,50.84,17.86,32.21,19.92,70.54,16.2,106.31-2.06,15.04-.26,29.72,.58,44.75-.09,17.84-1.43,35.74-3.46,53.47-7.91,42.79,2.2,85.9,13.15,127.13,2.77,27.52,8.9,54.62,8.16,82.41,2.48,30.9-5.21,61.51-14.77,90.67,3.08,19.48,5.3,39.86-.58,59.06-8.37,21.22-20.57,40.86-31,61.14-22.08,35.93-57.74,62.44-95.91,79.37-17.29,6.09-35.39,9.93-53.22,14.07-18.06,7.14-37.91,9.3-57.24,7.99Zm145.81-349.18c8.61-5.91,19.58-8.13,30.03-5.54-1.85-18.41-4.88-36.26-10.42-53.93-4.45,6.62-9.74,12.66-16.09,17.8-1.71,1.38-3.52,2.61-5.42,3.68,.84,12.65,1.49,25.33,1.9,38Zm-63.7-337.42c3.18-.63,6.46-.92,9.83-.86,2.4,.05,4.74,.29,7.01,.71-2.83-1.34-5.64-2.73-8.39-4.25-1.9-1.05-3.76-2.19-5.59-3.37-1.72,.89-3.43,1.79-5.16,2.67,.72,1.72,1.49,3.41,2.3,5.1Z"/>
  </g>
  <g id="Vektorebene-2" data-name="Vektorebene">
    <path d="M75.71,638.11c-4.15-.63-.01-9.68,.09-12.32,1.14-7.45,2.95-14.66,3.57-22.09,2.63-19.62,4.53-39.5,10.62-58.42,4.01-15.2,6.58-30.84,11.64-45.73,3.51-9.45,8.78-18.07,11.89-27.68,1.85-3.9,3.2-8.02,5.01-11.95,2.78-5.41,8.03-8.75,12.03-13.14,8.74-11.76,24.77-13.17,36.29-21.01,11.32-5.8,24.99-6.25,35.28-14.1,9.19-6.03,20.13-8.64,29.57-13.95,4.2-2.48,8.95-3.95,13.29-6.08,1.27-.69,2.77-1.24,4.2-.65,.1,.05,.2,.11,.3,.17,.55,.87,1.18,1.68,1.91,2.37,2.23,5.24-.26,15.82,.53,20.62,.14,10.54-.08,21.94,4.03,31.74,1.85,3.68,4.53,6.74,6.93,10.02,3.22,5.39,7.69,9.67,13.25,12.46,8.14,6.15,18.56,5.45,28.21,5.95,11.22,.7,21.74-2.76,31.51-7.89,4.11-1.92,6.2-6.14,8.98-9.46,7.56-7.07,11.77-15.92,15.09-25.49,2.86-7.69,5.25-15.56,7.7-23.35,1.93-4.79,3.09-9.26,3.35-14.35,.2-1.66,.27-3.31,.45-4.97,.42,.03,.85,.05,1.27,.05,.99,0,1.99-.1,2.95-.34,.02,.19,.02,.4-.01,.62-.24,12.51-5.32,23.99-8.92,35.74-4.34,12.22-8.26,25.17-18.1,34.18-3.38,4.01-6,8.98-11.02,11.21-2.41,1.13-4.84,2.17-7.23,3.33-10.74,5.43-23.15,5.36-34.87,4.52-8.33,.15-16.36-2.21-23.13-7.08-9.23-4.99-14.59-14.72-20.14-23.22-7.12-16.57-3.19-35.43-4.65-52.75-6.23,2.82-12.45,5.3-18.3,8.84-6.87,2.71-13.41,5.07-19.87,8.54-6.86,3.6-12.97,8.63-20.74,10.24-6.32,1.89-13.07,3.73-19.05,6.39-4.08,2.19-7.89,4.85-12.31,6.35-8.59,3.53-18.24,6.62-23.87,14.46-3.21,3.58-7.44,6.33-10.11,10.22-3.92,7.21-6.32,15.19-9.46,22.76-7.82,13.84-11.78,28.88-15.3,44.23-2.57,13.65-7.13,27-9.95,40.56-3.44,21.12-5,42.64-9.77,63.48-.82,2.24,.32,6.97-3.07,6.97h-.08Z"/>
    <path d="M577.35,636.99c-4.21-15.66-10.54-30.59-14.31-46.38-.87-3.58-2.12-6.64-3.91-9.75-3.34-7.73-6.03-15.84-9.39-23.54-4.02-6.63-7.62-13.41-10.33-20.69-2.57-6.95-3.74-14.3-7.43-20.8-3.03-7.37-7.5-14.18-9.68-21.86,.02,.05,.04,.12,.07,.18,0,.02,.01,.04,.02,.06-2.01-5.46-3.75-11.05-6.33-16.27-3.08-5.2-6.69-10.06-9-15.69-3.01-5.67-5.79-11.75-10.07-16.56-4.04-4.07-8.73-7.81-13.09-11.37-12.22-6.29-26.13-8.32-38.92-13.05-10.68-2.76-22.09-9.39-32.95-12.44-8.3-2.62-15.63-7.46-23.24-11.53-2.58-1.67-10.58-4.95-14.86-8.47,1.3-.12,2.57-.43,3.73-1.03,.43-.22,.85-.44,1.27-.67,6.34,4.12,13.42,6.95,19.9,10.88,9.66,6.06,20.67,8.4,30.94,13.11,6.69,2.02,12.42,5.81,19.31,6.86,13.29,5.82,29.64,6.07,40.93,15.87,3.62,3.36,7.79,6.13,10.92,9.97,5.24,6.37,8.58,14.09,12.25,21.41,5.93,8.85,10.4,18.27,13.45,28.37,1.99,6.99,6.1,12.9,8.78,19.61,3.38,6.22,5.3,13.14,7.14,19.9,2.97,9.02,8.21,16.89,12.29,25.37,3.4,9.33,7.28,18.43,11.23,27.51,3.67,14.58,8.83,28.63,13.31,42.96,.71,2.31,1.48,4.6,2.03,6.96,.26,1.12-.33,2.29-1.47,2.59-.18,.05-.36,.07-.54,.07-.92,0-1.84-.61-2.06-1.54Z"/>
    <path d="M488.47,641.81c-2.6-7.81-5.98-15.37-9.87-22.57-1.86-2.66-3.94-5.15-5.92-7.73-.7-.91-.53-2.25,.37-2.96,2.38-1.64,3.75,1.63,5.06,3.09,7.03,8.34,10.75,18.91,14.43,29.04,.75,2.61-3.32,3.78-4.07,1.13Z"/>
    <path d="M459.78,644.19c0-4.18-.67-8.09,.22-12.14,.9-4.07,5.16-25.55,11.56-20.96,1.03,1.33,.08,2.73-1.04,3.58-1.96,2.1-2.81,5.11-3.84,7.66-1.1,4.92-2.92,9.98-2.98,15.03-.28,2.59,1.93,8.51-1.81,8.93-1.18,0-2.09-.97-2.11-2.11Z"/>
    <path d="M298.3,572.27c-4.56-2.55-4.1-9.44-5.08-13.96-1.31-5.24-2.69-10.51-4.11-15.72-4.21-9.08-9.52-17.83-12.02-27.6-1.26-4.51-4.56-7.81-7.16-11.56-2.71-4.45-5.2-9.07-7.69-13.64-2.44-6.53-5.58-12.78-8.42-19.07-1.71-5.28-3.82-10.37-6.59-15.19-2.51-7.5-3.51-15.39-4.3-23.23-1.81-12.11-3.97-24.52-.17-36.49,.7-2.6,4.8-1.55,4.07,1.12-4.54,14.89,.18,30.24,1.52,45.25,1.17,6.06,2.32,12.21,5.75,17.32,3.63,10.01,8.36,19.49,12.35,29.36,2.46,3.93,4.49,8.17,6.91,12.1,4.44,5.32,7.9,11.17,9.36,18.01,3.28,9.89,10.1,18.23,12.06,28.53,5.07-5.07,10.71-9.07,15.3-14.59,3.83-3.86,8.19-7.16,10.9-11.66,4.99-7.25,7.51-15.9,11.87-23.5,4.91-10,8.77-20.46,13.21-30.61,6.75-12.48,10.58-26.22,15.94-39.28,.84-1.91,1.35-3.6,1.99-5.52,1.01-2.49,4.95-.9,3.89,1.65-5.6,14.25-10,29.1-16.95,42.8-5.19,11.03-9.13,22.63-14.65,33.52-4.19,7.28-6.52,15.5-11.25,22.45-4.23,7.03-11.21,11.65-16.43,17.87-3.37,3.8-7.94,6.31-11.16,10.26,3.06,4.62,6.99,9.55,6.28,15.44-.23,2.71-2.13,6.97-5.42,5.91Zm.97-5.14c.9-2.86-.28-5.86-1.7-8.33,.32,2.81,.73,5.66,1.7,8.33Z"/>
    <path d="M368.37,322.09c-.05-.22-.13-.42-.25-.6,1.77-6.25,2.78-12.74,3.52-19.24,.26,.67,.61,1.3,1.04,1.86,.75,.97,1.66,1.64,2.69,2.11-.68,5.67-1.56,11.31-3.24,16.79-.2,.69-.42,1.37-.65,2.06-.02,0-.05,0-.09-.01-.86-.09-1.67-.01-2.45,.2-.13-1.07-.31-2.12-.57-3.15Z"/>
    <path d="M252.25,316.57c-1.01-5.71-1.45-11.59-2.63-17.25-2.4-12.69-4.15-25.88-4.67-38.68-1.2-15.39,1.04-30.78,3.77-45.88,1.9-8.77,2.27-18.08,6.9-26.01,3.13-5.06,5.62-11.26,11.12-14.14,5.42-3.35,11.85-1.07,17.72-.82,14.79,.21,29.41,1.76,44.05,2.27,7.74-.38,15.5-.63,23.21-1.19,3.07-.35,6.23-1.49,9.25-.34,9.99,6.04,14.22,18.45,15.58,29.52,2.33,11.61,3.85,23.74,2.48,35.52-.42,6.59-.22,13.21-.07,19.82-1.62,1.57-2.65,3.74-2.8,6.11,0,.01-.01,.02-.01,.03-.27,2.29-.66,4.62-.33,6.9,.21,1.44,.66,2.7,1.19,4.03,.23,.58,.52,1.15,.75,1.74,.01,.02,.02,.05,.02,.08v-.02l.03,.1c.19,.53,.36,1.07,.53,1.59-.46,2.84-.77,5.68-1.03,8.53-.22,.52-.44,1.02-.68,1.53-.11,.2-.22,.4-.34,.59-.11,.14-.22,.29-.33,.42-.62,.67-1.25,1.32-1.81,2.03-.68,.87-1.27,1.81-1.86,2.75,0-.03,.01-.08,.01-.11,.76-6.84,1.37-13.64,2.51-20.41,.18-4.82,.05-9.59-.07-14.36,.81-.81,1.53-1.74,2.1-2.76,2.93-5.19,1.96-11.59-2-15.91,.02-.54,.04-1.08,.06-1.62,.03-.32,.04-.65,.04-.97,.39-10.56,.61-21.04-1.92-31.39-1.65-10.89-3.09-19.98-11.52-28.24-2.07-2.55-5.2-1.67-8-1.13-8.35,.88-16.67,.92-24.99,1.4-16.46-.87-32.99-1.82-49.42-2.75-8.59-2.12-13.61,1.65-17.4,9.18-5.34,7.73-6.91,16.75-8.15,25.79-3.77,17.9-5.91,36.5-3.85,54.7,.19,11.88,2.89,23.36,4.75,35.03,.86,4.84,1.21,9.88,2.13,14.75h0l-.26,.56c-1.26-.55-2.62-.88-4.06-.95Z"/>
    <path d="M377.78,278.21s0,.02,0,.03c0,0,0-.02,0-.03Z"/>
    <path d="M372.3,295.79c.13-.2,.26-.4,.4-.59,0,.01-.01,.02-.02,.03,.01-.01,.03-.02,.05-.03-.15,.2-.3,.41-.43,.62,0-.01,0-.02,0-.03Z"/>
    <path d="M376.42,290.49c-.05,.07-.12,.12-.18,.19,.05-.07,.11-.12,.18-.19Z"/>
    <path d="M377.77,278.18c-.09-.27-.18-.54-.27-.8,.09,.27,.19,.56,.28,.84v-.03Z"/>
    <path d="M251.55,393.94c-1.04-.26-1.42-1.04-1.47-1.92,.54,.73,1.14,1.39,1.82,1.96-.11,0-.22-.03-.35-.05Z"/>
    <path d="M371.39,325.04c-.6-.06-1.2-.04-1.77,.06,.45-.68,1.02-1.01,1.72-.85,.69,.09,1.25,.52,1.56,1.09-.47-.15-.97-.25-1.51-.3Z"/>
    <path d="M243.95,273.91c-6.24-14.01-8.24-29.24-7.09-44.5,.78-14.37-1.23-32.05,9.35-43.28,2.93-4.47,6.2-8.56,9.84-12.46,2.57-3.91,1.84-8.88,1.11-13.16-2.11-8.07,1.14-18.03,7.89-23.04,9.61-6.98,21.75-8.47,33.26-8.69,21.4-1.21,44.32-1.86,63.54,9.07,4.19,2.57,8.52,5.13,11.97,8.65,3.69,4.85,5.67,11.32,6.06,17.34,.08,7.54-.97,14.73,1.71,21.85,4.49,10.61,7.81,21.71,10.07,32.97-.04,.71-.1,1.43-.15,2.14-.2,1.45-.47,2.89-.48,4.36,0,.78,0,1.57-.02,2.35-.03,.43-.07,.85-.1,1.27-.21,1.48-.48,2.98-.73,4.45-.15,.89-.3,1.77-.48,2.65-.23,1.13-.33,2.29-.44,3.44-.04,.36-.1,.73-.15,1.08-.24,1.23-.42,2.47-.57,3.71-.13,.88-.26,1.76-.37,2.65l.1-.82c-.22,1.34-.37,2.68-.58,4.01l.1-.53c-.07,.42-.14,.82-.22,1.24,0,.03-.01,.05-.01,.09-.64,1.78-1.29,3.57-1.12,5.52,.02,.21,.04,.42,.06,.62-.67-.1-1.35-.12-2.04-.06-.04,0-.09,0-.13,.01,4.01-12.71,4.48-26.09,2.91-39.3-1.77-6.22-2.97-12.61-5.09-18.73-1.88-5.68-4.8-11.07-5.9-16.99-1.97-7.7,.82-15.74-1.45-23.25-1.25-3.45-2.03-7.59-4.9-10.04-7.62-6.54-16.76-10.91-26.43-13.5-13.95-3.22-27.85-2.79-41.97-2.31-12.98,.84-28.49,.91-37.49,11.74-1.87,3.44-3.17,7.54-3.4,11.45,1.15,6.66,3.08,14.34-1.2,20.32-2.71,3.48-6.19,6.2-8.13,10.24-2.24,3.23-5.09,5.43-6.52,9.06-2.43,7.47-3.02,15.32-3.38,23.09-.47,14.34-1.64,29.3,2.56,43.2,1.13,2.7,1.88,5.5,3.14,8.03,.58,1.81,2.11,4.67-.52,5.52-.19,.05-.37,.08-.56,.08-.91,0-1.76-.62-2.03-1.55Z"/>
    <path d="M389.04,240.75c-.05,.3-.1,.59-.15,.89,.04-.3,.1-.59,.15-.89Z"/>
    <path d="M247.68,310.23c-2.06-1.18-4.4-1.84-6.1-3.56-3.02-3.21-5.21-7.74-6.51-11.84-3.92-11.27-4.81-24.44,.62-35.35,2.14-2.75,5.39,.51,3.13,3.03-5.09,13.17-2.76,28.79,4.97,40.36,1.5,1.9,3.98,2.54,6.02,3.71,2.38,1.33,.22,5.03-2.13,3.65Z"/>
    <path d="M378.2,254.67c.12-.5,.21-1.01,.26-1.52,.08-.12,.17-.25,.29-.38,.79-.79,2.2-.84,2.98,0,1.37,1.21,2.54,2.56,3.51,4.03-.26,0-.53,.01-.79,.03-1.32,.12-2.54,.52-3.62,1.13-.92-1.02-2.31-2.1-2.63-3.3Z"/>
    <path d="M487.94,640.5c-.6-3.55,5.91-3.69,8.27-4.4,3.23-.54,5.65-2.84,8.57-4.13,3.88-1.49,7.97-2.47,11.64-4.49,9.75-4.14,18.07-11.07,28.24-14.39,3.31-1.66,5.43-4.84,8.47-6.89,3.16-2.21,6.95-3.2,8.45-6.9,1.04-2.5,5-.86,3.89,1.65-1.56,4.12-5.82,6.41-9.34,8.3-3.11,2.02-5.29,5.22-8.55,7.06-5.26,2.27-10.48,4.69-15.55,7.36-8.07,5.59-17.22,9.45-26.42,12.6-3.3,2.08-6.72,3.97-10.68,4.34-2.26,.24-5.76,3.09-6.98-.1Z"/>
    <path d="M303.09,290.53c-2.1-1.03-1.22-3.85,.81-4.31,1.48-.43,3.39-1.66,4.8-.51,1.96-.49,4.3,1.11,3.18,3.21-.71,1.28-2.28,1.14-3.53,1.19-1.74,0-3.64,1.43-5.26,.42Z"/>
    <path d="M322.09,290.54c-1.63,.09-3.83,.11-4.63-1.62-.52-1.23,.25-2.71,1.55-3.02,1.95-.43,4-.02,5.97,.09,1.1,.11,2.19,.54,2.49,1.71,.63,2.92-3.39,3.28-5.39,2.84Z"/>
    <path d="M298.93,294.55c-3.85,.67-6.72-2.91-6.18-6.58,.03-5.84,4.86-9.77,7.25-14.66-.04,.07-.09,.16-.13,.24,.45-1.2,.38-2.57,.79-3.79,.7-2.64,4.82-1.53,4.08,1.12-.43,2.49-.86,4.88-2.45,6.95-2.25,3.85-6.92,7.85-4.81,12.48,1.54-.1,3.56,.19,3.56,2.14,0,1.14-.96,2.12-2.11,2.11Z"/>
    <path d="M310.43,323.6c-7.84-1.28-17.62,.22-23.54-5.97-.94-.5-1.49-1.57-1.17-2.6-1.13,.46-2.47-.26-2.78-1.42-.59-3.05,3.56-2.9,5.41-4.03,3.12-.88,6.24-2.23,9.48-2.11,7.28-.5,14.74-.75,22.01,.16,5.03,.73,10.07,2.05,15.11,1.81,1.89,.01,3.35,.18,4.99-.4,1.72-.7,4.11-2.47,5.25-.02,.67,1.5-.71,2.69-1.79,3.52-1.74,1.56-3.74,2.73-5.84,3.71-8.03,5.48-17.42,8-27.13,7.33Zm6.08-4.3c6.17-.36,11.97-2.11,17.07-5.64-6.36,.07-12.56-1.93-18.87-2.37-8.65,.26-17.65-.82-25.8,2.61,1.31,.81,2,1.88,3.07,2.65,1.21,.63,2.83,.86,4.09,1.22,6.78,.81,13.62,2.07,20.46,1.52,0,0-.03,0-.03,0Z"/>
    <path d="M302.2,367.7c-16.71-1.11-30.23-13.49-37.77-27.66-2.83-3.12-3.73-7.67-6.29-10.96-2.76-3.2-3.16-7.68-4.54-11.56-.95-1.79-1.43-3.76-2.37-5.52-1.36-2.34,2.28-4.53,3.65-2.13,.4,.77,.82,1.52,1.1,2.33,1.88,4.24,2.82,8.7,4.51,12.97,3.61,4.42,5.06,10.11,8.81,14.4,5.34,10.89,15.37,19.68,27.08,22.83,9.31,2.67,19.13,.18,28.46-.96,7.14-1.38,14.57-2.48,20.12-7.58-.05,.03-.07,.05-.11,.07,9.53-6.72,12.96-17.74,19.36-26.88,1.69-2.59,3.04-12.19,7.19-10.45,2.06,1.28,.47,3.37-.36,4.89-2.53,7.61-7.39,13.66-10.77,20.8-5.39,8.69-12.51,16.96-22.35,20.52-11.62,2.98-23.68,5.11-35.71,4.88Z"/>
    <path d="M368.57,395.28c-.98-4.65-1.6-5.56-3.03-9.72-1.36-9.88-2.84-20.04-2.25-30.02,.52-11.52,1.33-23.54,5.26-34.44,.78-2.61,4.79-1.55,4.07,1.12-.46,1.35-.97,2.68-1.35,3.76-4.65,19.47-4.98,39.84-1.39,59.47,1.28,2.61,2.09,5.3,2.56,8.15,.41,1.09,0,2.34-1.11,2.8-1.02,.43-2.37-.05-2.76-1.12Z"/>
    <path d="M249.55,394.76c-1.81-.79-1.27-2.73-.59-4.14,1.43-5.4,2.5-10.38,4.03-15.67,1.83-9.27,1.86-18.72,2.43-28.12,.36-8.97,.43-17.93-1.56-26.71-.39-2.68,3.85-3.3,4.19-.57,2.43,10.65,1.83,21.47,1.34,32.29-.51,10.33-.77,20.94-4.19,30.79-1.3,2.9-1.17,13.42-5.65,12.13Z"/>
    <path d="M371.97,322.32c-2.69-1.65,1.09-6.5,2.51-8.09,3.01-2.71,5.57-5.81,8.36-8.7,.01-.02,.02-.03,.04-.05,.33-.25,.63-.52,.9-.81,.37-.4,.73-.8,1.08-1.22,.32-.34,.64-.67,.98-.99,1.15-.99,2.26-1.99,3.15-3.23,.82-1.14,1.57-2.35,2.21-3.62,.86-1.67,1.79-3.32,2.27-5.15,.37-1.37,.49-2.77,.73-4.15,0-.02,.01-.04,.01-.05,.46-1.29,.89-2.54,.98-3.93,.1-1.33,.15-2.64,.07-3.97-.1-1.58-.37-3.07-.79-4.59-.12-.44-.24-.89-.36-1.33,.09-.67,.16-1.34,.23-2.01,.04-.41,.07-.81,.09-1.21,3.4,5.69,4.44,12.94,2.55,19.2-.36,3.28-2.77,5.69-3.81,8.77-2.99,5.88-6.93,10.99-11.39,15.79-1.63,2.07-4.07,3.49-5.47,5.74-.68,1.45-1.51,3.91-3.23,3.91-.33,0-.69-.09-1.09-.3Z"/>
    <path d="M386.1,256.85c.1-.17,.21-.34,.32-.51,.02,.19,.04,.37,.06,.55-.13-.02-.25-.03-.38-.05Z"/>
    <path d="M388.97,202.85c.09,.17,.18,.34,.27,.5,.07,.16,.14,.33,.21,.51,.24,.78,.45,1.57,.64,2.36-.36-1.13-.74-2.26-1.12-3.37Z"/>
    <path d="M389.42,203.75s.01,.03,.02,.05c0-.02-.01-.04-.02-.05Z"/>
    <path d="M383.37,194.66c-1.09-1.95-1.36-4.69-2.51-6.5-3.56-6.23-3.14-13.81-1.13-20.44,.2-1.51,.99-2.89,.93-4.42-.11-1.53-.99-2.88-1.8-4.12-1.67-2.12-3.23-4.62-5.2-6.45-1.22-.67-2.3-1.97-1.46-3.37,2.85-3.43,6.4,2.76,8.1,4.74,3.71,4.13,5.86,9.06,3.56,14.45-1.58,5.44-2.36,11.53,.24,16.7,.12,.19,.24,.39,.35,.59-.03,.09-.05,.17-.08,.26-.67,2.45-.1,4.68,.73,6.95,.51,1.64,.89,3.31,1.49,4.92,.28,.74,.6,1.46,.95,2.17-1.31-1.88-2.98-3.5-4.18-5.47Z"/>
    <path d="M242.99,193.47c-2.86-1.5,.03-4.71,.56-6.84,1.66-3.8,5.42-6.33,6.25-10.48,1.08-4.16,2.92-8.26,3.45-12.52,1.29-7.85,3.35-17.34,10.44-21.96,2.51-1.08,4.17,2.83,1.65,3.89-4.57,3.54-5.9,9.96-7.44,15.14-.42,5.79-2.34,11.08-4.03,16.55-.92,4.15-3.92,7.19-6.2,10.46-1.19,2-1.43,6.74-4.68,5.76Z"/>
    <path d="M302.07,181.32c-11.31,.08-22.23-2.85-32.77-6.53-11.04-4.24-15.47-18.23-9.59-28.29,4.22-5.93,9.96-11.62,17.52-12.99,11.99-1.01,24.94-8.56,36.34-1.24,3.39-1.06,7.05-1.19,10.6-.07,10.5-.15,20.21,3.51,29.59,6.22,18.88,7.06,18.81,33.93-.8,39.78-17.1,4.56-34.82,3.05-52.23,3.03,0,0,1.35,.09,1.35,.09Z"/>
    <path d="M380.22,255.18c-.7-.42-1.31-.96-1.81-1.58,.57-3.89-.6-7.92-3.23-11.01-.09-.72-.17-1.45-.24-2.17,.06-.82-.01-1.64-.2-2.45-.08-1.08-.14-2.15-.21-3.23,.1-8.09-1.23-16.54,.87-24.4-.34-10.34-6.26-19.22-8.43-29.11-2.1-1.49-4.82-1.6-6.65-3.51-4.12-3.35-6.29-12.19,.23-14.06-.08-.36-.13-.74-.1-1.11,.08-1.22,.55-2.31,1.35-3.07-2.68-2.88-5.97-4.57-9.46-6.17-1.96-1.02-2.97-3.34-4.92-4.24-3.87-.67-8.98-1.3-10.66-5.42-2.38-6.82,3.21-10.43,9.45-9.89,7.07,2.38,14.77,5.3,19.55,11.33,.51,.07,1,.2,1.48,.4,.8,.32,1.53,.74,2.21,1.22,3.28-.23,6.12,2.24,8.21,4.48,3.52,3.36,5.84,7.96,5.12,12.92,2.2,3.32,.54,7.82,.95,11.61,.35,3.01,.75,5.98,1.21,8.92-.22,.46-.4,.93-.54,1.44-.68,2.45-.1,4.69,.71,6.96,.52,1.64,.9,3.3,1.51,4.91,.7,1.89,1.69,3.62,2.63,5.39,.08,.18,.14,.34,.21,.52,.33,1.03,.59,2.09,.84,3.15,.25,1.46,.33,2.95,.57,4.4,.24,1.57,.56,3.12,.75,4.68,.04,.58,.08,1.16,.1,1.76-.04,.99-.11,1.97-.2,2.96-.19,1.45-.47,2.88-.47,4.35,0,.79-.01,1.57-.02,2.36-.03,.42-.07,.85-.11,1.27-.2,1.48-.48,2.97-.71,4.44-.15,.89-.3,1.77-.48,2.65-.24,1.13-.34,2.3-.45,3.45-.04,.36-.1,.71-.15,1.08-.24,1.23-.41,2.46-.56,3.71-.14,.88-.26,1.76-.38,2.65,.03-.27,.07-.55,.11-.84-.22,1.34-.37,2.68-.58,4.01,.03-.18,.07-.35,.1-.52-.08,.41-.15,.82-.22,1.24-.01,.02-.01,.05-.02,.08-.49,1.4-1,2.79-1.11,4.28-.96,.55-2.07,.85-3.22,.85-1,0-2.02-.23-2.99-.7Z"/>
    <path d="M389.41,203.72l-.03-.1c.02,.07,.04,.12,.07,.18-.01-.02-.02-.05-.03-.08Z"/>
    <path d="M243.37,268.44c-3.15-1.02-2.28-5.32-3.8-7.46-3.24-5.73,.17-12.14,.44-18.14,.19-5.9,.82-11.67,.23-17.58-1.08-5.11,.27-10.77,.51-16.03,.7-7.04,3.23-13.64,5.29-20.34,1.35-2.85,2.14-6.41,5-8.14,1.75-4.42,3.07-8.24,3.85-12.73,.29-3,.97-5.85,2.38-8.55,.51-1.48,1.08-3.11,2.41-4.01,2.85-2.34,7.47-.24,7.25,3.54,.35,0,.7,.05,1.05,.14,.58,.16,1.14,.45,1.62,.84,7.04,1.73,2.27,8.9-.29,12.53,5.38-1.4,10.42-.64,15.77-.11,12.13-1.3,24.48-4.41,36.38-6.6,7.93-1.61,15.07-5.28,22.71-7.25,5.11-2.04,8.37,5.61,3.29,7.78-3.57,1.22-6.48,1.91-9.62,3.09-10.67,4.78-22.27,5.71-33.46,8.45-7.22,1.23-14.57,3.18-21.93,2.87-2.84-.48-6.1-.94-8.91-.45-1.61,.42-3.38,.45-4.89,1.15-2.97,2.45-5.56,5.29-6.99,8.89-3.27,4.48-5.67,10.12-7.47,15.1-1.78,3.52-2.98,7.23-3.74,11.09-1.41,11.66-1.81,23.45-1.76,35.13-.93,5.25,4.22,18.77-5.32,16.79Z"/>
    <path d="M370.39,315.05c-1.99-.85-1.1-2.96-.48-4.44,.64-3,1.56-6.02,1.81-9.05,0,0,0,0,0,0,.47-14.26,2.07-28.43,4.51-42.46,.22-.31,.42-.64,.61-.97,1.88-3.32,2.15-7.13,1.07-10.59,.17-.07,.35-.12,.54-.15,1.13-.15,2.24,.66,2.38,1.8,.26,13.13-3.56,26.15-4.19,39.27-.67,6.93-.03,13.97-2.1,20.62-.58,2-.76,6.1-3.3,6.1-.26,0-.55-.04-.86-.14Z"/>
    <path d="M378.59,272.06c-2.16-.62-1.56-3.16-.99-4.75,.64-2.67,1.51-5.33,2.37-7.91,.56-2.96,1.03-5.86,1.54-8.83,.18-.88,.8-1.59,1.64-1.78,.19-1.19,1.47-2.01,2.65-1.67,3.85,.95-.91,11.89-1.88,14.46-1.21,2.48-1.65,5.25-2.49,7.79-.04,1.52-1.13,3.17-2.84,2.68Z"/>
    <path d="M382.96,308.61c-3.33-2.79,2.68-6.73,4.1-8.95,.84-1.53,.77-3.41,1.77-4.89,1.12-2,2.64-3.28,3.32-5.31,.75-2.38,1.06-5.21,1.17-7.61-.09-2.79,.83-5.65,.03-8.32-2.71-3.42-4.46-7.48-9.41-7.49-.81,1.13-2.43,1.57-3.47,.51-1.86-1.98,1.01-4.79,3.15-4.74,4.47-.04,8.28,2.21,10.67,5.95,1.73,2.25,3.88,4.55,3.6,7.61-.31,4.38-.3,8.89-1.13,13.12-.39,3.55-2.99,6.11-4.62,9.04-.44,3.29-2.33,5.82-4.74,7.95-1.17,1.42-2.11,4.41-4.45,3.14Z"/>
    <path d="M347.63,312.51c-.81-2.6-2.55-4.55-4.11-6.66-.7-.92-.54-2.25,.37-2.97,3.24-2.21,6.87,6.1,7.8,8.51,.76,2.62-3.33,3.78-4.07,1.12Z"/>
    <path d="M265.18,253.74c-3.16-3.6,4.39-6.55,6.77-8,3.64-2.01,7.85-2.03,11.83-2.7,6.45-.02,13.34,.09,18.46,4.31,1.79,.42,4.78,.52,4.17,3.14-.51,1.81-2.45,1.64-3.91,1.26-1.96-.13-3.39-1.56-4.93-2.56-7.8-2.82-17.32-2.84-24.74,.89-1.49,.76-2.87,1.41-4.09,2.51-.7,1.28-2.24,2.17-3.55,1.15Z"/>
    <path d="M281.66,255.25c-3.47-.39-7.68-4.85-4.04-7.75,3.42-3.31,11.97-4.32,12.33,2.04,.58,4.6-4.55,6.28-8.29,5.7Z"/>
    <path d="M377.05,263.73c-1.02-.85-1.07-2.18-1.23-3.4-.38-3.41-1.07-6.8-1.34-10.22-.35-3.4-.23-6.84-.13-10.25,.12-1.61,2.34-2.4,3.47-1.3,.33-.19,.7-.3,1.08-.3,1.15,0,2.06,.93,2.11,2.06,1.39,.31,1.66,1.87,1.59,3.11,.18,1.06,.32,2.31-.67,3.01-.05,3.41-.13,7.13-.14,10.49-.04,.9-.42,1.73-1.24,2.17,.36,2.42-.15,6.42-3.49,4.63Z"/>
    <path d="M345.23,257.61c-2.24-1.64-3.68-4.96-3.23-7.69,1.06-3.26,5.33-4.46,8.33-3.33,7.99,3.39,2.79,16.02-5.1,11.02Z"/>
    <path d="M328.46,254.01c-.98-2.5,2.09-3.13,3.7-3.67,2.37-1.42,4.82-2.87,7.55-3.42,3.07-1.01,6.26-2.14,9.51-2.26,3.78,.42,7.35,1.77,10.78,3.18,1.04,.24,1.99,.69,2.93,1.14,1.33,.03,2.57,1.04,2.37,2.46-.46,2.6-3.63,1.92-5.23,.82-4.09-1.15-8.02-3.71-12.31-3.25-3.25,.8-6.35,1.62-9.4,2.77-2.74,.85-7.71,5.67-9.91,2.22Z"/>
    <path d="M332.05,242.04c-2.3-.67-3.32-2.85-3.75-5.01-.99-2.24-1.92-5.89,1.91-5.18,2.62-1.57,5.98-1.38,8.94-1.83,5.81-.3,12-.19,17.64,1.14,3.85,1.12,8.23,1.18,11.68,3.29,2.31,1.55,1.43,5.36-1.53,5.2-8.86-1.57-17.41,.88-26.16,1.65-2.93-.09-5.81,1.44-8.74,.75Zm1.33-4.01s.06,0,.1,0c-.06-.08-.11-.17-.16-.26-.12,0-.23-.02-.35-.04-.02,0-.04,0-.05-.01,.1,.16,.28,.27,.46,.31Z"/>
    <path d="M296.78,240.1c-1.7-.52-3.14-1.04-4.69-1.81-3.62-.23-7.27-.59-10.91-.59-6.66-1.11-13.02,1.14-19.5,2.01-3.54-.86-1.6-4.87,1.08-5.48,5.22-2.18,10.43-4.35,16.12-4.82,3.73-.1,7.43-2.14,11.13-2.09,2.36-.26,5.12-1.19,7.2,.38,.07,0,.14,.02,.21,.04,2.54-1.02,3.41,2.23,3.45,4.1-.07,2.07,.99,4.56-.2,6.4-.26,1.87-2.32,2.53-3.9,1.87Z"/>
    <path d="M161.24,601.7c-.27-.06-.51-.17-.75-.3-15.86,1.59,11.17-44.53,19.04-45.07,9.21-4.22,11.5,6.81,8.62,13.41-3.72,10.16-8.63,20.32-16.96,27.5-2.79,2.3-6.05,5.4-9.96,4.46Zm11.84-15.74c-1.27,2.69-2.97,5.17-4.57,7.66-.18,.28-.36,.55-.54,.83,4.55-3.88,8.35-9,11.12-14.25,1.45-3.11,10.99-21.82,2.88-20.27,.02,6.17-3.16,11.75-5.21,17.42,2.06,2.83-3.16,5.67-3.68,8.62Zm-5.48-1.14c-.83,2.14-1.7,4.26-2.54,6.38,.53-.81,1.06-1.63,1.57-2.45,.68-1.09,1.33-2.18,1.94-3.3-.08-.06-.16-.12-.24-.19-.26-.23-.46-.48-.61-.76-.04,.11-.08,.21-.13,.32Z"/>
    <path d="M167.76,651.47c-.12,0-.24,.01-.36,.01-3.69,.74-7.43,.93-11.09,.64-.41,1.22-.87,2.42-1.38,3.59-.11,0-.22,0-.33,0-5.7-.08-11.4-.19-17.09-.32-1.65-.03-3.3-.05-4.95-.08-1.22-.14-2.45-.27-3.67-.41-11.62-1.24-23.21-2.74-34.87-3.51-5.49-.37-10.96-.82-16.45-1.26-1.14-5.26-1.23-10.78-.09-16.26,.37-15.06,4.86-29.32,4.97-44.34,3.06-18.81,7.87-35.32,11.55-53.54,1.21-9.79,4.15-19.45,7.92-28.28,1.11-9.65,6.36-17.96,9.5-26.95,4.51-12.83,11.19-25.56,22.11-34.09,17.29-16.12,41.1-27.77,65.2-24.84,14.73,2.62,26.44,9.17,37.45,17.72,11.09,9.63,15.9,16.03,26.87,23.89,1.69,1.26,3.2,2.66,4.68,4.09,7.3,4.03,15.35,7.06,23.52,8.86,4.96-.48,10.45-1.71,15.34-2.59,7.41-1.03,13.31-4.9,18.54-10.09,3.34-2.34,7.01-4.32,9.55-7.25,12.25-13.75,26.78-26.74,45.55-30.04,25.46-30.41,52.74-7.4,82.58-2.24,7.31,1.71,13.43,5.04,17.03,7.75,5.77,2.93,11.08,6.14,15.84,10.8,6.39,7.79,13.17,14.9,18.08,23.86,4.57,9.37,10.37,18.47,12.86,28.65,3.09,7.61,6.07,13.58,8.5,20.43,5.34,11.24,12.02,21.94,15.53,33.94,10.88,21.31,8.98,47.69-12.03,62.08-14.92,11.26-35.22,12.79-52.22,5.4-9.31-3.56-19.32-4.97-29.21-5.66-16.53,36.34-62.25,29.45-95.24,31.73-13.97,1.15-26.95,2.29-39.52,3.04-30.09,1.63-60.18,3.3-90.27,5.01-11.65,.99-23.19,2.78-29.43,3.18-5.45,.61-11.12,1.35-16.69,1.35-6.4,0-12.66-.98-18.27-4.26Z"/>
    <path d="M238.51,463.57c-4.74-1.58-5.9-7.55-6.63-11.91-3.21,3.42-8.6,2.18-10.71-1.79-2.04-3.32-1.82-7.49-1.64-11.24-3.16,4.92-11.87,17.65-16.67,7.71-.88-4.52,3.49-7.86,5.43-11.54,1.17-2.27,1.52-5.19,3.11-7.38-2.52,2-5.31,3.64-7.88,5.58,.59,2.28-.53,5-2.83,5.84-3.84,1.66-10.13,4.14-11.96-1.39-7.79,4.44-12.67-4.78-5.34-9.5-.17-2.25,1.3-4.48,3.53-5.11,2.55-1.61,4.99-3.46,7.72-4.81,3.79-2.31,8.25-3.31,11.81-5.95,3.55-1.36,6.93-3.08,10.34-4.68,6.2-1.75,11.6-6,17.65-8.08,2.34-.67,4.97,.6,5.86,2.86,.61,1.72,.34,3.57,.76,5.29,6.77,2.59,.78,19.65,.94,25.73,6.81,2.18,3.2,11.35,3.71,16.67-.21,5.13,.71,15.13-7.19,13.67Z"/>
    <path d="M262.05,482.18c-3.8-2.18-7.03-5.25-9.12-9.12-5.74-8.39-10.38-17.45-12.94-27.34-1.98-4.34-6.31-11.9-.4-14.91-.11-.4-.21-.79-.28-1.2-.27-1.37,.28-2.89,1.19-3.94-.43-2.16-.8-4.33-1.11-6.52-.59-4.12-1.12-8.28-1.35-12.43-1.86-.4-3.4-2.23-3.61-4.1-.28-2.7,1.64-4.52,2.91-6.66,3.99-3.96,13.95-5.87,15.26,1.43,.41,4.47-2.51,8.32-2.58,12.67,2.38,9.94,.37,20.29,4.71,29.68,2.85,7.94,6.05,15.66,11.98,21.85,2.35,3.42,6.02,6.26,7.1,10.35,.52,2.74-1.56,5.69-4.36,5.89,.21,3.7-4.28,6.32-7.4,4.34Z"/>
    <path d="M316.66,479.65c-1.06-4.34,3.55-7.04,6.23-9.64,4.96-5.13,10.94-9.24,15.15-14.84,8.71-8.78,15.24-19.31,21.81-29.71,1.15-4.64,4.15-8.38,6.51-12.46,2.28-5.4,2.74-11.48,5.72-16.61-4.68-3.22-4.81-11.27,1.92-11.54,4.21,.19,7.67,3.5,8.22,7.64,4.25-.88,6.93,3.58,10.26,5.33,10.02,5.32,22.12,6.31,31.21,13.29,3.39,2.26,4.25,7.79,.36,10-1.94,1.15-4.26,.81-6.41,.59-5.4-.15-10.62-1.21-14.3-5.47,10.18,10.38,.91,19.02-10.21,11.25,.57,3.32,2.59,7.25-.16,10.1-3.27,3.28-8.1,.49-8.92-3.55-1.36,6.37-8.36,13.92-13.22,5.83-5.92,8.63-12.27,17.12-19.85,24.35-7.72,6.29-15.42,12.42-24.44,16.76-3.27,2.73-8.27,3.59-9.88-1.33Z"/>
    <path d="M452.82,650.18c-3.79-2.18-1.98-6.83-1.76-10.31-7.28-2.2-2.87-11.67-1.49-16.72,3.32-7.84,5.08-17.7,11.98-23.17,11.53-6.67,25.58,6.96,34.81,13.09,4.04,2.56,11.39,1.09,12.28,7.27,5.11-4.38,11.02-7.29,17.34-9.49,1.76-1.88,4.38-2.72,6.6-3.77,6.27-3.14,10.87-7.51,17.27-10.1-1.12-1.65-1.84-3.73-2.46-5.41-.52-1.4-1.04-2.8-1.56-4.2-2.47,.18-5.07-1.66-5.29-4.25-.13-3.89-1.44-8.09-.13-11.88,1.32-3.32,6.02-4.11,8.44-1.55,1.35,1.45,2.15,3.2,2.9,5.02,3.27-2.41,7.64,.25,7.96,4.07,2.93,.74,3.96,4.04,4.49,6.94,5.31,2.65,5.74,13-.15,15.16-2.01,2.83-5.29,3.96-8.12,5.67-4.36,4.12-9.93,6.28-14.71,9.77-11.5,8.39-24.77,13.6-37.94,18.58-2.48,2.7-5.75,5.46-9.53,5.78-3.52,.03-5.91-3.53-5.35-6.82-4.15-2.08-6.22-6.45-8.68-10.15-1.87-3.34-5.62-8.06-2.17-11.52-2.91-1.76-5.78-4.13-9.34-4.22-.21,.88-.48,1.75-.72,2.58-.23,.8-.45,1.61-.66,2.41,1.62,4.08,2.29,13.03-3.49,13.91-2.38,5.98,.32,27.91-10.54,23.3Z"/>
    <path d="M444.6,645.1c-2.26-.62-3.6-2.61-3.74-4.85-2.61-4.37,1.08-10.01,2.51-14.36,1.55-4.16,2.33-8.62,4.86-12.39,3.91-5.92,12.32,.17,8.01,5.79,1.8,5.96-1.16,12.62-3.02,18.31-1.33,3.67-3.97,8.68-8.62,7.5Z"/>
    <path d="M361.96,660.42c-5.9-.01-11.8-.13-17.7-.11-5.65,.01-11.3-.2-16.94-.21s-11.28-.11-16.9-.19c-11.84-.16-23.67-.34-35.5-.67l1.22,.03c-11.57-.4-23.15-.79-34.72-1.06-11.1-.25-22.22-.63-33.33-.68-4.17-.02-8.33-.05-12.5-.08-1.67-.11-3.33-.21-4.99-.3,.42,.02,.84,.05,1.25,.09-1.73-.12-3.46-.23-5.19-.35,.42,.03,.84,.05,1.25,.09-5.69-.38-11.35-.82-17.07-.91-5.42-.08-10.84-.3-16.25-.37-4.59-.06-9.17-.15-13.74-.24-1.05-7.79,12.23-7.3,17.34-9.47,9.24-2.6,18.71-4.35,28.22-5.51,15.33,.91,30.83,1.04,46.27,.48,4.31-.02,8.63-.01,12.95-.01,17.06,.02,34.09,.03,51.14-1.19,24.77,.31,49.5,0,74.23,.36-1.15-1.67-1.14-3.91,.01-5.65,1.41-2.14,3.98-2.32,6.26-2.64,3.38-.46,6.68-.75,9.65-1.06,15.11-1.91,30.38-4.42,45.65-3.2,5.8,.4,20.16,.27,16.44,9.53,2.17,.59,4.33,.19,6.47,.89,1.54,.56,2.77,1.69,4.1,2.59,6.02,.63,7.18,8.74,1.52,10.92-5,7.92-16.21,5.87-24.24,6.76-8.87,.29-17.78,.6-26.66,.59-12.87-.57-25.68,.53-38.48,1.67-3.25-.07-6.5-.13-9.76-.13Z"/>
    <path d="M291.14,657.23c-1.88,.18-3.91,.42-5.37-.97-26.08-2.34-52.63-4.71-78.57-.96-4.85,.66-9.69,1.31-14.51,1.97-.69-.04-1.39-.08-2.08-.12,.42,.02,.84,.05,1.25,.09-1.73-.12-3.46-.23-5.19-.35,.42,.03,.84,.05,1.25,.09-5.69-.38-11.35-.82-17.07-.91-5.42-.08-10.84-.3-16.25-.37-4.44-.06-8.88-.14-13.32-.23,.63-.11,1.26-.23,1.89-.36,34.6-5.25,69.4-13.22,104.48-11.3,10.67,.91,21.41,.43,32.04,1.98,5.6,1.3,15.16-1.06,17.95,5.06,1.17,3.51-1.87,6.53-5.23,6.53-.42,0-.85-.05-1.27-.15Z"/>
    <path d="M76.73,650.07c-.49-.04-.98-.08-1.47-.12-.95-4.29-1.68-8.64-2.29-12.94,.53-3.92,4.06-8.85,8.47-6.53,2.12,1.13,3.15,3.77,2.34,6.01-.04,4.76,.1,9.89,2.05,14.3-3.03-.24-6.07-.49-9.1-.73Z"/>
    <path d="M488.33,646.86c-2.14-3.72-6.43-9.71-.88-12.57,5.75-2.48,7.42,4.75,9.78,8.37,2.7,5.81-6.02,9.99-8.9,4.2Z"/>
    <path d="M490.46,653.28c-.24-2.44-2.02-5.09-3.15-6.99-6.3-8.89-9.02-19.54-15.11-28.51,.07,.07,.14,.14,.19,.19,.03,.03,.06,.06,.09,.09-2.91-3.26-6.52-10.34-1.21-13.05,2.32-1.1,5.54-.13,6.55,2.35,.52,1.18,.84,2.59,1.54,3.68,5.84,8.06,9.65,17.66,13.84,26.63,3.06,4.35,6.24,8.62,6.98,13.93,1.03,6.3-8.5,8.04-9.7,1.68Z"/>
    <path class="cls-1" d="M286.58,534.57c-18.69-32.85-42.12-64.8-46.93-103.28-1.87-12.38,.2-24.99-.36-37.38,.04-1.15,1.22-2,2.31-1.89,2.99,.49,1.43,4.12,1.91,6.18,.35,9.56-.89,19.11-.25,28.64,2.46,21.38,10.24,41.65,20.43,60.41,8.02,14.18,16.63,28.06,24.85,42.13,.65,1.12,1.24,2.27,1.86,3.41,1.19,2.39-2.62,4.31-3.81,1.79Z"/>
    <path class="cls-1" d="M284.48,561.59c-2.34-1.59-1.07-5.04-.96-7.39,.71-5.66,.78-11.36,1.93-16.96,.2-1.13,1.47-1.82,2.54-1.57,2.76,.8,1.08,4.09,1.01,6.09,2.95-8.82,9.27-15.69,16.14-21.71,4.56-5.06,9.2-9.99,13.86-14.91,20.19-20.73,42.26-41.34,52.54-69.09,1.09-5.12,2.79-10.2,4.12-15.22,1.13-10.01,.87-20.16,.63-30.2-.14-1.8-1.04-4.49,1.43-5,2.78-.3,2.56,2.96,2.8,4.9,.19,10.47,.54,21.04-.78,31.45-1.26,4.75-2.8,9.04-3.77,13.81-9.49,28.07-31.21,49.28-51.59,69.76-5.28,5.67-10.6,11.12-15.65,16.86-7.79,6.91-15.41,15.03-17.07,25.74-.36,3.88-1.6,7.52-3.66,10.79-.43,1.72-1.48,3.61-3.54,2.64Z"/>
    <path class="cls-1" d="M294.4,546.97c-4.04-.93-7.43-5.1-11.67-4.52-1.14,.12-2.23-.53-2.44-1.71-.18-1.08,.58-2.32,1.73-2.44,5.06-1.15,8.89,3.01,13.34,4.56,2.67,.66,1.72,4.72-.96,4.11Z"/>
    <path class="cls-1" d="M273.73,170.87c-3.03-8.32-5.76-18.43-.77-26.51,.52-1.02,1.85-1.42,2.85-.88,2.95,2.02-1.11,5.2-1.15,7.79-.75,5.92,.86,12.33,2.89,17.8,1.18,2.45-2.68,4.3-3.81,1.8Z"/>
    <path class="cls-1" d="M293.06,176.38c-3.1-.97-.75-4.54-.43-6.67,2.94-10.42,1.35-21.24,1.69-31.89-.06-2.74,4.12-2.91,4.21-.15-.29,11.46,1.32,23.21-2.15,34.34-.53,1.75-.79,4.9-3.32,4.37Z"/>
    <path class="cls-1" d="M311.34,173.64c-2.66-.75-1.17-3.71-.98-5.61,.42-2.66,.63-5.39,.7-8.11,.02-5.68,.02-11.36-.15-17.04-.04-1.15,.89-2.14,2.03-2.19,3.79,.24,1.79,6.87,2.32,9.48-.35,3.85,1.46,24.34-3.92,23.46Z"/>
    <path class="cls-1" d="M333.62,174.66c-.86-.79-.9-2.13-.13-2.99,4.22-5.49,2.6-13.16,2.73-19.58-.06-3.07-.25-6.17-.45-9.24-.08-1.15,.91-2.14,2.03-2.19,1.18-.04,2.11,.89,2.19,2.03,.07,10.02,2.64,21.07-2.14,30.34-.86,1.42-2.63,3.07-4.22,1.63Z"/>
    <path class="cls-1" d="M347.73,172.77c-.73-1.57,.59-2.79,1.95-3.29,1.19-.56,1.65-1.83,2.05-2.99,2.83-9.24,2.4-19.17,1.66-28.71-.16-1.13,.56-2.23,1.71-2.44,4.78-1.05,2.48,16.39,2.84,19.67-.71,6.45-.56,15.69-7.4,18.77-1.02,.51-2.33,.02-2.81-1.01Z"/>
    <path class="cls-1" d="M484.28,628.01c-4.22-4.83,9.67-9.39,12.11-12.3,4.97-5.52,10.16-10.92,16.53-14.84,3.88-1.93,7.68-3.38,11.09-6.01,9.35-6.03,18.91-12.88,30.11-14.5,1.66,.14,3.14-.91,4.8-.96,1.48-.07,2.72,1.51,2.15,2.92-.48,1.36-1.82,2.19-2.96,2.97-7.36,4.98-15.01,9.47-22.65,13.99-10.49,5.63-20.21,14.75-30.95,19.67-4.84,2.79-10.5,4.27-14.9,7.69-.73,.66-1.56,1.45-2.62,1.13-.77,.67-1.87,.85-2.73,.23Z"/>
    <path class="cls-1" d="M479.65,616.54c-2.57-1.59,.09-4.35,1.01-6.19,2.36-4.48,7.32-6.34,10.43-10.11,4.29-7.02,11.24-10.64,17.49-15.52,4.62-3.07,7.98-7.6,12.5-10.77,8.15-4.28,16.54-9.85,25.65-11.32,3.3-2.71,6.59,1.42,2.65,3.57-9.18,5.38-19.28,9.23-27.35,16.42-7.54,5.62-16.08,10.39-22.54,17.3-2.62,4.21-6.76,8.54-11.94,8.89-2.39,1.79-3.67,4.31-5.04,6.84-.56,1.01-1.85,1.41-2.86,.88Z"/>
    <path class="cls-1" d="M128.89,654.9c-11.62-1.24-23.21-2.74-34.87-3.51-2.13-.14-4.25-.3-6.38-.46-3.7-1.6-7.05-3.89-10.47-6.02-.98-.6-1.14-2.04-.52-2.95,.68-.97,1.93-1.11,2.91-.53,1.07-.42,2.27,.09,3.3,.48,8.28,2.96,16.85,6.18,25.41,7.99,5.45,.63,10.81,1.54,16.25,2.26,2.6,.52,5.8,.69,7.66,2.79,.07,.11,.13,.21,.18,.32-1.16-.13-2.32-.26-3.48-.38Z"/>
    <path class="cls-1" d="M125.85,639.46c-8.95-.46-17.52-3.03-25.92-5.95-3.33-1.19-27.31-6.79-19.96-12.07,.11-2.73,3.31-2.59,4.97-1.25,7.06,4.28,14.89,6.95,22.84,8.85,7.86,2.48,15.6,5.87,23.88,5.59,.6-.13,1.2,.06,1.66,.43,1.23-.08,2.39,.81,2.42,2.07-.09,3.67-7.35,2.13-9.89,2.32Z"/>
    <path class="cls-1" d="M130.58,651.74c1.06-12.84,2.93-25.78,6.4-38.22,1.23-5.17,2.64-10.28,4.36-15.31,.35-1.09,1.67-1.63,2.71-1.23,1.11,.42,1.58,1.62,1.23,2.71-3.38,11-6.67,22.21-8.2,33.64-.37,6.15-2.31,12.17-2.29,18.27,.03,2.73-4.11,2.91-4.22,.14Z"/>
  </g>
</svg>