<?xml version="1.0" encoding="UTF-8"?>
<svg id="Vektorebene" xmlns="http://www.w3.org/2000/svg" viewBox="0 0 847.57 834">
  <defs>
    <style>
      .cls-1 {
        fill: #fff;
      }
    </style>
  </defs>
  <path d="M16.94,741.53c-1.63-.45-2.75-2.27-2.22-3.92,2.72-7.42,3.38-15.54,7.19-22.54,4.7-8.7,6.36-18.64,11.27-27.22,5.79-12.29,8.83-25.44,13.33-38.1,5.37-9.18,8.37-18.7,13.51-27.83,3.59-4.88,5.63-10.49,7.57-16.08,3.36-8.08,8.84-15.05,13.08-22.67,6.56-9.01,8.83-20.44,16.01-29.02,8-7.18,11.27-17.63,18.2-25.52,3.99-3.66,8.94-6.18,12.49-10.34,4.73-5.86,9.22-12.1,15.98-15.78,8.4-4.27,14.41-11.59,22.53-16.13,6.66-3.43,13.21-6.96,20.01-10.07,7.41-2.77,14.28-6.56,20.84-10.94,22.52-11.17,46.1-20.44,69.71-29.12,20.7-6.51,41.65-12.61,61.34-21.73,2.21-1.31,5.61-2.75,6.99,.36,1.11,2.97-1.71,4.34-3.96,5.23-26.51,12.64-55.38,18.62-82.42,29.64-19.66,8.65-40.39,15.28-58.36,27.25-13.14,6.41-27.7,11.34-39.03,20.58-4.92,4.79-11.01,8.38-16.76,11.91-5.99,3.99-9.31,10.62-14.47,15.47-3.54,3.46-8.08,5.73-11.51,9.32-4.23,5.48-6.56,12.18-11.01,17.53-10.36,9.3-13.27,22.68-20.69,33.92-3.66,6.38-8.05,12.78-11.54,19.13-2.71,5.27-3.65,10.74-6.63,15.79-6.73,9.63-9.78,21.09-15.8,31.13-4.17,11.38-6.95,23.24-11.75,34.46-5.9,11.78-9.5,24.49-15.29,36.32-2.32,4.56-2.54,20.18-8.62,18.97Z"/>
  <path d="M832.37,741.95c.41-25.53-6.44-50.16-14.45-74.02-9.16-35.05-23.04-69.37-40.55-100.9-5.15-7.15-10.19-14.92-15.35-21.97-11.99-11.3-22.62-23.35-35.68-33.42-8.21-8.4-16.46-16.01-26.66-21.66-17.93-14.01-38.93-24.11-59.75-33.1-23.2-5.32-43.85-17.32-65.29-26.94-3.92-1.86-14.1-2.16-12.48-7.82,1.85-3.95,6.74-.45,9.36,.21,18.6,5.93,34.96,17.21,53.36,23.56,20.32,4.68,38.91,14.34,56.8,24.77,8.5,3.43,15.47,9.43,22.7,14.83,5.11,3.52,10.86,6.2,15.3,10.62,8.38,9.62,18.92,16.78,28.06,25.55,7.5,9.31,17.26,15.46,23.51,25.44,13.22,16.97,22.5,36.15,30.46,55.96,6.96,14.14,12.73,29.08,16.83,44.37,5.62,19.59,12.75,38.59,16.61,58.56,2.37,11.83,3.74,23.88,3.6,35.96,0,1.73-1.46,3.19-3.19,3.19s-3.19-1.46-3.19-3.19Z"/>
  <path d="M485.78,519.27c-12.91,.51-24.6-3.96-36.62-7.86-15.66-3.82-29.6-12.63-43.02-21.09-7.44-3.23-13.83-7.86-19-14.11-6.65-4.52-14.33-7.8-19.18-14.57-4.51-8.63-11.6-14.79-17.59-22.19-4.17-4.4-6.34-10.45-9.23-15.46-1.53-2.9-6.37-6.53-2.99-9.66,4.93-3.75,10.53,10.61,12.27,14.05,4.2,7.63,10.57,13.24,16.17,19.62,5.39,9.02,11.73,17.01,21.7,21.19,3.54,1.97,6.29,5.86,8.96,8.45,4.78,4.24,10.69,6,15.81,9.34,12.33,8.51,25.94,15.51,40.47,19.03,8.4,2.55,16.45,6.5,25.37,6.5,25.02,2.71,49.86-8.06,65.05-27.69,8.78-10.34,10.92-24.43,14.22-37.17,1.66-7.43,2.68-15.34,1.48-22.83-.63-4.05,5.85-5,6.32-.86,1.93,20.23-4.37,41.33-12.96,59.45-14.92,22.18-40.32,36.43-67.25,35.86Z"/>
  <path d="M457.89,431.09c-13.79-.61-27.64-4.07-39.76-10.8-4.65-3.35-8.94-7.2-13.81-10.27-11.55-5.84-19.71-16.06-28.08-25.49-7.53-6.5-12.18-15.18-17.19-23.6-4.48-6.5-9.67-12.54-13.29-19.61-4.25-7.96-7.53-16.49-11.08-24.74-8.46-13.74-15.18-29-15.03-45.45-1.67-12.11-.22-24.03,1.72-35.91,.3,4.92,1.44,9.72,4.42,13.86,.1,.13,.19,.26,.29,.39-1.05,11.58-1.04,23.18,1.32,34.73,2.47,13.84,11.5,24.59,16.31,37.47,4.93,13.34,12.61,25.22,21.14,36.49,7.18,14.55,19.28,25.22,29.8,37.25,5.97,5.96,14.04,9.01,20.38,14.4,11.7,10.42,27.93,13.95,43.21,14.92,8.2,.38,15.61-1.44,23.26-3.88,1.68-.38,3.43,.78,3.78,2.47,.58,4.58-5.71,4.31-8.73,5.66-5.25,1.12-10.58,2.2-15.98,2.2-.89,0-1.79-.03-2.69-.09Z"/>
  <path d="M485.39,419.65c-2.56-3.45,2.51-5.77,4.63-7.22,4.25-2.62,8.83-6.09,11.93-9.84,8.1-10.85,19.21-19.08,28.01-29.27,7.7-9.54,11.32-21.24,16.99-31.91,6.7-10.02,7.15-21.8,10.74-32.9,4.43-14.42,8.01-29.72,6.75-44.7-.9-9.39-4.61-18.15-7.2-27.15-2.37-15.05-3.92-30.4-10.37-44.47-1.67-3.01-3.26-6.16-4.65-9.4-.06-.67-.12-1.33-.17-2-.2-2.12-.48-4.25-.8-6.34-.46-2.99-.95-5.91-2.02-8.73-1.13-2.92-2.79-5.44-4.63-7.93-.62-.83-1.3-1.62-2.02-2.36-.94-3.35-1.62-6.76-1.92-10.23-1.28-6.59-7.07-10.4-11.28-15.03-5.97-6.34-12.78-12.86-21.12-15.61-9.59-2.04-18.95-4.75-27.36-9.94-27.63-13.29-59.47-36.39-90.5-19.81-16.74,9.56-32.37,24.54-36.52,43.99-4.88,14.59-7.7,29.57-9.4,44.71-1.74,1.7-3.18,3.7-4.21,5.97-1.8,3.98-2.83,8.43-3.66,12.86,1.28-16.78,2.61-33.53,6.54-50.03,4.46-15.61,8.3-31.76,19.78-43.96,22.42-24.69,52.57-33.4,83.23-18,16.64,7.62,32.85,16.46,49.25,24.34,6.59,2.27,13.82,2.67,20.08,5.96,11.18,6.4,20.26,16.21,28.44,25.98,4.08,5.79,3.12,13.52,5.51,19.88,2.7,6.32,5.18,12.84,6.8,19.5,2.31,6.54,5.84,11.63,8.3,17.9,3,10.44,7.18,20.82,7.35,31.81,.66,9.74,4.85,18.75,7.25,28.13,5.92,22.77-2.65,45.48-8.18,67.38-1.43,9.38-5.09,18.07-9.96,26.15-5.08,10.85-9.49,22.7-17.57,31.63-6.9,7.73-15.18,14.64-22.19,22.2-5.21,7.37-12.18,13.46-19.93,17.94-.99,.93-2.34,1.72-3.62,1.72-.84,0-1.65-.34-2.31-1.21Z"/>
  <path d="M341.74,416.84c-.02-2.02,1.78-3.25,3.62-3.22,17-1.05,15.35-7.59,16.12-21.85,1.5-8.53-.66-17.02-3.04-25.15-.61-3.36-4.98-8.6-.7-10.96,5.44-1.61,5.46,7.22,7.25,10.57,2.4,8.45,4.34,17.42,2.82,26.12-.38,6.94,.05,13.87-3.48,19.96-2.47,4.37-7.68,5.82-12.27,6.76-3.33,.45-9.81,2.89-10.32-2.23Z"/>
  <path d="M555.59,424.78c-18.45-4.95-12.63-28.91-12.93-43.24-.08-5.78-.11-11.56,.44-17.32,1.12-4.07-2.49-14.45,3.21-14.87,5.82,.13,2.62,14.38,2.89,18.47,.07,11.13-1.06,22.22-.5,33.2-.08,6.79,.38,16.02,8.58,17.62,4,1.04,2.26,7.31-1.69,6.14Z"/>
  <path d="M559.98,426.23c-2.66-1.34-8.04-2.45-6.62-6.49,.65-1.53,2.62-2.46,4.18-1.69,1.61,.8,3.24,1.68,4.93,2.32,3.83,1.55,1.27,7.49-2.49,5.86Z"/>
  <path d="M479.11,425.8c-2.42-3.43,2.2-5.49,4.3-7.47,2.71-2.19,5.6-8.32,9.54-5.13,2.57,2.68-.67,5.19-2.58,6.99-2.67,2.44-7.49,9.53-11.26,5.61Z"/>
  <path d="M326.01,304.77c-2.45-1.39-6.46-3.09-6.71-6.23-8.71-7.98-13.92-18.94-19.71-29.06-2.72-6.27-3.55-13.26-5.77-19.61-4.84-14.16-11.58-27.36-13.64-42.33-2.9-19.7-.07-39.94,2.85-59.45,2.07-9.37,2.19-19.06,4.35-28.41,4.64-11,8.8-22.27,15.48-32.26,2.13-2.93,4.4-5.65,6.14-8.83,.96-1.44,2.8-2.06,4.36-1.14,4.67,3.4-3,9.75-4.91,13.06-6.46,9.47-10.18,20.16-14.82,30.55-1.83,7.46-2.03,15.18-3.37,22.73-3.31,19.7-6.34,39.93-4.2,59.9,1.54,15.31,8.7,29.27,13.56,43.56,2.56,6.9,3.27,14.39,6.45,21.08,2.5,4.44,5.37,8.66,7.74,13.19,3.46,5.77,7.89,11.33,13.27,15.23,1.71,1.38,4.08,2.44,4.84,4.65,.96,3.76-3.62,5.26-6.29,3.19,0,0,.37,.2,.36,.2Z"/>
  <path d="M569,257.08c-1.36-1.05-1.68-3.1-.58-4.46,4.13-5.51,3.92-12.78,6.09-19.1,1.66-7.69,4.83-14.97,6.49-22.69,.56-10.78,1.22-21.48,.1-32.16-1.95-10.64-8.26-19.56-10.81-29.98-3.01-7.01-7.87-13.07-9.46-20.69-3.68-13.76-8.52-27.43-16.14-39.51-5.56-8.09-12.67-15.45-18.19-23.41-5.61-5.87-10.32-12.97-16.06-18.5-6.28-4.18-12.55-8.44-18.76-12.74-14.55-7.7-29.19-17.06-46.01-18.56-15.11-1.93-29.15,3.1-43.47,6.92-12.53,1.61-23.82,6.02-34.81,12.05-13.56,5.98-24.81,16.33-34.94,26.87-7.41,8.22-13.9,17.38-21.46,25.32-4.04,2.73-7.39-3.58-2.97-5.81,11.66-14.56,23.45-29.49,38.23-41.08,7.56-4.76,14.52-10.04,22.96-13.17,10.35-6.6,22.26-8.54,34.03-11.02,14.29-4.19,28.61-8.34,43.67-6.36,10.61,.67,20.08,5.74,29.92,9.31,12.24,6.23,23.5,14.01,35.06,21.37,6.79,4.84,11.57,12.59,16.94,18.56,12.79,15.47,26.22,30.92,32.7,50.29,3.81,11.94,6.41,24.26,13.37,34.83,1.68,3.39,2.48,7.03,3.59,10.47,1.93,4.84,4.5,9.04,6.12,13.99,4.51,11.02,3.45,23.11,3.15,34.75,.19,8.96-2.19,17.69-5.46,25.98-2.46,5.51-4.64,33.17-13.3,28.54Z"/>
  <path d="M544.68,180.7c-2.7-.35-2.87-3.05-2.74-5.21-.07-.86-.39-1.54-.88-2.1-.42-2.61-.91-5.17-1.86-7.66-.09-.23-.18-.45-.28-.68,4.16,1.61,8.32,3.84,9.17,8.44,.27,1.49,.27,2.97,.17,4.48-.12,1.58-1.67,2.75-3.18,2.75-.13,0-.27,0-.4-.03Z"/>
  <path d="M542.58,184.86c-.08-.22-.17-.41-.25-.63,0-.13-.02-.26-.03-.4,1.49-.38,3.13,.4,3.75,1.84,.81,2.12-.37,3.45-2.03,4.34-.31-1.73-.78-3.46-1.44-5.15Z"/>
  <path d="M318.01,257.11c-2.66-28.1,2.91-56.03,6.86-83.67-.2-2.47,.63-5.71,3.73-5.3,1.8,.23,2.95,1.93,2.72,3.67-2.13,20.9-7.26,41.43-7.24,62.55-.54,7.43-.73,14.55,.25,21.89,.56,4.06-5.82,4.98-6.32,.86Z"/>
  <path d="M324.69,256.88c-1.68-.23-3-1.88-2.72-3.58,.43-3.47,.1-6.98,.31-10.47,1.47-13.12,2.45-26.29,3.17-39.46,.9-10.06,1.1-20.39,1.68-30.29,.3-3.51,.83-7,.95-10.53,.12-1.73,1.96-2.94,3.58-2.72,4.32,.89,2.26,6.24,2.29,9.33-1.32,16.37-1.91,32.69-2.92,49.05-1.01,7.99-1.25,16.2-2.37,24.11-.95,4.19,2.38,14.46-3.99,14.57Z"/>
  <path d="M337.17,218.43c-6.42-7.17,19.99-20.22,25.14-23.21,8.64-5.58,17.68-12.36,28.26-12.83,8.02,.62,15.88-1.33,23.71,1.19,17.39,5.66,3.06,19.47-8.55,20.43-12.11,.64-24.24,.33-36.11,2.63-7.72,1.8-15.91,2.9-20.87,9.57-1.35,2.07-4.6,2.19-5.69-.19-1.23,2.04-3.52,4.24-5.89,2.41Zm27.55-17.25c9.22-2.28,18.74-2.55,28.19-3.18,7.93-.12,18.05,.92,23.08-6.42-4.8-3.67-11.75-3.31-17.46-2.54-3.32,.01-6.43-.52-9.72-.23-8.98,1.84-16.58,7.56-24.1,12.36Z"/>
  <path d="M465.39,188.63c-2.77-1-2.79-4.46-4.34-6.59-.83-1.11-1.77-2.15-2.67-3.22-1.75-2.04,.21-5.49,2.81-5.1,1.44-8.86,10.71-10.44,17.69-12.88,19.84-6.23,40.24-.94,59.64,4.16,3.95,1.08,2.29,7.3-1.69,6.14-13.01-3.26-25.9-6.97-39.43-6.8-7.42,.13-14.89,1.69-21.82,4.39-7.57,1.08-10.4,7.34-7.03,14.05,1.96,2.44,.29,6.81-3.14,5.84Z"/>
  <path d="M463.81,189.22c-1.11-1.44-.75-3.34,.56-4.48,2.62-3.08,6.34-3.35,10.08-3.82,13.83-3.95,28.13-3.05,42.32-2.88,8.14-.05,15.78-1.61,23.86-.25,2.42,0,5.9,.11,5.92,3.32-.62,5.44-7.85,2.38-11.43,2.56-11.13-.08-22.33,1.47-33.54,.53,.06,0,.12,.01,.18,.02-8.64-.55-16.84,.8-25.07,2.74-2.96,.83-6.33,.2-8.43,2.84-1.3,1.14-3.45,.75-4.46-.56Z"/>
  <path d="M541.37,175.12c-1.8-1.81-3.79-2.7-5.96-3.87-3.59-2.06-.34-7.59,3.22-5.51,2.6,1.35,5.18,2.75,7.23,4.86,2.97,2.84-1.57,7.43-4.5,4.51Z"/>
  <path d="M339.23,216.38c-2.1,1.82-5.71-.24-5.23-3.1,.89-4.31,4.67-7.35,8.03-9.84,7.28-4.78,14.43-9.64,22.62-12.73,7.24-3.68,15.65-4.89,23.47-6.85,6.59-2.28,14.02-5.29,20.78-5.67,2.91-.11,6.15-1.36,8.84,.27,5.12-1.51,4.51,4.29,4.05,7.31-.82,4.07,2.17,14.32-4.65,13.45-7.33,3.2-15.39,4.04-23.31,4.06-12.1,1.55-24.3,3.08-36.3,5.03-5.4,1.86-9.56,5.74-14.22,8.85-1.32,.84-3.13,.41-4.08-.77Zm22.85-16.27c-.5,.33-.99,.65-1.48,.98,10.35-.53,20.3-2.93,30.57-3.97,8.2-.41,15.81-.44,23.29-3.68-.17-2.44,.06-5.08-.88-7.34-9.12-.96-18.02,1.42-26.26,4.95-8.52,2.78-18.13,3.21-25.24,9.06Z"/>
  <path d="M462.46,219.23c-1.03-1.31-.86-3.48,.56-4.46,9.99-6.29,19.44-13.67,31.58-15.03,12.53-1.68,28.45-2.15,37.65,7.98,2.59,3.28-2.59,7.2-5.07,3.86-11.6-10.24-31.42-6.71-44.71-1.75-4.48,2.92-8.81,6.13-13.55,8.63-1.85,1.44-4.58,3.2-6.45,.78Z"/>
  <path d="M496.58,222.29c-13.51-1.04-13.54-17.01-1.38-19.96,4.11-.23,18.69-1.7,15.13,5.47,7.26,9.2-5.44,16.11-13.75,14.49Zm4.48-7.18c.97-.05,2.07-.35,2.64-1.2-.87-2.25-4.77-2.04-4.48-5.06-3.24-.69-6.72,.52-5.81,4.39,2.51,1.66,5.28,1.94,8.07,1.85,0,0-.43,.02-.43,.02Z"/>
  <path d="M546.09,475.51s-.02,.04-.04,.05c.01-.02,.02-.04,.04-.05Z"/>
  <path d="M354.97,239.74c-5.46-3.76,2.55-10.11,5.21-13.31,4.69-6.03,12.52-6.36,19.35-8.2,10.58-.83,21.42-1.55,31.7,1.4,2.86,.56,7.66-.94,7.85,3.36-.95,6.26-10.85,2.01-14.86,1.6-8.13-1.38-16.14-.53-24.1,0-3.84,1.25-7.94,1.55-11.67,3.06-3.65,2.65-6.81,6-8.99,9.66-.52,1.94-2.57,3.25-4.5,2.42Z"/>
  <path d="M380.39,241.17c-10.81-2.29-7.19-17.49,1.83-19.38,4.5-1.15,9.82-.89,13.56,2.09,3.68,1.9,5.05,6.99-.22,7.34,4.17,9.23-8.42,12.66-15.17,9.95Zm6.02-5.52c1.2-.14,2.48-.32,3.53-.94-.63-3.23-4.2-8.25-7.82-5.8-.23,.76-.73,1.4-1.37,1.81-.41,1.01-.68,2.1-.73,3.19,0,0,0,0,0,.01h0c1.84,1.39,4.17,1.81,6.38,1.74Z"/>
  <path d="M413.13,294.01c-7.16-7.57,.59-17.17,6.18-22.99,2.63-4.97,5.15-10.26,7.02-15.55,.52-2.65,.5-7,4.29-6.6,1.68,.23,3.02,1.88,2.72,3.58-1.26,8.2-5.22,15.99-9.43,23.05-3.1,3.7-7.5,7.05-7.21,12.34,.06,.94,.96,1.53,1.46,2.26,2.58,3.22-2.5,7.16-5.04,3.9Z"/>
  <path d="M456.19,289.81c-3.23-7.9,25.4-9.25,22.22-.95-.65,1.54-2.61,2.46-4.18,1.69-3.35-1.14-6.78-.81-10.17-.61-2.54,.96-6.22,3.44-7.86-.13Z"/>
  <path d="M425.43,294.88c-4.25-6.52,15.21-11.84,13.92-3.48-.98,3.27-3.92,1.91-6.36,2.27-2.48,.82-5.13,4.26-7.56,1.21Z"/>
  <path d="M426.56,251.17c.1-6.18,1.62-12.35,.91-18.52-.18-1.73,.96-3.34,2.74-3.58,7.36-.42,2.15,17.35,2.72,22.1-.06,4.15-6.34,4.16-6.37,0Z"/>
  <path d="M412.6,336.09c-2.54-.17-6.37,.21-6.42-3.33,0-1.71,1.44-3.24,3.19-3.19,3.71,.09,6.58,.52,10.11,.14,11.7-2.3,22-9.62,33.95-11.24,17.31-5.27,36.43,3.39,53.4-3.35,3.75-1.64,6.32,4.28,2.47,5.87-16.99,7.36-36.24-1.08-53.6,3.5-14.97,1.79-27.72,13.39-43.17,11.59,0,0,.07,0,.07,0Z"/>
  <path d="M457.09,363.87c-9.75-.3-19.99-3.45-26.83-10.5-3.82-2.1-7.11-4.91-10.08-8.07-3.77-1.79-6.73-4.87-10.31-6.83-3.8-1.57-1.31-7.53,2.47-5.87,2.38,.76,3.96,2.58,5.9,4.01,2.58,1.91,5.74,3.03,7.82,5.56,4.52,4.37,9.91,7.48,14.76,11.42,9.37,4.41,20.72,5.11,30.4,1.95,7-3.6,13.63-6.2,16.89-13.79,2.22-2.46,4.46-4.98,6.4-7.67,2.52-3.48,3.08-7.58,6.01-10.71,1.29-1.17,2.68-2.11,3.53-3.68,2.46-3.27,7.58,.63,5.04,3.9-1.07,1.92-2.89,3.19-4.41,4.68-2.93,6.91-7.16,12.8-12.15,18.33-1.63,5.09-6.39,7.72-10.59,10.53-7.43,4.76-16.03,7.09-24.86,6.75Z"/>
  <path d="M310.18,287.4c-4.61-3.33-4.32-9.23-6.01-14.03-.02,0-.03,.02-.05,.02-3.06-10.59-7.83-20.34-8.3-31.5-6.64-13.53-8.69-29.34-10.57-44.25-10.03-10.37-3.65-31.26-2.19-44.23,3.37-22.38,12.32-44.1,24.51-63.08-3.45-4.88-1.09-11.22,3.33-14.61,6.06-6.31,12.73-12.01,18.87-18.17,12.41-9.42,25.35-18.06,39.06-25.52,8.73-3.61,18.5-13.24,28.31-8.9,6.96-3.46,18.33-6.25,21.25,3.62,1.02,.18,2.02,.53,3,1.1,2.66,1.56,4.33,4.17,4.8,7.02,15.38,11.59-7.71,23.49-16.76,29.48-7.01,4.36-14.44,8.05-21.19,12.82-1.8,1.94-4.46,3.17-7.31,3.21-16.55,9.98-25.9,28.84-40.68,41.29-4.09,15.45-8.64,30.03-10.3,45.3-1.38,7.77,.74,17.93-6.35,23.3-.44,14.79-1.98,29.55-2.01,44.34,.29,7.51,2.29,15.18-.41,22.39,.64,4.45,1.08,6.48,1.89,10.41,1.51,6.24,5.26,13.84-.13,19.21-3.29,3.29-9.14,3.89-12.78,.78Z"/>
  <path d="M561.31,248.11c-1.74-4.5-.04-9.28-1.09-13.92-1.35-3.02-1.67-6.39-2.56-9.47-4.18-9.35-3.22-19.75-6.23-29.34-7.05-17.82-11.17-36.49-16.74-54.76-8.14-4.68-13.63-12.62-20.67-18.71-10.1-2.84-16.94-11.71-27-14.02-5.36-1.49-10.8-2.74-16.11-4.45-5.85-1.08-8.76-5.08-13.56-7.35-13.52-6.47-29.19-10.52-40.23-21.02-9.02-2.72-18.58,1.05-27.42-1.44-11.99-5.07-6.25-21.67,5.4-22.42-2.22-8.24,6.19-14.92,13.99-13.85-5.13-5.93-7.46-16.14,1.2-20.18,4.18-1.94,8.77,.53,13.13-.68,3.6-6.14,11.32-4.38,17.22-3.65,8.87,.88,17.32,2.65,24.77,7.79,10.35,1.9,20.04,5.88,28.33,12.42,12.98,5.36,23.96,14.5,34.91,23.15,7.11,6.82,10.3,16.35,14.57,24.98,3.04,6.1,8.82,10.67,11.13,17.14,3.68,8.43,6.74,15.72,11.44,23.26,4.03,10.37,4.74,21.78,10.12,31.69,5.64,19.71,11.25,39.01,9.72,59.57-1.41,9.21-5.15,17.11-5.73,26.12,.1-.47,.16-.82,.25-1.24-.58,5.11,.43,10.57-4.21,14.25-4.69,3.79-12.4,1.85-14.64-3.85Z"/>
  <path d="M497.49,224.09c-17.86-4.08-5.38-27.94,8.13-17.09,6.79,6.15,1.2,18.77-8.13,17.09Z"/>
  <path d="M378.23,239.09c-7.5-7.44,1.78-19.89,11.07-18.3,5.66,.63,10.16,5.79,9.36,11.58-1.15,9.05-14.13,12.57-20.43,6.72Z"/>
  <path d="M97.04,590.6c-11.18-4.41-5.26-18.03,1.07-24.2,4.53-8.98,10.41-17.2,16-25.53,9.88-10.7,20.98-20.34,33.19-28.36,5.23-5.92,12.8-8.47,17.96-14.4,8.04-5.4,13.42-11.57,22.68-14.32,6.77-2.5,12.26-7.85,19.58-8.72,.76-.31,.65-.3,1.24-.59,15.62-8.71,32.72-14.66,49.62-20.36,8.29-1.64,17.97-9.91,25.89-3.84,10.45-2.15,15.78,12.49,6.54,17.67,0,.07,0,.15,0,.22,6.5-1.61,15.26-4.7,19.07,3.03,4.84,10.52-7.15,15.02-15.33,16.73-17.16,5.93-33.92,12.98-50.55,20.26-9.17,3-21.32,14.37-30.06,5.36-1.95,.46-3.94,.68-5.95,.39-2.39-.34-4.45-1.81-5.84-3.75-5.23,2.19-11.96,.17-14.05-5.39-5.43,4.92-11.54,8.39-16.62,13.64-5.26,2.77-9.56,6.49-14.04,10.34-11.03,7.79-22.51,16.16-30.4,27.21-6.4,8.08-10.12,17.99-16.87,25.76-1.11,6.14-6.86,11.11-13.15,8.87Z"/>
  <path d="M470.44,534.8c-2.05-14.48,18.04-12.12,27.23-15.88,10.18-2.32,20.67-6.32,28.91-12.5,7.12-5.17,14.18-10.5,19.42-17.53,4.43-11.16,7.93-23.37,9.47-35.28,3.58-10.63-1.02-37,16.69-33.23,6.01,2.04,7.79,8.91,5.24,14.32-.56,5.15-1.31,10.24-1.85,15.4-2.53,13.15-4.06,26.64-9.43,39-1.11,5.75-4.98,12.67-9.07,16.17-4.6,5.88-10.65,10.32-16.66,14.55-7.21,5.51-14.44,9.82-22.57,13.13-11.81,3.67-23.91,6.73-36.06,9.24-5.02,.91-10.24-2.11-11.33-7.38Z"/>
  <path d="M477.75,538.12c-12.14-.84-22.59-7.95-33.81-11.72-18.38-3.42-33.02-15.83-48.29-25.7-18.5-8.18-32.43-22.6-44.86-38.17-6.16-9.13-12.48-15.57-16.03-25.1-4.28-5.99-11.65-11.56-5.39-19.19,7.38-7.42,14.64-2.88,18.72,5.11,3.47,3.95,5.05,8.99,7.53,13.53,3.56,3.42,6.18,7.56,8.51,11.85,11.55,14.69,24.64,28.44,41.94,35.94,11.78,7.8,22.05,15.74,34.77,21.22,8.43,1.91,16.46,5.04,24.14,8.54,4.63,1.76,9.26,4.52,14.27,4.62,9.93-2.2,19.98-1.85,30.05-2.09,12.25-2.33,16.2,15.85,3.93,18.7-6.14,1.3-12.39,.01-18.58,.66-5.72-.15-11.18,2.15-16.89,1.78Z"/>
  <path d="M17.89,747.99c-9-5-4.17-13.64-.62-20.55,5.57-14,11.12-27.97,17.14-41.79,3.58-13.09,11.12-24.29,15.61-36.99,4.37-8.24,9.79-15.92,12.96-24.77,3.17-7.63,6.75-14.9,11.18-21.8,2.61-6.01,5.25-12.08,8.9-17.65,2.95-3.61,4.44-7.91,6.52-12.01,4.26-6.89,9-12.75,12.3-19.85,8.68-10.89,15.99-22.85,25.34-33.27,2.34-2.49,5.14-4.04,7.93-5.88,3.53-3.26,6.85-6.45,11.32-8.41,9.45-4.09,15.57-9.41,24.91-12.5,5.63-4.76,14.06-7.64,20.34-10.55,4.73-2.91,9.16-6.21,14.7-7.54,14.4-7.96,29-16,45.03-19.98,10.52-4.51,23.26-6.62,34.12-8.88,7.61-3.28,18.66-2.09,18.42,8.41-.32,5.4-5.05,9.08-10.25,9.09-19.06,4.63-38.65,8.08-56.27,17.08-10.82,3.98-20.33,10.8-31,15.04-8.01,6.11-18.4,7.84-26.24,14.28-6.24,1.97-11.27,5.84-17.18,8.5-5.56,2.92-11.34,5.28-15.59,10.08-8.65,5.29-15.33,15.22-21.09,23.61-2.34,4.03-5.17,7.71-8.31,11.11-1.46,3.19-3.25,6.72-5.38,9.33-6.35,8.47-10.76,19.29-16.56,27.93-2.82,5.19-4.23,10.88-7.96,15.58-6.85,13.26-11.96,27.3-20.15,39.88-3.68,8.42-7.01,16.92-11.51,24.96-4.26,12.2-9.05,24.03-14.36,35.69-2.49,7.54-5.61,14.85-8.83,22.1-2.25,6.63-7.75,13.48-15.4,9.72Z"/>
  <path d="M164.89,506.82c-8.75-11.06,8.5-19.94,16.62-23.81,5.23-2.79,9.6-7.15,15.78-8,6.24-1.77,11.04-6.15,16.88-8.73,14.26-5.66,28.5-11.25,42.18-18.22,8.87-2.88,17.4-6.43,26.23-9.47,6.95-2.01,14-3.49,20.39-6.94,7.08-3.05,13.21-3.74,18.4-9.28,5.6-4.84,14.96-10.07,20.41-2.19,2.89,4.26,1.81,10.42-2.56,13.28-5.1,2.39-8.55,6.81-13.26,9.72-7.48,3.32-15.49,5.54-22.77,9.44-5.81,1.78-12.53,3.14-18.1,5.34-7.27,2.23-12.46,5.51-19.69,7.04-6.68,2.91-12.98,6.84-19.91,9.12-8.47,6.75-19.55,9.85-28.94,15.33-5.93,2.63-12.92,2.56-18.42,6.17-4.41,3.48-9.86,5.01-14.51,7.98-4.85,4.96-13.03,9.74-18.75,3.21Z"/>
  <path d="M818.8,745.98c-5.76-4.34-6.49-12.23-7.14-18.9-1.9-9.19-2.67-18.6-5.08-27.68-9.33-25.31-15.53-51.55-24.37-77.02-2.26-8.01-7.26-14.67-10.49-22.27-3.47-8.29-5.68-17.07-10.12-24.96-5.76-15.63-19.22-24.53-30.98-34.8-6.15-6.19-12.23-12.94-18.47-18.9-8.47,1.53-13.88-7.57-20.21-11.72-10.48-10.67-22.98-18.32-36.08-25.34-9.95-6.43-21.94-8.34-31.95-14.55-4.33-2.99-8.12-6.86-13.12-8.79-3.88-.61-7.91-.93-11.4-2.92-5.94-3.96-13.33-6.21-19-10.39-3.55-.34-7.53,.66-11.3,.02-12.48-1.02-11.39-19.53,1.18-19.08,4.38,.69,8.65-1.32,13.03-.03,7.28,1.8,12.73,7.01,19.71,9.51,3.53,2.23,6.96,3.98,11.22,4.1,5.01,.93,9.35,3.8,13.57,6.52,7.49,7.37,17.66,9.35,26.95,13.46,14.61,7.78,28.73,14.84,41.15,25.17,10.25-1.81,17.92,9.71,24.63,15.63,7.27,7.23,14.78,14.04,21.43,21.75,9.19,8.27,17.72,14.81,26.12,23.56,6.24,8.14,9.38,15.75,13.67,24.56,3.25,4.25,4.42,9.51,6.51,14.41,7.16,8.32,10.82,18.37,12.75,29.02,7.54,20.31,17.21,39.96,23.31,60.77,2.11,8.44,2.65,17.06,4.48,25.53,1.93,6.94,5.61,13.32,6.37,20.57,1.9,11.05-.85,30.36-16.36,22.78Z"/>
  <path d="M210.16,635.94c-8.94-4.87-10.85-22.89,1.58-24.16,5.14-.37,9.43,3.4,10.19,8.34,13.83,.96,27.17-3.62,39.87-8.54,16.93-5,33.4-11.01,49.42-18.42,1.8-10.23,17.54-10.28,21.68-1.61,2.19,4.3,1,10.2-2.84,13.22-20.87,12.38-44.72,18.94-67.55,26.9-16.11,5.59-36.14,12.11-52.35,4.26Z"/>
  <path d="M227.41,641.46c-7.72-.33-11.81-10.11-6.62-15.83,9.14-6.84,19.96-11.75,29.55-18.2,.38-3.08,2.3-5.89,5.18-7.53,10.19-6.01,20.6-11.65,31.06-17.16,8.17-4.96,16.36-10,25.3-13.47,6.3-2.62,13.75,3.53,12.61,10.13,3.95-1.08,8.36-2.87,12.5-1.94,10.02,2.35,9.93,15.61,.71,19.22-18.14,10.1-38.53,14.97-57.4,23.54-16.2,5.87-30.44,12.5-45.93,19.25-2.18,1.18-4.45,2.26-6.97,1.99Z"/>
  <path d="M45.82,805.76c-31.39-27.38-32.87-74.54-7.15-106.28,3.82-14.5,12.18-28.34,22.33-39.56,6.72-5.39,7.05-13.49,9.89-21.07,3-7.16,5.79-14.25,8.88-21.39,9.66-18.31,23.79-33.31,33.34-51.8,19.2-27.95,44.7-53.2,74.34-69.74,14.19-11.24,31.33-18.08,47.95-25.09,6.49-6.91,13.79-12.94,22.75-16.94,17.61-6.48,34.19-13.37,53.3-12.69,28.53,1.25,54.54,21.03,64.86,47.28,16.62,6.53,29.45,19.37,44.41,28.92,12.57,2.92,38.98,9.83,47.53,13.53,7.79,3.87,16.3,4.98,24.89,5.52,8.33-5.15,18.16-8.51,25.62-10.66,7.54-3.53,15.03-7.62,22.78-10.58,26.91-61.91,98.67-66.3,146.82-25.48,14.09,10.79,23.64,24.79,37.12,36.24,29.25,27.14,49.84,62.77,63.49,100.13,6.15,11.98,11.43,23.41,14.46,36.53,20.3,41.4,20.71,82.1-19.37,111.49-20.03,14.28-44.85,14.92-68.48,15.6-26.88,1.94-39.79,3.85-61.24,3.51-53.47-.71-106.71,3.62-159.98,6.57,0,0,0,.11,0,.11-42.13,.87-80.39,2.74-121.29,6.01-35.38,5.38-71.54,5.03-107.01,.69-17.52,.35-35.01,5.68-52.55,.53-19.88-5.59-40.37-9.09-61.03-10.19-24.89,31.75-77.44,36.96-106.65,8.81Z"/>
  <path d="M51.07,817.7c-40.31-20.59-49.94-65.94-33.4-102.19,5-16.74,16.78-29.43,29.96-40.62,9.69-12.08,20.34-23.61,32.86-32.86,7.6-5.94,12.5-14.07,19.92-20.17l1.49-2.2c9.41-15.2,22.29-27.05,39.59-33.16,31.5-11.53,69.32,1.35,87.11,29.79,63.74-5.66,127.21,.12,190.93,1.45,38.08,.59,76.65,2.89,114.69,5.18,13.88,.08,27.65,.5,41.52,.68,23.44-9.07,53.58-5.82,74.15,8.54,33.28,22.08,43.45,70.13,20.39,103.16-25.76,36.97-70.62,40-110.8,36.23-32.12-.22-63.05-1.42-94.88-3.59-65.87-1.95-131.77-5.63-197.71-5.52-16.54,.5-32.97,3.02-49.51,3.52-13.53,1.26-28.8-.86-40.84,5.92-11.22,8.22-23.59,12.97-32.16,24.22-22.1,27.27-61.27,37.74-93.33,21.61Z"/>
  <path d="M328.86,463.91c-16.7-1.51-12.93-36.59,4.82-27.39,11.31-5,18.94,13.1,9.9,19.98-1.82,5.57-9.03,10.15-14.72,7.4Z"/>
  <path d="M565.72,493.61c-3.58-5.79,1.71-12.06,1.73-18.05,.21-4.02,.55-8.05,.61-12.08-.58-4.15-.48-9.57,4.5-10.77,1.39-5.9,7.39-6.06,12.13-4.61,6.14-8.54,14.34,2.12,18.64,7.12,8.49-6.36,14,7.46,20.78,10.66,5.81,4.93-1.09,14.38-7.54,10.2-1.36,1.11-3.19,1.66-5.15,1.42-.17,.54-.42,1.06-.75,1.56-1.02,1.52-2.79,2.6-4.63,2.81,.1,5.58-7.6,8.53-11.16,4.14-2.44-3.67-4.93-7.3-7.15-11.11-.37,4.75-.13,9.55,0,14.28-.24,5.37-7.27,8.01-10.93,4.05-2.52,3.78-8.5,4.41-11.06,.38Z"/>
  <path d="M727.7,787.98c-7.62-13.65,16.18-12.49,23.9-15.31,14.12-5.2,29.27-7.54,42.71-14.54,6.39-3.71,9.31-11.19,12.1-17.78,1.73-3.72,7.02-4.66,9.97-1.88,.84-.07,1.72,.02,2.63,.34,1.88,.64,3.12,1.86,4.04,3.36,.44,.22,.85,.49,1.24,.8,.55-.6,1.08-1.22,1.59-1.86,.04-.06,.08-.11,.13-.17-6.63-3.74-2.13-14.02,5.17-11.63,17.52,3.19,6.99,19.5-1.81,26.47-6.65,6.88-14.97,10.95-24.06,13.33-10.18,5.24-20.87,9.63-32.36,10.7-6.26,2.43-12.83,3.98-19.24,5.73-6.4,2.68-13.26,4.39-20.19,4.78-2.18,0-4.29-.52-5.8-2.34Z"/>
  <path d="M81.83,829.3c-6.75-1.24-21.41-1.46-19.1-11.55,3.3-8.25,12.05-1.59,18.08-1.4-.89-5.39,6.52-9.34,10.51-5.39,1.26,1.22,2.48,2.48,3.84,3.59,8.28,.86,17.35,.2,25.41-1.9-8.53-4.96-2.87-13.56,5.73-13.55-.77-12.28,52-10.68,61.82-11.29,5.32-.17,10.65-.22,15.93-.78,3.69-1.01,8.5-.85,10.23,3.03,19.79,.35,37.16-10.84,56.66-11.78,6.93-1.28,11.8,7.4,5.68,11.78-6.21,2.84-13.43,3.12-19.95,5.26,.54,5.51-4.7,7.44-9.15,7.12-12.28,2-24.86,2.04-37.28,2.4-7.78,1.85-15.01,3.71-22.22,6.39-11.92,3.43-24.49,3.61-36.52,6.47-13.67,2.17-25.85,8.59-39.59,9.72-10.34-.09-19.95,2.32-30.07,1.86Z"/>
  <path d="M461.57,188.57c-1.36-5.43-4.89-10.36-4.04-16.03-.61-4.42,4.54-6.97,7.03-2.88,.8-.57,1.83-.65,2.75-.36,.41-.32,.88-.55,1.39-.64,.63-.87,1.71-1.42,2.78-1.32,.48,.04,.91,.17,1.3,.36,.54-.44,1.18-.68,1.87-.71,.16-.44,.42-.83,.71-1.21,1.06-1.34,3.18-1.4,4.43-.36,.71-.31,1.52-.34,2.26-.13,.31-1.05,1.13-1.85,2.16-2.23,1.18-.43,2.38-.09,3.23,.71,.52-.17,1.09-.22,1.62-.11,1.25-3.09,5.92-2.4,6.39,.85,.31-.03,.62-.02,.93,.06,.24-.76,.66-1.43,1.39-1.92,1.52-1.06,3.42-.51,4.44,.9,.72-.08,1.46,.07,2.17,.5,.48,.28,.84,.66,1.12,1.1,.07-.05,.14-.11,.21-.15,.9-2.48,4.6-2.72,5.93-.56,.25,0,.51,.01,.76,.08,.65,.18,1.21,.42,1.69,.86,.48-.28,1.03-.46,1.58-.5,.88-.06,1.82,.26,2.51,.85,.67-.25,1.4-.28,2.13-.04,.12,.04,.23,.08,.33,.13,3.5-4.08,9.33-.02,13.11,1.68,2.91,1.53,6.27,2.11,8.76,4.43,5.19,4.03,.04,10.16-5.1,6.48-1.3,.64-2.83,.87-4.22,.44-.69,.48-1.47,.77-2.31,.94-1.37,.31-2.77,.11-4.16-.21-2.02,2.94-6.78,1.59-9.03-.43-.39-.02-.78-.11-1.14-.27-.38,.65-.9,1.19-1.65,1.53-1.12,.51-2.54,.45-3.48-.42-1.16,.35-2.5-.05-3.35-.94-.14-.14-.26-.29-.36-.46-.52,4.13-6.29,4.37-6.78,.09-.04,0-.09,0-.13,0-.89,2.6-4.56,3.12-5.97,.7-.85,.4-1.84,.4-2.71,.06-.05,.04-.1,.08-.16,.11-1.29,.87-3.02,.7-4.15-.31-.18,.1-.37,.18-.58,.25-.57,.18-1.18,.22-1.76,.09-.3,.34-.67,.64-1.11,.86-.72,.37-1.52,.43-2.27,.26-.43,.77-1.04,1.39-1.98,1.72-1.39,.49-2.68-.05-3.56-1.06-.13,0-.26,0-.39-.02-.7,1.14-1.75,1.99-3.24,1.89-.41-.02-.81-.13-1.17-.3-.64,.31-1.41,.36-2.11,.18-.08,.05-.16,.09-.25,.13-.86,.4-1.82,.42-2.64,.09h-.01c.69,2.33,1.82,5.76-1.24,6.84-1.47,.53-3.19-.15-3.9-1.58Z"/>
  <path d="M372.48,200.16s-.02-.01-.02-.02c-5.29-.12-3.67-7.66,1.26-6.32,.15-.21,.33-.41,.54-.59,.69-.62,1.59-.87,2.47-.8,.7-.93,1.8-1.44,2.94-1.37,.65-.39,1.43-.56,2.19-.48,.04-.04,.08-.08,.13-.12,.74-.67,1.68-.9,2.65-.82,.51-.7,1.33-1.19,2.16-1.3,.1-.23,.23-.46,.39-.67,.88-1.18,2.35-1.7,3.72-1.24,.74-.95,1.86-1.4,2.96-1.25,.43-.25,.92-.37,1.41-.38,.46-.5,1.05-.86,1.73-1,1.45-.29,2.77,.41,3.58,1.55,.33-.15,.69-.23,1.05-.25,.54-2.91,4.62-3.5,5.96-.86,.33-.03,.66-.02,.99,.04,0,0,.01-.01,.02-.02,.8-.75,1.97-.96,3-.67,.41-.5,.97-.87,1.6-1.05,.19-2.16,.2-5.08,2.42-6.23,1.67-.81,4.15-.22,4.98,1.52,3.66,3.03,3.97,9.5,4.11,13.77,.07,2.56,1.3,6.47-2.21,7.23-2.17,.49-3.92-1.4-3.98-3.48-.25-.26-.44-.55-.59-.87-.07,.04-.14,.07-.21,.1-.13,.37-.33,.72-.61,1.04-.6,.67-1.39,1.03-2.22,1.09-.03,2.83-3.88,4.04-5.64,1.9-.66,1.53-2.37,2.56-4.04,1.92-.69-.27-1.19-.63-1.65-1.21-.85,.59-2,.74-3.01,.39,0,0,0,0,0,0-.86,.39-1.77,.41-2.58,.09-.25,.13-.52,.23-.81,.29-.07,.02-.15,.03-.22,.04-1.36,1.91-4.42,1.57-5.5-.42-.28,.1-.58,.16-.88,.19-.6,.04-1.19-.08-1.72-.33-.9,.5-2.04,.53-3.01,.08-.34-.15-.62-.37-.87-.62-.24,.13-.51,.22-.79,.28-1.02,.21-1.92-.07-2.67-.62-.51,.7-1.28,1.22-2.14,1.36-.07,.01-.14,.02-.21,.03-1.36,2.94-4.79,1.95-6.68,.07Z"/>
  <path d="M354.53,205.21c-.87-2.65,1.6-4.9,3.39-6.5,.31-2.1,3.16-3,4.44-4.13,2.63-2.55,5.99-4.64,9.28-5.87,3.86-3.1,8.74-4.02,13.33-5.41,2.06-1.55,4.61-2.92,7.07-3.28,2.95-1.28,5.7-1.91,8.83-2.4,4.14-1.53,8.47-3.12,12.9-2.7,5.01-2.18,8.51,3.76,3.27,5.84-3.81,.73-7.64,.43-11.36,1.82-2.83,1.46-6.07,1.54-8.89,2.42-1.96,1.11-4.4,1.21-6.37,2.25-4.17,3.66-10.51,2.91-14.76,6.43,0,0,0,0,0,0,4.89,6.79-7.32,8.59-11.53,9.9-2.76,1.68-7.41,6.52-9.63,1.63Z"/>
  <path d="M343.6,211.32c-10.92-3.24,9.49-17.89,13.38-20.27,5.27-2.36,9.31-6.02,14.76-7.27,6.33-2.31,11.64-5.52,18.37-6.19,8.57-1.87,17.08-3.85,25.9-2.47,1.73,.18,3.1,1.59,2.99,3.37-.12,1.69-1.66,3.17-3.39,2.99-7.47-1.01-14.72-.02-21.9,2.01,.54,3.53-3.3,3.67-5.68,4.58-3.57,1.12-7.26,1.9-10.85,2.87-3.52,2.63-8.13,4.53-12.02,6.42-2.89,2.18-5.64,4.33-9.14,5.47-2.31,2.44-4.77,4.51-7.94,5.84-1.25,1.22-2.58,2.8-4.5,2.66Z"/>
  <path class="cls-1" d="M576.72,613.72c-7.17-8.23-7.81-19.74-10.17-29.95-.91-4.04,5.41-5.37,6.22-1.34,2.13,9.11,2.55,18.32,7.83,26.02,2.63-6.24,1.11-13.8,4.5-19.67,2.94-3.19,6.99,.06,8.56,3.02,3.14-8.64,10.5-2.77,13.61,2.5,2.78-5.45,9.17-7.72,14.94-8.09,2.61,0,6.74,.01,6.6,3.6-.24,3.31-3.72,3.14-6.19,2.76-1.96,.1-3.89,.56-5.67,1.26-2.36,.85-3.7,2.72-4.92,4.79-5,6.85-9.24,.43-12.64-4.01-1.51,5.48-7.33,8.98-10.12,2.35-.67,6.42-2.55,24.42-12.55,16.76Z"/>
</svg>