<?xml version="1.0" encoding="UTF-8"?>
<svg xmlns="http://www.w3.org/2000/svg" viewBox="0 0 625.76 826.31">
  <defs>
    <style>
      .cls-1 {
        fill: #fff;
      }

      .cls-2 {
        fill: #f3c25f;
      }
    </style>
  </defs>
  <g id="Vektorebene">
    <path class="cls-2" d="M325.74,820.38c-34.33-5.66-68.68-13.08-101.85-23.71-18.2-6.43-33.86-17.81-49.39-28.92-16.48-9.39-31.82-20.56-43.48-35.7-28.53-24.16-45.41-57.93-62.4-90.57-25.56-75.51-12.73-157.14-7.35-234.39,1.09-29.56-8.04-58.77-18.67-86.06-4.96-7.76-10.59-15.01-13.71-23.85-8.5-21.52-10.99-44.73-18.3-66.65-10.09-34.77,.44-70.19,13.38-102.63,3.65-43.48,36.57-80.19,76.36-95.63,13.85-8.21,28.39-16.36,44.73-18.22,69.16-10.11,112.04,56.24,146.87,105.24,6.22,7.83,11.28,16.47,16.35,25.05,10.72,12.74,23.35,23.73,33.41,37.02,12.49,14.19,26.54,26.95,34.38,44.53,8.73,21.86,15.83,44.67,19.4,67.96,1.28,22.67,6.8,44.29,16.52,64.84,38.93,24.95,81.28,44.93,116.45,75.41,37.6,42.11,76.85,89.78,87.02,146.77,9.06,54.56-8.28,112.45-39.95,157.08-59.9,69.85-161.59,90.06-249.76,82.47Z"/>
  </g>
  <g id="Vektorebene-2" data-name="Vektorebene">
    <path d="M220.1,419.34c-13.02-4.06-23.62-15.08-24.1-29.18-1.24-7.17,.42-14.83-1.68-21.71-3.59-9.55-10.2-17.48-12.83-27.47-6.2-24.96-14.01-51.89-6.1-77.32,2.47-7.64,7.67-14.38,7.75-22.68-.42-28.06,9.31-57.69,32.22-75.15,6.07-4.79,9.5-12.35,16.76-15.86,6.21-2.72,11.55-6.99,17.82-9.54,6.89-2.85,14.32-3.15,21.68-2.99,22.33,.3,59.2,5.3,60.6,33.48-1.79,7.48-8.57,12.7-11.84,19.47-2.35,5.25-2.86,11.15-5.35,16.38-2.16,6.01-5.69,11.69-6.25,18.09,2.93,11.24,11.41,21.26,20.16,28.6,10.79,5.97,22.36,12.15,28.79,23.18,4.44,5.86,5.48,14.72,.92,20.78-4.05,4.35-10.94,5.62-14.26,10.75-5.55,8-3.69,17.74-3.14,26.77,.85,8.86,.06,17.74-2.92,26.16-3.26,7.49-10.08,12.54-15.67,18.21-10.73,10.97-23.74,20.45-38.21,25.77-19.15,8.13-40.33,14.91-61.24,13.08-.56,1.12-1.97,1.66-3.11,1.16Zm1.87-4.45c.13,.05,.25,.12,.36,.19,.51-1.02,1.68-1.57,2.8-1.26,10.69,.1,21.4-1.5,31.78-4.04,16.25-4.8,33.03-10.44,46.65-20.67,6.86-4.46,12.68-9.82,18.23-15.68,4.64-4.49,9.58-8.51,12.14-14.35,8.39-19.07-7.63-45.96,12.76-59.52,2.91-2.24,7.17-3.05,9-6.43,4-9.37-4.31-18.2-10.84-23.87-5.18-4.96-11.21-7.44-17.21-10.9-7.33-4.48-12.14-11.87-17.36-18.48-5.37-8.28-8.64-15.94-3.65-25.34,4.57-9.02,6.16-19.15,10.45-28.2,5.57-9.85,15.47-14.6,6.81-26.41-8.86-11.86-24.25-15.26-38.12-16.69-11.05-1.33-23.02-2.29-33.65,1.51-4.7,1.63-8.47,4.82-12.86,7.03-6.49,2.69-12.04,7.14-15.72,12.98-8.04,8-17.88,14.43-22.75,25.07-6.59,9.87-9.85,21.61-11.6,33.23-1.92,9.23,0,18.85-3.04,27.86-5.05,10.21-9.07,20.47-9.15,31.86-.67,10.3,1.09,20.67,3.04,30.65,2.25,11.58,4.48,23.44,9.25,34.27,3.18,8.08,9.58,14.78,10.69,23.66,.18,19.79-.14,36.46,21.99,43.52Z"/>
    <path d="M238.94,461.62c-4.09-.83-.75-7.8-.79-10.71,1.09-6.05,1.08-11.73,.2-17.69-.58-4.83-1.05-9.46-5.02-12.61-2.22-2.18,1.21-5.65,3.41-3.42,1.25,1.32,2.61,2.54,3.57,4.1,4.56,10.81,3.96,23.25,1.94,34.6-.41,2.15-.19,6.01-3.31,5.73Z"/>
    <path d="M235.48,370.84c-13.43-1.16-26.17-9.62-31.26-22.24-1.02-1.44-1.31-3.67,.63-4.48,1.39-.63,2.85,.31,3.32,1.62,5.27,13.86,20.04,21.49,34.34,20.54,13.23,.16,29.55-7.71,29.94-22.47-12.52,1.95-25.03,3.52-37.68,1.65-7-1.28-14.36-.6-21.26-2.04-2.66-1.28-8.81-.55-8.3-4.73,1.12-3.23,4.88-.97,7.18-.59,6.02,1.64,12.35,1.69,18.56,1.85,11.8,1.96,23.95,2.2,35.72-.31,13.49-3.68,11.97,7.17,7.32,15.7-7.54,12.94-24.45,17.16-38.5,15.49Z"/>
    <path d="M244.62,323.25c-2.95-.3-5.08-2.45-7.23-4.25-1.19,.3-2.24,1.07-3.33,1.61-2.69,1.58-5.15-2.62-2.44-4.17,3.9-2.51,7.42-3.38,10.76,.5,2.01,2.02,5.12,1.89,7.68,1.41,3.26-.48,6.12-2.79,6.63-6.15,.25-1.89,.52-4.68,3.09-4.36,1.82,.35,2.15,1.75,2.01,3.28-2.25,1.27-4.22,3.08-5.39,5.36-.87,1.7-1.52,3.55-1.81,5.44-2.21,1.04-4.72,1.56-7.19,1.56-.94,0-1.88-.08-2.78-.23Z"/>
    <path d="M213.82,315.2c.21-3.43-.53-7.19,1.38-10.26,2.72-3.97,5.62-7.43,7.19-11.84,1.34-5.21,4.22-10.02,5.24-15.33,1.32-8.1,2.25-16.24,4.47-24.14,.8-3,5.52-1.73,4.65,1.28-2.22,7.84-3.05,15.68-4.36,23.64-2.62,9.02-5.49,18.29-10.96,25.99-3.03,2.92-2.91,6.74-2.79,10.66,.01,3.11-4.87,3.13-4.83,0Z"/>
    <path d="M270.79,267.38c-.83-1.08-.57-2.53,.44-3.38,5.38-5.68,12.93-8.11,20.56-8.94,3.94-.38,23.7-.85,21.93,5.34-.56,1.33-2.04,1.73-3.29,1.24-10.06-3.31-21.51-2.61-31.05,1.82-2.65,1.32-5.49,6.93-8.58,3.91Z"/>
    <path d="M298.48,271.74c-1.41-.04-2.79-.68-3.8-1.65-.19-.18-.37-.37-.54-.57-5.32-1.04-11.24-7.4-3.77-10.46,2.1-.77,5.52-3.04,6.77,.03,3.88-1.85,11.46-.34,10.46,5.13-1.55,3.61-4.92,7.43-9.12,7.52Zm-.39-6.41c1.36-.13,2.64-.75,3.82-1.41-.22-.22-.37-.49-.47-.77-1.44,0-4.02,.39-4.13,2.15,.26,.04,.52,.03,.78,.03Z"/>
    <path d="M216.35,256.61c-1.1-1.72-3.13-3.07-4.95-3.65-4.88-1.23-10.19-2.21-15.18-1.35-3.18,.01-8.55,4.82-10.36,.64-.36-1.33,.44-2.55,1.68-2.98,5.51-2.11,11.22-3.71,17.1-2.39,5.72,.35,12.1,1.75,15.53,6.78,1.9,2.46-1.95,5.46-3.82,2.94Z"/>
    <path d="M206.85,265.31c-1.77-.5-3.13-1.78-4.55-2.84-2.02-3.13-2.12-8.5,1.45-10.57,3.39-1.18,7.15-3.24,10.79-2.06,6.74,2.24,7.21,12.6-.58,13.42-1.91,1.64-4.58,2.75-7.1,2.06Zm3.16-6.02c.33,.02,.64,.09,.92,.21,2-2.24,1.28-3.99-1.74-4.07-1.26,.81-1.83,2.28-1.95,3.73,.92,.05,1.85,.09,2.77,.14Z"/>
    <path d="M265.23,242.12c-22.94-19.45,25.52-25.38,37.88-23.16,3.09,.42,2.44,5.24-.65,4.78-6.35-.55-13.05-.16-19.33,.45-6.48,1.82-27.72,5.22-14.94,14.11,2.48,1.89-.52,5.77-2.95,3.82Z"/>
    <path d="M262.03,242.28c-4-5.08,15.33-13.91,19.55-13.84,6.8-1.66,13.69-.28,20.44,.68,1.69-.17,3.75,.39,3.74,2.44-.43,5.23-11.86,.4-15.44,.88-9.21-.22-18.46,3.15-24.88,9.84-.97,.88-2.45,.95-3.41,0Z"/>
    <path d="M208.28,228.65c-5.84-1.81-11.45-2.16-17.39-2.18-1.31-.03-2.41-1.08-2.41-2.41s1.11-2.44,2.41-2.41c4.16,.1,8.29,.23,12.4,.8-2.88-3.84-18.9-5.96-16.6-11.43,1.72-2.73,4.49,.05,6.4,.96,4.39,2.13,9.32,3.36,13.11,6.55,1.34,1.34,2.52,2.82,3.9,4.14,1.11,1.07,2.39,2.33,1.92,4.04-.43,1.63-2.23,2.19-3.75,1.95Z"/>
    <path d="M296.45,367.57c-1.28-.18-2.29-1.42-2.07-2.72,.17-1.05,.35-2.08,.52-3.12-.55-.6-.8-1.46-.59-2.3,1.03-3.45,1.63-7.02,1.53-10.63-.2-3.14-.83-6.28-.74-9.41,.14-.94,.83-1.75,1.76-2,4.82-.71,3.49,8.31,3.81,11.37,.67,5.66-.55,11.2-1.51,16.74-.21,1.3-1.42,2.24-2.72,2.06Z"/>
    <path d="M114.78,626.24c-.4-11.88,2.67-23.55,2.6-35.36,.76-11.94,1-24.05,5.28-35.39,2.56-6.85,7.04-12.69,10.88-18.85,3.82-6.07,6.77-12.7,11.48-18.16,3.72-4.08,8.17-7.58,11.74-11.78,3.56-4.06,5.62-8.76,9.9-12.06,5.5-3.87,9.95-8.9,15.38-12.76,5.02-3.13,10.45-5.35,15.38-8.49,14.11-8.77,29.89-13.79,45.73-18.45,9.34-1.77,18.16-5.24,27.45-7.24,4.11-1.22,8.25-2.34,12.43-3.28,1.28-.3,2.62,.39,2.97,1.68,.66,3.8-4.53,3.3-6.95,4.22-12.31,3.27-24.47,6.9-36.79,9.93-16.26,4.63-32.05,10.42-46.28,19.59-7.68,3.59-14.49,7.79-20.37,13.87-6.12,4.15-10.31,9.14-14.33,15.12-3.79,4.76-8.71,8.57-12.78,12.99-3.61,4.18-5.91,9.26-8.82,13.92-6.58,10.49-13.94,20.7-15.65,33.3-1.56,11.04-1.6,22.25-2.36,33.34-1.04,7.97-2.37,15.85-2.04,23.84,.07,3.05-4.89,3.18-4.83,0Z"/>
    <path d="M343.22,344.23c-.02-1.51-.08-3.02-.17-4.52-.36-4.62-1.06-9.22-.82-13.8-10.55-7.78,.81-21.18,8.91-25.92,5.11-3.84,6.33-11.97,5.53-18.03-1.79-6.33-9.8-8.65-11.55-15.23-7.04-3.73-14.82-6.92-20.28-12.95-4.77-5.29-8.22-11.45-13.38-16.36-6.28-7.27-6.19-18.21-4.31-27.09,.19-8.23,4.28-15.3,8.83-21.9,3.07-4.88,5.89-9.92,8.84-14.87,3.27-4.29,5.84-8.04,6.35-13.54,1.96-5.54,10.47-6.66,13.78-1.79,3.34,5.17,1.49,11.96,.28,17.57,3.4-4.38,10.75-3.14,13.26,1.65,.52-.11,1.05-.18,1.59-.21,.37-.02,.72-.01,1.07,.02,4.87-4.21,12.17-1.01,13.99,4.76,2.95,7.49,4.71,15.44,7.57,22.98,3.32,2.23,3.85,6.53,4.95,10.07,4.47,11.64,7.65,22.97,12.06,34.55,2.34,7.13,9.83,18.08-.19,22.56,.8,6.71-7.02,12.05-12.76,8.1-5.8,1.7-9.86-3.61-11.68-8.41-1.24,.1-2.5-.08-3.69-.59,9.14,14.23,4.53,28.75-4.97,41.28-3.19,3.92-7.31,7.14-7.99,12.55-.76,6.37,1.04,12.71,.86,19.11-.23,10.53-15.81,10.57-16.09,0Z"/>
    <path d="M168.58,473.94c-6.98-3.95-9.73-12.47-7.68-20.01-3.55,11.11-15.4,20.22-27.18,15.53-9.73-2.76-16.95-14.47-13.16-24.24,2.69-6.03,8.48-9.75,12.78-14.54,2.07-3.48,.26-7.97-.07-11.75-.4-1.88-2.3-3.13-3.69-4.36-20.09-10.71-35.45-16.08-31.55-42.84,3.34-18.75,4.5-27.9,20.15-40.1,7.58-8.91,16.64-16.78,20.79-28.1,2.09-9.45,1.78-20.79-2.8-29.46-17.05-21.64-18.52-31.74-5.12-56.26,8.45-14.87,25.34-22.32,35.44-35.71,9-12.35,18.96-24.06,28.75-35.77,3.94-8.44,10.05-15.03,17.88-20,4.75-4.41,8.7-9.86,14.58-12.86,7.52-4,16.26-4.8,24.34-7.1,7.46-3.17,14.63-7,22.19-9.93,6.65-2.23,13.83-2.21,20.78-2.51,6.34-.4,12.48,.85,18.47,2.83,4.71,.48,9.65,1.5,12.83,5.33,7.35,8.01-4.19,18.9-11.62,11.11-4.69-.42-9.07-2.16-13.64-3.08-11.99-1.01-23.4,1.07-33.87,6.98-10.15,6.37-22.27,6.02-32.71,11.03-5.01,3.61-8.44,9.01-13.53,12.55-2.82,2.04-5.95,3.74-7.78,6.82-3.5,6.58-7.73,12.6-13.15,17.77-5.83,7.9-13.09,16.56-18.78,23.71-8.8,14.45-25.11,21.84-35.24,35.16-3.3,7.07-8.78,14.69-7.65,22.78,3.1,10.61,13.15,16.96,15.59,27.64,7.94,32.09-3.85,46.88-24.86,69-2.7,2.99-6.33,4.92-8.82,8.1-4.06,6.2-4.38,13.84-6.01,20.72-.82,5.33-1.54,11.95,2.33,16.24,9.8,7.34,23.27,10.13,30.21,20.96,3.52,7.11,4.22,15.85,2.85,23.62-1.67,7.84-9.07,12.01-13.89,17.8,3.26,7.46,9.17,1.65,10.49-3.78,1.96-6.83,3.54-15.06,10.47-18.66,17.99-7.58,23.21,18.3,19.67,31.06,1.58,1.63,5.9,.21,7.37-.28,8.67-2.09,18.36-7.51,26.83-2.18,3.83-1.78,8.43-.75,10.66,3.05,5.35,11.38-11.18,17.24-19.09,10.7-10.98,2.16-22.67,9.16-33.57,3.01Z"/>
    <path d="M390.42,531.32c-10.93-1.58-16.94-10.19-22.21-18.86-10.22,.71-21.01,3.63-31.01,.1-9.31-4.86-16.1-13.57-21.15-22.56-7.58-5.79-13.84-12.91-20.52-19.65-5.38-4.62-6.85-11.98-7.31-18.08-5.52-2.14-11.7,.21-16.41-4.88-4.78-4.42-7.15-10.43-8.16-16.81-1.17-7.21,2.92-13.76,5.56-20.18,5.52-9,18.99-1.15,13.89,8.12-2.3,5.75-5.65,11.07-.83,16.64,8.25-.28,17.64,2.74,20.87,11.05,1.6,3.71,1.11,6.7,1.85,10.06,.89,2.27,3.1,3.58,4.7,5.3,5.7,7.32,13.3,12.63,19.64,19.26,2.31,3.17,3.69,6.96,6.42,9.85,2.54,2.52,5,5.52,8.2,7.17,9.66,1.49,18.85-2.52,28.29-1.03,3.55,.77,6.71,3.24,8.98,5.97,3.74,4.46,5.3,11.67,11.94,12.67,8.83,3.15,14.88-4.2,20.16-10.13,12.66-14.36,8.31-35.34,16.78-51.58,10.85-19.46,28.54-7.57,37.82,6.35,6.29,7.98,5.57,19.15,11.86,26.95,4.15-9.22,11.77-23.53,23.87-16.88,7.84,4.65,9.54,14.41,15.07,20.8,6.33-3.99-.87-12.46-2.24-17.65-2.29-4.98-4.17-10.34-7.47-14.75-3.35-3.67-7.92-5.89-11.48-9.34-11.07-12.11-24.57-21.53-29.51-37.68-7.29-17.21-2.51-35.72,.16-53.35-.08-10.5-.07-21.03-.3-31.54-1.81-17.35-18.44-27.58-23.32-43.48-4.57-18.49-3.35-39.01-13.75-55.75-6.89-10.36-16.53-18.68-22.6-29.59-6.19-11.08-6.47-24.82-11.13-36.2-7.14-12.23-17.5-21.76-29.76-28.75-7.75-6.99-18.3-8.79-28-11.81-3.94,1.64-8.13,2.85-11.42,5.71-3.94,3.94-7.29,8.44-11.77,11.83-5.25,4.61-14.13-.72-12.89-7.46,.34-2.89,2.41-4.82,4.52-6.57,2.96-2.44,5.15-5.66,7.86-8.33,4.99-5.09,11.57-7.81,18.09-10.31,4.36-2.01,9.01-.72,13.31,.64,7.63,2.3,15.49,4.35,22.58,8.02,9.32,7.16,20.11,12.68,28.26,21.26,6.51,8.01,13.77,16.05,16.5,26.24,2.75,9.26,3.46,19.11,7.88,27.86,3.18,5.15,6.82,10,10.87,14.43,16.54,16.35,22.79,39.58,24.8,62.15,.36,8.93,3.12,17.5,9.38,24.04,8.31,10.09,15.32,22.29,16.65,35.48-.04,13.34,1.26,26.88-.58,40.12-2.23,11.92-5.05,24.9-1.36,36.74,2.48,8.9,7.79,16.55,14.86,22.44,4.12,3.87,7.55,8.39,11.74,12.18,4.41,3.66,9.44,6.55,13.06,11.08,4.18,5.19,6.5,11.65,9.3,17.64,4.26,9.62,9.72,21.05,3.68,31.09-6.8,11.36-22.13,13.58-30.09,2.03-2.87-3.74-4.25-8.29-6.75-12.22-6.23,14.8-16.23,24.6-30.14,10.51-6.25-6.72-7.89-15.95-10.72-24.32-2.47-5.55-6.91-9.76-11.45-13.63-4.72,6.47-4.87,15.22-6.14,22.87-1.15,7.81-3.77,15.34-6.73,22.63-3.73,8.1-10.45,14.43-16.94,20.39-6.77,6.3-16.49,7.81-25.28,5.68Z"/>
    <path d="M294.79,434.3c-4.88-4.74-12.78-10.61-6.34-17.6,3.12-3.12,8.24-3.06,11.38,0,1.76,1.73,3.54,3.43,5.3,5.16,2.05,.61,3.83,2.01,4.87,3.89,5.13,5.38,2.77,14.85-5.28,15.01-4.15,0-7.11-3.59-9.93-6.46Z"/>
    <path d="M181.82,465.39c-.12-.07-.23-.13-.34-.2-15.95,2.16-9.46-21.63-15.22-30.72-.96-.28-1.87-.72-2.67-1.31-2.72,1.97-5.97,3.14-8.47,5.4-1.57,7.75-5.52,14.93-11.25,20.4-6.94,5.94-17.28-2.11-12.75-10.23,4.84-4.46,5.05-10.45,8.33-15.89,0-.21-.02-.42-.03-.63-.74-8.11-1.95-16.12-3.49-24.1-6.9,2.4-11.07-3.45-11.72-9.7-4.65,.85-8.69-2.79-9.42-7.24-3.4-1.83-6.23-5.04-6.96-8.93-1.23-6.68-3.8-16.35,2.83-20.9,.37-9.74-.34-19.72,12.65-18.21,.21-2.85,.8-5.61,3.35-7.46,1.81-1.32,4-1.93,6.2-1.58,.95-.43,1.95-.67,2.96-.73,.81-9.47,4.71-20.3,12.75-25.86,.68-11.12-.22-22.36-1.05-33.48-13.21-11.4-16.27-43.4-5.8-57.22,2.97-4.29,9.35-6.83,13.61-2.82,1.39-5.34,4.34-10.14,7.38-14.72,2.63-5.49,8.89-9.9,14.34-5.37,5.27-7.11,9.25-15.06,14.2-22.4-2.51-10.5,8.32-17.21,14.48-23.89,5.39-7.31,13.11-12.16,21.34-15.75,12.79-5.75,26.63-10.15,40.72-9.95,13.4-1.97,26.14,2.49,38.62,6.54,6.33,1.75,12.74,3.97,18.45,7.11,4.06,1.8,8.08,4.46,10.64,8.22,5.27,8.21,9.97,17.01,12.07,26.52,1.8,7.64-.72,15.9,2.19,23.18,5.74,9.93,11.52,19.77,18.38,28.97,6.05,9.95,9.6,21.31,12.61,32.5,4.15,18.31,.14,38.55-9.73,54.42-4.1,6.44-12.26,9.46-14.25,17.25-2.16,12.57,2.73,26.47-4.18,38.26-7.74,11.75-14.48,24.56-26.92,31.84-10.47,8.32-21.34,15.75-34.43,19.23-.01,.04-.03,.07-.04,.11,0,0,0,0,0,0,3.87-1.51,8.85,.32,10.35,4.36,1.8,4.78,4.49,10.25,.88,14.89-2.55,3.41-6.9,3.76-10.76,3.69-2.49,.87-5.12,.45-7.55-.49-5.91-2.82-10.37-9.54-11.14-15.98-.11-3.08,1.16-6.29,2.19-9.19,2.81-12.34,11.31-11.85,20.73-16.44,6.64-2.28,11.82-6.88,17.29-11.03,8.68-5.04,15.26-12.36,20.2-21.03,18.5-22.54-8.02-38.91,23.42-63.35,7.07-9.93,9.73-22.9,9.53-34.94-1.08-11.07-5.23-21.61-9.64-31.74-7.36-12.01-16.09-23.31-22.19-36.07-3.87-8.61-1.04-18.23-3-27.23-2.89-6.86-5.42-14.42-10.54-19.88-10.35-6.07-22.26-8.28-33.38-12.44-8.27-1.85-16.03-1.83-24.28-.88-3.27-.02-6.56,.24-9.55,1.08-1.87,3.2-5.16,4.73-8.26,6.42-6.53,4.04-13.76,6.96-19.95,11.44-7.51,7.6-14.77,15.72-21.48,23.99-4.78,8.33-10.57,16.13-14.97,24.59-2.73,7.28-3.59,14.97-4.7,22.6-1.34,4.64-1.64,9.05-1.12,13.81-1.63,15.53-10.88,29.52-10.97,45.32-.64,5.36,2.78,10.09,3.05,15.51,2.28,14.72,3.91,30.27,8.58,44.34,8.1,5.2,10.24,15.99,15.11,23.84,4.22,10.67,.19,22.83,4.38,33.58,4.07,0,7.21,2.7,11.02,3.67,5.75,1.41,10.54,4.89,15.95,7.08,5.53,.88,10.34,5.28,8.32,11.19,3.62,7.55,3.86,17.25,1.13,25.11-6.19,12.69-20.14,20.12-32.13,9.65-.8-.03-1.61-.14-2.42-.34-.33-.08-.65-.17-.97-.26-.71,.95-1.61,1.78-2.74,2.45-2.42,1.42-5.06,1.84-7.68,1.55-3.4,2.58-8.4,2.57-12.07,.48Z"/>
    <path d="M395.6,289.44c-9.54-10.85-12.23-26.19-17.18-39.48-1.33-4.89-5.57-8.43-7.75-12.86-5.39-9.03-8.91-18.99-12.88-28.67-8.66-1.9-10.3-13.04-13.47-20-4.11-11.79-8.05-23.58-13.83-34.69-7.52-8.12-15.4-15.8-22.06-24.7-8.62,4.17-18.16-1.65-27.27-1.06-7.69-1.72-15.56,1.2-23.39,1.5-8.49,3.21-17.08,6.09-24.96,10.66-3.74,2.18-8.87,.94-11.01-2.88-3.58-7.37,1.95-10.99,8.01-13.69,3.74-2.55,8.04-3.85,12.31-5.18,9.85-5.32,20.97-5.57,31.82-7.13,3.59-4.33,9.53-4.7,14.72-4.87,10.88-1.55,23.73-3.31,31.4,6.53,2.76,.49,5.37,1.57,7.71,3.18,.62,.43,1.2,.89,1.75,1.39,5.22-9.44,21.23-4.75,21.9,5.56,6.25,.39,12.01,3.37,17.12,7.04,7.03,4.75,15.02,8.34,20.33,15.2,8.13,9.02,9.77,21.15,14.3,31.95,4.77,4.5,6.87,11.29,9.64,17.12,5.68,4.15,6.99,12.11,10.5,17.94,8.72,.12,12.04,10.26,14.9,17,2.67,7.01,6.48,15.67,2.31,22.77,.62,1.52,1.29,3.02,2.01,4.49,3.05,6.43-4.39,13.53-10.73,10.48,2.54,12.17-12.9,15.15-16.51,3.65-.67,.95-1.53,1.77-2.54,2.35-1.53,.9-3.21,1.2-4.87,1.02,1.21,4.56,2.58,9.75-.59,13.86-2.73,3.54-8.13,4.24-11.67,1.53Z"/>
    <path d="M383.72,515.04c-5.78-4.68-9.34-11.42-15.11-15.99-.76,.2-1.53,.32-2.32,.38-3.36,5.36-10.55,4.95-15.72,2.39-3.18-.49-6.4-.03-9.55-.8-12.76-2.31-24.17-12.45-29.89-23.87-2.06-5.31-2.81-11.14-6.68-15.58-4.24,.63-7.99-2.77-9.32-6.6-7.28-3.33-7.51-12.66-8.46-19.54-2.26-5.36-6.62-11.91-.62-16.5-.22-7.42,4.09-15.64,12.59-12.31,1.06-1.75,2.51-3.23,4.46-4.06,.36-.15,.72-.28,1.08-.38,1.18-7.22,7.91-14.15,15.49-10.76,1.17-1.65,2.63-3.02,4.49-3.81,.23-.1,.46-.18,.69-.26,1.52-7.73,4.47-18.8,14.06-19.2,.71-3.26,1.53-6.47,2.47-9.68,1.37-4.67,3.7-9.92,7.52-13.05,.84-7.43,3.73-14.3,5.48-21.5,2.13-7.45,4.18-16.77,11.62-20.68,2.16-12.88,8.69-42.47,23.13-45.72,2.47-2.52,5.6-4.45,9.19-4.6,8.12-.35,12.76,4.87,15.61,11.57,2.52-9.24,13.78-12.34,19.86-4.51,12.37-.01,17.32,13.58,19.64,23.73,17.68,12.79,16.63,37.36,20.83,56.64,1.24,11.76,.21,23.71-1.83,35.33,1.28,8.76,3.2,17.46,3.61,26.36,7.95,9.31,13.14,20.87,16.07,32.7,7.11,2.64,13.33,7.89,17.31,14.35,4.07,5.24,4.24,12.64,8.49,17.59,4.52,6.33,11.45,12.51,12.25,20.59,0,3.71-2.48,7.15-6.09,8.15-6.36,1.37-12.29-4.15-16-8.73-5-.6-8.08-6.31-6.6-10.9-.11-1.14-.26-2.27-.43-3.4-2.52,2.54-6.69,3.38-10.07,2.51-2.58,3.3-3.48,7.45-4.6,11.39-4.31,8.96-14.66,5.41-17.7-2.59-3.82-8.97-8.3-17.82-9.71-27.58-3.65-2.97-7.23-6.05-10.37-9.53-1.34,1.45-3.04,2.6-4.92,3.04-1.77,.4-3.64,.65-5.44,.3-.43,.38-.88,.71-1.35,1.01-.45,1.98-1.07,3.96-2.15,5.68-.82,1.3-1.92,2.43-3.21,3.25-.29,2.51-.88,4.97-2.18,7.09-.47,.78-1.04,1.48-1.68,2.08-.46,5.1-1.3,10.97-5.38,14.49,.67,7.92,.6,17.45-5.14,23.61-3.62,2.79-6.45,7.17-11.44,7.58-5.32,6.84-16.24,6.57-21.97,.33Z"/>
    <path d="M167.5,483.3c-3.89-.54-7.29-2.33-10.13-4.98-2.08-1.94-3.29-4.34-4.27-6.9-9.64,9.29-24.75,16.63-34.38,3.13-7.35-8.36-3.55-19.34,.02-28.49,2.23-5.86,7.58-9.57,12.01-13.7,8.38-6.33,18.1,6.12,9.83,12.75-2.74,2.65-6.5,4.8-7.56,8.67-.89,3.94-4.7,9.12-.39,12.17,6.89-2.3,10.9-9.25,17.87-11.4,5.04-1.7,10.75-.14,14.13,3.99,2.3,2.41,2.45,6.02,4.31,8.55,3.54,1.1,7.17-1.25,10.62-1.86,6.52-1.53,16.37-1.6,16.58,7.3,.03,6.07-5.89,8.71-11.23,8.12-5.76,1.08-11.41,3.67-17.42,2.65Z"/>
    <path d="M190.64,468.53c0-4.39,3.66-8.05,8.05-8.05s8.05,3.66,8.05,8.05-3.66,8.05-8.05,8.05-8.05-3.66-8.05-8.05Z"/>
    <path d="M289.09,268.11c-2.58-4.4-.3-10.42,4.39-12.28,5.39-1.76,12.84,.38,13.7,6.74,1.36,9.49-13.59,13.24-18.09,5.54Z"/>
    <path d="M208.43,266.77c-7.02-3.08-7.81-14.64,.24-16.79,7.1-2.02,13.86,7.07,10.15,13.31-2.09,3.47-6.66,5.18-10.38,3.47Z"/>
    <path d="M259.03,238.07c-5.28-10.63,9.77-14.6,16.81-17.83,8.22-2.64,17.01-3.11,25.59-2.79,4.17-.39,8.33,.16,12.07,2.16,9.9,3.28,5.67,18.07-4.46,15.47-1.55-.43-2.89-1.36-4.44-1.68-7.7,.13-15.51-.25-23.01,1.86-3.28,1.21-5.84,3.55-9.43,4.33-3.9,3.6-10.34,3.26-13.12-1.51Z"/>
    <path d="M207.63,232.81c-6.59-1.8-12.94-5.18-20-3.96-10.47,1.25-12.61-14.21-2.18-15.94,8.32-1.53,16.43,1.06,24.19,3.55,3.38,.61,7.12,1.54,8.42,5.25,2.75,6.48-3.82,13.33-10.44,11.1Z"/>
    <path d="M204.3,263.92c-5.78-7.37,4.07-17.21,11.49-11.52,9.19,7.7-3.8,20.75-11.49,11.52Z"/>
    <path class="cls-1" d="M307.99,137.79c-2.2-2.43,1.28-4.48,2.67-6.24,3.03-3.98,6.24-7.87,9.9-11.3,1.27-1.17,2.56-2.29,3.71-3.57,2.17-2.23,5.63,1.19,3.42,3.41-4.2,4.12-8.54,8.09-11.98,12.81-1.96,1.96-4.48,7.37-7.72,4.89Z"/>
    <path class="cls-1" d="M434.49,254.19c-4-10.32-9.24-21.13-18.95-26.99-19.61-7.55-18.42-29.48-17.8-47.03-.4-7.37-4.35-14.11-8.06-20-3.86-7.02-9.54-11.98-16.09-16.25-3.03-2.22-13.87-4.64-11.38-9.64,.78-1.01,2.39-1.3,3.38-.44,4.3,3.94,10.4,4.91,14.71,8.96,8.01,5.19,13.09,13.54,17.48,21.74,8.1,12.62,2.59,27.89,5.82,41.73,1.02,3.88,2.6,7.43,4.83,10.63,5.98,5,13.86,7.63,18.94,13.9,4.78,6.6,8.8,13.83,11.58,21.5,.57,1.19-.11,2.67-1.28,3.17-1.21,.52-2.6-.08-3.17-1.28Z"/>
    <path class="cls-1" d="M369.04,309.55c-1.25-1.23-.64-3.01,.55-4.01,6.81-10.11,7.48-24.04,2.4-34.95-2.22-4.24-5.71-7.15-8.41-10.98-4.15-7.64-10.46-13.11-17.15-18.34-5.42-5.64-9.4-12.55-11.55-20.07-4.35-9.73-1.86-20.76,4.54-28.98,2.15-2.19,6.03-9.42,9.43-6.7,.93,.94,.92,2.48,0,3.42-2.26,2.14-4.77,4.82-6.4,7.32-11.17,14.68-.68,36.44,12.74,45.92,8.22,6.53,12.91,16.19,19.74,23.91,7.01,11.38,6.59,26.37,1.04,38.2-1.2,2.44-3.65,7.81-6.93,5.27Z"/>
    <path class="cls-1" d="M423.59,324.01c.31-17.7,2.65-36.81-8.03-52.07-9.41-10.08-19.04-20.15-27.66-30.92-4.16-4.55-7.9-9.55-9.83-15.48-.57-2.92-4.66-8.22-.69-9.91,1.3-.35,2.58,.43,2.97,1.68,2.17,8.77,6.73,16.18,12.91,22.59,5.79,6.55,11.02,13.24,16.9,19.59,11.4,8.81,17.78,23.07,18.47,37.28,.61,9.05-.24,18.17-.2,27.23,.02,3.09-4.84,3.15-4.83,0Z"/>
    <path class="cls-1" d="M404.35,495.99c-2.79-2.61,1.6-5.31,2.85-7.57,4.02-5.2,7.32-10.45,10.5-16.12,5.4-13.56,7.58-28.26,8.4-42.67,1.15-8.68-3.56-15.98-8.5-22.57-1.89-2.45,1.96-5.46,3.82-2.95,5.08,6.93,10.15,14.43,9.58,23.42-.49,14.71-2.83,29.33-7.47,43.31-2.99,7.54-7.88,14.23-12.66,20.72-1.75,1.82-3.47,6.37-6.53,4.43Z"/>
    <path class="cls-1" d="M363.31,474.32c-3.08-2.16,.9-5.59,1.7-7.98,3.92-7,3.7-15.39,3.2-23.16-1.53-7.08-5.03-12.97-6.43-19.94-2.21-11.93,1.98-23.78,9.42-33.08,1.88-2.45,5.75,.48,3.82,2.95-1.56,2-2.56,3.85-3.88,5.91-3.43,4.28-4.15,10.05-5.08,15.17-.86,8.93,3.66,16.71,6.07,24.99,2.08,6.21,.95,12.9,.62,19.3-.62,5.46-3.52,10.27-6.14,14.97-.64,1.15-2.18,1.52-3.29,.87Z"/>
    <path class="cls-1" d="M131.09,397.41c-10.26-12.16-15.54-29.61-7.73-44.4,3.94-7.41,8.3-16.01,16.11-19.89,2.86-1.22,4.76,3.24,1.87,4.45-4.51,1.95-6.88,6.69-9.63,10.45-6.3,8.86-9.43,20.55-5.65,31.02,1.99,5.59,5.22,10.76,8.85,15.43,1.93,2.42-1.92,5.46-3.82,2.94Z"/>
    <path class="cls-1" d="M158.26,329.81c.95-11.21,1.69-22.24,.68-33.43-1.53-16.37-5.84-32.56-7.15-49-.45-7.69,1.42-15.33,4.11-22.49,3.67-6.85,9.5-12.61,13.92-18.9,7.5-11.11,19.13-23.27,28.44-33.19,2.53-2.33,5.74-4.19,8.12-6.6,5.41-7.02,11.78-13.16,17.17-20.2,2.52-2.68,5.26-5.15,7.91-7.71,.98-.87,2.44-.97,3.41,0,.89,.89,.98,2.54,0,3.42-2.86,2.79-5.92,5.47-8.57,8.45-3.3,4.31-6.92,8.9-10.91,12.52-3.76,5.44-8.69,9.96-14.02,13.8-8.83,9.2-17.18,18.93-25.28,28.72-6.68,10.72-17.63,19.47-18.9,32.64-2.31,22.04,7,43.57,6.99,65.68,.38,8.69-.39,17.74-1.08,26.29-.03,3.05-4.82,3.22-4.83,0Z"/>
    <path class="cls-1" d="M162.43,455.91c-.72-3,2.89-3.09,4.74-4.1,.82-.68,1.19-1.46,1.68-2.28,2.94-7.22,6.41-14.48,8.29-21.93,3.33-11.46-.04-22.65-5.54-32.78-4.68-5.32-8.98-11.16-11.08-18.06-.7-2.11-.87-4.31-.99-6.54,.01-3.11,4.76-3.18,4.83,0,.24,8.58,5.99,15.68,11.17,21.8,3.7,7.4,7.61,15.24,7.82,23.69,.02,13.25-5.5,25.84-11.13,37.53-1.33,2.64-8.34,6.74-9.81,2.67Z"/>
    <path class="cls-1" d="M480.2,459.41c-3.32-8.7-5.42-17.67-9.32-26.05-6.22-12.36-15.51-22.6-22.44-34.47-3.33-5.27-8.58-9.29-10.91-15.15-1.91-4.87-.53-10.09,.43-15.01,.75-7.41,5.02-13.42,9.01-19.44,.69-1.12,2.15-1.55,3.31-.87,3.31,2.55-1.53,6.21-2.68,8.81-4.57,6.52-6.17,15.11-6.04,22.96,1.09,5.5,6.05,8.99,9.06,13.45,9.68,15.86,23.05,29.83,28.67,47.88,1.44,4.25,2.4,8.34,4.15,12.33,.64,2.31,3.06,6.04-.26,7.23-1.26,.36-2.57-.41-2.97-1.68Z"/>
    <path d="M204.71,350.32c-.73-2.17-2.15-3.89-2.9-5.92-.46-2.48-1.76-5.03-.87-7.49,1.44-2.7,4.49-.86,6.45,.15,2.35,1.1,1.27,4.86-1.28,4.56,.49,2.68,2.42,4.62,3.16,7.12,1.08,2.91-3.51,4.56-4.55,1.58Z"/>
    <path d="M250.38,320.31c-.15-2.82,2.87-2.28,4.54-3.24,1.65-1.93,1.69-4.89,1.8-7.36,.02-2.07,2.92-3.04,4.21-1.43,1.17,1.54,.45,3.65,.31,5.41-.51,2.06-.54,4.05-2.01,5.7,.05-.09,.11-.18,.15-.26-1.4,2.77-8.12,5.57-9,1.19Z"/>
    <path d="M240.43,322.95c-1.75-.65-3.72,.21-5.19-1.09-2.33,1.12-4.92-1.48-3.37-3.69,.77-1.12,2.12-1.36,3.38-1.4,1.51-1.12,3.72-.44,4.57,1.17,.51,.14,1.07,.14,1.58,.28,3.08,.69,2.12,5.35-.97,4.73Z"/>
    <path d="M494.44,659.03c-1.48-.09-2.38-1.46-2.24-2.86-1.25-16.88-.48-33.5,.8-50.29-.24-8.74-1.95-17.32-2.88-25.98-1.6-12.55-2.22-25.48-6.46-37.4-6.19-15.04-13.18-29.72-20.2-44.36-6.37-8.99-12.79-18.19-17.63-28.04-.62-3.06-5.39-8.33-1.46-10.3,1.29-.45,2.58,.26,3.08,1.48,4.65,13.3,13.55,24.27,21.05,35.97,7.78,18.64,19.17,36.15,22.96,56.09,2.58,17.19,4.85,34.47,6.36,51.71-.37,11.19-1.77,22.37-1.48,33.59-.05,6.06,.66,12.1,.67,18.16-.01,1.32-1.32,2.32-2.56,2.24Z"/>
    <path d="M267.84,649.88c-2.4-17.82,.05-35.58,1.53-53.35-.64-9.73-2.95-19.41-3.8-28.99-1.29-8.11-1.7-16.55-5.05-24.12-4.66-11.2-10.88-21-20.22-28.62-5.08-5.51-10.42-10.6-17.55-13.31-8.17-4.92-14.48-9.29-24.06-5.11-5.33,1.27-10.84,.74-16.24,1.46-3.35,.69-15.46,3.9-15.57-1.31,.68-3.89,5.79-1.49,8.45-2.07,3.86-.78,7.23-1.79,11.15-1.8,8.6,.9,16.57-4.32,24.83-2.36,7.8,2.75,14.63,7.72,22.08,11.3,4.97,3.63,8.73,8.67,13.41,12.65,16,14.23,22.41,35.68,24.01,56.38,1.66,13.38,4.88,26.11,2.11,39.52-.73,9.73-1.84,19.42-1.09,29.18,.18,3.42,.52,6.83,.83,10.25,.11,1.31-.97,2.48-2.25,2.56-1.33,.09-2.46-.94-2.58-2.25Z"/>
    <path d="M119.19,654.61c-2.02-9.58-4.08-19.21-5.03-28.96,.28-2.87-2.31-8.35,1.75-9.18,1.31-.09,2.46,.94,2.57,2.25,.25,4.59,.76,9.57,1.48,14.03,.84,7.05,2.61,13.92,3.96,20.88,.64,3.05-4.14,4.04-4.73,.97Z"/>
  </g>
</svg>