<?xml version="1.0" encoding="UTF-8"?>
<svg id="Vektorebene" xmlns="http://www.w3.org/2000/svg" viewBox="0 0 650.88 834">
  <defs>
    <style>
      .cls-1 {
        fill: #fff;
      }
    </style>
  </defs>
  <path d="M183.08,483.07c-18.93-5.91-34.35-21.93-35.05-42.43-1.81-10.42,.61-21.57-2.45-31.57-5.21-13.88-14.84-25.41-18.65-39.95-9.02-36.3-20.37-75.46-8.87-112.43,3.59-11.11,11.15-20.9,11.26-32.97-.61-40.81,13.54-83.88,46.86-109.28,8.83-6.97,13.81-17.95,24.37-23.06,9.03-3.95,16.8-10.16,25.91-13.87,10.02-4.14,20.82-4.58,31.52-4.35,32.46,.43,86.08,7.71,88.12,48.69-2.6,10.88-12.47,18.46-17.22,28.32-3.42,7.63-4.16,16.21-7.77,23.82-3.13,8.74-8.27,17-9.09,26.31,4.25,16.34,16.59,30.92,29.31,41.59,15.7,8.68,32.51,17.66,41.87,33.71,6.45,8.51,7.97,21.4,1.34,30.22-5.89,6.32-15.9,8.17-20.73,15.63-8.07,11.63-5.36,25.79-4.57,38.92,1.24,12.88,.08,25.79-4.24,38.05-4.74,10.89-14.66,18.23-22.78,26.47-15.6,15.95-34.52,29.73-55.56,37.48-27.85,11.83-58.64,21.69-89.04,19.02-.81,1.63-2.86,2.41-4.52,1.69Zm2.72-6.47c.19,.08,.36,.17,.53,.28,.74-1.49,2.45-2.29,4.07-1.83,15.55,.14,31.11-2.18,46.21-5.87,23.62-6.97,48.04-15.18,67.83-30.05,9.98-6.48,18.44-14.28,26.51-22.8,6.75-6.53,13.93-12.37,17.65-20.86,12.19-27.73-11.09-66.83,18.55-86.55,4.23-3.25,10.42-4.43,13.09-9.34,5.82-13.62-6.27-26.46-15.76-34.72-7.54-7.21-16.3-10.82-25.03-15.85-10.66-6.51-17.65-17.27-25.25-26.87-7.8-12.04-12.56-23.18-5.3-36.84,6.65-13.12,8.96-27.85,15.19-41.01,8.1-14.32,22.49-21.23,9.9-38.4-12.88-17.24-35.26-22.2-55.43-24.27-16.06-1.94-33.48-3.33-48.93,2.19-6.83,2.37-12.31,7.01-18.7,10.22-9.43,3.91-17.5,10.38-22.85,18.87-11.69,11.63-26,20.99-33.07,36.45-9.58,14.36-14.32,31.42-16.87,48.32-2.79,13.41,0,27.41-4.42,40.51-7.35,14.85-13.18,29.77-13.31,46.33-.97,14.97,1.58,30.06,4.42,44.57,3.28,16.84,6.51,34.08,13.46,49.84,4.62,11.74,13.93,21.49,15.54,34.41,.26,28.77-.2,53.02,31.97,63.28Z"/>
  <path d="M210.48,544.54c-5.95-1.2-1.08-11.35-1.15-15.58,1.59-8.8,1.57-17.06,.29-25.72-.85-7.02-1.52-13.76-7.29-18.34-3.23-3.17,1.76-8.21,4.95-4.97,1.82,1.93,3.8,3.69,5.19,5.96,6.63,15.73,5.76,33.81,2.81,50.31-.59,3.13-.27,8.74-4.81,8.34Z"/>
  <path d="M205.45,412.54c-19.53-1.69-38.06-13.98-45.45-32.34-1.49-2.1-1.9-5.34,.91-6.51,2.03-.91,4.14,.45,4.83,2.36,7.67,20.15,29.14,31.25,49.93,29.87,19.24,.23,42.97-11.22,43.53-32.67-18.2,2.84-36.4,5.12-54.8,2.4-10.18-1.87-20.89-.88-30.92-2.96-3.87-1.86-12.81-.81-12.07-6.87,1.63-4.7,7.1-1.41,10.44-.86,8.76,2.39,17.95,2.45,26.98,2.69,17.16,2.85,34.83,3.2,51.94-.46,19.61-5.36,17.41,10.42,10.64,22.83-10.96,18.81-35.55,24.95-55.98,22.52Z"/>
  <path d="M218.74,343.35c-4.3-.44-7.39-3.57-10.51-6.18-1.74,.44-3.25,1.55-4.84,2.34-3.91,2.3-7.5-3.8-3.55-6.07,5.67-3.66,10.79-4.92,15.65,.73,2.93,2.94,7.44,2.74,11.17,2.05,4.74-.69,8.9-4.06,9.63-8.94,.37-2.74,.75-6.8,4.5-6.34,2.65,.51,3.13,2.54,2.93,4.77-3.27,1.85-6.14,4.48-7.84,7.79-1.27,2.47-2.2,5.16-2.63,7.91-3.21,1.51-6.87,2.27-10.45,2.27-1.37,0-2.73-.11-4.05-.33Z"/>
  <path d="M173.95,331.64c.31-4.98-.77-10.46,2.01-14.92,3.96-5.77,8.18-10.8,10.46-17.22,1.94-7.58,6.14-14.57,7.62-22.29,1.92-11.77,3.28-23.61,6.5-35.1,1.17-4.36,8.03-2.52,6.76,1.86-3.22,11.4-4.43,22.8-6.34,34.37-3.8,13.12-7.98,26.59-15.93,37.79-4.4,4.24-4.23,9.8-4.06,15.5,.02,4.52-7.08,4.55-7.02,0Z"/>
  <path d="M256.79,262.11c-1.21-1.57-.82-3.67,.64-4.92,7.82-8.26,18.81-11.79,29.89-13,5.73-.55,34.45-1.24,31.88,7.77-.81,1.93-2.96,2.52-4.79,1.81-14.63-4.81-31.27-3.79-45.14,2.65-3.85,1.92-7.98,10.08-12.48,5.69Z"/>
  <path d="M297.04,268.44c-2.05-.05-4.06-.99-5.52-2.39-.28-.26-.54-.54-.79-.83-7.74-1.51-16.35-10.76-5.49-15.21,3.05-1.12,8.03-4.42,9.84,.04,5.64-2.7,16.66-.5,15.2,7.46-2.26,5.25-7.16,10.8-13.25,10.93Zm-.57-9.32c1.98-.19,3.84-1.09,5.56-2.05-.31-.33-.54-.71-.69-1.12-2.1,0-5.84,.57-6,3.13,.37,.06,.75,.05,1.13,.04Z"/>
  <path d="M177.62,246.45c-1.6-2.5-4.56-4.46-7.2-5.3-7.1-1.78-14.81-3.21-22.07-1.96-4.63,.02-12.43,7-15.06,.93-.53-1.94,.64-3.71,2.45-4.33,8.01-3.07,16.32-5.39,24.86-3.47,8.31,.52,17.6,2.54,22.58,9.85,2.76,3.58-2.84,7.93-5.56,4.28Z"/>
  <path d="M163.81,259.09c-2.57-.73-4.55-2.58-6.62-4.13-2.94-4.55-3.08-12.36,2.1-15.38,4.92-1.71,10.4-4.71,15.69-3,9.8,3.26,10.49,18.32-.84,19.51-2.78,2.38-6.67,3.99-10.33,3Zm4.59-8.76c.47,.02,.93,.13,1.34,.3,2.91-3.26,1.86-5.8-2.54-5.92-1.83,1.18-2.66,3.32-2.83,5.42,1.34,.07,2.69,.14,4.02,.2Z"/>
  <path d="M248.71,225.38c-33.36-28.28,37.11-36.9,55.08-33.68,4.49,.61,3.55,7.62-.95,6.95-9.24-.8-18.98-.23-28.11,.65-9.42,2.65-40.31,7.6-21.72,20.52,3.6,2.75-.76,8.39-4.3,5.56Z"/>
  <path d="M244.05,225.61c-5.82-7.39,22.29-20.22,28.43-20.13,9.88-2.42,19.91-.4,29.72,.98,2.46-.25,5.45,.57,5.43,3.55-.63,7.6-17.24,.59-22.45,1.28-13.4-.33-26.84,4.58-36.18,14.31-1.41,1.28-3.57,1.39-4.96,0Z"/>
  <path d="M165.9,205.78c-8.49-2.63-16.65-3.14-25.28-3.16-1.9-.04-3.51-1.57-3.51-3.51s1.61-3.55,3.51-3.51c6.05,.14,12.05,.33,18.04,1.17-4.19-5.58-27.48-8.67-24.14-16.62,2.5-3.97,6.53,.07,9.31,1.39,6.38,3.09,13.55,4.88,19.07,9.52,1.95,1.95,3.67,4.1,5.67,6.01,1.61,1.55,3.47,3.38,2.8,5.87-.63,2.37-3.25,3.18-5.45,2.83Z"/>
  <path d="M294.1,407.78c-1.86-.26-3.33-2.07-3.02-3.95,.25-1.52,.5-3.03,.76-4.54-.81-.87-1.16-2.13-.85-3.34,1.49-5.02,2.36-10.21,2.23-15.46-.3-4.56-1.21-9.13-1.08-13.68,.2-1.37,1.21-2.54,2.56-2.91,7.01-1.04,5.08,12.09,5.54,16.54,.97,8.23-.8,16.28-2.19,24.34-.3,1.89-2.07,3.26-3.95,3Z"/>
  <path d="M29.93,783.91c-.57-17.28,3.88-34.24,3.78-51.41,1.1-17.36,1.45-34.97,7.68-51.46,3.72-9.96,10.24-18.45,15.81-27.41,5.56-8.83,9.85-18.47,16.69-26.4,5.41-5.93,11.88-11.02,17.07-17.13,5.18-5.9,8.18-12.74,14.39-17.54,8-5.62,14.47-12.93,22.36-18.56,7.29-4.55,15.2-7.78,22.36-12.34,20.52-12.76,43.47-20.05,66.49-26.82,13.59-2.58,26.41-7.62,39.91-10.53,5.98-1.78,11.99-3.4,18.08-4.77,1.86-.44,3.8,.57,4.31,2.45,.96,5.53-6.59,4.8-10.11,6.14-17.9,4.76-35.58,10.03-53.49,14.44-23.65,6.73-46.6,15.15-67.3,28.48-11.17,5.22-21.06,11.33-29.62,20.17-8.9,6.04-14.99,13.29-20.84,21.99-5.51,6.92-12.66,12.46-18.58,18.89-5.25,6.08-8.6,13.46-12.83,20.23-9.57,15.25-20.28,30.1-22.76,48.42-2.27,16.05-2.33,32.35-3.44,48.48-1.51,11.59-3.45,23.04-2.96,34.66,.11,4.44-7.11,4.62-7.02,0Z"/>
  <path d="M362.1,373.85c-.03-2.2-.11-4.39-.24-6.57-.53-6.71-1.54-13.4-1.2-20.06-15.34-11.32,1.18-30.8,12.96-37.69,7.43-5.59,9.2-17.4,8.05-26.22-2.6-9.21-14.25-12.57-16.79-22.15-10.24-5.43-21.55-10.07-29.48-18.83-6.94-7.69-11.95-16.65-19.45-23.79-9.13-10.57-9-26.48-6.27-39.4,.27-11.96,6.23-22.24,12.83-31.85,4.46-7.1,8.56-14.42,12.85-21.63,4.75-6.24,8.5-11.7,9.23-19.69,2.85-8.06,15.23-9.69,20.04-2.6,4.85,7.52,2.16,17.39,.41,25.54,4.95-6.36,15.63-4.56,19.28,2.4,.75-.16,1.53-.26,2.32-.3,.53-.03,1.05-.02,1.56,.03,7.08-6.12,17.7-1.47,20.34,6.91,4.29,10.89,6.85,22.44,11.01,33.42,4.82,3.24,5.6,9.49,7.2,14.65,6.49,16.93,11.12,33.4,17.53,50.24,3.4,10.37,14.29,26.29-.28,32.81,1.17,9.76-10.21,17.53-18.56,11.78-8.43,2.47-14.34-5.26-16.99-12.22-1.8,.15-3.64-.11-5.36-.86,13.3,20.69,6.59,41.81-7.22,60.02-4.63,5.7-10.63,10.39-11.62,18.25-1.1,9.26,1.51,18.47,1.25,27.78-.34,15.31-23,15.37-23.4,0Z"/>
  <path d="M108.17,562.46c-10.15-5.74-14.15-18.13-11.16-29.09-5.17,16.16-22.4,29.4-39.52,22.58-14.15-4.02-24.65-21.05-19.14-35.25,3.91-8.76,12.34-14.18,18.58-21.14,3.02-5.06,.38-11.59-.1-17.08-.59-2.74-3.34-4.56-5.37-6.34C22.25,460.57-.08,452.75,5.59,413.85c4.86-27.27,6.54-40.57,29.3-58.31,11.02-12.95,24.2-24.39,30.23-40.86,3.03-13.74,2.58-30.24-4.07-42.84-24.8-31.47-26.92-46.15-7.45-81.8,12.28-21.62,36.85-32.45,51.53-51.92,13.09-17.96,27.57-34.98,41.8-52.01,5.73-12.27,14.62-21.85,26-29.09,6.9-6.41,12.65-14.33,21.2-18.71,10.93-5.82,23.64-6.97,35.39-10.32,10.85-4.61,21.28-10.17,32.27-14.44,9.67-3.25,20.12-3.21,30.22-3.65,9.21-.58,18.15,1.24,26.85,4.12,6.84,.7,14.04,2.18,18.65,7.74,10.68,11.64-6.1,27.48-16.9,16.16-6.81-.62-13.19-3.14-19.83-4.48-17.43-1.46-34.03,1.55-49.25,10.15-14.75,9.27-32.38,8.76-47.57,16.03-7.28,5.25-12.28,13.1-19.67,18.25-4.1,2.97-8.65,5.44-11.32,9.92-5.09,9.56-11.23,18.32-19.12,25.84-8.48,11.49-19.04,24.08-27.31,34.48-12.79,21.01-36.5,31.76-51.25,51.13-4.8,10.27-12.77,21.36-11.12,33.12,4.51,15.43,19.11,24.66,22.68,40.2,11.54,46.65-5.6,68.16-36.14,100.33-3.93,4.34-9.2,7.16-12.82,11.78-5.9,9.02-6.36,20.13-8.73,30.13-1.19,7.75-2.24,17.38,3.39,23.62,14.26,10.67,33.84,14.74,43.92,30.48,5.12,10.34,6.13,23.05,4.15,34.35-2.43,11.4-13.19,17.47-20.2,25.88,4.75,10.85,13.33,2.4,15.25-5.49,2.85-9.93,5.15-21.9,15.22-27.14,26.16-11.02,33.76,26.62,28.61,45.16,2.3,2.37,8.58,.3,10.72-.41,12.6-3.03,26.7-10.92,39.02-3.18,5.57-2.58,12.26-1.09,15.5,4.44,7.78,16.55-16.26,25.07-27.75,15.56-15.96,3.14-32.97,13.32-48.81,4.38Z"/>
  <path d="M430.73,645.89c-15.89-2.3-24.63-14.82-32.29-27.42-14.87,1.03-30.55,5.28-45.1,.15-13.54-7.06-23.42-19.74-30.75-32.81-11.02-8.42-20.13-18.77-29.84-28.57-7.83-6.72-9.97-17.41-10.63-26.29-8.03-3.11-17.01,.31-23.87-7.1-6.95-6.42-10.4-15.16-11.87-24.44-1.69-10.49,4.24-20,8.08-29.34,8.03-13.08,27.62-1.67,20.2,11.81-3.35,8.36-8.22,16.09-1.21,24.2,11.99-.41,25.66,3.99,30.35,16.06,2.32,5.39,1.61,9.75,2.68,14.63,1.29,3.31,4.5,5.21,6.84,7.71,8.29,10.65,19.34,18.36,28.56,28.01,3.36,4.61,5.36,10.12,9.34,14.33,3.69,3.67,7.27,8.03,11.92,10.43,14.05,2.17,27.4-3.66,41.14-1.5,5.16,1.12,9.76,4.72,13.05,8.68,5.43,6.48,7.7,16.97,17.36,18.42,12.84,4.58,21.64-6.1,29.32-14.73,18.41-20.88,12.09-51.38,24.4-75,15.77-28.3,41.49-11.01,54.99,9.23,9.15,11.6,8.1,27.85,17.25,39.19,6.04-13.41,17.12-34.21,34.71-24.54,11.4,6.77,13.87,20.96,21.91,30.24,9.2-5.8-1.26-18.12-3.26-25.67-3.33-7.24-6.06-15.03-10.86-21.45-4.87-5.33-11.52-8.56-16.69-13.58-16.09-17.61-35.72-31.31-42.91-54.79-10.6-25.03-3.65-51.94,.23-77.57-.12-15.26-.1-30.58-.44-45.86-2.64-25.23-26.81-40.1-33.91-63.23-6.64-26.89-4.86-56.72-19.99-81.07-10.02-15.06-24.03-27.16-32.86-43.03-9-16.12-9.41-36.09-16.18-52.64-10.38-17.78-25.45-31.64-43.27-41.8-11.27-10.17-26.61-12.78-40.71-17.17-5.73,2.38-11.82,4.14-16.61,8.31-5.74,5.72-10.6,12.27-17.12,17.2-7.63,6.71-20.54-1.04-18.74-10.84,.49-4.2,3.51-7.01,6.58-9.56,4.3-3.54,7.49-8.22,11.43-12.11,7.25-7.4,16.83-11.35,26.31-14.99,6.34-2.92,13.11-1.05,19.36,.93,11.09,3.35,22.53,6.32,32.83,11.66,13.55,10.41,29.24,18.44,41.1,30.92,9.46,11.65,20.02,23.34,23.99,38.15,3.99,13.47,5.03,27.78,11.45,40.51,4.62,7.49,9.92,14.54,15.8,20.98,24.05,23.77,33.14,57.55,36.06,90.37,.52,12.99,4.53,25.45,13.64,34.96,12.08,14.67,22.28,32.41,24.21,51.59-.07,19.39,1.83,39.09-.84,58.34-3.24,17.34-7.34,36.2-1.97,53.42,3.6,12.94,11.33,24.07,21.61,32.63,6,5.63,10.98,12.2,17.07,17.72,6.41,5.32,13.72,9.52,19,16.11,6.08,7.55,9.44,16.93,13.53,25.65,6.19,13.98,14.13,30.61,5.36,45.21-9.88,16.52-32.18,19.75-43.75,2.94-4.18-5.44-6.18-12.05-9.82-17.77-9.06,21.52-23.61,35.77-43.82,15.28-9.09-9.77-11.47-23.19-15.59-35.36-3.6-8.08-10.04-14.19-16.65-19.82-6.86,9.41-7.08,22.13-8.93,33.26-1.68,11.35-5.48,22.31-9.78,32.91-5.43,11.77-15.2,20.99-24.63,29.65-9.85,9.16-23.98,11.36-36.76,8.26Z"/>
  <path d="M291.69,504.81c-7.09-6.89-18.58-15.43-9.21-25.59,4.53-4.53,11.97-4.44,16.55,0,2.56,2.51,5.15,4.99,7.71,7.51,2.99,.88,5.57,2.92,7.08,5.65,7.46,7.82,4.02,21.6-7.68,21.82-6.04,0-10.33-5.21-14.44-9.39Z"/>
  <path d="M127.41,550.02c-.17-.09-.33-.19-.5-.29-23.19,3.14-13.76-31.46-22.13-44.67-1.39-.4-2.72-1.05-3.88-1.91-3.95,2.86-8.69,4.57-12.31,7.85-2.28,11.27-8.02,21.71-16.35,29.66-10.1,8.64-25.13-3.07-18.54-14.88,7.03-6.48,7.34-15.19,12.11-23.1-.01-.3-.02-.61-.04-.91-1.08-11.79-2.84-23.44-5.07-35.04-10.04,3.48-16.09-5.02-17.05-14.1-6.76,1.23-12.63-4.06-13.7-10.53-4.94-2.66-9.05-7.33-10.12-12.99-1.79-9.71-5.53-23.78,4.11-30.39,.53-14.16-.5-28.67,18.39-26.48,.3-4.14,1.17-8.15,4.87-10.85,2.64-1.93,5.82-2.81,9.02-2.3,1.38-.62,2.84-.98,4.3-1.06,1.18-13.77,6.85-29.51,18.54-37.6,.98-16.16-.32-32.51-1.53-48.68-19.21-16.58-23.66-63.1-8.43-83.2,4.32-6.24,13.6-9.93,19.79-4.09,2.02-7.77,6.31-14.75,10.74-21.41,3.83-7.99,12.93-14.39,20.86-7.82,7.67-10.34,13.44-21.89,20.65-32.57-3.65-15.27,12.1-25.02,21.05-34.73,7.84-10.63,19.06-17.68,31.03-22.91,18.6-8.37,38.72-14.76,59.22-14.46,19.48-2.87,38.01,3.62,56.16,9.51,9.21,2.54,18.53,5.77,26.83,10.33,5.9,2.62,11.75,6.48,15.47,11.95,7.66,11.94,14.5,24.73,17.55,38.56,2.61,11.1-1.05,23.11,3.19,33.71,8.34,14.44,16.75,28.75,26.73,42.13,8.8,14.47,13.96,30.98,18.34,47.26,6.04,26.63,.2,56.05-14.15,79.12-5.97,9.36-17.83,13.76-20.72,25.08-3.14,18.28,3.97,38.49-6.08,55.64-11.25,17.09-21.05,35.71-39.15,46.3-15.23,12.09-31.03,22.91-50.06,27.96-.02,.05-.04,.1-.06,.16,0,0,0,0,0,.01,5.63-2.2,12.87,.46,15.05,6.35,2.62,6.95,6.53,14.91,1.28,21.65-3.71,4.95-10.03,5.47-15.65,5.37-3.62,1.26-7.45,.66-10.97-.71-8.59-4.09-15.07-13.87-16.2-23.24-.16-4.48,1.69-9.14,3.19-13.37,4.09-17.95,16.45-17.23,30.14-23.91,9.65-3.32,17.18-10,25.14-16.03,12.63-7.33,22.19-17.97,29.37-30.57,26.9-32.78-11.67-56.58,34.05-92.11,10.28-14.43,14.15-33.29,13.85-50.81-1.57-16.09-7.6-31.43-14.01-46.15-10.71-17.47-23.39-33.89-32.27-52.45-5.63-12.52-1.51-26.51-4.36-39.59-4.21-9.98-7.87-20.97-15.33-28.9-15.06-8.83-32.37-12.04-48.54-18.09-12.03-2.68-23.31-2.66-35.3-1.28-4.76-.02-9.53,.35-13.89,1.57-2.72,4.65-7.5,6.87-12.02,9.33-9.49,5.87-20.01,10.12-29.02,16.63-10.92,11.06-21.48,22.86-31.23,34.89-6.95,12.12-15.36,23.45-21.76,35.75-3.97,10.58-5.22,21.77-6.84,32.86-1.95,6.75-2.38,13.15-1.63,20.07-2.36,22.58-15.83,42.93-15.96,65.9-.93,7.79,4.04,14.67,4.44,22.55,3.31,21.41,5.69,44.01,12.48,64.47,11.77,7.57,14.89,23.26,21.97,34.67,6.14,15.51,.27,33.19,6.37,48.83,5.92,0,10.49,3.93,16.03,5.33,8.36,2.05,15.33,7.11,23.19,10.29,8.04,1.27,15.03,7.67,12.1,16.27,5.27,10.98,5.61,25.09,1.64,36.52-8.99,18.46-29.28,29.26-46.72,14.03-1.17-.04-2.34-.21-3.51-.5-.48-.12-.95-.24-1.41-.38-1.04,1.38-2.34,2.59-3.98,3.56-3.52,2.07-7.35,2.67-11.16,2.26-4.94,3.76-12.21,3.73-17.56,.7Z"/>
  <path d="M438.27,294.18c-13.87-15.78-17.78-38.09-24.98-57.41-1.94-7.12-8.11-12.26-11.27-18.7-7.83-13.13-12.96-27.62-18.73-41.69-12.6-2.76-14.98-18.96-19.59-29.08-5.98-17.14-11.7-34.28-20.11-50.44-10.94-11.8-22.39-22.97-32.07-35.91-12.53,6.06-26.4-2.41-39.65-1.53-11.18-2.5-22.63,1.74-34.01,2.18-12.34,4.66-24.84,8.86-36.3,15.5-5.45,3.16-12.89,1.37-16.01-4.19-5.21-10.72,2.84-15.98,11.65-19.91,5.43-3.71,11.7-5.59,17.9-7.54,14.32-7.74,30.5-8.09,46.26-10.37,5.21-6.3,13.86-6.83,21.4-7.08,15.83-2.26,34.51-4.81,45.65,9.5,4.02,.71,7.8,2.28,11.22,4.63,.9,.62,1.74,1.29,2.54,2.01,7.6-13.73,30.87-6.9,31.85,8.08,9.09,.57,17.46,4.9,24.9,10.24,10.22,6.91,21.84,12.12,29.56,22.1,11.82,13.12,14.21,30.76,20.79,46.46,6.94,6.55,9.98,16.42,14.01,24.89,8.26,6.04,10.16,17.61,15.27,26.08,12.68,.17,17.51,14.92,21.66,24.71,3.88,10.19,9.42,22.79,3.35,33.1,.9,2.21,1.88,4.38,2.92,6.53,4.44,9.36-6.39,19.67-15.61,15.24,3.69,17.7-18.76,22.02-24.01,5.3-.97,1.39-2.23,2.57-3.69,3.42-2.22,1.3-4.67,1.75-7.08,1.48,1.76,6.63,3.75,14.17-.85,20.15-3.97,5.15-11.83,6.17-16.97,2.23Z"/>
  <path d="M420.99,622.23c-8.41-6.8-13.58-16.6-21.97-23.24-1.1,.28-2.23,.46-3.37,.55-4.88,7.79-15.33,7.2-22.86,3.47-4.63-.71-9.31-.04-13.88-1.17-18.56-3.36-35.14-18.11-43.46-34.71-2.99-7.73-4.09-16.2-9.72-22.66-6.17,.92-11.62-4.03-13.55-9.59-10.58-4.84-10.92-18.42-12.3-28.41-3.29-7.79-9.63-17.32-.9-24-.32-10.79,5.95-22.74,18.31-17.9,1.55-2.54,3.65-4.69,6.49-5.9,.52-.22,1.05-.4,1.57-.55,1.71-10.49,11.5-20.57,22.52-15.64,1.71-2.4,3.82-4.39,6.53-5.54,.33-.14,.67-.27,1-.38,2.21-11.25,6.5-27.33,20.44-27.91,1.03-4.74,2.22-9.41,3.59-14.07,1.99-6.79,5.38-14.42,10.93-18.97,1.22-10.81,5.43-20.79,7.97-31.27,3.1-10.84,6.08-24.38,16.9-30.07,3.13-18.73,12.63-61.76,33.63-66.48,3.6-3.66,8.14-6.47,13.36-6.69,11.81-.51,18.55,7.09,22.7,16.82,3.66-13.43,20.03-17.95,28.88-6.56,17.99-.02,25.19,19.75,28.55,34.5,25.7,18.6,24.18,54.33,30.29,82.35,1.8,17.1,.3,34.48-2.66,51.37,1.86,12.74,4.65,25.39,5.24,38.33,11.56,13.54,19.11,30.34,23.37,47.55,10.34,3.84,19.39,11.48,25.17,20.87,5.93,7.61,6.17,18.38,12.34,25.58,6.57,9.2,16.65,18.19,17.81,29.95,0,5.39-3.6,10.4-8.85,11.85-9.25,2-17.87-6.03-23.27-12.69-7.26-.87-11.75-9.18-9.6-15.85-.16-1.65-.38-3.3-.63-4.94-3.66,3.7-9.73,4.91-14.64,3.65-3.75,4.8-5.06,10.83-6.68,16.56-6.27,13.03-21.31,7.87-25.74-3.77-5.55-13.04-12.06-25.91-14.12-40.1-5.3-4.32-10.51-8.8-15.08-13.86-1.94,2.11-4.42,3.78-7.16,4.42-2.58,.58-5.29,.95-7.91,.43-.62,.55-1.28,1.04-1.96,1.46-.65,2.89-1.56,5.75-3.12,8.26-1.19,1.89-2.8,3.53-4.66,4.72-.43,3.65-1.28,7.23-3.16,10.3-.69,1.14-1.52,2.15-2.45,3.03-.67,7.41-1.89,15.96-7.82,21.07,.98,11.52,.87,25.38-7.48,34.33-5.26,4.06-9.37,10.43-16.63,11.02-7.74,9.95-23.62,9.56-31.94,.47Z"/>
  <path d="M106.6,576.07c-5.65-.79-10.6-3.38-14.74-7.24-3.02-2.82-4.79-6.32-6.21-10.03-14.01,13.51-35.99,24.18-49.99,4.55-10.69-12.16-5.16-28.12,.04-41.43,3.24-8.52,11.02-13.92,17.46-19.93,12.19-9.21,26.32,8.89,14.3,18.54-3.98,3.86-9.46,6.98-10.99,12.61-1.3,5.73-6.84,13.26-.57,17.69,10.01-3.34,15.84-13.46,25.99-16.57,7.33-2.47,15.63-.2,20.55,5.8,3.35,3.5,3.56,8.75,6.27,12.44,5.15,1.61,10.42-1.82,15.45-2.71,9.48-2.23,23.81-2.33,24.11,10.62,.04,8.83-8.56,12.67-16.33,11.81-8.38,1.57-16.59,5.33-25.33,3.86Z"/>
  <path d="M140.24,554.6c0-6.38,5.32-11.7,11.7-11.7s11.7,5.32,11.7,11.7-5.32,11.7-11.7,11.7-11.7-5.32-11.7-11.7Z"/>
  <path d="M283.4,263.17c-3.75-6.4-.44-15.16,6.38-17.86,7.84-2.57,18.67,.55,19.93,9.8,1.97,13.8-19.76,19.25-26.31,8.06Z"/>
  <path d="M166.11,261.22c-10.2-4.49-11.35-21.28,.35-24.41,10.33-2.93,20.15,10.29,14.75,19.36-3.04,5.04-9.68,7.54-15.1,5.05Z"/>
  <path d="M239.69,219.48c-7.67-15.46,14.2-21.22,24.44-25.92,11.96-3.84,24.74-4.52,37.2-4.06,6.06-.56,12.11,.23,17.55,3.14,14.4,4.77,8.24,26.28-6.49,22.49-2.25-.63-4.21-1.97-6.46-2.44-11.19,.2-22.55-.37-33.46,2.7-4.76,1.76-8.5,5.17-13.71,6.29-5.67,5.23-15.04,4.74-19.07-2.2Z"/>
  <path d="M164.95,211.84c-9.59-2.62-18.81-7.54-29.09-5.76-15.22,1.81-18.34-20.66-3.16-23.18,12.1-2.22,23.9,1.53,35.17,5.16,4.92,.89,10.35,2.23,12.25,7.64,4,9.42-5.56,19.38-15.17,16.14Z"/>
  <path d="M160.1,257.07c-8.41-10.72,5.92-25.03,16.71-16.75,13.36,11.19-5.53,30.18-16.71,16.75Z"/>
  <path class="cls-1" d="M310.88,73.67c-3.2-3.53,1.86-6.51,3.88-9.08,4.41-5.79,9.08-11.44,14.4-16.42,1.85-1.7,3.73-3.33,5.39-5.19,3.15-3.25,8.18,1.73,4.97,4.95-6.1,5.99-12.41,11.76-17.42,18.63-2.86,2.85-6.52,10.72-11.23,7.11Z"/>
  <path class="cls-1" d="M494.82,242.92c-5.81-15.01-13.43-30.73-27.56-39.25-28.51-10.98-26.79-42.86-25.88-68.38-.59-10.71-6.33-20.52-11.72-29.08-5.61-10.21-13.87-17.43-23.4-23.62-4.4-3.23-20.17-6.75-16.55-14.02,1.13-1.46,3.47-1.88,4.92-.64,6.26,5.72,15.12,7.14,21.39,13.03,11.65,7.55,19.03,19.69,25.41,31.61,11.78,18.35,3.77,40.55,8.46,60.68,1.48,5.65,3.78,10.8,7.03,15.45,8.69,7.27,20.15,11.1,27.53,20.22,6.95,9.6,12.8,20.11,16.84,31.26,.82,1.74-.16,3.88-1.86,4.61-1.75,.76-3.78-.12-4.61-1.86Z"/>
  <path class="cls-1" d="M399.65,323.43c-1.81-1.79-.93-4.38,.8-5.83,9.91-14.7,10.87-34.95,3.49-50.82-3.23-6.16-8.31-10.39-12.23-15.96-6.03-11.1-15.2-19.06-24.94-26.67-7.88-8.2-13.67-18.25-16.8-29.18-6.33-14.15-2.7-30.19,6.6-42.14,3.13-3.18,8.76-13.7,13.71-9.74,1.35,1.37,1.33,3.6,0,4.97-3.28,3.11-6.93,7-9.31,10.64-16.24,21.34-.98,52.98,18.52,66.77,11.95,9.49,18.77,23.54,28.7,34.77,10.19,16.55,9.59,38.34,1.52,55.54-1.75,3.55-5.31,11.36-10.07,7.66Z"/>
  <path class="cls-1" d="M478.97,344.45c.46-25.74,3.86-53.53-11.68-75.72-13.69-14.66-27.69-29.31-40.22-44.96-6.05-6.62-11.49-13.88-14.3-22.51-.82-4.24-6.78-11.95-1-14.41,1.88-.51,3.75,.62,4.32,2.45,3.15,12.76,9.79,23.52,18.77,32.85,8.42,9.52,16.03,19.26,24.57,28.48,16.57,12.81,25.85,33.55,26.86,54.21,.89,13.16-.34,26.42-.29,39.6,.02,4.49-7.04,4.59-7.02,0Z"/>
  <path class="cls-1" d="M451,594.52c-4.06-3.79,2.33-7.72,4.15-11.01,5.85-7.56,10.65-15.19,15.26-23.44,7.86-19.72,11.02-41.09,12.21-62.04,1.67-12.61-5.17-23.23-12.36-32.82-2.75-3.56,2.85-7.94,5.56-4.3,7.39,10.07,14.75,20.98,13.93,34.06-.72,21.39-4.12,42.64-10.86,62.98-4.34,10.96-11.46,20.69-18.41,30.13-2.54,2.64-5.04,9.26-9.49,6.43Z"/>
  <path class="cls-1" d="M391.31,563c-4.48-3.14,1.31-8.13,2.47-11.61,5.69-10.18,5.38-22.38,4.65-33.68-2.23-10.29-7.31-18.85-9.35-29-3.22-17.35,2.87-34.58,13.69-48.1,2.74-3.56,8.37,.7,5.56,4.3-2.27,2.91-3.73,5.6-5.65,8.59-4.98,6.23-6.03,14.61-7.39,22.05-1.25,12.98,5.33,24.3,8.83,36.34,3.02,9.03,1.38,18.76,.9,28.06-.9,7.93-5.12,14.93-8.92,21.77-.93,1.67-3.18,2.21-4.79,1.26Z"/>
  <path class="cls-1" d="M53.65,451.17c-14.91-17.68-22.59-43.05-11.25-64.55,5.73-10.77,12.08-23.28,23.42-28.92,4.15-1.78,6.92,4.71,2.72,6.47-6.56,2.83-10,9.72-14,15.19-9.16,12.89-13.71,29.88-8.21,45.1,2.89,8.13,7.59,15.64,12.87,22.43,2.8,3.52-2.8,7.93-5.56,4.28Z"/>
  <path class="cls-1" d="M93.17,352.88c1.38-16.31,2.45-32.33,.99-48.61-2.22-23.81-8.49-47.35-10.4-71.25-.65-11.19,2.06-22.29,5.98-32.71,5.34-9.95,13.81-18.33,20.24-27.48,10.91-16.16,27.82-33.83,41.36-48.26,3.67-3.38,8.34-6.09,11.81-9.6,7.87-10.21,17.12-19.13,24.97-29.38,3.66-3.9,7.65-7.49,11.5-11.21,1.43-1.26,3.55-1.41,4.95,0,1.3,1.3,1.43,3.69,0,4.97-4.16,4.05-8.61,7.95-12.47,12.29-4.8,6.27-10.06,12.94-15.87,18.21-5.46,7.91-12.63,14.49-20.38,20.06-12.84,13.38-24.98,27.53-36.76,41.77-9.71,15.59-25.64,28.3-27.49,47.46-3.35,32.05,10.18,63.36,10.17,95.51,.55,12.63-.57,25.8-1.57,38.23-.05,4.44-7,4.68-7.02,0Z"/>
  <path class="cls-1" d="M99.22,536.23c-1.04-4.37,4.21-4.5,6.9-5.97,1.19-.99,1.73-2.13,2.44-3.32,4.27-10.5,9.32-21.05,12.06-31.88,4.85-16.67-.06-32.93-8.05-47.66-6.81-7.74-13.06-16.23-16.11-26.25-1.02-3.07-1.26-6.27-1.44-9.51,.02-4.53,6.92-4.62,7.02,0,.35,12.47,8.72,22.8,16.25,31.7,5.38,10.77,11.06,22.16,11.38,34.44,.03,19.26-8,37.57-16.18,54.57-1.93,3.84-12.13,9.8-14.26,3.88Z"/>
  <path class="cls-1" d="M561.29,541.33c-4.83-12.65-7.88-25.7-13.55-37.87-9.05-17.97-22.56-32.87-32.63-50.12-4.85-7.66-12.47-13.51-15.87-22.03-2.78-7.07-.77-14.67,.62-21.83,1.1-10.77,7.3-19.51,13.11-28.26,1.01-1.63,3.13-2.25,4.81-1.26,4.81,3.7-2.23,9.03-3.9,12.82-6.64,9.48-8.97,21.97-8.79,33.38,1.59,8,8.8,13.08,13.18,19.56,14.08,23.06,33.51,43.37,41.68,69.62,2.1,6.18,3.49,12.13,6.03,17.93,.93,3.36,4.46,8.79-.38,10.51-1.83,.53-3.74-.6-4.31-2.45Z"/>
  <path d="M160.7,382.7c-1.07-3.16-3.12-5.66-4.22-8.61-.66-3.61-2.56-7.31-1.26-10.9,2.1-3.93,6.53-1.25,9.38,.22,3.41,1.6,1.85,7.07-1.87,6.63,.72,3.9,3.52,6.72,4.59,10.35,1.56,4.23-5.1,6.62-6.62,2.3Z"/>
  <path d="M227.11,339.07c-.22-4.1,4.17-3.31,6.6-4.72,2.4-2.81,2.45-7.11,2.62-10.7,.02-3.01,4.25-4.42,6.12-2.08,1.7,2.23,.65,5.3,.46,7.86-.74,3-.78,5.89-2.93,8.28,.07-.13,.15-.27,.22-.38-2.04,4.02-11.81,8.1-13.09,1.74Z"/>
  <path d="M212.63,342.91c-2.54-.94-5.41,.31-7.54-1.58-3.39,1.63-7.16-2.15-4.91-5.36,1.12-1.62,3.08-1.97,4.91-2.04,2.2-1.63,5.41-.64,6.65,1.71,.75,.2,1.56,.2,2.3,.4,4.48,1,3.09,7.78-1.41,6.87Z"/>
  <path d="M582,831.59c-2.16-.13-3.46-2.12-3.25-4.16-1.82-24.54-.7-48.71,1.17-73.12-.35-12.71-2.84-25.18-4.18-37.78-2.32-18.25-3.24-37.06-9.4-54.39-9-21.87-19.17-43.21-29.37-64.51-9.26-13.07-18.6-26.46-25.64-40.78-.9-4.45-7.84-12.11-2.12-14.97,1.88-.66,3.75,.38,4.48,2.16,6.76,19.34,19.71,35.29,30.61,52.3,11.32,27.1,27.88,52.56,33.38,81.56,3.75,24.99,7.05,50.12,9.25,75.19-.54,16.28-2.57,32.52-2.16,48.84-.08,8.82,.96,17.59,.97,26.4-.02,1.92-1.91,3.38-3.73,3.25Z"/>
  <path d="M252.5,818.28c-3.48-25.91,.08-51.74,2.23-77.58-.93-14.15-4.29-28.22-5.53-42.15-1.87-11.79-2.47-24.06-7.34-35.08-6.78-16.29-15.82-30.54-29.4-41.61-7.38-8.02-15.16-15.42-25.52-19.36-11.88-7.15-21.05-13.51-34.99-7.42-7.74,1.84-15.77,1.08-23.61,2.12-4.88,1-22.49,5.67-22.65-1.9,.99-5.66,8.42-2.17,12.29-3.01,5.62-1.14,10.52-2.61,16.22-2.62,12.51,1.32,24.09-6.29,36.11-3.44,11.34,4.01,21.28,11.22,32.1,16.44,7.22,5.29,12.69,12.61,19.51,18.39,23.27,20.69,32.59,51.88,34.92,81.98,2.41,19.46,7.1,37.97,3.07,57.46-1.05,14.14-2.67,28.24-1.59,42.43,.26,4.97,.75,9.93,1.21,14.9,.16,1.9-1.41,3.6-3.27,3.73-1.93,.13-3.57-1.36-3.75-3.27Z"/>
  <path d="M36.35,825.16c-2.94-13.94-5.93-27.93-7.31-42.1,.41-4.18-3.36-12.14,2.54-13.35,1.9-.13,3.58,1.37,3.73,3.27,.37,6.67,1.11,13.92,2.16,20.4,1.22,10.25,3.8,20.24,5.76,30.37,.92,4.43-6.02,5.87-6.87,1.41Z"/>
</svg>