<?xml version="1.0" encoding="UTF-8"?>
<svg id="Vektorebene" xmlns="http://www.w3.org/2000/svg" viewBox="0 0 573.52 826.13">
  <defs>
    <style>
      .cls-1 {
        fill: #fff;
      }
    </style>
  </defs>
  <path d="M190.17,431.75c-2.03-.29-4.04-.74-6.05-1.17-1.31-.3-2.28-1.37-2.52-2.63-.82,1.24-2.49,1.9-3.93,1.31-14.37-4.39-19.92-19.82-26.34-31.96-2-10.75-6.32-20.81-10.47-30.79-3.95-11.83-7.21-23.92-11.54-35.63-5.39-32.06-21.56-70.47,3.67-98.16,6.71-8.95,6.93-20.4,10.13-30.71,6.26-27.64,11.63-55.96,27.76-79.87,8.79-16.34,16.59-32.18,37.19-34.37,4.88-.77,10.61-.45,14.45,2.99,3.14,2.66,5.05,6.42,8.8,8.19,15.49,4.01,40.62-5.32,47.02,15.37,1.45,4.66,2.04,10.91,8.16,11.34,3.09,.33,6.75,0,8.94,2.68,6.58,7.3,2.26,21.91,12.51,25.79,3.97,.45,8.69-.98,11.88,2.14,2.8,2.72,3.82,6.63,4.4,10.37,.68,3.21,.02,7.85,3.83,9.2,5.05,1.78,11.88,.9,14.37,6.74,3.7,6.69,1.77,15.9,8.16,21.16,4.35,3.12,10.14,4.78,12.33,10.16,3.11,7.08,1.01,15.23,2,22.46,1.12,3.51,4.61,5.85,4.88,9.76,.53,9.73-3.46,19.32-4.49,28.95-1.37,7.52-1.69,15.39-1.75,22.79,.76,16.36,.59,33.33-6.45,48.49-7.7,13.52-16.75,27.72-30.05,36.31-26.38,20.62-57.78,36.22-90.51,40.97-8.15,3.01-16.24,5.75-25.03,5.94-7.07,1.06-14.1,3.24-21.33,2.15Zm-10.2-8.69c1.09,.46,1.87,1.41,2.09,2.51,.73-1.12,2.12-1.74,3.49-1.44,4.17,1.02,8.41,1.63,12.6,1.12,10.26-2.44,21.14-1.9,30.74-5.94,12.24-4.41,25.44-5.09,37.58-9.73,24.32-9.24,45.17-22.56,65.27-38.84,7.06-8.04,13.65-16.81,18.9-26.06,5.83-12.71,7.43-27.18,6.36-40.87-.29-10.9,.23-21.7,2.22-32.39,.5-8.44,6.07-18.74,3.05-26.62-8.84-8.23,.23-22.58-7.48-30.76-7.22-3.66-14.09-8.78-15.44-17.33-1.33-4.02-.6-9.94-4.35-12.56-5.7-1.14-12.77-1.68-15.52-7.72-2.15-4.73-.91-10.56-3.87-15-.81-.99-2.26-.5-3.38-.6-4.92,.36-10.35-.55-13.24-4.99-5.83-6.49-4.3-16.15-8.62-23.17-3.17-.34-6.47-.37-9.41-1.84-11.32-4.98-5.11-21.98-19.83-23.55-12.37-2.57-27.19,3.51-37.36-5.59-2.91-2.41-4.79-6.81-8.82-7.4-6.95-.84-14.3,1.85-20.38,5.01-5.91,5.03-10.21,11.54-13.55,18.39-9.39,15.68-18.04,31.34-22.99,48.99,.02-.08,.04-.16,.06-.23,.02-.07,.05-.15,.07-.22-6.15,22.23-8.28,46.09-17.66,67.25-10.1,11.6-15.23,24.62-14.94,39.99,1.06,19.26,7.37,37.58,10.35,56.58,5.82,14.9,9.11,30.63,15.57,45.23,4.04,6.94,4.11,15.35,7.29,22.5,5.8,9.34,9.51,21.96,21.21,25.29Z"/>
  <path d="M93.1,305.33c-9.92-4.09,.42-18.54,2.8-24.84,3.77-10.43-.41-21.48,1.91-32.1,2.53-5.77,5.02-11.45,6.33-17.65,1.47-4.77,3.79-9.12,3.21-14.16-1.89-9.62-11.46-20.65-3.4-29.89,2.35-2.96,6.65-3.18,9.04-5.93,.87-3.7-.06-7.56,.12-11.31-.05-5.95,3.11-11.12,6.47-15.72,2.86-3.72,7.4-6.88,8.96-11.37,5.75-13.74,4.88-33.13,21.34-39.23,3.59-2.18,6.73-3.99,8.93-7.32,5.42-13.05,4.9-25.64,22.47-27.27,2.1-.72,4.99-1.17,6.02-3.38,.38-1.94,.48-3.95,.88-5.87,3.11-16.4,21.4-26.24,37.12-24.58,5.04,.53,9.4-1.93,12.18-6.04,5.18-7.16,12.31-12.46,19.88-16.84,11.09-6.17,24.65-3.58,36.47-1.32,2.57,.31,6.59,.44,6.35,4.03-.72,4.76-6.22,2.46-9.41,2.12-18.52-5-34.14-1.1-46.41,13.97-3.21,3.97-6.41,8.35-11.52,9.8-5.48,1.78-11.27,.01-16.81,1.16-6.61,1.74-12.84,4.64-17.06,9.86-2.77,3.39-4.04,6.83-4.62,10.84,.57,10.29-10.16,12.76-18.18,14.1-8.14,3.89-7.3,14.75-11.08,21.74-3.68,7.37-12.12,10.08-18.34,14.53-2.85,2.75-4.8,7.13-5.92,10.7-2.68,9.21-3.68,19.3-9.48,27.28-4.59,5.05-10.05,9.98-11.55,16.91-.16,10.08,2.61,18.53-9.42,22.42-8.93,6.83,5.18,19.53,3.63,28.57-.54,8.04-4.38,15.43-6.14,23.24-3.73,6.62-5.06,13.77-3.99,21.21,2.03-.9,4.49-.91,6.08-2.63,2.33-2.3,2.73-5.76,4.43-8.5,1.97-3.77,7.89-.67,5.85,3.1-2.21,4.23-3.24,8.97-7.45,11.63-2.13,1.61-4.89,1.76-7.23,2.9-2.29,1.57-.88,5.1-1.72,7.46-1.22,5.39-3.41,10.55-5.15,15.79-1.62,4.02,.3,12.19-5.61,12.58Z"/>
  <path d="M12.99,718.08c-1.86-7.29-5.03-14.45-5.16-22.09,.56-8.63,7.98-14.92,9.28-23.36,.97-6.74-1.48-12.85-.02-19.45,2.2-8.31,3.42-17.25,8-24.67,2.51-4.44,6.59-7.83,9.25-11.91,2.86-4.83,3.27-10.2,4.62-15.47,2.42-11.36,10.48-20.24,16.44-29.7,1.73-5.21,.69-10.98,2.72-16.18,2.35-8.14,7.8-14.79,14.24-20.12,4.83-4.42,6.86-11,7.52-17.17-.67-7.46-4.36-14.64-2.95-22.28,.75-9.21,10.35-12.16,15.63-18.06,1.18-3.46-1.04-7.43-1.92-10.85-3.6-7.88-5.97-17.44-2.71-25.81,2.32-3.87,5.96-6.69,6.81-11.26-.16-4.37-4.76-7.53-4.94-12.15-.48-7.25-1.67-14.8-.1-21.97,1.06-5.94,3.93-11.7,5.74-17.24,2.19-5.59,.52-11.28-.89-16.82-2.18-9.32,1.79-18.73,6.3-26.59,1.99-5.11,4.21-10.79,8.05-14.59,2.45-3.29,5.07-6.55,6.56-10.34-.24-5.01-1.27-9.98-1.15-15.06-.2-4.17,6.34-4.76,6.61-.34-.4,7.89,3.67,16.53-2.17,23.26-2.43,4.1-5.44,7.29-8.07,10.92-2.29,4.33-3.46,9.05-5.98,13.25-6.12,8.66-3.67,18.69-1.53,28.14,.74,8.98-4.79,16.68-6.54,25.15-1.47,4.28-1.09,8.37-.81,12.69-.42,6.44,1.22,12.08,4.88,17.3,2.84,7.24-3.32,13.7-7.07,19.06-2.61,9.87,3.4,18.33,5.37,27.61,4.4,12.57-11.77,14.29-15.24,23.32-2.02,7.72,2.53,14.97,2.72,22.46-.31,6.57-2.55,13.24-6.33,18.63-5.02,5.91-11.87,10.31-14.69,17.92-3.37,6.78-1.18,14.79-4.82,21.4-6.42,9.51-14.13,18.35-15.93,30,6.57-13.07,14.39-31.36,32.28-27.92,3.32,.36,6.63,1.94,10.01,1.6,5.58-1.12,11.3-1.89,15.58-5.69,9.35-11.57,19.46-23.68,34.91-26.22,7.38-5.32,10.39-14.5,16.74-20.88,3.72-5.52,10.45-6.71,15.61-10.28,5.49-3.76,8.12-10.21,13.25-14.35,6.64-6.2,9.42-14.88,10.92-23.57,2.15-11.16,5.52-22.12,7.28-33.35,.6-2.87,.61-5.86,.34-8.82-.27-4.2,6.46-4.64,6.61-.33,.76,10.42-2.54,20.72-4.87,30.79-3.18,10.77-3.2,23.04-9.7,32.48-5.49,7.42-11.81,14.37-18.13,21.09-4.06,3.9-9.85,4.96-14.2,8.31-10.12,10.05-14.21,26.44-30.54,27.64-10.6,4.92-16.69,14.96-24.48,23-5.49,4.49-12.87,5.88-19.73,6.85-7.64-.21-15.54-4.59-22.38,.97-2.14,1.57-3.87,3.61-5.23,5.87-11.35,19.74-20.46,40.52-26.58,62.48-5.16,19.59-14.62,39.07-13.26,59.59,1.97,4.27-4.08,8.01-6.16,3.13Zm10.4-56.1c3.74-12.01,7.59-24.01,11.77-35.88-5.88,5.9-7.97,13.31-9.79,20.99-1.46,5.03-2.62,9.76-1.99,14.89Z"/>
  <path d="M201,525.12c-5.76-1.23-1.51-9.46-2.24-13.54-1.46-22.86-4.1-45.98-.69-68.77,.48-4.48,.41-8.2,.11-12.44-.12-1.81,1.36-3.37,3.13-3.47,1.82-.09,3.34,1.34,3.46,3.15,.9,8.72-1,17.27-1.24,25.97-1.9,16.44,1.11,32.63,1.15,49.1,1.23,5.63,.39,11.32-.12,16.98-.15,1.79-1.78,3.17-3.56,3.01Z"/>
  <path d="M122.79,679.55c-16.4-2.97-8.3-47.96-8.84-60.53,.19-17.33,3.37-34.5,2.06-51.71-.26-1.77,.83-3.51,2.65-3.84,8.38-1.24,2.67,25.79,3.28,31.44-1,16.38-1.94,32.29-2.58,48.59-.18,9.88-1.15,19.88,3.21,29.06,5.32,1.69,10.66-3.14,15.99-3.81,16.18-1.71,29.47-11.81,42.69-20.49,15.99-10.58,33.19-19.85,44.91-35.4,1.22-1.31,3.34-1.39,4.66-.17,1.31,1.22,1.41,3.35,.17,4.68-5.18,5.88-10.37,11.78-16.51,16.7-13.91,10.13-28.84,18.98-43.18,28.57-9.64,6.14-19.81,11.38-31.32,12.55-5.8,1.2-11.13,5.15-17.21,4.34Z"/>
  <path d="M245.09,745.2c-1.41-1-1.91-3.2-.77-4.61,3.67-4.54,6.89-12.24,14-11.22,3,.26,5.48,2.28,8.45,2.72,5.19,.01,8.21-5.38,10.75-9.13,8.13-7.9,2.3-24.41,14.24-28.6,1.33-.42,1.31-2.49,1.33-3.39-.97-10.63,6.36-20.03,11.97-28.47,3.31-3.99,7.86-7.11,10.02-11.98,2.86-7.13,2.45-14.91,5.24-22.04,1.02-2.71,3.01-5.55,6.05-6.07,1.25-.18,2.54-.15,3.75-.58,6.33-3.62,10.88-9.71,16.55-14.06,2.07-1.55,4.91-2.79,5.76-5.42,2.69-7.18,6.38-14.14,12.01-19.45,2.98-2.94,6.47-5.24,8.72-8.68,2.9-6.37,4.96-13.28,10.72-17.83,6.81-6.28,15.9-10.49,21.52-17.92,1.39-5.35-.14-10.94,1.27-16.32,2.5-7.26,6.03-13.27,6.91-20.9,3.56-10.02-.76-20.14,3.63-28.92,3.21-5.27,8.17-9.22,11.97-13.98,.07-7.61-4.91-14.17-5.31-21.74-.36-8.13,7.72-13.48,10.32-20.78,1.3-2.62,1.97-6.13-.17-8.45-8.63-9.43,1.74-19.61,7.22-27.54,7.65-10.8,2.28-12.01-.67-22.57-2.84-14.12-4.02-24.82,8.66-34.22,2.22-3.35,4.59-7.14,4.59-11.14-5.06-11.79-2.73-25.69,7.52-33.78,2.02-7.31-2.35-14.26-4.78-20.9-4.61-13.25,13.7-20.94,12.71-34.24,.1-2.36-.44-4.06-1.98-5.71-14.97-11.11-6.18-16.12-4.96-30.33,.7-5.92-3.03-10.82-3.58-16.57-1.44-8.65,3.85-18.2-.98-26.18-1.91-2.2-4.77-2.64-7.07-4.28-10.16-5.34-2.33-18.58-8.91-26.12-5.56-8.27-14.11-12.4-22.67-16.71-16.14-7.2-7.24-26.19-8.46-39.55-5.01-25.34-25.16,5.76-36.59-7.47-5.97-5.53-10.62-12.28-17-17.37-3.71-4.11-6.84-8.88-12.32-10.79-12.35-5.66-27.5-5.23-39.31,1.42-4.06,2.56-5.84,7.25-9.71,10.08-3.26,2.8-7.5-2.31-4.23-5.07,2.47-1.92,4-4.47,5.9-6.86,12.11-11.31,31.33-12.24,46.46-7.09,7.2,2.33,13.02,7.03,17.35,13.1,2.39,2.54,5.42,4.39,7.56,7.19,4.97,4.38,9.68,15.54,17.37,11.12,4.34-1.89,8.61-4.09,13.23-5.22,12.25-1.85,19.48,11.65,17.98,22.41,.08,7.66-2.91,15.55-.74,23.08,3.61,6.05,11.57,7.62,17.22,11.25,6.05,3.66,11.1,9.11,14.9,15.05,2.45,4.09,2.9,8.95,2.82,13.62,.14,2.5-.75,5.83,1.63,7.54,20.93,9.52,9.93,21.73,12.61,38.71,2.34,5.72,3.95,11.61,2.91,17.83-.29,5.05-3.15,9.66-3.51,14.63,.63,4.46,6.34,6.08,8.39,9.87,4.94,7.94,1.27,18.31-3.54,25.46-2.89,5.22-10.38,10.39-6.55,16.86,14.59,31.87-6.13,21.76-5.69,43.93,.38,3.53,1.77,6.8,2.61,10.22,.57,3.01-.89,6.73-2.03,9.24-2.15,7.81-11.3,10.89-12.95,18.78-1.13,31.2,18.73,24.05-6.45,55.15-1.01,1.92-1.91,4.23-1.47,6.41,1.33,2.65,3.65,4.72,4.26,7.73,1.98,10.36-7.48,18.03-11.25,26.61-.02,7.61,5.16,14.22,5.3,21.9,.31,9.39-12.18,13-13.95,21.79,.66,11.7-.89,23.32-4.38,34.56-3.11,6.8-5.79,12.69-4.87,20.23,.7,17.79-23.26,20.83-29.87,35.03-2.39,11.9-13.85,17.23-19.79,26.9-3.07,4.63-3.52,9.71-7.1,13.81-2.39,2.36-5.59,3.76-7.92,6.23-6.24,5.13-11.53,13.23-20.28,13.5-4.24,7.02-3,16.14-6.22,23.61-2.77,7.26-9.97,11.42-13.92,17.85-2.64,5.5-7.24,10.72-7.84,16.87,.3,4.83,.15,10.74-4.96,13.04-1.06,.68-2.7,.74-3.21,2.04-2,5.11-2.01,10.75-3.79,15.94-3.14,6.92-7.45,13.99-13.76,18.46-2.77,1.89-6.19,2.36-9.43,1.65-2.89-.29-5.33-2.97-8.25-2.23,0,0,.01-.02,.01-.02-3.95,2.25-5.51,11.83-11.18,9.1Z"/>
  <path d="M197.27,795.43c-3.91,.11-8.17-1.93-11.4-3.53-8.12-3.39-16.31-6.94-21.66-14.12-1.43-2.08-2.27-4.51-3.52-6.69-1.43-1.6-2.74-3.71-1.8-5.89,2.65-4.22,8.01-5.64,11.91-8.46,5.45-6.09,10.73-13.16,14.6-20.34,10.38-19.96-6.95-66.89,26.18-66.06,24.88-2.86,20.58-24.75,19.41-43.07,.12-2.95,.51-6,1.81-8.69,1.67-3.47,5.68-4.49,8.64-6.5-.02,.02-.04,.05-.06,.08-.01,0-.02,.02-.12,.14,.04-.05,.08-.1,.13-.15,.02-.01,.04-.02,0,0,.53-.55,.72-1.96,.67-2.48-.21-6.77-4.48-12.67-7.14-18.52-6.56-13.54,.44-27.19,7.02-39.21,1.13-2.51,4.52-6.05,2.14-8.63-5.68-5.84-10.96-12.15-15.54-18.89-1.63-3.03-1.32-6.8-.81-10.08,1.26-6.57,2.31-13.86,7.21-18.82,13.45-12.2,30.65-20.77,41.16-35.97,5.85-10.45,9.02-21.45,14.81-31.77,4.79-8.84,17.24-9.62,20.28-19.97,1.81-3.33,7.08-8.94,10.51-4.85,.91,1.44,.55,3.68-1.02,4.56-4.65,2.19-5.03,8.16-8.77,11.4-3.43,4-8.35,5.89-12.47,8.72-6.84,7.46-8.89,18.29-13.52,26.86-6.48,16.38-21.93,27.25-35.73,37.29-4.75,3.04-9.02,6.12-12.24,10.53-2.61,5.48-4.01,11.87-3.93,17.84,3.04,6.21,8.86,11.93,13.28,17.03,1.63,1.62,3.45,3.3,3.98,5.64,.9,4.17-1.05,8.17-3.19,11.62-3.94,7.69-8.05,14.72-9.44,23.11-.1,11.35,9.14,19.68,9.96,30.8,.34,3.11-.46,6.74-2.96,8.82-2.25,2.21-6.36,2.32-7.35,5.45-1.99,10.41,1.86,21.18-.16,31.69-3.26,18.87-18.78,21.79-34.82,24.01-5.27,2.8-5.08,9.71-6.33,14.73-1.85,17.92,1.45,37.66-9.58,53.14-3.54,4.32-6.31,8.51-9.53,12.95-3.1,3.81-7.96,5.34-11.81,8.18,2.56,5.43,5.68,10.34,11.18,13.22,6.5,3.23,12.6,6.71,19.52,8.31,12.22,.24,19.09-12.44,30.77-14.54,5.02-1.26,9.57,1.51,13.49,4.31,4.73,2.65,9.98,4.53,15.11,6.14,0,0,0,.05,0,.05,4.12-.79,6.59-5.22,9.31-8.03,2.13-2.8,4.95-5.22,6.18-8.58,.32-6.37,2.08-13.15,2.35-19.39-.92-11.1,3.4-21.39,6.91-31.69,1.83-6.21,1.45-12.84,3.94-18.88,1.41-3.98,7.73-1.73,6.19,2.3-1.62,4.03-1.91,8.25-2.46,12.47-1.43,8.73-5.77,17.17-7.6,25.68-.77,4.89-.11,9.59-.65,14.47-.67,5.07-1.87,9.96-1.96,15.07-2.32,8.68-9.94,15.63-16.51,21.43-5.89,4.15-12.47-.65-18.34-2.43-5.69-1.52-10.35-8.73-16.6-5.84-10.49,3.94-17.86,14.93-30.05,14.03,0,0,.43,0,.43,0Z"/>
  <path d="M197.41,675.26c-.57-1.79,.46-3.51,2.15-4.15,10.32-2.34,16.66-11.44,20.18-20.69,1.59-8.46,2.65-17.19,2.63-25.82-.08-8.85,2.27-13.8,3.77-21.69,.9-9.17-4.23-17.96-5.16-26.59-2.77-18.07,.82-36.36,10.46-51.88,3.57-9.1,14.64-11.51,18.76-20.34,5.03-8.76,8.91-18.57,11.97-28.1,3.42-11.51,5.8-24.44,15.88-32.13,11.11-13.02,26.17-21.79,36.97-34.95,7.26-10.64,13.31-21.52,20.31-32.17,1.38-4.73,8.92-14.69,13.49-9.62,.93,1.46,.55,3.66-1.01,4.56-5.58,2.32-6.06,8.53-9.29,12.87-7.93,9.77-12.29,21.96-20.71,31.22-7.39,7.22-14.16,14.76-22.64,20.4-5.77,4.05-9.7,10.19-14.97,14.72-5.96,5.24-7.65,13.77-9.99,20.82-3.51,12.82-8.19,25.64-15.14,37.02-5.17,9.72-15.99,11.38-19.44,22.14-8.27,13.03-10.08,28.86-8.19,43.93,1.45,10.53,7.14,20.41,4.97,31.31-6.77,18.19,.15,39.66-11.41,56.25-3.44,6.04-8.56,11.47-15.4,13.49-2.69,1.09-6.76,3.3-8.19-.58Z"/>
  <path d="M540.47,639.56c-4.03-2.1-6.37-6.84-8.17-10.6-3.66-5.95-6.72-12.22-9.63-18.55-8.7-9.69-20.85-18.39-23.54-31.95-1.41-4.89-1.67-9.4-3.66-13.77-2.85-4.16-6.44-8.2-10.66-10.83-7.74-4.7-17.04-5.92-23.53-12.38-4.1-4.77-3.6-11.52-5.53-17.18-2.33-5.2-5.11-9.78-8.69-13.76-7.25-5.18-15.84-8.11-23.33-12.88-2.4-1.64-7.2-1.6-6.42-5.6,2.11-5.69,9.07-.37,12.36,1.55,3.42,1.88,7.07,3.3,10.42,5.32,10.29,3.95,17.28,12.17,21.48,22.17,2.9,5.65,.92,14.22,6.95,17.91,18.42,8.08,34.2,13.98,36.68,36.59,2.4,12.66,13.11,20.74,21.7,29.36,3.06,3.93,4.59,9.61,7.03,13.69,3.34,4.7,4.98,11.21,9.37,14.93,5.23-2.09,4.83-14.54,2.84-18.88-2.92-9.38-9.6-15.21-16.79-21.18-10.08-16.41,4.37-36.2-2.2-53.62-2-4.69-5.46-9.22-10.14-11.44-3.81-1.57-7.98-2.29-11.55-4.46-17.66-11.81-7.33-35.43-12.95-52.22-2.22-4.74-5.97-8.86-10.75-10.91-4.18-1.14-8.7-1.36-12.69-3.3-6.01-2.85-8.38-9.68-11.08-15.27-3.91-7.93-8.68-15.51-11.44-23.94-1.83-5.7-3.42-10.73-3.15-16.62,.36-4.04,1.73-8.03,2.17-11.99,.47-4.19,6.9-3.84,6.59,.55-.17,.99-.28,1.87-.43,2.79-3.82,11.48,.09,23.17,5.57,33.44,4.66,7.89,7.35,17.27,13.31,24.22,4.81,3.37,11.38,2.18,16.38,5.29,3.84,2.27,7,5.69,9.56,9.31,11.02,15.8-4.08,41.25,13.16,53.46,23.75,5.63,28.95,24.79,24.24,46.57-.75,7.87-3.76,16.9,.65,24.13,12.35,8.83,22.45,23.95,18.73,39.68-.7,6-6.25,13.26-12.88,10.39Z"/>
  <path d="M390.52,563.58c-2.61-3.54,2.29-6.05,4.35-8.33,4.07-4.01,9.75-5.13,14.21-8.26,8.68-3.85,17.22-9.72,27.06-9.29,9.04-1.08,18.26-2.37,26.49,2.66,2.51,2.59,8.85,2.25,8.15,6.83-.38,1.72-2.18,2.92-3.94,2.49-6.76-2.04-12.63-7.71-20.17-6.52-5.29,1.16-10.7,.77-15.99,1.56-10.13,3.2-19.32,9.01-28.84,13.43-3.74,1.55-6.93,9.48-11.31,5.41Z"/>
  <path d="M560.24,790.8c-5.58-1.22-1.86-8.53-1.66-12.34,.84-8.89,2.7-17.85,1.76-26.77-2.66-27.19-6.18-53.99-13.44-80.37-1.95-9.74-1.31-20.04-5.73-29.19-1.82-3.83,4.22-6.72,5.99-2.8,3.73,8.01,4.6,16.56,5.33,25.18,4.44,23.45,11.48,46.23,12.46,70.2,1.99,13.28,3.07,26.5,.81,39.84-.37,3.82-1.16,7.51-1.75,11.11,.05,2.41-.76,5.42-3.75,5.15Z"/>
  <path d="M7.13,775.96c1.24-19.36-1.76-39.09,3.27-58.19,1.29-3.33,.18-10.38,5.42-9.74,4.93,1.64,1.23,7.91,.96,11.49-3.79,15.75-3.03,31.79-2.48,47.77,.05,2.8-.6,5.55-.58,8.33,.21,1.79-1.41,3.39-3.13,3.47-1.85,.09-3.28-1.35-3.46-3.13Z"/>
  <path d="M135.77,586.01c-4.99-2.42-.33-9.22,.34-13,2.77-6.73,3.71-13.2,5.7-20.05-2.42,1.55-6.77,3.36-8.1-.37-.53-1.69,.41-3.65,2.13-4.16,5.02-1.26,7.52-6.73,12.26-8.22,8.61-10.33,17.32-20.84,24.62-32.09,1.99-3.77,7.9-.66,5.83,3.1-4.52,7.89-10.89,14.32-15.79,21.91-5.08,6.31-11.47,11.71-13.43,19.89-1.78,10.31-2.42,21.28-8.65,30.11-.82,1.86-2.64,3.74-4.9,2.87Z"/>
  <path d="M206.29,235.28c.65-.36,1.29-.76,1.94-1.12-.79,.46-1.57,.93-2.32,1.43,.12-.1,.26-.21,.38-.31Z"/>
  <path d="M289.69,255.72c-8.51-.55-17.3-8.92-10.81-17.13-4.94,.25-10.2,.56-14.42,3.39-2.77,2.71-11.65,8.06-13.95,2.79-.53-1.65,.4-3.68,2.13-4.15,5.46-.58,8.52-5.53,13.73-6.79,12.62-3.71,26.23-1.98,38.31,2.84,2.22,.74,4.57,1.55,6.16,3.39,2.26,2.38-.17,6.51-3.35,5.61-2.24-.71-4.29-1.99-6.43-2.99,3.1,7.22-4.22,13.96-11.36,13.05Zm.95-6.56c3.41,.22,6.41-3.17,2.89-5.61-.97-.76-3.06-1.98-3.82-.41,1.63,.61,2.41,2.61,1.83,4.2-.31,.82-.89,1.42-1.6,1.77,.24,.02,.48,.04,.71,.05Z"/>
  <path d="M180.16,236.75c-3.96-2.39-6.03-7.52-3.45-11.66-7.05-1.13-13.61,2.49-20.63,1.62-4.27-.28-3.7-6.93,.55-6.59,1.89,0,4.05,.22,5.83-.16,8.34-2.27,17.75-2.17,26.01-.52,3.59,2.03,5.96,6.2,7.29,9.99,1.24,8.11-9.9,11.62-15.6,7.31Zm5.86-4.75c-.38-1.21-.03-2.57,.92-3.45-2.14-2.94-3.65-2.73-4.8,.73,.55,1.54,2.28,2.52,3.87,2.72,0,0,0,0,.01,0Z"/>
  <path d="M190.28,231.34c-2.79-2.12-5.45-4.44-8.5-6.19-1.51-.96-1.77-3.2-.77-4.61,4.08-4.36,10.1,3.91,13.76,5.95,3.17,2.86-1.36,7.78-4.49,4.85Z"/>
  <path d="M236.39,225.37c-.62-1.55-1.52-2.97-2.62-4.23,.02-.08,.05-.16,.08-.24-3.9-7.69,21.76-13.83,27.21-13.95,9.56-2.37,19.23-3.97,29.09-2.15,4.73,1.5,9.84,3.65,13.55,6.97,5.13,6.86-3.1,11.92-9.62,9.93-17.2-1.72-40.94-10.94-54.75,2.67-.65,.7-1.55,1.06-2.45,1.06-.17,0-.34-.01-.51-.04Zm54.94-10.91c1.14,.22,2.27,.46,3.41,.65,1.05,.15,2.1,.24,3.17,.28-1.48-.84-3.13-1.31-4.58-2.17-.57,.57-1.26,.95-2,1.24Z"/>
  <path d="M193.11,210.73c-11.66-6.09-24.56-5.56-37.14-7.81-8.43-.3-7.27-10.25-1.05-13.12,4.97-2.37,11.1-.34,15.74,1.27,10.62,2.84,21.71,6.98,30.33,13.92,3.22,2.21,.23,7.35-3.27,5.7-1.32,1.08-3.18,.78-4.61,.04Zm-32.14-13.73c1.61-.43,3.21-.53,4.88-.5,.07,0,.14,0,.21,0-2.91-.81-6.58-2.33-9.04-.1,1.32,.18,2.63,.39,3.95,.59Z"/>
  <path d="M183.99,351.11c.28,.01,.55,.02,.83,.02,.89,.34,1.82,.64,2.75,.86,.46,.6,.95,1.17,1.48,1.71-1.78-.73-3.48-1.59-5.06-2.6Z"/>
  <path d="M211.61,340.04c-6.52-1.49-45.87,.18-42.71-9.1,1.94-4.4,6.39-.49,9.63-.3,19.19,2.85,38.27,2.44,57.49,2.23,6.27-.75,12.55,.49,18.65,.05,6.05-.21,11.42-1.01,17.35-1.48,4.13-.53,15.24-5.66,16.71,0,.33,1.72-.88,3.58-2.65,3.85-5.11,.56-9.99,2.03-15.02,2.98-19.78,2.24-39.6,.33-59.45,1.77Z"/>
  <path d="M189.81,370.75c-5.88-6.91-9.78-17.46-8.07-26.51,.35-4.26,6.99-3.7,6.57,.55-1.5,6.83,1.8,16.22,6.28,21.34,9.3-3.58,23.41-1.83,33.81-4.81,6.64-3.42,14.65-3.61,19.93-7.44,5.33-3.33,10.58-5.97,14.19-11.11,3.37-3.06,7.02-5.79,9.19-9.92,2.42-3.49,7.89,.33,5.38,3.84-2.26,4.21-5.81,7.3-9.44,10.31-4.86,6.69-12.3,10.12-18.99,14.62-11.47,3.11-22.84,8.91-35,8.06-4.98,1.6-10.31,.42-15.21,2.06-2.86,1.49-6.28,1.43-8.64-.99Z"/>
  <path d="M182.4,344.99c-.69-3.21-1.56-9.46,3.53-8.76,3.55,.82,2.22,4.92,2.98,7.57,.79,4.2-5.78,5.4-6.5,1.19Z"/>
  <path d="M412.22,448.19c-.09-1.74,1.34-3.47,3.13-3.47s3.37,1.27,3.47,3.13c.09,1.74-1.34,3.47-3.13,3.47s-3.37-1.27-3.47-3.13Z"/>
  <path d="M208.19,306.4c-13.13,.17-18.23-8.41-16.63-20.62,.21-4.95,4.38-7.83,6.87-11.59,8.54-11.85,9.49-26.77,10.1-40.83,.76-3.61-2.65-9.72,2.24-11.08,6.88-.53,3.9,14.12,3.9,18.49-.6,9.26-1.59,18.48-5.23,27.14-2.12,4.79-4.92,9.45-8.21,13.52-3,2.07-3.54,6.07-3.22,9.27-.55,6.99,4.56,9.26,10.7,9.12,4.26,.3,3.73,6.95-.53,6.59Z"/>
  <path d="M295.15,347.76c-1.84-.15-3.11-1.77-3.03-3.56-.92-8.31-3.88-17.58-9.44-23.95-1.09-.92-2.51-1.66-3.86-.81-1.67,.65-3.63-.52-4.15-2.15-.82-7.07,10.03-5.29,12.99-1.44,4.19,3.21,17.33,31.82,7.48,31.91Z"/>
  <path d="M396.03,432.59c-.09-1.74,1.34-3.47,3.13-3.47s3.37,1.27,3.47,3.13c.09,1.74-1.34,3.47-3.13,3.47s-3.37-1.27-3.47-3.13Z"/>
  <path d="M389.33,436.27c-.09-1.74,1.34-3.47,3.13-3.47s3.37,1.27,3.47,3.13c.09,1.74-1.34,3.47-3.13,3.47s-3.37-1.27-3.47-3.13Z"/>
  <path d="M185.83,239.63c-6.92-.74-10.42-10.07-5-14.8-6.4-1.56-12.68-.03-19.1,.36-3.16,.63-8.09,4.11-9.86-.32-1.9-7.22,18.64-6.82,23.39-7.45,8.27,.98,21.73,2,24.8,11.23,1.34,7.36-7.67,12.89-14.24,10.97Zm-1.05-8.43c.17-.61,.52-1.17,.99-1.59,0,0,0,0,0,0-.1-.01-.19-.02-.29-.03-.45,.4-.88,.99-.69,1.62Z"/>
  <path d="M286.92,251.89c-4.82-3.63-1.39-10.76,3.52-12.39,4.15-1.29,11.81-2.08,14.31,2.21,4.4,3.99,.58,8.17-3.96,9.4-4.33,1.66-9.72,4.14-13.87,.78Z"/>
  <path d="M232.19,302.17c-2.49-.17-4.15-2.2-6.38-2.95-3.68-.9-9.08,4.21-11.15-.78-1.58-5.6,10.7-6.7,14.16-5.19,2.52,1.34,4.92,3.39,7.96,2.49,4.05-1.37,6.1,5.02,2.01,6.28-2.12,.72-4.44,.53-6.61,.15Z"/>
  <path d="M300.95,548.35c-13.27-18.24-.91-50.24,8.33-68.31,3.86-11.86,8.88-23.72,17.37-33.04,12.73-14.24,22.49-5.38,22.97,11.04,3.44-6.38,7.55-13.12,8.36-20.4-.07-1.81,1.26-3.41,3.08-3.51,10.11,1.11-4.4,24.57-6.99,29.34,4.85,.86,4.32,6.5,2.13,9.74-3.57,6.31-6.56,12.93-9.48,19.53-8.35,17.03-16.98,75.05-45.75,55.61Zm17.52-6.3c.81-.85,1.58-1.72,2.3-2.65,.49-.66,.96-1.32,1.41-2-.16-.27-.29-.56-.4-.86-.95,1.93-2.03,3.81-3.32,5.51Zm-9.87-.46c.99-.21,1.73-.63,2.25-1.05,1.3-1,2.28-2.35,3.18-3.7-2.18,.64-4.62,.49-6.58-.69,.1,1.38-.6,5.84,1.56,5.33-.14,.03-.28,.09-.41,.12Zm2.71-10.99c6.05-1.43,9.55-7.21,11-12.89,3.39-10.41,7.55-20.54,11.04-30.92-7.28,8.61-30,32.82-22.04,43.8Zm-9.07-7.91c-.07,1.05-.11,2.09-.13,3.14,1.04-3.63,.99-7.35,1.21-11.09-.52,2.62-.92,5.29-1.07,7.95Zm8.49-17.54c5.01-8.28,11.23-15.7,17.75-22.81,4.66-6.1,12.06-11.08,11.72-19.47-19.08,4.27-28.94,24.07-29.47,42.28Zm12.64-41.99c-.21,.37-.41,.76-.61,1.14,5.69-3.98,12.79-9.36,20.09-7.59-.91-3.2-.43-11.35-5.5-9.97,.14-.03,.28-.07,.41-.1-.16,.05-.32,.11-.48,.16-.41,.18-.8,.37-.81,.39-5.81,3.92-9.73,9.97-13.11,15.96Z"/>
  <path d="M303.99,622.98c-40.6-3.35-55.14-32.82-63.05-68.46-4.9-22.03,5.85-43.77,14.16-63.64,8.67-16.87,20.15-31.8,33.27-45.02,4.63-4.42,10-7.8,15.51-10.94,9.56-10.95,16.85-20.51,23.15-31.23,23.61-64.54,118.58-38.42,105.98,28.74-8.35,31.07-30.45,56.38-51.2,80.16,12.32,51-19.45,114.57-77.81,110.4Z"/>
  <path d="M377.5,428.55c-28.96-7.21-15.11-38.23-12.3-58.35,5.1-26.78,10.15-53.79,14.86-80.91,3.76-20.07-1.97-40.12-4.76-59.99-1.21-7.03,.75-14.02,4.96-19.21,.65-20.62-4.7-55.81,16.8-66.95,19.77-8.92,36.25,9.38,34.78,28.76,.66,17.59-1.13,34.58,2.66,51.66-.73,16.51-3.74,33.04-3.51,49.54-1.02,16.47,8.72,36.36-4.32,49.79-.09,26.82-13.75,50.78-16.6,77.04-.03,0-.06-.02-.09-.02-4.31,14.96-14.1,32.55-32.49,28.65Z"/>
  <path d="M105.79,191.69c2.31-20.54,9.59-40.53,21.9-57.27,8.26-13.8,16.66-28.15,28.24-39.46,8.97-14.12,17.56-32.05,35.16-36.9,13.16-19.45,22.64-29.37,47.88-30.16,23.08-34.74,79.52-20.33,70.33,23.99,8.2,8.57,6.83,20.75,8.47,31.56,5.53,11.38,.88,25.48-10.58,31.06-11.26,5.52-25.56,.7-30.95-10.71-16.4,1.06-29.28-15.28-26.61-31.02-2.62,.61-5.29,1.03-8.07,1.36-1.9,.23-3.79,.41-5.68,.62-3.99,6.61-7.55,13.13-13.91,18.01-5.09,5.36-13.35,6.2-17.71,11.9-3.52,4.19-5.25,9.38-8.06,14.03-3.61,6.33-10.24,10.21-14.19,16.3-11.9,18.97-25.88,36.61-30.48,58.99-3.62,26.61-44.74,24.47-45.74-2.29Z"/>
  <path d="M197.97,770.41c-17.58-13.52-7.45-28.13-1.35-44.15-.41-18.54,5.65-48.16,29.46-46.15,1.19-9.05,3.79-18.74,9.41-26.38,2.5-11.76,7.54-22.91,13.12-33.5,6.82-16.52,13.22-38.99,31.44-45.86,3.5-5.84,9.77-9.64,16.47-10.66,21.3-32.49,41.77-26.08,71.4-40.39,4.39-4.92,9.63-8.95,14.36-13.51,2.2-4.25,4.95-8.54,9.19-11.1,1.66-6.58,3.37-13.15,5.69-19.5,1.99-5.44,4.78-11.33,8.46-16.48-.04-1.55,.07-3.14,.38-4.79-8.8-13.28-13.01-28.76-15.96-44.27-13.62,11.5-34.52,4.83-41.71-10.74-10.71-22.38,1.8-50.34,8.64-71.53,5.63-24.41,6.56-49.74,9-74.65,.92-19.78-5.5-38.58-9.06-57.77-18.38-20.48-31.74-45.08-51.65-64.44-8.46-10.29-21.45-16.08-28.35-27.73-6.05-11.21-.07-26.33,11.32-31.39,1.7-2.51,3.76-4.64,6.09-6.32-6.86-23.05,22.97-40.58,39.46-22.76,4.23-1.74,8.96-2.32,13.52-1.41,5.45,1.09,9.42,3.88,12.88,7.43,26.39-18.73,40.28,15.39,48.92,35.01,3.46,1.29,6.67,3.43,9.31,6.44,2.74,3.13,5.09,6.57,7.17,10.2,9.66,1.87,16.59,10.84,19.48,19.42,4.77,10.28,11.68,24.55,13.68,35.04,6.09,23.66,4.99,49.81,1.69,74.07-.63,24.26-6.04,48.69-19.08,69.3-.04,20.67-2.26,41.23-2.97,61.86,.43,15.33,4.62,31.73-1.78,46.39,2.04,16.23,13.56,28.59,17.08,44.34,14.42,12.26,26.01,27.29,40.22,39.82,9.38,9.1,16.68,19.8,24.21,30.38,4.01,4.89,6.79,9.98,7.44,16.43,1.41,12.82-9.44,23.41-21.55,24.58-23.44,1.26-51.54-39.09-67.68-55.36-4.15,15.1-8.49,36.02-27.31,37.81-7.55,6.09-13.38,13.83-22.38,18.13-10.39,4.04-20.8,7.98-31.5,11.27-9.45,.47-16.81,5.38-21.38,13.7-8.81,18.34-21.71,34.56-26.29,54.57-8.12,19.45-14.44,39.85-27.88,56.52-1.67,5.63-4.67,11-8.88,14.9-9.42,18.11-17.74,40.79-38.68,48.04-10.13,7.06-22.43,13.76-34.04,5.19Z"/>
  <path d="M71.06,575.3c-13.51-12.08-6.78-29.99,5.07-40.34,7.78-23.82,25.31-42.99,33.69-66.39-1.66-11.76-1.65-23.71-3.48-35.43-4.35-14.97-11.14-29.62-11.34-45.44-4.36-26.15,16.13-53.18,41.88-33.92,15.83,16.07,16.79,40.01,18.86,61.21,5.31,1.5,9.98,4.9,13.04,9.54,.91,1.39,1.64,2.82,2.2,4.3,61.77-6.97,6.3,120.23-34.67,100.54-13.17,19.25-37.04,68.86-65.23,45.94Z"/>
  <path d="M95.47,311.36c-2.43-1.12-3.1-4.27-3.7-6.62-1.42-4.84-1.41-9.83-.56-14.79-.65-12.18,1.55-24.41,1.85-36.61,1.15-6.03,4.4-11.36,7.12-16.79,.91-2.53,2.07-5.94-.13-8.06-5.4-5.8-9.89-15.57-2.6-21.76,2.59-2.69,7.2-4.74,7.46-8.93-1.57-2.9-5.24-4.5-6.1-8-2.28-7.23,1.33-15.43,6.23-20.78,4.33-6.04,13.14-6.94,16.67-13.47-.3-3.52-2.52-6.65-2.57-10.27-.47-6.16,2.56-11.83,5.25-17.15,1.82-3.53,4.27-6.83,8-8.43,3.38-1.75,7.97-1.05,10.54-4.21,3.56-10,1.66-21.94,9.17-30.4,5.23-4.59,10.18-10.08,16.74-12.75,3.92-1.5,7.7-.67,11.18-1.82,4.19-3.19,3.98-8.88,5.73-13.37,1.34-3.49,3.84-6.27,6.66-8.63,4.02-5.08,8.66-9.73,15.22-11.2,5.56-1.54,9.79-4.35,15.6-3.53,4.71-.2,8.72-3.36,13.5-3.73,3.12-2.58,4.74-7.17,8.11-9.86,7.11-8.6,18.34-11.47,29.01-11.24,5.21-1.49,10.64-1.33,15.51,1.32,7.64,3.25,2.94,13.59-3.68,8.19-3.89-3.07-8.56-.92-12.95-.57-4.22-.12-9.13,.32-12.89,2.08-7.49,2.76-11.52,10.01-16.07,15.94-2.48,2.61-6.15,2.86-9.43,3.7-2.55,.83-4.83,2.24-7.51,2.68-3.15,.7-6.73-.46-9.68,1-4.54,2.23-10.21,2.41-13.9,6.17-2.57,3.57-6.01,6.09-8.57,9.48-2.19,4.03-1.85,8.94-4.47,12.84-3.02,6.59-9.73,8.4-16.36,8.43-6.33,1.21-10.63,7.17-15.44,11.08-3.32,4.75-3.85,10.51-4.75,15.96,.02-.1,.02-.13,.03-.22-.3,11.08-4.88,18.98-16.54,20.27-1.97,.41-3.42,2.13-4.31,3.76-2.29,4.68-5.82,9.76-4.62,15.19,1.72,4.77,3.9,10.25,.52,14.87-3.08,5.57-9.49,7.77-14.26,11.07-4.2,3.35-7.9,8.75-7.47,14.22,2.24,3.81,7.24,6.32,6.77,11.54,1.44-.88,3.12-1.25,4.79-.66,2.02,.7,3.16,2.58,3.49,4.58,.21,.04,.41,.1,.62,.17,1.34,.47,2.26,1.37,2.8,2.51,.9-.19,1.89-.16,2.74,.14,.19,.07,.39,.15,.58,.24,.34-3.89,5.6-5.64,7.95-2.45,4.6-.17,5.26,5.05,4.59,8.57,1.96,5.13-1.7,11.06-2.94,16.14-3.23,9.94-9.77,17.73-16.7,24.86-2.92,5.47-5.08,11.37-8.34,16.63-2.62,4.03-6.83,7.07-8.58,11.63-1.83,3.14-1.6,7.67-4.6,9.95,0,5.89,6.85,23.78-4.65,21.1Z"/>
  <path d="M126.6,369.03c-2.27-1.36-3.97-3.66-5.42-5.83-.53-.8-1.01-1.63-1.46-2.48-.67,4.79-5.13,9.39-10.06,6.54-11.63,6.79-13.51-15.75-14.73-22.91-1.47-8.72,5.27-25.92,16.25-19.99,.27-1.3,.92-2.62,1.93-3.49-1.28-5.45-.32-10.95-.71-16.45-1.12-5.19,.68-10.34,1.4-15.48,1.37-4.01,2.06-12.05,7.47-12.01,2.22,.15,3.9,1.93,4.11,4.11-.04,7.13-1.44,14.25-2.27,21.29,2.8,7.61,4.54,15.54,5.65,23.56,6.73,9.1,7.03,21.62,10.68,32.13,1.62,3.37,1.86,8.86-3,9.27-.4,.85-1.06,1.55-1.99,2-.93,.46-2.01,.55-3,.31-1.6,.6-3.36,.31-4.84-.56Z"/>
  <path d="M97.19,522.08c-11.17-2.1-22.29-12.04-20.04-24.32,.48-7.61,5.7-17.26,14.48-16,.97-.36,2.01-.54,3.09-.49,.68,.03,1.34,.1,1.98,.24-3.51-6.3-8.41-14.49-4.72-21.67-3.18-8.54-8.43-23.01,1.71-28.56-.58-3.37-.42-7.17-.81-10.41-3.4-5.34-6.78-11.23-7.23-17.76-.52-4.11,.64-8.06,2.57-11.63,1.43-4.92,4.32-8.88,8.45-11.86,0,0,0,0,0,0-.75-8.16-7.56-14.42-7.29-22.89,.8-9.35,3.03-18.82,7.43-27.14,3.24-5.76,8.92-7.03,13.87-10.46,3.08-14.08-3.51-27.91-3.3-42.02,.04-4.69-2.4-12.47,3.53-14.4,.43-3.01,.14-6.5,2.12-8.99-.23-3.97,3.94-7.84,7.68-5.32,2.8,1.86,2.16,5.59,1.64,8.46,2.6,8.11,.99,16.73,.27,25.02-.18,1.31-.93,2.54-2.06,3.24-.14,.33-.31,.66-.52,.98-.14,.21-.31,.42-.49,.6,2.38,7.11,2.25,14.64,1.97,22.02-.03,1.04-.49,1.99-1.2,2.72,.04,1.64,0,3.3-.18,4.94-.1,.92-.24,1.82-.42,2.71,1.16,8.57-8.72,20.01-17.51,19.87-1.9,6.71-4.94,14-3.48,21.01,2.17,7.78,9.25,15.13,5.87,23.56-1.73,3.77-6.62,4.97-7.47,9.35,.14,.1,.27,.2,.4,.32,.95,.84,1.51,2.05,1.95,3.25,9.62,11.9,9.92,31.31,14.79,45.77,1.26,5.5,2.67,10.8,4.39,16.13,.31,1.52,.21,3.37-.88,4.55-.15,5.35,4.61,16.91-2.87,18.52-.24,1.59-.83,3.06-2.25,4.11-.33,.25-.69,.44-1.07,.58-.02,.02-.03,.05-.05,.07-.03,.05-.07,.09-.1,.14,.93,6.21,1.88,13.22-1.67,18.8,.06,3.15-.03,6.75-2.33,9.16,.4,5.66-5.09,9.04-10.24,7.83Z"/>
  <path d="M53.62,590.8c-4.02-2.12-2.01-6.8,.15-9.53-.74-1.55-.5-3.25,.06-4.83,3.71-10.15,8.41-19.35,11.73-29.4,.76-2.27,3.37-3.47,5.61-2.68,5.06,1.97,2.05,7.52,.74,11.09,9.17,3.13-1.48,12.39-3.22,17.61-2.94,5.74-6.19,11.44-9.79,16.77-1.21,1.52-3.59,1.85-5.28,.98Z"/>
  <path d="M18.19,674.07c-9.94-1.22,.52-28.64,2.39-34.89,2.74-4.24,2.24-12.81,8.56-12.48,.38-.47,.79-.92,1.23-1.35,.81-.77,1.66-1.36,2.58-1.91-.05-7.4-1.98-15.13,1.72-22.09,2.18-6.73,11.34-31,20.77-24.49,5.55-2.33,7.02-9.25,10.59-13.82,2.09-3.8,4.59-11.97,10.2-7.85,8.06,.34,4.69,9.41,1.08,13.19,3.7,6.93-8.45,14.16-13.02,17.76-.85,1.5-1.89,2.99-3.62,3.48-1.43,.4-2.82,.18-3.92-.58-.37,.52-.73,1.03-1.09,1.56-.37,.55-.74,1.1-1.11,1.64-.52,5.46-4.46,9.88-6.43,14.87-2.36,4.64-2.67,10.73-6.3,14.55,.36,4.28-1.34,8.15-5.32,9.98-4.84,6.06-7.09,13.85-10.86,20.44-1,3.86-1.88,7.94-2.61,11.82-.29,4.17,.91,10.19-4.85,10.16Z"/>
  <path d="M128.78,586.64c-5.12-4.61-2.96-11.32-2-17.14,1.04-4.82,.13-9.9,.21-14.86-.67,.41-1.39,.7-2.19,.77-1.77,2.33-3.1,5.6-6.01,6.67-3.7,1.21-6.98-2.63-5.52-6.19,4.08-7.25,8.45-14.55,14.27-20.54-.07-3.41,4.26-8.05,7.87-7.1,.48-.24,.99-.42,1.54-.52,1.17-1.05,2.43-1.98,3.79-2.8,6.23-17.76,13.93-35.46,25.91-50.13,9.44-11.42,16.13-24.12,25.1-35.77-15.77,.89-35.78-2.11-40.45-19.97-1.74-4.54-1.76-13.79,5.52-11.22,3.49,2.27,6.09,5.76,9.39,8.31,7.78,4.95,15.1,9.75,23.19,13.94,2.39-.14,4.75,.03,7.12-.25,4.04-.24,5.84,4.73,5.25,8.12-4.67,11.3-13.92,20.19-19.59,31.05-10.84,13.37-20.38,26.78-27.03,42.54-.36,.9-.85,2.1-.25,1.91,1.93-3.74,7.08-5.08,9.14-.76,6.53-7.48,13.39-14.57,18.96-22.48,1.74-3.06,2.89-8.38,7.59-6.78,11.52,3.85-16.26,33.68-21.52,37.26-8.81,4.76-13.16,14.51-18.87,22.36-5.96,10.66-3.63,23.89-10.94,34.19-.2,6.25-2.96,15.52-10.49,9.4Z"/>
  <path d="M189.91,491.36c-3.79-.2-5.05-4.22-4.85-7.46-6.04-4.88-1.41-12.82-.16-18.82-6.54-4.13-9.09-11.86-14.21-17.37-5.54-4.35-9.85-10.14-11.81-16.98-1.36-3.61,.37-7.64-1.61-11.05-2.5-5.1-13.99-11.48-6.2-17.06,6.42-2.61,9.79,6.64,12.88,10.75,7.15,9.17,17.25,15.29,26.12,22.6,13.22,9.46,4.92-5.46,14.45-4.76,7.75,2.3,.88,15.03-4.59,16.46-6.79,1.76-13.46-3.21-18.41-7.35-4.47-2.6-9-7.62-13.28-9.66,1.51,4.18,4.56,7.39,7.95,10.13,4.92,4.49,7.33,11.07,11.99,15.73,7.88,4.17,5.36,12.1,2.9,18.84,8.42-.42,6.17,16.44-1.17,16Z"/>
  <path d="M361.76,211.15c-10.28-.99-19.57-10.04-19.54-20.56-.88-2.05-.24-4.51,1.21-6.14-1.05,.08-2.03-.17-2.93-.61-6.61,1.13-15.45-3.58-16.58-10.52-.5-.53-.92-1.15-1.2-1.88-.36-.94-.47-1.87-.37-2.8-1.37-1.62-1.79-3.52-1.16-5.59,.1-.33,.23-.65,.38-.96-1.03-.69-2.03-1.44-2.96-2.26-7.6,.2-28.82-14.23-26.96-22.76-.14-.22-.28-.43-.41-.65-.95-1.5-1.73-3.24-1.95-5.02-5.35-2.09-8.74-6.88-12.89-10.61-1.28-1.33-2.35-3.13-2.15-5.04-.84-.71-1.61-1.5-2.09-2.45-.15-.29-.28-.6-.39-.91-3.84-3.04-7.6-6.31-10.5-10.28-1.38-.29-2.69-.77-4.02-1.23-2.47,5.73-9.82,4.35-13.91,1.26-4.9,2.1-10.3,.14-14.88-1.92-6.74-2.94-12.38-8.38-14.79-15.33-1.11-1.13-2.07-2.44-2.41-4.01-.1-.47-.13-.94-.1-1.4-2.29-3.06-.62-7.66,2.88-8.94,.12-1.84,1.19-3.44,2.76-4.52,1.12-.76,2.43-1.11,3.77-1.23,.69-5.96,7.56-4.2,11.01-1.73,1.23-1.33,3.27-1.57,4.96-1.07,7.35-7.49,12.6,6.59,15.69,11.72,2.33,1.77,4.61,3.61,7.11,5.16,2.72,1.2,5.73,3.63,4.34,6.97,10.99,9.62,28.05,14.26,31.84,30.03,3.48,1.8,6.49,4.44,9.01,7.46,7.83,1.64,13.51,8.53,17.17,15.27,8.05,5.16,12.33,14.15,15.16,22.95,3.06,2.35,5.73,5.36,6.81,9.14,2.32,2.03,5.81,2.58,7.98,4.99,3.18,3.01,4.96,7.13,7.03,10.93,1.98,1.93,4.26,4.25,3.66,7.13,4.76,5.41,11.54,16.74-.59,17.41Z"/>
  <path d="M456.21,239.56c-1.1-1.53-1.17-3.7-.38-5.38,.65-1.4,1.68-2.34,2.8-3.21-2.41-3.38-2.34-9.74,3.03-9.59,.43-.36,.94-.62,1.47-.79-1.94-2.12-5.5-1.98-7.76-3.94-7.43-5.68-8.45-16.2-7.79-24.89-4.37-20.36-8.16-29.71,4.75-47.98-8.86-3.22-8.52-14-11.87-21.23-4.1-8.12-10.23-15.09-17.83-19.76-5.1-2.57-11.92-2.78-14.8-8.51-7.99,1.44-4.98-8.1-5.31-12.73-6.01-.52-8.16-7.91-9.62-12.82-3.87,1.89-7.66-.99-10.48-3.47-2.83-1.82-4.43-4.67-5.55-7.78-.47,.12-.94,.16-1.41,.13,1.91,3.11-.54,7.84-4.41,7.11-2.28-.45-3.98-2.1-5.5-3.77-5.06,2.73-8.48-3.6-10.43-7.34-.81,.07-1.59-.01-2.34-.21-.86,.91-1.99,1.41-3.2,1.7-1.32,.3-2.66,.05-3.92-.45-.85,.4-1.7,.62-2.56,.67-2,2.59-5.76,3.15-8.63,1.8-7.33,5.94-15.61-2.77-21.02-7.51-6.19-5.86-19.46-17.85-9.02-25.52-1.61-1.05-3.51-1.57-5.09-2.67-4.8,5.41-12.37-1.7-6.48-6.14,.57-6.88,7.84-5.85,11.13-1.38,2.79,1.69,5.38,2.43,7.57,4.68,1.29-.78,2.85-1.09,4.39-1.14,.36,0,.73,0,1.09,.04-1.5-6.36,6.97-10.74,12.31-8.54,11.35,6,23.67,12.54,30.03,24.21,6.82-.91,11.85,4.91,16.58,8.93,6.3,3.82,7.49,12.01,12.29,16.64-2.77-8.98,6.86-16,14.78-11.69,2.73-2.92,7.72-1.53,9.73,1.66,5.11,8.53,1.84,19.64,1.27,28.86-.16,4.37-.75,10.05,2.42,13.48,3.2,1.73,7.03,1.97,10.16,3.91,10.51,6.3,19.02,16.19,23.29,27.63,1.43,3.92,1.89,8.57,4.12,12.06,1.42,1.24,3.39,1.6,4.93,2.65,7.98,4.64,4.27,14.36,4.61,21.79,.37,14.02,1.53,27.86-1.27,41.73-.5,3.16,1.52,6.62-.16,9.52,12.1,2.17,13.67,18.19,4.83,25.23-1.85,1.76-2.56,4.89-5.31,5.73-1.95,.77-4.25-.03-5.47-1.72Z"/>
  <path d="M476.59,479.3c-3.43-3.54-6.43-7.58-9.53-11.44-6.98,6.87-14.13-5.91-18.23-10.6-3.53-1.33-3.84-5.94-5.96-8.66-2.45-5.14-8.97-14.36-2.29-18.58-3.23-18.53-11.34-36.62-6.44-55.5-3.19-3.21-.8-8.52-.86-12.54-11.81,.74-1.67-13.22-.75-18.71-3.86-3.31-1.48-11.36,3.09-12.99-3.15-6.43,1.13-13.89,2.88-20.26-1.68-2.74-1.12-6.15-.15-9.05,1.79-6.42,4.26-13,8.83-17.97-.18-.41-.3-.84-.35-1.28-.04-.37-.05-.74-.03-1.11-2.19,1.81-5.95,1.56-7.33-1.12-1.72-5.82,3.21-13.36,4.2-19.4,1.57-9.99,8.34-18.1,9.93-27.86-.22-.55-.35-1.13-.38-1.72-.04-.58-.01-1.15,.05-1.71-2.1-2-1.28-5.08,.32-7.12,1.25-2.49,1.84-5.38,3.55-7.59,2.69-3.4,8.44-.77,7.89,3.35,2.64,2.81,1.21,6.39-.22,9.42,1.82,2.93-.38,6.11-1.67,8.8-2.97,6.27-6.29,12.49-8.73,18.99,6.11-2.21,7.83,4.96,5.94,9.44,12.57,3.44,4.43,23.07-4.97,25.93-.22,1.13-.55,2.25-.87,3.34,1.87,4.17,.48,8.9-.65,13.11,9.37,2.86,.81,15.49-3.64,19.49-1.59,4.87-4.75,9.05-7.77,13.13-.14,1.31-.39,2.6-.73,3.87-.33,1.27-.66,2.55-1.01,3.81,1.96,1.74,2.77,4.44,3.02,7.02,2.16,3,1.44,7.15,1.46,10.63,4.32,4.47,1.72,11.4,1.8,16.94,7.01-.19,5.89,7.14,4.12,11.64-.75,4.68-1.48,9.23-1.49,13.77,8.4,19.17,15.85,38.82,26.16,56.99,2.08,4.27,6.57,7.2,7.98,11.68,.57,3.77-4.26,6.38-7.17,3.89Z"/>
  <path d="M548.29,663.28s-.02-.02-.03-.02c-5.49-.92-3.12-8.06-3.77-11.59-.05-4.91-2.2-10.65,.45-15.15,0-.08-.01-.16-.02-.24-4.11-.08-6.78-3.93-9.19-6.79-4.85-5.99-9.08-12.42-12.75-19.18-6.55-.07-6.59-10.39-8.33-15.12-8.26-2.33-12.12-12.12-14.78-19.55-3.68-6.57-8.26-13.72-8.04-21.47-6.44-4.24-13.42-8.12-20.69-10.58-8.21-2.09-16.36-2.78-24.75-3.55-.88,.41-1.76,.62-2.75,.47-5.08-.91-10.35,1.26-15.36,2.13-5.15,.78-10.7-6.24-7.37-10.73-2.13-1.43-2.79-4.78-1.05-6.75-2.22-2.41-1.22-6.87,2.02-7.79,.47-5.88,6.79-4.77,9.98-1.7,0,0,0,0,0,0,.66-.02,1.31-.03,1.97-.03-2.41-2.49-5.38-4.62-7.31-7.51-2.37-4.44,3.61-8.77,7.09-5.13,4.53,4.37,8.86,8.89,14.16,12.29,.32-.02,.64-.03,.95-.05-4.32-8.15-11.15-14.34-16.27-21.74-2.33-4.1,3.05-8.53,6.66-5.52,9.11,6.35,16.45,17.89,27.87,19.68-.18,.04-.36,.07-.55,.1,7.07-3.18-.08-28.11,.68-35.27-12.71-6.73-11.54-24.16-17.97-35.55-4.05-11.21-12.67-27.56,.31-35.98-.94-3.13-3.07-7.39,1.02-9.27-2.58-5.34-9.11-6.41-11.9-11.5-1.67-3.18-3.8-8.43,.7-10.27,5.14-1.68,5.64,3.55,7.53,6.72,10.3,6.04,18.47,17.77,16.93,30.13,.35,5.61-4.05,9.47-5.36,14.55,1.59,2.71,2.08,5.84,2.02,8.94,.63,1.09,1.38,2.12,2.09,3.17,11.29,2.07,14.45,13.74,17.11,23.18,5.99,.8,9.9,5.45,12.77,10.3,4.32,5.68,6.42,12.36,6.55,19.48,3.39,10.66-5.23,16.87-12.55,6.77-5.4,.13-7.02-6.53-9.47-10.24,2.37,14.48,3.95,41.63-18.81,31.42,.22,.49,.42,.98,.62,1.47,.1,.24,.19,.48,.28,.74,4.6,1.47,5.98,8.19,1.49,10.66,.1,.46,.16,.93,.19,1.4,.06,1.19-.17,2.43-.65,3.57,16.78,2.82,33.57,9.75,45.37,22.29,.89-.92,2.14-1.5,3.41-1.47,.33,0,.66,.04,.97,.1,.4-.38,.9-.7,1.43-.94,1.02-2.66,4.3-4.5,7.04-3.38,.34-3.45-.47-8.08,2.75-10.34-1.77-5.88,5.83-9.4,8.53-3.6,1.78,7.34,2.45,14.62,2.25,22.09-.63,5.35,1.29,14.63-5.16,16.72-.05,1.74-.14,3.48-.26,5.22-.08,.98-.15,1.96-.28,2.94,7.65,6.58,14.63,14.46,19.27,23.49,4.34-.1,5.16,5.07,6.72,8.15,1.25,4,5.71,9.43,1.59,12.99-.14,6.4,.1,12.79,1.26,19.09,.31,1.83-.03,3.99-1.68,5.1,.04,4.4,1.94,13.15-4.94,12.66Zm-81-202.25c.2-.79,.56-1.48,1.05-2.03-.75-1.32-1.53-2.63-2.31-3.92-.75-1.2-1.57-2.36-2.36-3.54,.9,3.26,1.98,6.52,3.61,9.49Z"/>
  <path d="M545.37,673.55c-1.56-7.23-3.85-13.89-5.32-21.07-.27-2.92-.08-5.92-1.84-8.46-6.53-6.57-13.38-14.55-16.43-23.03-1.35-4.77-2.81-8.76-4.49-13.29-1.09-2.02-1.94-4.42-3.67-5.97-2.11-.98-4.24-1.6-6.15-2.89-7.54-5.62-10.02-15.83-13.83-24.05-1.33-3.61-.08-8.12-2.31-11.35-8.66-4.28-17.65-7.66-25.38-13.57-6.92,2.06-12.58-3.45-18.46-5.66-4.3-1.49-7.19,3.04-11.16,3.76-3.76,.94-6.55-.11-9.96-.09-6.92,.91-11.96,5.52-17.35,9.48-3.12,3.03-8.05,3.64-10.8,6.82-2.09,5.07-3.08,11.03-8.48,13.74-2.22,1.55-5.12,3.09-7.76,1.69-2.5,1.8-5.56,3.24-7.55,5.33-2.67,2.9-2.87,7.18-4.47,10.66-2.17,3.98-5.49,7.17-8.1,10.56-3.33,4.3-8.72,5.24-13.18,7.22-3.29,2.29-7.88,7.76-11.56,3.05-3.21-5.4,4.62-8.41,8.02-11.16,2.78-1.54,5.2-1.59,7.62-2.83,3.69-2.69,6.19-6.79,9.06-10.26,2-7.79,5.63-14.98,13.09-18.44,4.44-1.86,4.83-6.83,6.06-10.85,1.52-3.46,6.96-3.27,8.11,.36,1.46-5.9,6.54-8.65,11.66-10.89,6.57-4.03,12.09-10.33,19.83-12.03,4.47-2,9.04-.76,13.61-.89,3.68-1.66,7.03-4.65,11.38-4.36,8.16-.38,12.71,7.95,20.59,5.93,5.85,.6,9.9,5.83,15.1,8.12,5.05,2.57,10.72,4.06,15.41,7.29,5.19,3.86,4.31,10.53,5.49,16.13,2.4,5.97,4.92,10.68,7.54,16.23,1.73,3.15,5.45,3.81,8.38,5.37,10.04,7.23,8.85,22.06,15.95,31.21,4.76,8.38,15.13,13.64,14.61,24.3,1.01,7.52,3.87,14.58,5.31,21.93,.58,2.32-1.01,4.75-3.3,5.28-2.32,.55-4.71-.96-5.28-3.3Z"/>
  <path d="M248.79,609.06c-3.44-.17-4.95-3.54-6.06-6.36-4.14-10.38-8.96-23.11-3.74-33.88-3.89-14.67-13.81-31.12-6.08-46.1-8.27-21.27,12.4-40.89,28.16-52.23,2.16-4.37,8.85-5.87,12.29-2.12,.12-.26,.24-.52,.36-.79-.3-.34-.58-.7-.83-1.07-1.82-2.66-2.65-6.48-1.82-9.71-1.33-2.84-1.35-6.52,.59-9.07,1.2-7.69,8.22-17.24,16.76-16.82,1.99-1.02,4.23-1.73,6.45-1.96,1.02-.11,2.06-.02,3.04,.28,.06-.16,.13-.31,.2-.47,.35-.8,.77-1.55,1.32-2.2,.74-6.13,4.3-11.41,5.87-17.38,5.46-10.56,15.45-20.94,27.27-23.77,.57-.89,1.12-1.79,1.66-2.7,.88-1.49,1.76-3.3,3.13-4.42,2.33-8.71,2.67-16.85,13.49-18.54,7.08-.78,7.08,8.54,.19,9.11,1.8,4.65-1.75,9.71-3.69,13.84-2.12,3.55-2.75,8.33-6.32,10.75-3.83,6.1-9.09,10.79-13.62,16.2,.31,10.44-3.94,22.32-13.44,27.57,.02,1.29-.24,2.56-1.12,3.59-1.16,1.38-2.95,1.84-4.61,1.48-2.31,5.27-6.84,10.82-12.88,11.44,0,0,0,0,0,0-1.52,1.56-3.35,2.8-5.35,3.59-.49,.68-1.03,1.33-1.62,1.95-.77,.82-1.61,1.72-2.54,2.51-2.92,6.04-4.5,13.74-10.4,17.65-.46,2.01-1.3,3.94-2.58,5.58-.34,.44-.72,.82-1.15,1.16-1.77,5.63-6.47,9.47-10.89,13.02-1.15,6.48-2.68,12.89-4.44,19.22-.69,2.43-1.48,5.41-3.96,6.36,5.8,1.16,4.98,9.72-1.07,9.03-4.01,2.89-8.69-1.31-11.97-3.6-2.42,14.91,7.77,28.3,9.4,42.73,2.24,7.56,1.72,15.56,3.01,23.31,.72,4.36,4.1,12.43-2.99,12.83Z"/>
  <path d="M233.22,795.88c-4.64-1.55-9.94-5.95-11.86-10.56-1.19,.79-2.55,1.33-3.93,1.46-.91,.09-1.8,.02-2.65-.19-1.23,4.11-8.13,6.21-10.6,2.16-1.91,3.53-5.42,6.78-9.68,5.4-4.2-2.27-9.49-4.97-12.63-8.58-2.69,.29-5.54-.81-7.66-2.48-1.24-.98-2.33-2.15-3.21-3.46-4.73-1.76-11.11-10.54-4.7-13.99h0c3.16-5.41,8.46-9.29,12-14.4-7.14-15.48,0-32.37,12.08-43.06-.26-9.4,3.06-18.26,6.8-26.64,.82-5.02,2.79-15.65,9.96-12.5,.34-.38,.68-.75,1.03-1.12-5.77-11.33-2.13-24.85,6.65-33.02,2.14-2.14,4.31-4.38,4.92-7.43-7.62-6.8-10.5-24.11-4.88-32.86,1.34-6.14,2.23-14.17,9.17-16.46-.28-9.29,.72-18.52,2.3-27.66,.04-5.41-1.16-13.33,4.48-16.32,.75-4.77,.6-12.14,6.01-14.05,6.5-1.36,6.79,8.65,3.13,11.64-.08,.55-.16,1.11-.23,1.67-.07,.83-.13,1.66-.2,2.49,.17,.14,.35,.29,.53,.45,.43,.4,.78,.86,1.07,1.34,17.9-2.93,13.62,32.85,14.42,44.01,4.47-4.37,11.6-1.06,11.98,4.96,3.45,1.27,4.39,5.29,4.02,8.59,21.21-20.22,22.64,8.62,18.24,24.11,4.03-4.84,8.36-10.62,14.49-12.74,9.74-1.66,10.79,10.73,8.25,17.4,4.57-2.88,8.64-9.71,14.63-8.41,1.53,.79,2.18,1.19,3.67,.05,4.7-2.51,7.68-9.17,13.88-7.81,1.71-4.58,9.02-2.92,8.51,1.94-.86,5.95-3.84,12.34-9.87,14.47-3.36,3.41-8.42,3.38-12.74,2.19-9.84,2.34-7.97,14.93-10.77,22.51-2.24,6.23-8.06,10.59-10.85,16.53-1.74,2.82-2.64,6.56-5.45,8.52-5.89,10.36-8.77,22.22-14.13,32.97-3.48,6.17-4.94,14.14-10.22,19.02-.97,11.92-2.61,23.4-3.76,34.89-1.39,5.74,.65,25.05-9.27,19.34-.7,.49-1.49,.9-2.28,1.04-.77,.14-1.52,.24-2.27,.23-.56,.55-1.18,1.04-1.88,1.46-.82,.49-1.74,.74-2.67,.8-2.19,6.58-9.56,10.58-16.18,8.16-1.44,2.8-4.52,4.6-7.67,3.95Zm-39.12-47.92c.83-1.17,1.84-2.21,3.08-2.91,1.46-.82,3.16-1.18,4.81-.94,1.81-4.74,8.19-6.35,11.19-1.79,5.37-8.45,13.68-3.56,14.13,5.15,2.16-2.19,6.03-2.12,7.88,.42,2.49-.7,4.98-.34,7.51-.27,.98-4.18,2.88-8.97,6.91-11.02,1.71-4.79,7.67-6.25,11.53-3.09,.54-6.22,.06-13.49,4.21-18.57,1.2-3.96,2.27-8.56,5.77-11.18,0,0,0,0,0-.01,3.74-6.39,5.24-26.84,14.76-25.61,1.91-5.14,3.95-10.49,7.77-14.54,.92-3.91,1.87-7.82,3.17-11.61-6.26-2.02-1.9-8.44,.21-12.09,3.73-7.43,7.08-15.39,7.92-23.72-15.8,13.66-21.56,35.09-29.24,53.79-1.61,4-8.19,2.88-8.38-1.44-.05-1.46,.48-2.77,.96-4.11,5.97-21.89,15.78-43.98,14.24-66.77-19.59,12.82-19.57,38.83-30.04,57.43-.4,5.24-7.6,7.01-9.1,1.46-1.15,1.11-2.55,1.86-4.04,1.96-1.23,6.89-5.73,36.03-14.59,34.42-.68,2.16-1.29,4.55-3.15,5.93-1.92,1.42-4.49,.85-5.93-.85-1.1,.35-2.34,.34-3.38-.18-1.48,1.61-2.22,3.62-3.52,5.35-.36,9.53-3.63,19.17-6.67,27.94-2.02,5.67-6.02,9.96-8.54,15.3,.17,.51,.35,1.02,.52,1.53Zm-3.98-13.37c1.59-2.19,3.14-4.2,3.83-6.83-2.17,1.64-3.67,4.08-3.83,6.83Zm36.16-121.58c.28-.2,.56-.38,.86-.54-.1-.02-.2-.04-.31-.06-.21-.04-.42-.09-.63-.15,.02,.25,.05,.5,.08,.75Zm2.3-9.23c.03-.56,.04-1.12,.04-1.68,0-.1-.02-.19-.02-.29-.29-.25-.58-.48-.88-.72-.07,.15-.13,.31-.2,.46-.13,.39-.25,.77-.36,1.16,.31,.53,.8,.96,1.42,1.06Zm18.23-30.61c-.83-8.68,.51-18.33-3.23-26.38-.02,.03-.04,.05-.06,.08-.16,.25-.32,.5-.48,.76,.7,7.57,1.56,15.16,1.58,22.77,.94,.8,1.65,1.74,2.19,2.77Z"/>
  <path d="M389.28,395.97c.09-2.46,2.15-4.25,4.56-4.25s4.33,2.22,4.25,4.56c-.09,2.46-2.15,4.25-4.56,4.25s-4.33-2.22-4.25-4.56Z"/>
  <path d="M294.75,219.72c-2.79-.84-6.31-.46-8.49-2.59-3.74-5.36,2.04-8.79,7.14-6.97,7.98-4.27,10.75,11.04,1.35,9.56Z"/>
  <path d="M193.68,209.79c-7.76-4.01-16.75-6.73-25.2-8.36-4.73-1.3-10.46,1.99-14.52-1.63-2.09-2.04-1.31-5.94,1.34-7.1,1.03-1.73,3.03-2.17,4.87-2.22,2.84-.11,6.63-1.04,8.22,2.02,8.08,1.3,15.92,3.52,23.37,6.9,4.04,.97,10.92,3.93,8,9.09-1.24,1.96-4.15,2.69-6.09,1.31Z"/>
  <path d="M233.67,219.39c.47-5.67,7.53-3.78,11.3-5.69,7.55-2.49,13.64-3.58,21.59-3.34,9.9-.29,19.86-1.18,29.53,1.81,5.45,1.74,2.9,10.05-2.61,8.39-4.03-1.25-8.6-1.46-12.28-1.86-7.62-.04-15.42,.9-23.05,.62-6.31,.23-23.47,10.32-24.48,.07Z"/>
  <path d="M283.69,254.95c-6.09-1.53-9.58-10.48-5.45-15.43-4.81,1.16-12.86,2.2-16.89,4.1,.03-.02,.07-.04,.1-.06,.02,0,.03-.02,.05-.03-3.32,3.28-11.58,6.42-12.87-.29-.31-2.95,2.33-5.07,5.14-4.93,3.22-2.96,7.36-4.68,11.7-4.96,7.42-1.78,14.31-3.99,21.91-2.98,9.93,.72,37.64,10.3,20.21,21.61-7.98,2.2-15.77,4.29-23.91,2.96Zm4.8-8.27c5.08-.26,9.33-1.48,14-2.22-5.12-2.75-10.7-5.14-16.59-5.31,.02,.02,.03,.04,.05,.06,1.27,1.83,.93,4.22-.6,5.71-.06,1.86,1.78,1.7,3.15,1.75Z"/>
  <path d="M183.73,238.81c-3.71-1.29-6.19-5.79-3.46-9.15,2.29-3.19,7.92-2.82,8.65,1.42,.48-.03,.95-.2,1.39-.38,0,0,0-.01,0-.02-2.22-4.4-8.75-3.66-13.02-4.21-7.54-2.35-14.47,2.76-22.07,1.44-5.72-.27-5.46-8.95,.29-8.79,4.45,.81,8.6-.97,12.8-1.89,4.39-.87,8.65,.64,13.04,.64,6.12,.7,13.01,1.86,16.25,7.71,5.74,9.11-5.3,17.52-13.88,13.23Z"/>
  <path d="M186.35,240.43c-2.39-.03-4.33-2.17-4.25-4.54,.15-4.53,5.14-4.42,8.37-4.2,.56-.01,1.11-.02,1.67-.03,.15,0,.29-.02,.43-.03-1.34-1.01-2.92-1.66-4.43-2.36-5.2-2.45-1.49-10.34,3.73-7.96,3.53,1.36,6.55,3.45,9.07,6.25,1.4,.8,2.51,1.74,2.94,3.41,.91,3.43-2.45,5.39-4.87,7.02-3.57,3.04-8.28,2.52-12.66,2.44Z"/>
  <path d="M248,646.57c.09-2.46,2.15-4.25,4.56-4.25s4.33,2.22,4.25,4.56c-.09,2.46-2.15,4.25-4.56,4.25s-4.33-2.22-4.25-4.56Z"/>
  <path d="M181.52,435.63c-3.37-.81-7.77-2.24-6.84-6.74-3.27-11.34,18.94-4.63,13.08,3.27-.26,2.97-3.64,4.7-6.24,3.47Z"/>
  <path d="M260.09,784.32c.6-10.06,14.25,2.1,18.3-22.99-6.09-1.01-3.26-7.54-1.46-11.19-2.07-8.6-3.95-18.86,3.36-25.6-3.42-31.27,26.31-17.99,9.28,2.91,1.64,8.06-.03,16.14-3.47,23.5,4.25,14.89-3.82,36.31-21.17,37.27-2.34,.32-4.6-1.56-4.83-3.91Z"/>
  <path d="M278.42,818.19c-4.81-3.93-5.36-12.22-3.63-17.77,.84-5.44-2.36-19.83,6.01-19.51,2.34,.38,4.08,2.68,3.66,5.04-1.18,6.6-1.05,13.48-.64,20.15,.51,3.34,2.46,6.8,1.16,10.16-.94,2.39-4.42,3.36-6.55,1.93Z"/>
  <path d="M20.48,675.05c-6.77-3.76,2.78-12.83,3.91-18.11,4.34-9.76,8.52-19.78,13.42-29.24,4.53-7.08,8.91-13.5,9.44-22.16-3.47-5.93,8.96-20.86,14.5-23.12,4.3-1.91,8.02-2.89,12.18-4.3,3.67-.51,6.28,4.06,4.04,6.99,2.61,.2,4.64-1.88,7.04-2.62,5.96-1.94,11.2-3.18,16.46-6.43,5.1-2.17,10.1-8.25,16.03-5.76-.02-.71-.01-1.87-.77-2.16-5.58-2.29-1.84-10.72,3.59-8.01,1.62-2.37,5.33-3.07,7.51-1.08,6.59,1.36,2.44,8.08,1.72,12.26,1.3,4.47-.12,11.48-5.56,12.14-2.37,16.04-12.8,9.61-12.5-3.02-8.05,5.81-17.61,8.01-26.54,11.82-5.69,12.88-17.71,21.28-27.63,30.35-6.44,5.18-7.98,12.86-11.58,19.73-3.44,5.2-8.01,9.78-8.81,16.29-2.08,5.07-2.52,20.12-11.07,15.02-1.26,1.65-3.48,2.31-5.37,1.42Zm50.98-79.92c.07-.09,.13-.17,.19-.26,0,.01-.02,.03-.03,.04,.23-.33,.46-.66,.69-.99-.25,.03-.5,.06-.75,.09-.18,.04-.36,.08-.53,.12,.18,.32,.32,.65,.43,1Z"/>
  <path class="cls-1" d="M379.63,182.76c-5.66-9.6-9.36-20.15-13.37-30.34-3.46-3.05-8.69-3.56-11.97-7.07-4.98-4.09-4.74-11.54-9.31-15.91-.7-.52-1.6-.86-2.47-.87-10.66,2.27-7.16-6.88-12.96-10.97-2.55-1.07-5.33,.58-7.95,.47-2.47,.1-4.14-2.14-4.04-4.47-.23-4.81-.38-9.77-1.94-14.35-12.22,5.08-24.84-3.29-26.33-16.13-.19-3.08-1.12-8.53,3.39-8.53,1.82,.1,3.17,1.69,3.11,3.47-1.01,7.37,4.42,17.15,12.77,15.99,15.03-5.23,14.4,5.59,15.51,16.99,8.23-2.35,13.75,3.82,15.85,11.14,11.05-2.33,13.97,9.87,17.89,17.29,2.66,3.29,7,4.18,10.54,6.16,4.96,2.98,6.16,8.98,7.52,14.16,1.35,3.97,3.52,7.6,5.25,11.41,1,4.04,7.7,9.6,2.96,13.02-1.6,.82-3.59,.15-4.45-1.45Z"/>
  <path class="cls-1" d="M404.46,327.31c-6.3-1.47,1.03-16,2.12-20.08,2.3-6.72,7.45-12.48,8.6-19.52-.76-9.97-16.82-15.52-5.57-26.07,2.75-2.89,6.11-6.23,6.12-10.42-2.06-12.45-4.65-24.21,2.75-35.61,3.32-5.58,10.26-9.11,11.2-15.98,.63-2.22,.9-4.32,1-6.24,.62-6.6-6.79-9.56-8.36-15.55-3.62-12.52,5.43-25.35,7.96-37.25,.47-5.98-5.88-8.13-9.62-11.47-1.37-1.01-2.83-1.98-4.44-2.39-3.94-.82-7.56,1.02-11.49,.72-6.71,.08-14.11-2.69-13.5-10.61,.39-9.38-3.83-25.68-16.2-20.02-1.74,.45-3.56-.83-3.92-2.53-.71-4.25,4.67-4.41,7.58-5.16,16.07-1.32,18.99,18.21,19.59,30.27,4.49,2.42,9.72,1.21,14.49,.52,7.29-.88,12.55,4.73,17.89,8.38,15.82,12.08-4.73,30.95-2.54,46.03,1.19,5.24,6.33,7.74,8.17,12.5,2.54,8.3,.04,18.18-5.35,24.79-4.81,4.12-8.74,9.14-10.08,15.48-3.83,17.11,9.37,25.47-7.75,40.57-1.5,1.34-.32,3.19,.66,4.44,4.33,4.73,8.93,10.56,7.9,17.38-2.52,10.09-9.75,18.52-11.91,28.86-1.31,3.17-.34,9.5-5.28,8.95Z"/>
  <path class="cls-1" d="M259.57,568.94c-8.09-9.88-13.67-24.94-6.17-36.62,4.18-6.13,14.28-3.93,17.56-10.71,3.72-9.33-6.01-22.14,1.62-29.92,4.33-2.74,10.05-3.13,13.69-7.06,7.43-6.62,3.37-21.9,15.4-23.83,4.49-1.17,9.09-2.8,11.81-6.69,7.95-8.65,.58-27.09,17.48-23.81,3.69-.27,5.47-4.22,8.51-5.87,3.6-2.4,8.5-2.76,11.11-6.54,5.43-9.28,7.25-20.05,7.44-30.65,.23-3.51,2.08-7.42,2.8-10.63,1.26-3.31,1.16-10.3,6.24-9.17,4.51,1.73,.59,7.34,.28,10.27-2.31,6.41-3.11,12.87-3.35,19.64-1.96,12.28-5.27,28.11-19.12,31.65-3.13,1.28-5.02,4.21-7.78,6.03-3.29,2.48-7.34,1.55-11.08,1.69,0,0,0,0-.01,0-2.24,16.9-7.66,27.66-25.34,31.44-2.57,3.49-2.67,8.51-4.26,12.55-1.84,5.6-6.1,10.13-11.32,12.78-2.65,1.61-5.94,1.96-8.59,3.52-.24,.34-.13,.83-.19,1.24,.35,10.72,6.55,25.16-4.74,32.34-3.87,2.68-9.39,2.44-12.87,5.69,.11-.15,.16-.22,.24-.34-5.81,9.57-.23,21.35,6.11,29.23,2.47,3.47-2.99,7.28-5.44,3.75Z"/>
  <path class="cls-1" d="M497.54,547.92c-4.38-5.48-10.28-8.72-13.71-14.79-3.23-5.91-3.07-13.11-6.07-19.1-2.09-3.18-6.03-4.1-8.96-6.27-4.88-3.44-5.05-9.82-6.55-15.07-7.95-22.69-31.9-14.87-33.22-50.04-.36-4.23,6.26-4.83,6.59-.53-.09,31.27,28.61,25.02,33.71,51.62,.81,3.53,1.21,8.23,5.01,9.71,13.78,4.77,10.26,19.14,16.94,28.95,2.58,3.99,15.41,10.76,10.93,15.78-1.32,1.18-3.48,1.09-4.66-.26Z"/>
  <path class="cls-1" d="M250,759.87c-7.85-10.59-15.23-25.8-10.56-39.03,3.81-9.19,15-9.29,22.98-12.73,3.79-1.23,5.78-4.78,6.12-8.58,1.29-9.18-1.76-17.98,.61-26.92,2.59-5.43,5.9-10.4,7.36-16.34,2.74-6.7,2.75-13.29,4.87-20.01,1.9-4.83,6.17-8.14,9.2-12.24,3.38-4.36,6.3-9.39,10.92-12.56,2.16-1.35,4.87-2.24,6.73-3.96,4.17-4.54,4.58-11.71,9.55-15.6,5.59-3.11,8.41-8.88,11.89-13.95,2.26-4.09,6.59-6.55,9.94-9.43,3.2-3.77,5.44-8.46,6.63-13.25-3.32-8.8-2.84-18.71,1.2-27.33,4.41-5.5,9.7-10.22,14.54-15.36,6.57-4.25,13.53-9,14.94-17.2-.78-9.22-4.1-18.38-2.77-27.81,.17-1.79,1.62-3.22,3.47-3.11,1.74,.09,3.3,1.69,3.11,3.47-.44,4.48,.03,9.6,.57,13.74,6.05,19.69-1.64,26.89-16.87,37.65-3.37,4.19-7.44,7.78-11.1,11.63-2.66,6.48-4.11,14.33-.99,20.86,1.82,7.5-3.36,15.13-7.62,20.93-2.48,2.89-6.32,4.2-8.48,7.41-4.3,5.94-7.83,13.32-14.54,17.06-3.55,4.11-4.32,10.09-8.06,14.16-2.22,2.63-5.44,4.04-8.45,5.56-4.49,3.42-6.9,8.27-10.4,12.43-2.64,3.58-6.69,6.38-7.73,10.9-1.33,8.82-3.59,17.45-6.99,25.72-1.93,4.57-5.92,8.75-5.21,14.01,.04,11.17,3.99,26.95-8.02,33.33-7.33,4.53-21.23,2.8-22.27,13.74-.14,10.07,4.35,20.51,10.39,28.39,2.91,3.09-2.17,7.71-4.92,4.4Z"/>
  <path class="cls-1" d="M71.36,581.54c-1.99-14.96,.3-32.53,19.14-32.08,1.02-.12,2.08-.7,2.82-1.32,6.73-7.1,6.6-18.13,12.99-25.29,9.16-6.81,11.15-18.66,11.25-29.35-.36-9.7,1.6-19.16,2.29-28.57,.17-4.24,6.86-3.92,6.59,.36-.35,7.19-1.85,13.51-2.13,20.4,.47,15.73-1.39,33.03-14.58,43.36-4.87,9.55-6.45,25.4-19.31,27.07-3.18,.29-6.77,.36-9.19,2.75-5.16,6.13-3.74,14.78-3.3,22.14,.4,4.24-6.28,4.82-6.57,.53Z"/>
  <path class="cls-1" d="M145.82,525.81c-1.63-.55-2.75-2.53-2.08-4.2,3.02-6.56,1.14-14.11,3.92-20.74,2.21-7.15,8.95-12.61,9.36-20.3-1.43-5.35-.6-10.82-1.61-16.18-1.03-3.6-4.75-5.24-6.63-8.22-1.33-1.99-.94-4.39,.19-6.37,1.72-4.31,2.14-9.37,.48-13.74-1.04-2.77-3.5-5.01-3.53-8.12,.46-3.89,2.84-7.47,.55-11.15-2.38-3.5-6.82-5.15-8.67-9.12-1.98-3.76,3.94-6.86,5.88-3.01,1.08,2.04,3.25,3.13,4.9,4.64,5.71,4.42,6.71,12.22,3.95,18.59,5.19,7.35,5.99,17.06,2.18,25.21,2.74,2.47,5.49,5.11,6.77,8.67,1.94,5.71,.37,11.87,2.08,17.68,.91,8.73-6.55,15.73-9.51,23.14-3.29,5.43,.49,23.85-8.24,23.22Z"/>
  <path class="cls-1" d="M114.64,204.91c-1.85-4.13,3.4-5.09,5.99-6.65,4.75-3.51,7.04-9.21,5.59-14.89-.35-3.83-2.63-8.42,.13-11.8,2.56-2.52,6.04-3.58,8.78-5.72,3.14-2.76,3.55-7.39,4.79-11.17,.86-5.01,6.28-6.77,8.34-11.13,1.94-4.74,3.43-9.56,5.99-14.04,1.9-4.37,1.99-9.21,3.75-13.62,1.17-3.45,4.37-5.58,6.87-8.07,2.47-2.49,4.27-6.15,7.96-6.96,2.82-.47,7.59-1.43,8.03,2.58,.14,1.75-1.22,3.46-3.03,3.56-1.26,.14-2.7-.07-3.87,.47-2.94,3.38-6,6.64-9.28,9.7-2.13,4.2-1.98,9.05-3.76,13.4-1.35,3.95-3.99,7.31-4.9,11.44-1.41,5.44-5.28,9.59-9.33,13.16-1.74,5.14-2.4,11.08-6.48,15.03-2.53,2.28-5.7,3.73-8.59,5.49,1.94,8.79,3.02,18.32-4.06,25.22-2.53,2.56-10.21,8.6-12.94,4.01Z"/>
  <path class="cls-1" d="M230.19,92.22c-1.5-1-1.93-3.08-.93-4.58,2.36-3.57,5.43-7.23,6.62-11.33,1.76-17.66,11.55-32.6,30.39-34.44,5.72-.76,11.52-2.61,17.05-.22,2.02,.59,3.9,2.67,6.09,2.13,3.37-2.44,6.29-6.29,10.99-5.61,7.35,1.45,13.05,7.48,19.65,10.86,7.41,2.87,15.3,4.73,20.28,11.62,4.31,5.11,8.14,11.15,12.26,16.15,1.12,1.39,1.14,3.41-.26,4.66-1.29,1.15-3.54,1.14-4.66-.28-6.78-7.61-11.21-18.19-20.65-22.76-5.02-1.4-9.85-2.78-14.01-6.04-4.06-2.3-7.8-5.11-11.88-7.32-.86-.38-2-.51-2.85,0-2.61,1.86-4.6,4.73-7.94,5.32-3.67,.94-7.16-1.71-10.36-2.96-3.7-.97-7.34,.31-10.97,.69-31.13,4.02-19.37,25.36-34.25,43.18-1,1.51-3.08,1.92-4.58,.93Z"/>
  <path class="cls-1" d="M214.08,90.45c-.83-1.62-.15-3.61,1.43-4.44,4.79-2.67,11.53-4.36,10.42-11.16-.41-2.98-.81-7.29-3.52-9,0,0-.04-.05-.04-.05-5.88-.14-11.64,3.85-16.22,6.78-3.57,3.28-7.91,5.67-12.88,5.4-1.81,0-3.22-1.77-3.11-3.49,.2-3.52,4.02-2.94,6.48-3.47,8.46-4.73,17.14-13.58,27.68-11.49,9.18,3.36,11.43,21.8,3.34,27.35-3.56,1.49-10.62,8.36-13.57,3.58Z"/>
</svg>