<?xml version="1.0" encoding="UTF-8"?>
<svg id="Vektorebene" xmlns="http://www.w3.org/2000/svg" viewBox="0 0 1536 834">
  <defs>
    <style>
      .cls-1 {
        fill: #fff;
      }
    </style>
  </defs>
  <path d="M407.46,792.37c-6.41-.97-.02-14.93,.14-19,1.76-11.49,4.54-22.61,5.51-34.06,4.05-30.25,6.98-60.91,16.37-90.09,6.19-23.44,10.15-47.55,17.95-70.52,5.41-14.57,13.54-27.86,18.34-42.69,2.85-6.02,4.93-12.37,7.73-18.42,4.29-8.34,12.39-13.49,18.56-20.27,13.47-18.13,38.2-20.3,55.96-32.4,17.46-8.95,38.54-9.64,54.4-21.74,14.17-9.3,31.05-13.32,45.61-21.51,6.47-3.83,13.8-6.08,20.49-9.37,1.97-1.07,4.27-1.92,6.47-1,.16,.08,.32,.17,.47,.27,.85,1.34,1.82,2.59,2.94,3.66,3.45,8.08-.4,24.39,.81,31.8,.22,16.25-.12,33.83,6.22,48.94,2.85,5.68,6.98,10.39,10.69,15.46,4.97,8.3,11.86,14.91,20.44,19.22,12.56,9.49,28.62,8.41,43.5,9.17,17.3,1.08,33.52-4.25,48.59-12.17,6.34-2.97,9.56-9.47,13.85-14.59,11.66-10.9,18.15-24.56,23.27-39.3,4.41-11.86,8.1-24,11.88-36.01,2.98-7.39,4.76-14.29,5.17-22.13,.31-2.56,.42-5.1,.69-7.66,.64,.05,1.3,.08,1.97,.08,1.53,0,3.07-.15,4.54-.53,.03,.29,.03,.61-.02,.95-.37,19.29-8.2,37-13.76,55.11-6.69,18.85-12.74,38.81-27.91,52.71-5.22,6.19-9.25,13.85-17,17.29-3.71,1.75-7.46,3.34-11.15,5.14-16.56,8.37-35.69,8.27-53.77,6.97-12.85,.24-25.23-3.41-35.67-10.91-14.24-7.69-22.51-22.69-31.06-35.81-10.98-25.56-4.91-54.64-7.17-81.35-9.61,4.36-19.2,8.17-28.22,13.63-10.59,4.19-20.68,7.81-30.64,13.17-10.58,5.56-20,13.3-31.98,15.8-9.74,2.92-20.15,5.75-29.37,9.85-6.29,3.37-12.17,7.47-18.98,9.8-13.25,5.44-28.13,10.2-36.81,22.3-4.95,5.52-11.47,9.76-15.59,15.76-6.05,11.12-9.74,23.42-14.59,35.1-12.07,21.34-18.17,44.54-23.59,68.21-3.97,21.05-11,41.64-15.34,62.55-5.3,32.57-7.71,65.76-15.07,97.89-1.27,3.46,.49,10.74-4.73,10.74h-.12Z"/>
  <path d="M1181.04,790.64c-6.49-24.15-16.25-47.16-22.07-71.52-1.34-5.52-3.27-10.24-6.03-15.03-5.15-11.91-9.3-24.42-14.47-36.3-6.2-10.22-11.74-20.68-15.93-31.91-3.97-10.71-5.76-22.05-11.46-32.08-4.68-11.37-11.56-21.86-14.93-33.71,.03,.08,.07,.19,.1,.27,.01,.03,.02,.06,.03,.09-3.09-8.43-5.79-17.04-9.76-25.09-4.75-8.02-10.32-15.51-13.88-24.2-4.64-8.74-8.93-18.12-15.52-25.54-6.24-6.27-13.46-12.05-20.18-17.54-18.85-9.69-40.3-12.83-60.01-20.12-16.47-4.25-34.06-14.47-50.81-19.18-12.8-4.03-24.1-11.51-35.84-17.78-3.98-2.57-16.32-7.63-22.92-13.06,2-.18,3.96-.67,5.75-1.6,.66-.33,1.31-.68,1.96-1.04,9.78,6.35,20.69,10.72,30.68,16.78,14.9,9.34,31.88,12.95,47.71,20.22,10.32,3.12,19.15,8.97,29.78,10.58,20.49,8.98,45.71,9.36,63.11,24.47,5.58,5.19,12.02,9.46,16.85,15.37,8.08,9.83,13.24,21.73,18.9,33.01,9.15,13.64,16.03,28.17,20.74,43.74,3.07,10.78,9.41,19.9,13.54,30.23,5.22,9.59,8.17,20.27,11.02,30.69,4.58,13.91,12.66,26.05,18.95,39.11,5.24,14.39,11.22,28.42,17.32,42.42,5.66,22.49,13.61,44.15,20.52,66.25,1.1,3.56,2.29,7.1,3.14,10.73,.41,1.73-.51,3.53-2.27,4-.27,.07-.55,.11-.83,.11-1.42,0-2.83-.94-3.17-2.38Z"/>
  <path d="M1043.98,798.07c-4.01-12.04-9.22-23.71-15.23-34.8-2.87-4.1-6.08-7.95-9.13-11.92-1.08-1.41-.81-3.47,.58-4.56,3.67-2.53,5.78,2.51,7.8,4.76,10.84,12.85,16.58,29.17,22.25,44.78,1.15,4.03-5.12,5.83-6.27,1.75Z"/>
  <path d="M999.73,801.74c0-6.44-1.04-12.47,.34-18.73,1.39-6.28,7.96-39.4,17.83-32.32,1.59,2.05,.13,4.21-1.61,5.52-3.02,3.23-4.34,7.88-5.92,11.82-1.7,7.59-4.51,15.39-4.59,23.18-.43,4,2.97,13.12-2.8,13.78-1.81,0-3.22-1.49-3.25-3.25Z"/>
  <path d="M750.72,690.83c-7.04-3.93-6.33-14.56-7.83-21.52-2.02-8.08-4.15-16.21-6.34-24.24-6.5-14.01-14.69-27.49-18.54-42.56-1.95-6.96-7.03-12.04-11.04-17.82-4.18-6.87-8.01-13.98-11.86-21.03-3.77-10.07-8.6-19.7-12.98-29.4-2.64-8.15-5.89-16-10.17-23.42-3.87-11.56-5.42-23.74-6.63-35.83-2.79-18.68-6.12-37.81-.26-56.27,1.08-4.01,7.4-2.4,6.27,1.73-7.01,22.96,.28,46.63,2.34,69.78,1.81,9.35,3.58,18.83,8.86,26.71,5.6,15.43,12.9,30.05,19.05,45.28,3.79,6.06,6.93,12.6,10.66,18.65,6.85,8.21,12.18,17.22,14.43,27.78,5.06,15.25,15.57,28.12,18.59,44,7.81-7.81,16.52-13.99,23.6-22.5,5.91-5.95,12.62-11.05,16.81-17.98,7.7-11.18,11.59-24.51,18.3-36.23,7.56-15.42,13.52-31.56,20.37-47.2,10.42-19.24,16.32-40.43,24.57-60.57,1.29-2.95,2.08-5.55,3.07-8.51,1.56-3.84,7.63-1.38,6,2.54-8.64,21.97-15.42,44.87-26.13,66-8.01,17.02-14.08,34.9-22.59,51.69-6.45,11.22-10.05,23.9-17.36,34.62-6.52,10.84-17.28,17.97-25.34,27.56-5.2,5.86-12.24,9.73-17.21,15.82,4.72,7.12,10.78,14.72,9.69,23.81-.35,4.18-3.29,10.75-8.36,9.12Zm1.49-7.92c1.38-4.41-.43-9.04-2.62-12.84,.5,4.33,1.12,8.73,2.62,12.84Z"/>
  <path d="M858.77,305.03c-.08-.34-.2-.64-.39-.93,2.72-9.64,4.29-19.64,5.44-29.67,.39,1.03,.93,2,1.6,2.86,1.15,1.49,2.56,2.54,4.15,3.26-1.05,8.75-2.4,17.45-5,25.89-.31,1.07-.64,2.12-1,3.17-.03,0-.08,0-.14-.02-1.32-.14-2.58-.02-3.78,.31-.2-1.64-.47-3.27-.88-4.86Z"/>
  <path d="M679.71,296.52c-1.56-8.81-2.24-17.88-4.05-26.61-3.69-19.57-6.41-39.91-7.2-59.66-1.85-23.73,1.61-47.47,5.81-70.76,2.93-13.52,3.51-27.88,10.64-40.11,4.83-7.8,8.66-17.37,17.15-21.81,8.36-5.17,18.27-1.64,27.32-1.27,22.81,.32,45.35,2.71,67.93,3.51,11.93-.59,23.9-.97,35.79-1.83,4.73-.54,9.61-2.3,14.27-.53,15.41,9.32,21.93,28.45,24.03,45.52,3.59,17.9,5.93,36.61,3.83,54.77-.64,10.17-.34,20.37-.1,30.56-2.49,2.42-4.08,5.76-4.32,9.42,0,.02-.02,.03-.02,.05-.42,3.53-1.02,7.12-.51,10.64,.32,2.22,1.02,4.17,1.83,6.22,.36,.9,.8,1.78,1.15,2.68,.02,.03,.03,.08,.03,.12v-.03l.05,.15c.29,.81,.56,1.64,.81,2.46-.71,4.37-1.19,8.76-1.59,13.15-.34,.8-.68,1.58-1.05,2.36-.17,.31-.34,.61-.53,.92-.17,.22-.34,.44-.51,.64-.95,1.03-1.93,2.03-2.8,3.14-1.05,1.34-1.97,2.8-2.86,4.24,0-.05,.02-.12,.02-.17,1.17-10.54,2.12-21.03,3.86-31.47,.27-7.44,.08-14.8-.1-22.15,1.25-1.25,2.36-2.68,3.24-4.25,4.52-8,3.02-17.88-3.08-24.54,.03-.83,.06-1.66,.09-2.49,.05-.5,.07-1,.06-1.5,.6-16.29,.94-32.44-2.96-48.41-2.54-16.79-4.76-30.81-17.76-43.56-3.19-3.93-8.02-2.58-12.34-1.75-12.88,1.36-25.71,1.42-38.54,2.15-25.39-1.34-50.88-2.81-76.21-4.24-13.25-3.27-20.98,2.54-26.83,14.15-8.24,11.91-10.66,25.83-12.58,39.78-5.81,27.61-9.12,56.28-5.93,84.35,.29,18.32,4.46,36.03,7.32,54.01,1.32,7.46,1.86,15.24,3.29,22.74v.02c-.14,.27-.27,.56-.41,.85-1.95-.85-4.03-1.36-6.25-1.46Z"/>
  <path d="M873.29,237.37s0,.03,.01,.04c0-.01,0-.03-.01-.04Z"/>
  <path d="M864.83,264.48c.2-.31,.4-.62,.61-.92,0,.02-.02,.03-.03,.05,.02-.02,.05-.03,.08-.05-.24,.32-.46,.63-.67,.96,0-.02,0-.03,0-.05Z"/>
  <path d="M871.19,256.31c-.08,.1-.19,.19-.27,.29,.08-.1,.17-.19,.27-.29Z"/>
  <path d="M873.27,237.32c-.15-.42-.28-.84-.42-1.24,.14,.42,.29,.86,.44,1.29l-.02-.05Z"/>
  <path d="M678.62,415.84c-1.61-.41-2.2-1.61-2.27-2.95,.83,1.12,1.75,2.15,2.81,3.03-.17-.01-.34-.04-.53-.07Z"/>
  <path d="M863.43,309.59c-.93-.1-1.85-.06-2.73,.09,.7-1.06,1.57-1.56,2.65-1.31,1.06,.14,1.93,.8,2.41,1.69-.72-.22-1.5-.38-2.33-.47Z"/>
  <path d="M666.91,230.74c-9.63-21.61-12.71-45.1-10.93-68.62,1.2-22.17-1.9-49.42,14.42-66.74,4.52-6.9,9.56-13.2,15.17-19.22,3.97-6.03,2.83-13.69,1.71-20.29-3.25-12.44,1.76-27.81,12.17-35.52,14.81-10.76,33.54-13.07,51.28-13.41,33-1.86,68.35-2.86,97.99,13.98,6.46,3.97,13.13,7.91,18.46,13.34,5.69,7.47,8.74,17.46,9.34,26.74,.12,11.63-1.49,22.71,2.64,33.69,6.93,16.35,12.05,33.47,15.52,50.84-.07,1.1-.15,2.2-.24,3.3-.31,2.24-.73,4.46-.75,6.73,0,1.2,0,2.42-.03,3.63-.05,.66-.1,1.3-.15,1.97-.32,2.29-.75,4.59-1.12,6.86-.24,1.37-.46,2.73-.75,4.08-.36,1.75-.51,3.53-.68,5.3-.07,.56-.15,1.12-.24,1.66-.37,1.9-.64,3.81-.88,5.73-.2,1.36-.41,2.71-.58,4.08l.15-1.27c-.34,2.07-.58,4.14-.9,6.19l.15-.81c-.1,.64-.22,1.27-.34,1.92,0,.05-.02,.08-.02,.14-.98,2.75-1.98,5.51-1.73,8.51,.03,.32,.06,.64,.1,.96-1.03-.15-2.09-.19-3.15-.09-.07,0-.13,.01-.2,.02,6.18-19.61,6.91-40.23,4.49-60.61-2.73-9.59-4.58-19.44-7.85-28.88-2.9-8.76-7.41-17.07-9.1-26.2-3.03-11.88,1.27-24.27-2.24-35.86-1.93-5.32-3.14-11.71-7.56-15.49-11.74-10.08-25.84-16.83-40.76-20.81-21.51-4.97-42.94-4.3-64.72-3.56-20.01,1.29-43.93,1.41-57.81,18.1-2.88,5.3-4.88,11.63-5.24,17.66,1.78,10.27,4.75,22.12-1.85,31.34-4.19,5.37-9.54,9.56-12.54,15.8-3.46,4.98-7.85,8.37-10.05,13.96-3.75,11.52-4.66,23.62-5.22,35.61-.73,22.12-2.53,45.18,3.95,66.62,1.75,4.17,2.9,8.47,4.85,12.39,.9,2.8,3.25,7.2-.8,8.51-.29,.08-.58,.12-.86,.12-1.41,0-2.71-.95-3.14-2.39Z"/>
  <path d="M890.65,179.61c-.08,.46-.15,.92-.24,1.37,.07-.46,.15-.92,.24-1.37Z"/>
  <path d="M672.66,286.75c-3.18-1.81-6.78-2.84-9.41-5.49-4.66-4.95-8.04-11.94-10.03-18.25-6.04-17.38-7.42-37.7,.95-54.52,3.3-4.25,8.31,.78,4.83,4.67-7.85,20.31-4.25,44.4,7.66,62.24,2.31,2.93,6.13,3.92,9.28,5.72,3.67,2.06,.34,7.76-3.29,5.63Z"/>
  <path d="M873.93,201.07c.18-.78,.32-1.56,.41-2.35,.12-.19,.27-.38,.44-.58,1.22-1.22,3.39-1.29,4.59,0,2.12,1.86,3.91,3.95,5.41,6.22-.41,0-.81,.02-1.22,.05-2.03,.19-3.91,.8-5.58,1.75-1.42-1.57-3.57-3.24-4.05-5.09Z"/>
  <path d="M1043.16,796.04c-.92-5.47,9.12-5.69,12.75-6.78,4.98-.83,8.71-4.37,13.21-6.37,5.99-2.3,12.29-3.8,17.95-6.93,15.03-6.39,27.87-17.07,43.55-22.19,5.11-2.55,8.37-7.46,13.05-10.62,4.88-3.41,10.72-4.94,13.03-10.64,1.6-3.86,7.71-1.33,6,2.54-2.41,6.35-8.98,9.89-14.4,12.8-4.8,3.12-8.16,8.05-13.18,10.88-8.11,3.5-16.16,7.23-23.98,11.35-12.44,8.61-26.56,14.57-40.74,19.43-5.09,3.21-10.36,6.12-16.47,6.69-3.49,.38-8.89,4.76-10.77-.15Z"/>
  <path d="M758.1,256.37c-3.23-1.58-1.88-5.94,1.25-6.65,2.29-.66,5.23-2.55,7.4-.79,3.02-.76,6.63,1.71,4.9,4.94-1.09,1.98-3.51,1.76-5.45,1.84-2.68,0-5.61,2.21-8.1,.65Z"/>
  <path d="M787.4,256.38c-2.52,.14-5.91,.18-7.13-2.5-.8-1.9,.39-4.19,2.39-4.66,3.01-.66,6.17-.04,9.2,.14,1.69,.17,3.37,.83,3.85,2.64,.97,4.5-5.22,5.05-8.3,4.38Z"/>
  <path d="M751.68,262.56c-5.94,1.03-10.36-4.49-9.52-10.15,.04-9.01,7.5-15.06,11.19-22.61-.06,.11-.13,.25-.2,.37,.7-1.85,.59-3.96,1.22-5.85,1.07-4.08,7.43-2.35,6.29,1.73-.67,3.83-1.32,7.53-3.78,10.71-3.46,5.93-10.67,12.1-7.41,19.24,2.38-.16,5.48,.29,5.48,3.3,0,1.76-1.48,3.27-3.25,3.25Z"/>
  <path d="M769.42,307.37c-12.08-1.98-27.17,.34-36.3-9.2-1.45-.78-2.3-2.42-1.8-4.01-1.75,.71-3.8-.4-4.28-2.18-.9-4.7,5.49-4.47,8.34-6.22,4.81-1.36,9.62-3.44,14.62-3.25,11.23-.77,22.73-1.16,33.93,.25,7.75,1.12,15.53,3.17,23.3,2.8,2.92,.02,5.17,.27,7.7-.62,2.66-1.08,6.34-3.81,8.1-.03,1.04,2.32-1.09,4.15-2.76,5.42-2.68,2.41-5.76,4.21-9,5.72-12.38,8.46-26.87,12.34-41.84,11.31Zm9.38-6.62c9.51-.55,18.46-3.25,26.32-8.7-9.81,.11-19.37-2.97-29.1-3.66-13.34,.4-27.21-1.27-39.79,4.03,2.02,1.25,3.08,2.91,4.74,4.09,1.87,.97,4.36,1.32,6.31,1.89,10.46,1.25,21,3.18,31.55,2.35,0,0-.05,0-.05,0Z"/>
  <path d="M756.74,375.36c-25.77-1.7-46.62-20.8-58.25-42.65-4.37-4.81-5.76-11.83-9.69-16.9-4.25-4.94-4.88-11.84-7-17.82-1.47-2.76-2.2-5.8-3.66-8.51-2.1-3.61,3.52-6.98,5.63-3.29,.61,1.19,1.27,2.34,1.69,3.59,2.89,6.54,4.35,13.42,6.96,20.01,5.57,6.82,7.81,15.59,13.58,22.21,8.24,16.8,23.69,30.35,41.76,35.2,14.36,4.12,29.5,.28,43.89-1.48,11.01-2.13,22.47-3.83,31.02-11.68-.08,.05-.11,.07-.18,.11,14.7-10.36,19.99-27.35,29.86-41.45,2.61-3.99,4.69-18.8,11.08-16.12,3.18,1.97,.73,5.19-.56,7.54-3.9,11.74-11.39,21.07-16.61,32.08-8.31,13.4-19.29,26.15-34.47,31.64-17.92,4.6-36.51,7.88-55.06,7.52Z"/>
  <path d="M859.08,417.9c-1.51-7.17-2.46-8.57-4.68-14.98-2.09-15.24-4.39-30.9-3.47-46.3,.8-17.77,2.05-36.31,8.12-53.11,1.21-4.03,7.39-2.4,6.27,1.73-.71,2.08-1.49,4.14-2.08,5.8-7.17,30.02-7.67,61.43-2.14,91.71,1.98,4.03,3.23,8.17,3.95,12.57,.63,1.68,0,3.61-1.71,4.32-1.57,.66-3.66-.07-4.25-1.73Z"/>
  <path d="M675.54,417.1c-2.79-1.22-1.96-4.21-.91-6.38,2.2-8.33,3.86-16,6.22-24.16,2.82-14.29,2.87-28.86,3.75-43.37,.55-13.83,.66-27.65-2.41-41.18-.6-4.13,5.94-5.09,6.46-.88,3.75,16.43,2.81,33.11,2.07,49.79-.79,15.93-1.18,32.29-6.46,47.48-2,4.48-1.8,20.7-8.71,18.7Z"/>
  <path d="M864.33,305.39c-4.15-2.54,1.68-10.02,3.86-12.47,4.64-4.19,8.59-8.97,12.9-13.42,.02-.03,.04-.05,.06-.08,.51-.38,.97-.8,1.39-1.24,.58-.61,1.12-1.24,1.66-1.88,.49-.53,.98-1.03,1.51-1.53,1.78-1.53,3.49-3.07,4.86-4.98,1.27-1.76,2.42-3.63,3.41-5.58,1.32-2.58,2.76-5.12,3.51-7.95,.58-2.12,.76-4.27,1.12-6.41,0-.03,.02-.07,.02-.08,.71-1.98,1.37-3.91,1.51-6.07,.15-2.05,.24-4.07,.1-6.12-.15-2.44-.58-4.73-1.22-7.08-.19-.68-.37-1.37-.56-2.05,.14-1.03,.25-2.07,.36-3.1,.07-.63,.11-1.25,.14-1.87,5.25,8.77,6.85,19.95,3.93,29.61-.56,5.05-4.27,8.78-5.88,13.52-4.61,9.07-10.69,16.95-17.56,24.35-2.51,3.19-6.27,5.39-8.44,8.85-1.05,2.23-2.33,6.04-4.97,6.04-.51,0-1.07-.14-1.69-.46Z"/>
  <path d="M886.11,204.44c.16-.26,.33-.52,.49-.78,.02,.29,.05,.57,.09,.86-.19-.03-.39-.05-.58-.07Z"/>
  <path d="M890.54,121.16c.14,.26,.28,.52,.41,.78,.1,.25,.22,.51,.32,.78,.37,1.21,.7,2.42,.99,3.64-.56-1.75-1.13-3.48-1.73-5.19Z"/>
  <path d="M891.24,122.55s.02,.05,.03,.08c0-.03-.02-.06-.03-.08Z"/>
  <path d="M881.91,108.53c-1.68-3-2.1-7.24-3.86-10.02-5.49-9.61-4.85-21.3-1.75-31.52,.31-2.32,1.53-4.46,1.44-6.81-.17-2.36-1.53-4.44-2.78-6.36-2.58-3.27-4.98-7.12-8.02-9.95-1.88-1.03-3.54-3.03-2.25-5.2,4.39-5.29,9.86,4.25,12.49,7.3,5.73,6.37,9.03,13.96,5.49,22.29-2.44,8.39-3.64,17.78,.37,25.76,.19,.3,.37,.6,.54,.9-.04,.13-.08,.27-.12,.4-1.03,3.78-.15,7.22,1.12,10.71,.78,2.53,1.37,5.1,2.3,7.59,.43,1.14,.93,2.25,1.46,3.34-2.03-2.9-4.6-5.4-6.44-8.44Z"/>
  <path d="M665.43,106.69c-4.41-2.31,.05-7.26,.86-10.54,2.56-5.86,8.35-9.76,9.64-16.16,1.67-6.42,4.51-12.74,5.32-19.31,1.99-12.11,5.17-26.75,16.1-33.86,3.87-1.66,6.42,4.37,2.54,6-7.04,5.47-9.1,15.37-11.47,23.35-.65,8.94-3.62,17.08-6.22,25.52-1.42,6.4-6.04,11.09-9.56,16.12-1.83,3.08-2.21,10.39-7.22,8.88Z"/>
  <path d="M756.54,87.96c-17.43,.13-34.28-4.39-50.54-10.07-17.03-6.54-23.86-28.12-14.8-43.62,6.51-9.14,15.36-17.92,27.01-20.03,18.48-1.55,38.47-13.19,56.04-1.92,5.22-1.64,10.88-1.83,16.34-.12,16.19-.23,31.17,5.41,45.64,9.59,29.12,10.89,29.01,52.32-1.24,61.35-26.37,7.04-53.7,4.71-80.55,4.67,0,0,2.08,.14,2.08,.14Z"/>
  <path d="M877.04,201.86c-1.08-.64-2.02-1.47-2.8-2.44,.88-6-.93-12.22-4.98-16.98-.15-1.11-.27-2.23-.37-3.35,.1-1.26-.02-2.54-.31-3.78-.12-1.66-.22-3.32-.32-4.98,.15-12.47-1.9-25.51,1.34-37.62-.53-15.95-9.66-29.64-13-44.89-3.24-2.3-7.44-2.47-10.25-5.41-6.36-5.17-9.69-18.79,.36-21.68-.12-.56-.2-1.14-.15-1.71,.12-1.88,.85-3.56,2.08-4.73-4.14-4.44-9.2-7.05-14.59-9.51-3.02-1.58-4.58-5.15-7.59-6.54-5.97-1.03-13.85-2-16.44-8.36-3.68-10.52,4.95-16.08,14.57-15.25,10.9,3.68,22.78,8.17,30.15,17.47,.78,.1,1.54,.31,2.29,.61,1.24,.49,2.36,1.14,3.41,1.88,5.05-.36,9.44,3.46,12.66,6.91,5.42,5.19,9,12.27,7.9,19.93,3.39,5.12,.83,12.07,1.46,17.9,.54,4.64,1.15,9.22,1.86,13.76-.34,.71-.61,1.44-.83,2.22-1.05,3.78-.15,7.24,1.1,10.73,.8,2.53,1.39,5.08,2.32,7.58,1.08,2.91,2.61,5.58,4.05,8.3,.12,.27,.22,.53,.32,.8,.51,1.59,.92,3.22,1.29,4.86,.39,2.25,.51,4.54,.88,6.78,.37,2.42,.86,4.81,1.15,7.22,.07,.9,.12,1.8,.15,2.71-.07,1.53-.17,3.03-.31,4.56-.29,2.24-.73,4.44-.73,6.71,0,1.22-.02,2.42-.03,3.64-.05,.64-.1,1.3-.17,1.97-.31,2.29-.75,4.58-1.1,6.85-.24,1.37-.46,2.73-.75,4.08-.37,1.75-.53,3.54-.69,5.32-.07,.56-.15,1.1-.24,1.66-.37,1.9-.63,3.8-.86,5.73-.22,1.36-.41,2.71-.59,4.08,.05-.42,.1-.85,.17-1.29-.34,2.07-.58,4.14-.9,6.19,.05-.27,.1-.54,.15-.8-.12,.63-.24,1.27-.34,1.92-.02,.03-.02,.08-.03,.12-.76,2.15-1.54,4.3-1.71,6.59-1.47,.85-3.19,1.3-4.97,1.3-1.54,0-3.12-.36-4.61-1.08Z"/>
  <path d="M891.22,122.5l-.05-.15c.03,.1,.07,.19,.1,.27-.02-.03-.03-.08-.05-.12Z"/>
  <path d="M666.02,222.3c-4.86-1.57-3.52-8.21-5.86-11.51-4.99-8.84,.27-18.71,.67-27.97,.29-9.09,1.26-18,.35-27.11-1.66-7.88,.42-16.61,.79-24.73,1.08-10.86,4.99-21.03,8.15-31.37,2.08-4.4,3.3-9.89,7.72-12.55,2.7-6.82,4.73-12.71,5.94-19.62,.44-4.63,1.5-9.03,3.68-13.19,.78-2.28,1.67-4.8,3.71-6.19,4.4-3.62,11.51-.38,11.18,5.46,.54,0,1.08,.08,1.61,.22,.89,.25,1.76,.7,2.5,1.29,10.86,2.67,3.49,13.72-.44,19.33,8.29-2.17,16.07-.99,24.32-.17,18.7-2,37.75-6.8,56.1-10.18,12.23-2.48,23.24-8.14,35.01-11.19,7.87-3.14,12.9,8.65,5.07,12-5.51,1.88-9.99,2.95-14.83,4.77-16.46,7.37-34.34,8.8-51.6,13.03-11.14,1.9-22.46,4.9-33.81,4.42-4.38-.74-9.41-1.44-13.74-.7-2.48,.64-5.21,.69-7.54,1.78-4.58,3.77-8.57,8.15-10.78,13.71-5.04,6.91-8.74,15.6-11.53,23.29-2.74,5.44-4.6,11.14-5.76,17.1-2.17,17.99-2.79,36.16-2.71,54.18-1.44,8.09,6.51,28.95-8.2,25.9Z"/>
  <path d="M861.89,294.18c-3.07-1.3-1.69-4.56-.75-6.85,.99-4.62,2.41-9.28,2.8-13.95,0,0,0,0,0,0,.72-21.99,3.19-43.85,6.95-65.47,.33-.48,.65-.98,.94-1.5,2.89-5.12,3.31-11,1.65-16.33,.26-.11,.54-.19,.83-.23,1.75-.24,3.46,1.02,3.68,2.78,.41,20.25-5.49,40.32-6.46,60.55-1.03,10.69-.05,21.54-3.24,31.79-.89,3.09-1.17,9.41-5.08,9.41-.4,0-.84-.07-1.32-.21Z"/>
  <path d="M874.53,227.88c-3.33-.95-2.4-4.88-1.52-7.32,.99-4.12,2.32-8.21,3.66-12.2,.87-4.57,1.59-9.04,2.37-13.61,.28-1.36,1.24-2.45,2.53-2.74,.3-1.83,2.27-3.1,4.08-2.58,5.93,1.46-1.4,18.34-2.9,22.3-1.86,3.83-2.55,8.1-3.84,12.02-.07,2.34-1.74,4.89-4.38,4.13Z"/>
  <path d="M881.28,284.25c-5.14-4.3,4.13-10.39,6.32-13.81,1.29-2.36,1.19-5.25,2.73-7.54,1.73-3.08,4.06-5.05,5.12-8.19,1.15-3.66,1.64-8.04,1.8-11.73-.13-4.3,1.28-8.72,.05-12.83-4.18-5.27-6.88-11.54-14.51-11.55-1.24,1.74-3.74,2.42-5.35,.78-2.87-3.06,1.56-7.39,4.86-7.3,6.89-.06,12.77,3.4,16.46,9.17,2.66,3.47,5.98,7.01,5.56,11.73-.48,6.76-.46,13.7-1.75,20.24-.6,5.48-4.6,9.43-7.12,13.95-.68,5.07-3.59,8.97-7.31,12.26-1.8,2.19-3.26,6.81-6.86,4.84Z"/>
  <path d="M826.79,290.26c-1.24-4.01-3.93-7.02-6.34-10.27-1.08-1.42-.83-3.47,.58-4.58,5-3.41,10.59,9.41,12.03,13.12,1.18,4.04-5.14,5.83-6.27,1.73Z"/>
  <path d="M699.65,199.63c-4.87-5.56,6.77-10.1,10.44-12.34,5.61-3.1,12.1-3.14,18.24-4.17,9.94-.04,20.57,.14,28.46,6.65,2.76,.65,7.37,.8,6.43,4.84-.78,2.79-3.78,2.52-6.03,1.95-3.02-.2-5.22-2.41-7.61-3.95-12.03-4.35-26.71-4.38-38.15,1.37-2.3,1.17-4.43,2.18-6.31,3.87-1.08,1.97-3.45,3.35-5.47,1.77Z"/>
  <path d="M725.06,201.97c-5.36-.61-11.84-7.48-6.24-11.95,5.28-5.1,18.46-6.66,19.01,3.15,.9,7.09-7.02,9.68-12.78,8.8Z"/>
  <path d="M872.16,215.04c-1.58-1.3-1.64-3.36-1.9-5.24-.59-5.26-1.64-10.48-2.07-15.76-.54-5.25-.35-10.55-.2-15.81,.19-2.49,3.61-3.69,5.35-2.01,.5-.3,1.08-.46,1.67-.46,1.77,0,3.18,1.43,3.25,3.18,2.14,.48,2.56,2.88,2.45,4.79,.27,1.64,.49,3.57-1.04,4.64-.08,5.26-.19,10.99-.22,16.18-.06,1.39-.64,2.67-1.91,3.35,.56,3.73-.23,9.9-5.37,7.14Z"/>
  <path d="M823.09,205.6c-3.46-2.53-5.67-7.65-4.98-11.86,1.63-5.03,8.21-6.87,12.85-5.14,12.31,5.22,4.31,24.71-7.86,17Z"/>
  <path d="M797.23,200.06c-1.51-3.85,3.23-4.83,5.71-5.66,3.66-2.19,7.43-4.42,11.65-5.27,4.73-1.55,9.65-3.3,14.67-3.49,5.82,.65,11.33,2.73,16.62,4.9,1.6,.38,3.07,1.07,4.52,1.76,2.05,.05,3.96,1.6,3.65,3.79-.7,4.01-5.59,2.95-8.07,1.27-6.31-1.77-12.37-5.71-18.98-5.01-5.01,1.23-9.78,2.5-14.5,4.27-4.22,1.31-11.9,8.75-15.28,3.43Z"/>
  <path d="M802.77,181.59c-3.54-1.03-5.12-4.4-5.78-7.73-1.53-3.46-2.96-9.08,2.94-7.99,4.04-2.42,9.22-2.13,13.79-2.82,8.95-.46,18.5-.29,27.2,1.76,5.94,1.73,12.7,1.81,18.01,5.07,3.56,2.39,2.21,8.26-2.36,8.02-13.66-2.43-26.85,1.36-40.34,2.54-4.52-.14-8.96,2.23-13.47,1.15Zm2.05-6.19s.1,0,.15,0c-.09-.12-.17-.26-.24-.39-.18,0-.36-.03-.54-.06-.03,0-.06-.01-.08-.02,.16,.25,.43,.41,.71,.47Z"/>
  <path d="M748.38,178.6c-2.63-.8-4.85-1.6-7.23-2.8-5.58-.35-11.21-.9-16.82-.92-10.28-1.71-20.08,1.76-30.06,3.1-5.45-1.32-2.46-7.51,1.66-8.46,8.05-3.37,16.08-6.71,24.86-7.44,5.76-.15,11.46-3.3,17.17-3.22,3.64-.4,7.89-1.84,11.11,.59,.11,.01,.22,.04,.33,.06,3.92-1.57,5.26,3.44,5.32,6.33-.12,3.2,1.53,7.04-.31,9.87-.4,2.89-3.57,3.9-6.02,2.88Z"/>
  <path d="M539.36,736.22c-.41-.09-.79-.26-1.15-.46-24.46,2.46,17.22-68.67,29.37-69.5,14.2-6.51,17.74,10.5,13.29,20.68-5.74,15.66-13.31,31.33-26.15,42.4-4.3,3.55-9.33,8.32-15.35,6.88Zm18.25-24.27c-1.97,4.15-4.58,7.97-7.05,11.81-.28,.43-.56,.85-.84,1.28,7.01-5.98,12.88-13.88,17.14-21.97,2.23-4.8,16.95-33.65,4.45-31.27,.03,9.51-4.87,18.12-8.03,26.86,3.18,4.37-4.88,8.75-5.67,13.29Zm-8.46-1.76c-1.28,3.3-2.62,6.56-3.92,9.84,.82-1.25,1.64-2.51,2.43-3.78,1.04-1.68,2.04-3.37,3-5.09-.13-.09-.25-.19-.37-.3-.4-.36-.71-.75-.94-1.17-.06,.16-.13,.33-.19,.49Z"/>
  <path d="M549.42,812.97c-.19,0-.37,.02-.56,.02-5.69,1.14-11.46,1.44-17.1,.98-.63,1.88-1.34,3.73-2.13,5.53-.17,0-.34,0-.52,0-8.8-.12-17.57-.29-26.35-.49-2.54-.05-5.08-.08-7.63-.12-1.88-.22-3.78-.42-5.66-.63-17.91-1.92-35.79-4.22-53.77-5.41-8.47-.56-16.9-1.27-25.36-1.95-1.76-8.11-1.9-16.62-.14-25.07,.58-23.22,7.49-45.22,7.66-68.38,4.71-29.01,12.13-54.47,17.81-82.57,1.86-15.1,6.41-30,12.22-43.61,1.71-14.88,9.81-27.69,14.64-41.56,6.95-19.78,17.25-39.42,34.1-52.57,26.66-24.86,63.38-42.83,100.55-38.3,22.71,4.03,40.78,14.13,57.76,27.32,17.1,14.85,24.52,24.73,41.44,36.84,2.61,1.95,4.93,4.1,7.22,6.3,11.25,6.22,23.68,10.88,36.27,13.66,7.64-.75,16.12-2.64,23.66-4,11.42-1.59,20.52-7.56,28.59-15.56,5.15-3.61,10.81-6.66,14.73-11.19,18.9-21.2,41.3-41.23,70.25-46.32,39.27-46.89,81.33-11.41,127.34-3.46,11.27,2.64,20.71,7.78,26.27,11.95,8.9,4.52,17.08,9.47,24.42,16.66,9.85,12.02,20.3,22.98,27.88,36.79,7.05,14.46,16,28.49,19.83,44.18,4.76,11.73,9.36,20.95,13.1,31.51,8.24,17.34,18.54,33.83,23.95,52.33,16.78,32.86,13.85,73.54-18.56,95.74-23.01,17.37-54.32,19.73-80.53,8.32-14.35-5.49-29.79-7.66-45.05-8.73-25.49,56.05-95.99,45.42-146.87,48.93-21.54,1.78-41.56,3.53-60.94,4.69-46.4,2.51-92.8,5.08-139.21,7.73-17.96,1.53-35.76,4.29-45.39,4.9-8.4,.94-17.15,2.08-25.73,2.08-9.88,0-19.53-1.51-28.18-6.57Z"/>
  <path d="M658.53,523.21c-7.31-2.44-9.1-11.65-10.22-18.36-4.95,5.27-13.26,3.36-16.52-2.76-3.14-5.12-2.81-11.55-2.53-17.33-4.87,7.59-18.31,27.21-25.71,11.89-1.36-6.97,5.38-12.11,8.37-17.79,1.8-3.5,2.34-8,4.8-11.38-3.89,3.09-8.2,5.61-12.16,8.6,.92,3.52-.82,7.71-4.37,9.01-5.92,2.56-15.62,6.38-18.44-2.14-12.01,6.85-19.54-7.38-8.24-14.65-.26-3.48,2-6.91,5.44-7.87,3.94-2.48,7.7-5.34,11.9-7.42,5.85-3.56,12.71-5.11,18.22-9.17,5.47-2.1,10.69-4.74,15.95-7.22,9.56-2.7,17.89-9.25,27.22-12.46,3.61-1.04,7.66,.92,9.03,4.41,.94,2.65,.53,5.5,1.17,8.16,10.44,4,1.2,30.29,1.45,39.68,10.5,3.36,4.94,17.51,5.72,25.71-.33,7.91,1.1,23.33-11.08,21.08Z"/>
  <path d="M694.81,551.9c-5.87-3.37-10.84-8.09-14.07-14.07-8.85-12.94-16.01-26.91-19.96-42.17-3.06-6.7-9.73-18.34-.62-23-.17-.61-.32-1.22-.44-1.85-.41-2.12,.43-4.46,1.84-6.07-.66-3.33-1.23-6.67-1.7-10.05-.9-6.36-1.73-12.76-2.08-19.17-2.87-.62-5.24-3.43-5.56-6.32-.43-4.16,2.54-6.97,4.49-10.27,6.16-6.1,21.51-9.05,23.54,2.2,.63,6.9-3.86,12.84-3.98,19.54,3.67,15.32,.57,31.29,7.26,45.77,4.39,12.25,9.33,24.15,18.47,33.7,3.62,5.27,9.28,9.65,10.95,15.96,.8,4.23-2.41,8.77-6.72,9.09,.33,5.7-6.6,9.74-11.41,6.69Z"/>
  <path d="M779.04,548.01c-1.63-6.69,5.47-10.85,9.6-14.86,7.65-7.91,16.86-14.25,23.36-22.88,13.43-13.55,23.5-29.77,33.63-45.82,1.78-7.16,6.39-12.92,10.03-19.22,3.51-8.33,4.23-17.71,8.82-25.61-7.22-4.96-7.42-17.39,2.96-17.8,6.49,.29,11.83,5.39,12.68,11.78,6.55-1.35,10.69,5.53,15.82,8.23,15.45,8.21,34.11,9.73,48.13,20.5,5.22,3.48,6.55,12.02,.56,15.42-2.99,1.78-6.57,1.25-9.88,.91-8.32-.23-16.38-1.86-22.04-8.44,15.7,16.01,1.4,29.33-15.75,17.35,.87,5.12,4,11.18-.25,15.58-5.05,5.05-12.49,.76-13.76-5.48-2.1,9.82-12.89,21.47-20.38,8.99-9.12,13.3-18.92,26.4-30.62,37.55-11.91,9.69-23.78,19.15-37.69,25.84-5.05,4.21-12.75,5.54-15.24-2.05Z"/>
  <path d="M989,810.98c-5.84-3.37-3.05-10.53-2.71-15.9-11.23-3.39-4.42-17.99-2.31-25.78,5.11-12.08,7.84-27.29,18.48-35.73,17.78-10.28,39.45,10.73,53.69,20.18,6.23,3.95,17.56,1.68,18.94,11.21,7.88-6.76,16.99-11.25,26.74-14.64,2.71-2.9,6.75-4.19,10.17-5.81,9.67-4.84,16.77-11.58,26.63-15.58-1.72-2.55-2.84-5.74-3.8-8.34-.81-2.16-1.61-4.32-2.41-6.48-3.81,.28-7.82-2.56-8.15-6.55-.2-6-2.23-12.48-.2-18.32,2.04-5.12,9.28-6.34,13.02-2.39,2.08,2.24,3.32,4.94,4.48,7.74,5.04-3.71,11.78,.39,12.28,6.27,4.52,1.13,6.11,6.23,6.93,10.71,8.19,4.08,8.86,20.05-.23,23.38-3.1,4.36-8.16,6.11-12.52,8.75-6.73,6.36-15.31,9.68-22.69,15.06-17.74,12.93-38.19,20.97-58.51,28.65-3.83,4.16-8.86,8.42-14.69,8.92-5.42,.05-9.12-5.44-8.24-10.52-6.41-3.2-9.59-9.94-13.38-15.65-2.89-5.16-8.67-12.42-3.35-17.76-4.49-2.71-8.91-6.36-14.4-6.5-.33,1.36-.74,2.7-1.11,3.98-.35,1.24-.69,2.48-1.02,3.72,2.5,6.29,3.54,20.09-5.38,21.45-3.68,9.22,.49,43.03-16.25,35.92Z"/>
  <path d="M976.32,803.14c-3.48-.95-5.55-4.02-5.77-7.49-4.03-6.74,1.67-15.43,3.87-22.14,2.39-6.42,3.6-13.29,7.49-19.1,6.03-9.12,19.01,.27,12.35,8.93,2.78,9.19-1.79,19.46-4.66,28.24-2.06,5.66-6.13,13.39-13.29,11.56Z"/>
  <path d="M848.89,826.76c-9.1-.02-18.2-.2-27.3-.17-8.71,.02-17.42-.31-26.12-.32s-17.39-.17-26.07-.29c-18.25-.25-36.5-.53-54.74-1.03l1.88,.05c-17.85-.61-35.69-1.22-53.54-1.63-17.12-.39-34.27-.97-51.4-1.05-6.42-.03-12.85-.08-19.27-.12-2.58-.17-5.14-.32-7.69-.46,.64,.03,1.29,.08,1.93,.14-2.66-.19-5.34-.36-8-.54,.64,.05,1.29,.08,1.93,.14-8.78-.59-17.51-1.27-26.32-1.41-8.36-.12-16.71-.46-25.07-.58-7.07-.1-14.14-.22-21.2-.38-1.62-12.01,18.86-11.26,26.74-14.61,14.25-4.02,28.84-6.71,43.52-8.49,23.64,1.41,47.54,1.61,71.35,.75,6.64-.03,13.3-.02,19.96-.02,26.3,.03,52.57,.05,78.86-1.83,38.2,.47,76.33,0,114.46,.56-1.78-2.58-1.76-6.03,.02-8.71,2.17-3.3,6.13-3.58,9.66-4.07,5.22-.71,10.3-1.15,14.88-1.63,23.3-2.95,46.84-6.81,70.4-4.93,8.95,.61,31.08,.42,25.35,14.69,3.34,.92,6.68,.29,9.98,1.37,2.37,.86,4.27,2.61,6.32,4,9.29,.97,11.07,13.47,2.34,16.85-7.71,12.22-25,9.05-37.39,10.42-13.68,.44-27.42,.93-41.11,.92-19.85-.88-39.6,.82-59.34,2.57-5.01-.11-10.03-.2-15.04-.2Z"/>
  <path d="M739.67,821.85c-2.9,.27-6.03,.64-8.29-1.49-40.22-3.61-81.16-7.27-121.16-1.47-7.49,1.01-14.95,2.02-22.38,3.04-1.07-.06-2.14-.12-3.21-.18,.64,.03,1.29,.08,1.93,.14-2.66-.19-5.34-.36-8-.54,.64,.05,1.29,.08,1.93,.14-8.78-.59-17.51-1.27-26.32-1.41-8.36-.12-16.71-.46-25.07-.58-6.85-.09-13.7-.22-20.54-.36,.97-.17,1.94-.36,2.91-.55,53.35-8.1,107.02-20.39,161.12-17.42,16.46,1.41,33.01,.66,49.4,3.05,8.64,2,23.37-1.63,27.68,7.8,1.81,5.41-2.89,10.07-8.06,10.08-.65,0-1.31-.07-1.96-.23Z"/>
  <path d="M409.04,810.8c-.76-.06-1.51-.12-2.27-.19-1.46-6.61-2.59-13.32-3.53-19.95,.81-6.05,6.25-13.64,13.07-10.07,3.27,1.75,4.86,5.81,3.61,9.27-.06,7.34,.16,15.25,3.16,22.06-4.68-.37-9.35-.75-14.04-1.12Z"/>
  <path d="M1043.76,805.86c-3.31-5.74-9.91-14.97-1.36-19.39,8.87-3.82,11.44,7.33,15.08,12.91,4.17,8.96-9.29,15.41-13.73,6.47Z"/>
  <path d="M1047.05,815.75c-.37-3.76-3.11-7.85-4.86-10.78-9.71-13.7-13.91-30.13-23.3-43.97,.11,.11,.21,.22,.29,.3,.05,.05,.09,.09,.13,.13-4.48-5.02-10.06-15.94-1.86-20.13,3.58-1.69,8.54-.2,10.1,3.63,.8,1.82,1.29,3.99,2.37,5.68,9,12.42,14.88,27.23,21.34,41.06,4.73,6.7,9.63,13.29,10.76,21.49,1.59,9.72-13.11,12.39-14.96,2.59Z"/>
  <path class="cls-1" d="M732.64,632.7c-28.82-50.66-64.95-99.93-72.37-159.27-2.88-19.1,.31-38.53-.56-57.64,.07-1.78,1.88-3.08,3.56-2.91,4.61,.76,2.21,6.35,2.95,9.52,.54,14.74-1.38,29.47-.39,44.16,3.79,32.97,15.79,64.22,31.51,93.16,12.36,21.87,25.65,43.28,38.31,64.97,1,1.73,1.92,3.51,2.86,5.25,1.84,3.69-4.04,6.65-5.88,2.76Z"/>
  <path class="cls-1" d="M729.41,674.37c-3.6-2.46-1.65-7.77-1.47-11.39,1.09-8.73,1.2-17.51,2.98-26.15,.31-1.75,2.27-2.81,3.91-2.42,4.26,1.24,1.67,6.31,1.55,9.39,4.54-13.6,14.29-24.19,24.89-33.47,7.03-7.8,14.18-15.41,21.38-22.99,31.14-31.96,65.16-63.75,81.03-106.55,1.68-7.89,4.31-15.72,6.36-23.47,1.75-15.44,1.34-31.09,.97-46.57-.22-2.77-1.6-6.92,2.2-7.71,4.29-.46,3.95,4.57,4.32,7.56,.3,16.15,.84,32.44-1.2,48.5-1.95,7.32-4.32,13.94-5.81,21.3-14.64,43.29-48.13,76-79.55,107.58-8.15,8.74-16.34,17.14-24.13,26-12.01,10.66-23.76,23.18-26.32,39.69-.56,5.98-2.46,11.59-5.64,16.65-.66,2.66-2.28,5.56-5.46,4.07Z"/>
  <path class="cls-1" d="M744.7,651.81c-6.24-1.43-11.45-7.86-18-6.96-1.76,.19-3.44-.81-3.76-2.64-.27-1.66,.9-3.58,2.66-3.76,7.8-1.78,13.71,4.64,20.57,7.03,4.12,1.02,2.66,7.28-1.47,6.34Z"/>
  <path class="cls-1" d="M712.84,71.85c-4.67-12.82-8.87-28.41-1.19-40.88,.8-1.58,2.85-2.19,4.39-1.36,4.54,3.11-1.7,8.03-1.78,12.01-1.15,9.13,1.33,19.02,4.45,27.44,1.82,3.79-4.14,6.63-5.88,2.78Z"/>
  <path class="cls-1" d="M742.64,80.34c-4.78-1.5-1.15-7.01-.66-10.29,4.54-16.07,2.08-32.75,2.61-49.18-.09-4.23,6.35-4.49,6.49-.24-.45,17.68,2.04,35.79-3.32,52.96-.82,2.69-1.21,7.55-5.12,6.75Z"/>
  <path class="cls-1" d="M770.82,76.11c-4.11-1.15-1.81-5.72-1.51-8.65,.66-4.11,.97-8.31,1.08-12.5,.03-8.76,.03-17.53-.24-26.28-.07-1.78,1.37-3.3,3.14-3.37,5.84,.37,2.76,10.59,3.58,14.63-.53,5.94,2.25,37.53-6.05,36.18Z"/>
  <path class="cls-1" d="M805.18,77.69c-1.32-1.22-1.39-3.29-.2-4.61,6.51-8.47,4-20.29,4.2-30.2-.09-4.74-.39-9.51-.69-14.25-.12-1.78,1.41-3.3,3.14-3.37,1.81-.07,3.25,1.37,3.37,3.14,.11,15.44,4.07,32.49-3.31,46.79-1.33,2.19-4.05,4.73-6.51,2.51Z"/>
  <path class="cls-1" d="M826.94,74.77c-1.13-2.42,.91-4.29,3.01-5.08,1.83-.86,2.55-2.82,3.16-4.61,4.37-14.25,3.7-29.56,2.55-44.27-.25-1.75,.86-3.44,2.64-3.76,7.37-1.61,3.82,25.28,4.37,30.34-1.1,9.94-.86,24.2-11.41,28.95-1.57,.79-3.59,.03-4.34-1.56Z"/>
  <path class="cls-1" d="M1037.51,776.78c-6.51-7.45,14.92-14.48,18.67-18.97,7.66-8.51,15.67-16.83,25.49-22.89,5.98-2.98,11.84-5.22,17.1-9.27,14.42-9.3,29.16-19.87,46.44-22.35,2.56,.22,4.84-1.4,7.41-1.47,2.28-.1,4.2,2.33,3.32,4.51-.75,2.1-2.81,3.37-4.56,4.58-11.35,7.68-23.15,14.6-34.93,21.57-16.17,8.68-31.17,22.74-47.72,30.34-7.46,4.3-16.19,6.59-22.98,11.86-1.13,1.02-2.4,2.23-4.03,1.75-1.19,1.03-2.89,1.31-4.21,.35Z"/>
  <path class="cls-1" d="M1030.38,759.09c-3.96-2.45,.14-6.71,1.56-9.54,3.64-6.91,11.29-9.77,16.09-15.59,6.62-10.83,17.33-16.41,26.97-23.94,7.13-4.73,12.31-11.72,19.27-16.61,12.56-6.61,25.51-15.19,39.55-17.45,5.09-4.18,10.17,2.19,4.09,5.5-14.16,8.3-29.73,14.24-42.18,25.32-11.63,8.66-24.79,16.01-34.76,26.68-4.05,6.49-10.42,13.18-18.42,13.72-3.68,2.76-5.65,6.65-7.77,10.55-.87,1.56-2.85,2.18-4.41,1.36Z"/>
  <path class="cls-1" d="M489.48,818.25c-17.91-1.92-35.79-4.22-53.77-5.41-3.28-.22-6.56-.46-9.84-.71-5.7-2.47-10.88-6.01-16.14-9.29-1.51-.93-1.76-3.15-.8-4.54,1.05-1.49,2.98-1.71,4.49-.81,1.64-.64,3.51,.14,5.08,.75,12.76,4.56,25.98,9.52,39.18,12.32,8.41,.97,16.68,2.37,25.07,3.49,4.02,.8,8.95,1.07,11.81,4.3,.11,.16,.2,.33,.28,.49-1.78-.21-3.58-.4-5.37-.59Z"/>
  <path class="cls-1" d="M484.79,794.44c-13.8-.7-27.01-4.67-39.96-9.17-5.14-1.84-42.12-10.47-30.78-18.61,.17-4.22,5.1-3.99,7.66-1.93,10.89,6.59,22.97,10.72,35.22,13.64,12.11,3.82,24.06,9.05,36.83,8.63,.93-.2,1.85,.09,2.56,.67,1.89-.13,3.69,1.25,3.73,3.2-.13,5.67-11.33,3.29-15.25,3.57Z"/>
  <path class="cls-1" d="M492.08,813.39c1.63-19.8,4.52-39.75,9.86-58.94,1.89-7.97,4.08-15.86,6.73-23.61,.54-1.68,2.58-2.51,4.19-1.9,1.71,.64,2.44,2.49,1.9,4.19-5.22,16.97-10.29,34.25-12.64,51.88-.57,9.48-3.56,18.76-3.52,28.17,.05,4.21-6.34,4.48-6.51,.22Z"/>
  <path d="M1480.62,478.04s.04-.07,.05-.1c.11-.06,.24-.09,.38-.09,.09,0,.18,.01,.27,.03,0,.05,0,.1,0,.16,0,.03,0,.06,0,.09-.07,.06-.14,.12-.21,.19-.02,.02-.05,.05-.07,.07-.13-.13-.27-.25-.43-.34Z"/>
  <path d="M1463.35,337.68c0-.24,0-.49,0-.73,.16,.18,.26,.43,.26,.68,0,.26-.11,.49-.28,.67,0-.21,0-.41,.01-.62Z"/>
  <path d="M1461.62,337.59c0-.24,.09-.45,.23-.62-.04,.26-.07,.53-.11,.79-.01,.08-.03,.15-.04,.23-.05-.13-.08-.26-.08-.41Z"/>
  <path d="M1474.59,525.21l-.11-.02s-.04-.02-.06-.03c.19-.28,.51-.45,.86-.45,.01,0,.03,0,.04,0-.07,.08-.13,.15-.21,.23-.07,.07-.15,.13-.23,.19-.04,.02-.07,.04-.11,.05-.02,0-.04,.01-.06,.02-.03,0-.06,0-.09,0h-.03Z"/>
</svg>