<?xml version="1.0" encoding="UTF-8"?>
<svg xmlns="http://www.w3.org/2000/svg" viewBox="0 0 602.66 834">
  <defs>
    <style>
      .cls-1 {
        fill: #fff;
      }

      .cls-2 {
        fill: #f3c25f;
      }

      .cls-3 {
        fill: #f5cf1f;
      }

      .cls-4 {
        fill: #fbd679;
      }
    </style>
  </defs>
  <g id="Vektorebene">
    <path class="cls-3" d="M502.74,550.2v-.57c4.31,.04,8.62,.06,12.93,.1,6.43,.18,12.84,.36,19.26,.55-10.74,.5-21.48,1.01-32.21,1.52,.01-.53,.02-1.06,.02-1.59Z"/>
    <path class="cls-4" d="M206.46,426.36c0-22.04,18.4-40.44,40.44-40.44s40.44,18.4,40.44,40.44-18.4,40.44-40.44,40.44-40.44-18.4-40.44-40.44Z"/>
    <path class="cls-2" d="M243.5,757.51c-71.81-9.54-133.41-52.24-187.47-97.92-53.96-50.25-67.14-124.26-27.04-187.48,13.22-25.35,27.18-50.99,48.02-70.95,19.21-20.68,36.95-42.69,58.45-61.12,9.32-11.25,20.97-19.96,31.62-29.82,8.18-10.44,17.28-20.13,26.14-29.99,10.61-19.31,24.64-36.7,33.93-56.67,6.04-15.52,11.51-31.31,15.92-47.38,6.16-23.94,6.72-48.86,13.23-72.71,.52-1.83,1.04-3.63,1.55-5.39,5.06-2.02,10.09-4.1,15.07-6.33,16.7-7.49,32.58-16.55,49.08-24.45,1.66-.73,3.34-1.45,5.01-2.16,3.92-.35,7.86-.63,11.81-.86,11.31-.18,22.61-.02,33.93,.23,11.75,.28,23.46,.57,35.18,1.54,14.7,1.6,29.36,3.65,43.77,7,13.32,4,26.25,9.35,39.06,14.81-1.13,6.12-2.31,12.22-3.59,18.31-2.14,7.68-4.44,15.32-6.26,23.1-2.41,10.22-5.97,20.2-7.92,30.51-3.65,19.28-4.44,38.93-5.55,58.47-1.08,18.51,2.03,37.57,5.83,55.8,.16,1.07,.33,2.14,.5,3.21-.07-.61-.13-1.2-.19-1.81,0,.02,.01,.05,.01,.07,.78,5.92,1.73,11.82,2.69,17.72-.41,3.1-.72,6.2-.7,9.32,1.07,2.77,2.13,5.55,3.18,8.35,.27,1.99,.56,3.97,.87,5.97,2.82,17.84,5.8,36.38,11.14,53.72,1.09,3.54,2.21,7.02,3.39,10.47,.51,3.33,1.08,6.63,1.73,9.93,5.07,10.73,9.96,29.44,10.55,39.35,2.92,17,.22,33.87,8.96,49.27,17.1,42.48,28.93,90.86,13.66,135.56-10.47,43.67-43.5,76.46-82.56,96.36-46.42,32.74-102.24,49.47-158.56,49.47-14.82,0-29.67-1.15-44.4-3.49Zm-63.01-348.83c7.07,.96,14.06,2.65,20.72,4.67,4.39,1.34,8.75,2.96,13.05,4.84,3.62-5.1,7.98-9.77,13.21-13.83,4.9-3.79,10.47-6.68,16.37-8.63-4.93-4.78-9.3-10.18-13.48-15.61-3.01-3.91-5.23-8.01-6.77-12.24-14.74,13.26-28.93,26.92-43.1,40.8Z"/>
    <path class="cls-2" d="M333.62,823.79c-52.21-8.69-100.35-38.42-136.4-76.52-40.26-52.91-56.33-132.82-28.14-194.34,66.5-79.23,191.98-31.19,251.38,34.06,39.53,5.46,72.06,38.96,82.18,76.63,14.91-20.8,8.09-49.06,4.89-72.67-14.02-38.5-45.17-70.21-50.78-111.74-70.5,26.36-149.32-9.33-191.92-67.83-.83-.05-1.65-.12-2.48-.21-3.46-.35-6.9-.89-10.33-1.46-6.96,37.09-17.53,90.95-67.26,84.28-48.11-11.4-47.66-75.92-40.33-115.1-.55-35.9-15.21-71.9-6.21-107.98,8.49-40.01,25.87-82.74,54.74-111.54,18.18-24.28,40.16-45.93,66.04-61.78,4.67-1.87,9.32-3.81,13.91-5.87,13.23-5.94,25.95-12.87,38.87-19.41,13.08-4.41,26.04-7.14,39.23-8.15,7.24,.02,14.48,.15,21.72,.32,2.5,.06,5,.11,7.49,.18,12.7,1.37,25.83,4.21,39.68,8.56,6.48-2,13.29-2.81,20.29-2.61,3.84,.72,7.68,1.51,11.49,2.4,15.18,4.56,29.84,10.86,44.41,17.1,.73,.33,1.47,.65,2.2,.97,33.22,21.01,62.19,54.39,71.99,81.77,14.9,54.28,11.28,113.28-3.52,167.23-16.25,45.71-38.45,82.59-28.77,133.56,13.96,31,35.23,58.76,46.09,91.31,10.75,44.3,15.58,96.12-9.7,136.41-12.03,23.33-33.91,37.83-52.69,55.06-38.82,46.04-90.35,71.52-147.55,71.52-13.24,0-26.77-1.36-40.53-4.15Zm-95.43-225.89c-8.81,54.45,11.67,103.2,61.83,128.36-8.32-37.71,3.01-81.88,29.64-110.09-18.99-12.47-42.62-23.22-65.86-23.22-8.67,0-17.29,1.5-25.6,4.96Zm194.13-279.23c-3.82,3.77-7.87,7.18-12.09,10.35,.44,6,1.54,12.02,3.5,17.72,10.09-10.15,22.66-24.57,19.37-39.76-3.39,4.03-6.98,7.93-10.78,11.69Z"/>
    <path class="cls-2" d="M75.14,477.79c-18.26-19.42-10.39-48.62,9.4-63.6,14.69-36.75,39.15-69.94,46.1-109.43,16.42-38.02,25.41-78.92,43.16-116.63,24.93-47.06,94.61-13.42,72.84,35.21-28.47,64.44-39.63,135.62-76.09,196.51-14.69,38.91-49.6,98.9-95.4,57.94Z"/>
    <path class="cls-2" d="M113.46,421.36c-24.9-17.25-22.3-47.76-2.85-68.37,8.48-23.34,12.34-47.84,19.27-71.64,8.04-47.43,16-95.75,36.7-139.59,22.55-35.11,48.22-71.75,86.2-91.31C300.51,12.63,363.68,1.51,422.6,14.36c38.96,3.34,65.63,29.67,92.17,55.47,15.14,12.15,25.21,29.12,30.88,47.52,20.51,53.77,8.02,111.81-10.75,164.14-10.95,52.85-87.99,39.16-79.69-14.05,11.7-42.28,31.94-87.67,11.26-130.69-11.13-14-26.41-25.69-39.79-37.91-40.45-14-89.18-12.99-123.43,15.23-10.01,6.97-21.67,11.62-30.43,20.27-12.57,16.43-25.44,28.74-35.22,46.38-30.03,51.32-30.1,288.95-124.15,240.64Z"/>
  </g>
  <g id="Vektorebene-2" data-name="Vektorebene">
    <path d="M135.25,473.41c0-1.28,1.06-2.33,2.33-2.33s2.33,1.06,2.33,2.33-1.06,2.33-2.33,2.33-2.33-1.06-2.33-2.33Z"/>
    <path d="M294.09,263.3c-2.31-10.37-4.92-20.9-4.97-31.56,.94-21.09,6.68-42.55,17.75-60.54,2.61-4.1,3.01-9.05,5.25-13.32,3.62-6.83,6.44-14.5,12.53-19.53,13.22-16.44,38.23-16.85,55.85-7.59,32.12,13.55,24.85,29.22,24.64,57.85,0,4.92,1.43,10.26,4.98,13.77,6.96,5.48,14.17,11.47,15.53,20.79,2.66,7.02,1.54,13.68-.95,20.12-.42-.5-.9-.98-1.45-1.31-.41-.61-.89-1.15-1.52-1.56-.24-.15-.49-.27-.76-.34,1.23-3.32,1.91-6.76,1.43-10.41-.73-3.79-1.7-7.44-3-11.01-2.42-5.13-7.15-8.43-11.4-11.92-16-14.62-.92-38.42-9.05-55.84-3.46-7.53-11.08-11.45-18.19-14.86-12.52-6.68-28.98-9.77-41.91-2.98-2.43,1.63-5.42,2.79-7.55,4.8-2.2,2.76-4.88,5.04-7.24,7.63-4.24,7.35-8.54,14.62-10.69,22.84-3.11,7.29-8.24,13.23-10.12,21.06-6.66,15.48-10.57,33.08-8.99,49.93,1.69,10.98,3.73,21.95,6.6,32.66,1.94,4.93,3.95,9.98,6.19,14.82-1.53,.26-3.04,.7-4.46,1.4-3.5-8.09-7.44-16.08-8.49-24.92Z"/>
    <path d="M507.5,258.11c.32-.15,.64-.31,.96-.46-.24,.26-.48,.51-.72,.76-.09-.09-.17-.19-.24-.3Z"/>
    <path d="M287.2,251.54c-4.68-2.42-4.97-7.32-6.82-11.53-3.23-5.54-5.35-11.51-6.64-17.72-1.29-4.84-2.77-10.14-1.19-15.04,.23-4.09-1.62-7.8-2.84-11.56-.94-5.42-1.24-10.92-1.68-16.39-.34-4.94,1.39-9.46,4.47-13.25,3.8-8.46,4.91-18.45,10.41-25.98,3.01-6.45,7.46-11.2,13.49-14.75,5.63-7.1,11.34-14.3,16.84-21.44,4.08-4.6,10.65-5.42,16.32-6.74,8.06-.14,14.78,5.82,21.53,9.54,4.25,1.9,8.13-2.77,10.1-6.05,6.47-11.56,10.48-14.16,23.56-16.41,11.27-2.98,22.53,1.78,32.03,7.59,3.5,2.78,7.12,4.68,9.95,8,2.53,3.63,4.88,7.41,6.76,11.42,5.71,11.56,2.7,25.41,8.25,37.04,1.31,3.44,3.89,5.74,6.1,8.51,5.68,7.9,3.02,18.57,1.66,27.47-1.46,6.87-5.7,13.13-6.89,19.84-.68,10.43,3.27,21.61-1.25,31.6-2.63,5.67-8.01,8.99-14.2,7.34-1.17-.5-1.62-2-1.08-3.11,.95-2.09,3.34-.86,5.02-1.28,4.58-.29,6.86-5.6,7.41-9.56,1.45-9.38-1.94-18.77-.07-28,4.37-11.24,9.08-22.45,8.05-34.67-.02-2.78-1.12-5.32-2.78-7.36-14.47-13.37-6.79-35.54-17.12-50.89-5.76-10.62-17.7-16.22-28.81-19.68-8.45-1.38-17.36,.73-24.97,4.31-4.73,3.79-6.62,10.12-10.77,14.47-3.14,3.43-8.42,6-12.9,3.67-6.9-3.43-14.04-11.08-22.25-8.44-2.57,.88-5.52,1.23-7.89,2.59-2.47,1.52-3.87,4.06-5.59,6.21-4.64,5.99-9.28,11.98-14.14,17.75-3.36,2.43-7.14,4.31-9.19,8.11-3.64,5.36-6.79,11.28-8.72,17.4-2.03,6.58-3.79,13.18-7.92,18.78-1.72,6.79,.17,13.79,.69,20.6,.76,2.99,2.18,5.79,2.72,8.85,1.15,4.41-1.14,8.66,.15,13.03,1.41,5.67,2.16,11.59,4.97,16.77,.96,2.84,2.65,5.03,3.66,7.78,.42,1.49,.68,2.86,1.26,4.26,.5,1.38,1.68,2.25,2.86,3.03,2.56,1.58-.08,5.65-2.55,3.91Z"/>
    <path d="M562.77,287.11c-.05,.06-.11,.12-.17,.17,.06-.05,.11-.11,.17-.17Z"/>
    <path d="M562.63,287.26s0,0,0,0c-.01,0-.02,.02-.03,.03,.01,0,.02-.02,.03-.03Z"/>
    <path d="M369.76,198.4c-.99-3.36,3.52-3.38,5.52-4.42,7.02-3.22,15.35-5.62,22.98-4.01,2.77,.21,5.3,1.52,7.64,2.92,2.32,1.92-.72,5.5-3.01,3.56-2.2-1.11-4.38-2-6.88-2.07-5.16-1.16-10.15,.99-15.07,2.2-3.02,.59-9.11,5.73-11.19,1.82Z"/>
    <path d="M373.28,203.36c-2.56-.45-2.49-3.34-2.94-5.35-.23-1.25,.51-2.5,1.77-2.78,1.94-.43,2.96,1.4,3.04,3.08,6.55-2.75,13.88-3.67,20.9-3.17,2.96-.05,10.23-1.5,9.63,3.32-.38,1.17-1.76,1.94-2.94,1.49-2.29-.77-4.68-.18-7.02-.15-3.75-.33-7.29,.04-10.98,.46-3.97,.42-7.52,3.02-11.46,3.09Z"/>
    <path d="M313.02,201.05c-4.1-2.43,.32-6.61,3.26-7.66,3.68-.93,7.35-2.45,11.2-2.03,2.05-.46,4.2-1.2,6.31-.74,3.19,.01,6,1.01,8.8,2.38,2.84,.6,6.85,.8,8.45,3.52,2.63,1.49,.12,5.58-2.37,4-1.73-.93-4.24-1.21-6.06-1.19-10.01-.89-19.78,3.04-29.58,1.71Z"/>
    <path d="M407.36,212.89c-.16-.14-.33-.27-.5-.4-.58-2.35-2.02-4.48-4.19-5.84-.84-.53-1.79-1.02-2.72-1.39-.95-.38-1.93-.79-2.95-.92-.92-.12-1.79-.11-2.67-.06-1.73-.18-3.38-.16-5.19,.32-.52,.11-1.05,.22-1.56,.34-.03-.02-.06-.04-.08-.06,.23-.05,.45-.09,.68-.12,7.61-2.84,16.68-.13,22.64,5.01,1.56,1.66-.06,3.9-1.83,3.9-.56,0-1.13-.22-1.62-.76Z"/>
    <path d="M390.04,204.4c-.27,.06-.52,.11-.79,.17,.26-.06,.52-.12,.79-.17Z"/>
    <path d="M368.56,232.59c-.52-2.54-.83-5.12-.79-7.73-.16-3.25-1.67-15.36,3.24-14.84,1.26,.24,2.09,1.48,1.87,2.73-.51,3-1.25,6.06-.62,9.08,.37,3.98,.1,7.75,1.2,11.53-.23,.07-.45,.14-.68,.22-1.38-.52-2.79-.85-4.22-.99Z"/>
    <path d="M350.55,324.73c-6.1-.23-11.62-2.76-17.04-5.32-2.58-1.31-5.44-2.04-7.52-4.14-5.78-5.14-9.79-11.58-14.9-17.33-2.98-1.96-4.33-5.27-6.45-7.86-2.14-1.69-6.31-6.34-3.07-8.59,2.92-1.32,3.4,2.27,4.69,3.82,2.27,1.77,3.94,4.36,5.37,6.77,6.73,5.98,11.05,14.06,17.79,20.03,7.9,4.29,16.77,9.13,26.03,7.73,10.72-2.28,20.67-7.79,28.36-15.53,.35-.06,.69-.19,1.02-.37,.36-.19,.69-.47,.98-.78,.35-.21,.68-.45,1.02-.72,.51-.39,1.01-.8,1.48-1.23,.07-.06,.16-.12,.23-.19,.09-.05,.17-.09,.27-.12l.11-.04c.04,.07,.06,.13,.09,.21,.05,.13,.09,.28,.13,.43-.01,.06-.01,.11-.02,.17-.04,.35,0,.7,.01,1.06,.07,.92,.07,1.88,.28,2.77-4.19,4.62-9.72,8.04-14.55,11.87-7.25,3.55-14.96,7.4-23.18,7.4-.38,0-.75,0-1.13-.02Z"/>
    <path d="M388.97,300.84s.05,.06,.06,.09c-.02-.02-.04-.06-.06-.09Z"/>
    <path d="M330.32,217.27c-5.61,.24-9.94-7.99-4.31-11.19,2.37-2.22,5.55-2.34,8.46-1.15,1.96,.59,4.51,2.87,3.38,5.07,1.18,3.9-4.12,7.28-7.52,7.28Zm.38-4.65c.99-.22,1.76-1.02,2.55-1.61-.14-.7-.58-1.26-.93-1.86-2.06-.82-2.92,.07-4.33,1.34,.36,1.28,1.32,2.22,2.71,2.12Z"/>
    <path d="M312.17,211.02c-1.48-3.53,3.72-4.5,6-5.59,5.15-3.24,12.4-3.1,18.3-3.03,4.01,.37,8.03,2.32,11.29,4.47,2.59,1.56,.13,5.6-2.42,3.99-.66-.48-1.42-.97-2.12-1.33-3.68-2.11-7.73-2.96-11.92-2.46-3.14,.28-6.53,.4-9.44,1.54-1.46,1.02-3.12,1.7-4.7,2.18-1.51,1.07-3.74,2.36-4.99,.23Z"/>
    <path d="M375.78,212.8c-.32-1.22,.47-2.69,1.78-2.88,.76-.61,1.34-1.36,2.16-1.91,1.86-.86,3.55-1.8,5.24-2.98,3.91-1.78,8.4-1.93,12.61-1.52,3.58,1.1,8.1,1.98,10.3,5.18,2.41,3.48-2.69,5.68-4.35,1.97-5.11-2.76-11.62-3.85-17.01-1.15-1.3,1.27-3.07,1.7-4.55,2.65-1.44,1.84-5.07,3.86-6.19,.64Z"/>
    <path d="M392.14,217.37c-2.67-.62-3.73-3.57-4.33-5.95-.31-3.66,3.07-6.63,6.48-6.94,4.96-.4,5.08,5.89,.1,4.68-.84,.28-1.65,.79-1.94,1.67,.24,.86,.51,1.33,.89,2.03,.01,0,.02,0,.03,0,.03,0,.06,.01,.09,.02,2.08-.84,2.54-4.37,5.33-2.86,3.78,2.85-3.41,8.76-6.66,7.34Z"/>
    <path d="M395.73,214.16c-.96-.75-1.22-2.32-.38-3.28,.43-.31,.28-.81,.14-1.24-4.47-2.43-.17-7.01,3.21-3.44,2.98,2.27,1.51,10.37-2.98,7.96Z"/>
    <path d="M385.87,355.48c.01-1.28,1.07-2.32,2.35-2.32s2.33,1.08,2.32,2.35c-.01,1.28-1.07,2.32-2.35,2.32s-2.33-1.08-2.32-2.35Z"/>
    <path d="M334.69,370.65c-7.96-.48-15.88-.92-23.61-3.05-10.42-2.94-19.18-9.37-28.47-14.56-5.38-3.01-8.74-8.14-11.78-13.27-3.22-3.27-6.56-6.67-8.14-11.08-1.84-7.3,3.22-6.2,8-7.97,4.85-1.75,9.42-4.32,13.89-6.85,9.28-3.99,10.87-14.64,10.68-23.68,.69-4.95,.63-9.69,.23-14.51-.63-2.83,3.85-3.96,4.53-1.06,1.03,6.62-.1,12.82-.11,19.37-.48,6.51-1.6,13.82-6.02,18.87-2.5,2.02-4.91,4.14-7.79,5.56-6.12,3.17-12.17,7.13-19.08,8.01,.83,4.06,4,6.77,6.67,9.57,2.76,3.06,4.18,7.25,7.29,10.04,13.32,9.38,28.18,18.71,44.87,19.31,12.23,1.38,25.48,.19,36.28-6.04,8.65-5.37,15.76-13.77,20.04-22.9,1.03-3.97,2.28-7.89,2.79-11.96-.3-5.23-.88-10.41-.27-15.59-.59-3.38,4.46-4.15,4.68-.63-.26,4.65-.58,9.26,.21,13.86,.04,16.59-10.63,31.66-24.05,40.6-9.09,5.87-20.2,7.54-30.85,7.98Z"/>
    <path d="M80.8,596.47c-3.55-8.04-.86-16.89-.03-25.06,1.98-15.08,4.19-30.23,8.12-44.95,2.47-15.92,6.84-31.34,11.59-46.7,4.46-18.53,12.48-35.77,20.78-52.83,7.52-16.27,15.66-32.39,25.13-47.61,5.63-7.07,11.77-13.69,17.58-20.58,8.83-7.8,19.17-13.37,29.69-18.57,6.76-1.99,14.23-2,20.89-4.43,5.28-3.42,11.84-4.22,16.95-7.55,5.04-5.86,10.67-11.3,18.1-13.99,6.19-1.53,12.55-4.52,18.94-4.31,5.42-1.04,10.25,1.82,15.38,3.11,2.84,.99,1.56,5.3-1.41,4.45-3.25-.85-6.39-2.1-9.6-3.06-3.23,.02-6.08,.19-9.18,.54-7.38,2.25-15.15,3.72-21.34,8.65-2.51,1.97-4.01,4.11-6.03,6.38-2.86,3.57-7.4,4.56-11.4,6.31-3.51,.86-6.18,2.61-9.37,4.08-6.88,2.42-14.48,2.27-21.35,4.63-9.65,5.22-19.5,10.14-27.6,17.68-7.6,9.53-16.83,17.89-22.24,28.89-11.75,22.01-22.9,44.31-32.59,67.31-10.05,30.05-18.02,60.89-23.22,92.11-1.94,12.77-4.71,25.87-4.93,38.61,.42,2.02,1.13,3.89,1.67,5.86,.73,2.85-3.86,4.06-4.54,1.05Z"/>
    <path d="M160.9,606.11c-3.69-1.68,.17-6.88,1.06-9.47,2.25-4.54,3.58-9.12,5.78-13.55,1-2.01,2.63-4.11,3.44-6.15,.87-2.44,.57-5.16,1.62-7.58,.64-1.41,2.44-1.7,3.61-.79,.7,.55,.86,1.4,.85,2.24-.01,3.63-.55,7.25-1.41,10.78-1.72,7.39-2.66,14.97-4.55,22.32-.36,1.22-1.74,1.9-2.93,1.52-1.23-.39-1.88-1.71-1.52-2.93,1.03-3.34,1.38-6.82,2.07-10.24-1.09,2.98-2.68,6.12-3.95,8.92-.83,1.95-1.08,5.75-4.07,4.93Z"/>
    <path d="M485.45,604.37c-1.24-.21-2.14-1.45-1.91-2.7,1.44-6.77-.57-13.37-.4-20.18,.13-8.61,2.7-17.55,2.24-26.05-.71-13.42-3.04-26.44-3.31-39.84-.16-16.33-1.39-32.43-2.47-48.67-.67-9.29-3.04-18.14-3.29-27.39-.37-4.89-1.46-9.73-2.18-14.5-1.28-11.33-3.35-22.42-7.52-33.06-2.07-7.87-1.62-16.65-6.17-23.7-3.32-5.68-7.01-11.05-12.74-14.54-4.3-3.45-7.67-7.65-12.87-9.73-5.99-4.08-12.35-7.96-19.34-9.72-4.73-.97-9.65-.61-14.34-1.83-3.54-1.04-6.94-2.41-10.55-3.21-1.24-.33-1.9-1.76-1.52-2.93,1.67-4.19,10.26,1.44,13.45,1.68,4.25,.9,8.27,.77,12.49,1.43,7.91,1.52,15.31,5.8,21.8,10.34,3.72,1.75,7.21,4.06,10.01,7.05,5.61,4.92,12.11,8.85,15.5,15.8,6.71,8.35,6.63,19.09,9.01,29,4.38,10.57,6.01,21.86,7.44,33.11,1.62,7.95,2.2,15.85,2.96,23.91,3.26,14.79,2.88,30,4.18,44.96,1.38,15.12,.15,30.36,2.8,45.32,.81,7.77,1.56,15.5,1.11,23.33-.16,6.59-2.22,13.43-2.02,19.89-.6,4.88,3.93,22.09-2.37,22.22Z"/>
    <path d="M415.68,609.06c-2.45-14.48-1.46-28.93-.9-43.5,.35-18.35,4.24-36.41,6.77-54.54,.61-13.96,.89-27.91,3.24-41.74,.96-6.33,.29-12.7,1.81-18.9,.56-2.93,5.11-2.27,4.59,.79-1.7,12.09-1.95,24.32-4.02,36.34-.9,9.38,.11,18.86-1.54,28.18-3.77,20.98-6.48,42.04-6.7,63.32-.62,9.91-.09,19.79,1.38,29.6,.26,2.95-4.32,3.52-4.64,.45Z"/>
    <path d="M288.01,597.44c-2.46-1.74,.08-4.31,1.01-6.2,3.05-5.7,5.54-11.71,8.19-17.62,11.72-24.14,24.69-47.79,35.68-72.25-.05,.14-.07,.18-.11,.29,6.73-18.84,16.69-36.07,25.42-53.99,3.04-5.79,6.86-11.12,9.72-16.98,1.97-2.18,3.08-8.54,6.84-6.78,2.56,1.86-.31,4.62-1.28,6.59-2.66,4.22-4.6,8.85-7.49,12.93-9.62,17.74-19.16,35.76-26.76,54.44-4.94,14.4-13.24,27.22-19.48,41.04-4.03,9.26-8.93,18.06-13.62,27-4.24,8.11-7.59,16.65-11.6,24.86-1.76,2.35-2.69,8.32-6.53,6.67Z"/>
    <path d="M248.09,586.86c-3.44-2.36,3.66-9.08,4.69-12.03,11.74-20.31,22.81-40.78,32.98-61.81,1.59-2.53,5.59-.02,3.92,2.53-5.4,11.03-10.78,22.71-17.15,33.09-6.36,11.98-12.61,24.03-19.96,35.45-.88,1.67-2.28,4.13-4.48,2.78Z"/>
    <path d="M362.27,254.86c-1.76-.58-3.49-1.03-5.35-.66-3,.2-3.25-4.53-.23-4.65,1.29-.11,2.55-.27,3.83,0,1.98,.55,4.12,1.35,5.99,.05,2.27-1.34,7.82-3.07,8.01,1.05-.21,2.06-2.06,2.18-3.7,2.17-2.78,1.02-5.43,2.81-8.55,2.03Z"/>
    <path d="M355.08,254.48c-1.15-.92-2.57-.68-3.95-.82-3.28-.62-2.11-5.35,1.09-4.6,2.53-.16,7.57,1.14,5.95,4.57-.63,1.02-2.03,1.45-3.09,.85Z"/>
    <path d="M372.72,276.53c.11-.05,.21-.11,.3-.17,.26-.04,.5-.06,.74-.1,.09,0,.18-.02,.28-.03-.05,.03-.09,.06-.14,.09-.39,.09-.79,.17-1.18,.23h0Z"/>
    <path d="M380.34,268.95s-.02-.01-.04-.01c-.06-.01-.11-.01-.17-.02,.49-.16,.98-.29,1.49-.39,.52-.15,.98-.13,1.38,0-.14,0-.27,.01-.4,.04-.29,.06-.56,.18-.78,.36-.08,0-.15,.01-.23,.02-.43-.09-.84-.06-1.25,0Z"/>
    <path d="M382.22,266.11c-.56-.49-1.15-.98-1.72-1.37-.62,2.44-3.56,2.83-5.44,1.53-1.49,.87-3.27,.23-4.61-.15-.92,.39-1.89,.65-2.9,.48-1.37-.17-2.17-1.05-3.35-1.33-1.05,.11-2.12,.24-3.13-.15-1.48,1.44-3.68,1.56-5.51,.86-1.49,1.12-3.72,1.61-5.25,.34-1.53,1.72-4.51,1.27-5.35-.94-2,1.55-5.19,1.04-6.22-1.39-.96,.69-2.27,1.2-3.45,1.04-.73-.1-1.3-.47-1.72-.99-1.73,3.28-6.31,.37-3.98-2.55,1.64-2.05,4.38-8.21,7.59-6.12,1.08,.83,1.22,2.51,.24,3.48,0,.05,.02,.1,.02,.14,.57-.46,1.18-.85,1.85-.96,2.83-2.71,7.22-2.18,10.78-3.06,4.21-.13,7.62,1.73,11.7,1.14,3.12,.73,5.13,.24,8.07,.61,2.44-.37,6.7,.39,4.97,3.75,.08,.05,.15,.1,.22,.15,.09-.03,.18-.05,.27-.07,.63-.12,1.24-.03,1.85,.09,2.58-3.38,6.24-.48,8.43,1.79,.86,.79,1.85,1.71,1.85,2.96-.35,3.37-3.8,2.53-5.44,.51,0,0,.23,.19,.23,.19Zm-29.53-3.83c.16-.1,.32-.2,.48-.31,.06-.04,.12-.08,.18-.11-.68-.2-1.24-.59-1.78-1.03-.64,.37-1.4,.12-2.03,.43,1.18-.31,2.31,.22,3.15,1.02Z"/>
    <path d="M375.99,269.23c-2.83-1.09-4.16-4.32-6.44-6.2-2.14-2.13,1.19-5.45,3.3-3.31,1.23,1.3,2.47,2.58,3.62,3.96,1.36-1.94,4.84-.77,4.45,1.67-.7,1.95-2.54,4.44-4.93,3.86Z"/>
    <path d="M387.8,282.77c-2.35-1.44-.34-3.88,.27-5.73,1.37-3.48,.69-7.51-.63-10.76-.43-2.87-4.5-7.23-1.08-9.34,1.12-.47,2.62,.05,3.05,1.25,2.49,6.63,5.93,13.77,2.9,20.83-.71,1.93-1.92,5.15-4.52,3.75Z"/>
    <path d="M321.93,279.84c-3.87-2.96-2.45-9.18-2.02-13.35,.07-3.62,1.55-6.98,4.02-9.6,1.52-1.7,5.04-3.48,6.01-.37,2.6,2.89-1.48,4.3-3.58,5.25-1.12,1.02-1.21,2.91-1.66,4.33-.31,2.82-.58,5.75-.14,8.57,1.02,2.44,.96,6.07-2.64,5.17Z"/>
    <path d="M328.05,211.11c0-1.28,1.06-2.33,2.33-2.33s2.33,1.06,2.33,2.33-1.06,2.33-2.33,2.33-2.33-1.06-2.33-2.33Z"/>
    <path d="M391.7,212.12c0-1.28,1.06-2.33,2.33-2.33s2.33,1.06,2.33,2.33-1.06,2.33-2.33,2.33-2.33-1.06-2.33-2.33Z"/>
    <path d="M380.93,601.63c-30.1-4.62-62.48-13.19-92.13-17.52-14.45-2.42-28.67-4.58-43.31-5.25-11.22-.52-22.44-6.28-30.8-14.1-23.35-4.05-48.12-13.78-58.01-37.16-9.68-20.8-3.67-47.54,13.64-62.26,2.49-8.68,7.16-16.7,13.41-23.34-5.8-51.27,37.62-68.08,81.24-65.68,8.58,.32,17.19,.68,25.81,1.19,12.76-4.57,27.13-3.25,40.11,.07,32.25,5.7,73.17,14.41,86.34,48.43,16.46,7.32,32.52,17.67,39.75,35.05,9.92,23.17,3.38,51.43-17.4,66.4-1.18,8.94,1.62,17.59,.49,26.61-3.07,28.94-30.48,51.09-59.14,47.56Z"/>
    <path d="M129.61,575.53c-27.54-6.85-47.29-36.94-39.1-65.03,2.97-8.74,7.08-21.84,9.93-28.09,3.97-8.16,5.39-15.47,8.91-23.59,4.34-9.4,9.49-17.47,13.88-26.66,1.26-7.42,6.26-13.09,8.75-19.97,4.44-11.77,12.09-21.63,17.57-32.82,17.86-29.61,53.68-44.96,87.37-43.55,10.38,.85,20.49,5.33,29.35,10.37,19.96,8.01,33.3,26.74,34.26,48.62,4.05,37.6-32.19,69.13-68.67,57.7-1.99,10.82-9.15,19.09-13.03,29-2.94,15.6-13.04,27.83-19.36,41.91,0,0,.03,.02,.03,.02-2.32,4.55-4.8,13.37-6.18,17.05-8.18,25.89-37.35,42.16-63.72,35.04Zm96.9-114.03c.34-1.06,.69-2.12,1.03-3.18,.41-2.27,.82-4.53,1.22-6.81-.03-.01-.06-.02-.09-.03-.44,3.4-1.18,6.73-2.15,10.02Z"/>
    <path d="M329.47,479.26c-14.37,2.01-27.98-1.52-41.54-6.14-43.63-16.45-44.6-81.11-1.63-98.99,12.02-5.29,25.17-5.7,37.56-1.99,7.2-.48,14.57-.75,21.65,.81,11.54-3.92,18.77-8.58,28.56-14.51,62.56-34.33,114.56,53.44,55.29,91.99-29.02,17.54-66.99,37-99.89,28.82Z"/>
    <path d="M418.93,583.77c-38.74-5.59-53.13-39.25-46.16-74.96,.46-24.26-.31-46.44-1.64-69.58-29.2-36.67,1.4-96.42,49.42-90.59,17.94,1.47,33.63,13.19,42.23,28.73,7.08,11.11,12.62,23.34,12.96,36.82,4.73,25.91,3.37,52.83,4.39,79.15,.42,14.31-.69,28.62-2.05,42.87-3.25,29.11-30.38,50.87-59.14,47.56Z"/>
    <path d="M356.3,608.6c-12.82-1.59-26.33-2.97-39.14-5.03-14.64-.63-26.65-2.61-40.23-5.47-15.42-.86-30.8-1.66-46.04-4.33,.74,.13,1.49,.27,2.23,.4l1.57,.28c-14.61-2.45-29.52-4.5-44.34-5.45-4.09-.02-8.2,.25-12.27,.58-20.91,26.42-63.8,27.34-84.36,0-13.98-16.98-13.36-39.42-6.73-59.24-.25-24.26,16.38-47.85,39.53-54.83,8.65-12.64,19.46-23.09,32.4-31.24,34.14-28.17,89.32-.77,86.72,43.37,20.88,3.99,42.43,2.05,63.1,7.57,0,0,5.67,1.05,5.67,1.05,18.75,.54,37.36,3.9,55.97,5.94,.41-30.14,3.64-59.61,34.45-73.45,21.92-10.03,48.86-2.85,63.73,15.83,9.66,11.76,12.21,27.15,13.96,41.84,3.13,15.25,4.53,30.42,3.4,46.02,1.84,18.61,3.7,37.68-8.93,53.43-26.75,32.6-83.03,30.39-120.7,22.73Z"/>
    <path d="M460.36,397.94c.61-4.99-1.19-9.52-3.28-13.96-4.31-.61-5.39-6.04-7.6-9.13-5.99-7.18-13.5-13.47-18.52-21.32-.19-.11-.38-.22-.56-.34-2.81,2.7-6.73,.52-10.03,.24-3.89,3.77-10.09,2.46-14.97,1.98-5-.55-10.06-.42-15.09-.85-4.4,5.3-9.18,10.31-15.52,13.17-1.27,1.43-3.26,2.17-5.13,1.72-8.22,2.87-16.82,4.44-25.41,5.75,1,5.03-3.97,6.49-7.99,5.51-8.64-.35-17.21-2.74-25.61-3.96-1.46,1.25-3.49,1.15-5.24,.68-4.15-.96-8.16-2.39-12.15-3.84-4.94-2.41-13-2.65-15.74-7.82-2.09-.19-3.91-1.93-5.41-3.36-2.33,.36-4.17-1.04-5.6-2.71-6.13,1.55-7.7-6.5-8.96-10.85-2.63,1.78-6.65,.54-7.63-2.54-.59,.9-1.19,1.8-1.79,2.7-1.08,1.61-3.24,2.18-5.04,1.67-4.16,1.62-7.57,4.58-9.73,8.51,1.96-.47,3.59-2.25,5.55-2.43,6.96-.41,6.94,8.38,.78,10.03,.37,4.95-6.53,6.78-8.85,2.48-1.32,.1-2.65-.03-3.91-.57-4.11-1.76-4.5-6.86-3.25-10.68-1.42,.3-2.84,.38-4.17-.18,0,0,0,0,0,0-1.51,1.01-3.2,2.08-5.01,2.38-3.67,.73-6.8-3.72-4.79-6.9,2.09-2.78,4.06-4.87,6.27-7.3-.27-.56-.43-1.18-.41-1.84,.02-1,.24-1.88,.68-2.68,.55-6.25,8.11-8.78,12.62-11.97,9.1-13.85,26.74-15.36,41.75-17.6,5.28-.91,11.48,2.43,7.28,8.08-1.35,1.41-3.33,1.58-5.16,1.68-3.23,.04-6.23,1.7-9.47,2.05,.14,.36,.24,.74,.3,1.13,3.38,1.53,2.66,5.62,1.93,8.51,1.28,.6,2.17,1.91,2.87,3.1,6.19,1.96,10.3,7.69,14.84,12.02,3.4,3.76,7.6,7.38,11.28,10.62,1.74-.86,3.74-.3,5.38,.54,3.48,1.34,7,2.58,10.49,3.89,18.99,5.47,39.59,2.89,57.99-3.46,3.29-3.83,6.44-7.86,9.31-11.99,1.59-3.11,2.29-7.47,5.54-9.26,.83-2.19,2.64-3.94,3.16-6.22-1.31-3.11,1.38-6.89,4.83-6.39,2.14,.3,4.2,1.34,6.2,2.15,6.05,2.69,12.39,4.45,18.7,6.23,2.79-.73,5.35,1.22,7.76,2.35,7.63,2.98,14.21,8.1,20.51,13.14,2.41,.15,4.51,1.92,6.37,3.31,5.41,4.52,11.15,9.83,12.61,17.02,.54,5.19,2.11,10.04,4.35,14.72,1.92,4.57,4.91,16.66-2.54,17.33-2.5,.06-4.78-2-4.78-4.54Z"/>
    <path d="M133.95,613.03c-4.69,.1-9.07-1.41-13.55-2.57-6.31-.92-12.73-1.52-18.75-3.77-7.49-1.84-19.73-3.15-18.84-13.38-2.02-2.66-1.8-6.41-2.04-9.61-.15-4.42-.14-9.51,3.01-12.98,2.75-3.12,8.34-2.15,9.38,2.04,4.84,.07,6.95,7.45,2.41,9.62-.82,2.43-.29,5.11-.5,7.63,6.19,2.08,22.36,1.4,21.28,10.5,5.58,.25,10.78,2.6,16.26,3.16,8.76,.81,17.74-.05,26.35-1.7,3.55-2.33,2.59-7.24,6.67-8.51,2.93-4.65,10.34-.86,8.22,4.25-1.22,2.4-2.23,5.43-4.73,6.78-1.69,2.02-3.34,4.74-5.68,5.91-1.55,.56-3.11,.78-4.56,1.11-8.32,1.26-16.83,2.42-25.23,1.51,0,0,.3,.01,.3,.01Z"/>
    <path d="M424.73,615.03c-44.15-3.08-88-9.4-131.77-15.48-16.07-1.98-31.62-7.09-47.85-7.87-12-1.96-23.86-4.53-36.07-4.74-1.31,1.47-3.44,1.77-5.19,1.12,.21,.06,.4,.12,.61,.19-5.07-1.9-10.32-1.68-15.69-1.38-5.28,.72-16.13,3.13-16.12-5.04-2.02-2.18-1.22-6.27,1.64-7.33,2.35-1.04,5.31-.85,7.68-.61,5.83-.55,12.65,1.39,18.13,2.08,11.77,2.72,23.98,1.6,35.66,4.76,17.08,2.39,34.08,4.56,50.92,8.43,26.18,3.44,52.21,7.71,78.44,10.68,16.85,2.74,33.94,3.41,50.93,4.89,4.74,.28,9.45,1.3,14.19,1.2,4.3-.3,7.94-2.55,12.08-3.58,1.13-4.07,6.98-3.76,9.94-5.28,4.15-2.07,8.81-3.04,12.78-5.33,2.28-1.63,4.74-3.59,7.69-2.97-.29-5.69,3.18-19.31,10.81-12.94,4.57-.53,6.34,4.8,4.45,8.16-1.43,4.05-2.2,8.26-1.89,12.57,2.61,8.15-3.11,10.77-10.1,11.92-5.54,1.28-10.83,2.53-16.51,2.2-5.12-.16-9.92,1.9-14.98,2.56-6.53,.51-13.16,2.78-19.77,1.8Z"/>
    <path d="M285.69,250.87c-1.84-.92-2.7-3.33-2.84-5.16-.76-4.18-1.58-8.31-2.17-12.52-1.16-1.19-1.49-2.89-1.63-4.48-2.94-7.55-3.2-16.02-4.75-23.96-.81-8.01-1.89-15.99-2.56-24.01,.84-5.99,2.2-11.97,3.6-17.87,1.41-5.93,3.46-11.64,5.75-17.27,.69-2.62,3.38-3.98,5.75-3.36,2.55-4.6,4.27-12.29,10.38-12.97,1.44-8.86,19.37-27.01,28.51-26.39,4.84-3.4,9.6-1.11,13.6,2.25,.86-.46,1.87-.64,2.87-.51,0,0,0,.02,0,.02,.6,.06,1.21,.24,1.81,.55,1.6,.82,2.48,2.68,2.35,4.44,3.15,2.75,3.18,8.06,.27,10.98-1.38,1.4-3.06,2.49-4.55,3.76-.38,3.9-3.01,8.91-7.6,8.12-.44,.24-.89,.45-1.34,.63-1.17,.44-2.3,.66-3.5,.58-4.82,6.4-8.45,13.59-13.67,19.67,.53,4.24-3.33,7.53-5.12,11.08-1.42,2.61-1.94,5.78-4.33,7.8-3.91,11.25-7.16,22.72-10.82,34.06-1.6,3.9-1,9.42-4.53,12.17-.9,8.53,.96,17.1,2.13,25.52,.84,4.37-3.11,9.34-7.62,6.88Z"/>
    <path d="M380.74,196.94c-.69-5.63,6.46-6.14,10.52-6.54,2.74-1.1,6.49-1.82,8.26,1.28,3.02,5.89-4.39,8.02-8.87,8.08-3.65,1.13-8.92,2.33-9.91-2.82Z"/>
    <path d="M425.26,242.1c-2.94-3.87,1.23-7.63,2.2-11.33-.38-.84-.64-1.74-.85-2.61-3.07-3.07-2.04-8.43-4.04-12.51-3.62-3.75-7.78-7.61-10.13-12.16-.02,0-.04-.02-.06-.03-7.71,.44-9.48-14.41-8.34-20.06-2.54-2.32-1.17-5.78-.31-8.55,2.04-5.27-.17-10.85,.15-16.3-2.98-4.07-3.62-9.22-5.95-13.39-2.48-3.15-5.09-6.61-8.74-8.41-5.74-1.89-11.09-5.16-16.03-8.61-1.44,.09-2.91-.47-3.89-1.6-2.4,2.32-6.79,3.2-9.02,.2-2.04,1.39-4.86,2.42-7.13,.93-1.48,.69-3.13,.85-4.74-.05-.19-.11-.37-.22-.54-.35-3.79,3.37-10.34,.92-10.81-4.05-3.15-2.35-1.49-6.05,.42-8.6-2.86-6.02,5.14-10.92,8.67-5.1,7.39-2.05,14.51-7.72,19-13.66,3.94-5.82,9.99-10.13,17.27-9.67,3.3-.39,6.57,.47,9.87,0,3.11-.49,6.31-.9,9.34,.18,5.21,1.6,9.01,5.67,14.04,7.65,8.7,2.74,14.52,7.09,16.26,16.48,3.38,6.22,4.98,12.83,5.21,19.84,1.05,3.43,2.61,6.77,2.83,10.4-.07,2.94,.69,5.86,1.66,8.58,1.43,3.94,4.89,6.47,6.72,10.17,3.21,5.59,2.63,13.1-.89,18.41,.06,.61,.08,1.22,.03,1.81-.05,.6-.21,1.19-.44,1.72,1.76,2.22,.81,5.92-1.78,7.03-1.19,2.2-3.81,4.01-4.24,6.43,1.1,4.46,.68,9.13,.13,13.64-.32,5.95,1.04,12.11-1.02,17.86-2.33,5.51-6.31,22.96-14.85,15.71Z"/>
    <path d="M425.13,232.69c-.69-3.57-1.45-7.13-1.7-10.77-2.29-4.87-6.04-8.96-9.26-13.26-4.64-1.07-7.57-8.72-2.23-10.92,3.46-1.11,8.85-.04,8.93,4.37,4.04,5.24,8.49,10.32,11.3,16.37,.76,3.63,1.2,7.34,1.77,11.01,2.61,6.58-7.24,9.87-8.88,2.89,0,0,.07,.31,.07,.31Z"/>
    <path d="M391.04,210c-.06-2.5,2-4.79,4.54-4.79s4.73,1.97,4.79,4.54c.06,2.5-2,4.79-4.54,4.79s-4.73-1.97-4.79-4.54Z"/>
    <path d="M327.16,208.84c-.06-2.5,2-4.79,4.54-4.79s4.73,1.97,4.79,4.54c.06,2.5-2,4.79-4.54,4.79s-4.73-1.97-4.79-4.54Z"/>
    <path d="M386.02,306.09c-.9-.56-1.5-1.19-1.87-1.86,.23-.07,.46-.17,.68-.29,.36-.21,.68-.47,.97-.78,.36-.22,.69-.46,1.03-.72,.51-.39,1.01-.8,1.48-1.23,.07-.06,.15-.13,.22-.19,.1-.05,.18-.09,.28-.13l.11-.04c.02,.07,.06,.15,.09,.21,.05,.15,.09,.28,.13,.43-.01,.06-.02,.12-.02,.18-.04,.35,0,.7,.01,1.06,.07,1,.07,2.04,.34,3,.06,.24,.17,.47,.31,.68-.49,.21-1.01,.33-1.55,.33-.7,0-1.43-.19-2.21-.64Z"/>
    <path d="M388.96,300.85s.01-.01,.01-.01c.02,.04,.04,.06,.06,.1-.02-.04-.05-.06-.07-.09Z"/>
    <path d="M382.72,308.42c-2.85-2.68,1.78-5.69,3.73-7.31,1.46-1.59,2.97-3.1,4.69-4.43,1.8-1.84,2.25-4.82,4.12-6.53,1.46-2.12,2.61-4.4,4.64-6.07,1.4-1.77,2.28-4.03,3.28-5.96,1.62-3.46,3.47-6.72,5.17-10.12-.01,.04-.03,.08-.05,.12,2.93-6.92,6.1-13.67,8.82-20.65,1.12-2.98,2.4-5.94,3.46-8.93,.39-1.2,1.53-2.02,2.83-1.7,4.11,1.52-.47,7.26-1.07,10.06-2.98,7.83-6.5,15.43-9.8,23.11-2.38,4.55-4.68,9.08-6.92,13.62-2.14,4.06-5.77,7.24-8.06,11.3,.02-.04,.04-.09,.06-.13-1.56,4.49-5.55,7.13-8.76,10.37-2.2,1.06-3.32,5.1-6.15,3.26Z"/>
    <path d="M418.75,244.1c-.65-2.9,1.23-6.39,1.53-9.19,.9-4.06,.73-8.2,1.26-12.2,0,.03,0,.06,0,.09,0,0,0,.01,0,.02-.28-7.53-1.96-15.27,2.21-21.99,1.45-2.65,5.57-.34,4.07,2.28-4.17,6.73-1.03,14.53-1.77,21.82,2.45,.25,2.46,3.04,2.11,4.91-.04,3.98-2.96,7-4.14,10.63-.67,1.68-.4,4.27-2.47,4.92-1.07,.38-2.37-.28-2.8-1.3Z"/>
    <path d="M371.57,243.13c-1.02-3.46-6.58-14.82-1.03-15.94,2.88,.03,2.35,3.15,2.38,5.14,.12,1,.61,2.15,.82,2.86,.83,2.19,1.4,4.47,2.31,6.63,.89,2.87-3.63,4.23-4.47,1.31Z"/>
    <path d="M340.54,264.27c-.81,.62-1.98,.79-2.89,.28-.19-.11-.36-.24-.51-.39-.54,.12-1.12,.06-1.63-.24-.25-.15-.48-.33-.66-.55-1.82,2.18-5.66,2.29-5.55-1.13,.68-2.19,2.25-4.08,3.5-6,.14-2.48,4.51-5.62,6.15-2.58,.58-.42,1.29-.61,2.02-.53,.61,.06,1.2,.39,1.64,.86,1.27-1.05,3.49-.25,3.74,1.43,.6-.41,1.37-.63,2.07-.42,.48,.14,.9,.38,1.23,.71,.99-1.44,3.3-1.09,3.98,.46,.61-.57,1.45-.79,2.27-.58,.42,.1,.8,.33,1.09,.63,1.62-1.63,4.14-.36,4.49,1.73,.52-2.36,3.45-3.52,4.97-1.32,.71-.85,1.89-1.24,2.97-.78,.28,.12,.53,.27,.76,.44,.17-.31,.38-.59,.69-.84,.82-.67,1.88-.63,2.74-.17,.81-.51,1.91-.54,2.79-.01,.06,.04,.12,.08,.18,.11,1.47-.85,3.04,.11,4.23,1.01,2-1.12,3.64,1.08,4.7,2.53,1.75,2.07-1.24,5.01-3.28,3.25-.5,.11-1.05,.06-1.58-.18-.3-.14-.58-.33-.85-.54-.35,.31-.78,.53-1.23,.6-.7,.11-1.29-.1-1.82-.45-.68,.64-1.7,.88-2.58,.52-.54-.22-.96-.58-1.35-.98-.53,.53-1.2,.92-1.97,.89-.64-.01-1.22-.15-1.76-.51-1,1.56-3.29,1.91-4.6,.55-1.13,2.29-4.37,3.59-6.06,1.2,0,0,0,0,0-.01-.92,1.35-2.3,2.66-4.01,1.92-.57-.24-1.04-.69-1.32-1.24-.79,.52-1.67,.8-2.59,.57-.42-.1-.8-.3-1.11-.58-1.18,.83-2.84,.67-3.77-.45-1.09,1.71-3.7,2.83-5.06,.77Z"/>
    <path d="M358.61,285.45c-6.62-.41-12.4-3.76-18.23-6.55-2.94-1.79-4.75-4.92-6.92-7.5-1.2-.5-1.91-1.8-1.39-3.07,1.1-2.01,3.82-2.45,5.92-2.15,3.66,.27,7.29,.29,10.96,.32,7.66,.14,15.31,1.27,22.96,1.29,3.04-.49,6.42-.78,9.45-.73,1.63-.46,3.38,.85,3.11,2.58,3.46,2.7-4.36,9.3-6.7,10.82-3.26,2.01-6.33,4.86-10.29,5.05-3.12-.08-5.82,.13-8.87-.06Zm6-4.69c5.78-1.58,11.9-3.91,15.46-9.01-13.01,1.49-25.97-.88-39.03-.73,1.9,1.59,3.57,3.49,5.4,5.13,5.55,2.96,11.93,4.35,18.18,4.6Z"/>
    <path d="M334.69,273.33c-1.61-1.72-4.63-1.96-5.42-4.38-2.28-1.37-1.79-5.19,1.15-4.98,1.71,.45,3.15,1.67,4.85,2.22,1.06,.18,1.88,1.04,1.99,2.09,.76,.4,1.26,1.14,1.32,1.95,3.04,2.95-1.23,5.95-3.89,3.1Z"/>
    <path d="M373.46,273.33c-9.99-.76-20.19-3.08-29.88-5.09-4.23-1.32-10.23,.35-13.29-3.24-1.19-5.27,6.01-2.78,8-2.52,1.3-.15,2.99-.47,3.84,.79,11.62,1.93,23.04,5.52,34.85,5.35,3.82-.68,7.1-2.73,10.88-3.5,2.83-.89,5.03,2.26,2.75,4.39-1.68,1.4-4.77,4.16-6.68,1.76-3.3,1.49-6.82,2.38-10.46,2.05Z"/>
    <path d="M370.73,269.04c-3.06-1.54-6.77-.46-9.9-1.98-3.64-1.14-3.35-4.48-.45-6.38,1.74-1.78,4.79,.2,3.84,2.53,0,0,0,.01,0,.01,2.98,.47,6.13,.09,8.8,1.76,2.66,1.42,.32,5.55-2.28,4.06Z"/>
    <path d="M379.11,264.22c-.04-1.25,1.01-2.39,2.27-2.39s2.36,.98,2.39,2.27c.04,1.25-1.01,2.39-2.27,2.39s-2.36-.98-2.39-2.27Z"/>
    <path d="M348.12,254.08c-.04-1.25,1.01-2.39,2.27-2.39s2.36,.98,2.39,2.27c.04,1.25-1.01,2.39-2.27,2.39s-2.36-.98-2.39-2.27Z"/>
    <path d="M348.37,255.13c-.04-1.25,1.01-2.39,2.27-2.39s2.36,.98,2.39,2.27c.04,1.25-1.01,2.39-2.27,2.39s-2.36-.98-2.39-2.27Z"/>
    <path d="M350.88,256.79c-.04-1.25,1.01-2.39,2.27-2.39s2.36,.98,2.39,2.27c.04,1.25-1.01,2.39-2.27,2.39s-2.36-.98-2.39-2.27Z"/>
    <path d="M354.7,256.97c-.04-1.25,1.01-2.39,2.27-2.39s2.36,.98,2.39,2.27c.04,1.25-1.01,2.39-2.27,2.39s-2.36-.98-2.39-2.27Z"/>
    <path d="M355.94,256.47c-.04-1.25,1.01-2.39,2.27-2.39s2.36,.98,2.39,2.27c.04,1.25-1.01,2.39-2.27,2.39s-2.36-.98-2.39-2.27Z"/>
    <path d="M357.09,255.92c-.04-1.25,1.01-2.39,2.27-2.39s2.36,.98,2.39,2.27c.04,1.25-1.01,2.39-2.27,2.39s-2.36-.98-2.39-2.27Z"/>
    <path d="M359.25,257c-.04-1.25,1.01-2.39,2.27-2.39s2.36,.98,2.39,2.27c.04,1.25-1.01,2.39-2.27,2.39s-2.36-.98-2.39-2.27Z"/>
    <path d="M360.88,256.41c-.04-1.25,1.01-2.39,2.27-2.39s2.36,.98,2.39,2.27c.04,1.25-1.01,2.39-2.27,2.39s-2.36-.98-2.39-2.27Z"/>
    <path d="M364.43,257.97c-.04-1.25,1.01-2.39,2.27-2.39s2.36,.98,2.39,2.27c.04,1.25-1.01,2.39-2.27,2.39s-2.36-.98-2.39-2.27Z"/>
    <path d="M365.71,256.19c-.04-1.25,1.01-2.39,2.27-2.39s2.36,.98,2.39,2.27c.04,1.25-1.01,2.39-2.27,2.39s-2.36-.98-2.39-2.27Z"/>
    <path d="M367.34,256.22c-.04-1.25,1.01-2.39,2.27-2.39s2.36,.98,2.39,2.27c.04,1.25-1.01,2.39-2.27,2.39s-2.36-.98-2.39-2.27Z"/>
    <path class="cls-1" d="M313.45,569.95c-.97-.73-1.29-2.3-.46-3.27,2.38-2.81,4.62-5.72,6.97-8.55,6.77-7.56,13.38-15.02,19.58-23.05,12.18-14.43,21.77-30.64,30.79-47.16,3.51-6.14,7.1-12.32,9.35-19.05,1.37-4.31,.94-8.94,2.63-13.17,.77-2.9,5.28-1.86,4.53,1.12-1.67,4.27-1.24,8.86-2.64,13.2-3.03,9.38-8.55,17.69-13.25,26.3-9.33,17.63-20.9,33.85-33.73,49.09-4.33,5.19-8.73,10.32-13.32,15.28-2.42,2.91-4.73,5.92-7.19,8.81-.84,.97-2.22,1.25-3.27,.46Z"/>
    <path class="cls-1" d="M246.79,558.62c-2.46-3.57,5.67-6.17,7.55-8.62,12.64-10.21,23.32-22.48,33.45-35.08,6.26-7.36,11.14-15.65,16.38-23.61,11.24-16.27,23.73-32.3,30.01-51.29,1.07-2.78,5.47-1.1,4.34,1.74-6.7,20.29-20.37,37.16-32.14,54.66-13.01,20.86-29.03,40.06-47.72,56.05-2.75,2.33-5.63,4.49-8.59,6.53-1.03,.74-2.46,.66-3.28-.38Z"/>
    <path class="cls-1" d="M172.48,592.63c-3.18-1.03-1.04-4.53-.49-6.69,2.71-8.18,3.98-16.78,6.96-24.89,4.94-10.87,10.64-21.43,15.53-32.29,3.54-7.23,3.35-15.95,4.84-23.61,1.45-6.83,2.78-13.66,4.31-20.48,3.23-14.44,7.81-28.67,7.39-43.63-.06-12.46,6.02-24.28,2.31-36.47-2.06-8.18,1.39-17.15-2.05-24.92-.96-1.8-3.27-4.22-.8-5.83,3.02-1.53,4.31,2.78,5.43,4.79,3.11,6.88,.63,14.62,1.57,21.84,3.97,13.13-.62,26.15-1.73,39.11-.02,27.85-11.55,53.78-14.01,81.69-4.51,18.87-18.31,34.39-21.89,53.62-1.22,4.07-1.94,8.38-3.37,12.32-.86,2.08-.91,5.99-4,5.43Z"/>
    <path class="cls-1" d="M402.21,607.47c-1.29-.33-1.93-1.58-1.7-2.83,2.18-14.68,7.44-28.7,9.98-43.22,2.76-19.88,.15-40.01,.64-60,.49-13.07,1.79-25.9,1.29-38.96-.81-11.72-2.34-22.87-3.44-34.49-.48-2.93,4.18-3.75,4.62-.73,1.17,13.53,3.44,27,3.61,40.56-.34,16.17-1.56,32.18-1.33,48.31-.49,12.18,1.5,24.43,.21,36.6-.67,13.93-5.31,27.19-8.63,40.62-1.2,4.28-1.44,8.24-2.41,12.43-.23,1.25-1.64,1.99-2.83,1.7Z"/>
    <path class="cls-1" d="M415.02,128.12c-3.82-10.61-11.92-17.86-22.73-20.86-6.63-2.1-14.63,1.4-18.97,6.52-2.07,2.18-5.48-1.11-3.34-3.26,4.04-5.08,10.16-7.34,16.34-8.56,8.64-.29,17.45,4.33,23.9,9.83,2.29,2.37,12.51,15.53,7.87,17.52-1.14,.51-2.56-.04-3.08-1.2Z"/>
    <path class="cls-1" d="M426.44,197.78c-22.61-13.12-14.78-29.27-14.35-50.29-.05-4.53-3.86-7.29-6.81-10.18-3.05-3.02-6.09-6.4-10.03-8.18-1.91-1.16-5.99-1.67-4.98-4.73,1.69-3.31,5.36,.09,7.7,.87,6.51,3.8,11.92,9.62,16.74,15.3,4.5,8.57,.8,18.83,.06,27.86-.3,12.35,3.91,19.48,14.45,25.62,2.44,1.76-.38,5.57-2.79,3.73Z"/>
    <path class="cls-1" d="M434.26,178.12c-.84-4.63-1.41-9.34-3.97-13.34-.93-1.32-1.98-2.54-3.04-3.77-1.9-2.34,1.8-5.28,3.66-2.89,3.78,3.85,6.11,8.77,6.99,14.08,.22,2.46,2.61,6.94-.96,7.86-1.23,.2-2.49-.68-2.67-1.94Z"/>
    <path class="cls-1" d="M286.66,157.73c-5.93-2.75,12.22-24.72,15.76-27.39,4.57-4.54,10.59-6.7,16.45-9.05,1.17-.49,2.55,.02,3.07,1.2,.5,1.14-.04,2.59-1.2,3.08-11.98,3.43-20.79,12.49-26.98,22.86-1.59,2.55-2.93,5.22-4.07,8.01-.48,1.18-1.87,1.77-3.04,1.3Z"/>
    <path class="cls-1" d="M284.03,207.05c-4.32-.93-.62-9.3-.73-12.44,1.31-12.66,4.28-25.15,10.83-36.14,1.47-3.77,3.85-6.94,7.35-9,2.35-1.86,5.29,1.8,2.89,3.66-2.65,1.65-4.69,3.83-5.77,6.79-6.09,10.48-9.39,22.04-10.49,34.06-.55,3.66-1.26,7.32-1.51,11.01-.08,1.26-1.35,2.2-2.58,2.07Z"/>
    <path d="M348.96,198.98c-.79-.01-1.38-.41-1.88-.94-1.67-.4-1.92-2.22-1.82-3.71-5.75-1.04-11.33,.2-16.57,2.35-2.88,.89-4.22-3.65-1.31-4.47,5.46-2.54,23.56-6.23,24.47,2.7,1.41,2.02-.36,5.19-2.89,4.08Z"/>
  </g>
</svg>