<?xml version="1.0" encoding="UTF-8"?>
<svg id="Vektorebene" xmlns="http://www.w3.org/2000/svg" viewBox="0 0 804.3 834">
  <defs>
    <style>
      .cls-1 {
        fill: #fff;
      }
    </style>
  </defs>
  <path d="M12.03,794.71c-6.42-.97-.02-14.95,.14-19.03,1.77-11.51,4.55-22.64,5.52-34.11,4.06-30.29,6.99-61,16.39-90.22,6.19-23.47,10.17-47.62,17.97-70.62,5.41-14.6,13.56-27.9,18.36-42.75,2.85-6.03,4.94-12.39,7.74-18.45,4.29-8.35,12.41-13.51,18.58-20.3,13.49-18.16,38.25-20.33,56.04-32.45,17.48-8.96,38.59-9.66,54.48-21.77,14.19-9.32,31.09-13.34,45.67-21.54,6.48-3.84,13.82-6.09,20.52-9.39,1.97-1.07,4.28-1.92,6.48-1,.16,.08,.32,.17,.47,.27,.85,1.34,1.82,2.59,2.94,3.66,3.45,8.09-.4,24.43,.82,31.85,.22,16.28-.12,33.88,6.23,49.01,2.85,5.69,6.99,10.4,10.71,15.48,4.97,8.32,11.88,14.94,20.47,19.25,12.58,9.5,28.67,8.42,43.57,9.18,17.33,1.09,33.57-4.26,48.66-12.19,6.35-2.97,9.57-9.49,13.87-14.61,11.68-10.91,18.18-24.59,23.3-39.36,4.41-11.88,8.11-24.03,11.9-36.07,2.99-7.4,4.77-14.31,5.18-22.17,.31-2.56,.42-5.11,.7-7.67,.64,.05,1.31,.08,1.97,.08,1.53,0,3.07-.15,4.55-.53,.03,.29,.03,.61-.02,.95-.37,19.31-8.21,37.05-13.78,55.19-6.7,18.87-12.76,38.87-27.95,52.78-5.23,6.19-9.27,13.87-17.02,17.31-3.72,1.75-7.47,3.34-11.17,5.14-16.58,8.38-35.74,8.28-53.85,6.98-12.86,.24-25.27-3.41-35.73-10.93-14.26-7.71-22.54-22.73-31.11-35.86-11-25.59-4.92-54.72-7.18-81.46-9.62,4.36-19.23,8.18-28.26,13.65-10.61,4.19-20.71,7.82-30.68,13.19-10.59,5.57-20.03,13.32-32.03,15.82-9.76,2.92-20.18,5.75-29.41,9.86-6.3,3.38-12.19,7.48-19.01,9.81-13.27,5.45-28.17,10.22-36.86,22.33-4.96,5.53-11.49,9.78-15.61,15.78-6.06,11.13-9.76,23.45-14.61,35.15-12.08,21.37-18.19,44.6-23.62,68.31-3.97,21.08-11.01,41.7-15.36,62.64-5.31,32.62-7.72,65.85-15.09,98.03-1.27,3.46,.49,10.76-4.74,10.76h-.12Z"/>
  <path d="M786.72,792.98c-6.5-24.18-16.28-47.23-22.1-71.62-1.34-5.53-3.28-10.25-6.04-15.05-5.16-11.93-9.32-24.46-14.49-36.35-6.21-10.23-11.76-20.71-15.95-31.96-3.97-10.73-5.77-22.08-11.47-32.13-4.68-11.39-11.57-21.89-14.95-33.76,.03,.08,.07,.19,.1,.27,.01,.03,.02,.06,.03,.09-3.1-8.44-5.8-17.06-9.78-25.12-4.75-8.03-10.34-15.53-13.9-24.24-4.65-8.76-8.94-18.14-15.55-25.58-6.25-6.28-13.48-12.07-20.21-17.57-18.87-9.71-40.36-12.85-60.1-20.15-16.5-4.26-34.11-14.49-50.88-19.21-12.81-4.04-24.13-11.52-35.9-17.8-3.99-2.57-16.34-7.64-22.95-13.08,2-.18,3.97-.67,5.76-1.6,.66-.33,1.32-.68,1.96-1.04,9.79,6.36,20.72,10.73,30.73,16.81,14.92,9.35,31.92,12.97,47.78,20.25,10.34,3.12,19.18,8.98,29.82,10.59,20.52,9,45.77,9.37,63.2,24.51,5.58,5.19,12.03,9.47,16.87,15.39,8.1,9.84,13.25,21.76,18.92,33.06,9.16,13.66,16.06,28.21,20.77,43.8,3.07,10.79,9.42,19.92,13.56,30.28,5.23,9.61,8.18,20.3,11.03,30.74,4.58,13.93,12.68,26.09,18.97,39.17,5.24,14.41,11.24,28.46,17.35,42.48,5.67,22.52,13.63,44.21,20.55,66.34,1.1,3.56,2.29,7.11,3.14,10.74,.41,1.73-.51,3.53-2.27,4.01-.27,.08-.55,.11-.83,.11-1.43,0-2.83-.94-3.17-2.39Z"/>
  <path d="M649.46,800.42c-4.01-12.06-9.24-23.74-15.25-34.85-2.88-4.11-6.08-7.96-9.14-11.94-1.09-1.41-.81-3.48,.58-4.57,3.68-2.54,5.79,2.51,7.81,4.77,10.85,12.87,16.61,29.21,22.28,44.84,1.16,4.03-5.12,5.84-6.28,1.75Z"/>
  <path d="M605.14,804.1c0-6.45-1.04-12.49,.34-18.75,1.39-6.29,7.97-39.45,17.85-32.36,1.59,2.05,.13,4.21-1.61,5.53-3.02,3.24-4.34,7.89-5.92,11.83-1.7,7.6-4.52,15.42-4.6,23.22-.43,4.01,2.98,13.14-2.8,13.8-1.82,0-3.22-1.49-3.26-3.26Z"/>
  <path d="M355.78,693.02c-7.05-3.93-6.33-14.58-7.84-21.55-2.02-8.09-4.15-16.24-6.35-24.27-6.51-14.03-14.71-27.53-18.57-42.62-1.95-6.97-7.04-12.06-11.05-17.85-4.18-6.88-8.02-14-11.88-21.06-3.77-10.09-8.62-19.73-13-29.45-2.65-8.16-5.9-16.02-10.18-23.46-3.87-11.58-5.43-23.77-6.63-35.88-2.79-18.7-6.13-37.86-.26-56.35,1.08-4.02,7.41-2.4,6.28,1.73-7.02,22.99,.28,46.7,2.35,69.88,1.81,9.36,3.58,18.86,8.87,26.75,5.61,15.45,12.92,30.09,19.08,45.35,3.8,6.07,6.94,12.62,10.67,18.68,6.86,8.22,12.2,17.24,14.45,27.82,5.07,15.27,15.59,28.16,18.62,44.06,7.82-7.82,16.54-14.01,23.63-22.53,5.91-5.96,12.64-11.06,16.84-18.01,7.71-11.2,11.6-24.55,18.33-36.28,7.58-15.44,13.54-31.6,20.4-47.27,10.43-19.27,16.34-40.48,24.61-60.66,1.29-2.95,2.09-5.56,3.07-8.52,1.56-3.85,7.65-1.38,6.01,2.55-8.66,22-15.44,44.94-26.17,66.09-8.02,17.04-14.1,34.95-22.62,51.76-6.46,11.24-10.07,23.94-17.38,34.67-6.53,10.86-17.31,17.99-25.37,27.6-5.21,5.87-12.26,9.75-17.24,15.84,4.72,7.13,10.8,14.75,9.7,23.84-.35,4.18-3.29,10.77-8.37,9.13Zm1.49-7.93c1.38-4.42-.43-9.05-2.63-12.86,.5,4.34,1.12,8.75,2.63,12.86Z"/>
  <path d="M463.98,306.68c-.08-.34-.2-.64-.39-.93,2.73-9.66,4.3-19.67,5.44-29.71,.4,1.03,.94,2.01,1.6,2.87,1.15,1.5,2.56,2.54,4.16,3.26-1.05,8.76-2.41,17.47-5.01,25.93-.31,1.07-.64,2.12-1,3.17-.03,0-.08,0-.14-.02-1.32-.14-2.58-.02-3.78,.31-.2-1.65-.48-3.28-.88-4.87Z"/>
  <path d="M284.67,298.15c-1.56-8.83-2.24-17.91-4.06-26.65-3.7-19.6-6.42-39.97-7.21-59.74-1.85-23.76,1.61-47.54,5.82-70.86,2.94-13.54,3.51-27.92,10.66-40.17,4.84-7.81,8.67-17.4,17.18-21.84,8.37-5.18,18.3-1.65,27.36-1.27,22.84,.32,45.42,2.72,68.02,3.51,11.95-.59,23.93-.97,35.84-1.83,4.74-.54,9.62-2.31,14.29-.53,15.43,9.33,21.96,28.5,24.07,45.59,3.6,17.92,5.94,36.66,3.84,54.85-.64,10.18-.34,20.4-.1,30.6-2.49,2.43-4.09,5.77-4.33,9.44,0,.02-.02,.03-.02,.05-.42,3.53-1.02,7.13-.51,10.66,.32,2.22,1.02,4.18,1.83,6.23,.36,.9,.8,1.78,1.15,2.68,.02,.03,.03,.08,.03,.12v-.03l.05,.15c.29,.81,.56,1.65,.81,2.46-.71,4.38-1.19,8.77-1.6,13.17-.34,.8-.68,1.58-1.05,2.36-.17,.31-.34,.61-.53,.92-.17,.22-.34,.44-.51,.64-.95,1.04-1.93,2.04-2.8,3.14-1.05,1.34-1.97,2.8-2.87,4.24,0-.05,.02-.12,.02-.17,1.17-10.56,2.12-21.06,3.87-31.52,.27-7.45,.08-14.82-.1-22.18,1.26-1.26,2.36-2.68,3.24-4.26,4.53-8.01,3.02-17.91-3.09-24.58,.03-.83,.06-1.66,.09-2.49,.05-.5,.07-1,.06-1.5,.6-16.31,.94-32.49-2.97-48.48-2.55-16.82-4.77-30.85-17.79-43.62-3.19-3.94-8.03-2.58-12.36-1.75-12.9,1.36-25.75,1.43-38.59,2.16-25.42-1.34-50.95-2.82-76.32-4.24-13.27-3.28-21.01,2.55-26.87,14.17-8.25,11.93-10.68,25.86-12.59,39.83-5.82,27.65-9.13,56.36-5.94,84.47,.29,18.35,4.46,36.08,7.33,54.09,1.32,7.47,1.87,15.26,3.29,22.78v.02c-.14,.27-.27,.56-.41,.85-1.95-.85-4.04-1.36-6.26-1.46Z"/>
  <path d="M478.53,238.91s0,.03,.01,.04c0-.01,0-.03-.01-.04Z"/>
  <path d="M470.06,266.07c.2-.31,.4-.62,.61-.92,0,.02-.02,.03-.03,.05,.02-.02,.05-.03,.08-.05-.24,.32-.46,.64-.67,.96,0-.02,0-.03,0-.05Z"/>
  <path d="M476.42,257.89c-.08,.1-.19,.19-.27,.29,.08-.1,.17-.19,.27-.29Z"/>
  <path d="M478.5,238.86c-.15-.42-.28-.84-.42-1.24,.14,.42,.29,.86,.44,1.29l-.02-.05Z"/>
  <path d="M283.58,417.64c-1.61-.41-2.2-1.61-2.27-2.96,.83,1.12,1.76,2.15,2.81,3.03-.17-.01-.35-.04-.54-.07Z"/>
  <path d="M468.65,311.24c-.93-.1-1.85-.06-2.74,.09,.7-1.06,1.57-1.56,2.65-1.31,1.06,.14,1.93,.8,2.41,1.69-.73-.23-1.5-.38-2.33-.47Z"/>
  <path d="M271.85,232.28c-9.64-21.64-12.73-45.16-10.95-68.72,1.2-22.2-1.9-49.49,14.44-66.83,4.53-6.91,9.57-13.22,15.19-19.25,3.97-6.04,2.83-13.71,1.71-20.32-3.26-12.46,1.77-27.85,12.19-35.57,14.83-10.78,33.59-13.09,51.36-13.42,33.04-1.87,68.45-2.87,98.13,14,6.47,3.97,13.15,7.93,18.48,13.36,5.7,7.48,8.76,17.48,9.35,26.78,.12,11.64-1.49,22.74,2.65,33.74,6.94,16.38,12.07,33.52,15.55,50.92-.07,1.1-.15,2.21-.24,3.31-.31,2.24-.73,4.46-.75,6.74,0,1.2,0,2.43-.03,3.63-.05,.66-.1,1.31-.15,1.97-.32,2.29-.75,4.6-1.12,6.87-.24,1.37-.46,2.73-.75,4.09-.36,1.75-.51,3.53-.68,5.31-.07,.56-.15,1.12-.24,1.66-.37,1.9-.64,3.82-.88,5.74-.2,1.36-.41,2.72-.58,4.09l.15-1.27c-.34,2.07-.58,4.14-.9,6.19l.15-.81c-.1,.64-.22,1.27-.34,1.92,0,.05-.02,.08-.02,.14-.98,2.75-1.99,5.52-1.73,8.52,.03,.32,.06,.64,.1,.96-1.04-.15-2.09-.19-3.15-.09-.07,0-.13,.01-.2,.02,6.19-19.63,6.92-40.29,4.49-60.69-2.73-9.61-4.58-19.47-7.86-28.92-2.9-8.77-7.42-17.09-9.11-26.24-3.04-11.9,1.27-24.3-2.24-35.91-1.93-5.33-3.14-11.73-7.57-15.51-11.76-10.1-25.88-16.85-40.82-20.84-21.54-4.97-43.01-4.31-64.82-3.56-20.04,1.29-43.99,1.41-57.89,18.13-2.89,5.31-4.89,11.64-5.24,17.68,1.78,10.28,4.75,22.15-1.85,31.38-4.19,5.38-9.56,9.57-12.56,15.82-3.46,4.99-7.86,8.38-10.06,13.98-3.75,11.54-4.67,23.66-5.23,35.66-.73,22.15-2.53,45.25,3.95,66.72,1.75,4.18,2.9,8.49,4.85,12.41,.9,2.8,3.26,7.21-.8,8.52-.29,.08-.58,.12-.87,.12-1.41,0-2.72-.95-3.14-2.39Z"/>
  <path d="M495.91,181.07c-.08,.46-.15,.92-.24,1.37,.07-.46,.15-.92,.24-1.37Z"/>
  <path d="M277.61,288.36c-3.19-1.82-6.79-2.85-9.42-5.5-4.66-4.95-8.05-11.95-10.05-18.28-6.05-17.4-7.43-37.75,.95-54.6,3.31-4.25,8.32,.78,4.84,4.68-7.86,20.33-4.26,44.47,7.67,62.33,2.31,2.94,6.14,3.93,9.3,5.73,3.67,2.06,.34,7.77-3.29,5.64Z"/>
  <path d="M479.17,202.56c.18-.78,.32-1.56,.41-2.35,.12-.19,.27-.38,.44-.58,1.22-1.22,3.39-1.29,4.6,0,2.12,1.87,3.92,3.95,5.41,6.23-.41,0-.81,.02-1.22,.05-2.04,.19-3.92,.8-5.58,1.75-1.42-1.57-3.57-3.25-4.05-5.1Z"/>
  <path d="M648.64,798.39c-.93-5.48,9.13-5.7,12.77-6.79,4.98-.83,8.73-4.38,13.23-6.38,5.99-2.31,12.3-3.81,17.97-6.94,15.05-6.4,27.91-17.1,43.61-22.22,5.11-2.56,8.38-7.48,13.07-10.64,4.88-3.41,10.73-4.95,13.05-10.66,1.6-3.87,7.72-1.33,6.01,2.54-2.42,6.35-8.99,9.9-14.43,12.81-4.8,3.13-8.17,8.06-13.2,10.9-8.12,3.51-16.19,7.24-24.02,11.37-12.45,8.63-26.6,14.59-40.8,19.46-5.09,3.22-10.38,6.13-16.49,6.7-3.49,.38-8.9,4.76-10.78-.15Z"/>
  <path d="M363.17,257.94c-3.24-1.58-1.89-5.95,1.25-6.66,2.29-.67,5.24-2.56,7.41-.79,3.02-.76,6.64,1.71,4.91,4.95-1.09,1.98-3.51,1.76-5.46,1.84-2.69,0-5.62,2.21-8.12,.65Z"/>
  <path d="M392.52,257.95c-2.52,.14-5.91,.18-7.14-2.5-.8-1.9,.39-4.19,2.39-4.67,3.01-.66,6.18-.04,9.22,.14,1.7,.17,3.38,.83,3.85,2.65,.98,4.51-5.23,5.06-8.32,4.39Z"/>
  <path d="M356.75,264.15c-5.95,1.03-10.38-4.5-9.54-10.17,.04-9.02,7.51-15.08,11.2-22.64-.06,.11-.13,.25-.2,.37,.7-1.85,.59-3.97,1.22-5.85,1.07-4.08,7.44-2.36,6.3,1.73-.67,3.84-1.32,7.54-3.78,10.73-3.47,5.94-10.69,12.12-7.42,19.27,2.38-.16,5.49,.29,5.49,3.3,0,1.77-1.48,3.28-3.26,3.26Z"/>
  <path d="M374.51,309.01c-12.1-1.98-27.21,.35-36.35-9.21-1.45-.78-2.3-2.42-1.8-4.01-1.75,.71-3.81-.4-4.29-2.19-.91-4.7,5.5-4.48,8.35-6.23,4.82-1.36,9.63-3.44,14.64-3.25,11.25-.77,22.76-1.16,33.98,.25,7.76,1.12,15.55,3.17,23.34,2.8,2.92,.02,5.18,.27,7.71-.62,2.66-1.08,6.35-3.81,8.11-.03,1.04,2.32-1.1,4.16-2.77,5.43-2.68,2.42-5.77,4.22-9.02,5.73-12.39,8.47-26.91,12.36-41.9,11.33Zm9.39-6.63c9.52-.55,18.48-3.26,26.36-8.71-9.82,.11-19.39-2.97-29.14-3.66-13.36,.4-27.25-1.27-39.84,4.04,2.02,1.25,3.09,2.91,4.75,4.09,1.87,.97,4.37,1.32,6.32,1.89,10.48,1.25,21.03,3.19,31.6,2.35,0,0-.05,0-.05,0Z"/>
  <path d="M361.81,377.11c-25.81-1.71-46.69-20.83-58.33-42.72-4.38-4.82-5.77-11.85-9.71-16.92-4.26-4.95-4.89-11.86-7.01-17.85-1.47-2.76-2.2-5.8-3.66-8.53-2.1-3.61,3.53-6.99,5.63-3.29,.61,1.19,1.27,2.34,1.7,3.6,2.9,6.55,4.36,13.44,6.97,20.03,5.58,6.83,7.82,15.61,13.6,22.24,8.25,16.82,23.73,30.4,41.82,35.25,14.38,4.13,29.54,.28,43.96-1.48,11.03-2.14,22.51-3.83,31.07-11.7-.08,.05-.11,.07-.18,.11,14.72-10.37,20.02-27.39,29.9-41.51,2.62-4,4.7-18.83,11.1-16.15,3.18,1.97,.73,5.2-.56,7.55-3.9,11.75-11.41,21.1-16.63,32.12-8.32,13.42-19.31,26.19-34.52,31.69-17.94,4.6-36.56,7.89-55.14,7.53Z"/>
  <path d="M464.3,419.71c-1.51-7.18-2.47-8.58-4.68-15-2.09-15.26-4.39-30.95-3.48-46.37,.8-17.79,2.06-36.36,8.13-53.19,1.21-4.04,7.4-2.4,6.28,1.73-.71,2.09-1.49,4.14-2.09,5.8-7.18,30.07-7.68,61.52-2.14,91.84,1.98,4.03,3.23,8.18,3.96,12.59,.64,1.68,0,3.61-1.71,4.33-1.57,.66-3.67-.07-4.26-1.73Z"/>
  <path d="M280.49,418.91c-2.8-1.23-1.96-4.22-.91-6.39,2.2-8.34,3.86-16.03,6.23-24.19,2.83-14.31,2.88-28.9,3.76-43.43,.55-13.85,.66-27.69-2.42-41.24-.6-4.14,5.95-5.09,6.47-.88,3.76,16.45,2.82,33.16,2.07,49.86-.8,15.95-1.18,32.34-6.47,47.54-2,4.49-1.8,20.73-8.72,18.73Z"/>
  <path d="M469.55,307.03c-4.16-2.55,1.68-10.03,3.87-12.49,4.65-4.19,8.6-8.98,12.92-13.44,.02-.03,.04-.05,.06-.08,.51-.38,.97-.8,1.39-1.25,.58-.61,1.12-1.24,1.66-1.88,.49-.53,.98-1.04,1.51-1.53,1.78-1.53,3.5-3.07,4.87-4.99,1.27-1.77,2.43-3.63,3.41-5.58,1.32-2.58,2.77-5.13,3.51-7.96,.58-2.12,.76-4.28,1.12-6.42,0-.03,.02-.07,.02-.08,.71-1.99,1.37-3.92,1.51-6.08,.15-2.05,.24-4.07,.1-6.13-.15-2.44-.58-4.74-1.22-7.09-.19-.68-.37-1.37-.56-2.05,.14-1.04,.25-2.07,.36-3.11,.07-.63,.11-1.25,.14-1.87,5.26,8.79,6.86,19.98,3.94,29.66-.56,5.06-4.28,8.79-5.89,13.54-4.62,9.08-10.71,16.97-17.58,24.39-2.51,3.19-6.28,5.4-8.45,8.86-1.05,2.23-2.33,6.04-4.98,6.05-.51,0-1.07-.14-1.69-.46Z"/>
  <path d="M491.37,205.94c.16-.26,.33-.52,.49-.78,.02,.29,.05,.57,.09,.86-.19-.03-.39-.05-.58-.07Z"/>
  <path d="M495.8,122.54c.14,.26,.28,.52,.42,.78,.1,.25,.22,.51,.32,.78,.37,1.21,.7,2.42,.99,3.64-.56-1.75-1.14-3.49-1.73-5.2Z"/>
  <path d="M496.5,123.93s.02,.05,.03,.08c0-.03-.02-.06-.03-.08Z"/>
  <path d="M487.16,109.9c-1.68-3-2.1-7.25-3.87-10.03-5.5-9.62-4.85-21.33-1.75-31.57,.31-2.33,1.53-4.46,1.44-6.82-.17-2.36-1.53-4.45-2.78-6.36-2.58-3.28-4.99-7.13-8.03-9.96-1.88-1.04-3.55-3.04-2.26-5.21,4.4-5.3,9.88,4.26,12.51,7.31,5.74,6.38,9.05,13.98,5.5,22.32-2.44,8.4-3.65,17.8,.37,25.8,.19,.3,.37,.6,.54,.91-.04,.13-.08,.27-.12,.4-1.04,3.78-.15,7.23,1.12,10.73,.78,2.53,1.37,5.11,2.31,7.6,.43,1.15,.93,2.25,1.46,3.35-2.03-2.9-4.6-5.41-6.45-8.45Z"/>
  <path d="M270.37,108.05c-4.41-2.31,.05-7.27,.87-10.56,2.57-5.87,8.37-9.78,9.66-16.18,1.67-6.43,4.52-12.76,5.33-19.34,2-12.13,5.18-26.79,16.12-33.91,3.88-1.66,6.43,4.38,2.55,6.01-7.05,5.47-9.11,15.39-11.49,23.39-.66,8.95-3.62,17.11-6.23,25.56-1.43,6.41-6.05,11.1-9.57,16.15-1.84,3.08-2.21,10.4-7.23,8.89Z"/>
  <path d="M361.61,89.29c-17.46,.13-34.32-4.4-50.61-10.08-17.06-6.55-23.9-28.16-14.82-43.69,6.52-9.15,15.38-17.94,27.05-20.06,18.51-1.56,38.52-13.21,56.12-1.92,5.23-1.64,10.89-1.84,16.36-.12,16.22-.23,31.21,5.42,45.7,9.61,29.16,10.91,29.05,52.4-1.24,61.44-26.41,7.05-53.77,4.72-80.66,4.67,0,0,2.08,.14,2.08,.14Z"/>
  <path d="M482.28,203.35c-1.09-.64-2.02-1.48-2.8-2.44,.88-6.01-.93-12.24-4.99-17.01-.15-1.11-.27-2.23-.37-3.35,.1-1.26-.02-2.54-.31-3.78-.12-1.66-.22-3.32-.32-4.98,.15-12.49-1.9-25.54,1.34-37.68-.53-15.97-9.67-29.68-13.02-44.96-3.24-2.31-7.45-2.48-10.27-5.41-6.36-5.18-9.71-18.82,.36-21.71-.12-.56-.2-1.14-.15-1.71,.12-1.88,.85-3.56,2.09-4.74-4.14-4.45-9.22-7.06-14.61-9.52-3.02-1.58-4.58-5.16-7.6-6.55-5.97-1.04-13.87-2-16.46-8.37-3.68-10.54,4.96-16.11,14.6-15.27,10.91,3.68,22.81,8.18,30.19,17.5,.78,.1,1.54,.31,2.29,.61,1.24,.49,2.36,1.14,3.41,1.88,5.06-.36,9.45,3.46,12.68,6.92,5.43,5.19,9.01,12.29,7.91,19.96,3.39,5.13,.83,12.08,1.46,17.92,.54,4.65,1.15,9.23,1.87,13.78-.34,.71-.61,1.44-.83,2.22-1.05,3.78-.15,7.25,1.1,10.74,.8,2.53,1.39,5.09,2.33,7.59,1.09,2.92,2.61,5.58,4.06,8.32,.12,.27,.22,.53,.32,.8,.51,1.6,.92,3.22,1.29,4.87,.39,2.26,.51,4.55,.88,6.79,.37,2.43,.87,4.82,1.15,7.23,.07,.9,.12,1.8,.15,2.72-.07,1.53-.17,3.04-.31,4.57-.29,2.24-.73,4.45-.73,6.72,0,1.22-.02,2.43-.03,3.65-.05,.64-.1,1.31-.17,1.97-.31,2.29-.75,4.58-1.1,6.86-.24,1.37-.46,2.73-.75,4.09-.37,1.75-.53,3.55-.7,5.33-.07,.56-.15,1.1-.24,1.66-.37,1.9-.63,3.8-.87,5.74-.22,1.36-.41,2.72-.59,4.09,.05-.42,.1-.85,.17-1.29-.34,2.07-.58,4.14-.9,6.19,.05-.27,.1-.54,.15-.8-.12,.63-.24,1.27-.34,1.92-.02,.03-.02,.08-.03,.12-.76,2.16-1.54,4.31-1.71,6.6-1.48,.85-3.19,1.31-4.97,1.31-1.54,0-3.12-.36-4.62-1.09Z"/>
  <path d="M496.48,123.89l-.05-.15c.03,.1,.07,.19,.1,.27-.02-.03-.03-.08-.05-.12Z"/>
  <path d="M270.96,223.83c-4.87-1.58-3.53-8.22-5.87-11.52-5-8.85,.27-18.74,.68-28.01,.29-9.11,1.26-18.02,.35-27.15-1.67-7.89,.42-16.63,.79-24.76,1.08-10.87,4.99-21.06,8.16-31.42,2.09-4.4,3.3-9.9,7.73-12.57,2.7-6.83,4.74-12.73,5.95-19.65,.44-4.64,1.51-9.04,3.68-13.21,.78-2.29,1.67-4.8,3.72-6.2,4.4-3.62,11.53-.38,11.2,5.46,.54,0,1.08,.08,1.62,.22,.89,.25,1.76,.7,2.5,1.29,10.88,2.67,3.5,13.74-.44,19.36,8.31-2.17,16.09-1,24.36-.17,18.73-2,37.8-6.81,56.18-10.2,12.25-2.48,23.27-8.15,35.06-11.2,7.89-3.15,12.92,8.66,5.07,12.02-5.52,1.88-10,2.95-14.85,4.77-16.48,7.38-34.39,8.81-51.68,13.05-11.16,1.91-22.5,4.91-33.86,4.43-4.39-.74-9.42-1.45-13.76-.7-2.48,.64-5.22,.69-7.55,1.78-4.59,3.78-8.58,8.17-10.79,13.73-5.04,6.92-8.75,15.63-11.54,23.32-2.75,5.44-4.61,11.16-5.77,17.13-2.17,18.01-2.79,36.21-2.72,54.26-1.44,8.1,6.52,28.99-8.21,25.93Z"/>
  <path d="M467.11,295.81c-3.07-1.31-1.7-4.57-.75-6.86,.99-4.63,2.41-9.29,2.8-13.97,0,0,0,0,0,0,.72-22.02,3.19-43.91,6.96-65.57,.34-.48,.65-.99,.94-1.5,2.9-5.12,3.32-11.02,1.65-16.35,.26-.11,.54-.19,.83-.23,1.75-.24,3.46,1.02,3.68,2.78,.41,20.28-5.5,40.38-6.47,60.64-1.04,10.71-.05,21.57-3.24,31.84-.89,3.09-1.17,9.43-5.09,9.43-.4,0-.84-.07-1.33-.21Z"/>
  <path d="M479.77,229.42c-3.33-.95-2.4-4.88-1.53-7.33,1-4.13,2.33-8.22,3.66-12.22,.87-4.57,1.59-9.05,2.38-13.63,.28-1.37,1.24-2.45,2.53-2.75,.3-1.83,2.27-3.1,4.09-2.58,5.94,1.47-1.4,18.37-2.9,22.33-1.86,3.84-2.55,8.11-3.85,12.03-.07,2.34-1.74,4.9-4.38,4.14Z"/>
  <path d="M486.52,285.87c-5.14-4.3,4.14-10.4,6.33-13.83,1.3-2.36,1.19-5.26,2.74-7.56,1.74-3.08,4.07-5.06,5.13-8.2,1.15-3.67,1.64-8.05,1.8-11.74-.13-4.31,1.28-8.73,.05-12.85-4.19-5.28-6.89-11.56-14.53-11.57-1.25,1.74-3.75,2.42-5.36,.78-2.88-3.06,1.57-7.4,4.87-7.31,6.9-.06,12.79,3.41,16.48,9.18,2.67,3.47,5.99,7.02,5.57,11.74-.48,6.77-.46,13.72-1.75,20.26-.6,5.48-4.61,9.44-7.13,13.97-.68,5.07-3.6,8.99-7.32,12.28-1.8,2.2-3.26,6.81-6.87,4.84Z"/>
  <path d="M431.96,291.89c-1.24-4.02-3.94-7.03-6.35-10.28-1.09-1.43-.83-3.48,.58-4.58,5-3.41,10.6,9.42,12.05,13.14,1.18,4.05-5.14,5.84-6.28,1.73Z"/>
  <path d="M304.64,201.12c-4.88-5.56,6.78-10.11,10.46-12.36,5.62-3.1,12.12-3.14,18.26-4.18,9.96-.04,20.6,.14,28.51,6.66,2.76,.65,7.38,.8,6.44,4.85-.79,2.8-3.78,2.53-6.04,1.95-3.02-.2-5.23-2.42-7.62-3.96-12.05-4.36-26.74-4.39-38.2,1.38-2.3,1.17-4.44,2.18-6.31,3.88-1.08,1.98-3.46,3.35-5.48,1.77Z"/>
  <path d="M330.08,203.47c-5.36-.61-11.85-7.49-6.25-11.96,5.29-5.11,18.49-6.67,19.04,3.16,.9,7.1-7.03,9.7-12.8,8.81Z"/>
  <path d="M477.39,216.55c-1.58-1.31-1.65-3.36-1.9-5.24-.59-5.27-1.64-10.5-2.07-15.78-.54-5.26-.35-10.56-.2-15.83,.19-2.49,3.62-3.7,5.36-2.01,.5-.3,1.09-.47,1.67-.47,1.77,0,3.18,1.44,3.26,3.18,2.14,.48,2.57,2.88,2.45,4.8,.27,1.64,.49,3.57-1.04,4.65-.08,5.26-.19,11.01-.22,16.21-.06,1.39-.64,2.67-1.92,3.35,.56,3.73-.23,9.92-5.38,7.15Z"/>
  <path d="M428.25,207.11c-3.46-2.53-5.68-7.66-4.99-11.88,1.63-5.04,8.23-6.88,12.86-5.14,12.33,5.23,4.32,24.75-7.87,17.02Z"/>
  <path d="M402.35,201.55c-1.51-3.85,3.23-4.84,5.72-5.67,3.66-2.19,7.44-4.43,11.66-5.28,4.74-1.55,9.67-3.31,14.69-3.5,5.83,.65,11.34,2.74,16.65,4.91,1.6,.38,3.07,1.07,4.53,1.77,2.05,.05,3.96,1.6,3.65,3.79-.7,4.02-5.6,2.96-8.08,1.27-6.32-1.77-12.39-5.72-19.01-5.02-5.01,1.23-9.8,2.51-14.52,4.28-4.23,1.31-11.91,8.76-15.3,3.44Z"/>
  <path d="M407.91,183.06c-3.55-1.03-5.13-4.41-5.79-7.74-1.53-3.47-2.96-9.1,2.95-8,4.04-2.42,9.23-2.13,13.81-2.82,8.97-.46,18.53-.29,27.24,1.76,5.95,1.73,12.71,1.82,18.04,5.08,3.57,2.4,2.21,8.27-2.36,8.03-13.68-2.43-26.89,1.36-40.39,2.55-4.52-.14-8.97,2.23-13.49,1.15Zm2.06-6.2s.1,0,.15,0c-.09-.12-.17-.26-.24-.39-.18,0-.36-.03-.54-.06-.03,0-.06-.01-.08-.02,.16,.25,.43,.41,.71,.47Z"/>
  <path d="M353.44,180.06c-2.63-.81-4.86-1.6-7.24-2.8-5.59-.35-11.23-.91-16.85-.92-10.29-1.71-20.11,1.76-30.11,3.1-5.46-1.32-2.46-7.52,1.66-8.47,8.06-3.37,16.1-6.72,24.9-7.45,5.76-.15,11.47-3.3,17.19-3.22,3.64-.4,7.9-1.84,11.12,.59,.11,.01,.22,.04,.33,.06,3.92-1.58,5.27,3.44,5.32,6.34-.12,3.2,1.54,7.05-.31,9.88-.4,2.89-3.58,3.9-6.03,2.88Z"/>
  <path d="M144.11,738.48c-.41-.09-.79-.26-1.15-.46-24.49,2.46,17.24-68.77,29.41-69.6,14.22-6.52,17.77,10.51,13.31,20.71-5.75,15.69-13.33,31.37-26.19,42.46-4.31,3.55-9.35,8.34-15.38,6.89Zm18.28-24.3c-1.97,4.16-4.58,7.98-7.06,11.83-.28,.43-.56,.85-.84,1.28,7.02-5.99,12.9-13.9,17.17-22,2.23-4.8,16.97-33.7,4.45-31.31,.03,9.52-4.87,18.15-8.04,26.9,3.18,4.38-4.88,8.76-5.68,13.31Zm-8.47-1.77c-1.29,3.3-2.62,6.57-3.92,9.86,.82-1.25,1.64-2.51,2.43-3.78,1.05-1.68,2.05-3.37,3-5.1-.13-.09-.25-.19-.37-.3-.4-.36-.71-.75-.94-1.17-.06,.17-.13,.33-.19,.5Z"/>
  <path d="M154.19,815.34c-.19,0-.37,.02-.56,.02-5.7,1.14-11.47,1.44-17.12,.98-.63,1.89-1.35,3.73-2.13,5.54-.17,0-.34,0-.52,0-8.81-.12-17.6-.29-26.39-.49-2.55-.05-5.09-.08-7.64-.12-1.88-.22-3.78-.42-5.67-.63-17.94-1.92-35.84-4.23-53.85-5.41-8.48-.57-16.93-1.27-25.4-1.95-1.76-8.12-1.9-16.64-.14-25.1,.58-23.25,7.5-45.28,7.67-68.48,4.72-29.06,12.15-54.55,17.84-82.69,1.87-15.12,6.42-30.04,12.24-43.67,1.71-14.9,9.83-27.73,14.66-41.61,6.96-19.81,17.28-39.48,34.15-52.65,26.7-24.9,63.47-42.89,100.69-38.36,22.74,4.04,40.83,14.15,57.84,27.36,17.12,14.87,24.56,24.76,41.5,36.9,2.61,1.95,4.94,4.11,7.23,6.31,11.27,6.23,23.71,10.9,36.32,13.68,7.65-.75,16.14-2.65,23.69-4.01,11.44-1.6,20.55-7.57,28.63-15.58,5.16-3.61,10.83-6.67,14.75-11.2,18.92-21.23,41.36-41.29,70.35-46.38,39.32-46.96,81.45-11.42,127.53-3.46,11.29,2.65,20.74,7.79,26.31,11.97,8.91,4.53,17.11,9.49,24.46,16.68,9.86,12.03,20.33,23.01,27.92,36.85,7.06,14.48,16.02,28.53,19.86,44.25,4.77,11.74,9.37,20.98,13.12,31.55,8.25,17.36,18.57,33.88,23.98,52.41,16.8,32.91,13.87,73.64-18.58,95.87-23.05,17.4-54.39,19.76-80.65,8.33-14.38-5.5-29.84-7.67-45.11-8.74-25.53,56.13-96.13,45.48-147.08,49-21.57,1.78-41.61,3.53-61.03,4.7-46.47,2.51-92.94,5.09-139.41,7.74-17.99,1.53-35.81,4.29-45.45,4.9-8.41,.94-17.17,2.08-25.77,2.08-9.89,0-19.56-1.51-28.22-6.58Z"/>
  <path d="M263.45,525.17c-7.32-2.45-9.11-11.66-10.24-18.39-4.96,5.28-13.28,3.36-16.54-2.76-3.15-5.12-2.81-11.56-2.53-17.36-4.87,7.6-18.33,27.25-25.74,11.91-1.36-6.98,5.39-12.13,8.39-17.82,1.8-3.5,2.34-8.02,4.81-11.39-3.9,3.09-8.21,5.62-12.17,8.61,.92,3.53-.82,7.72-4.38,9.03-5.92,2.56-15.64,6.39-18.47-2.14-12.02,6.86-19.56-7.39-8.25-14.67-.26-3.48,2.01-6.92,5.45-7.88,3.94-2.48,7.71-5.34,11.92-7.43,5.86-3.56,12.73-5.12,18.24-9.18,5.48-2.11,10.71-4.75,15.97-7.23,9.57-2.71,17.91-9.27,27.26-12.47,3.61-1.04,7.67,.92,9.05,4.41,.94,2.66,.53,5.51,1.17,8.17,10.46,4,1.21,30.34,1.46,39.74,10.51,3.37,4.95,17.53,5.72,25.74-.33,7.93,1.1,23.36-11.1,21.11Z"/>
  <path d="M299.79,553.9c-5.88-3.37-10.86-8.1-14.09-14.09-8.86-12.96-16.04-26.95-19.99-42.23-3.06-6.71-9.74-18.37-.62-23.03-.17-.61-.32-1.23-.44-1.85-.41-2.12,.43-4.46,1.84-6.08-.66-3.33-1.23-6.68-1.71-10.06-.91-6.37-1.74-12.78-2.08-19.2-2.88-.62-5.24-3.44-5.57-6.33-.43-4.17,2.54-6.98,4.5-10.28,6.17-6.11,21.54-9.06,23.57,2.21,.63,6.91-3.87,12.85-3.99,19.56,3.67,15.34,.57,31.34,7.27,45.84,4.39,12.27,9.34,24.19,18.5,33.75,3.63,5.28,9.3,9.66,10.96,15.99,.8,4.23-2.41,8.78-6.73,9.1,.33,5.71-6.61,9.76-11.43,6.7Z"/>
  <path d="M384.14,550c-1.63-6.7,5.48-10.87,9.62-14.88,7.66-7.92,16.89-14.27,23.39-22.92,13.45-13.56,23.54-29.81,33.68-45.88,1.78-7.17,6.4-12.93,10.05-19.24,3.51-8.35,4.23-17.73,8.83-25.65-7.23-4.97-7.43-17.41,2.97-17.83,6.5,.29,11.85,5.4,12.7,11.8,6.56-1.35,10.7,5.53,15.85,8.24,15.47,8.22,34.16,9.74,48.2,20.53,5.23,3.49,6.56,12.03,.56,15.44-3,1.78-6.58,1.25-9.89,.92-8.33-.23-16.4-1.87-22.08-8.45,15.72,16.03,1.4,29.37-15.77,17.37,.88,5.13,4,11.2-.25,15.6-5.06,5.06-12.51,.76-13.78-5.49-2.1,9.84-12.91,21.5-20.41,9.01-9.14,13.32-18.94,26.43-30.66,37.61-11.92,9.71-23.81,19.17-37.75,25.88-5.06,4.22-12.77,5.55-15.26-2.05Z"/>
  <path d="M594.4,813.35c-5.85-3.37-3.06-10.55-2.72-15.92-11.24-3.39-4.42-18.02-2.31-25.82,5.12-12.1,7.85-27.33,18.5-35.78,17.8-10.3,39.51,10.75,53.76,20.21,6.24,3.96,17.58,1.68,18.96,11.22,7.89-6.77,17.01-11.26,26.78-14.66,2.72-2.9,6.76-4.2,10.18-5.81,9.68-4.85,16.79-11.6,26.67-15.6-1.72-2.55-2.84-5.75-3.8-8.35-.81-2.17-1.61-4.33-2.41-6.49-3.82,.28-7.83-2.56-8.16-6.56-.2-6.01-2.23-12.5-.2-18.35,2.04-5.13,9.3-6.35,13.03-2.39,2.08,2.24,3.33,4.95,4.48,7.75,5.04-3.71,11.79,.39,12.29,6.28,4.52,1.14,6.12,6.24,6.94,10.72,8.2,4.09,8.87,20.08-.23,23.41-3.11,4.37-8.17,6.12-12.54,8.76-6.74,6.36-15.33,9.7-22.72,15.09-17.76,12.95-38.25,21-58.59,28.7-3.84,4.16-8.87,8.43-14.71,8.93-5.43,.05-9.13-5.45-8.26-10.53-6.42-3.21-9.61-9.95-13.4-15.67-2.89-5.16-8.68-12.44-3.36-17.78-4.5-2.72-8.92-6.37-14.42-6.51-.33,1.37-.74,2.71-1.11,3.98-.35,1.24-.69,2.48-1.02,3.72,2.51,6.29,3.54,20.12-5.38,21.48-3.68,9.23,.49,43.1-16.27,35.98Z"/>
  <path d="M581.71,805.5c-3.48-.95-5.56-4.02-5.78-7.5-4.03-6.75,1.67-15.45,3.88-22.17,2.4-6.43,3.6-13.31,7.5-19.13,6.04-9.14,19.03,.27,12.37,8.94,2.78,9.2-1.79,19.48-4.66,28.28-2.06,5.66-6.14,13.41-13.31,11.57Z"/>
  <path d="M454.09,829.16c-9.11-.02-18.23-.2-27.34-.17-8.72,.02-17.45-.31-26.15-.32-8.71-.02-17.41-.17-26.1-.29-18.28-.25-36.56-.53-54.82-1.04l1.88,.05c-17.87-.61-35.74-1.22-53.61-1.63-17.14-.39-34.32-.97-51.48-1.05-6.43-.03-12.86-.08-19.3-.12-2.58-.17-5.14-.32-7.71-.46,.64,.03,1.29,.08,1.93,.14-2.66-.19-5.35-.36-8.01-.54,.64,.05,1.29,.08,1.93,.14-8.79-.59-17.53-1.27-26.36-1.41-8.37-.12-16.73-.46-25.1-.58-7.08-.1-14.16-.22-21.23-.38-1.62-12.03,18.89-11.27,26.78-14.63,14.27-4.02,28.89-6.72,43.58-8.5,23.68,1.41,47.61,1.61,71.45,.75,6.65-.03,13.32-.02,19.99-.02,26.34,.03,52.65,.05,78.97-1.83,38.25,.48,76.44,0,114.63,.56-1.78-2.58-1.77-6.04,.02-8.72,2.17-3.31,6.14-3.58,9.67-4.07,5.23-.71,10.32-1.15,14.9-1.63,23.34-2.95,46.91-6.82,70.5-4.94,8.96,.61,31.13,.42,25.39,14.71,3.34,.92,6.69,.29,10,1.37,2.38,.87,4.28,2.61,6.33,4.01,9.3,.97,11.08,13.49,2.34,16.87-7.72,12.24-25.03,9.06-37.44,10.44-13.7,.44-27.46,.93-41.17,.92-19.88-.88-39.66,.82-59.42,2.57-5.02-.11-10.04-.2-15.07-.2Z"/>
  <path d="M344.72,824.24c-2.9,.27-6.04,.64-8.3-1.49-40.27-3.61-81.28-7.28-121.33-1.48-7.5,1.01-14.97,2.02-22.41,3.05-1.07-.06-2.14-.12-3.21-.18,.64,.03,1.29,.08,1.93,.14-2.66-.19-5.35-.36-8.01-.54,.64,.05,1.29,.08,1.93,.14-8.79-.59-17.53-1.27-26.36-1.41-8.37-.12-16.73-.46-25.1-.58-6.86-.09-13.72-.22-20.57-.36,.97-.17,1.94-.36,2.91-.55,53.43-8.11,107.18-20.42,161.35-17.45,16.48,1.41,33.06,.66,49.47,3.05,8.66,2,23.4-1.63,27.71,7.81,1.81,5.41-2.89,10.09-8.07,10.09-.65,0-1.31-.07-1.96-.23Z"/>
  <path d="M13.61,813.17c-.76-.06-1.51-.12-2.27-.19-1.46-6.62-2.6-13.34-3.53-19.98,.81-6.06,6.26-13.66,13.09-10.08,3.28,1.75,4.87,5.82,3.61,9.28-.06,7.35,.16,15.27,3.16,22.09-4.68-.37-9.37-.75-14.06-1.13Z"/>
  <path d="M649.24,808.23c-3.31-5.75-9.93-15-1.36-19.42,8.88-3.83,11.46,7.34,15.11,12.93,4.17,8.97-9.3,15.43-13.75,6.48Z"/>
  <path d="M652.54,818.13c-.37-3.76-3.11-7.86-4.87-10.79-9.72-13.72-13.93-30.17-23.34-44.03,.11,.11,.21,.22,.29,.3,.05,.05,.09,.09,.13,.13-4.49-5.03-10.07-15.96-1.87-20.16,3.58-1.7,8.55-.2,10.12,3.63,.8,1.82,1.29,4,2.38,5.69,9.02,12.44,14.9,27.27,21.37,41.12,4.73,6.71,9.64,13.31,10.77,21.52,1.59,9.74-13.13,12.41-14.99,2.6Z"/>
  <path class="cls-1" d="M337.67,634.81c-28.86-50.73-65.04-100.07-72.47-159.5-2.88-19.13,.31-38.59-.56-57.72,.07-1.78,1.88-3.09,3.56-2.92,4.62,.76,2.21,6.36,2.95,9.54,.55,14.76-1.38,29.51-.39,44.22,3.8,33.02,15.81,64.31,31.56,93.29,12.38,21.9,25.69,43.34,38.37,65.06,1,1.73,1.92,3.51,2.87,5.26,1.84,3.7-4.05,6.66-5.89,2.77Z"/>
  <path class="cls-1" d="M334.44,676.54c-3.61-2.46-1.65-7.78-1.48-11.41,1.09-8.74,1.2-17.54,2.99-26.19,.31-1.75,2.27-2.82,3.92-2.43,4.26,1.24,1.67,6.32,1.55,9.4,4.55-13.62,14.31-24.23,24.93-33.52,7.04-7.81,14.2-15.43,21.41-23.03,31.18-32.01,65.26-63.84,81.14-106.7,1.68-7.9,4.31-15.75,6.36-23.51,1.75-15.46,1.34-31.14,.97-46.64-.22-2.77-1.6-6.93,2.21-7.72,4.29-.46,3.95,4.57,4.33,7.57,.3,16.17,.84,32.49-1.2,48.57-1.95,7.33-4.33,13.96-5.82,21.33-14.66,43.35-48.2,76.11-79.67,107.74-8.16,8.75-16.37,17.16-24.17,26.04-12.03,10.67-23.8,23.21-26.36,39.75-.56,5.99-2.47,11.61-5.65,16.67-.66,2.66-2.28,5.57-5.47,4.07Z"/>
  <path class="cls-1" d="M349.75,653.95c-6.25-1.43-11.47-7.87-18.02-6.97-1.77,.19-3.45-.81-3.77-2.65-.27-1.66,.9-3.58,2.66-3.77,7.81-1.78,13.73,4.64,20.6,7.04,4.12,1.02,2.66,7.29-1.48,6.35Z"/>
  <path class="cls-1" d="M317.84,73.16c-4.68-12.84-8.89-28.45-1.19-40.94,.8-1.58,2.85-2.19,4.4-1.36,4.55,3.12-1.71,8.04-1.78,12.03-1.15,9.15,1.33,19.04,4.46,27.48,1.82,3.79-4.15,6.64-5.89,2.78Z"/>
  <path class="cls-1" d="M347.69,81.67c-4.79-1.5-1.15-7.02-.66-10.3,4.54-16.09,2.08-32.8,2.61-49.25-.09-4.24,6.36-4.49,6.5-.24-.45,17.7,2.04,35.85-3.33,53.04-.82,2.7-1.21,7.56-5.13,6.75Z"/>
  <path class="cls-1" d="M375.91,77.42c-4.11-1.15-1.81-5.73-1.51-8.66,.66-4.11,.97-8.33,1.09-12.52,.03-8.77,.03-17.55-.24-26.32-.07-1.78,1.37-3.31,3.14-3.38,5.85,.37,2.77,10.6,3.58,14.65-.53,5.95,2.26,37.59-6.06,36.23Z"/>
  <path class="cls-1" d="M410.32,79.01c-1.32-1.22-1.39-3.29-.2-4.62,6.52-8.48,4.01-20.32,4.21-30.24-.09-4.75-.39-9.52-.7-14.27-.12-1.78,1.41-3.31,3.14-3.38,1.82-.07,3.26,1.37,3.38,3.14,.11,15.47,4.07,32.53-3.31,46.86-1.33,2.19-4.06,4.74-6.52,2.51Z"/>
  <path class="cls-1" d="M432.11,76.09c-1.13-2.42,.91-4.3,3.02-5.09,1.83-.86,2.55-2.82,3.16-4.62,4.37-14.27,3.71-29.6,2.56-44.33-.25-1.75,.87-3.45,2.65-3.77,7.38-1.62,3.82,25.31,4.38,30.38-1.1,9.96-.86,24.23-11.42,28.99-1.57,.79-3.6,.03-4.34-1.56Z"/>
  <path class="cls-1" d="M642.98,779.1c-6.52-7.46,14.94-14.5,18.7-19,7.67-8.52,15.69-16.86,25.53-22.92,5.99-2.99,11.86-5.22,17.12-9.28,14.44-9.31,29.2-19.9,46.5-22.39,2.57,.22,4.85-1.4,7.42-1.48,2.29-.1,4.21,2.34,3.33,4.51-.75,2.1-2.82,3.38-4.57,4.58-11.37,7.69-23.18,14.62-34.98,21.61-16.2,8.69-31.21,22.78-47.79,30.38-7.48,4.31-16.21,6.6-23.01,11.88-1.13,1.02-2.4,2.23-4.04,1.75-1.19,1.03-2.89,1.31-4.21,.35Z"/>
  <path class="cls-1" d="M635.84,761.39c-3.96-2.46,.14-6.72,1.56-9.55,3.65-6.92,11.3-9.78,16.11-15.61,6.62-10.84,17.35-16.43,27.01-23.97,7.14-4.74,12.33-11.73,19.3-16.63,12.58-6.62,25.55-15.21,39.61-17.48,5.1-4.19,10.18,2.19,4.1,5.51-14.18,8.31-29.77,14.26-42.24,25.36-11.64,8.67-24.83,16.04-34.81,26.71-4.05,6.5-10.44,13.2-18.44,13.74-3.69,2.77-5.66,6.65-7.78,10.57-.87,1.56-2.85,2.18-4.41,1.36Z"/>
  <path class="cls-1" d="M94.16,820.63c-17.94-1.92-35.84-4.23-53.85-5.41-3.29-.22-6.57-.46-9.85-.71-5.71-2.47-10.89-6.01-16.17-9.3-1.51-.93-1.77-3.16-.8-4.55,1.05-1.49,2.99-1.71,4.5-.81,1.65-.64,3.51,.14,5.09,.75,12.78,4.57,26.02,9.54,39.24,12.34,8.42,.97,16.7,2.38,25.1,3.5,4.02,.8,8.96,1.07,11.83,4.31,.11,.16,.2,.33,.28,.49-1.79-.21-3.59-.4-5.37-.59Z"/>
  <path class="cls-1" d="M89.47,796.79c-13.82-.71-27.05-4.67-40.02-9.18-5.15-1.84-42.18-10.49-30.82-18.64,.17-4.22,5.11-4,7.67-1.93,10.91,6.6,23,10.74,35.27,13.66,12.13,3.83,24.1,9.06,36.88,8.64,.93-.2,1.86,.09,2.56,.67,1.89-.13,3.69,1.25,3.73,3.2-.13,5.67-11.35,3.29-15.27,3.58Z"/>
  <path class="cls-1" d="M96.77,815.76c1.63-19.82,4.53-39.81,9.88-59.03,1.9-7.99,4.08-15.88,6.74-23.64,.54-1.68,2.58-2.51,4.19-1.9,1.71,.64,2.44,2.49,1.9,4.19-5.22,16.99-10.3,34.3-12.66,51.95-.58,9.49-3.56,18.79-3.53,28.21,.05,4.22-6.35,4.49-6.52,.22Z"/>
</svg>