<?xml version="1.0" encoding="UTF-8"?>
<svg xmlns="http://www.w3.org/2000/svg" viewBox="0 0 939.03 834">
  <defs>
    <style>
      .cls-1 {
        fill: #f3c25f;
      }
    </style>
  </defs>
  <g id="Vektorebene-3" data-name="Vektorebene">
    <path class="cls-1" d="M368.67,814.85c-82.11-33.05-162.38-76.23-216.43-142.31-44.26-51.76-73.96-109.58-108.16-165.45C-4.67,452.25-.77,375.19,60.12,342.81,2.76,251.16,52.05,135.97,174.94,143.27c6.94-121.5,156.43-181.08,287.12-109.79,83.7-26.32,186.91,23.31,255.62,77.82,52.23,30.52,102.14,65.71,142.59,108.04,98.33,94.6,108.74,260.16-46.4,276.65,68.83,119.27-60.2,223.33-197.16,169.12-4.2,22.37-15.7,42.71-35.39,57.86-11.54,8.89-23.61,15.74-37.89,20.94-9.29,66.76-98.12,104.74-174.76,70.94Z"/>
  </g>
  <g id="Vektorebene-4" data-name="Vektorebene">
    <path d="M263.87,586.81c-38.25-17.75-22.09-125.47-18.92-161.83,2.93-28.14-.84-55.7-3.5-83.49-1.77-33.02-1.61-65.54,3.98-98.16,2.51-16.22,11.02-30.53,16.96-45.56,12.76-22.74,41.58-25.32,64.77-30.2,40.71-7.44,82.42-4.22,123.39-3.46,32.97-.53,66.16-4.19,99.1-2.98,15.75-.33,31.88-2.64,47.27,1.82,22.86,5.93,61.17,13,67.91,39.09,5.22,9.44,10.88,19.17,12.05,30.01,.09,9.87-.98,19.24-.09,28.95,.93,28.97,1.57,57.99,1.68,86.91,2.71,33.53,3.99,66.79,2.24,100.3-2.62,35.56,.35,73.03-11.7,106.98-14.92,27.77-41.6,34.07-70.96,33.76-26.53-.23-52.18,1.09-78.59,1.05-46.33,.16-92.36-.83-138.43,2.84-38.86,2.04-80.27,10.12-117.18-6.03Zm6.04-6.52c27.64,11.19,56.82,7.29,85.54,6.14,38.88-3.5,78.02-5.78,117.05-4.46,36.52-1.1,72.94-.15,109.42-1.53,30,.43,62.91,1.57,79.18-28.45,6.44-14.19,6.68-30.16,8.05-45.44,2.26-23.52,2.47-47.31,3.48-70.76,1.54-29.34-.56-58.44-2.62-87.55,.21-39.23-2.26-78.35-1.73-117.35-2.36-12.19-10.56-21.22-13.66-32.82-3.64-6.35-11.87-9.12-17.43-13.56-20.17-8.71-43.41-15.99-65.46-15.64-25.62,1.08-51.18-.37-76.73,2.16-50.47,4.18-101.49-3.62-151.72,2.89-13.24,1.44-26.26,4.21-39.25,7.17-6.78,1.65-13.91,2.71-19.53,7.15-.79,3.96-5.97,4.25-8.91,5.88-3,2.11-4.64,5.97-6.41,8.95-3.93,11.69-10.67,22.12-13.71,34.12-4.27,16.63-4.52,33.9-6.46,50.89-.25,16.9,.26,33.84,.69,50.67,1.35,19.51,4.92,39.37,4.83,58.82,1.63,38.3-25.25,166.28,15.68,182.87,0,0-.29-.14-.29-.14Z"/>
    <path d="M386.31,540.79c-80.55-34.96-82.93-163.3-3.31-200.56,14.34-5.52,29.88-7.51,45.18-6.51,4.64-1.37,8.29,2.32,9.05,6.69-1.74-6.31,7.7-8.52,8.35-1.84,.19,5.99,1.78,11.16,2.58,16.98,1.32,9.47,.18,19.03,1.66,28.42-.12,4.36,2.31,9.84-1.24,13.29-2.05,1.73-4.84,1.26-7.13,.33-2.88-.51-6.56-.08-9.29-.5-13.04,.1-26.72,5.72-34.86,15.94-9.85,14.54-12.45,34.18-2.05,48.84,7.03,5.76,12.7,13.62,21.2,16.95,13.58,6.69,24.42,6.63,35.68-3.96,13.07-12.55,16.87-30.61,15.47-47.99-.74-21.87,1.27-43.97-.67-65.77-3.5-39.25-3.05-78.73-3.13-118.08,.51-4.42-1.37-9.9,2.36-13.17,16.21-6.87,35.29-5.59,52.43-8.28,8.58-1.96,10.38,6.65,9.93,13.34,.4,18.84,6.24,39.46,20.06,52.65,7.36,6.6,15.56,9.94,24.28,13.51,8.72,3.59,18.02,6.41,27.22,4.92,7.45-3.16,11.39,2.51,10.81,9.66-.17,9.34-.92,18.67,.6,27.73-.3,6.73,5.16,22.04-5.42,22.23-25.53-5.54-53.7-8.91-72.63-29.02,5.98,42.27,15.18,85.27,7.45,127.89-16.6,76.7-84.32,105.46-154.58,76.3Zm12.66-3.95c26.48,7.04,55.53,10.68,80.97-1.68,13.39-7.45,26.69-17.36,35.04-30,8.31-14.39,15.59-29.52,18.26-45.7,3.92-25.11,1.48-50.69-1.21-75.59-1.48-18.11-7.58-35.74-7.11-53.98,.03-4.14,4.18-8.17,8.23-5.7,5.14,4.42,9.29,10.41,15.19,14.06,17.36,11.63,35.95,14.26,55.62,18-1.23-14.19-2.45-27.88-1.57-42.11-17.3,3.25-34.53-5.56-49.48-12.94-24.6-14.08-33.08-44.49-33.11-71.24-15.86,1.87-31.93,2.49-47.46,6.22-1.63,69.58,5.38,137.61,3.68,207.05-2.26,21.45-17.67,46.83-40.81,48.69-16.03,.21-30.63-8.26-41.14-19.76-4.39-3.4-8.26-7.56-10.01-12.93-14.92-33.77,12.71-72.93,49.45-70.53-2.52-15.35-2.32-31.37-4.61-46.54-63.18-5.63-98.55,48.28-95.99,106.34,2.95,38.93,28.15,76.12,66.08,88.35Z"/>
    <path d="M268.96,581.57c-5.88-3.06-10.13-8.55-15.29-12.6-6.47-9.91-8.23-22.65-9.29-34.31-.74-16.23-4.35-32.14-4.3-48.41,.64-19.33,.68-40.01,1.48-59.24-.12-18.8-2.35-37.66-1.3-56.45,.91-14.25,2.25-30.88,2.27-44.79,.02-24.96-3.99-51.6,5.95-75.23,5.98-21.57,8.93-47.42,28.4-61.83,3.07-1.83,5.65-4.49,8.89-5.96,7.6-3.43,17.4,.64,19.65,8.74,5.83,7.17,1.72,16.45-3.77,22.61-3.98,5.12-5.71,11.47-7.31,17.66,14.47,9.03,6.24,29.14,6.69,43.09,7.49,4.31,7.85,13.92,7.53,21.63-.36,10.59-.91,21.19-.98,31.79,6.97,7.36,6.02,18.3,6.55,27.7,9.62,4.94,8.14,17.83,8.97,27.03,.99,18.49,2.14,38.49,4.03,55.74,2.28,19.36,5.56,38.63,6.54,58.12,3.77,12.71-2.82,27.43-17.89,22.89-2.29,1.67-5.05,2.7-7.9,2.79-6.45,.21-11.65-3.88-13.69-9.53-2.41-.53-4.7-1.66-6.4-3.39-1.01-1.03-1.85-2.05-2.58-3.16-.18,.07-.37,.13-.56,.19-3.25,1.02-6.83,.72-9.94-.61-1.43,7.6-.59,15.21-.18,22.81,8.84-1.09,15.7,7.06,15.86,15.51,4.41,6.81,6.34,16.01,2.67,23.57,1.35,13.1-13.52,19.98-24.09,13.67Z"/>
    <path d="M613.99,563.82c-9.21-10.62-11.49-24.46-11.72-38.12-.66-.43-1.28-.88-1.86-1.37-.56,.66-1.15,1.3-1.79,1.9-4.71,4.44-12.42,6.11-18.4,3.25-2.17,1.49-4.71,2.42-7.56,2.51-2.79,.1-5.71-.51-8.14-1.91-8.6,.05-19.01-1.11-24.93-8.08-11.58-18.9-7.36-65.59,9.37-81.06,1.43-6.43,5.05-12.98,11.78-14.91,5.98-11.27,9.91-29.85,26.55-28.53,3.84-3.14,8.89-4.33,13.72-3.71,5.04-7.03,14.51-10.66,22.57-6.59,.53-16.35-.65-32.69-.33-49.04,.1-5.78-.28-13.48,3.37-18.43,2.39-14.32-4.61-36.42,15.18-37.67,.02-5.81-.73-11.8,.57-17.5,2.85-12.83,21.11-14.59,26.59-2.74,3.37,8.72,2.87,19.12,1.83,28.36,5.62,5.87,2.98,14.56,3.03,21.84,.56,30.14,5.03,60.42,1.03,90.49-.86,9.76-.61,19.62,1.27,29.23,1.85,14.15-.23,28.31-3.11,42.11-2.24,20.7,2.59,41.52,.41,61.99-1.13,9.36-6.56,17.25-9.99,25.84-10.77,18.94-36.57,18.88-49.44,2.12Z"/>
    <path d="M276.88,586.06c-12.85-11.09-17.71-31.99-12.35-47.88-1.45-6.41-6.71-11.52-5.83-18.48-.46-22.14,27.09-32.7,43.81-20.11,0-12.03,4.93-29.44,20.05-27.31,11.34,1.68,13.47,14.09,16.61,23.07,3.99,2.88,6.04,7.64,7.3,12.25,11.17,14.17,27.51,22.85,43.25,30.53,15.56,6.2,31.79,7.2,48.24,7.48,15.12-.46,30.73-.58,45.12-5.73-.58,.16-1.15,.3-1.71,.47,4.56-10.11,14.64-16.56,22.65-23.73,8.31-7.24,16.02-15.29,22.92-23.89,5.15-7.12,3.43-17.33,9.24-24.19,6.23-7.61,19.2-6.26,23.48,2.68,0,0,0,.02,.01,.03,4.22,1.15,7.85,4.2,9.6,8.36,6.05-2.75,13.32-1.98,18.08,3.26,9.56,11.64,1.75,28.54-7.24,38.12,.4,.58,.75,1.19,1.04,1.83,.43,.94,.76,1.88,.99,2.81,3.82-.76,7.5-1.25,11.33-2.25,6.84-4.98,16.87-1.54,21.17,5.12,12.72-1.08,28.33,4.93,23.52,20.32,9.37,3.24,12.38,15.48,6.14,23.03-4.85,6.1-13.3,7.17-20.54,8.08-9.28,2.21-18.61,2.07-28.05,1.04-14.78,1.08-29.55,1.17-44.38,1.78-10.52,.2-21.49,3.43-31.76,.33-15.9,2.91-32.59,1.06-48.77,1.52-10.96-.06-22.84,2.17-33.28-1.86-14.15,.38-29.01,3.58-43.05,3.22-12.3,2.51-24.73-1.06-37.08,1.53-17.12,.73-34.16,6.32-51.27,3.52-4.47-.13-9.14,.66-13.23-1.7-5.5,.89-11.42-.07-16.02-3.27Z"/>
    <path d="M618.43,417.51c-6.81-3.15-10.39-11.9-6.9-18.79,2.85-6.19,7.34-8.29,8.5-14.6,.23-7.2,3.48-14.17,2.02-21.41-2.25-8.65-6.97-16.58-6.85-25.84-1.49-7.74,.51-15.24,1.54-22.9-1.56-3.85-4.19-7.37-4.26-11.73-9.87-4-20.41-4.22-30.58-7.11-7.18-1.49-16.45-2.48-19.96-9.86-3.26-.82-6.3-2.09-8.8-4.77-3.47-3.73-4.4-9.11-2.98-13.77-11.86-.55-20.34-14.86-11.68-24.36,.07-1.71,.45-3.32,1.09-4.8-.95-5.31,.96-10.82,5.43-14.1,.06-.16,.11-.32,.17-.48-.25-.87-.42-1.77-.5-2.67-3.12-3.78-5.76-8.51-6.41-13.35-8.82-.83-20.86-.03-24.96-9.75-7.43,.82-14.85,.63-22.28,.13-7.5,.32-16.33,2.03-22.23-2.56-1.25-.04-2.5-.09-3.75-.11-1.99,3.32-5.26,5.89-9.11,6.48-12,1.67-24.11,.59-36.16,.45-22.93-1.09-45.9-4.26-68.85-1.64-4.52,4.56-11.64,3.74-17.55,4.38-7.5,1.27-15.24,1.56-22.41,4.31-6.39,13.52-31.81,13.81-31.95-3.98-10.85-23.58,24.45-29.54,40.92-30.29,16.63-3.24,33.96-3.42,50.88-3.6,16.79-7.67,36.9-4.57,54.8-3.24,21.31-.65,41.41-.42,62.44-1.89,27.06,.83,54.09-1.87,80.97-.04,6.19-.35,11.97,.61,17.13,.77,5.61-.14,10.95-.18,15.75,3.55,20.13,2.38,43.15,10.81,53.98,28.96,7.98,4.22,12.72,13.13,12.8,22.02,7.33,12.92,8.81,28.3,3.33,42.23-1.9,5.78-5.11,11.82-11.41,13.6,.97,4.36-.02,9.09-3.06,12.71-.31,.37-.64,.72-.97,1.06,.44,3.29-.08,6.54-1.95,9.5-2.34,3.7-6.25,6.02-10.51,6.5,3.11,10.41-2.98,20.68-.43,31.09,3.13,10.99,8.54,21.67,6.92,33.57-2.16,13.71-2.93,28.21-12.95,38.93-3.66,6.97-11.73,10.93-19.22,7.4Z"/>
    <path d="M305.91,453.01c-4.07-1.99-6.44-5.14-7.7-9-.67-.51-1.3-1.07-1.9-1.7-3.03-3.16-3.74-7.38-4.08-11.56-11.17-10.51-.62-26.58,2.74-38.51-11.55-8.49-3.9-24.18,.68-34.57-18.43-6.17-9.9-24.88-1.06-35.76-6.01-1.49-10.11-7.98-9.76-13.99-2.11-2.02-3.67-4.64-4.38-7.44-8.02-2.26-12.25-11.95-8.64-19.42,2.12-4.55,6.05-8.36,9.14-12.28-39-12.74,.78-41.18,16.23-55.82,11.98-8.77,32.23-34.61,47.86-27.14,5.25-3.58,11.34-7.86,17.77-8.36,6.37-.52,12.34,3.24,14.84,9.03,7.07-4.11,16.95-4.34,22.21,2.76,6.9-3.3,13.33-8.72,21.03-9.86,10.05-1.2,18.9,9.24,15.38,18.82,.44,.35,.87,.73,1.27,1.13,12.49-9.11,30.13,1.03,23.92,16.53-13.1,16.36-34.95,23.7-49.21,39.32,7.3,16.51-16.9,32.61-24.74,45.76,6.09-2.81,12.71-3.73,19.3-4.44,9.94-2.53,23.84-4.69,28.19,7.37,1.17,.91,2.21,1.99,3.08,3.24,.21,.31,.41,.62,.59,.94,1.6,.3,3.17,.69,4.72,1.39,4.78,2.14,7.56,6.51,8.15,11.18,4.35,5.98,5.96,12.97,10.59,20.07,1.26,3.08,1.5,6.29,1.9,9.51,1.48,3.65,2.86,7.32,2.93,11.34-.77,24.07-.93,48-12.11,69.34-7.5,14.39-8.69,36.39-25.97,42.6-11.08,2.87-19.83-7.94-19.64-18.33-.86-12.15,.16-30,16.77-28.04,2.31-6.46,5.27-12.66,7.93-18.97,3.25-12.66,3.69-22.94,4.55-35.5-.42-3.44,.44-7.03-.03-10.37-1.59-3.52-2.56-7.28-2.72-11.15-2.65-4.1-5.23-9-6.77-13.46-.05-.02-.1-.03-.16-.05-2.31-.76-4.24-2-5.8-3.61-11.93,2.91-24.48,8.8-36.97,6.17-11.46,2.6-18.82,13.23-28.08,19.98-3.74,3.66-8.67,6.4-11.4,10.89-10.2,19.36-15.28,40.72-19.81,62-.5,6.33-.06,12.84-5.38,17.54-4.16,3.68-10.41,4.85-15.45,2.39Z"/>
    <path d="M410.24,479.3c-4.07-4.02-9.8-5.35-13.77-9.64-5.81-5.61-9.03-13.37-9.31-21.39-.71-20.59,6.75-38.12,25.13-48.52,8.84-5.33,21.25-6.53,30.35-1.35,11.07,6.29,14.63,24.16,.73,29.41,1.72,3.81,2.42,8,1.98,12.42-.18,1.8-.6,3.56-1.2,5.27,15.4,.45,18.02,20.64,7.64,29.53-14.12,11.09-25.55,16.04-41.55,4.27Z"/>
    <path d="M424.37,477.22c-5.78-9.15-.66-15.86,5.79-22.52,2.69-5.18,1.72-12.23,7.43-15.69-.78-6.56,.36-13.32,2.59-19.49-.34-10.26,1.67-20.59,3.56-30.61,4.01-11.47,21.97-11.6,26.16-.19,2.28,5.87-.15,11.87,.75,17.91-.09,9.39-.61,18.57,.19,27.87,1.06,8.69,2.97,20.25-6.99,24.48-1.55,6.59-2.31,14.87-9.44,17.86-6.52,12.86-24.95,15.9-30.04,.38Z"/>
    <path d="M374.95,298.32c2.9-7.15,11.28-10.69,18.43-7.79s10.69,11.28,7.79,18.43c-2.9,7.15-11.28,10.69-18.43,7.79-7.15-2.9-10.69-11.28-7.79-18.43Z"/>
    <path d="M368.12,287.85c-.09-18.74,27.61-19.43,28.29-.69,.08,18.75-27.59,19.44-28.29,.69Z"/>
    <path d="M449.12,390.58c-4.04-3.34-4.02-10.49-4.88-14.72-1.26-12.37-2.99-22.26-5.64-34.05-6.87-1.18-11.29-7.74-11.99-14.57-1.41,.06-2.87-.08-4.35-.46-1.86-.47-3.48-1.23-4.89-2.2-5.79,12.7-24.43,10.35-27.83-3.09-10.57,3.24-19.14-6.53-19-16.64-1.25-9.4-1.47-18.88-1.89-28.32-1.87-8.6,2.81-17.98,12.18-18.94,.51-7.77,8.29-13.84,15.92-12.69,.09-13.89,13.45-23.89,24.96-13.63,5.49-1.55,11.72,1.06,14.93,5.65,7.05,.95,11.98,6.56,12.49,13.8,0,.07,0,.14,.01,.21,17.11,4.29,8.36,22.83,8.53,35.03,9.26,5.35,5.43,17.3,5.93,26.09,.15,8.87,2.28,17.64,3.11,26.38,3.13,13.75,5.18,28.04,6.56,41.97,.82,12.3-15.92,19.14-24.15,10.19Z"/>
    <path d="M442.45,324.4c-4.05-8.97-1.21-18.87-3.73-28.05-11.41-1.21-16.39-6.74-16.98-18.16-2.26-16.77-1.25-33.79-2.11-50.64-8.73-14.57,10.68-31.45,23.09-18.44,3.91-.11,7.55,1.46,10.44,4.13,2.13,1.95,3.26,4.21,3.78,6.61,3.33,2.44,5.66,6.24,6.05,10.55,.16,1.9,.1,3.79-.05,5.68,6.39,6.85,2.35,19.51,1.97,26.98-.07,10.42,.59,20.93,2.12,31.29,2.23,9.14,3.76,18.75,3.04,28.17-1.42,15.2-24.19,16.85-27.63,1.89Z"/>
    <path d="M435.65,240.15c.36-3.42,1.12-6.76,2.08-10.04-9.77-13.95,7.54-28.08,18.56-34.92,8.99-9.81,28.64-21.27,39.07-7.95,9.13,.46,18.75-.76,24.79,6.89,9.14,.35,18.6-.38,27.57,1.1,13.14,4.29,12.84,17.37,4.98,26.64-.05,3.62,1.24,8.4,1.11,11.74,.26,3.88-.75,7.75,1.09,11.37,0,0-.04,0-.04,0,4.44,8.11,6.88,17.98,13.89,24,3.49,2.93,10.8,5.47,13.73,6.97,8.41,4.43,18.97,5.84,28.17,5.12,9.09-1.66,19.88,1.17,21.31,11.69,1.65,9.77-7.95,17.57-17.04,16.27-15.71,1.55-31.73-.8-45.77-8.19-23.37-7.51-33.25-26.61-41.44-48.01-1.74-5.33-3.04-10.69-2.05-16.36,.06-3.73-1.14-7.38-.98-11.15-19.65,.34-39.2,1.48-58.1,7.43-1.19,3.47-2.45,6.99-2.8,10.67-.78,7.68-8.16,13.29-15.71,12.42-7.57-.84-13.22-7.99-12.42-15.71Z"/>
    <path d="M607.6,404.52c-2.32-5.62-1.54-11.91-1.9-17.17-.23-14.81-1.07-28.87-.51-43.42-.06-9.03,1.59-16.99,2.25-25.85,.22-6.4-1.23-13.11,1.27-19.21,2.61-7.27,11.51-10.6,18.43-7.79,9.57,3.58,8.4,13.35,9.22,21.49-.07,3.05,1.4,5.84,.81,8.94-1.88,5.69-3.29,11.13-3.49,17.21-1.11,12.79,.18,24.23-.13,36.81,1.94,3.22,2.61,6.9,3.38,10.56,.7,3.28-.1,6.53-1.81,9.25,2.99,17.21-20.14,25.54-27.52,9.17Z"/>
    <path d="M540.44,455.34c-1.76-10.74-2.33-23.9,1.77-33.88-1.48-12.84-1.77-26.03-4.09-38.63-1.03-6.7-2.96-13.82-1.97-20.53,1.36-11.24,13.91-15.85,23.1-11.83,6.21,.84,10.76,5.98,16.42,6.97,8.72-.54,17.51,.63,25.55,3.52,7.2,1.22,11.67,1.45,18.28,3.18,6.06,1.77,10.04,6.06,11.24,12.29,2.05,14.05-14.34,19.44-24.82,23.25-.3,.81-.66,1.61-1.05,2.39-1.36,2.72-3.68,5.15-6.26,7.17,10.25,17.81-17.23,30.8-28.2,15.9-.03,7.71-.4,15.65-2.59,23.09,6.2,19.61-23.22,27.43-27.37,7.11Z"/>
    <path d="M541.02,366.85c-5.16-5.19-7.63-12.96-8.32-20.16-1.51-1.6-3.71-3.16-3.1-5.74-1.78-3.24,1.2-7.54,4.89-6.48,8.37,4.3,14.55,11.48,23.61,14.55,2.17,.76,3.18,3.44,2.34,5.53-1.77,4.15-6.46,2.32-9.39,.61-.09,.04-.17,.08-.26,.12-.73,.31-1.45,.4-2.16,.33-.51,.53-1.15,.94-1.87,1.16,3.31,1.12,3.54,6.25,.41,7.68-.66,2.5-3.91,3.79-6.14,2.4Z"/>
  </g>
</svg>