<?xml version="1.0" encoding="UTF-8"?>
<svg xmlns="http://www.w3.org/2000/svg" viewBox="0 0 1536 834">
  <defs>
    <style>
      .cls-1 {
        fill: #f3c25f;
      }
    </style>
  </defs>
  <g id="Vektorebene-3" data-name="Vektorebene">
    <path class="cls-1" d="M708.64,807.92c-75.26-27.52-149.07-64.46-199.59-123.55-41.31-46.21-69.54-98.56-101.8-148.94-45.46-48.9-43.6-120.28,10.96-152.45-54.07-82.6-11.85-190.9,99.88-188.69,3.65-112.57,138.05-173.16,258.25-112.09,75.41-27.42,170.19,14.64,233.75,62.49,48.08,26.28,94.16,56.96,131.8,94.6,91.33,83.81,104.4,236.46-36.07,257.45,65.1,107.7-49.77,208.67-175.28,163.61-3.32,20.83-13.32,40.06-30.86,54.79-10.28,8.65-21.09,15.42-33.94,20.76-6.98,62.06-86.79,100.44-157.1,72.03Z"/>
  </g>
  <g id="Vektorebene-4" data-name="Vektorebene">
    <path d="M601.49,591.84c-34.82-14.82-23.43-111.91-21.63-144.62,1.82-25.33-2.36-49.94-5.54-74.79-2.54-29.57-3.33-58.74,.75-88.16,1.78-14.62,9.01-27.7,13.9-41.35,10.79-20.76,36.57-23.91,57.23-28.96,36.3-7.85,73.81-6.16,110.58-6.65,29.55-1.42,59.23-5.66,88.81-5.53,14.12-.75,28.52-3.29,42.45,.27,20.67,4.66,55.25,9.9,62.04,33.11,4.96,8.32,10.31,16.88,11.67,26.57,.36,8.85-.33,17.29,.76,25.97,1.67,25.96,3.08,51.97,4.01,77.91,3.4,29.99,5.51,59.79,4.89,89.91-1.33,31.98,2.42,65.5-7.41,96.3-12.59,25.34-36.34,31.76-62.68,32.32-23.8,.56-46.78,2.48-70.46,3.2-41.56,1.48-82.87,1.92-124.09,6.53-34.8,2.95-71.71,11.38-105.29-2.03Zm5.23-6.02c25.12,9.24,51.18,4.9,76.91,3.04,34.77-4.26,69.82-7.43,104.86-7.37,32.72-2.04,65.42-2.24,98.1-4.52,26.92-.48,56.47-.4,70.2-27.8,5.37-12.91,5.12-27.24,5.92-40.99,1.35-21.16,.85-42.51,1.08-63.57,.53-26.36-2.19-52.4-4.87-78.46-.94-35.19-4.29-70.22-4.93-105.21-2.47-10.87-10.08-18.73-13.2-29.05-3.45-5.59-10.91-7.84-16.03-11.67-18.35-7.23-39.4-13.1-59.16-12.14-22.95,1.71-45.92,1.14-68.76,4.15-45.16,5.2-91.14-.32-136.01,6.96-11.84,1.67-23.43,4.53-35,7.56-6.04,1.68-12.4,2.83-17.31,6.98-.59,3.57-5.24,3.98-7.83,5.53-2.63,1.98-3.99,5.49-5.5,8.22-3.19,10.59-8.94,20.15-11.31,31-3.35,15.04-3.08,30.54-4.33,45.83,.26,15.17,1.21,30.34,2.08,45.43,1.77,17.46,5.55,35.17,6.02,52.62,2.57,34.31-17.87,149.88,19.32,163.58,0,0-.27-.12-.27-.12Z"/>
    <path d="M710,547.04c-73.26-29.04-79.09-144.09-8.75-179.81,12.7-5.37,26.59-7.6,40.34-7.14,4.13-1.37,7.5,1.84,8.31,5.74-1.74-5.61,6.66-7.87,7.44-1.89,.35,5.37,1.92,9.96,2.8,15.16,1.46,8.46,.71,17.06,2.31,25.45,.01,3.92,2.36,8.76-.73,11.95-1.79,1.61-4.31,1.27-6.39,.5-2.6-.37-5.88,.12-8.34-.18-11.7,.47-23.8,5.9-30.81,15.3-8.42,13.33-10.19,31.02-.43,43.87,6.47,4.96,11.78,11.85,19.5,14.59,12.37,5.61,22.1,5.25,31.89-4.58,11.36-11.63,14.25-27.94,12.5-43.5-1.29-19.6-.13-39.48-2.5-58.97-4.27-35.1-5-70.53-6.21-105.83,.33-3.98-1.52-8.84,1.74-11.88,14.34-6.63,31.5-6.03,46.8-8.93,7.64-2.01,9.5,5.66,9.29,11.68,.9,16.89,6.73,35.21,19.51,46.65,6.79,5.71,14.24,8.47,22.17,11.42,7.93,2.97,16.35,5.23,24.56,3.63,6.59-3.05,10.29,1.92,9.97,8.35,.11,8.38-.29,16.77,1.34,24.86-.08,6.05,5.27,19.62-4.22,20.1-23.06-4.23-48.42-6.45-65.98-23.94,6.58,37.74,16.07,76.05,10.36,114.51-12.68,69.28-72.6,97.02-136.46,72.89Zm11.24-3.9c23.95,5.56,50.12,7.98,72.58-3.84,11.8-7.06,23.44-16.34,30.56-27.92,7.04-13.15,13.13-26.93,15.06-41.52,2.8-22.64-.13-45.51-3.26-67.77-1.85-16.2-7.83-31.84-7.93-48.21-.09-3.71,3.51-7.45,7.22-5.35,4.73,3.81,8.63,9.07,14.03,12.17,15.91,9.93,32.66,11.76,50.41,14.54-1.51-12.7-3-24.93-2.62-37.73-15.43,3.41-31.13-3.99-44.75-10.18-22.47-11.92-30.95-38.96-31.75-62.95-14.17,2.14-28.57,3.15-42.39,6.94,.54,62.46,8.79,123.28,9.26,185.62-1.41,19.3-14.5,42.51-35.2,44.85-14.37,.65-27.71-6.53-37.47-16.54-4.03-2.92-7.63-6.54-9.35-11.31-14.35-29.86,9.3-65.79,42.32-64.69-2.7-13.7-2.98-28.07-5.48-41.62-56.83-3.23-87.01,46.14-83.04,98.15,3.77,34.83,27.45,67.47,61.82,77.35Z"/>
    <path d="M605.91,586.99c-5.36-2.57-9.33-7.38-14.07-10.86-6.09-8.7-8.04-20.08-9.32-30.51-1.13-14.54-4.83-28.71-5.25-43.3,.02-17.36-.54-35.91-.38-53.18-.64-16.86-3.19-33.72-2.79-50.6,.41-12.81,1.13-27.76,.74-40.24-.7-22.39-5.07-46.17,3.17-67.65,4.75-19.52,6.64-42.8,23.7-56.28,2.7-1.73,4.93-4.19,7.8-5.6,6.72-3.29,15.63,.07,17.88,7.28,5.44,6.27,2.01,14.7-2.73,20.39-3.42,4.71-4.79,10.45-6.05,16.05,13.24,7.68,6.43,25.96,7.24,38.45,6.84,3.65,7.44,12.26,7.38,19.18-.02,9.51-.21,19.04,.03,28.54,6.46,6.4,5.93,16.24,6.67,24.66,8.78,4.15,7.81,15.76,8.82,23.98,1.42,16.56,3.03,34.47,5.22,49.88,2.6,17.3,6.1,34.49,7.54,51.94,3.75,11.3-1.74,24.68-15.39,21.04-2,1.56-4.45,2.57-7.01,2.73-5.78,.37-10.56-3.15-12.55-8.16-2.18-.41-4.26-1.36-5.84-2.86-.93-.9-1.72-1.78-2.4-2.76-.16,.06-.33,.13-.5,.19-2.89,1.01-6.1,.84-8.93-.26-1.07,6.86-.09,13.66,.49,20.47,7.9-1.23,14.28,5.88,14.67,13.46,4.15,5.99,6.15,14.18,3.07,21.06,1.59,11.71-11.55,18.31-21.21,12.95Z"/>
    <path d="M914.88,561.14c-8.57-9.26-11.01-21.61-11.61-33.86-.6-.36-1.17-.76-1.71-1.18-.48,.61-1,1.2-1.55,1.76-4.1,4.12-10.96,5.84-16.41,3.45-1.9,1.4-4.15,2.3-6.71,2.46-2.5,.17-5.14-.29-7.36-1.48-7.71,.29-17.08-.45-22.59-6.53-10.93-16.62-8.49-58.62,6.07-72.98,1.1-5.81,4.16-11.79,10.14-13.72,5.04-10.28,8.03-27.06,23-26.35,3.36-2.93,7.85-4.14,12.2-3.72,4.32-6.45,12.71-9.98,20.05-6.56,0-14.68-1.52-29.31-1.71-43.98-.08-5.19-.64-12.08,2.49-16.63,1.73-12.91-5.18-32.54,12.53-34.23-.15-5.21-.99-10.56,0-15.71,2.18-11.59,18.51-13.7,23.77-3.22,3.27,7.73,3.13,17.07,2.46,25.39,5.21,5.11,3.09,12.97,3.35,19.51,1.37,27.02,6.25,54.05,3.52,81.14-.49,8.78,.02,17.62,1.98,26.18,2.07,12.64,.61,25.4-1.58,37.86-1.42,18.64,3.52,37.17,2.16,55.59-.74,8.43-5.38,15.67-8.21,23.47-9.12,17.29-32.26,17.98-44.28,3.33Z"/>
    <path d="M613.14,590.79c-11.85-9.57-16.8-28.19-12.46-42.59-1.49-5.71-6.35-10.14-5.76-16.41-1.05-19.84,23.36-30.11,38.72-19.3-.35-10.79,3.57-26.55,17.2-25.08,10.22,1.18,12.48,12.25,15.56,20.22,3.67,2.47,5.64,6.68,6.9,10.77,10.43,12.39,25.33,19.7,39.67,26.14,14.14,5.11,28.73,5.54,43.49,5.32,13.55-.84,27.54-1.4,40.31-6.44-.51,.16-1.02,.31-1.52,.47,3.8-9.2,12.66-15.27,19.63-21.94,7.25-6.73,13.93-14.18,19.87-22.09,4.42-6.54,2.58-15.64,7.59-21.96,5.37-7.01,17.04-6.17,21.14,1.73,0,0,0,.01,.01,.02,3.81,.91,7.17,3.54,8.86,7.22,5.35-2.64,11.89-2.16,16.31,2.4,8.91,10.16,2.39,25.55-5.4,34.4,.37,.51,.71,1.05,.99,1.61,.42,.83,.74,1.66,.97,2.49,3.41-.79,6.69-1.33,10.1-2.34,5.99-4.66,15.08-1.86,19.13,3.98,11.38-1.33,25.55,3.61,21.68,17.55,8.49,2.63,11.55,13.53,6.17,20.48-4.18,5.61-11.72,6.81-18.19,7.84-8.26,2.25-16.64,2.39-25.13,1.74-13.23,1.4-26.47,1.9-39.76,2.88-9.43,.48-19.18,3.69-28.48,1.21-14.18,3.07-29.21,1.89-43.7,2.77-9.84,.26-20.42,2.6-29.91-.71-12.68,.75-25.92,4.05-38.52,4.13-10.96,2.61-22.21-.24-33.21,2.44-15.33,1.15-30.46,6.65-45.89,4.64-4.01,.01-8.18,.85-11.92-1.15-4.91,.96-10.25,.26-14.47-2.48Z"/>
    <path d="M914.66,429.78c-6.2-2.63-9.66-10.38-6.73-16.65,2.38-5.63,6.34-7.64,7.21-13.34,0-6.47,2.71-12.81,1.2-19.26-2.27-7.69-6.73-14.68-6.88-22.98-1.56-6.9,.02-13.68,.72-20.58-1.51-3.41-3.97-6.49-4.16-10.4-8.97-3.31-18.43-3.2-27.63-5.5-6.49-1.13-14.82-1.75-18.19-8.27-2.94-.64-5.71-1.69-8.03-4.03-3.22-3.25-4.21-8.04-3.07-12.27-10.66-.16-18.67-12.75-11.18-21.51,.02-1.54,.31-2.99,.84-4.33-1-4.73,.55-9.73,4.47-12.8,.05-.15,.09-.29,.14-.44-.25-.77-.42-1.57-.53-2.38-2.91-3.3-5.41-7.47-6.13-11.79-7.94-.49-18.71,.58-22.67-8.03-6.64,.95-13.3,.99-19.98,.76-6.72,.51-14.59,2.29-20.01-1.66-1.12,0-2.24,0-3.37,.01-1.69,3.03-4.55,5.44-7.99,6.08-10.71,1.84-21.61,1.22-32.42,1.44-20.6-.31-41.3-2.5-61.81,.51-3.92,4.22-10.34,3.69-15.62,4.44-6.69,1.35-13.63,1.84-19.98,4.51-5.34,12.31-28.14,13.3-28.77-2.65-10.42-20.84,21.08-27.2,35.84-28.35,14.82-3.39,30.37-4.05,45.54-4.69,14.84-7.36,32.97-5.16,49.06-4.48,19.1-1.2,37.13-1.57,55.95-3.49,24.29-.04,48.46-3.23,72.63-2.36,5.54-.49,10.75,.2,15.39,.2,5.03-.28,9.82-.47,14.23,2.73,18.12,1.55,39.02,8.45,49.25,24.42,7.28,3.56,11.79,11.41,12.11,19.39,6.95,11.38,8.71,25.13,4.2,37.79-1.54,5.24-4.24,10.75-9.85,12.53,1,3.88,.25,8.15-2.38,11.49-.27,.34-.55,.67-.84,.98,.49,2.94,.11,5.87-1.48,8.57-1.99,3.39-5.43,5.58-9.24,6.13,3.09,9.25-2.08,18.63,.51,27.9,3.13,9.77,8.28,19.19,7.17,29.91-1.55,12.36-1.81,25.39-10.49,35.29-3.08,6.36-10.21,10.14-17.02,7.19Z"/>
    <path d="M635.34,470.62c-3.7-1.67-5.93-4.43-7.16-7.85-.62-.44-1.2-.93-1.75-1.47-2.81-2.75-3.57-6.51-3.99-10.25-10.32-9.1-1.32-23.82,1.35-34.62-10.6-7.28-4.2-21.58-.39-31.03-16.71-5-9.6-22.03-1.98-32.05-5.43-1.17-9.29-6.87-9.16-12.26-1.95-1.75-3.43-4.05-4.14-6.55-7.26-1.8-11.33-10.36-8.31-17.17,1.77-4.14,5.18-7.68,7.85-11.28-35.35-10.31-.48-36.96,12.95-50.54,10.49-8.21,27.91-31.98,42.15-25.73,4.61-3.36,9.94-7.38,15.7-8.01,5.7-.65,11.16,2.55,13.57,7.67,6.22-3.89,15.08-4.38,20,1.84,6.09-3.16,11.7-8.2,18.58-9.45,8.98-1.36,17.22,7.75,14.34,16.44,.41,.3,.8,.63,1.17,.98,10.94-8.53,27.05,.06,21.93,14.14-11.28,15.05-30.67,22.26-43.01,36.68,7.03,14.6-14.22,29.74-20.88,41.76,5.38-2.7,11.29-3.71,17.18-4.53,8.84-2.55,21.25-4.89,25.49,5.8,1.07,.78,2.04,1.72,2.85,2.82,.2,.27,.38,.54,.56,.82,1.44,.22,2.86,.53,4.27,1.11,4.35,1.78,6.97,5.62,7.63,9.79,4.07,5.24,5.72,11.47,10.08,17.7,1.22,2.72,1.53,5.6,1.98,8.48,1.43,3.23,2.78,6.49,2.95,10.09,0,21.61,.55,43.08-8.87,62.55-6.32,13.13-6.75,32.89-22.07,38.96-9.85,2.89-18.02-6.55-18.15-15.87-1.13-10.88-.72-26.92,14.24-25.63,1.88-5.86,4.37-11.51,6.57-17.24,2.55-11.45,2.65-20.68,3.06-31.97-.47-3.08,.19-6.32-.32-9.3-1.53-3.11-2.5-6.46-2.76-9.92-2.5-3.6-4.95-7.92-6.46-11.88-.05-.01-.09-.02-.14-.04-2.09-.62-3.86-1.67-5.31-3.08-10.62,2.95-21.71,8.6-32.98,6.6-10.2,2.66-16.5,12.41-24.61,18.73-3.25,3.39-7.59,5.99-9.91,10.1-8.59,17.66-12.53,36.97-15.98,56.19-.27,5.7,.32,11.52-4.32,15.89-3.62,3.42-9.19,4.65-13.79,2.59Z"/>
    <path d="M729.69,491.19c-3.77-3.49-8.95-4.51-12.62-8.25-5.37-4.87-8.48-11.73-8.97-18.91-1.23-18.45,4.96-34.39,21.15-44.24,7.77-5.04,18.87-6.46,27.18-2.09,10.11,5.33,13.81,21.25,1.5,26.36,1.65,3.37,2.4,7.1,2.14,11.08-.11,1.62-.43,3.21-.92,4.76,13.82-.04,16.75,18,7.7,26.27-12.35,10.36-22.46,15.12-37.15,5.03Z"/>
    <path d="M742.3,488.92c-5.45-8.04-1.05-14.21,4.55-20.36,2.26-4.72,1.19-11.02,6.21-14.29-.89-5.86-.06-11.96,1.76-17.56-.6-9.19,.91-18.51,2.31-27.56,3.27-10.4,19.37-11.04,23.46-.93,2.21,5.2,.21,10.65,1.19,16.04,.19,8.43,0,16.68,.97,25,1.2,7.76,3.25,18.08-5.56,22.16-1.2,5.96-1.64,13.4-7.96,16.29-5.48,11.72-21.92,14.98-26.93,1.2Z"/>
    <path d="M692.82,329.87c2.4-6.5,9.81-9.91,16.31-7.52,6.5,2.4,9.91,9.81,7.52,16.31s-9.81,9.91-16.31,7.52-9.91-9.81-7.52-16.31Z"/>
    <path d="M686.4,320.67c-.62-16.8,24.2-18.23,25.35-1.43,.61,16.82-24.19,18.23-25.35,1.43Z"/>
    <path d="M762.01,410.49c-3.72-2.88-3.91-9.3-4.8-13.06-1.49-11.06-3.32-19.88-6.04-30.38-6.19-.86-10.35-6.61-11.17-12.72-1.26,.1-2.57,.01-3.91-.28-1.68-.37-3.15-1-4.45-1.83-4.83,11.56-21.61,9.98-25.05-1.97-9.39,3.21-17.36-5.3-17.52-14.38-1.39-8.39-1.86-16.89-2.51-25.35-1.92-7.66,2.01-16.21,10.38-17.34,.24-6.98,7.04-12.65,13.92-11.84-.31-12.46,11.37-21.82,22-12.95,4.88-1.55,10.55,.61,13.55,4.64,6.35,.65,10.93,5.54,11.6,12.02,0,.06,.01,.12,.02,.18,15.47,3.35,8.15,20.24,8.66,31.17,8.46,4.54,5.37,15.37,6.07,23.23,.39,7.95,2.55,15.76,3.55,23.57,3.21,12.24,5.46,25,7.1,37.45,1.09,11.01-13.73,17.63-21.37,9.84Z"/>
    <path d="M754.12,351.32c-3.89-7.93-1.63-16.89-4.15-25.05-10.27-.75-14.89-5.57-15.76-15.8-2.51-14.98-2.1-30.27-3.35-45.36-8.25-12.82,8.67-28.51,20.18-17.21,3.51-.21,6.81,1.1,9.48,3.41,1.96,1.69,3.04,3.68,3.58,5.82,3.05,2.09,5.26,5.43,5.73,9.29,.2,1.7,.19,3.39,.12,5.09,5.93,5.96,2.67,17.44,2.54,24.14,.24,9.35,1.13,18.76,2.81,28,2.26,8.14,3.91,16.71,3.54,25.18-.84,13.67-21.21,15.81-24.73,2.49Z"/>
    <path d="M745.59,275.94c.22-3.08,.81-6.1,1.58-9.06-9.16-12.23,5.96-25.4,15.64-31.86,7.78-9.06,25.08-19.9,34.82-8.25,8.21,.15,16.8-1.23,22.43,5.47,8.21,.05,16.68-.88,24.76,.19,11.91,3.47,12.01,15.21,5.23,23.75,.06,3.25,1.35,7.5,1.33,10.5,.35,3.48-.45,6.98,1.31,10.16,0,0-.03,0-.03,0,4.21,7.15,6.69,15.93,13.15,21.13,3.21,2.52,9.85,4.6,12.52,5.86,7.67,3.73,17.19,4.69,25.42,3.78,8.1-1.75,17.87,.48,19.45,9.87,1.76,8.71-6.62,15.99-14.81,15.08-14.05,1.85-28.49,.2-41.29-6.03-21.18-6.07-30.59-22.91-38.56-41.87-1.71-4.73-3.04-9.51-2.31-14.62-.06-3.35-1.23-6.59-1.2-9.97-17.62,.87-35.12,2.46-51.9,8.34-.96,3.15-2,6.34-2.2,9.65-.48,6.91-6.94,12.16-13.73,11.6-6.81-.54-12.09-6.79-11.6-13.73Z"/>
    <path d="M904.56,418.43c-2.25-4.97-1.72-10.64-2.2-15.34-.63-13.28-1.79-25.87-1.71-38.94-.31-8.1,.94-15.28,1.27-23.25,.02-5.75-1.48-11.73,.58-17.27,2.14-6.59,10.02-9.84,16.31-7.52,8.69,2.94,7.92,11.73,8.89,19.01,.02,2.73,1.42,5.2,.98,8-1.52,5.16-2.63,10.08-2.63,15.54-.63,11.51,.86,21.73,.95,33.03,1.83,2.83,2.54,6.11,3.33,9.38,.72,2.92,.1,5.86-1.36,8.35,3.17,15.35-17.33,23.49-24.42,9.02Z"/>
    <path d="M845.79,465.95c-1.88-9.59-2.78-21.37,.61-30.44-1.69-11.48-2.33-23.3-4.78-34.54-1.12-5.98-3.05-12.31-2.36-18.36,.89-10.12,12.02-14.62,20.38-11.28,5.6,.58,9.83,5.06,14.93,5.78,7.81-.74,15.73,.06,23.02,2.43,6.5,.88,10.51,.96,16.49,2.33,5.49,1.41,9.18,5.14,10.43,10.7,2.24,12.54-12.3,17.85-21.59,21.57-.25,.73-.54,1.46-.87,2.17-1.14,2.48-3.15,4.72-5.41,6.62,9.71,15.68-14.57,28.12-24.84,15.07,.19,6.92,.09,14.05-1.66,20.79,6.13,17.41-20.04,25.27-24.35,7.17Z"/>
    <path d="M843.76,386.56c-4.78-4.51-7.22-11.4-8.05-17.85-1.4-1.39-3.42-2.73-2.95-5.06-1.69-2.85,.86-6.8,4.2-5.96,7.63,3.61,13.38,9.87,21.6,12.37,1.97,.62,2.96,2.99,2.26,4.89-1.47,3.78-5.72,2.27-8.4,.82-.08,.04-.15,.08-.23,.12-.65,.3-1.29,.4-1.93,.36-.44,.49-1.01,.88-1.65,1.09,3,.91,3.36,5.5,.59,6.87-.52,2.26-3.4,3.51-5.44,2.33Z"/>
  </g>
</svg>