<?xml version="1.0" encoding="UTF-8"?>
<svg xmlns="http://www.w3.org/2000/svg" viewBox="0 0 1536 834">
  <defs>
    <style>
      .cls-1 {
        fill: #fff;
      }

      .cls-2 {
        fill: #f3c25f;
      }
    </style>
  </defs>
  <g id="Vektorebene">
    <path class="cls-2" d="M814.66,818.48c-34.59-5.71-69.2-13.18-102.62-23.89-18.34-6.48-34.12-17.94-49.77-29.14-16.61-9.46-32.06-20.72-43.81-35.97-28.74-24.34-45.75-58.37-62.87-91.26-25.75-76.08-12.83-158.33-7.4-236.16,1.09-29.78-8.1-59.21-18.81-86.71-5-7.82-10.67-15.12-13.82-24.03-8.57-21.68-11.07-45.07-18.44-67.15-10.16-35.03,.44-70.72,13.48-103.41,3.68-43.81,36.85-80.8,76.94-96.35,13.95-8.28,28.6-16.49,45.06-18.36,69.68-10.18,112.89,56.67,147.98,106.03,6.27,7.89,11.36,16.59,16.47,25.24,10.8,12.84,23.53,23.91,33.66,37.3,12.59,14.3,26.74,27.15,34.64,44.86,8.79,22.03,15.95,45.01,19.55,68.47,1.29,22.84,6.85,44.62,16.64,65.33,39.22,25.14,81.9,45.27,117.33,75.98,37.88,42.42,77.43,90.46,87.68,147.88,9.13,54.97-8.34,113.3-40.25,158.26-60.36,70.38-162.81,90.74-251.65,83.09Z"/>
  </g>
  <g id="Vektorebene-2" data-name="Vektorebene">
    <path d="M708.23,414.42c-13.12-4.1-23.8-15.19-24.28-29.4-1.25-7.22,.42-14.94-1.7-21.88-3.61-9.62-10.28-17.61-12.92-27.68-6.25-25.15-14.11-52.29-6.14-77.91,2.49-7.7,7.73-14.49,7.81-22.85-.42-28.28,9.39-58.12,32.47-75.72,6.12-4.83,9.57-12.44,16.89-15.98,6.26-2.74,11.64-7.04,17.95-9.61,6.94-2.87,14.43-3.17,21.84-3.02,22.49,.3,59.65,5.34,61.06,33.74-1.8,7.54-8.64,12.79-11.93,19.62-2.37,5.29-2.89,11.23-5.39,16.51-2.17,6.06-5.73,11.78-6.3,18.23,2.95,11.32,11.5,21.42,20.31,28.82,10.88,6.02,22.53,12.24,29.01,23.36,4.47,5.9,5.52,14.83,.93,20.94-4.08,4.38-11.02,5.66-14.37,10.83-5.59,8.06-3.72,17.87-3.17,26.97,.86,8.93,.06,17.87-2.94,26.36-3.28,7.55-10.16,12.63-15.78,18.34-10.81,11.05-23.92,20.6-38.5,25.97-19.29,8.2-40.63,15.03-61.7,13.18-.56,1.13-1.98,1.67-3.13,1.17Zm1.89-4.48c.13,.05,.25,.12,.36,.19,.51-1.03,1.7-1.58,2.82-1.27,10.77,.1,21.56-1.51,32.02-4.07,16.37-4.83,33.28-10.52,47-20.82,6.92-4.49,12.78-9.89,18.37-15.8,4.68-4.53,9.65-8.57,12.23-14.45,8.45-19.22-7.68-46.31,12.86-59.97,2.93-2.25,7.22-3.07,9.07-6.47,4.03-9.44-4.35-18.34-10.92-24.06-5.22-5-11.3-7.5-17.34-10.98-7.39-4.51-12.23-11.96-17.49-18.62-5.41-8.35-8.71-16.06-3.68-25.53,4.61-9.09,6.21-19.3,10.53-28.41,5.61-9.92,15.58-14.71,6.86-26.61-8.92-11.95-24.43-15.38-38.41-16.82-11.13-1.34-23.2-2.31-33.9,1.52-4.73,1.64-8.53,4.86-12.96,7.08-6.53,2.71-12.13,7.2-15.83,13.07-8.1,8.06-18.02,14.54-22.92,25.26-6.64,9.95-9.92,21.77-11.69,33.48-1.93,9.3,0,18.99-3.06,28.07-5.09,10.29-9.14,20.62-9.22,32.1-.67,10.37,1.1,20.83,3.06,30.89,2.27,11.67,4.51,23.62,9.32,34.53,3.2,8.14,9.65,14.89,10.77,23.84,.18,19.93-.14,36.74,22.16,43.84Z"/>
    <path d="M727.21,457.01c-4.12-.83-.75-7.86-.8-10.79,1.1-6.1,1.09-11.82,.2-17.82-.59-4.86-1.06-9.53-5.05-12.71-2.24-2.2,1.22-5.69,3.43-3.45,1.26,1.33,2.63,2.56,3.6,4.13,4.59,10.9,3.99,23.43,1.95,34.86-.41,2.17-.19,6.06-3.33,5.78Z"/>
    <path d="M723.73,365.54c-13.53-1.17-26.37-9.69-31.49-22.41-1.03-1.45-1.32-3.7,.63-4.51,1.41-.63,2.87,.31,3.34,1.63,5.31,13.96,20.19,21.65,34.6,20.7,13.33,.16,29.77-7.77,30.17-22.64-12.61,1.97-25.22,3.55-37.97,1.66-7.06-1.29-14.47-.61-21.42-2.05-2.68-1.29-8.88-.56-8.36-4.76,1.13-3.26,4.92-.98,7.23-.6,6.07,1.66,12.44,1.7,18.7,1.86,11.89,1.97,24.13,2.22,35.99-.32,13.59-3.71,12.06,7.22,7.37,15.82-7.6,13.04-24.63,17.29-38.79,15.61Z"/>
    <path d="M732.94,317.6c-2.98-.3-5.12-2.47-7.28-4.28-1.2,.3-2.25,1.08-3.36,1.62-2.71,1.6-5.19-2.63-2.46-4.21,3.93-2.53,7.47-3.41,10.84,.51,2.03,2.04,5.16,1.9,7.74,1.42,3.28-.48,6.17-2.81,6.68-6.19,.25-1.9,.52-4.71,3.12-4.4,1.84,.35,2.17,1.76,2.03,3.31-2.27,1.28-4.26,3.11-5.43,5.4-.88,1.71-1.53,3.58-1.82,5.48-2.22,1.05-4.76,1.57-7.24,1.57-.95,0-1.89-.08-2.8-.23Z"/>
    <path d="M701.91,309.49c.21-3.45-.54-7.25,1.39-10.34,2.74-4,5.67-7.48,7.25-11.93,1.35-5.25,4.25-10.09,5.28-15.45,1.33-8.16,2.27-16.36,4.5-24.32,.81-3.02,5.56-1.75,4.69,1.29-2.23,7.9-3.07,15.8-4.39,23.81-2.64,9.09-5.53,18.43-11.04,26.19-3.05,2.94-2.93,6.79-2.81,10.74,.01,3.13-4.91,3.16-4.86,0Z"/>
    <path d="M759.3,261.3c-.84-1.09-.57-2.55,.44-3.41,5.42-5.72,13.03-8.17,20.71-9.01,3.97-.38,23.87-.86,22.09,5.38-.56,1.34-2.05,1.74-3.32,1.25-10.13-3.33-21.67-2.62-31.28,1.84-2.67,1.33-5.53,6.99-8.65,3.94Z"/>
    <path d="M787.2,265.69c-1.42-.04-2.81-.68-3.83-1.66-.19-.18-.37-.37-.54-.57-5.36-1.05-11.33-7.46-3.8-10.54,2.11-.77,5.56-3.06,6.82,.03,3.91-1.87,11.55-.34,10.53,5.17-1.56,3.64-4.96,7.48-9.18,7.58Zm-.39-6.46c1.37-.13,2.66-.76,3.85-1.42-.22-.23-.37-.49-.48-.78-1.45,0-4.05,.4-4.16,2.17,.26,.04,.52,.03,.78,.03Z"/>
    <path d="M704.45,250.46c-1.11-1.73-3.16-3.09-4.99-3.67-4.92-1.23-10.26-2.22-15.29-1.36-3.21,.01-8.62,4.85-10.44,.65-.37-1.34,.44-2.57,1.7-3,5.55-2.13,11.31-3.74,17.23-2.41,5.76,.36,12.19,1.76,15.64,6.83,1.91,2.48-1.97,5.5-3.85,2.96Z"/>
    <path d="M694.88,259.22c-1.78-.5-3.15-1.79-4.59-2.86-2.04-3.16-2.13-8.56,1.46-10.65,3.41-1.19,7.2-3.26,10.87-2.08,6.79,2.26,7.27,12.69-.58,13.52-1.93,1.65-4.62,2.77-7.16,2.08Zm3.18-6.07c.33,.02,.64,.09,.93,.21,2.02-2.26,1.29-4.02-1.76-4.1-1.27,.82-1.84,2.3-1.96,3.76,.93,.05,1.86,.1,2.79,.14Z"/>
    <path d="M753.7,235.85c-23.12-19.6,25.72-25.57,38.17-23.34,3.11,.42,2.46,5.28-.66,4.81-6.4-.55-13.15-.16-19.48,.45-6.52,1.83-27.93,5.26-15.05,14.22,2.5,1.91-.53,5.81-2.98,3.85Z"/>
    <path d="M750.48,236.02c-4.03-5.12,15.45-14.01,19.7-13.95,6.85-1.67,13.79-.28,20.6,.68,1.71-.17,3.77,.4,3.76,2.46-.44,5.27-11.95,.41-15.56,.89-9.28-.23-18.6,3.18-25.07,9.92-.98,.89-2.47,.96-3.43,0Z"/>
    <path d="M696.33,222.28c-5.88-1.82-11.53-2.18-17.52-2.19-1.32-.03-2.43-1.09-2.43-2.43s1.11-2.46,2.43-2.43c4.19,.1,8.35,.23,12.5,.81-2.9-3.87-19.04-6.01-16.73-11.51,1.73-2.75,4.53,.05,6.45,.96,4.42,2.14,9.39,3.38,13.21,6.6,1.35,1.35,2.54,2.84,3.93,4.17,1.11,1.08,2.41,2.34,1.94,4.07-.44,1.64-2.25,2.2-3.78,1.96Z"/>
    <path d="M785.16,362.25c-1.29-.18-2.31-1.43-2.09-2.74,.17-1.05,.35-2.1,.53-3.15-.56-.6-.81-1.47-.59-2.31,1.03-3.48,1.64-7.08,1.54-10.71-.2-3.16-.84-6.32-.75-9.48,.14-.95,.84-1.76,1.77-2.01,4.86-.72,3.52,8.37,3.84,11.46,.67,5.7-.55,11.28-1.52,16.87-.21,1.31-1.43,2.26-2.74,2.08Z"/>
    <path d="M602.11,622.88c-.4-11.97,2.69-23.73,2.62-35.62,.77-12.03,1-24.23,5.32-35.66,2.58-6.9,7.1-12.78,10.96-18.99,3.85-6.12,6.82-12.8,11.57-18.29,3.75-4.11,8.24-7.63,11.83-11.87,3.59-4.09,5.67-8.83,9.97-12.15,5.54-3.89,10.03-8.96,15.49-12.86,5.05-3.15,10.53-5.39,15.49-8.55,14.22-8.84,30.12-13.89,46.07-18.58,9.42-1.79,18.3-5.28,27.65-7.3,4.14-1.23,8.31-2.35,12.53-3.31,1.29-.3,2.63,.39,2.99,1.7,.67,3.83-4.57,3.33-7.01,4.26-12.4,3.3-24.66,6.95-37.07,10.01-16.39,4.67-32.29,10.5-46.63,19.74-7.74,3.61-14.6,7.85-20.52,13.97-6.17,4.19-10.39,9.21-14.44,15.24-3.82,4.79-8.78,8.63-12.87,13.09-3.64,4.21-5.96,9.33-8.89,14.02-6.63,10.57-14.05,20.86-15.77,33.55-1.58,11.12-1.61,22.42-2.38,33.59-1.05,8.03-2.39,15.97-2.05,24.02,.07,3.08-4.93,3.2-4.86,0Z"/>
    <path d="M832.28,338.73c-.02-1.53-.08-3.04-.17-4.56-.37-4.65-1.07-9.29-.83-13.9-10.63-7.84,.82-21.34,8.98-26.12,5.15-3.87,6.38-12.06,5.58-18.17-1.8-6.38-9.88-8.71-11.64-15.35-7.1-3.76-14.93-6.98-20.43-13.05-4.81-5.33-8.28-11.54-13.48-16.48-6.32-7.33-6.24-18.35-4.34-27.3,.19-8.29,4.32-15.41,8.89-22.07,3.09-4.92,5.93-9.99,8.9-14.99,3.29-4.32,5.89-8.1,6.4-13.64,1.98-5.59,10.55-6.71,13.88-1.8,3.36,5.21,1.5,12.05,.28,17.7,3.43-4.41,10.83-3.16,13.36,1.67,.52-.11,1.06-.18,1.61-.21,.37-.02,.73-.01,1.08,.02,4.91-4.24,12.26-1.02,14.09,4.79,2.97,7.55,4.74,15.55,7.63,23.15,3.34,2.25,3.88,6.58,4.99,10.15,4.5,11.73,7.7,23.14,12.15,34.81,2.36,7.18,9.9,18.22-.2,22.74,.81,6.76-7.07,12.15-12.86,8.17-5.84,1.71-9.94-3.64-11.77-8.47-1.24,.1-2.52-.08-3.72-.59,9.21,14.34,4.57,28.97-5,41.59-3.21,3.95-7.36,7.2-8.05,12.65-.76,6.42,1.05,12.8,.87,19.25-.23,10.61-15.93,10.65-16.22,0Z"/>
    <path d="M656.32,469.43c-7.03-3.98-9.81-12.57-7.73-20.16-3.58,11.2-15.52,20.37-27.38,15.65-9.81-2.78-17.08-14.58-13.26-24.42,2.71-6.07,8.55-9.83,12.87-14.65,2.09-3.51,.26-8.03-.07-11.84-.41-1.9-2.32-3.16-3.72-4.39-20.25-10.79-35.72-16.21-31.79-43.16,3.37-18.89,4.53-28.11,20.3-40.4,7.64-8.97,16.77-16.9,20.95-28.31,2.1-9.52,1.79-20.95-2.82-29.69-17.18-21.81-18.66-31.98-5.16-56.68,8.51-14.98,25.54-22.49,35.71-35.98,9.07-12.45,19.1-24.24,28.97-36.04,3.97-8.5,10.13-15.14,18.01-20.15,4.78-4.44,8.76-9.93,14.69-12.96,7.58-4.03,16.38-4.83,24.52-7.15,7.52-3.2,14.74-7.05,22.36-10,6.7-2.25,13.94-2.22,20.94-2.53,6.39-.4,12.58,.86,18.61,2.85,4.74,.48,9.73,1.51,12.92,5.37,7.4,8.07-4.23,19.04-11.71,11.2-4.72-.43-9.14-2.17-13.74-3.11-12.08-1.02-23.58,1.08-34.13,7.03-10.22,6.42-22.43,6.07-32.96,11.11-5.04,3.64-8.51,9.07-13.63,12.64-2.84,2.06-6,3.77-7.84,6.87-3.53,6.63-7.78,12.7-13.25,17.9-5.88,7.96-13.19,16.69-18.93,23.89-8.86,14.56-25.3,22.01-35.51,35.43-3.32,7.12-8.85,14.8-7.71,22.95,3.13,10.69,13.24,17.09,15.71,27.85,8,32.33-3.88,47.23-25.04,69.52-2.72,3.01-6.37,4.96-8.88,8.16-4.09,6.25-4.41,13.95-6.05,20.88-.82,5.37-1.55,12.04,2.35,16.37,9.88,7.39,23.45,10.21,30.44,21.12,3.55,7.17,4.25,15.97,2.87,23.8-1.68,7.9-9.14,12.1-14,17.93,3.29,7.52,9.24,1.66,10.57-3.81,1.98-6.88,3.57-15.18,10.55-18.8,18.12-7.64,23.39,18.44,19.82,31.29,1.59,1.64,5.95,.21,7.43-.28,8.73-2.1,18.5-7.57,27.04-2.2,3.86-1.79,8.49-.76,10.74,3.07,5.39,11.47-11.27,17.37-19.23,10.78-11.06,2.17-22.84,9.23-33.82,3.04Z"/>
    <path d="M879.84,527.24c-11.01-1.6-17.07-10.27-22.38-19-10.3,.71-21.17,3.66-31.25,.1-9.38-4.89-16.23-13.68-21.31-22.73-7.64-5.83-13.95-13.01-20.67-19.8-5.42-4.66-6.91-12.07-7.36-18.22-5.56-2.15-11.79,.22-16.54-4.92-4.82-4.45-7.2-10.51-8.23-16.93-1.17-7.27,2.94-13.86,5.6-20.33,5.56-9.07,19.14-1.16,14,8.18-2.32,5.8-5.69,11.15-.84,16.77,8.31-.28,17.78,2.76,21.03,11.13,1.61,3.73,1.12,6.75,1.86,10.14,.9,2.29,3.12,3.61,4.74,5.34,5.75,7.38,13.4,12.72,19.79,19.41,2.33,3.19,3.71,7.01,6.47,9.93,2.55,2.54,5.04,5.56,8.26,7.23,9.74,1.5,18.99-2.54,28.5-1.04,3.57,.77,6.76,3.27,9.05,6.02,3.77,4.49,5.34,11.76,12.03,12.76,8.9,3.17,14.99-4.23,20.32-10.21,12.76-14.47,8.38-35.61,16.91-51.97,10.93-19.61,28.75-7.63,38.11,6.4,6.34,8.04,5.61,19.3,11.95,27.16,4.18-9.29,11.86-23.7,24.05-17.01,7.9,4.69,9.61,14.52,15.18,20.95,6.37-4.02-.87-12.56-2.26-17.79-2.31-5.02-4.2-10.41-7.52-14.86-3.37-3.69-7.98-5.93-11.57-9.41-11.15-12.2-24.75-21.7-29.73-37.97-7.34-17.34-2.53-35.99,.16-53.75-.08-10.58-.07-21.19-.3-31.78-1.83-17.48-18.58-27.79-23.49-43.81-4.6-18.63-3.37-39.3-13.85-56.17-6.94-10.44-16.65-18.82-22.77-29.82-6.23-11.17-6.52-25.01-11.21-36.48-7.19-12.32-17.63-21.93-29.98-28.97-7.81-7.05-18.44-8.86-28.21-11.9-3.97,1.65-8.19,2.87-11.51,5.76-3.97,3.97-7.35,8.5-11.86,11.92-5.29,4.65-14.23-.72-12.99-7.51,.34-2.91,2.43-4.85,4.56-6.62,2.98-2.45,5.19-5.7,7.92-8.39,5.03-5.12,11.66-7.87,18.23-10.39,4.39-2.02,9.08-.73,13.42,.65,7.69,2.32,15.61,4.38,22.75,8.08,9.39,7.21,20.26,12.78,28.48,21.42,6.56,8.07,13.87,16.17,16.62,26.44,2.77,9.33,3.49,19.25,7.94,28.07,3.2,5.19,6.88,10.07,10.95,14.54,16.66,16.47,22.97,39.88,24.99,62.62,.36,9,3.14,17.63,9.45,24.22,8.37,10.17,15.44,22.45,16.77,35.75-.05,13.44,1.27,27.09-.58,40.42-2.24,12.01-5.09,25.08-1.37,37.02,2.5,8.97,7.85,16.68,14.97,22.61,4.15,3.9,7.61,8.46,11.83,12.28,4.44,3.68,9.51,6.6,13.16,11.16,4.21,5.23,6.54,11.73,9.37,17.77,4.29,9.69,9.79,21.21,3.71,31.33-6.85,11.45-22.3,13.68-30.31,2.04-2.9-3.77-4.28-8.35-6.8-12.31-6.28,14.91-16.36,24.79-30.36,10.59-6.3-6.77-7.95-16.07-10.8-24.5-2.49-5.6-6.96-9.83-11.54-13.73-4.76,6.52-4.91,15.33-6.19,23.05-1.16,7.87-3.8,15.46-6.78,22.8-3.76,8.16-10.53,14.54-17.06,20.55-6.82,6.35-16.62,7.87-25.47,5.73Z"/>
    <path d="M783.49,429.48c-4.91-4.78-12.87-10.69-6.39-17.74,3.14-3.14,8.3-3.08,11.46,0,1.78,1.74,3.57,3.46,5.34,5.2,2.07,.61,3.86,2.03,4.91,3.92,5.17,5.42,2.79,14.96-5.32,15.12-4.18,0-7.16-3.61-10.01-6.5Z"/>
    <path d="M669.66,460.81c-.12-.07-.23-.13-.35-.2-16.07,2.17-9.53-21.8-15.33-30.95-.96-.28-1.89-.73-2.69-1.32-2.74,1.98-6.02,3.17-8.53,5.44-1.58,7.81-5.56,15.04-11.33,20.55-7,5.99-17.41-2.12-12.85-10.31,4.87-4.49,5.08-10.53,8.39-16.01,0-.21-.02-.42-.03-.63-.75-8.17-1.97-16.24-3.52-24.28-6.96,2.41-11.15-3.48-11.81-9.77-4.68,.85-8.75-2.81-9.49-7.3-3.42-1.84-6.27-5.08-7.01-9-1.24-6.73-3.83-16.48,2.85-21.06,.37-9.81-.35-19.86,12.74-18.35,.21-2.87,.81-5.65,3.37-7.51,1.83-1.34,4.03-1.94,6.25-1.59,.96-.43,1.97-.68,2.98-.73,.82-9.54,4.74-20.45,12.85-26.05,.68-11.2-.22-22.53-1.06-33.73-13.31-11.49-16.39-43.73-5.84-57.65,2.99-4.32,9.43-6.88,13.72-2.84,1.4-5.38,4.37-10.22,7.44-14.83,2.65-5.54,8.96-9.97,14.45-5.42,5.31-7.17,9.32-15.17,14.31-22.57-2.53-10.58,8.38-17.34,14.59-24.07,5.43-7.37,13.21-12.25,21.5-15.87,12.89-5.8,26.83-10.23,41.03-10.02,13.5-1.99,26.34,2.51,38.92,6.59,6.38,1.76,12.84,4,18.59,7.16,4.09,1.82,8.15,4.49,10.72,8.28,5.31,8.27,10.05,17.14,12.16,26.72,1.81,7.69-.73,16.02,2.21,23.36,5.78,10,11.61,19.92,18.52,29.19,6.1,10.03,9.67,21.47,12.71,32.75,4.19,18.45,.14,38.84-9.81,54.83-4.13,6.48-12.36,9.53-14.36,17.38-2.17,12.66,2.75,26.67-4.22,38.55-7.8,11.84-14.59,24.74-27.13,32.08-10.55,8.38-21.5,15.87-34.69,19.37-.01,.04-.03,.07-.04,.11,0,0,0,0,0,0,3.9-1.52,8.92,.32,10.43,4.4,1.82,4.82,4.52,10.33,.89,15-2.57,3.43-6.95,3.79-10.84,3.72-2.51,.87-5.16,.46-7.6-.49-5.95-2.84-10.44-9.61-11.22-16.1-.11-3.11,1.17-6.34,2.21-9.26,2.83-12.44,11.4-11.94,20.88-16.57,6.69-2.3,11.91-6.93,17.42-11.11,8.75-5.08,15.37-12.45,20.35-21.19,18.64-22.72-8.09-39.2,23.59-63.82,7.12-10,9.8-23.07,9.6-35.2-1.09-11.15-5.27-21.78-9.71-31.98-7.42-12.1-16.21-23.48-22.36-36.34-3.9-8.68-1.04-18.37-3.02-27.43-2.92-6.92-5.46-14.53-10.62-20.03-10.43-6.12-22.43-8.34-33.63-12.53-8.33-1.86-16.15-1.85-24.46-.89-3.3-.02-6.61,.24-9.62,1.09-1.88,3.23-5.2,4.76-8.33,6.46-6.58,4.07-13.86,7.01-20.11,11.53-7.56,7.66-14.89,15.84-21.64,24.17-4.82,8.4-10.65,16.25-15.08,24.77-2.75,7.33-3.62,15.08-4.74,22.77-1.35,4.68-1.65,9.11-1.13,13.91-1.64,15.65-10.97,29.75-11.06,45.66-.64,5.4,2.8,10.17,3.08,15.63,2.3,14.83,3.94,30.5,8.64,44.68,8.16,5.24,10.31,16.11,15.22,24.02,4.25,10.75,.19,23,4.42,33.84,4.1,0,7.27,2.72,11.11,3.69,5.8,1.42,10.62,4.92,16.07,7.13,5.57,.88,10.42,5.32,8.38,11.27,3.65,7.61,3.89,17.38,1.14,25.3-6.23,12.79-20.29,20.27-32.38,9.72-.81-.03-1.62-.14-2.44-.35-.33-.08-.66-.17-.98-.26-.72,.96-1.62,1.8-2.76,2.47-2.44,1.43-5.09,1.85-7.74,1.57-3.42,2.6-8.46,2.59-12.17,.49Z"/>
    <path d="M885.06,283.53c-9.61-10.93-12.32-26.39-17.31-39.78-1.34-4.93-5.62-8.49-7.81-12.96-5.43-9.1-8.98-19.14-12.98-28.89-8.73-1.91-10.38-13.14-13.57-20.15-4.14-11.88-8.11-23.76-13.93-34.95-7.58-8.18-15.52-15.92-22.23-24.88-8.68,4.2-18.3-1.67-27.47-1.06-7.74-1.73-15.68,1.21-23.57,1.51-8.55,3.23-17.21,6.14-25.15,10.74-3.77,2.19-8.93,.95-11.1-2.9-3.61-7.43,1.97-11.07,8.07-13.8,3.76-2.57,8.11-3.87,12.4-5.22,9.92-5.36,21.13-5.61,32.06-7.19,3.61-4.36,9.6-4.74,14.83-4.91,10.97-1.57,23.91-3.33,31.63,6.58,2.78,.49,5.41,1.58,7.77,3.21,.62,.43,1.21,.9,1.76,1.4,5.26-9.51,21.39-4.78,22.07,5.6,6.3,.4,12.1,3.39,17.25,7.09,7.08,4.79,15.13,8.4,20.48,15.32,8.19,9.09,9.85,21.31,14.41,32.19,4.81,4.54,6.92,11.38,9.71,17.25,5.72,4.19,7.04,12.2,10.58,18.07,8.79,.12,12.13,10.34,15.01,17.12,2.69,7.06,6.53,15.79,2.32,22.94,.62,1.53,1.3,3.04,2.02,4.53,3.07,6.48-4.43,13.63-10.81,10.56,2.56,12.26-13,15.26-16.64,3.68-.67,.96-1.55,1.78-2.56,2.37-1.54,.9-3.24,1.21-4.91,1.03,1.22,4.59,2.6,9.82-.59,13.96-2.75,3.57-8.19,4.28-11.76,1.55Z"/>
    <path d="M873.08,510.84c-5.83-4.71-9.41-11.5-15.22-16.11-.76,.2-1.54,.32-2.33,.38-3.38,5.4-10.62,4.99-15.84,2.41-3.21-.49-6.45-.03-9.62-.81-12.86-2.33-24.35-12.55-30.12-24.05-2.07-5.35-2.83-11.23-6.73-15.7-4.27,.64-8.05-2.79-9.39-6.65-7.33-3.35-7.56-12.76-8.52-19.69-2.28-5.4-6.67-12-.62-16.63-.22-7.47,4.12-15.75,12.69-12.4,1.07-1.76,2.53-3.25,4.5-4.09,.36-.15,.72-.28,1.09-.38,1.18-7.27,7.97-14.25,15.6-10.84,1.18-1.66,2.65-3.04,4.53-3.84,.23-.1,.46-.18,.7-.26,1.53-7.79,4.5-18.94,14.16-19.34,.72-3.28,1.54-6.52,2.49-9.75,1.38-4.71,3.73-9.99,7.57-13.15,.85-7.49,3.76-14.4,5.53-21.67,2.15-7.51,4.21-16.89,11.71-20.83,2.17-12.98,8.75-42.8,23.31-46.07,2.49-2.53,5.64-4.48,9.26-4.64,8.18-.35,12.86,4.91,15.73,11.66,2.54-9.31,13.88-12.44,20.01-4.54,12.46-.01,17.46,13.69,19.78,23.91,17.81,12.89,16.76,37.65,20.99,57.06,1.24,11.85,.21,23.89-1.85,35.6,1.29,8.83,3.22,17.59,3.63,26.56,8.01,9.38,13.24,21.02,16.19,32.95,7.17,2.66,13.44,7.95,17.44,14.46,4.11,5.27,4.27,12.74,8.55,17.72,4.55,6.38,11.54,12.61,12.34,20.75,0,3.74-2.5,7.21-6.13,8.21-6.41,1.38-12.38-4.18-16.12-8.8-5.03-.6-8.14-6.36-6.65-10.99-.11-1.14-.26-2.28-.44-3.42-2.53,2.56-6.74,3.4-10.14,2.53-2.6,3.32-3.5,7.5-4.63,11.47-4.35,9.03-14.77,5.45-17.84-2.61-3.85-9.04-8.36-17.96-9.79-27.78-3.67-2.99-7.29-6.1-10.45-9.61-1.35,1.46-3.06,2.62-4.96,3.06-1.78,.4-3.67,.66-5.48,.3-.43,.38-.88,.72-1.36,1.01-.45,2-1.08,3.99-2.16,5.72-.83,1.31-1.94,2.44-3.23,3.27-.3,2.53-.89,5.01-2.19,7.14-.48,.79-1.05,1.49-1.7,2.1-.46,5.14-1.31,11.06-5.42,14.6,.68,7.98,.6,17.59-5.18,23.79-3.64,2.82-6.5,7.23-11.53,7.64-5.36,6.9-16.36,6.62-22.13,.33Z"/>
    <path d="M655.23,478.86c-3.91-.54-7.35-2.34-10.21-5.02-2.09-1.96-3.32-4.38-4.3-6.95-9.71,9.36-24.94,16.76-34.64,3.15-7.41-8.43-3.57-19.49,.02-28.71,2.24-5.9,7.63-9.64,12.1-13.81,8.45-6.38,18.24,6.16,9.91,12.85-2.76,2.67-6.55,4.84-7.62,8.74-.9,3.97-4.74,9.19-.39,12.26,6.94-2.32,10.98-9.32,18.01-11.48,5.08-1.71,10.83-.14,14.24,4.02,2.32,2.43,2.47,6.06,4.35,8.62,3.57,1.11,7.22-1.26,10.7-1.88,6.57-1.54,16.5-1.62,16.71,7.36,.03,6.12-5.93,8.78-11.32,8.18-5.8,1.09-11.5,3.69-17.55,2.67Z"/>
    <path d="M678.54,463.98c0-4.42,3.69-8.11,8.11-8.11s8.11,3.69,8.11,8.11-3.69,8.11-8.11,8.11-8.11-3.69-8.11-8.11Z"/>
    <path d="M777.75,262.04c-2.6-4.43-.3-10.5,4.42-12.38,5.43-1.78,12.93,.38,13.81,6.79,1.37,9.56-13.69,13.34-18.23,5.59Z"/>
    <path d="M696.47,260.69c-7.07-3.11-7.87-14.75,.24-16.91,7.16-2.03,13.97,7.13,10.22,13.42-2.11,3.49-6.71,5.22-10.46,3.5Z"/>
    <path d="M747.46,231.77c-5.32-10.71,9.84-14.71,16.94-17.96,8.29-2.66,17.14-3.13,25.78-2.81,4.2-.39,8.39,.16,12.16,2.17,9.98,3.31,5.71,18.21-4.5,15.59-1.56-.44-2.92-1.37-4.48-1.69-7.76,.14-15.63-.26-23.19,1.87-3.3,1.22-5.89,3.58-9.5,4.36-3.93,3.63-10.42,3.28-13.21-1.52Z"/>
    <path d="M695.67,226.47c-6.64-1.81-13.03-5.22-20.15-3.99-10.55,1.26-12.71-14.31-2.19-16.06,8.39-1.54,16.56,1.06,24.37,3.57,3.41,.62,7.17,1.55,8.49,5.29,2.77,6.52-3.85,13.43-10.51,11.19Z"/>
    <path d="M692.31,257.81c-5.82-7.43,4.1-17.34,11.58-11.6,9.26,7.75-3.83,20.91-11.58,11.6Z"/>
    <path class="cls-1" d="M796.78,130.74c-2.22-2.45,1.29-4.51,2.69-6.29,3.06-4.01,6.29-7.93,9.98-11.38,1.28-1.18,2.58-2.31,3.74-3.6,2.18-2.25,5.67,1.2,3.45,3.43-4.23,4.15-8.6,8.15-12.07,12.91-1.98,1.98-4.52,7.43-7.78,4.93Z"/>
    <path class="cls-1" d="M924.24,248.01c-4.03-10.4-9.31-21.29-19.1-27.2-19.76-7.61-18.56-29.7-17.93-47.38-.41-7.42-4.39-14.22-8.12-20.15-3.89-7.07-9.61-12.08-16.21-16.37-3.05-2.24-13.98-4.68-11.47-9.72,.79-1.01,2.41-1.3,3.41-.44,4.34,3.97,10.48,4.95,14.82,9.03,8.07,5.23,13.19,13.64,17.61,21.9,8.16,12.72,2.61,28.1,5.86,42.04,1.03,3.91,2.62,7.48,4.87,10.71,6.02,5.04,13.96,7.69,19.08,14.01,4.82,6.65,8.87,13.94,11.67,21.66,.57,1.2-.11,2.69-1.29,3.19-1.22,.53-2.62-.08-3.19-1.29Z"/>
    <path class="cls-1" d="M858.3,303.8c-1.26-1.24-.65-3.04,.56-4.04,6.86-10.18,7.53-24.22,2.42-35.22-2.24-4.27-5.76-7.2-8.48-11.06-4.18-7.69-10.53-13.2-17.28-18.48-5.46-5.68-9.48-12.64-11.64-20.22-4.39-9.81-1.87-20.92,4.57-29.2,2.17-2.2,6.07-9.49,9.5-6.75,.94,.95,.92,2.5,0,3.45-2.27,2.16-4.8,4.85-6.45,7.37-11.25,14.79-.68,36.71,12.83,46.26,8.28,6.58,13.01,16.31,19.89,24.1,7.06,11.47,6.64,26.57,1.05,38.49-1.21,2.46-3.68,7.87-6.98,5.31Z"/>
    <path class="cls-1" d="M913.26,318.36c.32-17.84,2.67-37.09-8.09-52.47-9.49-10.16-19.19-20.31-27.87-31.16-4.19-4.59-7.96-9.62-9.91-15.59-.57-2.94-4.7-8.28-.7-9.98,1.3-.35,2.6,.43,2.99,1.7,2.19,8.84,6.78,16.3,13.01,22.76,5.83,6.6,11.11,13.34,17.03,19.74,11.48,8.87,17.91,23.25,18.61,37.56,.62,9.12-.24,18.3-.2,27.44,.02,3.11-4.88,3.18-4.87,0Z"/>
    <path class="cls-1" d="M893.88,491.65c-2.81-2.63,1.62-5.35,2.88-7.63,4.05-5.24,7.38-10.53,10.58-16.24,5.44-13.67,7.63-28.48,8.46-42.99,1.16-8.74-3.58-16.1-8.56-22.74-1.91-2.47,1.98-5.5,3.85-2.98,5.12,6.98,10.22,14.54,9.65,23.6-.5,14.82-2.85,29.55-7.52,43.64-3.01,7.59-7.94,14.34-12.76,20.88-1.76,1.83-3.49,6.42-6.57,4.46Z"/>
    <path class="cls-1" d="M852.52,469.8c-3.11-2.18,.91-5.64,1.71-8.04,3.95-7.06,3.73-15.51,3.23-23.34-1.54-7.13-5.06-13.06-6.48-20.09-2.23-12.02,1.99-23.96,9.49-33.33,1.9-2.47,5.8,.49,3.85,2.98-1.57,2.01-2.58,3.88-3.91,5.95-3.45,4.32-4.18,10.12-5.12,15.28-.87,8.99,3.69,16.84,6.12,25.18,2.09,6.25,.96,13,.62,19.45-.63,5.5-3.54,10.34-6.18,15.09-.65,1.16-2.2,1.53-3.32,.87Z"/>
    <path class="cls-1" d="M618.54,392.32c-10.33-12.25-15.65-29.83-7.79-44.73,3.97-7.46,8.37-16.13,16.23-20.04,2.88-1.23,4.8,3.26,1.89,4.48-4.54,1.96-6.93,6.74-9.7,10.53-6.35,8.93-9.5,20.7-5.69,31.25,2,5.63,5.26,10.84,8.92,15.54,1.94,2.44-1.94,5.5-3.85,2.96Z"/>
    <path class="cls-1" d="M645.93,324.2c.96-11.3,1.7-22.4,.68-33.68-1.54-16.5-5.88-32.81-7.21-49.37-.45-7.75,1.43-15.45,4.14-22.66,3.7-6.9,9.57-12.7,14.02-19.04,7.56-11.2,19.28-23.44,28.66-33.44,2.55-2.34,5.78-4.22,8.18-6.65,5.45-7.08,11.87-13.26,17.3-20.36,2.54-2.7,5.3-5.19,7.97-7.77,.99-.87,2.46-.98,3.43,0,.9,.9,.99,2.56,0,3.45-2.88,2.81-5.97,5.51-8.64,8.51-3.33,4.34-6.97,8.96-11,12.62-3.79,5.48-8.75,10.04-14.12,13.9-8.9,9.27-17.31,19.08-25.47,28.94-6.73,10.8-17.76,19.61-19.05,32.89-2.32,22.21,7.05,43.9,7.04,66.18,.38,8.75-.39,17.87-1.09,26.49-.03,3.08-4.85,3.24-4.86,0Z"/>
    <path class="cls-1" d="M650.12,451.26c-.72-3.03,2.92-3.12,4.78-4.13,.83-.69,1.2-1.47,1.69-2.3,2.96-7.27,6.46-14.59,8.36-22.09,3.36-11.55-.04-22.82-5.58-33.03-4.72-5.36-9.05-11.25-11.16-18.19-.71-2.13-.87-4.35-1-6.59,.01-3.14,4.79-3.2,4.86,0,.24,8.64,6.04,15.8,11.26,21.97,3.73,7.46,7.66,15.35,7.88,23.87,.02,13.35-5.54,26.03-11.21,37.81-1.34,2.66-8.41,6.79-9.88,2.69Z"/>
    <path class="cls-1" d="M970.3,454.79c-3.34-8.76-5.46-17.81-9.39-26.24-6.27-12.45-15.63-22.77-22.61-34.73-3.36-5.31-8.64-9.36-11-15.27-1.92-4.9-.53-10.16,.43-15.13,.76-7.46,5.06-13.52,9.08-19.59,.7-1.13,2.17-1.56,3.33-.87,3.33,2.57-1.54,6.26-2.7,8.88-4.6,6.57-6.22,15.23-6.09,23.13,1.1,5.55,6.1,9.06,9.13,13.56,9.76,15.98,23.22,30.05,28.88,48.24,1.45,4.28,2.42,8.41,4.18,12.43,.65,2.33,3.09,6.09-.27,7.28-1.27,.37-2.59-.41-2.99-1.7Z"/>
    <path d="M692.72,344.87c-.74-2.19-2.16-3.92-2.93-5.97-.46-2.5-1.78-5.06-.87-7.55,1.45-2.72,4.52-.87,6.5,.15,2.36,1.11,1.28,4.9-1.29,4.6,.5,2.7,2.44,4.65,3.18,7.17,1.08,2.93-3.54,4.59-4.59,1.6Z"/>
    <path d="M738.74,314.64c-.15-2.84,2.89-2.3,4.57-3.27,1.66-1.95,1.7-4.93,1.81-7.41,.02-2.08,2.95-3.06,4.24-1.44,1.18,1.55,.45,3.68,.32,5.45-.51,2.08-.54,4.08-2.03,5.74,.05-.09,.11-.19,.15-.27-1.41,2.79-8.18,5.61-9.07,1.2Z"/>
    <path d="M728.71,317.29c-1.76-.65-3.75,.22-5.23-1.1-2.35,1.13-4.96-1.49-3.4-3.72,.78-1.13,2.14-1.37,3.4-1.41,1.52-1.13,3.75-.44,4.6,1.18,.52,.14,1.08,.14,1.6,.28,3.11,.69,2.14,5.39-.98,4.76Z"/>
    <path d="M984.65,655.92c-1.49-.09-2.4-1.47-2.26-2.88-1.26-17.01-.49-33.76,.81-50.67-.24-8.81-1.97-17.45-2.9-26.18-1.61-12.65-2.24-25.68-6.51-37.69-6.24-15.16-13.28-29.94-20.35-44.7-6.42-9.06-12.89-18.33-17.77-28.26-.62-3.08-5.43-8.39-1.47-10.38,1.3-.46,2.6,.27,3.1,1.49,4.68,13.4,13.66,24.45,21.21,36.24,7.84,18.78,19.32,36.42,23.13,56.51,2.6,17.32,4.89,34.73,6.41,52.1-.37,11.28-1.78,22.54-1.49,33.85-.05,6.11,.66,12.19,.67,18.3-.01,1.33-1.33,2.34-2.58,2.25Z"/>
    <path d="M756.33,646.69c-2.41-17.96,.05-35.85,1.54-53.76-.65-9.8-2.97-19.55-3.83-29.21-1.3-8.17-1.71-16.67-5.09-24.31-4.7-11.29-10.96-21.16-20.37-28.83-5.12-5.56-10.5-10.68-17.68-13.42-8.23-4.96-14.59-9.36-24.25-5.14-5.37,1.28-10.92,.75-16.36,1.47-3.38,.7-15.58,3.93-15.69-1.32,.68-3.92,5.84-1.5,8.51-2.09,3.89-.79,7.29-1.81,11.24-1.82,8.67,.91,16.69-4.36,25.02-2.38,7.86,2.78,14.74,7.78,22.25,11.39,5,3.66,8.79,8.74,13.52,12.74,16.12,14.34,22.58,35.95,24.2,56.8,1.67,13.48,4.92,26.31,2.13,39.82-.73,9.8-1.85,19.57-1.1,29.4,.18,3.45,.52,6.88,.84,10.32,.11,1.32-.98,2.5-2.27,2.58-1.34,.09-2.47-.94-2.6-2.27Z"/>
    <path d="M606.56,651.46c-2.04-9.66-4.11-19.36-5.07-29.17,.28-2.89-2.33-8.41,1.76-9.25,1.32-.09,2.48,.95,2.58,2.27,.25,4.62,.77,9.64,1.49,14.14,.84,7.1,2.63,14.02,3.99,21.04,.64,3.07-4.17,4.07-4.76,.98Z"/>
    <path d="M1480.62,478.04s.04-.07,.05-.1c.11-.06,.24-.09,.38-.09,.09,0,.18,.01,.27,.03,0,.05,0,.1,0,.16,0,.03,0,.06,0,.09-.07,.06-.14,.12-.21,.19-.02,.02-.05,.05-.07,.07-.13-.13-.27-.25-.43-.34Z"/>
    <path d="M1463.35,337.68c0-.24,0-.49,0-.73,.16,.18,.26,.43,.26,.68,0,.26-.11,.49-.28,.67,0-.21,0-.41,.01-.62Z"/>
    <path d="M1461.62,337.59c0-.24,.09-.45,.23-.62-.04,.26-.07,.53-.11,.79-.01,.08-.03,.15-.04,.23-.05-.13-.08-.26-.08-.41Z"/>
    <path d="M1474.59,525.21l-.11-.02s-.04-.02-.06-.03c.19-.28,.51-.45,.86-.45,.01,0,.03,0,.04,0-.07,.08-.13,.15-.21,.23-.07,.07-.15,.13-.23,.19-.04,.02-.07,.04-.11,.05-.02,0-.04,.01-.06,.02-.03,0-.06,0-.09,0h-.03Z"/>
  </g>
</svg>