<?xml version="1.0" encoding="UTF-8"?>
<svg xmlns="http://www.w3.org/2000/svg" viewBox="0 0 1536 834">
  <defs>
    <style>
      .cls-1 {
        fill: #fff;
      }

      .cls-2 {
        fill: #f3c25f;
      }

      .cls-3 {
        fill: #f5cf1f;
      }

      .cls-4 {
        fill: #fbd679;
      }
    </style>
  </defs>
  <g id="Vektorebene">
    <path class="cls-3" d="M776.58,554.24v-.58c4.35,.04,8.68,.06,13.02,.1,6.47,.18,12.94,.37,19.4,.55-10.82,.5-21.64,1.02-32.45,1.53,.01-.54,.02-1.06,.02-1.6Z"/>
    <path class="cls-4" d="M478.15,429.5c0-22.2,18.53-40.73,40.73-40.73s40.73,18.53,40.73,40.73-18.53,40.73-40.73,40.73-40.73-18.53-40.73-40.73Z"/>
    <path class="cls-2" d="M515.46,763.05c-72.34-9.61-134.38-52.62-188.84-98.63-54.36-50.61-67.62-125.16-27.23-188.85,13.32-25.53,27.38-51.36,48.37-71.47,19.35-20.83,37.22-43,58.87-61.57,9.39-11.33,21.13-20.11,31.85-30.04,8.24-10.51,17.4-20.28,26.33-30.21,10.69-19.45,24.82-36.96,34.17-57.09,6.08-15.63,11.59-31.54,16.03-47.72,6.21-24.11,6.77-49.22,13.33-73.24,.52-1.84,1.04-3.65,1.56-5.43,5.1-2.03,10.17-4.13,15.18-6.38,16.82-7.54,32.81-16.67,49.44-24.63,1.68-.73,3.37-1.46,5.04-2.18,3.95-.35,7.92-.64,11.9-.87,11.4-.18,22.78-.02,34.17,.23,11.84,.28,23.63,.58,35.43,1.55,14.81,1.62,29.57,3.67,44.09,7.05,13.42,4.03,26.44,9.42,39.35,14.92-1.13,6.16-2.33,12.31-3.62,18.45-2.15,7.74-4.47,15.43-6.3,23.27-2.42,10.29-6.01,20.34-7.98,30.73-3.67,19.42-4.47,39.22-5.59,58.9-1.09,18.64,2.04,37.85,5.88,56.21,.16,1.08,.33,2.15,.5,3.23-.07-.61-.13-1.21-.2-1.82,0,.02,.01,.05,.01,.07,.78,5.96,1.74,11.91,2.71,17.85-.42,3.12-.72,6.24-.71,9.39,1.08,2.79,2.14,5.59,3.21,8.41,.27,2.01,.56,4,.88,6.01,2.84,17.97,5.84,36.65,11.22,54.11,1.1,3.56,2.23,7.07,3.42,10.55,.51,3.35,1.09,6.68,1.74,10,5.1,10.81,10.04,29.66,10.62,39.63,2.94,17.12,.22,34.11,9.02,49.63,17.22,42.79,29.14,91.52,13.76,136.55-10.55,43.99-43.82,77.01-83.16,97.06-46.76,32.97-102.99,49.83-159.72,49.83-14.93,0-29.89-1.16-44.72-3.51Zm-63.46-351.37c7.12,.97,14.16,2.67,20.87,4.7,4.42,1.35,8.81,2.99,13.15,4.87,3.65-5.14,8.04-9.84,13.3-13.93,4.93-3.82,10.55-6.73,16.49-8.69-4.97-4.81-9.36-10.26-13.57-15.73-3.04-3.94-5.26-8.07-6.82-12.33-14.85,13.35-29.14,27.11-43.41,41.1Z"/>
    <path class="cls-2" d="M606.23,829.82c-52.59-8.75-101.08-38.7-137.39-77.07-40.55-53.29-56.74-133.78-28.35-195.75,66.99-79.8,193.38-31.42,253.2,34.31,39.82,5.5,72.58,39.24,82.78,77.18,15.02-20.95,8.15-49.41,4.92-73.19-14.12-38.78-45.5-70.72-51.15-112.56-71.01,26.55-150.4-9.4-193.31-68.32-.83-.05-1.66-.12-2.5-.21-3.49-.35-6.95-.89-10.4-1.47-7.01,37.36-17.66,91.61-67.75,84.9-48.46-11.48-48-76.47-40.62-115.94-.55-36.16-15.32-72.42-6.25-108.76,8.56-40.31,26.06-83.34,55.14-112.35,18.31-24.46,40.46-46.26,66.52-62.23,4.71-1.89,9.39-3.83,14.02-5.91,13.33-5.98,26.14-12.96,39.15-19.55,13.18-4.44,26.23-7.19,39.51-8.21,7.29,.02,14.59,.15,21.88,.32,2.52,.06,5.03,.12,7.55,.18,12.79,1.38,26.02,4.24,39.97,8.62,6.52-2.01,13.39-2.83,20.44-2.63,3.87,.72,7.73,1.52,11.57,2.42,15.29,4.59,30.06,10.94,44.74,17.22,.74,.33,1.48,.65,2.22,.98,33.46,21.16,62.65,54.78,72.52,82.36,15.01,54.68,11.36,114.1-3.55,168.44-16.36,46.05-38.73,83.19-28.98,134.53,14.06,31.22,35.48,59.19,46.43,91.97,10.83,44.63,15.69,96.82-9.77,137.4-12.12,23.5-34.16,38.1-53.07,55.46-39.1,46.38-91.01,72.04-148.62,72.04-13.33,0-26.97-1.37-40.82-4.18Zm-96.12-227.54c-8.87,54.85,11.75,103.95,62.28,129.29-8.38-37.98,3.04-82.47,29.85-110.89-19.13-12.56-42.93-23.39-66.34-23.39-8.74,0-17.42,1.51-25.79,5Zm195.54-281.26c-3.84,3.79-7.93,7.23-12.18,10.43,.44,6.05,1.55,12.11,3.53,17.85,10.16-10.22,22.83-24.75,19.51-40.05-3.41,4.06-7.03,7.99-10.86,11.77Z"/>
    <path class="cls-2" d="M345.87,481.3c-18.39-19.56-10.47-48.97,9.46-64.07,14.8-37.01,39.43-70.45,46.43-110.23,16.54-38.29,25.6-79.5,43.48-117.48,25.11-47.4,95.29-13.52,73.37,35.47-28.68,64.9-39.92,136.61-76.65,197.94-14.8,39.19-49.96,99.62-96.09,58.36Z"/>
    <path class="cls-2" d="M384.47,424.46c-25.08-17.38-22.46-48.11-2.87-68.87,8.54-23.51,12.43-48.19,19.41-72.16,8.1-47.77,16.12-96.45,36.97-140.61,22.72-35.37,48.57-72.27,86.83-91.97C572.88,12.76,636.51,1.57,695.86,14.5c39.24,3.36,66.11,29.88,92.84,55.87,15.25,12.24,25.39,29.34,31.1,47.87,20.66,54.16,8.07,112.62-10.83,165.33-11.03,53.23-88.63,39.44-80.27-14.16,11.79-42.58,32.17-88.31,11.35-131.64-11.21-14.1-26.6-25.88-40.08-38.19-40.75-14.1-89.83-13.09-124.33,15.34-10.08,7.02-21.82,11.7-30.65,20.42-12.66,16.55-25.63,28.95-35.47,46.72-30.25,51.7-30.32,291.05-125.05,242.39Z"/>
  </g>
  <g id="Vektorebene-2" data-name="Vektorebene">
    <path d="M406.42,476.89c0-1.29,1.06-2.35,2.35-2.35s2.35,1.06,2.35,2.35-1.06,2.35-2.35,2.35-2.35-1.06-2.35-2.35Z"/>
    <path d="M566.42,265.25c-2.33-10.44-4.96-21.05-5.01-31.79,.94-21.25,6.73-42.86,17.88-60.98,2.63-4.12,3.04-9.12,5.29-13.41,3.65-6.88,6.49-14.6,12.62-19.67,13.32-16.56,38.51-16.98,56.25-7.65,32.35,13.65,25.03,29.44,24.82,58.27,0,4.96,1.44,10.33,5.02,13.87,7.01,5.52,14.27,11.55,15.64,20.94,2.68,7.07,1.56,13.78-.95,20.26-.42-.5-.9-.99-1.46-1.32-.42-.61-.89-1.16-1.53-1.57-.24-.15-.5-.27-.76-.34,1.24-3.34,1.93-6.8,1.44-10.49-.73-3.82-1.71-7.49-3.02-11.09-2.44-5.17-7.2-8.49-11.48-12.01-16.12-14.72-.93-38.7-9.12-56.24-3.49-7.59-11.16-11.53-18.32-14.97-12.61-6.73-29.19-9.84-42.21-3-2.45,1.64-5.46,2.82-7.6,4.83-2.22,2.78-4.92,5.08-7.29,7.69-4.27,7.41-8.6,14.72-10.77,23.01-3.13,7.34-8.3,13.33-10.2,21.21-6.71,15.59-10.65,33.32-9.06,50.29,1.7,11.06,3.76,22.11,6.65,32.9,1.96,4.97,3.98,10.05,6.23,14.93-1.54,.26-3.06,.71-4.49,1.41-3.53-8.15-7.49-16.19-8.56-25.1Z"/>
    <path d="M781.38,260.03c.32-.16,.64-.31,.97-.46-.24,.26-.48,.51-.73,.77-.09-.09-.17-.2-.24-.3Z"/>
    <path d="M559.48,253.41c-4.71-2.44-5.01-7.37-6.87-11.62-3.25-5.58-5.39-11.59-6.68-17.85-1.3-4.87-2.79-10.21-1.19-15.15,.23-4.12-1.63-7.86-2.86-11.65-.95-5.46-1.25-11-1.69-16.51-.35-4.97,1.4-9.53,4.5-13.35,3.83-8.52,4.94-18.59,10.48-26.17,3.03-6.5,7.52-11.28,13.59-14.86,5.67-7.15,11.42-14.4,16.96-21.59,4.11-4.64,10.73-5.46,16.44-6.79,8.11-.14,14.89,5.87,21.69,9.61,4.28,1.92,8.19-2.79,10.18-6.09,6.51-11.65,10.55-14.26,23.73-16.53,11.35-3.01,22.69,1.79,32.26,7.65,3.52,2.8,7.18,4.72,10.02,8.05,2.55,3.66,4.91,7.47,6.81,11.51,5.75,11.65,2.72,25.59,8.31,37.31,1.32,3.46,3.92,5.78,6.15,8.58,5.72,7.96,3.04,18.7,1.68,27.67-1.47,6.92-5.74,13.23-6.94,19.98-.69,10.51,3.29,21.77-1.26,31.83-2.65,5.71-8.07,9.06-14.31,7.39-1.18-.5-1.63-2.02-1.09-3.13,.95-2.1,3.36-.87,5.06-1.29,4.61-.29,6.91-5.64,7.46-9.63,1.46-9.45-1.95-18.91-.07-28.21,4.4-11.32,9.14-22.61,8.11-34.92-.02-2.8-1.13-5.36-2.8-7.42-14.58-13.46-6.84-35.8-17.24-51.26-5.8-10.7-17.83-16.34-29.02-19.83-8.52-1.39-17.48,.74-25.15,4.34-4.77,3.82-6.67,10.19-10.85,14.58-3.16,3.46-8.48,6.05-13,3.7-6.95-3.45-14.14-11.16-22.41-8.51-2.59,.89-5.56,1.24-7.94,2.61-2.49,1.53-3.9,4.09-5.63,6.25-4.67,6.03-9.35,12.06-14.25,17.88-3.38,2.45-7.19,4.34-9.26,8.16-3.66,5.4-6.84,11.36-8.79,17.53-2.05,6.63-3.82,13.27-7.98,18.92-1.73,6.84,.17,13.89,.7,20.75,.77,3.01,2.2,5.83,2.74,8.91,1.16,4.44-1.15,8.72,.15,13.12,1.42,5.71,2.18,11.67,5.01,16.89,.96,2.86,2.67,5.07,3.68,7.83,.42,1.5,.69,2.88,1.27,4.29,.5,1.39,1.69,2.27,2.88,3.06,2.58,1.59-.08,5.69-2.57,3.94Z"/>
    <path d="M837.05,289.24c-.05,.06-.11,.12-.17,.17,.06-.05,.11-.11,.17-.17Z"/>
    <path d="M836.91,289.39s0,0,0,0c-.01,0-.02,.02-.03,.03,.01,0,.02-.02,.03-.03Z"/>
    <path d="M642.64,199.88c-.99-3.38,3.55-3.41,5.56-4.45,7.07-3.24,15.47-5.66,23.15-4.04,2.79,.21,5.34,1.53,7.7,2.94,2.33,1.93-.73,5.54-3.03,3.59-2.22-1.12-4.41-2.01-6.93-2.08-5.2-1.17-10.23,1-15.18,2.22-3.04,.6-9.18,5.77-11.27,1.83Z"/>
    <path d="M646.19,204.88c-2.57-.45-2.51-3.37-2.96-5.39-.23-1.26,.51-2.52,1.79-2.8,1.96-.43,2.98,1.41,3.06,3.1,6.6-2.77,13.99-3.69,21.05-3.19,2.98-.05,10.3-1.51,9.7,3.34-.38,1.18-1.77,1.96-2.96,1.51-2.3-.77-4.71-.18-7.07-.15-3.78-.33-7.34,.04-11.06,.47-4,.42-7.57,3.04-11.55,3.11Z"/>
    <path d="M585.48,202.55c-4.13-2.45,.32-6.66,3.28-7.71,3.71-.94,7.4-2.47,11.28-2.04,2.06-.46,4.24-1.21,6.36-.75,3.21,.01,6.04,1.01,8.86,2.4,2.86,.6,6.9,.81,8.51,3.55,2.65,1.5,.12,5.62-2.39,4.03-1.74-.93-4.27-1.22-6.11-1.2-10.08-.9-19.92,3.07-29.79,1.73Z"/>
    <path d="M680.51,214.48c-.17-.14-.34-.27-.51-.4-.58-2.36-2.04-4.51-4.22-5.89-.84-.54-1.8-1.03-2.74-1.4-.95-.38-1.95-.8-2.97-.93-.93-.12-1.8-.11-2.69-.06-1.74-.18-3.4-.16-5.23,.32-.53,.11-1.05,.22-1.57,.34-.03-.02-.06-.04-.08-.06,.23-.05,.46-.09,.68-.13,7.66-2.86,16.81-.13,22.8,5.04,1.57,1.67-.06,3.93-1.84,3.93-.56,0-1.14-.23-1.64-.77Z"/>
    <path d="M663.07,205.92c-.27,.06-.53,.11-.8,.17,.26-.06,.53-.12,.8-.17Z"/>
    <path d="M641.43,234.32c-.52-2.56-.83-5.16-.79-7.78-.16-3.28-1.68-15.47,3.26-14.95,1.27,.24,2.11,1.49,1.88,2.75-.51,3.02-1.26,6.11-.62,9.14,.37,4.01,.1,7.8,1.21,11.61-.23,.07-.46,.14-.68,.22-1.39-.52-2.81-.86-4.25-1Z"/>
    <path d="M623.28,327.13c-6.14-.23-11.7-2.78-17.16-5.36-2.59-1.32-5.48-2.06-7.58-4.17-5.83-5.18-9.87-11.66-15.01-17.45-3-1.97-4.36-5.31-6.5-7.92-2.15-1.7-6.35-6.39-3.1-8.65,2.94-1.33,3.43,2.29,4.72,3.84,2.29,1.79,3.97,4.39,5.41,6.82,6.78,6.02,11.13,14.16,17.92,20.17,7.96,4.32,16.89,9.19,26.22,7.78,10.8-2.29,20.82-7.85,28.57-15.64,.35-.06,.7-.19,1.02-.37,.37-.2,.7-.48,.99-.78,.35-.21,.69-.45,1.03-.72,.51-.39,1.02-.81,1.49-1.24,.07-.06,.16-.12,.23-.2,.09-.05,.17-.09,.27-.12l.11-.04c.04,.07,.06,.13,.09,.21,.05,.13,.09,.28,.13,.43-.01,.06-.01,.11-.02,.17-.04,.35,0,.71,.01,1.06,.07,.92,.07,1.89,.28,2.79-4.22,4.66-9.79,8.1-14.65,11.96-7.31,3.57-15.07,7.45-23.35,7.45-.38,0-.76,0-1.14-.02Z"/>
    <path d="M661.99,303.07s.05,.06,.06,.09c-.02-.02-.04-.06-.06-.09Z"/>
    <path d="M602.91,218.89c-5.66,.24-10.02-8.04-4.35-11.27,2.39-2.23,5.59-2.36,8.52-1.16,1.98,.6,4.54,2.89,3.4,5.11,1.19,3.93-4.15,7.33-7.57,7.33Zm.38-4.68c1-.22,1.77-1.03,2.57-1.62-.14-.71-.59-1.27-.94-1.87-2.08-.83-2.94,.07-4.36,1.35,.36,1.29,1.33,2.24,2.73,2.14Z"/>
    <path d="M584.63,212.6c-1.49-3.56,3.75-4.53,6.05-5.63,5.19-3.27,12.49-3.13,18.43-3.05,4.04,.37,8.09,2.33,11.37,4.5,2.6,1.57,.14,5.64-2.44,4.01-.67-.48-1.43-.98-2.13-1.34-3.71-2.13-7.78-2.98-12.01-2.48-3.16,.29-6.58,.41-9.51,1.55-1.47,1.03-3.14,1.72-4.73,2.2-1.52,1.07-3.77,2.38-5.03,.23Z"/>
    <path d="M648.7,214.39c-.32-1.23,.47-2.71,1.79-2.9,.76-.61,1.35-1.37,2.17-1.93,1.88-.87,3.58-1.81,5.28-3,3.94-1.79,8.46-1.94,12.71-1.53,3.61,1.11,8.16,1.99,10.38,5.21,2.43,3.5-2.71,5.72-4.38,1.98-5.15-2.78-11.7-3.88-17.13-1.16-1.31,1.28-3.09,1.72-4.59,2.67-1.45,1.85-5.11,3.89-6.23,.64Z"/>
    <path d="M665.18,218.99c-2.69-.62-3.76-3.6-4.36-6-.31-3.68,3.1-6.68,6.52-6.99,5-.4,5.11,5.94,.11,4.72-.85,.28-1.66,.8-1.96,1.68,.25,.86,.52,1.34,.9,2.05,.01,0,.02,0,.03,0,.03,0,.06,.01,.09,.02,2.09-.85,2.56-4.4,5.37-2.88,3.8,2.87-3.44,8.82-6.71,7.39Z"/>
    <path d="M668.79,215.76c-.97-.76-1.22-2.34-.38-3.3,.43-.31,.28-.82,.14-1.25-4.5-2.45-.17-7.06,3.24-3.46,3,2.29,1.52,10.44-3,8.02Z"/>
    <path d="M658.86,358.11c.01-1.29,1.08-2.34,2.36-2.34s2.35,1.09,2.34,2.36c-.01,1.29-1.08,2.34-2.36,2.34s-2.35-1.09-2.34-2.36Z"/>
    <path d="M607.31,373.38c-8.02-.48-16-.93-23.78-3.07-10.49-2.96-19.32-9.44-28.68-14.66-5.42-3.03-8.81-8.2-11.86-13.37-3.24-3.29-6.61-6.72-8.2-11.16-1.85-7.35,3.24-6.25,8.05-8.03,4.88-1.76,9.48-4.35,13.99-6.9,9.35-4.02,10.95-14.75,10.76-23.85,.7-4.98,.63-9.76,.23-14.62-.63-2.85,3.88-3.99,4.56-1.07,1.04,6.67-.1,12.91-.11,19.51-.48,6.55-1.61,13.92-6.06,19.01-2.52,2.04-4.94,4.17-7.85,5.6-6.17,3.19-12.26,7.19-19.22,8.07,.83,4.09,4.03,6.82,6.72,9.64,2.78,3.08,4.21,7.3,7.34,10.11,13.41,9.45,28.38,18.85,45.2,19.45,12.32,1.39,25.67,.19,36.54-6.08,8.71-5.41,15.87-13.87,20.19-23.06,1.03-4,2.3-7.95,2.81-12.05-.3-5.27-.88-10.49-.27-15.7-.6-3.4,4.5-4.18,4.71-.64-.26,4.69-.58,9.33,.21,13.97,.04,16.71-10.71,31.89-24.22,40.89-9.16,5.91-20.35,7.59-31.08,8.04Z"/>
    <path d="M351.57,600.84c-3.58-8.1-.87-17.02-.03-25.25,1.99-15.19,4.22-30.45,8.18-45.27,2.49-16.04,6.89-31.57,11.68-47.04,4.49-18.67,12.57-36.03,20.93-53.22,7.58-16.39,15.78-32.62,25.31-47.96,5.67-7.12,11.85-13.79,17.71-20.73,8.9-7.86,19.31-13.47,29.9-18.7,6.81-2.01,14.34-2.02,21.04-4.47,5.32-3.45,11.93-4.25,17.08-7.61,5.08-5.9,10.75-11.38,18.23-14.1,6.23-1.55,12.65-4.55,19.08-4.34,5.46-1.05,10.33,1.83,15.5,3.13,2.86,.99,1.57,5.34-1.42,4.48-3.28-.86-6.43-2.12-9.67-3.08-3.26,.02-6.13,.19-9.25,.54-7.43,2.26-15.26,3.75-21.49,8.71-2.52,1.98-4.04,4.14-6.08,6.43-2.88,3.59-7.45,4.59-11.48,6.35-3.53,.87-6.23,2.63-9.44,4.11-6.93,2.44-14.59,2.29-21.5,4.67-9.72,5.26-19.65,10.21-27.8,17.81-7.66,9.6-16.95,18.02-22.4,29.1-11.83,22.17-23.06,44.63-32.82,67.8-10.13,30.27-18.16,61.33-23.39,92.78-1.96,12.87-4.75,26.06-4.97,38.89,.42,2.04,1.13,3.91,1.68,5.91,.74,2.87-3.89,4.09-4.58,1.05Z"/>
    <path d="M432.26,610.56c-3.72-1.69,.17-6.93,1.07-9.53,2.26-4.58,3.61-9.19,5.83-13.65,1.01-2.03,2.65-4.14,3.46-6.19,.88-2.46,.57-5.2,1.63-7.64,.65-1.42,2.46-1.71,3.64-.8,.71,.55,.87,1.41,.86,2.25-.01,3.66-.55,7.31-1.42,10.86-1.73,7.45-2.68,15.08-4.58,22.48-.37,1.22-1.75,1.91-2.95,1.53-1.24-.39-1.9-1.73-1.53-2.95,1.04-3.36,1.39-6.87,2.08-10.31-1.1,3-2.7,6.16-3.98,8.99-.83,1.96-1.08,5.79-4.1,4.96Z"/>
    <path d="M759.17,608.81c-1.25-.21-2.15-1.46-1.92-2.72,1.45-6.82-.58-13.47-.4-20.33,.13-8.67,2.72-17.68,2.25-26.24-.72-13.52-3.06-26.63-3.34-40.13-.16-16.45-1.4-32.67-2.49-49.02-.67-9.36-3.06-18.27-3.32-27.59-.38-4.92-1.47-9.8-2.2-14.6-1.29-11.41-3.37-22.58-7.57-33.3-2.08-7.92-1.63-16.77-6.22-23.87-3.35-5.72-7.06-11.13-12.83-14.65-4.33-3.47-7.73-7.71-12.96-9.8-6.03-4.11-12.44-8.02-19.48-9.79-4.76-.98-9.72-.61-14.44-1.84-3.56-1.05-6.99-2.43-10.62-3.23-1.25-.33-1.91-1.77-1.53-2.95,1.68-4.22,10.33,1.45,13.55,1.69,4.28,.9,8.33,.78,12.58,1.44,7.96,1.53,15.42,5.85,21.96,10.42,3.74,1.76,7.27,4.08,10.09,7.1,5.65,4.96,12.2,8.92,15.62,15.91,6.75,8.41,6.68,19.23,9.07,29.21,4.41,10.65,6.05,22.02,7.5,33.35,1.63,8.01,2.21,15.96,2.98,24.08,3.28,14.9,2.9,30.22,4.21,45.28,1.39,15.23,.15,30.58,2.82,45.65,.81,7.83,1.58,15.61,1.12,23.5-.16,6.64-2.24,13.53-2.03,20.04-.61,4.91,3.96,22.25-2.39,22.39Z"/>
    <path d="M688.89,613.53c-2.47-14.58-1.48-29.14-.91-43.82,.36-18.48,4.27-36.67,6.82-54.94,.61-14.06,.9-28.11,3.27-42.04,.97-6.37,.29-12.79,1.82-19.04,.57-2.95,5.15-2.29,4.63,.8-1.71,12.18-1.96,24.49-4.05,36.61-.91,9.45,.11,19-1.56,28.39-3.8,21.13-6.53,42.35-6.74,63.78-.63,9.98-.09,19.94,1.39,29.82,.26,2.98-4.35,3.55-4.67,.45Z"/>
    <path d="M560.29,601.82c-2.48-1.76,.08-4.34,1.02-6.25,3.07-5.75,5.58-11.8,8.25-17.74,11.8-24.32,24.87-48.14,35.94-72.78-.05,.14-.07,.18-.11,.29,6.78-18.98,16.81-36.34,25.61-54.38,3.06-5.83,6.91-11.2,9.79-17.1,1.98-2.2,3.1-8.61,6.89-6.83,2.57,1.88-.31,4.65-1.29,6.63-2.67,4.25-4.63,8.91-7.54,13.02-9.69,17.87-19.3,36.02-26.95,54.83-4.98,14.51-13.33,27.41-19.62,41.33-4.06,9.32-9,18.2-13.72,27.2-4.27,8.17-7.64,16.77-11.69,25.04-1.77,2.36-2.71,8.38-6.57,6.72Z"/>
    <path d="M520.08,591.17c-3.47-2.37,3.68-9.14,4.73-12.12,11.82-20.45,22.98-41.08,33.22-62.26,1.6-2.55,5.63-.02,3.95,2.55-5.44,11.11-10.86,22.87-17.27,33.33-6.41,12.07-12.7,24.21-20.11,35.7-.89,1.69-2.3,4.16-4.52,2.8Z"/>
    <path d="M635.09,256.75c-1.77-.58-3.51-1.04-5.39-.66-3.02,.2-3.28-4.56-.23-4.69,1.3-.11,2.57-.27,3.86,0,2,.55,4.15,1.36,6.03,.05,2.29-1.35,7.88-3.09,8.07,1.06-.21,2.08-2.08,2.2-3.73,2.19-2.8,1.03-5.47,2.83-8.61,2.05Z"/>
    <path d="M627.85,256.37c-1.16-.93-2.58-.68-3.98-.82-3.3-.63-2.13-5.39,1.1-4.64,2.55-.16,7.63,1.15,5.99,4.61-.63,1.03-2.05,1.46-3.11,.85Z"/>
    <path d="M645.62,278.58c.11-.05,.21-.11,.31-.17,.26-.04,.5-.06,.75-.1,.09,0,.19-.02,.28-.03-.05,.03-.09,.06-.14,.09-.39,.09-.79,.17-1.19,.23h0Z"/>
    <path d="M653.3,270.95s-.02-.01-.04-.01c-.06-.01-.11-.01-.17-.02,.49-.16,.99-.29,1.51-.39,.52-.15,.99-.13,1.39,0-.14,0-.27,.01-.41,.04-.29,.06-.56,.18-.78,.36-.08,0-.15,.01-.23,.02-.43-.09-.84-.06-1.26,0Z"/>
    <path d="M655.19,268.08c-.56-.49-1.15-.98-1.74-1.38-.63,2.46-3.58,2.85-5.48,1.54-1.5,.87-3.29,.23-4.65-.15-.93,.39-1.91,.65-2.92,.48-1.38-.17-2.18-1.06-3.37-1.34-1.06,.11-2.13,.24-3.15-.15-1.49,1.45-3.7,1.58-5.55,.87-1.5,1.13-3.74,1.62-5.29,.34-1.55,1.73-4.55,1.28-5.39-.95-2.01,1.56-5.23,1.04-6.27-1.4-.97,.69-2.29,1.21-3.47,1.05-.73-.1-1.31-.48-1.73-1-1.75,3.3-6.35,.37-4.01-2.56,1.66-2.07,4.41-8.27,7.64-6.17,1.09,.84,1.23,2.52,.24,3.51,0,.05,.02,.1,.02,.14,.57-.46,1.18-.85,1.86-.97,2.85-2.73,7.27-2.2,10.86-3.08,4.24-.13,7.68,1.74,11.79,1.15,3.14,.74,5.17,.24,8.13,.61,2.45-.37,6.75,.4,5.01,3.78,.08,.05,.15,.1,.23,.15,.09-.03,.18-.05,.27-.07,.63-.12,1.25-.03,1.86,.09,2.59-3.41,6.29-.48,8.5,1.8,.87,.8,1.86,1.73,1.86,2.99-.35,3.39-3.83,2.55-5.48,.51,0,0,.23,.2,.23,.2Zm-29.74-3.86c.16-.1,.32-.21,.48-.31,.06-.04,.12-.08,.18-.11-.68-.2-1.25-.59-1.8-1.04-.65,.37-1.41,.12-2.04,.43,1.19-.31,2.32,.23,3.17,1.02Z"/>
    <path d="M648.91,271.23c-2.85-1.1-4.19-4.35-6.49-6.24-2.16-2.15,1.2-5.49,3.33-3.33,1.24,1.31,2.49,2.6,3.64,3.99,1.37-1.96,4.87-.78,4.49,1.69-.71,1.96-2.56,4.47-4.97,3.89Z"/>
    <path d="M660.81,284.87c-2.36-1.45-.34-3.91,.28-5.78,1.38-3.5,.7-7.57-.63-10.83-.44-2.89-4.53-7.28-1.09-9.41,1.13-.48,2.64,.05,3.07,1.26,2.51,6.68,5.97,13.87,2.93,20.98-.72,1.95-1.93,5.19-4.55,3.78Z"/>
    <path d="M594.46,281.92c-3.9-2.98-2.47-9.25-2.03-13.45,.07-3.65,1.56-7.03,4.05-9.67,1.53-1.71,5.07-3.51,6.05-.37,2.62,2.91-1.49,4.33-3.6,5.29-1.13,1.03-1.22,2.93-1.67,4.36-.31,2.84-.58,5.79-.14,8.63,1.02,2.46,.97,6.11-2.66,5.21Z"/>
    <path d="M600.62,212.68c0-1.29,1.06-2.35,2.35-2.35s2.35,1.06,2.35,2.35-1.06,2.35-2.35,2.35-2.35-1.06-2.35-2.35Z"/>
    <path d="M664.74,213.7c0-1.29,1.06-2.35,2.35-2.35s2.35,1.06,2.35,2.35-1.06,2.35-2.35,2.35-2.35-1.06-2.35-2.35Z"/>
    <path d="M653.89,606.05c-30.32-4.66-62.93-13.29-92.8-17.65-14.55-2.44-28.87-4.61-43.62-5.29-11.3-.52-22.6-6.33-31.02-14.2-23.52-4.08-48.47-13.88-58.43-37.43-9.75-20.95-3.7-47.88,13.74-62.71,2.5-8.75,7.22-16.82,13.51-23.51-5.85-51.64,37.89-68.57,81.83-66.16,8.64,.32,17.32,.69,25.99,1.19,12.85-4.61,27.33-3.27,40.4,.07,32.48,5.74,73.71,14.52,86.96,48.78,16.58,7.37,32.76,17.8,40.04,35.31,10,23.33,3.4,51.8-17.53,66.88-1.19,9,1.63,17.72,.49,26.8-3.09,29.15-30.71,51.46-59.57,47.91Z"/>
    <path d="M400.74,579.75c-27.74-6.9-47.64-37.21-39.39-65.51,2.99-8.8,7.13-22,10-28.3,4-8.22,5.43-15.58,8.97-23.76,4.37-9.47,9.55-17.59,13.98-26.85,1.27-7.47,6.3-13.18,8.82-20.11,4.47-11.86,12.18-21.79,17.7-33.06,17.99-29.82,54.07-45.29,88-43.87,10.46,.86,20.63,5.37,29.56,10.44,20.1,8.06,33.54,26.93,34.51,48.98,4.08,37.87-32.42,69.64-69.17,58.12-2.01,10.9-9.21,19.23-13.12,29.21-2.96,15.72-13.14,28.03-19.5,42.21,0,0,.03,.02,.03,.02-2.33,4.58-4.84,13.47-6.22,17.18-8.24,26.07-37.62,42.47-64.18,35.29Zm97.61-114.86c.35-1.07,.69-2.14,1.03-3.21,.42-2.28,.82-4.56,1.23-6.86-.03-.01-.06-.02-.09-.03-.45,3.42-1.19,6.78-2.17,10.1Z"/>
    <path d="M602.05,482.78c-14.48,2.02-28.18-1.53-41.84-6.18-43.95-16.57-44.93-81.7-1.64-99.71,12.11-5.33,25.35-5.74,37.84-2.01,7.25-.48,14.67-.75,21.81,.82,11.62-3.94,18.91-8.64,28.77-14.61,63.01-34.58,115.39,53.82,55.69,92.66-29.23,17.67-67.48,37.27-100.62,29.03Z"/>
    <path d="M692.16,588.06c-39.02-5.63-53.52-39.54-46.5-75.5,.46-24.43-.31-46.78-1.66-70.09-29.41-36.94,1.41-97.12,49.78-91.25,18.07,1.48,33.87,13.28,42.53,28.93,7.13,11.2,12.71,23.51,13.06,37.09,4.77,26.09,3.39,53.21,4.42,79.72,.42,14.41-.69,28.83-2.07,43.18-3.27,29.33-30.6,51.24-59.57,47.91Z"/>
    <path d="M629.08,613.07c-12.91-1.61-26.53-2.99-39.43-5.07-14.74-.63-26.84-2.63-40.52-5.51-15.53-.87-31.02-1.67-46.37-4.36,.75,.13,1.5,.27,2.25,.4l1.58,.29c-14.71-2.47-29.73-4.54-44.66-5.49-4.12-.02-8.26,.25-12.35,.59-21.06,26.61-64.27,27.54-84.97,0-14.08-17.11-13.46-39.7-6.78-59.67-.25-24.44,16.5-48.2,39.82-55.23,8.72-12.73,19.6-23.25,32.63-31.47,34.38-28.38,89.97-.78,87.35,43.68,21.03,4.02,42.74,2.07,63.56,7.62,0,0,5.71,1.06,5.71,1.06,18.88,.55,37.63,3.93,56.38,5.98,.41-30.36,3.66-60.04,34.7-73.98,22.08-10.1,49.22-2.88,64.2,15.95,9.73,11.84,12.3,27.35,14.07,42.14,3.15,15.36,4.57,30.64,3.43,46.36,1.85,18.75,3.73,37.96-9,53.82-26.95,32.84-83.63,30.62-121.58,22.9Z"/>
    <path d="M733.89,400.87c.61-5.03-1.19-9.59-3.3-14.06-4.34-.62-5.43-6.09-7.66-9.2-6.04-7.23-13.6-13.57-18.66-21.48-.19-.11-.38-.22-.57-.34-2.83,2.72-6.78,.53-10.1,.25-3.92,3.8-10.16,2.48-15.08,2-5.04-.55-10.13-.42-15.2-.86-4.43,5.34-9.24,10.38-15.64,13.27-1.28,1.44-3.28,2.18-5.17,1.74-8.28,2.89-16.94,4.47-25.59,5.8,1.01,5.07-4,6.54-8.05,5.55-8.7-.35-17.33-2.76-25.79-3.99-1.47,1.26-3.52,1.15-5.28,.69-4.18-.97-8.22-2.41-12.24-3.87-4.97-2.43-13.09-2.67-15.86-7.88-2.11-.2-3.94-1.95-5.45-3.38-2.35,.36-4.2-1.04-5.64-2.73-6.18,1.57-7.75-6.55-9.03-10.93-2.65,1.79-6.7,.55-7.68-2.56-.6,.91-1.2,1.81-1.8,2.72-1.09,1.62-3.26,2.2-5.08,1.68-4.19,1.63-7.62,4.61-9.8,8.57,1.97-.48,3.62-2.26,5.59-2.44,7.01-.42,6.99,8.44,.78,10.1,.37,4.99-6.58,6.83-8.91,2.5-1.33,.1-2.67-.03-3.94-.57-4.14-1.77-4.54-6.91-3.27-10.76-1.43,.31-2.86,.38-4.2-.18,0,0,0,0,0,0-1.52,1.02-3.22,2.09-5.04,2.4-3.7,.74-6.85-3.75-4.82-6.95,2.1-2.8,4.09-4.91,6.31-7.35-.28-.56-.43-1.19-.41-1.85,.02-1.01,.24-1.89,.68-2.7,.55-6.3,8.17-8.84,12.71-12.06,9.16-13.95,26.93-15.47,42.06-17.72,5.31-.91,11.56,2.45,7.33,8.14-1.36,1.42-3.35,1.59-5.2,1.69-3.25,.04-6.28,1.72-9.54,2.06,.14,.37,.24,.74,.31,1.13,3.4,1.54,2.68,5.66,1.94,8.57,1.29,.61,2.18,1.93,2.89,3.12,6.24,1.98,10.38,7.74,14.95,12.1,3.42,3.79,7.65,7.43,11.36,10.7,1.75-.86,3.76-.31,5.42,.54,3.5,1.35,7.05,2.6,10.57,3.92,19.13,5.51,39.87,2.91,58.41-3.48,3.31-3.86,6.48-7.91,9.38-12.07,1.61-3.13,2.31-7.52,5.58-9.33,.84-2.2,2.66-3.97,3.18-6.26-1.32-3.14,1.39-6.94,4.86-6.44,2.15,.31,4.23,1.35,6.24,2.17,6.09,2.71,12.48,4.48,18.84,6.28,2.81-.74,5.39,1.23,7.82,2.37,7.68,3,14.31,8.16,20.66,13.23,2.43,.15,4.54,1.93,6.42,3.34,5.45,4.56,11.23,9.9,12.71,17.15,.55,5.22,2.12,10.11,4.38,14.82,1.93,4.61,4.95,16.78-2.56,17.45-2.52,.06-4.81-2.02-4.81-4.58Z"/>
    <path d="M405.11,617.53c-4.72,.1-9.14-1.42-13.65-2.59-6.36-.93-12.82-1.53-18.88-3.8-7.55-1.86-19.88-3.17-18.98-13.48-2.04-2.68-1.81-6.46-2.06-9.68-.15-4.45-.14-9.58,3.04-13.07,2.77-3.15,8.4-2.17,9.45,2.05,4.88,.07,7,7.5,2.43,9.69-.82,2.45-.29,5.14-.51,7.68,6.24,2.1,22.53,1.41,21.44,10.58,5.62,.25,10.86,2.62,16.38,3.18,8.82,.81,17.87-.05,26.54-1.71,3.58-2.35,2.61-7.3,6.72-8.57,2.95-4.69,10.41-.86,8.28,4.29-1.23,2.42-2.24,5.47-4.77,6.82-1.7,2.04-3.37,4.78-5.72,5.95-1.56,.56-3.13,.78-4.59,1.12-8.38,1.27-16.95,2.44-25.41,1.52,0,0,.3,.01,.3,.01Z"/>
    <path d="M698,619.54c-44.47-3.1-88.64-9.47-132.73-15.59-16.18-2-31.85-7.14-48.2-7.93-12.09-1.97-24.03-4.56-36.33-4.78-1.32,1.48-3.47,1.78-5.23,1.13,.21,.06,.41,.12,.61,.2-5.11-1.91-10.4-1.7-15.8-1.39-5.32,.72-16.25,3.15-16.24-5.08-2.04-2.19-1.23-6.32,1.66-7.39,2.37-1.05,5.35-.85,7.74-.61,5.88-.55,12.75,1.4,18.26,2.09,11.85,2.74,24.16,1.61,35.92,4.8,17.2,2.41,34.33,4.6,51.29,8.5,26.37,3.47,52.59,7.77,79.01,10.76,16.97,2.76,34.19,3.44,51.3,4.92,4.77,.28,9.51,1.31,14.3,1.21,4.34-.31,8-2.56,12.17-3.6,1.14-4.1,7.03-3.79,10.01-5.32,4.18-2.09,8.87-3.06,12.88-5.37,2.29-1.64,4.77-3.62,7.75-2.99-.29-5.73,3.2-19.45,10.89-13.04,4.6-.54,6.38,4.83,4.48,8.21-1.44,4.08-2.22,8.32-1.91,12.66,2.63,8.21-3.13,10.85-10.17,12-5.58,1.29-10.91,2.55-16.63,2.22-5.16-.16-9.99,1.91-15.09,2.58-6.57,.52-13.26,2.8-19.91,1.81Z"/>
    <path d="M557.96,252.74c-1.85-.92-2.72-3.36-2.86-5.2-.77-4.21-1.59-8.37-2.18-12.61-1.17-1.2-1.5-2.91-1.64-4.51-2.96-7.6-3.23-16.14-4.78-24.14-.82-8.07-1.9-16.11-2.58-24.19,.85-6.03,2.22-12.05,3.62-18,1.42-5.98,3.48-11.72,5.79-17.39,.69-2.64,3.4-4.01,5.79-3.38,2.57-4.64,4.3-12.38,10.45-13.06,1.46-8.92,19.51-27.21,28.72-26.58,4.87-3.43,9.67-1.12,13.7,2.27,.87-.46,1.88-.64,2.9-.52,0,0,0,.02,0,.02,.6,.06,1.22,.24,1.82,.55,1.62,.82,2.5,2.7,2.37,4.47,3.17,2.77,3.21,8.12,.27,11.06-1.39,1.42-3.08,2.51-4.58,3.78-.38,3.92-3.03,8.97-7.65,8.18-.44,.24-.9,.46-1.35,.63-1.18,.45-2.32,.66-3.52,.58-4.85,6.45-8.52,13.69-13.77,19.82,.53,4.27-3.36,7.59-5.16,11.16-1.44,2.63-1.96,5.82-4.36,7.86-3.94,11.33-7.21,22.88-10.9,34.31-1.61,3.92-1.01,9.49-4.56,12.26-.91,8.59,.96,17.23,2.15,25.71,.85,4.4-3.13,9.41-7.68,6.93Z"/>
    <path d="M653.7,198.41c-.7-5.67,6.51-6.19,10.59-6.58,2.76-1.11,6.54-1.83,8.32,1.28,3.04,5.93-4.42,8.08-8.93,8.14-3.68,1.14-8.98,2.35-9.98-2.84Z"/>
    <path d="M698.54,243.9c-2.96-3.89,1.24-7.69,2.21-11.41-.38-.84-.65-1.75-.86-2.63-3.1-3.09-2.05-8.5-4.07-12.6-3.65-3.77-7.84-7.67-10.2-12.25-.02,0-.04-.02-.06-.03-7.76,.44-9.55-14.51-8.4-20.21-2.56-2.34-1.18-5.82-.31-8.61,2.05-5.31-.17-10.93,.16-16.42-3-4.1-3.65-9.28-5.99-13.49-2.5-3.17-5.13-6.65-8.8-8.47-5.78-1.91-11.17-5.2-16.15-8.68-1.45,.09-2.93-.48-3.92-1.61-2.41,2.34-6.84,3.22-9.08,.2-2.06,1.4-4.89,2.44-7.18,.94-1.5,.7-3.16,.86-4.77-.05-.19-.11-.38-.23-.55-.35-3.81,3.4-10.41,.93-10.89-4.08-3.18-2.37-1.5-6.09,.43-8.66-2.88-6.07,5.18-11,8.74-5.14,7.44-2.06,14.62-7.77,19.14-13.76,3.97-5.86,10.06-10.21,17.39-9.74,3.33-.4,6.61,.47,9.94,0,3.14-.5,6.35-.9,9.41,.18,5.25,1.61,9.07,5.71,14.14,7.7,8.76,2.76,14.62,7.14,16.37,16.6,3.41,6.26,5.02,12.92,5.25,19.98,1.06,3.46,2.62,6.82,2.85,10.48-.07,2.96,.69,5.9,1.67,8.64,1.44,3.97,4.92,6.52,6.77,10.25,3.24,5.63,2.64,13.19-.9,18.54,.06,.61,.08,1.23,.03,1.83-.05,.61-.21,1.19-.45,1.74,1.77,2.24,.81,5.96-1.79,7.08-1.19,2.22-3.84,4.04-4.27,6.48,1.11,4.5,.69,9.2,.13,13.74-.33,5.99,1.05,12.2-1.03,17.99-2.35,5.55-6.36,23.13-14.96,15.83Z"/>
    <path d="M698.41,234.43c-.69-3.6-1.46-7.18-1.71-10.85-2.31-4.9-6.08-9.03-9.33-13.35-4.67-1.08-7.62-8.78-2.24-11,3.49-1.12,8.92-.04,9,4.4,4.07,5.28,8.55,10.39,11.38,16.49,.76,3.66,1.2,7.39,1.78,11.09,2.63,6.63-7.29,9.95-8.94,2.91,0,0,.07,.31,.07,.31Z"/>
    <path d="M914.81,397.95c-.1,.55-.29,1.07-.57,1.54,.19-.51,.38-1.03,.57-1.54Z"/>
    <path d="M664.07,211.57c-.06-2.52,2.02-4.82,4.58-4.82s4.76,1.98,4.82,4.58c.06,2.52-2.02,4.82-4.58,4.82s-4.76-1.98-4.82-4.58Z"/>
    <path d="M599.73,210.4c-.06-2.52,2.02-4.82,4.58-4.82s4.76,1.98,4.82,4.58c.06,2.52-2.02,4.82-4.58,4.82s-4.76-1.98-4.82-4.58Z"/>
    <path d="M659.02,308.35c-.9-.56-1.51-1.2-1.88-1.88,.23-.07,.46-.17,.68-.29,.37-.21,.69-.48,.98-.78,.37-.22,.7-.47,1.04-.72,.51-.39,1.02-.81,1.49-1.24,.07-.06,.15-.13,.22-.2,.1-.05,.18-.09,.28-.13l.11-.04c.02,.07,.06,.15,.09,.21,.05,.15,.09,.28,.13,.43-.01,.06-.02,.12-.02,.18-.04,.35,0,.71,.01,1.06,.07,1,.07,2.06,.34,3.02,.07,.24,.17,.47,.31,.68-.49,.21-1.02,.33-1.56,.33-.7,0-1.44-.19-2.22-.64Z"/>
    <path d="M661.98,303.08s.01-.01,.01-.01c.02,.04,.04,.06,.06,.1-.02-.04-.05-.06-.07-.09Z"/>
    <path d="M655.69,310.71c-2.87-2.7,1.79-5.73,3.76-7.37,1.47-1.6,3-3.12,4.73-4.46,1.81-1.85,2.27-4.85,4.15-6.58,1.47-2.14,2.63-4.43,4.67-6.11,1.41-1.78,2.3-4.06,3.31-6,1.64-3.49,3.5-6.77,5.2-10.2-.01,.04-.03,.08-.05,.12,2.95-6.97,6.14-13.77,8.89-20.8,1.13-3.01,2.42-5.98,3.49-9,.39-1.21,1.54-2.03,2.85-1.71,4.14,1.53-.47,7.32-1.08,10.13-3.01,7.89-6.54,15.54-9.87,23.28-2.4,4.59-4.71,9.14-6.97,13.72-2.16,4.09-5.81,7.29-8.12,11.38,.02-.04,.04-.09,.06-.13-1.57,4.52-5.59,7.18-8.82,10.44-2.22,1.07-3.35,5.14-6.19,3.28Z"/>
    <path d="M691.98,245.92c-.66-2.92,1.24-6.44,1.54-9.25,.9-4.09,.73-8.26,1.27-12.29,0,.03,0,.06,0,.09,0,0,0,.01,0,.02-.28-7.59-1.97-15.38,2.23-22.15,1.46-2.67,5.61-.34,4.1,2.3-4.2,6.78-1.04,14.64-1.78,21.98,2.47,.25,2.48,3.06,2.13,4.95-.04,4.01-2.98,7.05-4.17,10.71-.68,1.69-.41,4.3-2.49,4.96-1.08,.38-2.39-.28-2.82-1.31Z"/>
    <path d="M644.46,244.94c-1.02-3.49-6.62-14.93-1.04-16.06,2.9,.03,2.37,3.17,2.4,5.17,.12,1.01,.61,2.17,.82,2.88,.83,2.21,1.41,4.51,2.33,6.68,.9,2.89-3.66,4.26-4.5,1.32Z"/>
    <path d="M613.21,266.23c-.82,.62-1.99,.8-2.91,.28-.19-.11-.37-.24-.52-.39-.54,.12-1.12,.06-1.64-.24-.26-.15-.48-.34-.67-.55-1.83,2.2-5.71,2.31-5.59-1.14,.68-2.21,2.27-4.11,3.53-6.04,.14-2.5,4.54-5.66,6.2-2.6,.58-.42,1.3-.62,2.04-.53,.62,.06,1.21,.4,1.65,.87,1.28-1.06,3.52-.25,3.76,1.44,.6-.41,1.38-.63,2.09-.42,.48,.14,.91,.38,1.23,.72,1-1.45,3.32-1.09,4.01,.47,.62-.57,1.46-.79,2.29-.59,.43,.11,.8,.33,1.1,.63,1.63-1.64,4.17-.36,4.52,1.74,.52-2.38,3.48-3.55,5-1.33,.72-.85,1.91-1.25,2.99-.79,.28,.12,.53,.27,.76,.44,.17-.31,.38-.6,.69-.84,.82-.68,1.89-.64,2.76-.17,.81-.51,1.92-.55,2.81-.01,.06,.04,.12,.08,.18,.12,1.48-.86,3.07,.11,4.26,1.02,2.01-1.12,3.67,1.09,4.73,2.55,1.76,2.09-1.24,5.04-3.3,3.28-.51,.11-1.06,.06-1.59-.18-.31-.14-.58-.33-.85-.54-.35,.31-.79,.53-1.24,.6-.71,.11-1.3-.1-1.83-.45-.69,.65-1.71,.89-2.6,.52-.55-.22-.97-.58-1.36-.99-.54,.54-1.21,.92-1.99,.9-.65-.01-1.23-.15-1.77-.51-1,1.57-3.32,1.92-4.63,.55-1.13,2.3-4.4,3.61-6.11,1.21,0,0,0,0,0-.01-.92,1.36-2.32,2.68-4.04,1.93-.58-.25-1.05-.7-1.33-1.25-.79,.52-1.68,.81-2.61,.58-.43-.11-.8-.31-1.12-.58-1.19,.84-2.86,.67-3.8-.45-1.1,1.72-3.73,2.85-5.1,.78Z"/>
    <path d="M631.41,287.57c-6.67-.41-12.49-3.79-18.36-6.6-2.97-1.8-4.78-4.95-6.97-7.56-1.21-.5-1.92-1.82-1.4-3.09,1.1-2.03,3.85-2.47,5.96-2.17,3.68,.27,7.35,.29,11.04,.32,7.72,.14,15.42,1.28,23.13,1.3,3.06-.5,6.47-.79,9.52-.74,1.64-.46,3.41,.85,3.14,2.6,3.48,2.72-4.39,9.36-6.75,10.9-3.28,2.02-6.38,4.89-10.37,5.09-3.14-.08-5.86,.13-8.94-.06Zm6.05-4.72c5.82-1.6,11.99-3.94,15.57-9.07-13.11,1.5-26.16-.89-39.32-.73,1.91,1.61,3.6,3.51,5.44,5.17,5.59,2.99,12.01,4.38,18.31,4.63Z"/>
    <path d="M607.31,275.35c-1.63-1.74-4.66-1.97-5.45-4.41-2.29-1.38-1.8-5.23,1.16-5.02,1.72,.45,3.18,1.68,4.88,2.24,1.06,.19,1.9,1.05,2,2.11,.76,.41,1.27,1.14,1.33,1.96,3.07,2.97-1.24,6-3.92,3.12Z"/>
    <path d="M646.37,275.36c-10.07-.76-20.34-3.11-30.1-5.13-4.26-1.33-10.31,.36-13.39-3.27-1.19-5.31,6.05-2.8,8.06-2.53,1.31-.15,3.01-.47,3.87,.8,11.7,1.94,23.2,5.56,35.1,5.39,3.85-.69,7.15-2.75,10.96-3.52,2.85-.9,5.06,2.27,2.77,4.42-1.69,1.41-4.81,4.19-6.73,1.77-3.32,1.5-6.87,2.4-10.54,2.07Z"/>
    <path d="M643.61,271.04c-3.09-1.55-6.82-.46-9.98-1.99-3.66-1.15-3.38-4.51-.45-6.43,1.76-1.8,4.83,.2,3.87,2.54,0,0,0,.01,0,.01,3,.48,6.17,.09,8.86,1.78,2.68,1.43,.32,5.59-2.3,4.09Z"/>
    <path d="M652.05,266.18c-.04-1.26,1.02-2.41,2.29-2.41s2.37,.99,2.41,2.29c.04,1.26-1.02,2.41-2.29,2.41s-2.37-.99-2.41-2.29Z"/>
    <path d="M620.84,255.96c-.04-1.26,1.02-2.41,2.29-2.41s2.37,.99,2.41,2.29c.04,1.26-1.02,2.41-2.29,2.41s-2.37-.99-2.41-2.29Z"/>
    <path d="M621.09,257.02c-.04-1.26,1.02-2.41,2.29-2.41s2.37,.99,2.41,2.29c.04,1.26-1.02,2.41-2.29,2.41s-2.37-.99-2.41-2.29Z"/>
    <path d="M623.62,258.7c-.04-1.26,1.02-2.41,2.29-2.41s2.37,.99,2.41,2.29c.04,1.26-1.02,2.41-2.29,2.41s-2.37-.99-2.41-2.29Z"/>
    <path d="M627.46,258.88c-.04-1.26,1.02-2.41,2.29-2.41s2.37,.99,2.41,2.29c.04,1.26-1.02,2.41-2.29,2.41s-2.37-.99-2.41-2.29Z"/>
    <path d="M628.71,258.37c-.04-1.26,1.02-2.41,2.29-2.41s2.37,.99,2.41,2.29c.04,1.26-1.02,2.41-2.29,2.41s-2.37-.99-2.41-2.29Z"/>
    <path d="M629.87,257.82c-.04-1.26,1.02-2.41,2.29-2.41s2.37,.99,2.41,2.29c.04,1.26-1.02,2.41-2.29,2.41s-2.37-.99-2.41-2.29Z"/>
    <path d="M632.05,258.9c-.04-1.26,1.02-2.41,2.29-2.41s2.37,.99,2.41,2.29c.04,1.26-1.02,2.41-2.29,2.41s-2.37-.99-2.41-2.29Z"/>
    <path d="M633.69,258.32c-.04-1.26,1.02-2.41,2.29-2.41s2.37,.99,2.41,2.29c.04,1.26-1.02,2.41-2.29,2.41s-2.37-.99-2.41-2.29Z"/>
    <path d="M637.26,259.88c-.04-1.26,1.02-2.41,2.29-2.41s2.37,.99,2.41,2.29c.04,1.26-1.02,2.41-2.29,2.41s-2.37-.99-2.41-2.29Z"/>
    <path d="M638.56,258.09c-.04-1.26,1.02-2.41,2.29-2.41s2.37,.99,2.41,2.29c.04,1.26-1.02,2.41-2.29,2.41s-2.37-.99-2.41-2.29Z"/>
    <path d="M640.2,258.12c-.04-1.26,1.02-2.41,2.29-2.41s2.37,.99,2.41,2.29c.04,1.26-1.02,2.41-2.29,2.41s-2.37-.99-2.41-2.29Z"/>
    <path class="cls-1" d="M585.92,574.14c-.98-.73-1.3-2.31-.47-3.29,2.4-2.83,4.65-5.76,7.03-8.62,6.82-7.62,13.48-15.13,19.72-23.22,12.27-14.53,21.92-30.86,31.02-47.5,3.53-6.19,7.15-12.41,9.42-19.19,1.38-4.35,.94-9,2.65-13.27,.78-2.93,5.32-1.87,4.57,1.13-1.68,4.3-1.25,8.92-2.66,13.29-3.05,9.45-8.61,17.82-13.34,26.49-9.39,17.76-21.06,34.09-33.98,49.45-4.36,5.23-8.79,10.4-13.41,15.39-2.44,2.93-4.77,5.96-7.25,8.88-.84,.98-2.24,1.26-3.29,.47Z"/>
    <path class="cls-1" d="M518.77,562.73c-2.47-3.6,5.71-6.21,7.6-8.68,12.73-10.28,23.49-22.65,33.7-35.34,6.3-7.41,11.22-15.76,16.5-23.78,11.32-16.39,23.9-32.54,30.23-51.66,1.08-2.8,5.51-1.1,4.37,1.75-6.75,20.44-20.52,37.43-32.37,55.06-13.1,21.01-29.24,40.36-48.07,56.46-2.77,2.34-5.67,4.52-8.65,6.57-1.04,.74-2.48,.67-3.31-.38Z"/>
    <path class="cls-1" d="M443.92,596.98c-3.21-1.04-1.05-4.56-.5-6.74,2.73-8.24,4.01-16.9,7.01-25.07,4.98-10.95,10.72-21.59,15.64-32.52,3.57-7.28,3.38-16.07,4.87-23.78,1.46-6.88,2.8-13.76,4.34-20.62,3.25-14.55,7.87-28.88,7.45-43.95-.06-12.55,6.07-24.46,2.32-36.74-2.07-8.24,1.4-17.27-2.07-25.1-.97-1.81-3.29-4.25-.81-5.87,3.05-1.55,4.34,2.8,5.47,4.82,3.14,6.93,.63,14.73,1.58,22,4,13.23-.62,26.34-1.74,39.4-.02,28.06-11.64,54.17-14.11,82.29-4.55,19-18.45,34.64-22.04,54.01-1.23,4.1-1.96,8.44-3.39,12.41-.86,2.1-.92,6.04-4.03,5.47Z"/>
    <path class="cls-1" d="M675.32,611.93c-1.3-.33-1.95-1.59-1.71-2.85,2.19-14.79,7.5-28.91,10.05-43.54,2.78-20.02,.15-40.3,.65-60.44,.49-13.17,1.8-26.09,1.3-39.24-.81-11.81-2.36-23.04-3.46-34.74-.49-2.95,4.21-3.78,4.65-.73,1.18,13.63,3.47,27.2,3.64,40.86-.34,16.28-1.57,32.41-1.33,48.67-.49,12.26,1.52,24.61,.21,36.87-.67,14.03-5.35,27.39-8.69,40.91-1.21,4.31-1.45,8.3-2.43,12.52-.23,1.26-1.66,2.01-2.85,1.71Z"/>
    <path class="cls-1" d="M688.23,129.09c-3.85-10.68-12.01-17.99-22.9-21.01-6.68-2.12-14.73,1.41-19.11,6.56-2.09,2.2-5.52-1.11-3.37-3.28,4.07-5.12,10.24-7.39,16.46-8.62,8.7-.3,17.58,4.36,24.08,9.9,2.31,2.39,12.6,15.64,7.93,17.65-1.15,.51-2.58-.04-3.1-1.21Z"/>
    <path class="cls-1" d="M699.73,199.25c-22.78-13.22-14.89-29.49-14.46-50.65-.05-4.57-3.89-7.35-6.85-10.25-3.07-3.04-6.14-6.44-10.1-8.24-1.93-1.17-6.03-1.68-5.02-4.77,1.7-3.34,5.4,.09,7.76,.88,6.56,3.82,12.01,9.69,16.87,15.41,4.54,8.63,.81,18.96,.06,28.07-.3,12.44,3.94,19.62,14.55,25.8,2.46,1.77-.39,5.61-2.81,3.76Z"/>
    <path class="cls-1" d="M707.61,179.46c-.85-4.66-1.42-9.41-4-13.43-.94-1.33-2-2.56-3.06-3.8-1.91-2.35,1.81-5.32,3.68-2.91,3.81,3.88,6.16,8.83,7.04,14.19,.23,2.48,2.63,6.99-.97,7.92-1.24,.2-2.51-.68-2.69-1.96Z"/>
    <path class="cls-1" d="M558.93,158.91c-5.97-2.77,12.31-24.9,15.88-27.59,4.61-4.58,10.67-6.75,16.57-9.12,1.18-.49,2.57,.02,3.1,1.21,.5,1.15-.04,2.61-1.21,3.1-12.07,3.45-20.94,12.58-27.17,23.02-1.61,2.57-2.95,5.26-4.1,8.07-.49,1.19-1.89,1.78-3.06,1.31Z"/>
    <path class="cls-1" d="M556.29,208.59c-4.35-.94-.62-9.36-.73-12.53,1.32-12.75,4.32-25.34,10.91-36.4,1.48-3.79,3.88-6.99,7.4-9.07,2.36-1.87,5.33,1.82,2.91,3.68-2.66,1.67-4.73,3.86-5.81,6.84-6.14,10.56-9.46,22.21-10.57,34.31-.55,3.68-1.27,7.37-1.52,11.09-.08,1.27-1.36,2.22-2.6,2.08Z"/>
    <path d="M621.69,200.47c-.8-.01-1.39-.42-1.89-.95-1.68-.4-1.94-2.24-1.83-3.74-5.79-1.05-11.42,.2-16.69,2.36-2.9,.9-4.25-3.68-1.32-4.5,5.5-2.56,23.73-6.27,24.65,2.72,1.42,2.04-.36,5.23-2.91,4.11Z"/>
  </g>
</svg>