<?xml version="1.0" encoding="UTF-8"?>
<svg id="Vektorebene" xmlns="http://www.w3.org/2000/svg" viewBox="0 0 1536 834">
  <defs>
    <style>
      .cls-1 {
        fill: #fff;
      }
    </style>
  </defs>
  <path d="M536.8,436.05c-2.06-.3-4.09-.75-6.13-1.18-1.33-.3-2.31-1.39-2.56-2.67-.83,1.26-2.52,1.93-3.98,1.33-14.55-4.44-20.17-20.07-26.67-32.36-2.03-10.88-6.4-21.07-10.6-31.17-3.99-11.98-7.3-24.22-11.69-36.08-5.45-32.46-21.83-71.35,3.71-99.39,6.79-9.06,7.01-20.66,10.26-31.1,6.34-27.99,11.78-56.66,28.11-80.86,8.9-16.54,16.8-32.58,37.65-34.8,4.94-.78,10.75-.45,14.63,3.03,3.18,2.7,5.11,6.5,8.91,8.3,15.68,4.06,41.13-5.39,47.6,15.56,1.47,4.72,2.07,11.04,8.26,11.49,3.13,.34,6.83,0,9.05,2.71,6.66,7.39,2.29,22.19,12.66,26.11,4.02,.46,8.8-.99,12.03,2.17,2.83,2.75,3.87,6.71,4.46,10.5,.69,3.25,.02,7.95,3.88,9.32,5.11,1.8,12.03,.91,14.55,6.83,3.74,6.78,1.79,16.1,8.26,21.43,4.41,3.16,10.27,4.84,12.48,10.29,3.15,7.17,1.02,15.42,2.02,22.74,1.13,3.56,4.67,5.93,4.95,9.88,.54,9.85-3.5,19.56-4.55,29.31-1.38,7.62-1.71,15.59-1.78,23.08,.77,16.56,.6,33.75-6.53,49.1-7.79,13.69-16.96,28.06-30.43,36.76-26.71,20.87-58.5,36.67-91.64,41.49-8.26,3.04-16.44,5.82-25.34,6.01-7.16,1.08-14.28,3.28-21.6,2.18Zm-10.33-8.8c1.11,.46,1.89,1.43,2.11,2.54,.74-1.14,2.15-1.76,3.53-1.46,4.23,1.04,8.51,1.65,12.76,1.13,10.39-2.48,21.4-1.93,31.13-6.02,12.39-4.47,25.76-5.15,38.05-9.85,24.62-9.35,45.73-22.84,66.09-39.32,7.15-8.14,13.82-17.03,19.14-26.38,5.91-12.86,7.52-27.52,6.44-41.38-.29-11.04,.23-21.97,2.25-32.8,.51-8.54,6.15-18.98,3.09-26.95-8.95-8.33,.24-22.86-7.57-31.14-7.31-3.7-14.26-8.89-15.64-17.54-1.34-4.07-.61-10.06-4.4-12.71-5.78-1.16-12.93-1.7-15.71-7.82-2.18-4.79-.92-10.69-3.91-15.19-.82-1-2.29-.5-3.42-.61-4.99,.36-10.48-.55-13.41-5.05-5.91-6.57-4.35-16.35-8.73-23.46-3.21-.34-6.56-.37-9.53-1.86-11.46-5.04-5.17-22.26-20.08-23.84-12.53-2.6-27.53,3.55-37.83-5.66-2.95-2.45-4.85-6.89-8.93-7.49-7.04-.85-14.48,1.87-20.64,5.07-5.99,5.1-10.34,11.68-13.72,18.62-9.51,15.87-18.27,31.73-23.28,49.6,.02-.08,.04-.16,.06-.24,.03-.07,.05-.15,.07-.22-6.22,22.51-8.39,46.67-17.89,68.09-10.23,11.74-15.42,24.92-15.13,40.49,1.07,19.5,7.47,38.05,10.47,57.29,5.89,15.08,9.22,31.02,15.77,45.8,4.09,7.03,4.16,15.54,7.38,22.78,5.87,9.46,9.63,22.23,21.47,25.6Z"/>
  <path d="M438.52,308.04c-10.04-4.15,.42-18.77,2.84-25.15,3.82-10.56-.42-21.75,1.93-32.5,2.56-5.84,5.08-11.59,6.41-17.87,1.49-4.83,3.84-9.24,3.25-14.34-1.92-9.74-11.6-20.91-3.44-30.26,2.38-2.99,6.74-3.22,9.16-6,.88-3.74-.06-7.66,.13-11.45-.05-6.03,3.15-11.26,6.55-15.92,2.9-3.77,7.5-6.97,9.08-11.51,5.82-13.91,4.94-33.55,21.61-39.72,3.63-2.21,6.81-4.04,9.05-7.41,5.49-13.22,4.96-25.96,22.75-27.61,2.13-.72,5.05-1.18,6.09-3.42,.38-1.96,.49-4,.89-5.95,3.15-16.6,21.67-26.57,37.58-24.89,5.1,.54,9.52-1.95,12.33-6.11,5.25-7.24,12.46-12.61,20.13-17.05,11.22-6.24,24.95-3.62,36.92-1.33,2.6,.31,6.67,.45,6.43,4.09-.73,4.82-6.3,2.5-9.53,2.14-18.75-5.06-34.56-1.11-46.99,14.14-3.25,4.02-6.49,8.45-11.67,9.93-5.55,1.8-11.41,.01-17.02,1.18-6.7,1.77-13,4.7-17.27,9.99-2.8,3.43-4.09,6.91-4.67,10.97,.58,10.42-10.28,12.92-18.41,14.28-8.25,3.94-7.39,14.93-11.22,22.01-3.73,7.46-12.27,10.21-18.56,14.71-2.89,2.79-4.86,7.22-5.99,10.84-2.71,9.33-3.73,19.54-9.6,27.62-4.65,5.11-10.18,10.11-11.7,17.12-.16,10.2,2.65,18.76-9.53,22.7-9.04,6.92,5.24,19.78,3.68,28.93-.55,8.14-4.43,15.62-6.22,23.53-3.77,6.7-5.12,13.94-4.04,21.48,2.06-.91,4.55-.92,6.16-2.66,2.36-2.33,2.77-5.83,4.48-8.61,1.99-3.82,7.99-.68,5.92,3.13-2.24,4.29-3.28,9.08-7.54,11.77-2.16,1.63-4.95,1.78-7.32,2.93-2.32,1.59-.89,5.16-1.74,7.55-1.23,5.46-3.46,10.68-5.22,15.98-1.64,4.07,.3,12.34-5.68,12.74Z"/>
  <path d="M357.4,725.96c-1.89-7.38-5.09-14.63-5.22-22.36,.57-8.74,8.08-15.11,9.39-23.65,.98-6.82-1.5-13.01-.02-19.7,2.23-8.41,3.46-17.47,8.1-24.98,2.54-4.5,6.67-7.93,9.36-12.06,2.9-4.89,3.31-10.33,4.67-15.67,2.45-11.5,10.61-20.49,16.65-30.07,1.76-5.28,.7-11.12,2.75-16.38,2.38-8.24,7.9-14.98,14.41-20.37,4.89-4.48,6.94-11.13,7.61-17.39-.68-7.56-4.42-14.82-2.99-22.55,.76-9.33,10.48-12.32,15.83-18.29,1.19-3.51-1.05-7.52-1.94-10.98-3.64-7.98-6.04-17.65-2.75-26.13,2.35-3.92,6.04-6.77,6.9-11.4-.16-4.42-4.82-7.62-5-12.3-.48-7.34-1.69-14.98-.1-22.24,1.07-6.01,3.98-11.84,5.82-17.45,2.22-5.66,.53-11.42-.9-17.03-2.21-9.44,1.81-18.96,6.37-26.93,2.01-5.17,4.26-10.92,8.15-14.77,2.48-3.33,5.14-6.63,6.64-10.47-.25-5.07-1.29-10.11-1.17-15.25-.2-4.22,6.42-4.82,6.69-.35-.41,7.99,3.72,16.73-2.19,23.55-2.46,4.15-5.51,7.38-8.17,11.05-2.31,4.39-3.5,9.16-6.06,13.42-6.2,8.77-3.72,18.93-1.55,28.49,.75,9.09-4.85,16.89-6.62,25.46-1.49,4.34-1.1,8.47-.82,12.85-.42,6.52,1.23,12.23,4.95,17.52,2.88,7.33-3.36,13.88-7.16,19.3-2.65,10,3.44,18.56,5.44,27.95,4.46,12.73-11.92,14.47-15.43,23.61-2.04,7.81,2.56,15.16,2.76,22.74-.31,6.65-2.58,13.41-6.41,18.86-5.08,5.99-12.01,10.44-14.87,18.14-3.41,6.86-1.2,14.97-4.88,21.67-6.5,9.63-14.3,18.58-16.12,30.38,6.66-13.23,14.57-31.75,32.69-28.27,3.36,.36,6.71,1.97,10.14,1.62,5.65-1.14,11.44-1.91,15.78-5.76,9.47-11.72,19.71-23.98,35.35-26.55,7.47-5.39,10.52-14.68,16.95-21.14,3.77-5.58,10.58-6.79,15.81-10.41,5.56-3.8,8.22-10.34,13.42-14.53,6.72-6.28,9.54-15.07,11.06-23.86,2.17-11.3,5.59-22.4,7.37-33.77,.61-2.91,.62-5.93,.35-8.93-.27-4.25,6.54-4.7,6.69-.33,.77,10.55-2.57,20.98-4.93,31.18-3.22,10.9-3.24,23.33-9.82,32.88-5.56,7.51-11.95,14.54-18.36,21.35-4.11,3.94-9.97,5.02-14.37,8.41-10.25,10.18-14.39,26.77-30.92,27.99-10.73,4.98-16.9,15.14-24.79,23.29-5.56,4.54-13.03,5.95-19.98,6.93-7.73-.21-15.74-4.64-22.66,.98-2.17,1.59-3.91,3.65-5.29,5.95-11.49,19.99-20.71,41.03-26.91,63.26-5.23,19.83-14.8,39.56-13.43,60.33,2,4.33-4.13,8.11-6.24,3.17Zm10.53-56.8c3.79-12.16,7.68-24.31,11.92-36.33-5.95,5.98-8.07,13.47-9.91,21.26-1.47,5.09-2.65,9.88-2.01,15.07Z"/>
  <path d="M547.77,530.59c-5.83-1.25-1.53-9.58-2.27-13.71-1.48-23.15-4.15-46.56-.7-69.63,.49-4.53,.41-8.3,.11-12.59-.12-1.83,1.38-3.41,3.17-3.52,1.85-.09,3.38,1.36,3.5,3.19,.91,8.83-1.01,17.49-1.26,26.3-1.92,16.65,1.13,33.04,1.16,49.72,1.25,5.7,.39,11.46-.12,17.2-.15,1.82-1.8,3.21-3.61,3.05Z"/>
  <path d="M468.58,686.95c-16.6-3.01-8.4-48.56-8.95-61.29,.19-17.54,3.41-34.93,2.09-52.35-.26-1.79,.84-3.55,2.68-3.88,8.48-1.26,2.7,26.11,3.32,31.84-1.02,16.58-1.96,32.69-2.61,49.2-.19,10-1.16,20.13,3.25,29.43,5.39,1.71,10.79-3.18,16.19-3.86,16.38-1.73,29.83-11.95,43.23-20.74,16.19-10.71,33.61-20.1,45.47-35.84,1.24-1.32,3.38-1.41,4.72-.17,1.32,1.24,1.43,3.4,.17,4.74-5.24,5.95-10.5,11.93-16.72,16.91-14.08,10.26-29.2,19.22-43.72,28.93-9.76,6.22-20.06,11.52-31.71,12.71-5.87,1.22-11.27,5.21-17.42,4.4Z"/>
  <path d="M592.41,753.42c-1.43-1.01-1.93-3.24-.78-4.67,3.72-4.59,6.98-12.39,14.18-11.36,3.04,.26,5.54,2.31,8.55,2.75,5.26,.01,8.31-5.45,10.88-9.25,8.24-8,2.33-24.71,14.42-28.96,1.35-.42,1.32-2.52,1.34-3.43-.99-10.77,6.44-20.28,12.12-28.82,3.35-4.04,7.96-7.2,10.15-12.13,2.89-7.22,2.48-15.09,5.3-22.32,1.03-2.74,3.05-5.62,6.13-6.15,1.27-.18,2.57-.15,3.79-.59,6.41-3.66,11.02-9.83,16.76-14.23,2.09-1.57,4.98-2.83,5.83-5.49,2.73-7.27,6.46-14.32,12.16-19.69,3.01-2.98,6.55-5.31,8.83-8.79,2.93-6.45,5.02-13.45,10.85-18.05,6.9-6.36,16.1-10.62,21.79-18.15,1.41-5.42-.14-11.07,1.29-16.53,2.53-7.35,6.1-13.44,7-21.16,3.6-10.15-.77-20.39,3.68-29.28,3.25-5.33,8.27-9.33,12.12-14.16,.07-7.71-4.97-14.35-5.38-22.02-.36-8.23,7.82-13.65,10.45-21.04,1.31-2.65,1.99-6.21-.17-8.55-8.73-9.54,1.77-19.85,7.31-27.88,7.75-10.93,2.31-12.16-.68-22.85-2.87-14.29-4.07-25.13,8.77-34.65,2.25-3.39,4.65-7.23,4.64-11.28-5.12-11.94-2.76-26.01,7.61-34.21,2.05-7.4-2.38-14.44-4.84-21.16-4.67-13.41,13.87-21.21,12.87-34.67,.1-2.39-.45-4.11-2.01-5.78-15.15-11.25-6.26-16.32-5.03-30.71,.71-6-3.06-10.96-3.63-16.77-1.46-8.76,3.9-18.43-.99-26.51-1.94-2.23-4.83-2.67-7.16-4.34-10.29-5.41-2.35-18.82-9.02-26.45-5.63-8.38-14.29-12.56-22.95-16.92-16.34-7.29-7.33-26.52-8.57-40.04-5.07-25.66-25.48,5.83-37.04-7.56-6.04-5.6-10.75-12.44-17.21-17.59-3.75-4.16-6.92-8.99-12.48-10.92-12.51-5.73-27.84-5.3-39.8,1.43-4.11,2.59-5.91,7.34-9.83,10.2-3.3,2.84-7.6-2.34-4.28-5.14,2.5-1.95,4.05-4.53,5.97-6.95,12.27-11.45,31.72-12.39,47.04-7.17,7.29,2.36,13.18,7.12,17.57,13.27,2.42,2.58,5.49,4.44,7.65,7.28,5.03,4.44,9.8,15.73,17.58,11.26,4.39-1.91,8.72-4.14,13.4-5.28,12.4-1.87,19.72,11.8,18.2,22.69,.09,7.76-2.95,15.74-.75,23.37,3.65,6.12,11.71,7.72,17.43,11.39,6.13,3.71,11.24,9.23,15.08,15.24,2.48,4.14,2.94,9.07,2.86,13.79,.14,2.53-.76,5.91,1.65,7.63,21.19,9.64,10.05,22,12.77,39.19,2.37,5.79,4,11.75,2.95,18.05-.29,5.11-3.19,9.78-3.55,14.81,.64,4.52,6.42,6.16,8.5,9.99,5,8.04,1.29,18.54-3.59,25.78-2.93,5.28-10.51,10.52-6.64,17.07,14.78,32.27-6.2,22.04-5.76,44.48,.38,3.57,1.8,6.88,2.65,10.35,.57,3.05-.9,6.81-2.06,9.35-2.18,7.91-11.44,11.02-13.11,19.02-1.14,31.59,18.97,24.35-6.54,55.84-1.02,1.94-1.94,4.28-1.49,6.49,1.34,2.68,3.69,4.78,4.31,7.83,2.01,10.49-7.57,18.26-11.39,26.94-.02,7.71,5.22,14.4,5.37,22.17,.31,9.51-12.34,13.16-14.13,22.06,.66,11.84-.9,23.62-4.44,34.99-3.15,6.88-5.86,12.85-4.93,20.48,.71,18.01-23.55,21.09-30.24,35.47-2.42,12.05-14.03,17.44-20.03,27.24-3.11,4.68-3.56,9.83-7.18,13.98-2.42,2.39-5.66,3.81-8.02,6.31-6.32,5.19-11.67,13.39-20.54,13.67-4.3,7.11-3.04,16.34-6.3,23.9-2.8,7.35-10.09,11.57-14.09,18.08-2.67,5.57-7.33,10.86-7.94,17.08,.3,4.89,.16,10.87-5.02,13.21-1.07,.69-2.73,.75-3.25,2.06-2.03,5.18-2.04,10.88-3.84,16.14-3.18,7-7.54,14.16-13.93,18.69-2.8,1.92-6.27,2.39-9.54,1.67-2.92-.3-5.4-3.01-8.35-2.26,0,0,.01-.02,.01-.02-4,2.28-5.58,11.98-11.32,9.21Z"/>
  <path d="M544,804.28c-3.96,.11-8.27-1.96-11.55-3.57-8.23-3.43-16.51-7.02-21.93-14.3-1.45-2.1-2.3-4.57-3.56-6.77-1.45-1.62-2.78-3.75-1.82-5.96,2.68-4.28,8.11-5.71,12.06-8.57,5.51-6.16,10.87-13.32,14.78-20.6,10.51-20.21-7.04-67.73,26.5-66.88,25.19-2.89,20.84-25.06,19.65-43.61,.12-2.98,.51-6.08,1.83-8.8,1.69-3.51,5.75-4.55,8.74-6.58-.02,.03-.04,.05-.06,.08-.01,0-.02,.02-.12,.15,.04-.05,.09-.1,.13-.15,.02-.01,.04-.03,0,0,.53-.55,.73-1.98,.68-2.51-.21-6.86-4.54-12.83-7.23-18.75-6.64-13.71,.45-27.53,7.1-39.7,1.14-2.54,4.57-6.12,2.16-8.74-5.75-5.92-11.1-12.3-15.73-19.12-1.65-3.07-1.34-6.88-.82-10.21,1.28-6.66,2.34-14.03,7.3-19.05,13.62-12.36,31.03-21.03,41.68-36.42,5.92-10.58,9.14-21.72,14.99-32.17,4.85-8.95,17.46-9.74,20.53-20.22,1.83-3.37,7.17-9.05,10.64-4.91,.92,1.46,.56,3.73-1.03,4.62-4.71,2.22-5.09,8.26-8.88,11.55-3.48,4.05-8.45,5.96-12.62,8.83-6.92,7.55-9.01,18.52-13.69,27.19-6.56,16.58-22.2,27.59-36.17,37.76-4.81,3.08-9.14,6.19-12.4,10.66-2.64,5.55-4.06,12.01-3.98,18.06,3.07,6.29,8.97,12.08,13.45,17.24,1.66,1.65,3.49,3.34,4.03,5.71,.91,4.22-1.06,8.28-3.23,11.76-3.98,7.79-8.15,14.9-9.56,23.4-.11,11.49,9.26,19.93,10.08,31.18,.35,3.15-.46,6.82-3,8.93-2.28,2.24-6.44,2.35-7.45,5.51-2.01,10.54,1.89,21.44-.16,32.09-3.3,19.1-19.02,22.06-35.25,24.31-5.33,2.83-5.15,9.83-6.41,14.91-1.88,18.14,1.47,38.13-9.7,53.8-3.59,4.37-6.39,8.61-9.65,13.11-3.14,3.86-8.06,5.4-11.95,8.28,2.59,5.5,5.75,10.47,11.32,13.39,6.58,3.27,12.76,6.8,19.76,8.41,12.37,.25,19.33-12.6,31.16-14.72,5.08-1.27,9.69,1.53,13.66,4.37,4.79,2.68,10.1,4.59,15.3,6.22,0,0,0,.05,0,.05,4.17-.8,6.67-5.28,9.42-8.13,2.16-2.84,5.01-5.28,6.26-8.68,.32-6.45,2.1-13.31,2.38-19.64-.93-11.24,3.44-21.65,7-32.08,1.85-6.29,1.47-13,3.99-19.12,1.43-4.03,7.82-1.75,6.27,2.33-1.64,4.08-1.93,8.35-2.49,12.63-1.45,8.83-5.84,17.39-7.7,26-.78,4.95-.11,9.71-.66,14.65-.68,5.13-1.89,10.08-1.99,15.26-2.35,8.79-10.06,15.82-16.72,21.69-5.96,4.2-12.63-.66-18.57-2.46-5.76-1.54-10.48-8.84-16.81-5.92-10.62,3.99-18.08,15.11-30.42,14.21,0,0,.44,0,.44,0Z"/>
  <path d="M544.13,682.6c-.57-1.81,.47-3.55,2.18-4.2,10.45-2.37,16.87-11.59,20.43-20.95,1.61-8.56,2.68-17.41,2.66-26.14-.08-8.96,2.3-13.97,3.81-21.96,.92-9.28-4.28-18.18-5.22-26.93-2.81-18.3,.83-36.82,10.59-52.53,3.61-9.21,14.82-11.66,18.99-20.6,5.09-8.87,9.02-18.8,12.12-28.45,3.47-11.65,5.88-24.75,16.07-32.53,11.25-13.18,26.49-22.06,37.43-35.39,7.35-10.77,13.47-21.79,20.56-32.57,1.4-4.79,9.03-14.87,13.66-9.74,.94,1.48,.56,3.71-1.03,4.62-5.65,2.35-6.14,8.64-9.4,13.03-8.03,9.89-12.44,22.24-20.97,31.61-7.48,7.31-14.34,14.94-22.92,20.66-5.84,4.1-9.82,10.32-15.16,14.91-6.04,5.3-7.74,13.94-10.11,21.08-3.55,12.98-8.3,25.96-15.33,37.48-5.24,9.84-16.19,11.53-19.68,22.42-8.37,13.2-10.2,29.22-8.29,44.48,1.47,10.66,7.23,20.67,5.03,31.7-6.85,18.41,.15,40.16-11.55,56.95-3.48,6.11-8.67,11.61-15.59,13.65-2.72,1.1-6.85,3.35-8.29-.59Z"/>
  <path d="M891.48,646.46c-4.08-2.12-6.45-6.93-8.27-10.73-3.71-6.02-6.8-12.37-9.75-18.78-8.8-9.81-21.11-18.62-23.83-32.35-1.43-4.95-1.69-9.51-3.7-13.94-2.88-4.21-6.53-8.3-10.79-10.97-7.84-4.76-17.26-5.99-23.82-12.54-4.15-4.83-3.64-11.67-5.6-17.4-2.36-5.27-5.17-9.9-8.79-13.93-7.34-5.24-16.04-8.21-23.62-13.04-2.43-1.67-7.29-1.62-6.5-5.67,2.14-5.76,9.19-.37,12.51,1.57,3.46,1.9,7.15,3.34,10.55,5.38,10.42,4,17.5,12.32,21.75,22.45,2.94,5.72,.93,14.4,7.04,18.13,18.66,8.18,34.63,14.16,37.14,37.04,2.43,12.82,13.27,21,21.98,29.73,3.1,3.98,4.65,9.73,7.12,13.86,3.38,4.76,5.05,11.35,9.49,15.12,5.3-2.11,4.89-14.72,2.87-19.12-2.95-9.5-9.72-15.4-17-21.45-10.21-16.62,4.43-36.65-2.23-54.29-2.03-4.75-5.53-9.33-10.27-11.59-3.86-1.59-8.08-2.32-11.69-4.52-17.88-11.95-7.42-35.87-13.12-52.88-2.25-4.8-6.05-8.97-10.89-11.04-4.23-1.16-8.81-1.38-12.85-3.34-6.08-2.89-8.49-9.8-11.22-15.47-3.96-8.03-8.79-15.7-11.58-24.24-1.86-5.77-3.46-10.86-3.19-16.82,.36-4.09,1.76-8.13,2.19-12.14,.48-4.24,6.98-3.89,6.67,.56-.17,1-.28,1.9-.44,2.82-3.87,11.63,.09,23.46,5.64,33.86,4.72,7.99,7.44,17.49,13.48,24.53,4.87,3.41,11.53,2.21,16.58,5.36,3.89,2.3,7.09,5.76,9.68,9.42,11.16,15.99-4.13,41.77,13.32,54.13,24.05,5.7,29.31,25.1,24.54,47.15-.76,7.97-3.81,17.12,.66,24.43,12.5,8.94,22.73,24.25,18.97,40.18-.7,6.08-6.33,13.43-13.04,10.52Z"/>
  <path d="M739.66,569.53c-2.64-3.58,2.32-6.13,4.41-8.43,4.12-4.06,9.88-5.19,14.39-8.36,8.79-3.9,17.43-9.84,27.4-9.4,9.15-1.1,18.49-2.4,26.82,2.7,2.54,2.62,8.96,2.28,8.25,6.91-.38,1.74-2.21,2.96-3.99,2.53-6.85-2.06-12.79-7.81-20.43-6.6-5.35,1.17-10.83,.78-16.19,1.58-10.25,3.24-19.56,9.13-29.2,13.59-3.79,1.57-7.01,9.6-11.46,5.48Z"/>
  <path d="M911.5,799.59c-5.65-1.24-1.88-8.64-1.69-12.49,.85-9.01,2.74-18.07,1.78-27.11-2.7-27.53-6.26-54.67-13.61-81.38-1.97-9.86-1.32-20.29-5.8-29.56-1.84-3.88,4.27-6.81,6.06-2.84,3.78,8.11,4.66,16.77,5.4,25.5,4.5,23.74,11.62,46.81,12.61,71.08,2.02,13.45,3.11,26.83,.82,40.34-.38,3.87-1.18,7.61-1.77,11.24,.05,2.44-.77,5.49-3.8,5.21Z"/>
  <path d="M351.47,784.56c1.26-19.61-1.78-39.58,3.31-58.92,1.3-3.38,.18-10.5,5.49-9.86,4.99,1.66,1.24,8,.98,11.63-3.84,15.95-3.07,32.19-2.51,48.37,.05,2.84-.61,5.62-.59,8.43,.21,1.81-1.43,3.43-3.17,3.52-1.87,.09-3.32-1.37-3.5-3.17Z"/>
  <path d="M481.73,592.23c-5.05-2.45-.33-9.34,.35-13.17,2.8-6.82,3.76-13.37,5.77-20.3-2.45,1.57-6.85,3.41-8.21-.37-.54-1.71,.42-3.69,2.16-4.22,5.08-1.28,7.62-6.81,12.42-8.32,8.72-10.46,17.53-21.1,24.92-32.49,2.01-3.82,8-.67,5.9,3.13-4.58,7.99-11.02,14.5-15.99,22.19-5.15,6.39-11.61,11.85-13.6,20.14-1.81,10.44-2.45,21.54-8.76,30.49-.83,1.88-2.68,3.79-4.96,2.91Z"/>
  <path d="M553.12,237.12c.66-.37,1.31-.77,1.97-1.13-.8,.47-1.58,.94-2.35,1.45,.12-.1,.26-.21,.38-.31Z"/>
  <path d="M637.56,257.82c-8.62-.55-17.52-9.03-10.95-17.35-5,.26-10.33,.57-14.6,3.43-2.81,2.75-11.79,8.16-14.13,2.82-.54-1.67,.4-3.73,2.16-4.2,5.52-.59,8.63-5.6,13.9-6.88,12.78-3.76,26.56-2,38.79,2.87,2.25,.75,4.63,1.57,6.24,3.43,2.29,2.41-.17,6.59-3.4,5.68-2.27-.71-4.35-2.02-6.51-3.03,3.14,7.31-4.27,14.14-11.5,13.21Zm.96-6.64c3.45,.23,6.49-3.21,2.92-5.68-.98-.77-3.1-2.01-3.87-.42,1.65,.62,2.44,2.64,1.85,4.25-.31,.83-.9,1.44-1.62,1.79,.24,.02,.48,.04,.72,.05Z"/>
  <path d="M526.67,238.61c-4.01-2.42-6.1-7.61-3.5-11.81-7.14-1.15-13.78,2.52-20.89,1.64-4.32-.28-3.75-7.02,.56-6.67,1.91,0,4.1,.23,5.9-.16,8.44-2.3,17.97-2.19,26.33-.52,3.64,2.05,6.03,6.28,7.38,10.12,1.26,8.21-10.02,11.77-15.8,7.4Zm5.93-4.81c-.39-1.23-.03-2.61,.93-3.49-2.17-2.98-3.69-2.77-4.86,.74,.56,1.56,2.3,2.55,3.91,2.75,0,0,0,0,.01,0Z"/>
  <path d="M536.92,233.14c-2.83-2.15-5.52-4.5-8.6-6.27-1.53-.98-1.79-3.24-.78-4.67,4.13-4.42,10.23,3.96,13.93,6.03,3.21,2.9-1.37,7.87-4.55,4.91Z"/>
  <path d="M583.6,227.08c-.63-1.57-1.54-3-2.65-4.29,.03-.08,.05-.17,.08-.25-3.95-7.79,22.03-14,27.55-14.12,9.68-2.4,19.47-4.02,29.45-2.18,4.79,1.52,9.96,3.69,13.72,7.05,5.19,6.95-3.13,12.07-9.74,10.05-17.42-1.74-41.45-11.08-55.44,2.7-.66,.71-1.57,1.07-2.48,1.07-.17,0-.34-.01-.52-.04Zm55.62-11.05c1.15,.23,2.3,.47,3.45,.66,1.06,.16,2.12,.24,3.2,.28-1.5-.85-3.17-1.32-4.63-2.19-.57,.57-1.27,.96-2.02,1.25Z"/>
  <path d="M539.78,212.26c-11.8-6.16-24.87-5.63-37.6-7.91-8.54-.31-7.36-10.38-1.06-13.29,5.03-2.4,11.24-.35,15.94,1.29,10.75,2.88,21.98,7.06,30.7,14.09,3.26,2.24,.24,7.45-3.31,5.77-1.34,1.09-3.22,.79-4.66,.05Zm-32.55-13.9c1.63-.43,3.25-.53,4.94-.5,.07,0,.14,0,.21,0-2.95-.82-6.66-2.36-9.15-.1,1.34,.19,2.66,.39,4,.59Z"/>
  <path d="M530.54,354.39c.28,.01,.56,.02,.84,.02,.91,.35,1.85,.64,2.79,.87,.47,.6,.97,1.18,1.5,1.74-1.8-.74-3.52-1.6-5.13-2.63Z"/>
  <path d="M558.52,343.19c-6.6-1.51-46.44,.18-43.24-9.21,1.97-4.45,6.47-.5,9.75-.3,19.43,2.88,38.75,2.47,58.21,2.25,6.35-.76,12.7,.5,18.88,.05,6.12-.21,11.56-1.03,17.57-1.5,4.18-.53,15.43-5.73,16.92,0,.33,1.74-.89,3.62-2.68,3.9-5.18,.57-10.11,2.05-15.2,3.01-20.03,2.27-40.1,.33-60.19,1.79Z"/>
  <path d="M536.44,374.29c-5.96-7-9.9-17.68-8.17-26.84,.35-4.32,7.08-3.75,6.65,.56-1.52,6.92,1.82,16.42,6.35,21.61,9.42-3.62,23.7-1.85,34.24-4.87,6.72-3.46,14.83-3.65,20.17-7.53,5.39-3.37,10.71-6.04,14.37-11.25,3.41-3.1,7.11-5.87,9.3-10.05,2.45-3.53,7.99,.34,5.45,3.88-2.29,4.26-5.88,7.39-9.56,10.43-4.92,6.78-12.45,10.25-19.23,14.8-11.62,3.15-23.13,9.02-35.44,8.16-5.04,1.62-10.44,.43-15.4,2.09-2.89,1.51-6.36,1.45-8.75-1Z"/>
  <path d="M528.93,348.21c-.7-3.25-1.58-9.58,3.57-8.86,3.59,.84,2.25,4.98,3.01,7.66,.8,4.25-5.85,5.46-6.58,1.2Z"/>
  <path d="M761.63,452.7c-.09-1.76,1.36-3.52,3.17-3.52s3.41,1.29,3.52,3.17c.09,1.76-1.36,3.52-3.17,3.52s-3.41-1.29-3.52-3.17Z"/>
  <path d="M555.05,309.13c-13.29,.17-18.46-8.51-16.84-20.88,.21-5.01,4.44-7.93,6.96-11.74,8.65-12,9.61-27.11,10.23-41.34,.77-3.66-2.68-9.84,2.26-11.22,6.97-.53,3.95,14.3,3.95,18.72-.61,9.37-1.61,18.71-5.29,27.48-2.14,4.85-4.98,9.57-8.31,13.69-3.04,2.1-3.59,6.14-3.26,9.39-.55,7.08,4.61,9.38,10.83,9.23,4.32,.3,3.78,7.04-.54,6.67Z"/>
  <path d="M643.1,351.01c-1.86-.16-3.15-1.79-3.06-3.61-.93-8.41-3.92-17.8-9.56-24.25-1.1-.93-2.54-1.68-3.9-.82-1.69,.66-3.67-.52-4.2-2.18-.83-7.16,10.16-5.36,13.15-1.46,4.24,3.25,17.55,32.22,7.58,32.31Z"/>
  <path d="M745.24,436.9c-.09-1.76,1.36-3.52,3.17-3.52s3.41,1.29,3.52,3.17c.09,1.76-1.36,3.52-3.17,3.52s-3.41-1.29-3.52-3.17Z"/>
  <path d="M738.45,440.62c-.09-1.76,1.36-3.52,3.17-3.52s3.41,1.29,3.52,3.17c.09,1.76-1.36,3.52-3.17,3.52s-3.41-1.29-3.52-3.17Z"/>
  <path d="M532.41,241.52c-7.01-.75-10.55-10.2-5.06-14.98-6.48-1.58-12.84-.03-19.34,.36-3.2,.64-8.19,4.16-9.99-.32-1.92-7.31,18.87-6.91,23.69-7.54,8.37,.99,22,2.02,25.11,11.37,1.36,7.45-7.76,13.05-14.42,11.11Zm-1.06-8.54c.18-.62,.53-1.18,1.01-1.61,0,0,0,0,0,0-.1-.01-.2-.02-.3-.03-.45,.41-.89,1.01-.7,1.64Z"/>
  <path d="M634.76,253.94c-4.88-3.68-1.41-10.9,3.56-12.54,4.21-1.3,11.96-2.1,14.49,2.24,4.45,4.04,.59,8.27-4.01,9.51-4.38,1.68-9.84,4.19-14.05,.79Z"/>
  <path d="M579.35,304.85c-2.52-.17-4.21-2.23-6.46-2.99-3.73-.91-9.2,4.27-11.29-.79-1.6-5.67,10.83-6.78,14.33-5.26,2.55,1.35,4.98,3.43,8.06,2.53,4.1-1.39,6.18,5.08,2.04,6.36-2.15,.73-4.5,.54-6.69,.16Z"/>
  <path d="M648.97,554.1c-13.44-18.47-.92-50.87,8.43-69.16,3.9-12.01,8.99-24.02,17.59-33.46,12.88-14.42,22.77-5.44,23.26,11.18,3.48-6.46,7.64-13.28,8.46-20.65-.07-1.83,1.27-3.45,3.12-3.55,10.23,1.12-4.45,24.88-7.08,29.71,4.91,.87,4.37,6.58,2.15,9.86-3.62,6.39-6.64,13.09-9.6,19.77-8.46,17.24-17.19,75.99-46.32,56.3Zm17.74-6.38c.82-.86,1.6-1.74,2.33-2.68,.49-.66,.97-1.33,1.43-2.02-.16-.27-.3-.57-.4-.87-.96,1.96-2.05,3.86-3.36,5.58Zm-9.99-.46c1-.21,1.76-.64,2.28-1.06,1.31-1.02,2.31-2.38,3.21-3.75-2.2,.65-4.68,.49-6.66-.7,.1,1.4-.6,5.91,1.58,5.39-.14,.03-.28,.09-.42,.12Zm2.74-11.13c6.13-1.44,9.67-7.3,11.14-13.05,3.43-10.54,7.64-20.8,11.18-31.3-7.37,8.72-30.37,33.23-22.31,44.35Zm-9.19-8.01c-.07,1.07-.11,2.12-.14,3.18,1.06-3.67,1-7.44,1.22-11.23-.53,2.65-.93,5.36-1.09,8.05Zm8.59-17.76c5.08-8.38,11.37-15.89,17.97-23.1,4.71-6.18,12.21-11.22,11.87-19.71-19.32,4.33-29.3,24.38-29.84,42.81Zm12.79-42.52c-.22,.38-.42,.77-.62,1.15,5.76-4.02,12.95-9.47,20.34-7.68-.92-3.24-.44-11.49-5.57-10.09,.14-.03,.28-.07,.42-.1-.16,.05-.32,.11-.48,.16-.41,.18-.81,.37-.82,.4-5.88,3.96-9.85,10.09-13.27,16.16Z"/>
  <path d="M652.05,629.66c-41.11-3.39-55.83-33.23-63.83-69.32-4.96-22.31,5.92-44.32,14.33-64.44,8.78-17.09,20.4-32.2,33.68-45.58,4.68-4.47,10.12-7.89,15.7-11.08,9.68-11.08,17.06-20.76,23.44-31.62,23.91-65.35,120.06-38.91,107.3,29.1-8.45,31.46-30.83,57.09-51.84,81.16,12.47,51.63-19.7,116-78.78,111.78Z"/>
  <path d="M726.47,432.81c-29.32-7.3-15.3-38.71-12.45-59.08,5.17-27.11,10.27-54.46,15.05-81.92,3.81-20.32-2-40.62-4.82-60.74-1.22-7.12,.76-14.19,5.02-19.45,.66-20.87-4.76-56.5,17.01-67.79,20.02-9.03,36.71,9.5,35.22,29.12,.67,17.81-1.14,35.01,2.7,52.3-.74,16.71-3.78,33.45-3.55,50.16-1.03,16.67,8.83,36.82-4.37,50.41-.1,27.15-13.92,51.41-16.81,78-.03,0-.06-.02-.09-.02-4.36,15.15-14.28,32.96-32.9,29.01Z"/>
  <path d="M451.37,192.98c2.33-20.79,9.71-41.04,22.17-57.98,8.36-13.97,16.87-28.51,28.59-39.95,9.08-14.3,17.78-32.45,35.6-37.36,13.33-19.69,22.92-29.73,48.48-30.54,23.37-35.17,80.52-20.58,71.21,24.29,8.31,8.68,6.92,21.01,8.57,31.96,5.6,11.53,.9,25.8-10.71,31.45-11.4,5.59-25.88,.7-31.33-10.84-16.61,1.07-29.65-15.47-26.94-31.41-2.66,.62-5.36,1.04-8.17,1.38-1.92,.23-3.84,.42-5.75,.63-4.04,6.69-7.64,13.29-14.08,18.23-5.16,5.43-13.51,6.27-17.93,12.04-3.56,4.24-5.31,9.49-8.16,14.2-3.66,6.41-10.37,10.33-14.36,16.5-12.05,19.2-26.2,37.07-30.87,59.73-3.66,26.94-45.3,24.78-46.31-2.32Z"/>
  <path d="M544.7,778.94c-17.8-13.69-7.54-28.48-1.37-44.7-.42-18.77,5.72-48.76,29.83-46.73,1.21-9.16,3.84-18.98,9.53-26.71,2.53-11.9,7.64-23.2,13.28-33.92,6.91-16.73,13.39-39.48,31.83-46.43,3.55-5.91,9.89-9.76,16.67-10.8,21.57-32.9,42.29-26.41,72.3-40.89,4.45-4.99,9.75-9.07,14.54-13.68,2.23-4.3,5.01-8.64,9.31-11.24,1.68-6.66,3.41-13.32,5.76-19.74,2.01-5.51,4.84-11.47,8.57-16.69-.04-1.57,.07-3.18,.38-4.85-8.91-13.45-13.17-29.12-16.16-44.82-13.79,11.65-34.95,4.89-42.23-10.88-10.85-22.66,1.82-50.96,8.75-72.43,5.7-24.72,6.65-50.37,9.11-75.59,.93-20.03-5.56-39.06-9.17-58.49-18.61-20.74-32.14-45.65-52.3-65.24-8.57-10.42-21.72-16.28-28.7-28.08-6.12-11.35-.07-26.66,11.46-31.78,1.72-2.54,3.81-4.69,6.16-6.4-6.95-23.33,23.25-41.09,39.95-23.05,4.28-1.77,9.07-2.35,13.69-1.43,5.51,1.11,9.54,3.93,13.04,7.52,26.72-18.97,40.78,15.58,49.53,35.45,3.5,1.31,6.75,3.48,9.42,6.52,2.78,3.16,5.15,6.65,7.26,10.32,9.78,1.9,16.79,10.98,19.72,19.67,4.83,10.41,11.83,24.86,13.85,35.48,6.17,23.96,5.05,50.43,1.71,75-.64,24.56-6.12,49.3-19.32,70.17-.04,20.93-2.29,41.75-3.01,62.63,.43,15.52,4.68,32.13-1.8,46.97,2.07,16.43,13.73,28.95,17.29,44.89,14.6,12.42,26.34,27.63,40.72,40.32,9.5,9.21,16.89,20.05,24.51,30.76,4.06,4.95,6.88,10.11,7.54,16.63,1.43,12.98-9.56,23.7-21.82,24.89-23.74,1.27-52.19-39.58-68.52-56.05-4.2,15.29-8.59,36.47-27.65,38.28-7.65,6.16-13.55,14-22.66,18.36-10.52,4.09-21.06,8.08-31.89,11.41-9.57,.47-17.02,5.45-21.64,13.87-8.92,18.57-21.98,34.99-26.62,55.25-8.22,19.69-14.62,40.35-28.23,57.22-1.69,5.7-4.73,11.13-8.99,15.09-9.54,18.34-17.96,41.3-39.16,48.64-10.26,7.15-22.71,13.93-34.46,5.25Z"/>
  <path d="M416.21,581.4c-13.68-12.23-6.87-30.37,5.13-40.84,7.87-24.11,25.63-43.53,34.11-67.22-1.68-11.9-1.67-24.01-3.53-35.88-4.4-15.16-11.28-29.99-11.49-46-4.41-26.48,16.33-53.84,42.41-34.35,16.02,16.27,17,40.51,19.09,61.98,5.38,1.52,10.11,4.97,13.2,9.65,.92,1.4,1.66,2.86,2.23,4.35,62.55-7.06,6.38,121.73-35.1,101.79-13.34,19.49-37.51,69.72-66.05,46.51Z"/>
  <path d="M440.92,314.16c-2.46-1.13-3.13-4.32-3.74-6.71-1.43-4.9-1.42-9.95-.56-14.98-.66-12.33,1.57-24.71,1.87-37.06,1.16-6.11,4.46-11.5,7.21-17,.92-2.56,2.09-6.01-.13-8.17-5.47-5.88-10.01-15.76-2.63-22.03,2.63-2.73,7.29-4.8,7.55-9.04-1.59-2.93-5.3-4.55-6.18-8.1-2.31-7.32,1.35-15.63,6.31-21.04,4.39-6.11,13.31-7.03,16.88-13.64-.3-3.56-2.55-6.73-2.6-10.39-.48-6.23,2.59-11.98,5.31-17.36,1.85-3.57,4.32-6.91,8.1-8.53,3.42-1.77,8.07-1.06,10.67-4.26,3.6-10.12,1.68-22.21,9.29-30.78,5.3-4.65,10.3-10.21,16.95-12.9,3.97-1.52,7.8-.67,11.32-1.84,4.24-3.23,4.03-8.99,5.8-13.54,1.35-3.53,3.89-6.35,6.74-8.74,4.07-5.14,8.77-9.85,15.41-11.34,5.63-1.56,9.92-4.4,15.8-3.57,4.77-.2,8.83-3.4,13.67-3.78,3.16-2.62,4.8-7.26,8.21-9.98,7.2-8.7,18.57-11.62,29.37-11.38,5.27-1.51,10.77-1.35,15.71,1.33,7.73,3.29,2.98,13.76-3.73,8.29-3.93-3.11-8.67-.93-13.11-.58-4.27-.12-9.25,.32-13.05,2.11-7.58,2.8-11.66,10.13-16.27,16.14-2.51,2.65-6.23,2.9-9.55,3.75-2.58,.84-4.89,2.27-7.61,2.71-3.19,.71-6.81-.46-9.8,1.01-4.6,2.26-10.34,2.44-14.07,6.25-2.6,3.61-6.08,6.16-8.68,9.6-2.21,4.08-1.87,9.05-4.53,13-3.06,6.67-9.85,8.51-16.57,8.53-6.4,1.23-10.76,7.26-15.63,11.22-3.36,4.81-3.9,10.64-4.81,16.16,.02-.1,.02-.13,.03-.23-.31,11.21-4.94,19.22-16.75,20.52-1.99,.42-3.46,2.15-4.36,3.81-2.32,4.74-5.89,9.88-4.68,15.38,1.74,4.83,3.95,10.38,.52,15.05-3.12,5.64-9.61,7.87-14.44,11.21-4.26,3.39-8,8.86-7.57,14.4,2.27,3.86,7.33,6.4,6.85,11.69,1.45-.9,3.16-1.27,4.85-.67,2.05,.7,3.2,2.61,3.53,4.63,.21,.04,.42,.1,.63,.17,1.36,.47,2.28,1.39,2.84,2.54,.91-.19,1.92-.16,2.77,.14,.19,.07,.39,.15,.59,.24,.35-3.94,5.67-5.71,8.05-2.48,4.66-.17,5.33,5.11,4.64,8.68,1.98,5.19-1.73,11.2-2.98,16.34-3.27,10.06-9.89,17.95-16.91,25.17-2.96,5.54-5.14,11.51-8.45,16.84-2.65,4.08-6.91,7.16-8.69,11.77-1.86,3.17-1.62,7.77-4.66,10.07,0,5.97,6.93,24.07-4.71,21.36Z"/>
  <path d="M846.92,372.19s0,.02,0,.03c.03,.47-.02,.94-.14,1.4,.04-.48,.09-.96,.14-1.44Z"/>
  <path d="M472.44,372.54c-2.3-1.38-4.02-3.71-5.49-5.9-.54-.81-1.03-1.65-1.48-2.51-.68,4.85-5.19,9.51-10.18,6.62-11.78,6.88-13.68-15.94-14.91-23.19-1.49-8.83,5.34-26.25,16.46-20.23,.28-1.32,.93-2.65,1.95-3.54-1.29-5.52-.33-11.08-.72-16.65-1.13-5.26,.68-10.47,1.42-15.67,1.39-4.06,2.08-12.2,7.56-12.16,2.25,.16,3.95,1.95,4.16,4.16-.04,7.22-1.46,14.43-2.3,21.56,2.84,7.71,4.6,15.73,5.72,23.85,6.82,9.22,7.11,21.89,10.81,32.53,1.64,3.41,1.88,8.97-3.04,9.38-.41,.86-1.08,1.57-2.01,2.03-.95,.46-2.04,.56-3.04,.31-1.62,.6-3.4,.32-4.9-.57Z"/>
  <path d="M442.66,527.5c-11.31-2.12-22.57-12.19-20.29-24.63,.49-7.7,5.77-17.47,14.67-16.2,.98-.36,2.03-.54,3.13-.5,.69,.03,1.35,.1,2,.25-3.55-6.37-8.51-14.68-4.77-21.94-3.22-8.65-8.53-23.29,1.73-28.91-.59-3.41-.43-7.26-.82-10.54-3.44-5.41-6.86-11.37-7.32-17.98-.53-4.16,.65-8.16,2.6-11.78,1.45-4.99,4.37-9,8.56-12.01,0,0,0,0,0-.01-.76-8.26-7.65-14.6-7.38-23.18,.81-9.47,3.06-19.06,7.52-27.48,3.28-5.83,9.03-7.12,14.04-10.59,3.12-14.25-3.55-28.25-3.35-42.55,.04-4.75-2.43-12.63,3.58-14.58,.44-3.05,.15-6.58,2.14-9.11-.23-4.02,3.99-7.94,7.78-5.38,2.84,1.89,2.18,5.66,1.66,8.56,2.63,8.21,1,16.94,.27,25.33-.19,1.32-.94,2.57-2.09,3.28-.14,.34-.31,.67-.52,.99-.14,.22-.31,.42-.49,.61,2.41,7.2,2.28,14.82,1.99,22.29-.03,1.05-.5,2.02-1.21,2.75,.04,1.66,0,3.34-.18,5-.1,.93-.25,1.84-.43,2.75,1.18,8.68-8.83,20.26-17.73,20.12-1.93,6.79-5,14.17-3.53,21.27,2.2,7.88,9.36,15.32,5.94,23.86-1.75,3.82-6.7,5.03-7.56,9.47,.14,.1,.27,.2,.4,.32,.96,.85,1.53,2.07,1.97,3.29,9.74,12.05,10.04,31.7,14.97,46.35,1.28,5.57,2.71,10.93,4.44,16.34,.31,1.54,.22,3.41-.89,4.61-.15,5.42,4.67,17.13-2.91,18.75-.25,1.61-.84,3.1-2.28,4.16-.34,.25-.7,.44-1.08,.59-.02,.02-.03,.05-.05,.07-.03,.05-.07,.09-.1,.14,.94,6.28,1.9,13.38-1.69,19.03,.06,3.19-.03,6.84-2.36,9.27,.41,5.73-5.16,9.15-10.37,7.93Z"/>
  <path d="M398.55,597.09c-4.07-2.14-2.04-6.89,.15-9.65-.75-1.57-.51-3.29,.06-4.89,3.76-10.28,8.52-19.59,11.88-29.76,.77-2.3,3.41-3.52,5.68-2.72,5.12,1.99,2.07,7.62,.75,11.23,9.29,3.17-1.49,12.55-3.26,17.83-2.98,5.81-6.27,11.58-9.91,16.98-1.23,1.54-3.64,1.87-5.35,.99Z"/>
  <path d="M362.68,681.4c-10.06-1.23,.52-29,2.42-35.32,2.77-4.3,2.27-12.97,8.67-12.64,.38-.48,.8-.93,1.24-1.36,.82-.78,1.68-1.38,2.61-1.93-.05-7.49-2-15.32,1.74-22.36,2.2-6.81,11.48-31.38,21.03-24.8,5.62-2.36,7.11-9.37,10.72-13.99,2.12-3.85,4.65-12.12,10.33-7.95,8.16,.35,4.75,9.53,1.1,13.35,3.74,7.02-8.56,14.34-13.18,17.98-.86,1.51-1.91,3.03-3.66,3.52-1.44,.41-2.86,.18-3.97-.59-.37,.52-.74,1.05-1.1,1.58-.37,.56-.75,1.11-1.13,1.66-.53,5.53-4.52,10.01-6.51,15.05-2.39,4.7-2.71,10.86-6.38,14.73,.36,4.33-1.36,8.25-5.39,10.11-4.9,6.13-7.18,14.03-10.99,20.69-1.01,3.91-1.9,8.04-2.64,11.97-.29,4.22,.92,10.32-4.91,10.29Z"/>
  <path d="M474.65,592.87c-5.18-4.67-2.99-11.46-2.02-17.36,1.05-4.88,.14-10.02,.21-15.04-.68,.42-1.41,.71-2.22,.78-1.79,2.36-3.13,5.67-6.08,6.75-3.75,1.22-7.06-2.66-5.59-6.27,4.13-7.34,8.56-14.73,14.45-20.8-.07-3.45,4.32-8.15,7.97-7.19,.49-.24,1.01-.43,1.56-.53,1.18-1.06,2.46-2,3.84-2.83,6.31-17.99,14.11-35.9,26.24-50.76,9.56-11.57,16.33-24.42,25.42-36.22-15.97,.9-36.22-2.14-40.95-20.22-1.76-4.6-1.78-13.97,5.59-11.36,3.53,2.3,6.16,5.84,9.51,8.42,7.88,5.01,15.29,9.87,23.48,14.11,2.42-.14,4.81,.03,7.21-.25,4.09-.25,5.92,4.79,5.31,8.22-4.73,11.44-14.09,20.44-19.84,31.44-10.97,13.54-20.63,27.11-27.37,43.07-.37,.91-.86,2.13-.25,1.93,1.96-3.79,7.17-5.14,9.26-.77,6.61-7.58,13.55-14.75,19.2-22.76,1.77-3.1,2.92-8.48,7.68-6.86,11.66,3.89-16.46,34.1-21.79,37.72-8.92,4.82-13.33,14.69-19.11,22.64-6.04,10.8-3.67,24.19-11.08,34.62-.2,6.33-3,15.71-10.62,9.52Z"/>
  <path d="M536.54,496.4c-3.83-.2-5.11-4.27-4.91-7.55-6.12-4.94-1.43-12.98-.17-19.06-6.62-4.18-9.2-12.01-14.39-17.59-5.61-4.41-9.97-10.27-11.95-17.19-1.38-3.66,.38-7.73-1.63-11.19-2.53-5.16-14.17-11.62-6.27-17.27,6.5-2.64,9.91,6.72,13.04,10.89,7.24,9.29,17.46,15.48,26.44,22.88,13.38,9.58,4.98-5.52,14.63-4.82,7.85,2.33,.89,15.22-4.65,16.67-6.88,1.78-13.63-3.25-18.64-7.44-4.53-2.63-9.12-7.72-13.44-9.79,1.53,4.23,4.62,7.48,8.05,10.26,4.98,4.55,7.42,11.21,12.14,15.93,7.98,4.22,5.42,12.25,2.94,19.08,8.53-.43,6.25,16.64-1.19,16.2Z"/>
  <path d="M710.54,212.69c-10.41-1-19.82-10.17-19.78-20.82-.89-2.08-.24-4.57,1.22-6.22-1.06,.08-2.05-.18-2.97-.62-6.69,1.14-15.64-3.62-16.79-10.65-.51-.54-.93-1.17-1.22-1.91-.36-.95-.48-1.9-.38-2.84-1.39-1.64-1.82-3.56-1.17-5.66,.1-.34,.23-.66,.39-.97-1.05-.7-2.06-1.46-3-2.29-7.69,.21-29.18-14.41-27.29-23.05-.14-.22-.28-.44-.42-.65-.96-1.52-1.75-3.28-1.98-5.09-5.41-2.12-8.85-6.97-13.05-10.74-1.29-1.34-2.38-3.17-2.17-5.1-.85-.72-1.63-1.52-2.11-2.48-.16-.3-.29-.61-.39-.92-3.89-3.08-7.69-6.39-10.64-10.4-1.39-.3-2.72-.78-4.07-1.25-2.5,5.81-9.94,4.41-14.08,1.28-4.96,2.13-10.43,.14-15.06-1.95-6.82-2.98-12.53-8.48-14.98-15.52-1.12-1.14-2.09-2.48-2.44-4.06-.1-.48-.14-.95-.1-1.42-2.31-3.1-.63-7.76,2.92-9.05,.12-1.86,1.2-3.49,2.79-4.58,1.13-.77,2.46-1.12,3.82-1.25,.7-6.04,7.65-4.25,11.15-1.75,1.24-1.35,3.31-1.59,5.02-1.08,7.44-7.58,12.75,6.67,15.88,11.86,2.36,1.79,4.67,3.66,7.2,5.23,2.75,1.21,5.81,3.68,4.39,7.06,11.13,9.74,28.4,14.44,32.24,30.41,3.52,1.82,6.57,4.49,9.12,7.55,7.92,1.66,13.68,8.63,17.38,15.46,8.16,5.22,12.49,14.32,15.35,23.23,3.1,2.38,5.8,5.42,6.9,9.26,2.35,2.06,5.88,2.61,8.08,5.05,3.22,3.04,5.02,7.22,7.11,11.07,2,1.96,4.31,4.3,3.71,7.22,4.82,5.47,11.69,16.95-.6,17.63Z"/>
  <path d="M806.17,241.45c-1.11-1.55-1.18-3.74-.38-5.45,.66-1.41,1.7-2.36,2.84-3.25-2.44-3.42-2.37-9.86,3.07-9.71,.44-.36,.95-.63,1.49-.8-1.96-2.14-5.57-2-7.85-3.99-7.52-5.76-8.55-16.4-7.89-25.2-4.43-20.61-8.26-30.08,4.81-48.58-8.97-3.26-8.63-14.18-12.02-21.49-4.15-8.23-10.36-15.28-18.05-20.01-5.16-2.6-12.07-2.81-14.98-8.62-8.09,1.46-5.05-8.2-5.38-12.89-6.08-.53-8.26-8.01-9.74-12.98-3.91,1.92-7.76-1.01-10.61-3.51-2.87-1.84-4.49-4.73-5.62-7.87-.47,.12-.95,.16-1.43,.14,1.94,3.15-.55,7.94-4.46,7.2-2.31-.45-4.03-2.13-5.57-3.82-5.12,2.76-8.59-3.64-10.56-7.44-.82,.07-1.61-.01-2.37-.21-.87,.92-2.01,1.43-3.24,1.72-1.34,.3-2.7,.05-3.97-.46-.86,.41-1.72,.62-2.59,.68-2.02,2.62-5.83,3.19-8.74,1.82-7.42,6.02-15.81-2.8-21.28-7.6-6.27-5.93-19.71-18.08-9.13-25.84-1.63-1.06-3.55-1.59-5.15-2.71-4.86,5.48-12.52-1.72-6.56-6.21,.58-6.97,7.94-5.93,11.27-1.4,2.82,1.71,5.45,2.46,7.67,4.74,1.3-.79,2.89-1.11,4.45-1.15,.37,0,.74,0,1.1,.04-1.52-6.44,7.05-10.87,12.46-8.64,11.5,6.08,23.96,12.7,30.4,24.51,6.91-.92,12,4.97,16.79,9.04,6.38,3.87,7.58,12.16,12.44,16.85-2.8-9.09,6.95-16.2,14.97-11.84,2.76-2.95,7.82-1.55,9.85,1.68,5.17,8.64,1.86,19.89,1.29,29.23-.16,4.43-.76,10.17,2.45,13.65,3.24,1.75,7.12,1.99,10.28,3.96,10.64,6.38,19.26,16.39,23.58,27.97,1.45,3.96,1.92,8.67,4.17,12.21,1.43,1.25,3.43,1.62,4.99,2.68,8.08,4.7,4.32,14.54,4.67,22.07,.38,14.19,1.55,28.21-1.28,42.25-.51,3.2,1.54,6.7-.16,9.64,12.25,2.19,13.84,18.42,4.89,25.54-1.87,1.78-2.6,4.96-5.38,5.8-1.97,.78-4.3-.03-5.54-1.74Z"/>
  <path d="M826.81,484.19c-3.47-3.58-6.51-7.67-9.65-11.59-7.07,6.96-14.31-5.99-18.46-10.73-3.57-1.35-3.88-6.02-6.03-8.77-2.48-5.2-9.08-14.54-2.32-18.82-3.27-18.76-11.49-37.07-6.52-56.2-3.23-3.25-.81-8.62-.87-12.7-11.96,.75-1.69-13.39-.76-18.94-3.91-3.36-1.5-11.5,3.13-13.15-3.19-6.51,1.14-14.06,2.92-20.52-1.7-2.78-1.13-6.23-.15-9.17,1.81-6.5,4.32-13.17,8.94-18.2-.18-.42-.3-.85-.35-1.29-.04-.37-.05-.75-.03-1.13-2.22,1.83-6.03,1.58-7.42-1.14-1.74-5.89,3.25-13.53,4.25-19.65,1.59-10.11,8.44-18.32,10.05-28.21-.22-.55-.35-1.14-.38-1.74-.04-.59-.01-1.16,.05-1.74-2.13-2.03-1.3-5.14,.33-7.21,1.27-2.52,1.86-5.45,3.6-7.69,2.72-3.45,8.55-.78,7.99,3.39,2.67,2.84,1.22,6.47-.22,9.54,1.84,2.97-.39,6.19-1.69,8.91-3.01,6.35-6.37,12.64-8.84,19.23,6.19-2.24,7.93,5.02,6.02,9.56,12.73,3.48,4.49,23.36-5.04,26.25-.22,1.14-.55,2.28-.88,3.38,1.9,4.23,.48,9.01-.66,13.27,9.49,2.89,.82,15.68-3.68,19.74-1.61,4.93-4.81,9.16-7.86,13.3-.14,1.32-.4,2.63-.74,3.92-.33,1.29-.67,2.58-1.03,3.86,1.99,1.77,2.8,4.49,3.06,7.11,2.19,3.04,1.46,7.24,1.48,10.76,4.37,4.52,1.74,11.55,1.82,17.15,7.1-.19,5.97,7.23,4.17,11.78-.76,4.74-1.5,9.35-1.51,13.94,8.51,19.41,16.04,39.3,26.49,57.7,2.11,4.32,6.65,7.29,8.08,11.83,.57,3.82-4.32,6.46-7.26,3.94Z"/>
  <path d="M899.4,670.47s-.02-.02-.03-.02c-5.55-.93-3.16-8.16-3.81-11.74-.05-4.98-2.23-10.78,.46-15.34,0-.08-.01-.16-.02-.24-4.16-.08-6.87-3.98-9.3-6.87-4.91-6.06-9.2-12.58-12.91-19.42-6.63-.07-6.67-10.52-8.44-15.31-8.36-2.36-12.27-12.28-14.97-19.79-3.73-6.65-8.37-13.89-8.14-21.74-6.52-4.29-13.59-8.22-20.95-10.72-8.31-2.12-16.57-2.82-25.06-3.59-.89,.42-1.78,.63-2.78,.48-5.14-.92-10.48,1.28-15.55,2.16-5.22,.79-10.83-6.32-7.46-10.87-2.16-1.44-2.82-4.84-1.06-6.83-2.25-2.44-1.24-6.95,2.05-7.89,.47-5.95,6.88-4.82,10.1-1.72,0,0,0,0,0,0,.67-.02,1.33-.03,1.99-.03-2.44-2.52-5.44-4.68-7.4-7.6-2.4-4.49,3.65-8.88,7.18-5.19,4.59,4.42,8.97,9,14.34,12.44,.32-.02,.64-.03,.97-.05-4.38-8.25-11.29-14.52-16.47-22.01-2.36-4.15,3.08-8.63,6.74-5.59,9.23,6.43,16.65,18.11,28.21,19.92-.19,.04-.37,.07-.56,.1,7.16-3.22-.08-28.46,.69-35.71-12.87-6.81-11.68-24.46-18.19-35.99-4.11-11.35-12.83-27.91,.31-36.43-.95-3.17-3.11-7.48,1.04-9.39-2.61-5.41-9.23-6.49-12.04-11.64-1.69-3.22-3.85-8.54,.71-10.4,5.21-1.7,5.71,3.59,7.62,6.8,10.43,6.12,18.71,17.99,17.14,30.5,.35,5.68-4.1,9.59-5.42,14.73,1.61,2.74,2.11,5.91,2.04,9.06,.64,1.11,1.4,2.14,2.11,3.2,11.43,2.1,14.63,13.91,17.32,23.47,6.06,.81,10.02,5.52,12.93,10.42,4.37,5.75,6.5,12.51,6.63,19.72,3.43,10.8-5.29,17.08-12.7,6.86-5.47,.13-7.11-6.61-9.59-10.37,2.4,14.66,3.99,42.15-19.04,31.82,.22,.49,.43,.99,.62,1.49,.1,.24,.19,.49,.29,.74,4.66,1.49,6.06,8.29,1.51,10.8,.1,.47,.16,.94,.19,1.42,.06,1.21-.17,2.46-.66,3.61,16.99,2.86,33.99,9.87,45.93,22.57,.91-.93,2.17-1.52,3.45-1.49,.34,0,.66,.04,.98,.1,.41-.38,.91-.71,1.44-.96,1.03-2.7,4.36-4.56,7.13-3.42,.35-3.49-.48-8.18,2.79-10.47-1.79-5.96,5.9-9.52,8.64-3.65,1.8,7.43,2.48,14.8,2.28,22.36-.64,5.42,1.3,14.81-5.22,16.92-.05,1.76-.14,3.52-.27,5.28-.08,.99-.16,1.98-.28,2.98,7.75,6.67,14.82,14.65,19.52,23.78,4.4-.1,5.23,5.13,6.8,8.25,1.27,4.05,5.78,9.54,1.61,13.15-.14,6.48,.1,12.95,1.28,19.33,.32,1.85-.03,4.04-1.7,5.16,.04,4.46,1.97,13.32-5,12.81Zm-82.02-204.77c.2-.8,.57-1.5,1.06-2.06-.76-1.34-1.55-2.66-2.33-3.97-.76-1.21-1.59-2.39-2.39-3.58,.92,3.3,2,6.6,3.66,9.61Z"/>
  <path d="M896.45,680.87c-1.58-7.32-3.9-14.07-5.38-21.34-.27-2.96-.08-6-1.86-8.57-6.61-6.65-13.55-14.73-16.63-23.32-1.37-4.83-2.85-8.87-4.55-13.46-1.11-2.04-1.96-4.48-3.72-6.04-2.14-.99-4.29-1.62-6.23-2.93-7.63-5.69-10.14-16.03-14-24.35-1.34-3.66-.08-8.22-2.34-11.49-8.77-4.33-17.88-7.76-25.7-13.74-7.01,2.09-12.74-3.49-18.69-5.73-4.35-1.51-7.28,3.08-11.3,3.81-3.8,.95-6.63-.11-10.09-.09-7.01,.92-12.11,5.59-17.57,9.6-3.16,3.07-8.15,3.68-10.94,6.9-2.11,5.13-3.12,11.17-8.58,13.91-2.25,1.57-5.18,3.13-7.86,1.71-2.53,1.82-5.62,3.28-7.64,5.4-2.7,2.94-2.91,7.27-4.53,10.8-2.19,4.03-5.56,7.26-8.2,10.69-3.38,4.36-8.82,5.3-13.34,7.31-3.33,2.32-7.98,7.86-11.7,3.08-3.25-5.46,4.68-8.52,8.12-11.3,2.82-1.56,5.26-1.61,7.72-2.86,3.74-2.73,6.27-6.87,9.17-10.39,2.02-7.89,5.7-15.16,13.25-18.67,4.49-1.88,4.89-6.91,6.13-10.99,1.54-3.51,7.05-3.31,8.21,.36,1.48-5.97,6.63-8.75,11.81-11.03,6.65-4.08,12.24-10.46,20.07-12.19,4.52-2.02,9.15-.77,13.78-.9,3.73-1.69,7.12-4.71,11.52-4.41,8.27-.39,12.87,8.05,20.85,6.01,5.93,.6,10.02,5.9,15.29,8.22,5.11,2.6,10.85,4.11,15.61,7.38,5.25,3.9,4.37,10.66,5.56,16.33,2.43,6.05,4.98,10.81,7.63,16.43,1.76,3.19,5.52,3.86,8.49,5.43,10.17,7.32,8.96,22.34,16.15,31.6,4.82,8.48,15.32,13.81,14.8,24.61,1.02,7.62,3.91,14.76,5.38,22.2,.59,2.35-1.03,4.81-3.34,5.35-2.35,.56-4.76-.97-5.35-3.34Z"/>
  <path d="M596.16,615.57c-3.48-.17-5.02-3.59-6.13-6.44-4.19-10.51-9.07-23.4-3.78-34.31-3.94-14.86-13.98-31.51-6.16-46.68-8.37-21.54,12.55-41.41,28.51-52.88,2.19-4.43,8.97-5.95,12.44-2.15,.12-.26,.24-.53,.36-.8-.3-.34-.59-.7-.84-1.08-1.84-2.7-2.69-6.56-1.85-9.83-1.34-2.87-1.37-6.6,.6-9.19,1.22-7.78,8.32-17.45,16.96-17.03,2.02-1.04,4.28-1.75,6.53-1.99,1.03-.12,2.09-.02,3.08,.28,.06-.16,.13-.32,.2-.47,.35-.81,.78-1.57,1.34-2.23,.75-6.2,4.36-11.55,5.94-17.59,5.53-10.69,15.64-21.2,27.61-24.07,.57-.9,1.14-1.81,1.68-2.73,.89-1.51,1.78-3.34,3.17-4.48,2.36-8.82,2.7-17.06,13.66-18.77,7.17-.79,7.17,8.64,.19,9.22,1.83,4.71-1.77,9.83-3.74,14.01-2.15,3.59-2.78,8.43-6.39,10.88-3.88,6.17-9.2,10.93-13.79,16.4,.32,10.57-3.99,22.6-13.61,27.92,.02,1.31-.25,2.59-1.13,3.63-1.17,1.39-2.98,1.86-4.66,1.49-2.34,5.34-6.93,10.95-13.04,11.58,0,0,0,0,0,0-1.54,1.58-3.39,2.83-5.42,3.64-.5,.69-1.04,1.34-1.64,1.97-.78,.83-1.63,1.74-2.57,2.54-2.96,6.12-4.56,13.91-10.53,17.87-.47,2.03-1.32,3.99-2.61,5.65-.34,.44-.73,.83-1.16,1.17-1.79,5.7-6.55,9.59-11.03,13.18-1.16,6.56-2.71,13.05-4.49,19.46-.7,2.46-1.5,5.48-4.01,6.44,5.87,1.18,5.04,9.84-1.08,9.15-4.06,2.92-8.8-1.33-12.12-3.64-2.45,15.1,7.87,28.65,9.51,43.27,2.27,7.66,1.74,15.76,3.05,23.6,.73,4.42,4.15,12.59-3.03,12.99Z"/>
  <path d="M580.4,804.73c-4.7-1.57-10.06-6.03-12.01-10.69-1.2,.8-2.59,1.34-3.98,1.47-.92,.09-1.82,.02-2.68-.19-1.24,4.16-8.23,6.29-10.73,2.18-1.93,3.58-5.48,6.87-9.8,5.47-4.25-2.29-9.61-5.03-12.79-8.69-2.72,.3-5.61-.82-7.76-2.51-1.26-.99-2.36-2.17-3.25-3.5-4.79-1.78-11.25-10.68-4.76-14.17h0c3.2-5.48,8.56-9.4,12.15-14.58-7.23-15.68,0-32.77,12.24-43.6-.26-9.52,3.1-18.49,6.89-26.97,.83-5.08,2.82-15.84,10.08-12.66,.35-.38,.69-.76,1.04-1.14-5.84-11.48-2.15-25.16,6.74-33.44,2.17-2.16,4.36-4.43,4.99-7.52-7.72-6.89-10.63-24.42-4.94-33.27,1.36-6.21,2.25-14.35,9.29-16.67-.28-9.4,.73-18.75,2.33-28.01,.04-5.47-1.18-13.49,4.54-16.53,.76-4.83,.61-12.29,6.09-14.22,6.58-1.38,6.88,8.76,3.17,11.79-.09,.56-.16,1.12-.23,1.69-.07,.84-.13,1.68-.2,2.52,.18,.14,.35,.29,.53,.46,.44,.41,.79,.87,1.09,1.36,18.12-2.97,13.79,33.27,14.6,44.56,4.53-4.43,11.74-1.07,12.13,5.02,3.49,1.28,4.44,5.36,4.07,8.7,21.47-20.47,22.92,8.73,18.47,24.41,4.08-4.9,8.47-10.75,14.67-12.9,9.86-1.68,10.93,10.86,8.35,17.62,4.63-2.91,8.75-9.83,14.81-8.51,1.55,.8,2.21,1.21,3.72,.05,4.76-2.54,7.78-9.28,14.05-7.9,1.73-4.64,9.13-2.95,8.62,1.96-.87,6.02-3.88,12.5-9.99,14.65-3.4,3.45-8.53,3.42-12.9,2.22-9.97,2.37-8.07,15.11-10.91,22.79-2.27,6.31-8.16,10.72-10.99,16.74-1.76,2.86-2.67,6.65-5.52,8.62-5.96,10.48-8.88,22.5-14.3,33.38-3.53,6.25-5,14.31-10.34,19.26-.98,12.07-2.65,23.69-3.81,35.32-1.41,5.81,.66,25.37-9.38,19.58-.71,.5-1.5,.91-2.31,1.06-.78,.14-1.53,.24-2.3,.23-.56,.56-1.19,1.05-1.9,1.48-.83,.49-1.76,.75-2.7,.81-2.22,6.67-9.68,10.71-16.38,8.26-1.46,2.84-4.57,4.65-7.77,4Zm-39.6-48.52c.84-1.18,1.87-2.24,3.12-2.94,1.48-.83,3.2-1.19,4.87-.95,1.83-4.8,8.29-6.43,11.33-1.81,5.43-8.55,13.85-3.6,14.31,5.21,2.19-2.22,6.1-2.14,7.98,.43,2.52-.71,5.04-.35,7.6-.27,.99-4.23,2.92-9.08,7-11.16,1.73-4.85,7.76-6.33,11.67-3.12,.54-6.3,.06-13.66,4.26-18.8,1.21-4.01,2.29-8.67,5.84-11.32,0,0,0,0,0-.01,3.79-6.47,5.31-27.17,14.94-25.93,1.94-5.2,4-10.62,7.87-14.73,.93-3.96,1.9-7.91,3.21-11.75-6.34-2.05-1.93-8.54,.21-12.25,3.78-7.53,7.17-15.58,8.02-24.02-15.99,13.83-21.83,35.53-29.6,54.46-1.63,4.05-8.29,2.92-8.48-1.46-.05-1.48,.49-2.8,.98-4.16,6.05-22.17,15.98-44.53,14.42-67.61-19.84,12.98-19.82,39.31-30.41,58.15-.4,5.31-7.69,7.1-9.21,1.48-1.16,1.12-2.58,1.88-4.09,1.99-1.24,6.97-5.8,36.48-14.77,34.85-.69,2.19-1.31,4.61-3.19,6.01-1.94,1.43-4.54,.86-6.01-.86-1.12,.36-2.37,.34-3.43-.18-1.5,1.63-2.25,3.67-3.57,5.42-.36,9.65-3.68,19.41-6.75,28.29-2.04,5.74-6.1,10.08-8.65,15.49,.18,.52,.35,1.04,.53,1.55Zm-4.03-13.53c1.61-2.22,3.18-4.25,3.88-6.91-2.19,1.66-3.72,4.13-3.88,6.91Zm36.61-123.1c.28-.2,.57-.39,.87-.55-.1-.02-.21-.04-.31-.06-.21-.04-.43-.09-.64-.15,.02,.25,.05,.51,.08,.76Zm2.33-9.35c.03-.57,.04-1.13,.04-1.7,0-.1-.02-.19-.02-.29-.29-.25-.59-.49-.89-.73-.07,.16-.13,.31-.2,.47-.13,.39-.25,.78-.37,1.18,.32,.53,.81,.97,1.44,1.08Zm18.46-30.99c-.84-8.79,.51-18.56-3.27-26.71-.02,.03-.04,.05-.06,.08-.17,.25-.33,.51-.48,.77,.71,7.67,1.58,15.35,1.6,23.06,.96,.81,1.67,1.76,2.22,2.8Z"/>
  <path d="M738.4,399.82c.09-2.49,2.18-4.3,4.62-4.3s4.39,2.25,4.3,4.62c-.09,2.49-2.18,4.3-4.62,4.3s-4.39-2.25-4.3-4.62Z"/>
  <path d="M642.7,221.36c-2.82-.85-6.39-.46-8.6-2.62-3.79-5.42,2.07-8.9,7.23-7.05,8.08-4.32,10.89,11.18,1.37,9.68Z"/>
  <path d="M540.36,211.32c-7.85-4.06-16.95-6.81-25.52-8.46-4.79-1.32-10.59,2.01-14.7-1.65-2.12-2.07-1.33-6.02,1.36-7.19,1.04-1.75,3.06-2.2,4.93-2.25,2.88-.11,6.71-1.05,8.33,2.04,8.19,1.32,16.12,3.56,23.67,6.98,4.09,.98,11.05,3.98,8.1,9.21-1.26,1.98-4.2,2.73-6.17,1.32Z"/>
  <path d="M580.85,221.04c.47-5.74,7.62-3.83,11.44-5.76,7.65-2.52,13.81-3.63,21.86-3.38,10.03-.3,20.11-1.19,29.9,1.83,5.52,1.76,2.94,10.18-2.65,8.5-4.08-1.27-8.71-1.48-12.44-1.88-7.72-.04-15.62,.91-23.34,.63-6.39,.24-23.77,10.45-24.78,.07Z"/>
  <path d="M631.49,257.04c-6.16-1.55-9.7-10.61-5.52-15.62-4.87,1.17-13.02,2.23-17.1,4.15,.03-.02,.07-.04,.1-.06,.02,0,.04-.02,.05-.03-3.36,3.32-11.72,6.5-13.03-.29-.32-2.98,2.36-5.13,5.2-4.99,3.26-3,7.46-4.74,11.85-5.03,7.51-1.8,14.49-4.04,22.19-3.01,10.06,.73,38.11,10.43,20.46,21.88-8.08,2.23-15.97,4.35-24.21,2.99Zm4.86-8.38c5.15-.26,9.45-1.5,14.17-2.25-5.18-2.79-10.83-5.21-16.8-5.38,.02,.02,.03,.04,.05,.07,1.28,1.86,.94,4.27-.61,5.78-.06,1.89,1.81,1.72,3.19,1.78Z"/>
  <path d="M530.28,240.7c-3.75-1.3-6.26-5.86-3.5-9.27,2.32-3.23,8.01-2.86,8.75,1.44,.49-.03,.96-.2,1.41-.38,0,0,0-.01,0-.02-2.25-4.46-8.86-3.7-13.18-4.26-7.63-2.38-14.65,2.79-22.34,1.46-5.79-.28-5.53-9.06,.3-8.9,4.5,.82,8.7-.98,12.96-1.92,4.44-.88,8.76,.65,13.2,.64,6.2,.71,13.17,1.88,16.46,7.8,5.81,9.23-5.37,17.74-14.05,13.39Z"/>
  <path d="M532.93,242.34c-2.42-.03-4.39-2.19-4.3-4.6,.15-4.59,5.2-4.48,8.47-4.25,.56-.02,1.13-.02,1.69-.03,.15,0,.29-.02,.44-.03-1.36-1.02-2.95-1.68-4.49-2.39-5.26-2.48-1.51-10.47,3.78-8.06,3.58,1.37,6.64,3.49,9.18,6.33,1.41,.81,2.54,1.76,2.98,3.45,.92,3.47-2.48,5.46-4.93,7.11-3.61,3.08-8.38,2.55-12.82,2.47Z"/>
  <path d="M595.35,653.56c.09-2.49,2.18-4.3,4.62-4.3s4.39,2.25,4.3,4.62c-.09,2.49-2.18,4.3-4.62,4.3s-4.39-2.25-4.3-4.62Z"/>
  <path d="M528.04,439.97c-3.42-.82-7.87-2.27-6.92-6.82-3.31-11.48,19.17-4.69,13.24,3.31-.26,3.01-3.69,4.75-6.32,3.51Z"/>
  <path d="M607.6,793.02c.61-10.18,14.43,2.13,18.53-23.27-6.16-1.02-3.31-7.64-1.48-11.33-2.1-8.71-4-19.09,3.4-25.92-3.47-31.66,26.63-18.21,9.4,2.94,1.66,8.16-.03,16.34-3.52,23.8,4.3,15.07-3.86,36.76-21.43,37.74-2.37,.32-4.66-1.58-4.89-3.95Z"/>
  <path d="M626.16,827.32c-4.87-3.97-5.43-12.37-3.68-17.99,.85-5.5-2.39-20.08,6.08-19.75,2.37,.38,4.13,2.72,3.71,5.1-1.19,6.68-1.06,13.65-.65,20.4,.52,3.39,2.49,6.88,1.17,10.28-.95,2.42-4.48,3.41-6.64,1.95Z"/>
  <path d="M1024.18,820.57l-.46-.1c-.09-.04-.19-.08-.28-.12,.8-1.2,2.19-1.96,3.73-1.96,.06,0,.12,0,.18,0-.29,.33-.58,.66-.9,.99-.32,.29-.66,.57-1.01,.83-.17,.08-.32,.15-.47,.24-.08,.03-.19,.05-.27,.08-.14,0-.27,.02-.39,.03h-.12Z"/>
  <path d="M364.99,682.39c-6.85-3.81,2.82-12.99,3.95-18.34,4.4-9.88,8.63-20.03,13.58-29.61,4.59-7.17,9.03-13.67,9.56-22.43-3.52-6,9.07-21.12,14.68-23.41,4.35-1.93,8.12-2.93,12.33-4.35,3.72-.52,6.36,4.11,4.09,7.07,2.64,.2,4.7-1.91,7.13-2.65,6.04-1.97,11.34-3.22,16.67-6.51,5.16-2.2,10.23-8.36,16.23-5.83-.02-.72-.01-1.9-.78-2.19-5.65-2.32-1.86-10.85,3.63-8.11,1.64-2.4,5.39-3.11,7.6-1.09,6.67,1.38,2.47,8.18,1.74,12.41,1.31,4.53-.13,11.62-5.63,12.29-2.4,16.24-12.96,9.73-12.66-3.06-8.15,5.88-17.83,8.11-26.87,11.97-5.76,13.04-17.93,21.54-27.97,30.72-6.52,5.24-8.08,13.02-11.72,19.98-3.48,5.27-8.11,9.9-8.92,16.49-2.11,5.13-2.55,20.37-11.21,15.21-1.27,1.67-3.53,2.33-5.44,1.44Zm51.61-80.92c.07-.09,.13-.17,.2-.26,0,.01-.02,.03-.03,.04,.23-.33,.47-.67,.7-1.01-.25,.03-.51,.06-.76,.1-.18,.04-.36,.08-.54,.12,.18,.32,.33,.66,.44,1.01Z"/>
  <path class="cls-1" d="M728.64,183.94c-5.73-9.72-9.48-20.4-13.54-30.72-3.5-3.08-8.8-3.61-12.12-7.16-5.04-4.14-4.8-11.68-9.42-16.11-.71-.52-1.62-.87-2.5-.88-10.79,2.3-7.25-6.96-13.12-11.11-2.58-1.08-5.4,.59-8.05,.48-2.5,.1-4.19-2.17-4.09-4.53-.23-4.87-.38-9.89-1.96-14.53-12.38,5.15-25.15-3.33-26.65-16.33-.19-3.11-1.13-8.64,3.43-8.64,1.85,.1,3.2,1.71,3.15,3.52-1.03,7.47,4.48,17.36,12.93,16.19,15.21-5.29,14.58,5.66,15.7,17.2,8.33-2.37,13.93,3.87,16.05,11.28,11.19-2.36,14.14,9.99,18.11,17.51,2.69,3.33,7.09,4.23,10.67,6.24,5.03,3.01,6.24,9.09,7.61,14.33,1.36,4.02,3.56,7.69,5.31,11.55,1.01,4.09,7.79,9.72,2.99,13.18-1.62,.83-3.64,.16-4.51-1.46Z"/>
  <path class="cls-1" d="M753.78,330.31c-6.38-1.49,1.04-16.2,2.14-20.34,2.33-6.8,7.55-12.64,8.71-19.77-.77-10.09-17.03-15.72-5.64-26.39,2.79-2.92,6.18-6.31,6.2-10.55-2.09-12.6-4.71-24.52,2.79-36.05,3.36-5.65,10.38-9.23,11.34-16.18,.64-2.25,.91-4.38,1.01-6.32,.63-6.69-6.88-9.68-8.47-15.74-3.66-12.68,5.5-25.67,8.05-37.71,.47-6.05-5.95-8.24-9.74-11.61-1.39-1.02-2.87-2-4.5-2.42-3.99-.83-7.65,1.04-11.63,.73-6.79,.08-14.29-2.72-13.67-10.75,.39-9.5-3.88-26-16.41-20.27-1.76,.45-3.61-.84-3.97-2.56-.72-4.3,4.73-4.47,7.68-5.23,16.27-1.34,19.23,18.44,19.84,30.65,4.54,2.45,9.84,1.23,14.67,.52,7.38-.89,12.71,4.79,18.11,8.48,16.02,12.23-4.79,31.33-2.57,46.61,1.21,5.3,6.41,7.83,8.27,12.66,2.57,8.4,.05,18.41-5.42,25.1-4.87,4.18-8.85,9.26-10.21,15.68-3.88,17.32,9.49,25.79-7.85,41.08-1.52,1.35-.32,3.23,.67,4.5,4.39,4.79,9.04,10.69,8,17.6-2.55,10.22-9.87,18.75-12.06,29.22-1.33,3.21-.35,9.61-5.34,9.06Z"/>
  <path class="cls-1" d="M607.08,574.96c-8.19-10-13.84-25.25-6.25-37.08,4.23-6.21,14.46-3.98,17.78-10.84,3.77-9.45-6.09-22.42,1.64-30.3,4.38-2.78,10.17-3.17,13.86-7.15,7.52-6.71,3.41-22.17,15.59-24.13,4.55-1.19,9.21-2.83,11.96-6.77,8.05-8.76,.58-27.43,17.69-24.11,3.74-.27,5.54-4.27,8.61-5.94,3.65-2.43,8.61-2.79,11.25-6.62,5.5-9.39,7.34-20.3,7.53-31.04,.23-3.56,2.1-7.52,2.84-10.76,1.27-3.35,1.18-10.43,6.32-9.28,4.56,1.75,.6,7.43,.28,10.4-2.33,6.49-3.14,13.03-3.4,19.89-1.99,12.43-5.34,28.46-19.36,32.05-3.17,1.29-5.08,4.26-7.88,6.11-3.33,2.51-7.44,1.57-11.22,1.71,0,0,0,0-.01,0-2.27,17.11-7.76,28-25.66,31.83-2.6,3.53-2.7,8.62-4.32,12.71-1.86,5.67-6.18,10.26-11.46,12.94-2.69,1.63-6.01,1.99-8.7,3.57-.24,.34-.13,.84-.19,1.26,.35,10.85,6.63,25.47-4.8,32.74-3.92,2.71-9.5,2.47-13.03,5.76,.11-.16,.16-.22,.24-.35-5.88,9.69-.23,21.62,6.18,29.59,2.5,3.51-3.02,7.37-5.5,3.8Z"/>
  <path class="cls-1" d="M848.02,553.67c-4.43-5.55-10.4-8.83-13.88-14.98-3.27-5.98-3.11-13.27-6.15-19.34-2.12-3.22-6.11-4.15-9.07-6.35-4.95-3.48-5.12-9.94-6.63-15.26-8.05-22.97-32.3-15.06-33.63-50.66-.37-4.28,6.33-4.89,6.67-.54-.09,31.66,28.97,25.33,34.14,52.27,.82,3.57,1.22,8.34,5.07,9.83,13.95,4.83,10.39,19.38,17.15,29.31,2.61,4.04,15.6,10.9,11.06,15.98-1.33,1.19-3.53,1.11-4.72-.26Z"/>
  <path class="cls-1" d="M597.38,768.27c-7.95-10.73-15.42-26.13-10.69-39.52,3.86-9.31,15.19-9.4,23.26-12.89,3.83-1.24,5.86-4.84,6.19-8.68,1.31-9.29-1.78-18.21,.62-27.26,2.62-5.5,5.97-10.53,7.45-16.55,2.78-6.79,2.78-13.46,4.93-20.26,1.93-4.89,6.25-8.24,9.32-12.39,3.43-4.42,6.38-9.51,11.06-12.72,2.19-1.37,4.93-2.26,6.81-4.01,4.22-4.6,4.64-11.85,9.67-15.8,5.66-3.14,8.51-8.99,12.04-14.12,2.28-4.14,6.67-6.63,10.07-9.54,3.24-3.81,5.51-8.56,6.71-13.42-3.36-8.91-2.88-18.94,1.21-27.67,4.46-5.56,9.82-10.35,14.72-15.55,6.66-4.3,13.7-9.11,15.12-17.42-.79-9.33-4.15-18.61-2.81-28.16,.17-1.81,1.64-3.26,3.52-3.15,1.76,.09,3.34,1.71,3.15,3.52-.44,4.54,.03,9.72,.57,13.92,6.12,19.93-1.66,27.23-17.08,38.12-3.41,4.25-7.53,7.88-11.24,11.78-2.7,6.56-4.16,14.51-1.01,21.13,1.84,7.59-3.4,15.32-7.72,21.2-2.51,2.92-6.4,4.25-8.59,7.51-4.35,6.01-7.92,13.49-14.72,17.28-3.59,4.16-4.37,10.21-8.16,14.34-2.25,2.66-5.51,4.09-8.55,5.63-4.55,3.46-6.99,8.38-10.53,12.58-2.67,3.63-6.77,6.46-7.83,11.04-1.35,8.93-3.63,17.67-7.08,26.04-1.96,4.63-6,8.86-5.27,14.18,.04,11.3,4.04,27.29-8.12,33.75-7.42,4.59-21.5,2.84-22.55,13.91-.14,10.19,4.4,20.76,10.52,28.74,2.95,3.13-2.2,7.8-4.98,4.46Z"/>
  <path class="cls-1" d="M416.51,587.71c-2.01-15.15,.3-32.94,19.38-32.48,1.03-.12,2.11-.71,2.86-1.34,6.82-7.19,6.68-18.36,13.15-25.6,9.27-6.9,11.29-18.89,11.39-29.71-.37-9.82,1.62-19.4,2.32-28.93,.17-4.29,6.95-3.97,6.67,.37-.35,7.28-1.87,13.68-2.16,20.66,.47,15.93-1.41,33.44-14.76,43.9-4.94,9.67-6.53,25.72-19.55,27.4-3.22,.3-6.85,.37-9.3,2.79-5.22,6.21-3.79,14.97-3.34,22.41,.41,4.29-6.36,4.88-6.65,.54Z"/>
  <path class="cls-1" d="M491.9,531.28c-1.65-.56-2.79-2.56-2.11-4.25,3.06-6.64,1.15-14.29,3.97-21,2.24-7.24,9.06-12.77,9.47-20.55-1.45-5.41-.61-10.95-1.63-16.39-1.04-3.65-4.81-5.31-6.71-8.33-1.34-2.01-.95-4.44,.2-6.45,1.74-4.36,2.16-9.48,.49-13.91-1.05-2.8-3.54-5.07-3.58-8.22,.47-3.94,2.87-7.56,.56-11.29-2.41-3.55-6.9-5.21-8.78-9.23-2-3.8,3.99-6.94,5.96-3.05,1.09,2.06,3.29,3.17,4.96,4.7,5.78,4.47,6.79,12.37,4,18.82,5.26,7.44,6.06,17.27,2.21,25.52,2.78,2.5,5.56,5.18,6.85,8.78,1.97,5.78,.38,12.02,2.11,17.9,.92,8.84-6.64,15.93-9.63,23.43-3.33,5.5,.49,24.15-8.34,23.51Z"/>
  <path class="cls-1" d="M460.33,206.37c-1.88-4.19,3.44-5.15,6.07-6.73,4.81-3.55,7.12-9.33,5.66-15.08-.36-3.88-2.66-8.53,.13-11.95,2.6-2.55,6.12-3.63,8.89-5.79,3.18-2.8,3.6-7.48,4.85-11.31,.87-5.07,6.36-6.85,8.45-11.27,1.96-4.8,3.47-9.68,6.06-14.22,1.92-4.42,2.02-9.32,3.79-13.79,1.19-3.5,4.42-5.65,6.95-8.17,2.5-2.52,4.32-6.23,8.06-7.05,2.86-.48,7.68-1.45,8.13,2.61,.14,1.78-1.24,3.5-3.07,3.61-1.28,.14-2.74-.07-3.92,.48-2.97,3.43-6.07,6.73-9.39,9.82-2.15,4.25-2.01,9.17-3.81,13.57-1.36,4-4.04,7.41-4.96,11.58-1.42,5.51-5.34,9.71-9.45,13.33-1.77,5.2-2.43,11.22-6.56,15.22-2.56,2.31-5.77,3.77-8.69,5.56,1.97,8.9,3.06,18.55-4.11,25.53-2.56,2.6-10.33,8.7-13.1,4.06Z"/>
  <path class="cls-1" d="M577.32,92.27c-1.52-1.01-1.95-3.12-.94-4.63,2.39-3.61,5.5-7.32,6.71-11.48,1.79-17.88,11.7-33,30.77-34.87,5.79-.77,11.66-2.64,17.26-.23,2.05,.6,3.95,2.7,6.16,2.16,3.41-2.47,6.37-6.37,11.13-5.68,7.44,1.47,13.22,7.58,19.89,11,7.5,2.91,15.5,4.79,20.53,11.77,4.36,5.17,8.24,11.29,12.42,16.35,1.13,1.41,1.15,3.45-.26,4.72-1.31,1.17-3.59,1.15-4.72-.28-6.87-7.71-11.35-18.42-20.91-23.04-5.09-1.42-9.97-2.82-14.19-6.11-4.11-2.33-7.9-5.17-12.03-7.42-.87-.39-2.03-.52-2.88,0-2.64,1.88-4.66,4.79-8.04,5.38-3.72,.95-7.25-1.73-10.48-3-3.74-.98-7.43,.32-11.11,.7-31.52,4.07-19.61,25.68-34.68,43.71-1.02,1.53-3.12,1.94-4.63,.94Z"/>
  <path class="cls-1" d="M561.01,90.48c-.84-1.64-.16-3.66,1.45-4.49,4.85-2.7,11.68-4.41,10.55-11.3-.41-3.02-.82-7.38-3.56-9.11,0,0-.04-.05-.04-.05-5.95-.15-11.79,3.9-16.42,6.86-3.62,3.32-8.01,5.74-13.04,5.47-1.83,0-3.26-1.79-3.15-3.54,.21-3.56,4.07-2.98,6.56-3.52,8.57-4.79,17.35-13.75,28.03-11.64,9.29,3.4,11.57,22.08,3.38,27.69-3.6,1.51-10.75,8.47-13.74,3.62Z"/>
</svg>