<?xml version="1.0" encoding="UTF-8"?>
<svg xmlns="http://www.w3.org/2000/svg" viewBox="0 0 1536 836.22">
  <defs>
    <style>
      .cls-1 {
        fill: #fff;
      }

      .cls-2 {
        fill: #f3c25f;
      }
    </style>
  </defs>
  <g id="Vektorebene">
    <path class="cls-2" d="M574.54,836.02c-7.76-.28-15.13-1.52-22.42-3.76-8.01,.26-16.03,.5-24.04,.83-14.77,.34-29.54-4.51-43.7-8.23-17.72-3.28-35.78-7.51-50.51-18.45-13.87-8.69-28.07-17.24-38.28-30.31-15.49-13.9-28.9-29.21-38.43-47.78-17.95-22.75-30.54-50.26-30.95-79.62-2.31-40.54,18.78-76.85,38.23-110.84,15.99-17.96,26.25-40.66,45.37-55.8,24.73-26.99,57.46-44.47,86.37-66.54,8.53-5.74,15.89-12.81,24.64-18.26,6.7-3.82,13.26-7.97,17.47-14.66,19.48-25.86,26.57-56.66,40.19-85.37,4.91-48.26,14.54-96.16,28.54-142.59,5.87-15.53,12.76-30.71,21.27-44.91,6.87-15.04,15.55-29.63,28.88-39.83,17.91-21.4,41.38-37.14,67.56-46.78,30.01-10.99,62.78-5.37,91.59,6.7,34.12,12.79,61.06,43.18,63.39,80.39,3.63,34.67-1.46,70.4-13.51,103.04-16.81,32.25-25.56,67.34-37.97,101.34-5.51,19.22-11.21,38.62-13.36,58.56,.52,30.99,3.91,61.94,5.53,92.91-.03,24.61,4.84,48.69,6.22,73.17,.87,30.2-6.03,60.09-11.26,89.67-4.64,28.66-20.4,53.67-35.19,78.12-8.09,13.76-19.29,24.99-31.14,35.5-6.68,10.12-16.88,17.41-25.92,25.35-10.23,11-22.37,19.59-35.56,26.68-13.39,6.43-23.76,17.43-37.5,23.29-23.41,11.38-49.19,19.81-75.49,18.16Zm167.53-222.09c9.28-30.01,14.35-63.08,8.95-94.38-3.73-27.36-3.36-55.11-5.84-82.6-7.38,19.73-11.04,41.92-23.45,59.25-2.29,21.66-5.78,32.9,5.45,53.25,8.82,20.6,7.85,43.56,14.9,64.49Zm-260.09-23.46c6.8-16.41,20.24-31.2,37.44-36.81,14.98-15.23,39.96-18.71,58.5-8.08,1.37-.16,2.75-.27,4.14-.32,.93-.03,1.87-.04,2.79-.01,1.86-2.24,3.9-4.36,6.09-6.32-.76-14.08-.31-28.33,2.4-42.19-3.81-10.1-4.35-21.2-2.99-31.83,.91-7.15,2.92-14.26,5.87-21-7.59,8.87-17.48,15.01-26.62,22.06-12.55,13.65-28.79,23.33-40.05,38.24-14.48,13.31-23.8,30.47-33.73,47.2-7.84,10.82-11.57,23.51-16.4,35.8,.91,1.04,1.76,2.14,2.54,3.27Z"/>
  </g>
  <g id="Vektorebene-2" data-name="Vektorebene">
    <path d="M403,603.88c-1.08-.3-1.83-1.51-1.47-2.6,1.8-4.92,2.24-10.3,4.77-14.94,3.11-5.77,4.21-12.36,7.47-18.05,3.84-8.15,5.85-16.87,8.84-25.26,3.56-6.08,5.55-12.4,8.96-18.45,2.38-3.23,3.73-6.96,5.02-10.66,2.23-5.36,5.86-9.98,8.67-15.03,4.35-5.97,5.86-13.55,10.62-19.24,5.31-4.76,7.47-11.69,12.07-16.92,2.65-2.42,5.93-4.1,8.28-6.85,3.13-3.89,6.11-8.02,10.6-10.46,5.57-2.83,9.56-7.69,14.94-10.69,4.41-2.28,8.76-4.62,13.27-6.68,4.91-1.84,9.47-4.35,13.82-7.25,14.93-7.4,30.56-13.55,46.22-19.31,13.72-4.32,27.61-8.36,40.67-14.41,1.47-.87,3.72-1.82,4.63,.24,.74,1.97-1.14,2.88-2.63,3.47-17.58,8.38-36.72,12.34-54.65,19.65-13.03,5.74-26.78,10.13-38.69,18.06-8.71,4.25-18.36,7.52-25.88,13.64-3.27,3.18-7.3,5.56-11.11,7.89-3.97,2.65-6.17,7.04-9.6,10.26-2.34,2.29-5.35,3.8-7.63,6.18-2.8,3.63-4.35,8.08-7.3,11.62-6.87,6.17-8.8,15.04-13.72,22.49-2.42,4.23-5.33,8.47-7.65,12.68-1.79,3.49-2.42,7.12-4.39,10.47-4.46,6.39-6.49,13.98-10.47,20.64-2.76,7.55-4.61,15.41-7.79,22.85-3.91,7.81-6.3,16.23-10.14,24.08-1.54,3.02-1.68,13.38-5.71,12.58Z"/>
    <path d="M943.64,604.16c.27-16.92-4.27-33.25-9.58-49.08-6.07-23.24-15.28-45.99-26.89-66.9-3.42-4.74-6.76-9.89-10.18-14.57-7.95-7.49-15-15.48-23.65-22.16-5.44-5.57-10.91-10.62-17.68-14.36-11.89-9.29-25.81-15.98-39.62-21.95-15.38-3.53-29.07-11.48-43.29-17.86-2.6-1.23-9.35-1.43-8.27-5.18,1.23-2.62,4.47-.3,6.21,.14,12.33,3.93,23.18,11.41,35.38,15.62,13.47,3.1,25.8,9.5,37.66,16.42,5.64,2.27,10.25,6.25,15.05,9.83,3.39,2.33,7.2,4.11,10.14,7.04,5.56,6.38,12.55,11.12,18.6,16.94,4.97,6.17,11.45,10.25,15.59,16.87,8.76,11.25,14.92,23.97,20.2,37.1,4.62,9.38,8.44,19.28,11.16,29.42,3.73,12.99,8.45,25.58,11.01,38.82,1.57,7.84,2.48,15.83,2.39,23.84,0,1.14-.97,2.11-2.11,2.11s-2.11-.97-2.11-2.11Z"/>
    <path d="M713.84,456.52c-8.56,.34-16.31-2.62-24.28-5.21-10.38-2.53-19.62-8.37-28.52-13.98-4.93-2.14-9.17-5.21-12.59-9.35-4.41-3-9.5-5.17-12.71-9.66-2.99-5.72-7.69-9.8-11.66-14.71-2.76-2.92-4.2-6.93-6.12-10.25-1.02-1.92-4.22-4.33-1.98-6.4,3.27-2.49,6.98,7.03,8.14,9.31,2.78,5.06,7.01,8.78,10.72,13.01,3.58,5.98,7.78,11.28,14.39,14.05,2.34,1.31,4.17,3.88,5.94,5.6,3.17,2.81,7.09,3.98,10.48,6.19,8.17,5.64,17.2,10.28,26.83,12.62,5.57,1.69,10.91,4.31,16.82,4.31,16.59,1.8,33.06-5.34,43.13-18.36,5.82-6.86,7.24-16.2,9.43-24.65,1.1-4.92,1.78-10.17,.98-15.14-.41-2.68,3.88-3.32,4.19-.57,1.28,13.41-2.9,27.4-8.59,39.42-9.9,14.71-26.74,24.16-44.59,23.77Z"/>
    <path d="M695.36,398.05c-9.14-.41-18.33-2.7-26.36-7.16-3.08-2.22-5.93-4.77-9.15-6.81-7.66-3.87-13.07-10.65-18.61-16.9-4.99-4.31-8.08-10.07-11.4-15.64-2.97-4.31-6.41-8.32-8.81-13-2.82-5.28-4.99-10.94-7.35-16.4-5.61-9.11-10.07-19.23-9.97-30.13-1.11-8.03-.15-15.93,1.14-23.81,.2,3.26,.96,6.45,2.93,9.19,.06,.09,.13,.17,.19,.26-.69,7.68-.69,15.37,.88,23.03,1.64,9.18,7.62,16.3,10.81,24.84,3.27,8.85,8.36,16.72,14.02,24.19,4.76,9.65,12.78,16.72,19.76,24.7,3.96,3.95,9.31,5.97,13.51,9.55,7.76,6.91,18.52,9.25,28.65,9.89,5.43,.25,10.35-.96,15.42-2.57,1.11-.25,2.28,.52,2.51,1.64,.39,3.04-3.78,2.86-5.79,3.75-3.48,.75-7.01,1.46-10.59,1.46-.59,0-1.19-.02-1.78-.06Z"/>
    <path d="M713.59,390.47c-1.69-2.29,1.66-3.83,3.07-4.79,2.82-1.74,5.85-4.04,7.91-6.52,5.37-7.19,12.74-12.65,18.57-19.41,5.1-6.33,7.5-14.08,11.27-21.16,4.44-6.64,4.74-14.46,7.12-21.82,2.94-9.56,5.31-19.7,4.48-29.64-.59-6.23-3.06-12.04-4.77-18-1.57-9.98-2.6-20.15-6.88-29.48-1.11-1.99-2.16-4.09-3.09-6.23-.04-.44-.08-.88-.12-1.33-.13-1.41-.32-2.82-.53-4.2-.31-1.98-.63-3.92-1.34-5.79-.75-1.94-1.85-3.61-3.07-5.26-.41-.55-.86-1.07-1.34-1.56-.62-2.22-1.07-4.48-1.27-6.79-.85-4.37-4.69-6.9-7.48-9.97-3.96-4.2-8.47-8.53-14-10.35-6.36-1.35-12.56-3.15-18.14-6.59-18.32-8.81-39.43-24.13-60-13.14-11.1,6.34-21.46,16.27-24.21,29.16-3.23,9.67-5.1,19.61-6.23,29.64-1.15,1.12-2.11,2.45-2.79,3.96-1.2,2.64-1.88,5.59-2.42,8.53,.85-11.12,1.73-22.23,4.34-33.17,2.96-10.35,5.5-21.06,13.11-29.14,14.86-16.37,34.85-22.15,55.18-11.94,11.03,5.05,21.78,10.91,32.65,16.14,4.37,1.51,9.16,1.77,13.31,3.95,7.41,4.25,13.43,10.75,18.86,17.23,2.71,3.84,2.07,8.97,3.65,13.18,1.79,4.19,3.43,8.52,4.51,12.93,1.53,4.33,3.87,7.71,5.5,11.87,1.99,6.92,4.76,13.81,4.87,21.09,.44,6.46,3.21,12.43,4.81,18.65,3.93,15.09-1.76,30.16-5.42,44.68-.95,6.22-3.38,11.98-6.6,17.34-3.37,7.19-6.29,15.05-11.65,20.97-4.58,5.13-10.07,9.7-14.71,14.72-3.45,4.88-8.08,8.92-13.21,11.89-.66,.62-1.55,1.14-2.4,1.14-.56,0-1.09-.23-1.53-.8Z"/>
    <path d="M618.35,388.61c-.02-1.34,1.18-2.15,2.4-2.13,11.27-.7,10.18-5.03,10.69-14.49,1-5.66-.44-11.28-2.01-16.68-.4-2.23-3.3-5.7-.46-7.26,3.61-1.07,3.62,4.79,4.81,7.01,1.59,5.6,2.88,11.55,1.87,17.32-.25,4.6,.03,9.19-2.31,13.23-1.64,2.9-5.09,3.86-8.13,4.48-2.2,.3-6.51,1.91-6.84-1.48Z"/>
    <path d="M760.13,393.87c-12.23-3.28-8.37-19.16-8.57-28.67-.05-3.83-.07-7.67,.29-11.48,.74-2.7-1.65-9.58,2.13-9.86,3.86,.09,1.74,9.54,1.91,12.24,.04,7.38-.7,14.73-.33,22.01-.05,4.5,.25,10.62,5.69,11.68,2.65,.69,1.5,4.85-1.12,4.07Z"/>
    <path d="M763.04,394.83c-1.76-.89-5.33-1.63-4.39-4.3,.43-1.01,1.74-1.63,2.77-1.12,1.07,.53,2.15,1.11,3.27,1.54,2.54,1.03,.84,4.96-1.65,3.88Z"/>
    <path d="M709.42,394.55c-1.6-2.27,1.46-3.64,2.85-4.95,1.8-1.45,3.71-5.52,6.32-3.4,1.7,1.78-.45,3.44-1.71,4.63-1.77,1.62-4.97,6.32-7.47,3.72Z"/>
    <path d="M607.92,314.31c-1.63-.92-4.28-2.05-4.45-4.13-5.77-5.29-9.23-12.56-13.07-19.27-1.8-4.16-2.36-8.79-3.83-13-3.21-9.39-7.68-18.14-9.04-28.06-1.92-13.06-.04-26.48,1.89-39.42,1.37-6.21,1.45-12.64,2.88-18.83,3.07-7.3,5.83-14.76,10.26-21.39,1.41-1.94,2.92-3.74,4.07-5.85,.64-.96,1.86-1.36,2.89-.76,3.1,2.25-1.99,6.46-3.26,8.66-4.28,6.28-6.75,13.37-9.82,20.25-1.21,4.95-1.34,10.07-2.23,15.07-2.19,13.06-4.2,26.47-2.78,39.72,1.02,10.15,5.77,19.41,8.99,28.88,1.7,4.57,2.17,9.54,4.27,13.98,1.66,2.95,3.56,5.74,5.13,8.74,2.29,3.82,5.23,7.51,8.8,10.1,1.14,.92,2.71,1.62,3.21,3.08,.64,2.49-2.4,3.48-4.17,2.11,0,0,.24,.13,.24,.13Z"/>
    <path d="M769.02,282.69c-.9-.69-1.11-2.06-.38-2.96,2.74-3.66,2.6-8.48,4.04-12.66,1.1-5.1,3.2-9.92,4.3-15.04,.37-7.15,.81-14.24,.07-21.32-1.29-7.06-5.48-12.97-7.17-19.88-1.99-4.65-5.22-8.66-6.27-13.72-2.44-9.12-5.65-18.19-10.7-26.19-3.68-5.36-8.4-10.24-12.06-15.52-3.72-3.89-6.84-8.6-10.65-12.27-4.17-2.77-8.32-5.59-12.44-8.44-9.65-5.11-19.35-11.31-30.5-12.3-10.02-1.28-19.33,2.06-28.82,4.59-8.31,1.07-15.79,3.99-23.08,7.99-8.99,3.97-16.45,10.83-23.17,17.81-4.91,5.45-9.22,11.52-14.22,16.79-2.68,1.81-4.9-2.37-1.97-3.85,7.73-9.66,15.55-19.55,25.35-27.24,5.01-3.15,9.63-6.66,15.23-8.73,6.86-4.37,14.76-5.66,22.56-7.31,9.47-2.78,18.97-5.53,28.96-4.21,7.04,.45,13.31,3.81,19.84,6.17,8.12,4.13,15.58,9.29,23.25,14.17,4.5,3.21,7.67,8.35,11.23,12.3,8.48,10.26,17.38,20.5,21.68,33.34,2.52,7.92,4.25,16.08,8.87,23.09,1.11,2.25,1.64,4.66,2.38,6.94,1.28,3.21,2.99,6,4.06,9.27,2.99,7.31,2.29,15.32,2.09,23.04,.12,5.94-1.45,11.73-3.62,17.23-1.63,3.65-3.08,21.99-8.82,18.92Z"/>
    <path d="M752.9,232.04c-1.79-.23-1.9-2.02-1.82-3.45-.04-.57-.26-1.02-.59-1.39-.28-1.73-.6-3.43-1.23-5.08-.06-.15-.12-.3-.18-.45,2.76,1.07,5.52,2.55,6.08,5.6,.18,.99,.18,1.97,.11,2.97-.08,1.05-1.11,1.82-2.11,1.82-.09,0-.18,0-.27-.02Z"/>
    <path d="M751.5,234.81c-.06-.14-.11-.28-.17-.42,0-.09-.01-.18-.02-.26,.99-.25,2.07,.27,2.48,1.22,.54,1.41-.25,2.29-1.35,2.88-.21-1.15-.52-2.29-.95-3.42Z"/>
    <path d="M602.61,282.71c-1.76-18.63,1.93-37.15,4.55-55.48-.13-1.64,.42-3.78,2.47-3.51,1.19,.15,1.96,1.28,1.81,2.44-1.41,13.86-4.81,27.47-4.8,41.47-.36,4.92-.48,9.65,.16,14.51,.37,2.7-3.86,3.3-4.19,.57Z"/>
    <path d="M607.04,282.55c-1.11-.15-1.99-1.24-1.8-2.38,.28-2.3,.07-4.63,.21-6.94,.97-8.7,1.63-17.43,2.1-26.16,.6-6.67,.73-13.52,1.12-20.08,.2-2.33,.55-4.64,.63-6.98,.08-1.14,1.3-1.95,2.38-1.8,2.86,.59,1.5,4.14,1.52,6.18-.88,10.85-1.27,21.68-1.94,32.52-.67,5.3-.83,10.74-1.57,15.99-.63,2.78,1.58,9.58-2.64,9.66Z"/>
    <path d="M615.32,257.06c-4.26-4.75,13.25-13.41,16.67-15.39,5.73-3.7,11.72-8.19,18.74-8.5,5.32,.41,10.53-.88,15.72,.79,11.53,3.75,2.03,12.91-5.67,13.54-8.03,.42-16.07,.22-23.94,1.74-5.12,1.19-10.55,1.92-13.83,6.34-.89,1.37-3.05,1.45-3.77-.13-.81,1.35-2.34,2.81-3.91,1.6Zm18.26-11.44c6.11-1.51,12.42-1.69,18.69-2.11,5.26-.08,11.97,.61,15.3-4.26-3.19-2.43-7.79-2.2-11.57-1.68-2.2,0-4.27-.34-6.44-.15-5.95,1.22-11,5.01-15.98,8.2Z"/>
    <path d="M700.33,237.3c-1.84-.66-1.85-2.95-2.88-4.37-.55-.74-1.17-1.43-1.77-2.13-1.16-1.35,.14-3.64,1.86-3.38,.95-5.87,7.1-6.92,11.73-8.54,13.15-4.13,26.68-.62,39.54,2.76,2.62,.71,1.52,4.84-1.12,4.07-8.63-2.16-17.17-4.62-26.14-4.51-4.92,.08-9.87,1.12-14.46,2.91-5.02,.72-6.89,4.87-4.66,9.32,1.3,1.62,.19,4.51-2.08,3.87Z"/>
    <path d="M699.28,237.69c-.74-.96-.5-2.21,.37-2.97,1.74-2.04,4.2-2.22,6.69-2.54,9.17-2.62,18.65-2.02,28.06-1.91,5.4-.03,10.46-1.07,15.82-.17,1.61,0,3.91,.07,3.93,2.2-.41,3.61-5.21,1.58-7.58,1.7-7.38-.05-14.8,.98-22.23,.35,.04,0,.08,0,.12,.01-5.73-.36-11.16,.53-16.62,1.82-1.96,.55-4.2,.13-5.59,1.88-.86,.76-2.29,.5-2.96-.37Z"/>
    <path d="M750.7,228.35c-1.2-1.2-2.51-1.79-3.95-2.56-2.38-1.36-.23-5.04,2.13-3.65,1.72,.89,3.44,1.83,4.8,3.22,1.97,1.89-1.04,4.93-2.98,2.99Z"/>
    <path d="M616.68,255.7c-1.39,1.2-3.78-.16-3.46-2.05,.59-2.86,3.1-4.87,5.32-6.52,4.83-3.17,9.57-6.39,15-8.44,4.8-2.44,10.38-3.24,15.56-4.54,4.37-1.51,9.3-3.51,13.78-3.76,1.93-.08,4.08-.9,5.86,.18,3.4-1,2.99,2.84,2.69,4.85-.54,2.7,1.44,9.5-3.08,8.91-4.86,2.12-10.21,2.68-15.45,2.69-8.02,1.03-16.11,2.04-24.07,3.33-3.58,1.24-6.34,3.81-9.43,5.87-.87,.56-2.07,.27-2.71-.51Zm15.15-10.79c-.33,.22-.66,.43-.98,.65,6.86-.35,13.46-1.94,20.27-2.63,5.44-.27,10.48-.29,15.44-2.44-.12-1.62,.04-3.37-.58-4.86-6.05-.64-11.95,.94-17.41,3.28-5.65,1.84-12.02,2.13-16.73,6.01Z"/>
    <path d="M698.39,257.59c-.68-.87-.57-2.31,.37-2.96,6.62-4.17,12.89-9.06,20.94-9.97,8.31-1.11,18.86-1.43,24.96,5.29,1.72,2.17-1.72,4.78-3.36,2.56-7.69-6.79-20.83-4.45-29.64-1.16-2.97,1.94-5.84,4.06-8.99,5.72-1.23,.96-3.04,2.12-4.28,.52Z"/>
    <path d="M721.01,259.62c-8.96-.69-8.98-11.28-.91-13.23,2.72-.15,12.39-1.12,10.03,3.62,4.82,6.1-3.61,10.68-9.12,9.61Zm2.97-4.76c.64-.03,1.37-.23,1.75-.8-.58-1.49-3.16-1.35-2.97-3.36-2.15-.46-4.45,.34-3.85,2.91,1.67,1.1,3.5,1.28,5.35,1.23,0,0-.29,.01-.29,.01Z"/>
    <path d="M753.83,427.5s-.02,.02-.02,.04c0-.01,.02-.02,.02-.04Z"/>
    <path d="M627.12,271.19c-3.62-2.5,1.69-6.7,3.46-8.82,3.11-4,8.3-4.22,12.83-5.43,7.02-.55,14.2-1.02,21.02,.93,1.9,.37,5.08-.62,5.21,2.23-.63,4.15-7.2,1.33-9.85,1.06-5.39-.91-10.7-.35-15.98,0-2.55,.83-5.27,1.03-7.74,2.03-2.42,1.76-4.51,3.98-5.96,6.41-.35,1.29-1.71,2.16-2.98,1.61Z"/>
    <path d="M643.97,272.14c-7.17-1.52-4.77-11.6,1.21-12.85,2.98-.76,6.51-.59,8.99,1.39,2.44,1.26,3.35,4.63-.14,4.87,2.76,6.12-5.58,8.39-10.05,6.59Zm3.99-3.66c.8-.1,1.64-.21,2.34-.63-.42-2.14-2.78-5.47-5.18-3.85-.15,.51-.48,.93-.91,1.2-.27,.67-.45,1.39-.48,2.11,0,0,0,0,0,0h0c1.22,.92,2.77,1.2,4.23,1.15Z"/>
    <path d="M665.68,307.17c-4.75-5.02,.39-11.38,4.1-15.24,1.74-3.3,3.42-6.8,4.66-10.31,.34-1.76,.33-4.64,2.84-4.37,1.11,.15,2,1.24,1.8,2.38-.84,5.44-3.46,10.6-6.25,15.28-2.05,2.45-4.97,4.68-4.78,8.18,.04,.62,.64,1.02,.97,1.5,1.71,2.13-1.66,4.74-3.34,2.59Z"/>
    <path d="M694.23,304.38c-2.14-5.24,16.84-6.13,14.73-.63-.43,1.02-1.73,1.63-2.77,1.12-2.22-.76-4.49-.54-6.74-.41-1.68,.64-4.13,2.28-5.21-.09Z"/>
    <path d="M673.83,307.75c-2.82-4.32,10.08-7.85,9.23-2.31-.65,2.17-2.6,1.26-4.22,1.51-1.64,.54-3.4,2.82-5.01,.8Z"/>
    <path d="M674.58,278.77c.07-4.1,1.07-8.19,.6-12.28-.12-1.14,.64-2.21,1.82-2.38,4.88-.28,1.42,11.5,1.8,14.65-.04,2.75-4.2,2.76-4.22,0Z"/>
    <path d="M665.33,335.07c-1.68-.11-4.22,.14-4.26-2.21,0-1.13,.96-2.15,2.11-2.11,2.46,.06,4.36,.35,6.7,.09,7.76-1.52,14.58-6.38,22.51-7.45,11.48-3.49,24.15,2.25,35.4-2.22,2.49-1.09,4.19,2.84,1.64,3.89-11.26,4.88-24.03-.72-35.53,2.32-9.92,1.19-18.38,8.88-28.62,7.68,0,0,.05,0,.05,0Z"/>
    <path d="M694.82,353.49c-6.46-.2-13.26-2.29-17.79-6.96-2.53-1.39-4.72-3.25-6.69-5.35-2.5-1.18-4.46-3.23-6.83-4.53-2.52-1.04-.87-5,1.64-3.89,1.58,.5,2.62,1.71,3.91,2.66,1.71,1.27,3.81,2.01,5.18,3.69,3,2.9,6.57,4.96,9.78,7.57,6.21,2.93,13.74,3.39,20.15,1.3,4.64-2.38,9.03-4.11,11.2-9.14,1.47-1.63,2.96-3.31,4.24-5.09,1.67-2.31,2.05-5.03,3.99-7.1,.85-.78,1.78-1.4,2.34-2.44,1.63-2.17,5.02,.42,3.34,2.59-.71,1.27-1.92,2.11-2.93,3.1-1.95,4.58-4.75,8.49-8.05,12.15-1.08,3.37-4.24,5.12-7.02,6.98-4.92,3.16-10.63,4.7-16.48,4.48Z"/>
    <path d="M597.42,302.79c-3.06-2.21-2.86-6.12-3.98-9.3-.01,0-.02,.01-.03,.02-2.03-7.02-5.19-13.49-5.5-20.89-4.4-8.97-5.76-19.45-7.01-29.34-6.65-6.88-2.42-20.73-1.45-29.33,2.23-14.84,8.17-29.24,16.25-41.82-2.29-3.23-.72-7.44,2.21-9.69,4.02-4.18,8.44-7.96,12.51-12.05,8.23-6.24,16.81-11.97,25.9-16.92,5.79-2.39,12.27-8.78,18.77-5.9,4.62-2.3,12.15-4.14,14.09,2.4,.67,.12,1.34,.35,1.99,.73,1.76,1.03,2.87,2.77,3.18,4.66,10.2,7.68-5.11,15.57-11.11,19.55-4.65,2.89-9.58,5.34-14.05,8.5-1.19,1.29-2.96,2.1-4.84,2.13-10.97,6.62-17.17,19.12-26.97,27.38-2.71,10.25-5.73,19.91-6.83,30.03-.92,5.15,.49,11.89-4.21,15.45-.29,9.8-1.31,19.59-1.33,29.4,.19,4.98,1.52,10.07-.27,14.85,.43,2.95,.72,4.3,1.25,6.9,1,4.14,3.49,9.18-.08,12.74-2.18,2.18-6.06,2.58-8.47,.52Z"/>
    <path d="M763.92,276.74c-1.15-2.98-.03-6.15-.72-9.23-.9-2-1.11-4.24-1.7-6.28-2.77-6.2-2.14-13.09-4.13-19.45-4.68-11.81-7.4-24.19-11.1-36.31-5.4-3.1-9.04-8.37-13.7-12.41-6.7-1.88-11.23-7.76-17.9-9.3-3.55-.99-7.16-1.82-10.68-2.95-3.88-.72-5.81-3.37-8.99-4.87-8.96-4.29-19.36-6.97-26.67-13.94-5.98-1.81-12.32,.7-18.18-.96-7.95-3.36-4.14-14.37,3.58-14.87-1.47-5.46,4.11-9.89,9.28-9.18-3.4-3.93-4.94-10.7,.8-13.38,2.77-1.29,5.81,.35,8.7-.45,2.38-4.07,7.51-2.9,11.42-2.42,5.88,.58,11.48,1.76,16.42,5.17,6.86,1.26,13.29,3.9,18.78,8.23,8.61,3.55,15.88,9.61,23.15,15.35,4.72,4.52,6.83,10.84,9.66,16.56,2.01,4.04,5.85,7.08,7.38,11.37,2.44,5.59,4.47,10.42,7.59,15.42,2.67,6.88,3.14,14.44,6.71,21.01,3.74,13.07,7.46,25.86,6.45,39.5-.94,6.1-3.41,11.34-3.8,17.32,.07-.31,.11-.55,.16-.83-.38,3.39,.29,7.01-2.79,9.45-3.11,2.51-8.22,1.22-9.7-2.55Z"/>
    <path d="M721.61,260.81c-11.84-2.7-3.57-18.52,5.39-11.33,4.5,4.08,.79,12.44-5.39,11.33Z"/>
    <path d="M642.54,270.76c-4.97-4.93,1.18-13.19,7.34-12.13,3.75,.42,6.73,3.84,6.2,7.68-.76,6-9.37,8.33-13.54,4.46Z"/>
    <path d="M456.11,503.81c-7.41-2.92-3.49-11.96,.71-16.04,3-5.95,6.9-11.4,10.61-16.93,6.55-7.1,13.91-13.48,22.01-18.8,3.47-3.93,8.49-5.61,11.91-9.55,5.33-3.58,8.9-7.67,15.04-9.49,4.49-1.66,8.13-5.2,12.98-5.78,.51-.2,.43-.2,.82-.39,10.36-5.78,21.69-9.72,32.9-13.5,5.5-1.09,11.92-6.57,17.16-2.55,6.93-1.43,10.46,8.28,4.34,11.72,0,.05,0,.1,0,.15,4.31-1.06,10.12-3.12,12.65,2.01,3.21,6.98-4.74,9.96-10.17,11.09-11.38,3.93-22.49,8.6-33.52,13.43-6.08,1.99-14.14,9.53-19.93,3.55-1.3,.31-2.61,.45-3.94,.26-1.59-.22-2.95-1.2-3.87-2.49-3.47,1.45-7.93,.11-9.32-3.57-3.6,3.26-7.65,5.56-11.02,9.05-3.48,1.83-6.34,4.3-9.31,6.85-7.31,5.17-14.92,10.72-20.15,18.04-4.25,5.36-6.71,11.93-11.19,17.08-.73,4.07-4.55,7.36-8.72,5.88Z"/>
    <path d="M703.68,466.82c-1.36-9.6,11.96-8.04,18.05-10.53,6.75-1.54,13.71-4.19,19.17-8.29,4.72-3.43,9.4-6.96,12.88-11.62,2.94-7.4,5.26-15.49,6.28-23.39,2.37-7.05-.68-24.53,11.07-22.03,3.99,1.35,5.16,5.91,3.47,9.5-.37,3.41-.87,6.79-1.23,10.21-1.68,8.72-2.69,17.66-6.25,25.86-.74,3.81-3.3,8.4-6.02,10.72-3.05,3.9-7.06,6.84-11.04,9.65-4.78,3.66-9.57,6.51-14.96,8.7-7.83,2.43-15.85,4.46-23.91,6.13-3.33,.6-6.79-1.4-7.51-4.9Z"/>
    <path d="M708.52,469.02c-8.05-.55-14.98-5.27-22.41-7.77-12.19-2.27-21.89-10.49-32.01-17.04-12.26-5.42-21.5-14.99-29.75-25.31-4.08-6.06-8.27-10.32-10.63-16.64-2.84-3.97-7.72-7.66-3.57-12.72,4.89-4.92,9.7-1.91,12.41,3.39,2.3,2.62,3.35,5.96,4.99,8.97,2.36,2.27,4.1,5.01,5.64,7.86,7.66,9.74,16.34,18.86,27.8,23.83,7.81,5.17,14.62,10.43,23.05,14.07,5.59,1.27,10.91,3.34,16,5.66,3.07,1.17,6.14,3,9.46,3.06,6.58-1.46,13.25-1.22,19.92-1.38,8.12-1.54,10.74,10.51,2.61,12.4-4.07,.86-8.21,0-12.32,.44-3.79-.1-7.41,1.43-11.2,1.18Z"/>
    <path d="M403.63,608.16c-5.97-3.31-2.77-9.04-.41-13.62,3.7-9.28,7.37-18.55,11.36-27.71,2.38-8.68,7.38-16.11,10.35-24.52,2.89-5.47,6.49-10.56,8.59-16.42,2.1-5.06,4.47-9.88,7.41-14.45,1.73-3.99,3.48-8.01,5.9-11.7,1.95-2.39,2.95-5.25,4.32-7.96,2.82-4.57,5.97-8.45,8.15-13.16,5.76-7.22,10.6-15.15,16.8-22.06,1.55-1.65,3.41-2.68,5.26-3.9,2.34-2.16,4.54-4.28,7.5-5.58,6.27-2.71,10.32-6.24,16.52-8.28,3.73-3.16,9.32-5.07,13.48-7,3.14-1.93,6.07-4.12,9.75-5,9.55-5.27,19.23-10.61,29.86-13.24,6.97-2.99,15.42-4.39,22.62-5.89,5.05-2.18,12.37-1.38,12.21,5.58-.21,3.58-3.35,6.02-6.79,6.03-12.64,3.07-25.63,5.36-37.31,11.32-7.17,2.64-13.48,7.16-20.56,9.97-5.31,4.05-12.2,5.2-17.4,9.47-4.14,1.31-7.47,3.87-11.39,5.63-3.69,1.94-7.52,3.5-10.34,6.69-5.74,3.51-10.16,10.09-13.98,15.66-1.55,2.67-3.43,5.11-5.51,7.37-.97,2.12-2.16,4.45-3.57,6.18-4.21,5.61-7.14,12.79-10.98,18.52-1.87,3.44-2.8,7.22-5.28,10.33-4.54,8.79-7.93,18.1-13.36,26.44-2.44,5.58-4.65,11.22-7.63,16.55-2.82,8.09-6,15.93-9.52,23.66-1.65,5-3.72,9.84-5.86,14.65-1.49,4.4-5.14,8.94-10.21,6.45Z"/>
    <path d="M501.09,448.27c-5.8-7.34,5.64-13.22,11.02-15.78,3.47-1.85,6.36-4.74,10.46-5.3,4.14-1.17,7.32-4.08,11.19-5.79,9.45-3.75,18.9-7.46,27.97-12.08,5.88-1.91,11.54-4.27,17.39-6.28,4.61-1.33,9.28-2.31,13.52-4.6,4.69-2.02,8.76-2.48,12.2-6.15,3.71-3.21,9.92-6.68,13.53-1.45,1.91,2.83,1.2,6.91-1.69,8.8-3.38,1.59-5.67,4.51-8.79,6.45-4.96,2.2-10.27,3.67-15.09,6.26-3.85,1.18-8.31,2.08-12,3.54-4.82,1.48-8.26,3.65-13.06,4.67-4.43,1.93-8.61,4.53-13.2,6.05-5.62,4.48-12.96,6.53-19.19,10.17-3.93,1.74-8.57,1.7-12.21,4.09-2.93,2.31-6.54,3.32-9.62,5.29-3.22,3.29-8.64,6.46-12.43,2.13Z"/>
    <path d="M934.64,606.83c-3.82-2.88-4.3-8.11-4.73-12.53-1.26-6.1-1.77-12.33-3.37-18.35-6.19-16.78-10.3-34.18-16.15-51.07-1.5-5.31-4.81-9.73-6.95-14.76-2.3-5.5-3.77-11.31-6.71-16.55-3.82-10.37-12.74-16.26-20.54-23.07-4.08-4.11-8.11-8.58-12.25-12.53-5.62,1.01-9.2-5.02-13.4-7.77-6.95-7.07-15.24-12.15-23.92-16.8-6.6-4.27-14.55-5.53-21.18-9.65-2.87-1.98-5.39-4.55-8.7-5.83-2.57-.41-5.25-.62-7.56-1.94-3.94-2.63-8.84-4.12-12.59-6.89-2.35-.22-5,.44-7.49,.01-8.27-.67-7.55-12.95,.78-12.65,2.91,.46,5.74-.87,8.64-.02,4.82,1.19,8.44,4.65,13.07,6.3,2.34,1.48,4.61,2.64,7.44,2.72,3.32,.62,6.2,2.52,9,4.32,4.97,4.89,11.71,6.2,17.87,8.92,9.69,5.16,19.05,9.84,27.28,16.69,6.8-1.2,11.88,6.44,16.33,10.36,4.82,4.8,9.8,9.31,14.21,14.42,6.09,5.48,11.75,9.82,17.32,15.62,4.14,5.4,6.22,10.44,9.06,16.28,2.15,2.82,2.93,6.31,4.31,9.55,4.75,5.52,7.17,12.18,8.45,19.24,5,13.46,11.41,26.49,15.45,40.29,1.4,5.6,1.76,11.31,2.97,16.93,1.28,4.6,3.72,8.83,4.22,13.64,1.26,7.33-.56,20.13-10.85,15.11Z"/>
    <path d="M531.11,533.88c-5.93-3.23-7.19-15.18,1.04-16.02,3.41-.25,6.25,2.25,6.76,5.53,9.17,.64,18.01-2.4,26.43-5.66,11.23-3.32,22.14-7.3,32.76-12.21,1.2-6.79,11.63-6.81,14.38-1.07,1.45,2.85,.66,6.77-1.88,8.77-13.84,8.21-29.65,12.56-44.79,17.83-10.68,3.71-23.96,8.03-34.71,2.83Z"/>
    <path d="M542.54,537.54c-5.12-.22-7.83-6.71-4.39-10.5,6.06-4.54,13.23-7.79,19.59-12.07,.25-2.04,1.52-3.91,3.44-4.99,6.75-3.98,13.66-7.72,20.59-11.38,5.42-3.29,10.85-6.63,16.78-8.93,4.17-1.74,9.11,2.34,8.36,6.72,2.62-.72,5.55-1.9,8.29-1.28,6.64,1.56,6.59,10.35,.47,12.74-12.03,6.7-25.55,9.93-38.05,15.61-10.74,3.89-20.18,8.29-30.45,12.76-1.45,.78-2.95,1.5-4.62,1.32Z"/>
    <path d="M422.15,646.47c-20.81-18.15-21.79-49.42-4.74-70.47,2.53-9.62,8.08-18.79,14.8-26.23,4.46-3.57,4.67-8.94,6.56-13.97,1.99-4.75,3.84-9.45,5.88-14.18,6.4-12.14,15.78-22.09,22.1-34.35,12.73-18.53,29.64-35.27,49.29-46.24,9.41-7.45,20.77-11.99,31.79-16.64,4.3-4.58,9.15-8.58,15.09-11.23,11.68-4.3,22.67-8.86,35.34-8.42,18.91,.83,36.16,13.94,43.01,31.35,11.02,4.33,19.53,12.84,29.44,19.17,8.33,1.94,25.85,6.52,31.51,8.97,5.17,2.57,10.8,3.3,16.5,3.66,5.53-3.42,12.04-5.64,16.99-7.07,5-2.34,9.96-5.05,15.1-7.01,17.84-41.05,65.42-43.96,97.34-16.89,9.34,7.15,15.67,16.44,24.61,24.03,19.39,17.99,33.05,41.62,42.09,66.38,4.08,7.95,7.58,15.52,9.59,24.22,13.46,27.45,13.73,54.43-12.84,73.92-13.28,9.47-29.74,9.89-45.4,10.34-17.82,1.29-26.38,2.56-40.6,2.33-35.45-.47-70.75,2.4-106.07,4.36,0,0,0,.07,0,.07-27.93,.58-53.3,1.82-80.42,3.98-23.46,3.57-47.43,3.34-70.95,.46-11.62,.23-23.21,3.76-34.84,.35-13.18-3.71-26.76-6.03-40.46-6.76-16.5,21.05-51.34,24.51-70.71,5.84Z"/>
    <path d="M425.63,654.38c-26.73-13.65-33.11-43.72-22.15-67.75,3.31-11.1,11.13-19.51,19.87-26.93,6.42-8.01,13.48-15.66,21.79-21.79,5.04-3.94,8.28-9.33,13.21-13.37l.99-1.46c6.24-10.08,14.78-17.94,26.25-21.98,20.89-7.65,45.96,.89,57.75,19.75,42.26-3.75,84.34,.08,126.59,.96,25.25,.39,50.82,1.91,76.04,3.43,9.2,.05,18.33,.33,27.53,.45,15.54-6.02,35.52-3.86,49.16,5.66,22.06,14.64,28.81,46.5,13.52,68.39-17.08,24.51-46.82,26.52-73.46,24.02-21.3-.15-41.8-.94-62.9-2.38-43.67-1.29-87.37-3.73-131.08-3.66-10.97,.33-21.86,2-32.83,2.33-8.97,.84-19.09-.57-27.07,3.93-7.44,5.45-15.64,8.6-21.32,16.06-14.65,18.08-40.62,25.03-61.88,14.33Z"/>
    <path d="M609.81,419.81c-11.07-1-8.57-24.26,3.2-18.16,7.5-3.31,12.56,8.68,6.56,13.25-1.21,3.69-5.98,6.73-9.76,4.91Z"/>
    <path d="M766.85,439.51c-2.37-3.84,1.13-8,1.14-11.97,.14-2.67,.36-5.34,.4-8.01-.38-2.75-.32-6.35,2.98-7.14,.92-3.91,4.9-4.02,8.04-3.05,4.07-5.66,9.51,1.4,12.36,4.72,5.63-4.21,9.28,4.95,13.78,7.07,3.85,3.27-.72,9.53-5,6.76-.9,.74-2.12,1.1-3.41,.94-.11,.36-.28,.7-.5,1.03-.68,1-1.85,1.72-3.07,1.87,.07,3.7-5.04,5.66-7.4,2.74-1.62-2.44-3.27-4.84-4.74-7.37-.24,3.15-.09,6.33,0,9.47-.16,3.56-4.82,5.31-7.24,2.69-1.67,2.51-5.64,2.92-7.33,.25Z"/>
    <path d="M874.24,634.68c-5.05-9.05,10.73-8.28,15.84-10.15,9.36-3.45,19.41-5,28.32-9.64,4.24-2.46,6.17-7.42,8.02-11.79,1.15-2.47,4.66-3.09,6.61-1.25,.56-.05,1.14,.01,1.74,.22,1.24,.43,2.07,1.23,2.68,2.23,.29,.15,.57,.32,.82,.53,.36-.4,.71-.81,1.05-1.24,.03-.04,.06-.08,.08-.11-4.4-2.48-1.41-9.3,3.43-7.71,11.61,2.12,4.63,12.93-1.2,17.55-4.41,4.56-9.92,7.26-15.95,8.84-6.75,3.47-13.84,6.38-21.46,7.09-4.15,1.61-8.51,2.64-12.75,3.8-4.24,1.78-8.79,2.91-13.38,3.17-1.44,0-2.84-.35-3.85-1.55Z"/>
    <path d="M446.02,662.07c-4.47-.82-14.19-.97-12.66-7.66,2.19-5.47,7.99-1.05,11.99-.93-.59-3.57,4.32-6.19,6.97-3.57,.83,.81,1.65,1.64,2.54,2.38,5.49,.57,11.5,.13,16.85-1.26-5.66-3.29-1.9-8.99,3.8-8.98-.51-8.14,34.47-7.08,40.99-7.48,3.53-.11,7.06-.15,10.56-.52,2.45-.67,5.63-.56,6.78,2.01,13.12,.23,24.64-7.19,37.56-7.81,4.6-.85,7.82,4.9,3.76,7.81-4.12,1.88-8.9,2.07-13.23,3.49,.36,3.66-3.12,4.93-6.07,4.72-8.14,1.33-16.48,1.35-24.72,1.59-5.16,1.23-9.95,2.46-14.73,4.24-7.9,2.27-16.24,2.39-24.21,4.29-9.07,1.44-17.14,5.69-26.25,6.45-6.86-.06-13.23,1.54-19.94,1.23Z"/>
    <path d="M697.79,237.26c-.9-3.6-3.24-6.87-2.68-10.63-.41-2.93,3.01-4.62,4.66-1.91,.53-.38,1.21-.43,1.82-.24,.27-.21,.59-.36,.92-.42,.42-.57,1.13-.94,1.84-.88,.32,.03,.6,.11,.86,.24,.36-.29,.78-.45,1.24-.47,.11-.29,.28-.55,.47-.8,.7-.89,2.11-.93,2.94-.24,.47-.2,1.01-.23,1.5-.09,.21-.7,.75-1.23,1.43-1.48,.78-.29,1.58-.06,2.14,.47,.34-.11,.72-.14,1.07-.08,.83-2.05,3.92-1.59,4.24,.56,.2-.02,.41-.01,.62,.04,.16-.51,.44-.95,.92-1.27,1.01-.7,2.27-.34,2.94,.6,.48-.05,.97,.05,1.44,.33,.32,.19,.56,.44,.74,.73,.05-.04,.09-.07,.14-.1,.6-1.64,3.05-1.8,3.93-.37,.17,0,.34,0,.5,.05,.43,.12,.8,.28,1.12,.57,.32-.19,.68-.3,1.05-.33,.59-.04,1.21,.17,1.67,.57,.44-.17,.93-.19,1.41-.03,.08,.03,.15,.05,.22,.09,2.32-2.7,6.18-.02,8.69,1.11,1.93,1.01,4.16,1.4,5.81,2.94,3.44,2.67,.03,6.74-3.38,4.3-.86,.42-1.87,.58-2.8,.29-.46,.32-.98,.51-1.53,.63-.91,.2-1.84,.07-2.76-.14-1.34,1.95-4.5,1.05-5.99-.28-.26-.01-.52-.08-.76-.18-.25,.43-.6,.79-1.09,1.01-.75,.33-1.68,.3-2.31-.28-.77,.23-1.66-.03-2.22-.63-.09-.09-.17-.2-.24-.3-.34,2.74-4.17,2.9-4.49,.06-.03,0-.06,0-.09,0-.59,1.72-3.03,2.07-3.96,.46-.56,.26-1.22,.27-1.8,.04-.03,.03-.07,.05-.1,.07-.85,.58-2,.46-2.75-.21-.12,.06-.25,.12-.39,.16-.38,.12-.79,.14-1.17,.06-.2,.23-.44,.42-.74,.57-.48,.24-1.01,.29-1.5,.17-.28,.51-.69,.92-1.31,1.14-.92,.33-1.78-.03-2.36-.7-.09,0-.17,0-.26-.01-.46,.75-1.16,1.32-2.15,1.25-.28-.02-.54-.08-.78-.2-.43,.2-.94,.24-1.4,.12-.05,.03-.11,.06-.16,.09-.57,.27-1.2,.28-1.75,.06h0c.45,1.54,1.21,3.82-.82,4.54-.98,.35-2.11-.1-2.59-1.05Z"/>
    <path d="M638.73,244.95s-.01,0-.02-.01c-3.51-.08-2.43-5.08,.83-4.19,.1-.14,.22-.27,.36-.39,.46-.41,1.05-.58,1.64-.53,.46-.62,1.2-.95,1.95-.91,.43-.26,.95-.37,1.45-.32,.03-.03,.06-.05,.09-.08,.49-.44,1.12-.6,1.75-.54,.34-.46,.88-.79,1.43-.86,.07-.15,.15-.3,.26-.44,.59-.78,1.56-1.13,2.47-.83,.49-.63,1.23-.93,1.97-.83,.29-.16,.61-.25,.93-.25,.3-.33,.7-.57,1.15-.67,.96-.19,1.84,.27,2.38,1.03,.22-.1,.46-.15,.7-.16,.36-1.93,3.06-2.32,3.95-.57,.22-.02,.44-.01,.66,.03,0,0,0,0,.01-.01,.53-.5,1.31-.64,1.99-.45,.27-.33,.64-.57,1.06-.69,.13-1.43,.13-3.37,1.6-4.13,1.11-.53,2.75-.15,3.3,1.01,2.43,2.01,2.63,6.3,2.73,9.13,.05,1.69,.86,4.29-1.46,4.8-1.44,.33-2.6-.93-2.64-2.31-.17-.17-.29-.37-.39-.57-.05,.02-.09,.05-.14,.07-.09,.25-.22,.48-.41,.69-.4,.45-.92,.68-1.47,.72-.02,1.88-2.57,2.68-3.74,1.26-.44,1.01-1.57,1.7-2.68,1.27-.45-.18-.79-.42-1.1-.8-.57,.39-1.33,.49-1.99,.26,0,0,0,0,0,0-.57,.26-1.18,.27-1.71,.06-.16,.09-.34,.15-.54,.19-.05,.01-.1,.02-.15,.02-.9,1.27-2.93,1.04-3.65-.28-.19,.07-.38,.11-.58,.12-.4,.03-.79-.06-1.14-.22-.6,.33-1.35,.35-1.99,.06-.23-.1-.41-.24-.58-.41-.16,.08-.34,.15-.52,.19-.68,.14-1.27-.04-1.77-.41-.34,.47-.85,.81-1.42,.9-.05,0-.1,.01-.14,.02-.9,1.95-3.18,1.29-4.43,.05Z"/>
    <path d="M626.83,248.3c-.57-1.75,1.06-3.25,2.25-4.31,.21-1.39,2.1-1.99,2.95-2.74,1.75-1.69,3.97-3.07,6.15-3.89,2.56-2.05,5.8-2.66,8.84-3.59,1.36-1.02,3.05-1.94,4.69-2.17,1.96-.85,3.78-1.27,5.86-1.59,2.74-1.01,5.62-2.07,8.56-1.79,3.32-1.44,5.64,2.49,2.17,3.87-2.53,.49-5.07,.29-7.53,1.21-1.88,.97-4.02,1.02-5.89,1.6-1.3,.74-2.92,.8-4.22,1.49-2.76,2.43-6.97,1.93-9.78,4.27,0,0,0,0,0,0,3.24,4.5-4.85,5.7-7.64,6.57-1.83,1.11-4.91,4.33-6.38,1.08Z"/>
    <path d="M619.58,252.35c-7.24-2.15,6.29-11.86,8.87-13.44,3.49-1.56,6.17-3.99,9.78-4.82,4.2-1.53,7.72-3.66,12.18-4.1,5.68-1.24,11.33-2.55,17.17-1.64,1.14,.12,2.06,1.06,1.98,2.23-.08,1.12-1.1,2.1-2.24,1.98-4.95-.67-9.76-.01-14.52,1.33,.36,2.34-2.19,2.43-3.77,3.03-2.36,.74-4.81,1.26-7.19,1.9-2.33,1.74-5.39,3-7.97,4.26-1.92,1.44-3.74,2.87-6.06,3.63-1.53,1.62-3.17,2.99-5.26,3.87-.83,.81-1.71,1.85-2.98,1.77Z"/>
    <path class="cls-1" d="M774.14,519.14c-4.75-5.46-5.18-13.08-6.74-19.86-.6-2.68,3.59-3.56,4.13-.89,1.41,6.04,1.69,12.14,5.19,17.25,1.75-4.13,.74-9.15,2.98-13.04,1.95-2.12,4.64,.04,5.67,2,2.08-5.73,6.96-1.84,9.02,1.66,1.84-3.61,6.08-5.12,9.91-5.36,1.73,0,4.47,0,4.38,2.39-.16,2.19-2.46,2.08-4.1,1.83-1.3,.07-2.58,.37-3.76,.84-1.56,.56-2.46,1.81-3.26,3.18-3.32,4.54-6.13,.28-8.38-2.66-1,3.63-4.86,5.96-6.71,1.56-.44,4.26-1.69,16.19-8.32,11.11Z"/>
  </g>
</svg>