<?xml version="1.0" encoding="UTF-8"?>
<svg id="Vektorebene" xmlns="http://www.w3.org/2000/svg" viewBox="0 0 1536 834">
  <defs>
    <style>
      .cls-1 {
        fill: #fff;
      }
    </style>
  </defs>
  <path d="M441.78,606.21c0-1.96,1.62-3.58,3.58-3.58s3.58,1.62,3.58,3.58-1.62,3.58-3.58,3.58-3.58-1.62-3.58-3.58Z"/>
  <path d="M685.64,283.64c-3.54-15.91-7.56-32.09-7.63-48.45,1.44-32.38,10.26-65.33,27.25-92.94,4.01-6.29,4.63-13.9,8.06-20.45,5.56-10.48,9.89-22.26,19.23-29.98,20.3-25.24,58.69-25.87,85.74-11.66,49.3,20.8,38.15,44.87,37.83,88.82,0,7.56,2.2,15.74,7.65,21.14,10.69,8.41,21.75,17.61,23.84,31.92,4.08,10.77,2.37,21-1.46,30.89-.64-.77-1.38-1.5-2.22-2.01-.63-.93-1.36-1.77-2.33-2.39-.37-.24-.76-.41-1.16-.52,1.89-5.09,2.93-10.37,2.19-15.99-1.12-5.82-2.61-11.42-4.61-16.9-3.71-7.87-10.97-12.95-17.5-18.3-24.57-22.44-1.42-58.99-13.9-85.72-5.32-11.57-17.01-17.57-27.93-22.81-19.21-10.26-44.49-15-64.34-4.57-3.73,2.5-8.32,4.29-11.58,7.37-3.38,4.23-7.5,7.74-11.12,11.72-6.51,11.29-13.11,22.44-16.42,35.07-4.78,11.19-12.65,20.32-15.54,32.33-10.22,23.77-16.23,50.78-13.8,76.65,2.59,16.86,5.73,33.69,10.13,50.14,2.98,7.57,6.06,15.32,9.5,22.76-2.35,.39-4.66,1.08-6.85,2.15-5.37-12.42-11.42-24.68-13.04-38.26Z"/>
  <path d="M675.06,265.59c-7.18-3.72-7.63-11.23-10.47-17.7-4.96-8.5-8.22-17.66-10.19-27.2-1.99-7.43-4.26-15.57-1.82-23.08,.35-6.29-2.49-11.97-4.35-17.75-1.44-8.32-1.91-16.76-2.57-25.17-.53-7.58,2.13-14.53,6.86-20.34,5.83-12.99,7.54-28.33,15.97-39.89,4.62-9.91,11.45-17.19,20.71-22.65,8.65-10.9,17.4-21.95,25.86-32.91,6.27-7.07,16.36-8.32,25.05-10.35,12.37-.21,22.7,8.94,33.06,14.65,6.52,2.92,12.49-4.26,15.51-9.28,9.93-17.75,16.08-21.74,36.17-25.19,17.29-4.58,34.59,2.73,49.17,11.66,5.37,4.27,10.94,7.19,15.28,12.28,3.88,5.58,7.48,11.38,10.37,17.54,8.77,17.75,4.14,39.01,12.67,56.87,2.01,5.28,5.97,8.81,9.37,13.07,8.72,12.13,4.64,28.51,2.56,42.18-2.24,10.55-8.75,20.16-10.58,30.45-1.05,16.01,5.01,33.18-1.92,48.52-4.03,8.7-12.3,13.81-21.81,11.27-1.79-.76-2.48-3.08-1.66-4.78,1.45-3.21,5.13-1.32,7.71-1.96,7.03-.44,10.53-8.6,11.37-14.67,2.23-14.4-2.97-28.81-.1-42.99,6.7-17.26,13.93-34.46,12.36-53.22-.03-4.26-1.72-8.17-4.26-11.3-22.21-20.52-10.43-54.56-26.28-78.13-8.84-16.3-27.17-24.9-44.23-30.22-12.98-2.12-26.65,1.12-38.34,6.61-7.27,5.82-10.16,15.54-16.54,22.22-4.82,5.27-12.92,9.22-19.81,5.63-10.6-5.26-21.56-17.01-34.16-12.96-3.95,1.35-8.48,1.89-12.11,3.97-3.8,2.33-5.94,6.23-8.58,9.53-7.12,9.19-14.25,18.39-21.71,27.26-5.16,3.73-10.96,6.62-14.11,12.44-5.58,8.23-10.42,17.31-13.39,26.71-3.12,10.11-5.82,20.23-12.16,28.83-2.64,10.42,.26,21.17,1.06,31.63,1.17,4.59,3.35,8.88,4.18,13.58,1.76,6.76-1.76,13.3,.22,20,2.17,8.7,3.32,17.79,7.63,25.74,1.47,4.35,4.07,7.72,5.61,11.94,.64,2.28,1.05,4.39,1.94,6.53,.77,2.12,2.58,3.45,4.39,4.66,3.93,2.42-.12,8.67-3.92,6.01Z"/>
  <path d="M801.8,184c-1.51-5.16,5.41-5.19,8.48-6.79,10.77-4.94,23.57-8.62,35.29-6.16,4.25,.33,8.14,2.33,11.73,4.48,3.55,2.94-1.11,8.45-4.62,5.47-3.38-1.7-6.73-3.07-10.57-3.17-7.92-1.78-15.59,1.52-23.13,3.38-4.64,.91-13.99,8.79-17.18,2.8Z"/>
  <path d="M807.21,191.63c-3.92-.68-3.82-5.13-4.51-8.21-.35-1.92,.78-3.84,2.72-4.27,2.98-.66,4.55,2.15,4.67,4.73,10.06-4.22,21.32-5.63,32.09-4.86,4.54-.08,15.7-2.31,14.79,5.09-.58,1.79-2.7,2.98-4.51,2.29-3.51-1.18-7.18-.27-10.78-.22-5.76-.5-11.19,.06-16.86,.71-6.1,.64-11.54,4.64-17.6,4.74Z"/>
  <path d="M714.69,188.08c-6.29-3.74,.49-10.15,5-11.75,5.66-1.43,11.28-3.77,17.19-3.12,3.15-.71,6.46-1.85,9.69-1.14,4.9,.02,9.21,1.54,13.51,3.66,4.36,.92,10.52,1.24,12.97,5.41,4.04,2.29,.18,8.56-3.64,6.14-2.66-1.42-6.5-1.85-9.31-1.83-15.36-1.37-30.36,4.67-45.41,2.63Z"/>
  <path d="M859.52,206.26c-.25-.21-.51-.41-.77-.62-.88-3.6-3.11-6.88-6.43-8.97-1.29-.82-2.74-1.57-4.18-2.13-1.46-.58-2.97-1.21-4.53-1.42-1.42-.19-2.74-.17-4.1-.09-2.65-.28-5.19-.24-7.97,.49-.8,.17-1.6,.34-2.39,.52-.04-.03-.09-.06-.13-.09,.35-.07,.7-.13,1.04-.19,11.68-4.37,25.61-.21,34.75,7.69,2.39,2.55-.1,5.98-2.81,5.98-.86,0-1.74-.34-2.49-1.17Z"/>
  <path d="M832.94,193.22c-.41,.09-.8,.17-1.21,.26,.39-.09,.8-.19,1.21-.26Z"/>
  <path d="M799.97,236.5c-.8-3.91-1.27-7.86-1.21-11.86-.24-5-2.56-23.59,4.97-22.79,1.94,.37,3.21,2.28,2.87,4.2-.78,4.61-1.92,9.31-.95,13.94,.57,6.11,.16,11.89,1.84,17.7-.35,.1-.7,.22-1.04,.34-2.11-.8-4.29-1.31-6.48-1.52Z"/>
  <path d="M772.31,377.95c-9.36-.35-17.83-4.23-26.15-8.17-3.95-2.01-8.36-3.13-11.55-6.36-8.88-7.89-15.04-17.78-22.87-26.6-4.57-3-6.64-8.1-9.91-12.07-3.28-2.59-9.68-9.74-4.72-13.19,4.48-2.03,5.22,3.49,7.2,5.86,3.49,2.72,6.04,6.7,8.25,10.39,10.33,9.18,16.96,21.58,27.31,30.74,12.13,6.59,25.74,14.01,39.96,11.86,16.46-3.49,31.73-11.96,43.55-23.84,.54-.1,1.07-.29,1.56-.57,.56-.3,1.06-.73,1.51-1.19,.54-.32,1.04-.69,1.57-1.1,.78-.6,1.55-1.23,2.28-1.88,.11-.09,.24-.19,.35-.3,.13-.07,.26-.13,.41-.19l.17-.06c.06,.11,.09,.21,.13,.32,.07,.21,.13,.43,.21,.65-.02,.09-.02,.17-.04,.26-.06,.54,0,1.08,.02,1.62,.1,1.41,.11,2.88,.43,4.26-6.43,7.1-14.92,12.35-22.33,18.22-11.14,5.45-22.96,11.36-35.59,11.36-.58,0-1.16,0-1.73-.04Z"/>
  <path d="M831.29,341.28s.07,.09,.09,.13c-.04-.04-.06-.09-.09-.13Z"/>
  <path d="M741.25,212.98c-8.62,.37-15.27-12.26-6.62-17.18,3.64-3.4,8.52-3.6,12.98-1.77,3.01,.91,6.93,4.4,5.18,7.78,1.82,5.99-6.33,11.18-11.54,11.17Zm.58-7.14c1.52-.34,2.69-1.57,3.92-2.47-.22-1.07-.89-1.94-1.43-2.86-3.17-1.26-4.49,.1-6.65,2.06,.55,1.96,2.03,3.41,4.16,3.26Z"/>
  <path d="M713.39,203.39c-2.27-5.43,5.72-6.91,9.22-8.58,7.9-4.98,19.04-4.76,28.09-4.64,6.16,.57,12.33,3.56,17.33,6.87,3.97,2.39,.21,8.6-3.71,6.12-1.01-.73-2.18-1.49-3.25-2.04-5.65-3.24-11.86-4.54-18.3-3.78-4.81,.43-10.03,.62-14.5,2.36-2.24,1.56-4.79,2.62-7.22,3.35-2.31,1.64-5.75,3.63-7.67,.35Z"/>
  <path d="M811.05,206.11c-.49-1.87,.72-4.13,2.73-4.42,1.16-.93,2.06-2.09,3.31-2.93,2.86-1.32,5.45-2.76,8.04-4.57,6-2.73,12.9-2.96,19.36-2.33,5.5,1.69,12.43,3.04,15.82,7.95,3.7,5.34-4.13,8.72-6.67,3.02-7.85-4.24-17.84-5.91-26.11-1.76-2,1.96-4.72,2.61-6.99,4.07-2.2,2.82-7.78,5.93-9.5,.98Z"/>
  <path d="M836.16,213.14c-4.11-.95-5.73-5.48-6.64-9.14-.47-5.61,4.72-10.17,9.94-10.65,7.62-.61,7.79,9.05,.16,7.19-1.29,.43-2.53,1.21-2.98,2.56,.37,1.32,.79,2.04,1.37,3.12,.02,0,.03,.01,.05,.02,.05,0,.1,.02,.14,.02,3.19-1.29,3.91-6.71,8.18-4.38,5.8,4.38-5.24,13.45-10.22,11.27Z"/>
  <path d="M841.66,208.2c-1.47-1.16-1.87-3.56-.58-5.04,.66-.47,.43-1.25,.22-1.91-6.86-3.73-.26-10.77,4.93-5.27,4.57,3.49,2.31,15.92-4.57,12.22Z"/>
  <path d="M826.53,425.16c.02-1.96,1.64-3.56,3.6-3.56s3.58,1.66,3.56,3.6c-.02,1.96-1.64,3.56-3.6,3.56s-3.58-1.66-3.56-3.6Z"/>
  <path d="M747.96,448.45c-12.22-.73-24.38-1.42-36.25-4.68-15.99-4.52-29.44-14.38-43.71-22.35-8.26-4.62-13.43-12.5-18.08-20.38-4.94-5.02-10.07-10.24-12.49-17.01-2.82-11.2,4.94-9.52,12.27-12.24,7.44-2.68,14.46-6.64,21.32-10.52,14.25-6.13,16.68-22.47,16.4-36.36,1.06-7.6,.96-14.88,.36-22.28-.97-4.35,5.92-6.08,6.96-1.63,1.58,10.17-.15,19.67-.17,29.74-.73,9.99-2.45,21.21-9.23,28.97-3.85,3.1-7.54,6.36-11.96,8.53-9.4,4.86-18.68,10.95-29.29,12.3,1.27,6.23,6.14,10.4,10.25,14.69,4.24,4.69,6.41,11.13,11.19,15.41,20.44,14.4,43.26,28.72,68.89,29.64,18.77,2.13,39.12,.29,55.69-9.27,13.27-8.25,24.19-21.14,30.76-35.15,1.58-6.09,3.5-12.12,4.28-18.37-.46-8.03-1.35-15.98-.41-23.94-.91-5.19,6.85-6.37,7.18-.97-.39,7.15-.89,14.21,.32,21.29,.07,25.47-16.32,48.6-36.92,62.33-13.96,9.02-31.01,11.57-47.36,12.26Z"/>
  <path d="M358.19,795.12c-5.46-12.34-1.32-25.94-.04-38.48,3.04-23.15,6.43-46.41,12.46-69,3.79-24.44,10.5-48.11,17.8-71.7,6.85-28.45,19.16-54.91,31.9-81.11,11.55-24.98,24.05-49.72,38.58-73.09,8.64-10.85,18.06-21.02,26.99-31.6,13.56-11.98,29.43-20.52,45.57-28.51,10.38-3.06,21.85-3.07,32.07-6.81,8.1-5.26,18.18-6.48,26.03-11.59,7.74-9,16.38-17.35,27.79-21.49,9.5-2.36,19.27-6.93,29.08-6.62,8.33-1.59,15.74,2.8,23.62,4.78,4.36,1.51,2.39,8.14-2.16,6.83-5-1.31-9.8-3.23-14.73-4.69-4.96,.03-9.34,.29-14.09,.82-11.32,3.45-23.25,5.72-32.76,13.28-3.85,3.02-6.16,6.3-9.26,9.8-4.38,5.48-11.36,7-17.5,9.68-5.38,1.32-9.49,4.01-14.38,6.27-10.57,3.71-22.24,3.49-32.77,7.11-14.81,8.01-29.94,15.56-42.37,27.14-11.67,14.63-25.83,27.47-34.15,44.35-18.04,33.78-35.15,68.02-50.03,103.34-15.43,46.13-27.67,93.48-35.65,141.4-2.98,19.61-7.24,39.71-7.57,59.28,.64,3.11,1.73,5.97,2.56,9,1.12,4.37-5.93,6.24-6.98,1.6Z"/>
  <path d="M481.16,809.93c-5.67-2.58,.26-10.56,1.62-14.53,3.45-6.97,5.5-14.01,8.88-20.8,1.53-3.09,4.04-6.31,5.28-9.44,1.34-3.75,.87-7.93,2.48-11.64,.99-2.16,3.75-2.61,5.54-1.21,1.08,.84,1.32,2.15,1.31,3.43-.02,5.58-.84,11.14-2.16,16.55-2.64,11.35-4.09,22.99-6.98,34.27-.56,1.87-2.67,2.91-4.5,2.33-1.88-.6-2.89-2.63-2.33-4.5,1.58-5.12,2.12-10.47,3.17-15.72-1.67,4.57-4.12,9.39-6.06,13.69-1.27,2.99-1.65,8.83-6.25,7.56Z"/>
  <path d="M979.41,807.26c-1.9-.32-3.28-2.22-2.93-4.14,2.21-10.4-.88-20.53-.62-30.99,.2-13.22,4.14-26.95,3.43-40-1.09-20.6-4.66-40.59-5.08-61.17-.24-25.08-2.13-49.79-3.8-74.71-1.03-14.27-4.66-27.84-5.06-42.05-.57-7.5-2.24-14.94-3.35-22.26-1.97-17.39-5.14-34.42-11.54-50.76-3.17-12.08-2.49-25.56-9.48-36.38-5.1-8.72-10.77-16.96-19.55-22.32-6.6-5.29-11.78-11.75-19.76-14.94-9.19-6.26-18.96-12.23-29.7-14.92-7.25-1.49-14.82-.94-22.01-2.81-5.43-1.6-10.65-3.7-16.19-4.93-1.9-.5-2.91-2.7-2.33-4.5,2.56-6.43,15.75,2.2,20.65,2.58,6.53,1.37,12.7,1.19,19.18,2.2,12.14,2.34,23.51,8.91,33.47,15.88,5.71,2.69,11.08,6.23,15.37,10.82,8.61,7.56,18.59,13.59,23.8,24.25,10.3,12.82,10.17,29.31,13.83,44.53,6.72,16.23,9.23,33.56,11.42,50.83,2.49,12.21,3.38,24.33,4.54,36.71,5,22.7,4.42,46.06,6.42,69.02,2.11,23.21,.23,46.61,4.3,69.58,1.24,11.93,2.4,23.79,1.71,35.82-.24,10.12-3.41,20.62-3.1,30.54-.92,7.49,6.03,33.92-3.64,34.12Z"/>
  <path d="M872.3,814.46c-3.76-22.22-2.25-44.42-1.38-66.78,.54-28.17,6.5-55.89,10.4-83.73,.93-21.44,1.37-42.84,4.98-64.08,1.48-9.71,.44-19.49,2.78-29.02,.86-4.49,7.84-3.48,7.05,1.21-2.61,18.56-2.99,37.33-6.17,55.79-1.38,14.4,.17,28.95-2.37,43.26-5.78,32.2-9.96,64.55-10.28,97.21-.96,15.21-.13,30.39,2.13,45.44,.4,4.54-6.64,5.41-7.13,.69Z"/>
  <path d="M676.3,796.61c-3.77-2.68,.12-6.61,1.55-9.52,4.68-8.76,8.5-17.98,12.57-27.04,17.99-37.07,37.9-73.37,54.77-110.92-.08,.21-.1,.28-.17,.45,10.33-28.92,25.63-55.38,39.03-82.88,4.67-8.89,10.52-17.07,14.92-26.06,3.02-3.35,4.72-13.12,10.5-10.41,3.92,2.86-.47,7.09-1.96,10.11-4.08,6.47-7.06,13.58-11.49,19.85-14.77,27.24-29.42,54.9-41.08,83.57-7.58,22.11-20.32,41.78-29.9,63-6.19,14.21-13.71,27.73-20.91,41.45-6.51,12.45-11.65,25.56-17.82,38.17-2.7,3.6-4.14,12.78-10.02,10.24Z"/>
  <path d="M615.01,780.37c-5.28-3.62,5.62-13.94,7.2-18.47,18.02-31.17,35.02-62.61,50.63-94.9,2.44-3.88,8.58-.04,6.02,3.88-8.29,16.94-16.55,34.86-26.32,50.8-9.77,18.39-19.36,36.89-30.65,54.42-1.36,2.57-3.51,6.35-6.88,4.27Z"/>
  <path d="M790.3,270.69c-2.7-.89-5.35-1.58-8.21-1.01-4.61,.3-5-6.95-.36-7.14,1.98-.17,3.92-.41,5.88,0,3.04,.84,6.32,2.07,9.19,.08,3.49-2.06,12-4.71,12.3,1.62-.32,3.17-3.17,3.35-5.68,3.34-4.26,1.56-8.33,4.31-13.12,3.12Z"/>
  <path d="M779.27,270.1c-1.77-1.41-3.94-1.04-6.07-1.25-5.03-.96-3.24-8.21,1.67-7.07,3.89-.24,11.63,1.75,9.14,7.02-.96,1.57-3.12,2.23-4.74,1.3Z"/>
  <path d="M806.35,303.95c.17-.07,.32-.17,.47-.26,.39-.06,.76-.09,1.14-.15,.14-.02,.28-.03,.42-.05-.07,.04-.14,.09-.21,.14-.6,.14-1.21,.26-1.82,.35v-.02Z"/>
  <path d="M818.05,292.32s-.04-.02-.06-.02c-.09-.02-.17-.02-.26-.04,.75-.24,1.51-.45,2.29-.6,.79-.23,1.5-.2,2.11,.01-.21,0-.42,.02-.62,.06-.45,.09-.86,.27-1.19,.55-.12,0-.24,.02-.35,.03-.65-.13-1.29-.09-1.92,0Z"/>
  <path d="M820.93,287.96c-.85-.75-1.76-1.5-2.64-2.1-.96,3.75-5.46,4.35-8.35,2.34-2.29,1.33-5.01,.35-7.08-.23-1.41,.6-2.91,.99-4.46,.73-2.1-.25-3.32-1.62-5.14-2.04-1.61,.16-3.25,.36-4.8-.23-2.27,2.2-5.64,2.4-8.46,1.32-2.28,1.72-5.7,2.47-8.06,.52-2.36,2.64-6.93,1.95-8.21-1.44-3.07,2.37-7.97,1.59-9.55-2.13-1.47,1.05-3.49,1.84-5.29,1.6-1.12-.16-1.99-.72-2.64-1.52-2.66,5.03-9.68,.56-6.12-3.91,2.52-3.15,6.73-12.61,11.65-9.4,1.66,1.28,1.87,3.85,.37,5.35,.01,.07,.03,.15,.04,.22,.87-.7,1.8-1.3,2.84-1.47,4.35-4.17,11.09-3.35,16.55-4.69,6.46-.2,11.7,2.65,17.96,1.75,4.79,1.12,7.88,.36,12.39,.93,3.74-.56,10.29,.6,7.63,5.76,.12,.07,.23,.15,.34,.22,.13-.04,.27-.07,.41-.1,.96-.19,1.9-.05,2.83,.14,3.95-5.19,9.59-.74,12.95,2.75,1.32,1.21,2.84,2.63,2.84,4.55-.54,5.17-5.83,3.89-8.36,.78,0,0,.35,.3,.35,.3Zm-45.33-5.89c.25-.15,.49-.31,.73-.47,.09-.06,.19-.12,.28-.17-1.04-.31-1.91-.9-2.74-1.58-.98,.56-2.15,.19-3.11,.66,1.81-.47,3.54,.34,4.83,1.56Z"/>
  <path d="M811.36,292.75c-4.35-1.67-6.38-6.62-9.89-9.51-3.29-3.27,1.83-8.37,5.07-5.07,1.88,2,3.8,3.96,5.55,6.09,2.08-2.98,7.43-1.18,6.84,2.57-1.08,2.99-3.9,6.82-7.57,5.93Z"/>
  <path d="M829.5,313.54c-3.6-2.21-.52-5.96,.42-8.8,2.11-5.34,1.06-11.54-.96-16.51-.67-4.41-6.9-11.1-1.66-14.35,1.72-.73,4.03,.07,4.68,1.92,3.83,10.18,9.1,21.14,4.46,31.97-1.09,2.97-2.95,7.91-6.94,5.76Z"/>
  <path d="M728.37,309.04c-5.94-4.54-3.76-14.1-3.1-20.5,.1-5.56,2.38-10.72,6.17-14.74,2.33-2.61,7.73-5.35,9.22-.56,4,4.43-2.28,6.6-5.49,8.06-1.72,1.57-1.86,4.46-2.55,6.64-.47,4.33-.89,8.83-.21,13.16,1.56,3.75,1.48,9.31-4.05,7.94Z"/>
  <path d="M737.76,203.52c0-1.96,1.62-3.58,3.58-3.58s3.58,1.62,3.58,3.58-1.62,3.58-3.58,3.58-3.58-1.62-3.58-3.58Z"/>
  <path d="M835.49,205.07c0-1.96,1.62-3.58,3.58-3.58s3.58,1.62,3.58,3.58-1.62,3.58-3.58,3.58-3.58-1.62-3.58-3.58Z"/>
  <path d="M818.95,803.05c-46.21-7.1-95.92-20.26-141.44-26.9-22.18-3.71-44.01-7.03-66.49-8.06-17.22-.8-34.44-9.65-47.28-21.64-35.85-6.23-73.88-21.16-89.05-57.05-14.86-31.94-5.64-72.98,20.94-95.59,3.82-13.33,11-25.64,20.59-35.83-8.91-78.71,57.75-104.51,124.72-100.84,13.17,.48,26.4,1.04,39.62,1.82,19.59-7.02,41.65-4.99,61.58,.11,49.5,8.75,112.34,22.12,132.54,74.35,25.27,11.23,49.92,27.13,61.02,53.81,15.24,35.56,5.18,78.96-26.71,101.94-1.82,13.72,2.49,27,.75,40.84-4.71,44.42-46.8,78.43-90.79,73.02Z"/>
  <path d="M433.13,762.98c-42.27-10.52-72.6-56.71-60.03-99.84,4.56-13.42,10.87-33.53,15.24-43.13,6.1-12.53,8.27-23.75,13.67-36.21,6.66-14.43,14.56-26.81,21.31-40.93,1.93-11.39,9.61-20.09,13.44-30.65,6.81-18.07,18.56-33.2,26.98-50.39,27.41-45.46,82.42-69.03,134.13-66.86,15.94,1.3,31.45,8.18,45.05,15.92,30.64,12.29,51.12,41.04,52.6,74.65,6.22,57.72-49.41,106.13-105.42,88.57-3.06,16.61-14.04,29.31-20,44.52-4.51,23.95-20.02,42.73-29.72,64.34,0,0,.04,.03,.04,.03-3.56,6.99-7.38,20.53-9.48,26.18-12.55,39.74-57.34,64.72-97.82,53.79Zm148.76-175.06c.53-1.63,1.05-3.26,1.57-4.89,.63-3.48,1.25-6.96,1.87-10.45-.05-.02-.09-.03-.14-.05-.68,5.22-1.82,10.33-3.3,15.39Z"/>
  <path d="M739.95,615.19c-22.07,3.09-42.95-2.33-63.77-9.42-66.99-25.25-68.48-124.52-2.5-151.96,18.46-8.12,38.64-8.75,57.67-3.06,11.05-.73,22.36-1.15,33.23,1.25,17.72-6.01,28.82-13.17,43.84-22.27,96.04-52.7,175.87,82.03,84.88,141.22-44.56,26.92-102.85,56.8-153.36,44.25Z"/>
  <path d="M877.28,775.63c-59.48-8.59-81.57-60.26-70.86-115.08,.7-37.24-.48-71.3-2.52-106.83-44.83-56.3,2.15-148.02,75.87-139.07,27.54,2.26,51.63,20.24,64.83,44.1,10.87,17.06,19.37,35.82,19.9,56.53,7.26,39.77,5.17,81.1,6.74,121.51,.65,21.97-1.05,43.94-3.15,65.81-4.99,44.69-46.64,78.09-90.79,73.02Z"/>
  <path d="M781.14,813.75c-19.67-2.45-40.43-4.56-60.09-7.72-22.47-.96-40.91-4.01-61.76-8.4-23.67-1.32-47.28-2.54-70.68-6.64,1.14,.2,2.28,.41,3.42,.62l2.41,.44c-22.43-3.76-45.31-6.92-68.07-8.36-6.28-.03-12.59,.38-18.83,.89-32.1,40.56-97.95,41.98-129.51-.01-21.46-26.07-20.51-60.51-10.33-90.95-.38-37.25,25.15-73.47,60.69-84.18,13.29-19.4,29.88-35.44,49.74-47.96,52.41-43.25,137.13-1.18,133.14,66.58,32.05,6.13,65.13,3.15,96.87,11.62,0,0,8.71,1.62,8.71,1.62,28.78,.83,57.36,5.99,85.92,9.12,.63-46.27,5.58-91.51,52.88-112.76,33.65-15.39,75.01-4.38,97.85,24.31,14.83,18.05,18.75,41.68,21.44,64.23,4.8,23.4,6.96,46.69,5.22,70.66,2.83,28.57,5.68,57.85-13.72,82.02-41.07,50.05-127.47,46.66-185.3,34.9Z"/>
  <path d="M940.89,490.34c.94-7.66-1.82-14.62-5.03-21.43-6.61-.94-8.27-9.28-11.67-14.02-9.2-11.03-20.72-20.68-28.43-32.73-.29-.16-.58-.34-.87-.52-4.31,4.14-10.33,.8-15.39,.38-5.98,5.79-15.49,3.78-22.98,3.05-7.68-.84-15.45-.64-23.16-1.3-6.75,8.14-14.09,15.83-23.83,20.22-1.96,2.19-5,3.33-7.88,2.65-12.63,4.4-25.82,6.82-39.01,8.83,1.54,7.73-6.09,9.97-12.26,8.46-13.26-.54-26.42-4.21-39.31-6.09-2.24,1.92-5.36,1.76-8.05,1.05-6.36-1.47-12.53-3.67-18.66-5.89-7.58-3.7-19.96-4.07-24.17-12-3.22-.3-6-2.97-8.3-5.16-3.58,.55-6.41-1.59-8.6-4.17-9.42,2.39-11.82-9.98-13.76-16.65-4.03,2.73-10.21,.83-11.71-3.9-.91,1.38-1.83,2.76-2.75,4.14-1.66,2.48-4.97,3.35-7.74,2.57-6.38,2.48-11.62,7.03-14.93,13.06,3-.73,5.51-3.45,8.52-3.72,10.69-.63,10.66,12.86,1.19,15.4,.57,7.6-10.02,10.41-13.58,3.81-2.03,.15-4.06-.04-6-.87-6.31-2.7-6.91-10.53-4.99-16.4-2.17,.47-4.37,.58-6.41-.28,0,0,0,0,0,0-2.31,1.55-4.91,3.19-7.69,3.66-5.63,1.13-10.44-5.71-7.35-10.6,3.21-4.26,6.24-7.48,9.62-11.21-.42-.86-.66-1.81-.63-2.82,.03-1.54,.36-2.89,1.04-4.12,.84-9.6,12.46-13.47,19.37-18.38,13.97-21.27,41.05-23.58,64.1-27.01,8.1-1.39,17.62,3.73,11.17,12.4-2.07,2.16-5.11,2.43-7.93,2.57-4.95,.07-9.56,2.61-14.54,3.15,.21,.56,.37,1.14,.47,1.73,5.19,2.34,4.09,8.62,2.96,13.06,1.97,.93,3.32,2.94,4.41,4.75,9.51,3.01,15.82,11.8,22.78,18.45,5.22,5.77,11.67,11.33,17.32,16.3,2.67-1.31,5.73-.47,8.26,.82,5.34,2.05,10.74,3.96,16.11,5.97,29.15,8.4,60.77,4.44,89.02-5.31,5.04-5.88,9.88-12.06,14.3-18.4,2.45-4.77,3.52-11.46,8.5-14.22,1.28-3.36,4.05-6.06,4.85-9.54-2.01-4.78,2.13-10.57,7.41-9.82,3.28,.47,6.45,2.05,9.51,3.3,9.28,4.13,19.02,6.83,28.72,9.57,4.28-1.12,8.21,1.87,11.91,3.61,11.71,4.58,21.81,12.43,31.49,20.17,3.7,.23,6.92,2.95,9.78,5.09,8.31,6.94,17.12,15.08,19.36,26.14,.84,7.96,3.23,15.41,6.68,22.59,2.94,7.02,7.54,25.57-3.9,26.6-3.83,.1-7.33-3.08-7.33-6.98Z"/>
  <path d="M439.78,820.55c-7.2,.15-13.92-2.16-20.8-3.94-9.69-1.42-19.54-2.33-28.78-5.79-11.5-2.83-30.29-4.84-28.93-20.55-3.1-4.09-2.76-9.85-3.14-14.75-.23-6.78-.21-14.6,4.63-19.92,4.22-4.79,12.8-3.3,14.4,3.13,7.43,.1,10.66,11.44,3.7,14.77-1.26,3.73-.44,7.84-.77,11.71,9.51,3.2,34.33,2.15,32.68,16.12,8.56,.39,16.55,3.99,24.97,4.85,13.45,1.24,27.24-.08,40.45-2.61,5.46-3.58,3.97-11.12,10.24-13.06,4.5-7.14,15.87-1.32,12.61,6.53-1.87,3.68-3.42,8.34-7.26,10.4-2.59,3.1-5.13,7.28-8.72,9.07-2.38,.86-4.77,1.19-6.99,1.71-12.77,1.94-25.83,3.71-38.73,2.32,0,0,.46,.02,.46,.02Z"/>
  <path d="M886.19,823.62c-67.77-4.73-135.1-14.44-202.29-23.76-24.66-3.04-48.54-10.88-73.46-12.09-18.43-3.01-36.63-6.95-55.38-7.28-2,2.25-5.28,2.71-7.97,1.72,.32,.09,.62,.19,.93,.3-7.78-2.91-15.85-2.59-24.08-2.12-8.1,1.1-24.76,4.8-24.74-7.74-3.1-3.34-1.87-9.63,2.53-11.26,3.61-1.6,8.16-1.3,11.79-.93,8.95-.85,19.43,2.13,27.83,3.19,18.06,4.17,36.82,2.45,54.75,7.31,26.22,3.67,52.32,7.01,78.17,12.95,40.18,5.29,80.15,11.84,120.42,16.4,25.87,4.2,52.11,5.24,78.18,7.5,7.27,.43,14.5,2,21.79,1.84,6.61-.46,12.2-3.91,18.55-5.49,1.73-6.25,10.72-5.78,15.25-8.1,6.36-3.18,13.52-4.66,19.63-8.18,3.5-2.51,7.28-5.51,11.81-4.56-.45-8.73,4.87-29.64,16.6-19.87,7.02-.82,9.73,7.36,6.83,12.52-2.19,6.22-3.38,12.69-2.91,19.29,4.01,12.51-4.77,16.53-15.51,18.3-8.51,1.97-16.62,3.88-25.35,3.38-7.86-.25-15.23,2.91-23,3.94-10.02,.79-20.21,4.27-30.35,2.76Z"/>
  <path d="M672.74,264.56c-2.82-1.41-4.14-5.12-4.37-7.93-1.17-6.41-2.42-12.76-3.33-19.22-1.78-1.83-2.28-4.44-2.5-6.88-4.51-11.59-4.92-24.6-7.29-36.79-1.25-12.3-2.9-24.55-3.94-36.86,1.29-9.19,3.38-18.37,5.52-27.44,2.17-9.11,5.31-17.87,8.82-26.51,1.06-4.03,5.19-6.11,8.83-5.15,3.91-7.07,6.55-18.87,15.93-19.91,2.22-13.6,29.74-41.47,43.77-40.52,7.43-5.22,14.74-1.71,20.88,3.46,1.33-.7,2.87-.98,4.41-.79,0,.01,0,.03-.01,.04,.92,.1,1.85,.37,2.78,.84,2.46,1.26,3.81,4.11,3.61,6.81,4.84,4.22,4.89,12.37,.41,16.86-2.12,2.16-4.7,3.82-6.98,5.77-.59,5.98-4.62,13.68-11.66,12.47-.68,.37-1.36,.7-2.06,.96-1.79,.68-3.53,1.01-5.37,.88-7.39,9.83-12.98,20.87-20.98,30.2,.81,6.51-5.12,11.57-7.86,17.01-2.19,4-2.98,8.87-6.64,11.97-6.01,17.27-10.99,34.88-16.62,52.29-2.46,5.98-1.54,14.46-6.95,18.69-1.39,13.1,1.47,26.26,3.27,39.18,1.29,6.7-4.77,14.34-11.7,10.56Z"/>
  <path d="M818.66,181.77c-1.06-8.65,9.92-9.43,16.15-10.04,4.2-1.69,9.97-2.79,12.67,1.96,4.63,9.04-6.73,12.31-13.61,12.4-5.61,1.73-13.69,3.58-15.21-4.32Z"/>
  <path d="M887,251.09c-4.51-5.93,1.89-11.72,3.37-17.39-.58-1.28-.98-2.67-1.31-4.01-4.72-4.71-3.13-12.95-6.2-19.2-5.56-5.75-11.94-11.69-15.55-18.67-.03-.01-.07-.03-.1-.04-11.83,.67-14.55-22.12-12.81-30.8-3.9-3.57-1.8-8.87-.47-13.12,3.13-8.1-.26-16.66,.24-25.03-4.58-6.25-5.56-14.15-9.13-20.55-3.81-4.83-7.82-10.14-13.41-12.91-8.81-2.91-17.03-7.92-24.61-13.22-2.21,.14-4.46-.73-5.97-2.45-3.68,3.56-10.42,4.91-13.85,.3-3.14,2.14-7.46,3.71-10.95,1.44-2.28,1.06-4.81,1.31-7.27-.08-.29-.16-.57-.35-.83-.54-5.81,5.17-15.87,1.41-16.6-6.22-4.84-3.61-2.28-9.29,.65-13.2-4.39-9.25,7.89-16.77,13.32-7.83,11.34-3.14,22.28-11.85,29.17-20.97,6.05-8.94,15.33-15.56,26.51-14.85,5.07-.6,10.08,.72,15.15,0,4.78-.75,9.68-1.38,14.34,.28,8,2.45,13.83,8.71,21.55,11.74,13.35,4.21,22.29,10.88,24.96,25.3,5.2,9.55,7.65,19.69,8,30.45,1.62,5.27,4,10.4,4.35,15.97-.11,4.52,1.05,9,2.54,13.17,2.19,6.05,7.5,9.94,10.31,15.62,4.93,8.58,4.03,20.11-1.37,28.26,.09,.93,.13,1.87,.04,2.78-.08,.93-.32,1.82-.68,2.65,2.7,3.41,1.24,9.08-2.73,10.79-1.82,3.38-5.85,6.15-6.5,9.87,1.69,6.85,1.05,14.02,.2,20.95-.5,9.13,1.6,18.6-1.57,27.42-3.58,8.46-9.69,35.25-22.8,24.12Z"/>
  <path d="M886.8,236.66c-1.05-5.48-2.22-10.95-2.61-16.54-3.52-7.47-9.27-13.76-14.22-20.35-7.12-1.64-11.62-13.39-3.42-16.76,5.31-1.71,13.59-.06,13.71,6.71,6.21,8.05,13.03,15.84,17.35,25.13,1.17,5.58,1.83,11.27,2.71,16.91,4.01,10.1-11.11,15.16-13.63,4.43,0,0,.1,.47,.1,.47Z"/>
  <path d="M834.47,201.82c-.09-3.84,3.08-7.35,6.98-7.35s7.26,3.02,7.35,6.98c.09,3.84-3.08,7.35-6.98,7.35s-7.26-3.02-7.35-6.98Z"/>
  <path d="M736.4,200.04c-.09-3.84,3.08-7.35,6.98-7.35s7.26,3.02,7.35,6.98c.09,3.84-3.08,7.35-6.98,7.35s-7.26-3.02-7.35-6.98Z"/>
  <path d="M826.77,349.33c-1.38-.85-2.3-1.82-2.86-2.86,.36-.11,.7-.25,1.04-.44,.56-.32,1.04-.73,1.49-1.19,.56-.34,1.06-.71,1.59-1.1,.78-.6,1.55-1.23,2.28-1.88,.11-.09,.22-.21,.34-.3,.15-.07,.28-.13,.43-.21l.17-.06c.04,.11,.09,.22,.13,.32,.07,.22,.13,.43,.21,.65-.02,.09-.04,.19-.04,.28-.06,.54,0,1.08,.02,1.62,.11,1.53,.11,3.13,.52,4.61,.1,.37,.26,.72,.47,1.04-.75,.32-1.55,.5-2.38,.5-1.07,0-2.2-.3-3.39-.98Z"/>
  <path d="M831.28,341.29s.02-.02,.02-.02c.04,.06,.06,.09,.09,.15-.04-.06-.07-.09-.11-.13Z"/>
  <path d="M821.69,352.92c-4.38-4.12,2.73-8.73,5.72-11.23,2.25-2.44,4.57-4.76,7.21-6.8,2.77-2.82,3.45-7.39,6.32-10.03,2.24-3.26,4.01-6.76,7.12-9.32,2.15-2.72,3.51-6.19,5.04-9.15,2.49-5.32,5.33-10.32,7.93-15.54-.02,.06-.05,.13-.07,.19,4.49-10.62,9.36-20.99,13.54-31.69,1.73-4.58,3.69-9.12,5.32-13.71,.6-1.85,2.35-3.1,4.35-2.61,6.31,2.33-.72,11.15-1.64,15.45-4.58,12.02-9.97,23.68-15.04,35.48-3.66,6.99-7.18,13.94-10.62,20.91-3.29,6.23-8.85,11.11-12.37,17.35,.03-.07,.06-.14,.09-.21-2.39,6.89-8.52,10.94-13.45,15.91-3.38,1.62-5.1,7.83-9.44,5Z"/>
  <path d="M877.01,254.17c-1-4.46,1.88-9.82,2.35-14.1,1.37-6.23,1.11-12.59,1.93-18.74,0,.05,0,.1,0,.14,0,.01,0,.02,0,.03-.43-11.57-3.01-23.43,3.4-33.77,2.23-4.06,8.56-.52,6.25,3.51-6.4,10.34-1.59,22.31-2.72,33.5,3.76,.38,3.78,4.67,3.24,7.54-.06,6.11-4.54,10.75-6.36,16.32-1.03,2.58-.62,6.56-3.79,7.55-1.65,.58-3.64-.43-4.29-2Z"/>
  <path d="M804.58,252.68c-1.56-5.31-10.1-22.75-1.59-24.47,4.42,.04,3.61,4.84,3.65,7.89,.18,1.54,.93,3.3,1.25,4.39,1.27,3.36,2.15,6.87,3.54,10.19,1.37,4.41-5.58,6.5-6.87,2.01Z"/>
  <path d="M756.95,285.13c-1.25,.95-3.04,1.21-4.44,.43-.29-.17-.56-.37-.79-.6-.83,.19-1.71,.09-2.5-.37-.39-.23-.73-.51-1.02-.84-2.79,3.35-8.7,3.52-8.51-1.74,1.04-3.37,3.46-6.26,5.38-9.21,.22-3.81,6.92-8.62,9.45-3.97,.89-.64,1.98-.94,3.1-.81,.94,.1,1.85,.6,2.52,1.32,1.96-1.62,5.36-.38,5.73,2.2,.92-.63,2.11-.96,3.18-.65,.73,.21,1.38,.58,1.88,1.1,1.53-2.22,5.06-1.67,6.11,.71,.94-.88,2.23-1.21,3.48-.89,.65,.16,1.22,.5,1.68,.96,2.49-2.51,6.35-.56,6.89,2.65,.8-3.63,5.3-5.41,7.62-2.02,1.09-1.3,2.91-1.9,4.55-1.2,.43,.19,.81,.42,1.16,.67,.26-.48,.59-.91,1.06-1.29,1.26-1.03,2.88-.97,4.21-.26,1.24-.78,2.93-.84,4.28-.02,.1,.06,.19,.12,.28,.18,2.26-1.31,4.67,.17,6.5,1.56,3.07-1.71,5.59,1.66,7.21,3.88,2.68,3.18-1.9,7.69-5.04,4.99-.77,.17-1.61,.09-2.43-.27-.47-.22-.89-.51-1.3-.82-.53,.48-1.2,.81-1.89,.92-1.08,.17-1.98-.15-2.79-.69-1.05,.99-2.61,1.36-3.96,.8-.84-.34-1.48-.89-2.08-1.5-.82,.82-1.85,1.41-3.03,1.37-.99-.02-1.87-.23-2.7-.78-1.53,2.39-5.05,2.93-7.06,.84-1.73,3.51-6.71,5.51-9.31,1.84,0,0,0-.01-.01-.02-1.41,2.08-3.53,4.08-6.16,2.95-.88-.38-1.6-1.06-2.02-1.91-1.21,.79-2.56,1.23-3.98,.88-.65-.16-1.22-.47-1.7-.89-1.81,1.28-4.35,1.02-5.79-.69-1.68,2.62-5.68,4.35-7.77,1.18Z"/>
  <path d="M784.69,317.65c-10.16-.63-19.04-5.77-27.98-10.05-4.52-2.74-7.29-7.55-10.62-11.52-1.84-.77-2.93-2.77-2.14-4.71,1.68-3.09,5.87-3.76,9.08-3.3,5.62,.41,11.2,.44,16.83,.49,11.76,.21,23.51,1.95,35.25,1.98,4.67-.76,9.86-1.2,14.51-1.12,2.5-.71,5.19,1.3,4.78,3.96,5.3,4.14-6.69,14.27-10.28,16.61-5.01,3.08-9.73,7.46-15.8,7.76-4.79-.12-8.93,.2-13.62-.09Zm9.21-7.2c8.87-2.43,18.27-6.01,23.73-13.83-19.98,2.29-39.87-1.36-59.92-1.12,2.91,2.45,5.48,5.36,8.29,7.88,8.52,4.55,18.31,6.68,27.91,7.06Z"/>
  <path d="M747.96,299.04c-2.48-2.65-7.1-3-8.31-6.72-3.49-2.11-2.74-7.97,1.77-7.64,2.62,.69,4.84,2.56,7.44,3.41,1.62,.28,2.89,1.6,3.05,3.21,1.16,.62,1.93,1.74,2.03,2.99,4.67,4.53-1.89,9.14-5.97,4.76Z"/>
  <path d="M807.49,299.05c-15.34-1.17-31-4.74-45.87-7.82-6.49-2.03-15.71,.54-20.41-4.98-1.82-8.09,9.22-4.27,12.28-3.86,2-.23,4.59-.72,5.9,1.22,17.84,2.96,35.37,8.47,53.5,8.22,5.87-1.05,10.9-4.2,16.71-5.37,4.34-1.37,7.72,3.47,4.22,6.73-2.58,2.14-7.33,6.39-10.26,2.7-5.06,2.29-10.47,3.66-16.06,3.15Z"/>
  <path d="M803.29,292.46c-4.7-2.36-10.39-.7-15.2-3.04-5.58-1.75-5.15-6.87-.69-9.79,2.68-2.74,7.36,.31,5.9,3.88,0,0,0,.02,0,.02,4.58,.73,9.4,.14,13.51,2.71,4.08,2.19,.49,8.52-3.51,6.23Z"/>
  <path d="M816.15,285.05c-.06-1.92,1.55-3.68,3.49-3.68s3.62,1.51,3.68,3.49c.06,1.92-1.55,3.68-3.49,3.68s-3.62-1.51-3.68-3.49Z"/>
  <path d="M768.57,269.48c-.06-1.92,1.55-3.68,3.49-3.68s3.62,1.51,3.68,3.49c.06,1.92-1.55,3.68-3.49,3.68s-3.62-1.51-3.68-3.49Z"/>
  <path d="M768.97,271.1c-.06-1.92,1.55-3.68,3.49-3.68s3.62,1.51,3.68,3.49c.06,1.92-1.55,3.68-3.49,3.68s-3.62-1.51-3.68-3.49Z"/>
  <path d="M772.82,273.65c-.06-1.92,1.55-3.68,3.49-3.68s3.62,1.51,3.68,3.49c.06,1.92-1.55,3.68-3.49,3.68s-3.62-1.51-3.68-3.49Z"/>
  <path d="M778.68,273.93c-.06-1.92,1.55-3.68,3.49-3.68s3.62,1.51,3.68,3.49c.06,1.92-1.55,3.68-3.49,3.68s-3.62-1.51-3.68-3.49Z"/>
  <path d="M780.58,273.16c-.06-1.92,1.55-3.68,3.49-3.68s3.62,1.51,3.68,3.49c.06,1.92-1.55,3.68-3.49,3.68s-3.62-1.51-3.68-3.49Z"/>
  <path d="M782.35,272.31c-.06-1.92,1.55-3.68,3.49-3.68s3.62,1.51,3.68,3.49c.06,1.92-1.55,3.68-3.49,3.68s-3.62-1.51-3.68-3.49Z"/>
  <path d="M785.66,273.97c-.06-1.92,1.55-3.68,3.49-3.68s3.62,1.51,3.68,3.49c.06,1.92-1.55,3.68-3.49,3.68s-3.62-1.51-3.68-3.49Z"/>
  <path d="M788.16,273.07c-.06-1.92,1.55-3.68,3.49-3.68s3.62,1.51,3.68,3.49c.06,1.92-1.55,3.68-3.49,3.68s-3.62-1.51-3.68-3.49Z"/>
  <path d="M793.61,275.45c-.06-1.92,1.55-3.68,3.49-3.68s3.62,1.51,3.68,3.49c.06,1.92-1.55,3.68-3.49,3.68s-3.62-1.51-3.68-3.49Z"/>
  <path d="M795.59,272.72c-.06-1.92,1.55-3.68,3.49-3.68s3.62,1.51,3.68,3.49c.06,1.92-1.55,3.68-3.49,3.68s-3.62-1.51-3.68-3.49Z"/>
  <path d="M798.08,272.78c-.06-1.92,1.55-3.68,3.49-3.68s3.62,1.51,3.68,3.49c.06,1.92-1.55,3.68-3.49,3.68s-3.62-1.51-3.68-3.49Z"/>
  <path class="cls-1" d="M715.36,754.42c-1.49-1.12-1.98-3.53-.71-5.02,3.66-4.31,7.09-8.79,10.71-13.13,10.39-11.61,20.55-23.06,30.05-35.39,18.7-22.15,33.42-47.04,47.27-72.4,5.38-9.43,10.89-18.91,14.35-29.25,2.1-6.62,1.44-13.72,4.04-20.22,1.19-4.46,8.11-2.85,6.96,1.72-2.57,6.55-1.91,13.6-4.05,20.26-4.65,14.41-13.13,27.15-20.33,40.37-14.32,27.07-32.09,51.96-51.79,75.37-6.65,7.97-13.4,15.85-20.44,23.46-3.72,4.47-7.26,9.08-11.05,13.53-1.28,1.49-3.41,1.93-5.02,.71Z"/>
  <path class="cls-1" d="M613.01,737.03c-3.77-5.48,8.7-9.47,11.58-13.23,19.4-15.67,35.8-34.52,51.36-53.86,9.6-11.3,17.1-24.03,25.15-36.25,17.26-24.98,36.43-49.59,46.08-78.74,1.64-4.27,8.4-1.68,6.66,2.67-10.29,31.16-31.27,57.05-49.34,83.92-19.97,32.02-44.56,61.51-73.26,86.05-4.23,3.57-8.64,6.89-13.19,10.02-1.59,1.13-3.78,1.02-5.04-.58Z"/>
  <path class="cls-1" d="M498.93,789.23c-4.89-1.59-1.59-6.95-.76-10.28,4.15-12.56,6.11-25.76,10.68-38.21,7.58-16.68,16.33-32.9,23.84-49.57,5.43-11.1,5.15-24.49,7.42-36.25,2.22-10.49,4.26-20.97,6.62-31.43,4.96-22.17,11.99-44.02,11.35-66.98-.09-19.13,9.24-37.28,3.54-55.99-3.16-12.55,2.13-26.33-3.15-38.26-1.47-2.76-5.01-6.48-1.23-8.95,4.64-2.36,6.62,4.26,8.34,7.35,4.78,10.56,.97,22.45,2.41,33.52,6.09,20.16-.95,40.14-2.65,60.05-.03,42.76-17.74,82.56-21.51,125.42-6.93,28.97-28.11,52.79-33.6,82.32-1.87,6.25-2.98,12.87-5.17,18.92-1.32,3.2-1.4,9.2-6.14,8.34Z"/>
  <path class="cls-1" d="M851.62,812.02c-1.98-.5-2.97-2.43-2.61-4.35,3.34-22.54,11.43-44.06,15.32-66.36,4.24-30.51,.23-61.42,.99-92.12,.75-20.07,2.75-39.76,1.98-59.81-1.24-18-3.6-35.11-5.28-52.94-.74-4.5,6.42-5.76,7.09-1.12,1.8,20.77,5.29,41.46,5.54,62.27-.52,24.82-2.4,49.4-2.03,74.17-.75,18.69,2.31,37.51,.32,56.19-1.02,21.38-8.16,41.74-13.25,62.36-1.84,6.57-2.21,12.65-3.71,19.09-.36,1.92-2.53,3.06-4.35,2.61Z"/>
  <path class="cls-1" d="M871.29,76.12c-5.87-16.28-18.3-27.42-34.9-32.02-10.18-3.23-22.46,2.14-29.12,10-3.18,3.35-8.41-1.7-5.13-5,6.2-7.8,15.6-11.26,25.09-13.13,13.26-.45,26.79,6.65,36.69,15.09,3.52,3.64,19.2,23.84,12.09,26.9-1.76,.78-3.94-.06-4.72-1.85Z"/>
  <path class="cls-1" d="M888.82,183.05c-34.72-20.14-22.7-44.94-22.03-77.2-.07-6.96-5.93-11.2-10.45-15.63-4.68-4.63-9.35-9.82-15.39-12.56-2.94-1.78-9.19-2.56-7.65-7.27,2.59-5.09,8.23,.14,11.83,1.34,9.99,5.83,18.31,14.77,25.71,23.49,6.91,13.15,1.23,28.9,.09,42.78-.46,18.96,6,29.9,22.18,39.32,3.75,2.7-.59,8.55-4.29,5.73Z"/>
  <path class="cls-1" d="M900.82,152.88c-1.29-7.1-2.17-14.34-6.1-20.48-1.43-2.03-3.04-3.9-4.66-5.79-2.92-3.59,2.76-8.1,5.61-4.44,5.8,5.92,9.38,13.46,10.73,21.62,.35,3.78,4.01,10.66-1.47,12.07-1.89,.3-3.83-1.04-4.1-2.98Z"/>
  <path class="cls-1" d="M674.22,121.57c-9.1-4.22,18.77-37.95,24.2-42.05,7.02-6.98,16.26-10.29,25.26-13.9,1.79-.75,3.92,.04,4.72,1.85,.76,1.75-.06,3.97-1.85,4.72-18.39,5.26-31.92,19.17-41.42,35.09-2.45,3.91-4.5,8.01-6.25,12.29-.74,1.81-2.87,2.72-4.66,2Z"/>
  <path class="cls-1" d="M670.19,197.29c-6.63-1.43-.95-14.27-1.12-19.1,2.01-19.44,6.58-38.62,16.63-55.48,2.26-5.78,5.91-10.65,11.28-13.82,3.6-2.86,8.13,2.77,4.44,5.62-4.06,2.54-7.2,5.88-8.85,10.42-9.36,16.09-14.41,33.84-16.11,52.3-.84,5.62-1.94,11.23-2.31,16.9-.13,1.94-2.08,3.38-3.96,3.17Z"/>
  <path d="M769.88,184.9c-1.22-.02-2.11-.64-2.88-1.45-2.56-.62-2.95-3.41-2.79-5.7-8.82-1.6-17.4,.3-25.44,3.6-4.42,1.37-6.48-5.61-2.01-6.86,8.39-3.9,36.16-9.56,37.57,4.14,2.17,3.11-.55,7.96-4.44,6.27Z"/>
  <path d="M1480.62,478.04s.04-.07,.05-.1c.11-.06,.24-.09,.38-.09,.09,0,.18,.01,.27,.03,0,.05,0,.1,0,.16,0,.03,0,.06,0,.09-.07,.06-.14,.12-.21,.19-.02,.02-.05,.05-.07,.07-.13-.13-.27-.25-.43-.34Z"/>
</svg>