<?xml version="1.0" encoding="UTF-8"?>
<svg id="Vektorebene" xmlns="http://www.w3.org/2000/svg" viewBox="0 0 1536 834">
  <defs>
    <style>
      .cls-1 {
        fill: #fff;
      }
    </style>
  </defs>
  <path d="M298.83,743.87c-1.64-.45-2.77-2.29-2.24-3.94,2.74-7.46,3.41-15.64,7.24-22.69,4.73-8.76,6.4-18.76,11.34-27.4,5.83-12.37,8.89-25.61,13.42-38.35,5.4-9.24,8.42-18.83,13.6-28.01,3.62-4.91,5.67-10.56,7.62-16.18,3.38-8.13,8.9-15.15,13.16-22.82,6.6-9.07,8.89-20.58,16.12-29.21,8.06-7.22,11.34-17.75,18.32-25.69,4.02-3.68,9-6.22,12.57-10.4,4.76-5.9,9.28-12.18,16.09-15.89,8.46-4.3,14.51-11.67,22.68-16.23,6.7-3.46,13.29-7.01,20.14-10.14,7.46-2.79,14.37-6.6,20.98-11.01,22.67-11.24,46.4-20.58,70.17-29.31,20.83-6.55,41.92-12.69,61.75-21.88,2.23-1.32,5.65-2.77,7.03,.36,1.12,2.99-1.73,4.37-3.99,5.27-26.68,12.72-55.74,18.74-82.97,29.84-19.79,8.71-40.66,15.38-58.74,27.43-13.23,6.45-27.88,11.42-39.28,20.71-4.96,4.82-11.08,8.44-16.87,11.98-6.03,4.02-9.37,10.69-14.57,15.58-3.56,3.48-8.13,5.77-11.58,9.38-4.26,5.51-6.6,12.26-11.08,17.64-10.43,9.36-13.35,22.83-20.83,34.14-3.68,6.42-8.1,12.86-11.62,19.25-2.72,5.3-3.68,10.81-6.67,15.89-6.77,9.7-9.85,21.23-15.9,31.34-4.2,11.46-7,23.39-11.82,34.69-5.94,11.86-9.56,24.65-15.4,36.56-2.34,4.59-2.55,20.31-8.67,19.1Z"/>
  <path d="M1119.63,744.3c.41-25.69-6.48-50.49-14.55-74.51-9.22-35.28-23.2-69.83-40.82-101.57-5.19-7.19-10.26-15.02-15.45-22.11-12.07-11.37-22.77-23.51-35.91-33.64-8.26-8.46-16.57-16.12-26.84-21.8-18.05-14.1-39.19-24.27-60.14-33.32-23.35-5.36-44.14-17.43-65.72-27.12-3.95-1.87-14.19-2.17-12.56-7.87,1.86-3.97,6.78-.45,9.42,.22,18.73,5.97,35.19,17.32,53.72,23.72,20.45,4.71,39.17,14.43,57.17,24.93,8.56,3.45,15.57,9.49,22.85,14.92,5.15,3.54,10.93,6.24,15.4,10.69,8.44,9.68,19.05,16.89,28.24,25.72,7.54,9.37,17.38,15.56,23.67,25.61,13.3,17.09,22.65,36.39,30.66,56.33,7.01,14.23,12.82,29.28,16.94,44.66,5.66,19.71,12.83,38.84,16.72,58.94,2.39,11.91,3.76,24.03,3.62,36.19,0,1.74-1.47,3.21-3.21,3.21s-3.21-1.47-3.21-3.21Z"/>
  <path d="M770.76,520.15c-13,.51-24.76-3.98-36.86-7.92-15.76-3.84-29.79-12.71-43.3-21.22-7.49-3.25-13.92-7.91-19.12-14.2-6.69-4.55-14.42-7.85-19.3-14.66-4.54-8.68-11.68-14.88-17.7-22.33-4.19-4.43-6.38-10.52-9.29-15.57-1.54-2.92-6.41-6.57-3.01-9.72,4.97-3.77,10.6,10.68,12.35,14.14,4.22,7.68,10.64,13.33,16.28,19.75,5.43,9.08,11.81,17.12,21.85,21.33,3.56,1.98,6.33,5.9,9.02,8.5,4.81,4.26,10.76,6.04,15.92,9.4,12.41,8.56,26.11,15.61,40.74,19.16,8.45,2.56,16.56,6.54,25.54,6.55,25.19,2.73,50.19-8.11,65.47-27.88,8.84-10.41,10.99-24.6,14.31-37.42,1.67-7.47,2.7-15.44,1.49-22.98-.63-4.08,5.89-5.04,6.37-.87,1.94,20.37-4.4,41.6-13.05,59.84-15.02,22.33-40.59,36.67-67.69,36.09Z"/>
  <path d="M742.69,431.38c-13.88-.62-27.83-4.09-40.02-10.87-4.68-3.37-9-7.25-13.9-10.34-11.62-5.88-19.84-16.17-28.26-25.66-7.58-6.55-12.26-15.28-17.3-23.75-4.51-6.55-9.74-12.63-13.38-19.74-4.28-8.02-7.58-16.6-11.16-24.9-8.52-13.83-15.28-29.2-15.13-45.75-1.68-12.19-.22-24.19,1.73-36.15,.31,4.95,1.45,9.79,4.45,13.95,.1,.13,.19,.27,.29,.4-1.05,11.66-1.05,23.33,1.33,34.96,2.49,13.93,11.57,24.75,16.42,37.71,4.96,13.43,12.69,25.39,21.28,36.73,7.23,14.65,19.41,25.39,30,37.5,6.01,6,14.13,9.07,20.51,14.5,11.78,10.49,28.11,14.05,43.49,15.02,8.25,.38,15.72-1.45,23.42-3.91,1.69-.38,3.46,.79,3.81,2.49,.58,4.61-5.75,4.34-8.79,5.7-5.29,1.13-10.65,2.21-16.08,2.21-.9,0-1.8-.03-2.71-.09Z"/>
  <path d="M770.37,419.87c-2.57-3.47,2.52-5.81,4.66-7.27,4.28-2.64,8.89-6.13,12.01-9.9,8.15-10.92,19.34-19.21,28.19-29.46,7.75-9.6,11.39-21.38,17.1-32.12,6.75-10.09,7.2-21.95,10.81-33.12,4.46-14.51,8.07-29.91,6.8-45-.9-9.45-4.64-18.27-7.25-27.33-2.39-15.15-3.94-30.6-10.44-44.76-1.69-3.03-3.28-6.2-4.69-9.46-.06-.67-.12-1.34-.18-2.01-.2-2.14-.48-4.28-.8-6.38-.47-3.01-.95-5.95-2.04-8.79-1.14-2.94-2.81-5.48-4.66-7.98-.63-.84-1.31-1.63-2.03-2.38-.94-3.37-1.63-6.81-1.93-10.3-1.29-6.63-7.12-10.47-11.36-15.13-6.01-6.38-12.86-12.94-21.26-15.72-9.65-2.05-19.07-4.78-27.54-10-27.81-13.38-59.86-36.63-91.1-19.94-16.85,9.62-32.59,24.7-36.76,44.28-4.91,14.68-7.75,29.77-9.46,45-1.75,1.71-3.2,3.72-4.23,6-1.82,4.01-2.85,8.48-3.68,12.94,1.29-16.89,2.63-33.75,6.59-50.36,4.49-15.72,8.35-31.97,19.91-44.24,22.57-24.85,52.91-33.62,83.78-18.12,16.75,7.67,33.07,16.57,49.57,24.5,6.63,2.29,13.91,2.69,20.21,6,11.26,6.45,20.39,16.32,28.63,26.16,4.11,5.83,3.14,13.61,5.55,20.01,2.72,6.36,5.21,12.93,6.85,19.63,2.32,6.58,5.88,11.71,8.35,18.02,3.02,10.51,7.23,20.96,7.4,32.02,.67,9.8,4.88,18.87,7.3,28.31,5.96,22.92-2.67,45.78-8.23,67.83-1.44,9.44-5.13,18.19-10.02,26.32-5.11,10.92-9.55,22.85-17.69,31.83-6.95,7.78-15.28,14.73-22.33,22.35-5.24,7.42-12.26,13.55-20.06,18.06-1,.94-2.36,1.74-3.64,1.74-.84,0-1.66-.34-2.32-1.22Z"/>
  <path d="M625.78,417.04c-.02-2.03,1.79-3.27,3.64-3.24,17.11-1.06,15.45-7.64,16.22-21.99,1.51-8.59-.67-17.13-3.06-25.32-.61-3.39-5.01-8.66-.71-11.03,5.47-1.62,5.49,7.27,7.3,10.64,2.41,8.5,4.37,17.53,2.84,26.29-.38,6.98,.05,13.96-3.51,20.09-2.49,4.4-7.73,5.86-12.35,6.8-3.35,.46-9.88,2.91-10.39-2.24Z"/>
  <path d="M841.03,425.03c-18.57-4.98-12.71-29.1-13.01-43.53-.08-5.82-.11-11.64,.44-17.43,1.13-4.1-2.51-14.54,3.23-14.97,5.85,.13,2.64,14.48,2.9,18.59,.07,11.21-1.07,22.37-.5,33.42-.08,6.83,.38,16.12,8.63,17.74,4.02,1.04,2.27,7.36-1.7,6.18Z"/>
  <path d="M845.45,426.49c-2.68-1.35-8.1-2.47-6.66-6.53,.65-1.54,2.64-2.47,4.21-1.7,1.62,.8,3.26,1.69,4.96,2.34,3.86,1.56,1.28,7.54-2.51,5.9Z"/>
  <path d="M764.04,426.06c-2.43-3.45,2.21-5.53,4.33-7.52,2.73-2.2,5.64-8.38,9.6-5.16,2.58,2.7-.68,5.22-2.59,7.03-2.69,2.46-7.54,9.59-11.34,5.65Z"/>
  <path d="M609.94,304.24c-2.47-1.4-6.5-3.11-6.75-6.27-8.76-8.03-14.01-19.07-19.84-29.25-2.74-6.32-3.58-13.35-5.81-19.74-4.87-14.25-11.66-27.54-13.73-42.61-2.92-19.83-.07-40.2,2.87-59.85,2.08-9.43,2.2-19.19,4.38-28.59,4.67-11.08,8.86-22.42,15.58-32.47,2.15-2.95,4.43-5.68,6.18-8.89,.97-1.45,2.82-2.07,4.39-1.15,4.7,3.42-3.02,9.81-4.95,13.15-6.5,9.53-10.25,20.3-14.92,30.75-1.84,7.51-2.04,15.28-3.39,22.88-3.33,19.83-6.38,40.19-4.22,60.3,1.55,15.41,8.76,29.46,13.65,43.84,2.57,6.94,3.29,14.48,6.49,21.22,2.52,4.47,5.41,8.72,7.79,13.27,3.48,5.8,7.94,11.4,13.36,15.33,1.73,1.39,4.11,2.46,4.88,4.68,.96,3.78-3.65,5.29-6.33,3.21,0,0,.37,.2,.37,.2Z"/>
  <path d="M854.53,256.23c-1.37-1.05-1.69-3.12-.58-4.49,4.16-5.55,3.94-12.87,6.13-19.22,1.67-7.74,4.86-15.07,6.53-22.84,.56-10.85,1.23-21.62,.1-32.37-1.96-10.71-8.32-19.69-10.88-30.18-3.03-7.06-7.92-13.15-9.53-20.83-3.7-13.85-8.57-27.61-16.25-39.77-5.59-8.14-12.75-15.55-18.31-23.57-5.64-5.91-10.39-13.05-16.16-18.62-6.33-4.21-12.63-8.49-18.88-12.82-14.65-7.76-29.38-17.17-46.31-18.68-15.21-1.95-29.34,3.12-43.76,6.97-12.61,1.62-23.97,6.06-35.04,12.12-13.65,6.02-24.97,16.44-35.17,27.04-7.46,8.28-13.99,17.5-21.6,25.49-4.06,2.75-7.43-3.6-2.99-5.85,11.73-14.66,23.6-29.68,38.48-41.35,7.61-4.79,14.62-10.11,23.11-13.25,10.42-6.64,22.41-8.59,34.26-11.1,14.38-4.22,28.8-8.39,43.96-6.4,10.68,.68,20.21,5.78,30.11,9.37,12.32,6.27,23.66,14.1,35.29,21.51,6.83,4.87,11.65,12.67,17.06,18.68,12.87,15.57,26.39,31.13,32.92,50.62,3.83,12.02,6.45,24.42,13.46,35.06,1.69,3.41,2.49,7.07,3.61,10.54,1.95,4.87,4.53,9.1,6.16,14.08,4.54,11.09,3.47,23.26,3.17,34.98,.19,9.02-2.21,17.81-5.5,26.15-2.47,5.55-4.67,33.39-13.39,28.73Z"/>
  <path d="M830.05,179.35c-2.72-.35-2.89-3.07-2.76-5.24-.07-.87-.39-1.55-.89-2.11-.42-2.63-.91-5.21-1.87-7.71-.09-.23-.18-.46-.28-.68,4.18,1.62,8.38,3.87,9.23,8.5,.27,1.5,.27,2.99,.17,4.51-.12,1.59-1.68,2.77-3.2,2.77-.14,0-.27,0-.4-.03Z"/>
  <path d="M827.93,183.54c-.08-.22-.17-.42-.25-.63,0-.13-.02-.27-.03-.4,1.5-.39,3.15,.41,3.77,1.85,.82,2.14-.37,3.48-2.05,4.37-.31-1.75-.79-3.48-1.45-5.19Z"/>
  <path d="M601.88,256.26c-2.67-28.29,2.93-56.4,6.9-84.22-.2-2.48,.63-5.74,3.75-5.34,1.81,.23,2.97,1.94,2.74,3.7-2.14,21.04-7.3,41.7-7.28,62.96-.54,7.47-.73,14.65,.25,22.03,.56,4.09-5.86,5.01-6.36,.87Z"/>
  <path d="M608.61,256.02c-1.69-.23-3.02-1.89-2.74-3.61,.43-3.49,.1-7.03,.32-10.54,1.48-13.21,2.47-26.46,3.19-39.72,.91-10.12,1.1-20.53,1.69-30.49,.3-3.54,.84-7.05,.96-10.6,.12-1.74,1.97-2.96,3.61-2.74,4.35,.89,2.27,6.28,2.3,9.39-1.33,16.47-1.93,32.91-2.94,49.37-1.02,8.05-1.26,16.3-2.38,24.27-.96,4.22,2.39,14.55-4.01,14.66Z"/>
  <path d="M621.17,217.33c-6.47-7.21,20.12-20.35,25.3-23.37,8.7-5.61,17.8-12.44,28.44-12.91,8.07,.63,15.99-1.34,23.87,1.2,17.5,5.69,3.08,19.6-8.6,20.56-12.19,.64-24.4,.33-36.35,2.65-7.78,1.81-16.02,2.92-21,9.63-1.36,2.08-4.63,2.2-5.73-.19-1.23,2.06-3.55,4.26-5.93,2.43Zm27.73-17.36c9.28-2.3,18.86-2.57,28.37-3.2,7.99-.12,18.17,.93,23.23-6.46-4.84-3.7-11.82-3.34-17.57-2.56-3.34,.01-6.48-.52-9.78-.23-9.04,1.85-16.69,7.61-24.26,12.44Z"/>
  <path d="M750.24,187.33c-2.79-1-2.8-4.49-4.37-6.63-.84-1.12-1.78-2.16-2.69-3.24-1.76-2.06,.21-5.53,2.82-5.14,1.45-8.92,10.78-10.51,17.8-12.97,19.97-6.28,40.51-.94,60.03,4.19,3.97,1.08,2.3,7.35-1.7,6.18-13.1-3.28-26.07-7.02-39.69-6.84-7.47,.13-14.99,1.7-21.96,4.42-7.62,1.09-10.46,7.39-7.08,14.15,1.98,2.46,.29,6.85-3.16,5.88Z"/>
  <path d="M748.64,187.92c-1.12-1.45-.75-3.36,.57-4.51,2.64-3.1,6.38-3.37,10.15-3.85,13.92-3.98,28.31-3.07,42.6-2.9,8.2-.05,15.89-1.62,24.02-.25,2.44,0,5.94,.11,5.96,3.34-.63,5.48-7.9,2.39-11.51,2.58-11.2-.08-22.48,1.48-33.76,.53,.06,0,.12,.01,.18,.02-8.7-.55-16.95,.81-25.24,2.76-2.98,.84-6.38,.2-8.48,2.86-1.31,1.15-3.47,.76-4.49-.57Z"/>
  <path d="M826.72,173.73c-1.81-1.82-3.81-2.72-6-3.89-3.61-2.07-.34-7.64,3.24-5.55,2.62,1.36,5.22,2.77,7.28,4.89,2.99,2.86-1.58,7.48-4.53,4.54Z"/>
  <path d="M623.24,215.26c-2.12,1.83-5.75-.24-5.26-3.12,.89-4.34,4.7-7.39,8.08-9.9,7.33-4.81,14.52-9.7,22.77-12.81,7.28-3.71,15.76-4.92,23.62-6.9,6.63-2.3,14.11-5.33,20.92-5.71,2.93-.12,6.19-1.37,8.9,.27,5.16-1.52,4.54,4.32,4.08,7.36-.82,4.09,2.19,14.42-4.68,13.53-7.38,3.22-15.49,4.06-23.46,4.09-12.18,1.56-24.46,3.1-36.54,5.06-5.44,1.88-9.62,5.78-14.32,8.91-1.32,.85-3.15,.41-4.11-.77Zm23-16.38c-.5,.33-1,.66-1.49,.99,10.42-.54,20.44-2.95,30.77-3.99,8.26-.42,15.92-.44,23.45-3.71-.17-2.46,.06-5.12-.88-7.39-9.18-.97-18.14,1.43-26.44,4.98-8.58,2.8-18.25,3.23-25.4,9.12Z"/>
  <path d="M747.29,218.13c-1.04-1.32-.87-3.51,.57-4.49,10.05-6.33,19.57-13.76,31.79-15.13,12.62-1.69,28.64-2.17,37.9,8.03,2.6,3.3-2.61,7.25-5.11,3.88-11.67-10.31-31.63-6.76-45-1.76-4.51,2.94-8.87,6.17-13.64,8.69-1.86,1.45-4.61,3.23-6.5,.79Z"/>
  <path d="M781.64,221.21c-13.6-1.05-13.63-17.13-1.39-20.09,4.13-.23,18.81-1.71,15.23,5.5,7.31,9.26-5.47,16.22-13.84,14.59Zm4.51-7.23c.98-.05,2.08-.35,2.66-1.21-.87-2.26-4.8-2.06-4.51-5.1-3.26-.7-6.76,.52-5.84,4.42,2.53,1.67,5.31,1.95,8.13,1.87,0,0-.43,.02-.43,.02Z"/>
  <path d="M831.47,476.09s-.02,.04-.04,.05c.01-.02,.02-.04,.04-.05Z"/>
  <path d="M639.09,238.77c-5.5-3.79,2.57-10.17,5.25-13.4,4.72-6.07,12.6-6.41,19.47-8.25,10.65-.84,21.56-1.56,31.91,1.41,2.88,.57,7.71-.95,7.91,3.38-.96,6.3-10.93,2.02-14.96,1.61-8.19-1.39-16.24-.53-24.26,0-3.86,1.25-8,1.56-11.75,3.08-3.67,2.67-6.85,6.04-9.05,9.72-.53,1.96-2.59,3.28-4.53,2.44Z"/>
  <path d="M664.67,240.22c-10.88-2.31-7.24-17.61,1.84-19.51,4.53-1.16,9.89-.89,13.65,2.11,3.71,1.91,5.08,7.04-.22,7.39,4.19,9.29-8.48,12.74-15.27,10.01Zm6.06-5.55c1.21-.15,2.49-.32,3.55-.95-.63-3.25-4.23-8.3-7.87-5.84-.23,.77-.73,1.41-1.37,1.82-.41,1.02-.69,2.11-.74,3.21,0,0,0,0,0,.01h0c1.85,1.4,4.2,1.82,6.43,1.75Z"/>
  <path d="M697.64,293.4c-7.21-7.62,.59-17.28,6.22-23.14,2.65-5.01,5.19-10.32,7.07-15.65,.52-2.67,.5-7.04,4.31-6.64,1.69,.23,3.04,1.89,2.74,3.61-1.27,8.25-5.25,16.1-9.49,23.2-3.12,3.72-7.55,7.1-7.25,12.42,.06,.95,.97,1.54,1.47,2.28,2.59,3.24-2.52,7.2-5.08,3.93Z"/>
  <path d="M740.98,289.17c-3.26-7.95,25.57-9.31,22.36-.95-.65,1.55-2.62,2.47-4.21,1.7-3.38-1.15-6.82-.82-10.24-.62-2.56,.97-6.26,3.46-7.92-.13Z"/>
  <path d="M710.01,294.28c-4.28-6.56,15.31-11.92,14.01-3.51-.99,3.29-3.95,1.92-6.41,2.29-2.5,.83-5.17,4.28-7.61,1.22Z"/>
  <path d="M711.15,250.28c.1-6.22,1.63-12.43,.92-18.64-.18-1.74,.97-3.36,2.76-3.61,7.41-.42,2.16,17.47,2.74,22.25-.06,4.18-6.38,4.19-6.41,0Z"/>
  <path d="M697.1,335.76c-2.56-.17-6.41,.21-6.46-3.36,0-1.72,1.45-3.26,3.21-3.21,3.73,.09,6.62,.52,10.18,.14,11.78-2.31,22.14-9.68,34.17-11.32,17.42-5.31,36.67,3.42,53.75-3.37,3.78-1.65,6.36,4.31,2.49,5.91-17.1,7.41-36.48-1.09-53.95,3.53-15.07,1.8-27.9,13.48-43.45,11.66,0,0,.07,.01,.07,0Z"/>
  <path d="M741.88,363.73c-9.81-.3-20.12-3.47-27.01-10.57-3.85-2.12-7.16-4.94-10.15-8.12-3.8-1.8-6.77-4.91-10.38-6.88-3.83-1.58-1.32-7.58,2.49-5.91,2.4,.76,3.98,2.6,5.94,4.04,2.6,1.93,5.78,3.05,7.87,5.6,4.55,4.4,9.98,7.53,14.85,11.5,9.43,4.44,20.86,5.14,30.6,1.97,7.04-3.62,13.72-6.24,17-13.88,2.23-2.48,4.49-5.02,6.44-7.73,2.54-3.51,3.11-7.63,6.05-10.78,1.29-1.18,2.69-2.13,3.56-3.71,2.48-3.29,7.63,.64,5.08,3.92-1.08,1.94-2.91,3.21-4.44,4.71-2.95,6.95-7.2,12.89-12.23,18.45-1.64,5.12-6.43,7.78-10.66,10.6-7.48,4.79-16.13,7.14-25.02,6.8Z"/>
  <path d="M594.01,286.75c-4.64-3.35-4.34-9.29-6.05-14.12-.02,0-.03,.02-.05,.02-3.08-10.66-7.88-20.47-8.35-31.71-6.69-13.62-8.74-29.53-10.64-44.54-10.09-10.44-3.67-31.47-2.2-44.52,3.39-22.53,12.4-44.4,24.67-63.5-3.47-4.91-1.09-11.29,3.36-14.7,6.1-6.35,12.81-12.09,18.99-18.29,12.49-9.48,25.52-18.18,39.32-25.69,8.79-3.63,18.62-13.33,28.5-8.96,7.01-3.49,18.45-6.29,21.39,3.64,1.02,.18,2.03,.53,3.02,1.11,2.68,1.57,4.36,4.2,4.83,7.07,15.48,11.66-7.76,23.64-16.87,29.68-7.05,4.38-14.54,8.1-21.33,12.9-1.81,1.96-4.49,3.19-7.35,3.23-16.66,10.04-26.07,29.03-40.95,41.56-4.12,15.55-8.69,30.22-10.37,45.6-1.39,7.82,.74,18.05-6.39,23.45-.45,14.88-1.99,29.75-2.02,44.63,.29,7.56,2.31,15.28-.41,22.54,.65,4.48,1.09,6.52,1.9,10.47,1.52,6.28,5.3,13.93-.13,19.34-3.31,3.31-9.2,3.92-12.86,.78Z"/>
  <path d="M846.78,247.2c-1.75-4.53-.04-9.34-1.1-14.01-1.36-3.04-1.68-6.43-2.58-9.54-4.21-9.41-3.24-19.88-6.27-29.53-7.1-17.93-11.24-36.73-16.85-55.12-8.2-4.71-13.72-12.71-20.81-18.84-10.17-2.86-17.05-11.79-27.18-14.11-5.39-1.5-10.87-2.76-16.22-4.48-5.89-1.09-8.82-5.11-13.65-7.4-13.61-6.51-29.39-10.59-40.49-21.16-9.08-2.74-18.7,1.06-27.6-1.45-12.07-5.11-6.29-21.82,5.43-22.57-2.23-8.29,6.23-15.02,14.08-13.94-5.17-5.97-7.5-16.25,1.21-20.31,4.2-1.95,8.82,.54,13.21-.68,3.62-6.18,11.4-4.4,17.34-3.67,8.92,.88,17.43,2.67,24.93,7.84,10.42,1.92,20.17,5.92,28.52,12.5,13.06,5.39,24.12,14.59,35.14,23.3,7.16,6.86,10.37,16.45,14.66,25.14,3.06,6.14,8.88,10.74,11.2,17.26,3.7,8.48,6.78,15.82,11.52,23.41,4.05,10.44,4.77,21.92,10.19,31.9,5.68,19.84,11.33,39.26,9.79,59.96-1.42,9.27-5.18,17.22-5.76,26.29,.1-.47,.16-.83,.25-1.25-.58,5.14,.44,10.64-4.24,14.35-4.73,3.81-12.49,1.86-14.73-3.87Z"/>
  <path d="M782.55,223.02c-17.97-4.11-5.42-28.12,8.18-17.2,6.83,6.19,1.21,18.89-8.18,17.2Z"/>
  <path d="M662.5,238.12c-7.54-7.49,1.8-20.02,11.14-18.42,5.7,.63,10.22,5.83,9.42,11.66-1.16,9.11-14.22,12.65-20.56,6.76Z"/>
  <path d="M379.46,591.95c-11.25-4.44-5.3-18.15,1.08-24.36,4.56-9.04,10.48-17.31,16.11-25.7,9.94-10.78,21.12-20.47,33.41-28.55,5.26-5.96,12.89-8.52,18.08-14.5,8.09-5.44,13.51-11.64,22.83-14.41,6.81-2.52,12.34-7.9,19.71-8.78,.77-.31,.66-.3,1.25-.6,15.73-8.77,32.93-14.76,49.95-20.49,8.35-1.65,18.09-9.97,26.06-3.87,10.52-2.17,15.88,12.57,6.58,17.79,0,.07,0,.15,0,.22,6.54-1.62,15.36-4.73,19.2,3.05,4.87,10.59-7.2,15.11-15.43,16.84-17.27,5.96-34.15,13.06-50.89,20.39-9.23,3.02-21.46,14.47-30.26,5.39-1.97,.47-3.96,.69-5.99,.39-2.41-.34-4.48-1.82-5.88-3.78-5.26,2.2-12.04,.17-14.14-5.43-5.47,4.95-11.62,8.45-16.73,13.73-5.29,2.78-9.62,6.53-14.13,10.4-11.1,7.84-22.66,16.27-30.6,27.39-6.45,8.14-10.18,18.11-16.98,25.93-1.11,6.18-6.9,11.18-13.23,8.93Z"/>
  <path d="M755.32,535.78c-2.06-14.58,18.16-12.2,27.41-15.99,10.24-2.34,20.81-6.36,29.1-12.58,7.17-5.2,14.28-10.56,19.55-17.65,4.46-11.24,7.98-23.52,9.53-35.51,3.6-10.7-1.03-37.25,16.8-33.45,6.05,2.05,7.84,8.97,5.27,14.42-.57,5.18-1.31,10.31-1.87,15.5-2.55,13.23-4.08,26.81-9.49,39.26-1.12,5.79-5.01,12.76-9.13,16.27-4.63,5.92-10.72,10.39-16.77,14.65-7.26,5.55-14.53,9.89-22.72,13.21-11.89,3.7-24.07,6.78-36.29,9.3-5.05,.91-10.31-2.13-11.41-7.43Z"/>
  <path d="M762.68,539.12c-12.22-.84-22.74-8.01-34.03-11.79-18.51-3.44-33.24-15.93-48.6-25.86-18.62-8.23-32.65-22.75-45.16-38.42-6.2-9.19-12.56-15.67-16.14-25.26-4.31-6.03-11.73-11.63-5.43-19.32,7.43-7.47,14.73-2.89,18.84,5.14,3.5,3.98,5.08,9.05,7.58,13.62,3.58,3.44,6.22,7.61,8.56,11.93,11.62,14.79,24.8,28.63,42.21,36.18,11.85,7.85,22.2,15.84,35,21.36,8.49,1.93,16.57,5.08,24.3,8.59,4.66,1.78,9.32,4.55,14.37,4.65,9.99-2.22,20.12-1.86,30.25-2.1,12.33-2.34,16.31,15.96,3.96,18.82-6.18,1.31-12.47,.01-18.71,.67-5.76-.15-11.25,2.17-17,1.79Z"/>
  <path d="M299.79,750.37c-9.06-5.03-4.2-13.73-.63-20.68,5.61-14.09,11.2-28.16,17.25-42.07,3.61-13.18,11.2-24.45,15.71-37.23,4.39-8.3,9.85-16.03,13.04-24.93,3.19-7.68,6.79-15,11.26-21.95,2.63-6.05,5.29-12.16,8.95-17.76,2.96-3.63,4.47-7.96,6.56-12.09,4.29-6.94,9.06-12.83,12.38-19.98,8.74-10.96,16.1-23,25.5-33.49,2.36-2.5,5.17-4.07,7.98-5.92,3.55-3.29,6.9-6.49,11.39-8.47,9.51-4.11,15.67-9.47,25.08-12.58,5.67-4.79,14.15-7.7,20.47-10.62,4.77-2.93,9.22-6.25,14.8-7.59,14.5-8.01,29.19-16.11,45.33-20.11,10.59-4.54,23.42-6.66,34.34-8.94,7.66-3.31,18.78-2.1,18.54,8.47-.32,5.43-5.09,9.14-10.32,9.15-19.19,4.66-38.9,8.13-56.65,17.19-10.89,4-20.47,10.87-31.21,15.14-8.06,6.15-18.52,7.89-26.41,14.37-6.28,1.98-11.35,5.87-17.29,8.55-5.6,2.94-11.42,5.32-15.7,10.15-8.71,5.32-15.43,15.32-21.23,23.77-2.36,4.05-5.2,7.76-8.37,11.19-1.47,3.21-3.27,6.76-5.41,9.39-6.4,8.52-10.83,19.42-16.67,28.11-2.84,5.22-4.26,10.95-8.01,15.68-6.89,13.34-12.04,27.48-20.28,40.14-3.7,8.48-7.06,17.03-11.58,25.12-4.29,12.28-9.11,24.19-14.45,35.93-2.51,7.59-5.64,14.94-8.89,22.25-2.26,6.68-7.8,13.57-15.5,9.79Z"/>
  <path d="M447.76,507.62c-8.8-11.14,8.56-20.07,16.73-23.96,5.26-2.81,9.66-7.2,15.88-8.05,6.29-1.78,11.11-6.19,16.99-8.79,14.35-5.69,28.69-11.32,42.46-18.34,8.92-2.9,17.52-6.48,26.41-9.54,7-2.03,14.09-3.51,20.53-6.98,7.12-3.07,13.3-3.77,18.52-9.34,5.64-4.87,15.06-10.14,20.54-2.21,2.91,4.29,1.82,10.49-2.57,13.36-5.14,2.41-8.61,6.85-13.35,9.79-7.53,3.34-15.59,5.57-22.92,9.5-5.85,1.79-12.62,3.16-18.22,5.38-7.32,2.24-12.55,5.54-19.82,7.09-6.73,2.93-13.07,6.88-20.05,9.18-8.52,6.8-19.68,9.92-29.13,15.43-5.97,2.64-13.01,2.58-18.54,6.21-4.44,3.51-9.92,5.04-14.6,8.03-4.89,4.99-13.12,9.8-18.87,3.23Z"/>
  <path d="M1105.97,748.35c-5.8-4.37-6.53-12.31-7.19-19.03-1.92-9.25-2.69-18.73-5.11-27.86-9.39-25.47-15.63-51.89-24.53-77.53-2.27-8.06-7.31-14.77-10.56-22.41-3.5-8.35-5.72-17.18-10.19-25.12-5.79-15.74-19.34-24.69-31.18-35.03-6.19-6.24-12.31-13.02-18.59-19.02-8.53,1.54-13.97-7.62-20.34-11.8-10.55-10.74-23.13-18.44-36.32-25.51-10.02-6.48-22.09-8.4-32.16-14.65-4.36-3.01-8.18-6.9-13.21-8.85-3.91-.62-7.97-.94-11.48-2.94-5.98-3.99-13.42-6.26-19.12-10.46-3.57-.34-7.58,.66-11.38,.02-12.56-1.02-11.47-19.66,1.19-19.21,4.41,.7,8.71-1.33,13.11-.03,7.32,1.81,12.81,7.06,19.84,9.57,3.55,2.24,7,4,11.29,4.13,5.04,.94,9.41,3.82,13.66,6.56,7.54,7.42,17.78,9.41,27.12,13.55,14.71,7.83,28.92,14.94,41.42,25.33,10.32-1.82,18.03,9.77,24.79,15.73,7.32,7.28,14.88,14.13,21.57,21.89,9.25,8.32,17.84,14.91,26.3,23.71,6.28,8.19,9.44,15.85,13.76,24.72,3.27,4.28,4.45,9.58,6.55,14.5,7.21,8.38,10.89,18.49,12.83,29.21,7.59,20.44,17.33,40.22,23.46,61.17,2.12,8.49,2.67,17.18,4.51,25.7,1.94,6.99,5.65,13.41,6.41,20.7,1.91,11.13-.85,30.56-16.47,22.93Z"/>
  <path d="M493.33,637.59c-9-4.9-10.92-23.04,1.59-24.32,5.18-.37,9.49,3.42,10.26,8.4,13.92,.97,27.34-3.64,40.13-8.6,17.04-5.04,33.62-11.08,49.74-18.54,1.82-10.3,17.66-10.35,21.83-1.62,2.2,4.33,1,10.27-2.86,13.31-21.01,12.46-45.02,19.06-68,27.08-16.22,5.63-36.37,12.19-52.7,4.29Z"/>
  <path d="M510.69,643.15c-7.78-.33-11.89-10.18-6.67-15.94,9.2-6.89,20.09-11.82,29.74-18.32,.38-3.1,2.31-5.93,5.22-7.58,10.25-6.05,20.73-11.72,31.27-17.28,8.22-4.99,16.47-10.07,25.47-13.56,6.34-2.64,13.84,3.56,12.69,10.2,3.98-1.09,8.42-2.89,12.58-1.95,10.08,2.36,10,15.72,.72,19.34-18.26,10.17-38.79,15.07-57.77,23.7-16.3,5.91-30.64,12.58-46.23,19.38-2.2,1.19-4.48,2.28-7.01,2Z"/>
  <path d="M327.9,808.52c-31.59-27.56-33.09-75.03-7.19-106.98,3.84-14.6,12.26-28.52,22.47-39.82,6.77-5.43,7.09-13.58,9.96-21.21,3.02-7.21,5.83-14.35,8.93-21.53,9.72-18.44,23.95-33.53,33.56-52.15,19.32-28.14,45-53.55,74.83-70.2,14.28-11.32,31.54-18.2,48.27-25.26,6.53-6.95,13.88-13.02,22.9-17.05,17.73-6.53,34.41-13.46,53.65-12.78,28.72,1.26,54.9,21.17,65.29,47.6,16.73,6.57,29.65,19.5,44.7,29.11,12.65,2.94,39.24,9.9,47.85,13.62,7.85,3.9,16.4,5.01,25.05,5.56,8.39-5.19,18.28-8.57,25.79-10.73,7.59-3.55,15.12-7.67,22.93-10.65,27.08-62.32,99.32-66.74,147.79-25.65,14.18,10.86,23.79,24.95,37.36,36.48,29.44,27.32,50.17,63.19,63.91,100.79,6.2,12.06,11.5,23.56,14.56,36.77,20.43,41.68,20.85,82.64-19.5,112.22-20.17,14.38-45.15,15.02-68.93,15.7-27.06,1.95-40.05,3.88-61.64,3.53-53.82-.72-107.42,3.64-161.04,6.62,0,0,0,.11,0,.11-42.41,.88-80.92,2.76-122.09,6.05-35.61,5.42-72.01,5.06-107.72,.7-17.63,.35-35.24,5.71-52.9,.54-20.01-5.63-40.63-9.15-61.43-10.26-25.05,31.96-77.95,37.21-107.35,8.87Z"/>
  <path d="M333.19,820.54c-40.58-20.73-50.27-66.38-33.62-102.86,5.03-16.85,16.9-29.62,30.16-40.88,9.75-12.16,20.47-23.77,33.08-33.08,7.65-5.98,12.58-14.17,20.05-20.3l1.5-2.22c9.47-15.3,22.43-27.23,39.85-33.38,31.71-11.61,69.78,1.36,87.68,29.99,64.16-5.7,128.05,.12,192.18,1.46,38.33,.59,77.15,2.9,115.45,5.21,13.97,.08,27.83,.5,41.8,.69,23.59-9.13,53.93-5.86,74.64,8.6,33.5,22.23,43.74,70.59,20.53,103.84-25.93,37.21-71.08,40.26-111.53,36.47-32.33-.23-63.46-1.43-95.5-3.61-66.3-1.96-132.64-5.67-199.01-5.56-16.65,.5-33.19,3.04-49.84,3.54-13.62,1.27-28.99-.86-41.1,5.96-11.29,8.28-23.75,13.06-32.37,24.38-22.25,27.45-61.67,37.99-93.95,21.75Z"/>
  <path d="M612.81,464.42c-16.81-1.52-13.01-36.83,4.86-27.57,11.38-5.03,19.07,13.19,9.96,20.11-1.83,5.61-9.09,10.21-14.82,7.45Z"/>
  <path d="M851.23,494.32c-3.6-5.83,1.72-12.14,1.74-18.17,.21-4.05,.55-8.1,.61-12.16-.58-4.17-.49-9.63,4.53-10.84,1.4-5.94,7.44-6.1,12.21-4.64,6.18-8.6,14.43,2.13,18.76,7.17,8.54-6.4,14.09,7.51,20.92,10.73,5.85,4.96-1.09,14.47-7.59,10.26-1.37,1.12-3.21,1.67-5.18,1.43-.17,.54-.42,1.07-.76,1.57-1.03,1.53-2.81,2.62-4.66,2.83,.1,5.62-7.65,8.59-11.24,4.17-2.46-3.7-4.96-7.34-7.2-11.19-.37,4.78-.13,9.62,0,14.38-.24,5.41-7.32,8.06-11,4.08-2.54,3.81-8.56,4.44-11.13,.38Z"/>
  <path d="M1014.28,790.63c-7.67-13.74,16.29-12.58,24.05-15.41,14.21-5.23,29.46-7.59,42.99-14.63,6.43-3.74,9.37-11.26,12.17-17.89,1.74-3.74,7.07-4.7,10.03-1.89,.85-.07,1.73,.02,2.64,.34,1.89,.65,3.14,1.87,4.07,3.38,.44,.22,.86,.49,1.24,.8,.55-.61,1.08-1.23,1.6-1.88,.04-.06,.08-.11,.13-.17-6.68-3.77-2.14-14.12,5.2-11.71,17.63,3.21,7.04,19.63-1.82,26.64-6.69,6.93-15.06,11.02-24.22,13.42-10.24,5.27-21.01,9.69-32.58,10.77-6.3,2.44-12.92,4.01-19.36,5.77-6.44,2.7-13.34,4.42-20.32,4.81-2.19,0-4.31-.53-5.84-2.35Z"/>
  <path d="M364.15,832.21c-6.79-1.25-21.55-1.47-19.22-11.63,3.33-8.31,12.13-1.6,18.2-1.41-.89-5.42,6.56-9.4,10.58-5.42,1.26,1.23,2.5,2.49,3.86,3.61,8.33,.86,17.46,.2,25.58-1.91-8.59-5-2.89-13.65,5.77-13.64-.77-12.36,52.34-10.75,62.23-11.36,5.35-.17,10.72-.22,16.03-.79,3.72-1.02,8.55-.85,10.3,3.05,19.92,.35,37.4-10.91,57.03-11.86,6.98-1.29,11.87,7.44,5.71,11.86-6.25,2.86-13.52,3.14-20.09,5.3,.55,5.55-4.73,7.49-9.21,7.16-12.36,2.01-25.02,2.06-37.53,2.42-7.83,1.86-15.11,3.73-22.37,6.44-12,3.45-24.65,3.63-36.76,6.51-13.76,2.19-26.02,8.64-39.85,9.79-10.41-.09-20.08,2.33-30.27,1.87Z"/>
  <path d="M746.39,187.27c-1.37-5.47-4.92-10.42-4.07-16.14-.62-4.45,4.57-7.02,7.08-2.9,.81-.58,1.84-.65,2.77-.36,.41-.32,.89-.55,1.4-.64,.64-.87,1.72-1.43,2.8-1.33,.48,.04,.92,.17,1.31,.37,.54-.45,1.19-.69,1.88-.72,.16-.45,.42-.84,.72-1.22,1.06-1.35,3.2-1.4,4.46-.36,.72-.31,1.53-.34,2.27-.13,.32-1.06,1.14-1.86,2.17-2.24,1.19-.43,2.4-.09,3.25,.72,.52-.17,1.1-.22,1.63-.11,1.26-3.11,5.96-2.42,6.43,.85,.31-.03,.62-.02,.94,.06,.24-.77,.67-1.44,1.4-1.93,1.53-1.06,3.45-.51,4.46,.9,.72-.08,1.47,.08,2.18,.5,.48,.28,.85,.67,1.12,1.11,.07-.06,.14-.11,.21-.16,.91-2.49,4.63-2.74,5.97-.57,.25,0,.51,.01,.76,.08,.65,.18,1.22,.42,1.7,.87,.49-.29,1.04-.46,1.59-.5,.89-.07,1.83,.27,2.53,.86,.67-.25,1.41-.28,2.15-.04,.12,.04,.23,.08,.33,.13,3.53-4.1,9.39-.02,13.2,1.69,2.93,1.54,6.31,2.12,8.82,4.46,5.22,4.06,.05,10.23-5.14,6.52-1.3,.64-2.84,.88-4.25,.44-.7,.48-1.48,.77-2.32,.95-1.38,.31-2.79,.11-4.18-.21-2.03,2.96-6.83,1.6-9.09-.43-.39-.02-.79-.12-1.15-.27-.38,.65-.91,1.2-1.66,1.54-1.13,.51-2.55,.45-3.51-.42-1.17,.35-2.51-.05-3.38-.95-.14-.14-.26-.3-.36-.46-.52,4.16-6.33,4.4-6.82,.09-.05,0-.09,0-.14,0-.89,2.62-4.59,3.14-6.01,.7-.85,.4-1.85,.4-2.73,.06-.05,.04-.1,.08-.16,.11-1.3,.88-3.04,.7-4.17-.32-.18,.1-.38,.18-.59,.25-.58,.19-1.19,.22-1.77,.09-.31,.34-.67,.64-1.12,.86-.72,.37-1.53,.44-2.28,.26-.43,.77-1.05,1.4-2,1.73-1.4,.49-2.7-.05-3.58-1.07-.13,0-.26,0-.39-.02-.7,1.14-1.76,2-3.26,1.9-.42-.02-.81-.13-1.18-.3-.65,.31-1.42,.36-2.13,.18-.08,.05-.16,.09-.25,.13-.86,.41-1.83,.42-2.66,.09h-.01c.69,2.34,1.83,5.79-1.25,6.89-1.48,.53-3.21-.15-3.93-1.59Z"/>
  <path d="M656.71,198.93s-.02-.01-.02-.02c-5.33-.12-3.69-7.71,1.26-6.36,.15-.21,.33-.41,.54-.6,.7-.62,1.6-.87,2.49-.81,.7-.94,1.81-1.45,2.96-1.38,.66-.39,1.44-.56,2.21-.48,.04-.04,.09-.08,.13-.12,.75-.67,1.69-.9,2.66-.83,.51-.71,1.34-1.2,2.17-1.31,.1-.23,.23-.46,.39-.67,.89-1.19,2.36-1.71,3.75-1.25,.75-.96,1.87-1.41,2.98-1.26,.44-.25,.92-.37,1.42-.38,.46-.5,1.06-.87,1.74-1.01,1.46-.29,2.79,.41,3.61,1.56,.34-.15,.7-.23,1.06-.25,.54-2.93,4.65-3.53,6-.87,.33-.03,.66-.02,1,.04,0,0,.01-.01,.02-.02,.81-.76,1.99-.97,3.02-.68,.41-.5,.98-.87,1.61-1.06,.19-2.17,.2-5.11,2.44-6.27,1.68-.81,4.18-.22,5.01,1.53,3.69,3.05,4,9.56,4.14,13.86,.07,2.57,1.31,6.51-2.22,7.28-2.19,.49-3.94-1.41-4.01-3.51-.25-.26-.45-.55-.59-.87-.07,.04-.14,.07-.21,.1-.14,.37-.33,.73-.62,1.05-.6,.68-1.4,1.04-2.23,1.09-.03,2.85-3.9,4.06-5.67,1.92-.67,1.54-2.38,2.58-4.07,1.93-.69-.27-1.2-.64-1.66-1.21-.86,.6-2.01,.74-3.03,.39,0,0,0,0,0,0-.87,.39-1.79,.41-2.59,.1-.25,.13-.52,.23-.81,.29-.07,.02-.15,.03-.22,.04-1.37,1.93-4.45,1.58-5.54-.42-.28,.1-.58,.17-.89,.19-.6,.04-1.2-.08-1.73-.34-.91,.51-2.05,.53-3.03,.08-.34-.16-.63-.37-.87-.62-.25,.13-.51,.23-.8,.29-1.03,.21-1.93-.07-2.69-.62-.51,.71-1.28,1.23-2.16,1.37-.07,.01-.14,.02-.22,.03-1.37,2.96-4.82,1.96-6.73,.07Z"/>
  <path d="M638.65,204.02c-.87-2.66,1.61-4.93,3.41-6.55,.31-2.12,3.18-3.02,4.47-4.16,2.65-2.57,6.03-4.67,9.34-5.91,3.89-3.12,8.8-4.04,13.42-5.45,2.07-1.56,4.64-2.94,7.12-3.3,2.97-1.29,5.74-1.92,8.89-2.42,4.16-1.54,8.53-3.14,12.99-2.72,5.04-2.19,8.56,3.78,3.29,5.88-3.84,.74-7.69,.44-11.43,1.83-2.85,1.47-6.11,1.55-8.95,2.43-1.97,1.12-4.43,1.22-6.41,2.27-4.2,3.68-10.58,2.93-14.85,6.48,0,0,0,0,0,0,4.92,6.84-7.37,8.65-11.6,9.97-2.78,1.69-7.46,6.57-9.69,1.64Z"/>
  <path d="M627.65,210.17c-10.99-3.26,9.56-18.01,13.47-20.41,5.3-2.37,9.37-6.06,14.85-7.32,6.38-2.33,11.72-5.56,18.49-6.23,8.62-1.88,17.19-3.87,26.07-2.49,1.74,.18,3.12,1.6,3.01,3.39-.12,1.7-1.67,3.19-3.41,3.01-7.52-1.02-14.82-.02-22.04,2.02,.54,3.55-3.33,3.7-5.72,4.61-3.59,1.13-7.31,1.91-10.92,2.89-3.54,2.65-8.19,4.56-12.1,6.46-2.91,2.19-5.68,4.36-9.2,5.51-2.33,2.46-4.81,4.54-7.99,5.87-1.25,1.23-2.6,2.82-4.53,2.68Z"/>
  <path class="cls-1" d="M862.3,615.21c-7.22-8.29-7.86-19.87-10.24-30.15-.92-4.07,5.45-5.41,6.26-1.35,2.14,9.17,2.56,18.44,7.88,26.19,2.65-6.28,1.12-13.9,4.53-19.79,2.96-3.21,7.04,.06,8.61,3.04,3.16-8.7,10.56-2.79,13.7,2.51,2.8-5.48,9.23-7.78,15.04-8.14,2.63,0,6.78,.01,6.65,3.62-.24,3.33-3.74,3.16-6.23,2.78-1.97,.1-3.92,.56-5.71,1.27-2.37,.85-3.73,2.74-4.95,4.82-5.04,6.89-9.3,.43-12.72-4.04-1.52,5.51-7.38,9.04-10.19,2.37-.67,6.46-2.57,24.58-12.63,16.87Z"/>
  <path d="M1480.62,478.04s.04-.07,.05-.1c.11-.06,.24-.09,.38-.09,.09,0,.18,.01,.27,.03,0,.05,0,.1,0,.16,0,.03,0,.06,0,.09-.07,.06-.14,.12-.21,.19-.02,.02-.05,.05-.07,.07-.13-.13-.27-.25-.43-.34Z"/>
  <path d="M1463.35,337.68c0-.24,0-.49,0-.73,.16,.18,.26,.43,.26,.68,0,.26-.11,.49-.28,.67,0-.21,0-.41,.01-.62Z"/>
  <path d="M1461.62,337.59c0-.24,.09-.45,.23-.62-.04,.26-.07,.53-.11,.79-.01,.08-.03,.15-.04,.23-.05-.13-.08-.26-.08-.41Z"/>
  <path d="M1474.59,525.21l-.11-.02s-.04-.02-.06-.03c.19-.28,.51-.45,.86-.45,.01,0,.03,0,.04,0-.07,.08-.13,.15-.21,.23-.07,.07-.15,.13-.23,.19-.04,.02-.07,.04-.11,.05-.02,0-.04,.01-.06,.02-.03,0-.06,0-.09,0h-.03Z"/>
</svg>