<?xml version="1.0" encoding="UTF-8"?>
<svg id="Vektorebene" xmlns="http://www.w3.org/2000/svg" viewBox="0 0 1536 834">
  <defs>
    <style>
      .cls-1 {
        fill: #fff;
      }
    </style>
  </defs>
  <path d="M619.69,481.72c-19.13-5.97-34.72-22.16-35.42-42.89-1.83-10.53,.62-21.8-2.48-31.91-5.27-14.03-14.99-25.69-18.85-40.38-9.12-36.69-20.59-76.27-8.96-113.64,3.63-11.23,11.27-21.13,11.39-33.33-.62-41.25,13.69-84.78,47.36-110.45,8.92-7.05,13.96-18.15,24.63-23.3,9.13-3.99,16.98-10.27,26.18-14.02,10.12-4.19,21.05-4.63,31.86-4.4,32.81,.44,87.01,7.79,89.07,49.21-2.63,11-12.6,18.66-17.4,28.62-3.46,7.71-4.21,16.38-7.86,24.08-3.17,8.84-8.36,17.19-9.18,26.59,4.3,16.52,16.77,31.25,29.62,42.04,15.86,8.77,32.86,17.85,42.32,34.07,6.52,8.61,8.06,21.63,1.35,30.55-5.96,6.39-16.07,8.25-20.95,15.8-8.15,11.75-5.42,26.07-4.62,39.34,1.25,13.02,.08,26.07-4.29,38.45-4.79,11.01-14.81,18.42-23.02,26.76-15.77,16.12-34.9,30.05-56.16,37.88-28.15,11.95-59.27,21.92-90,19.23-.82,1.65-2.89,2.44-4.57,1.71Zm2.75-6.54c.19,.08,.36,.18,.53,.28,.74-1.51,2.47-2.31,4.11-1.85,15.72,.14,31.45-2.21,46.71-5.93,23.88-7.05,48.55-15.34,68.56-30.37,10.09-6.55,18.64-14.43,26.79-23.05,6.83-6.61,14.08-12.51,17.84-21.08,12.32-28.03-11.21-67.55,18.75-87.48,4.27-3.29,10.54-4.48,13.23-9.44,5.88-13.77-6.34-26.75-15.93-35.09-7.62-7.29-16.48-10.94-25.3-16.02-10.78-6.58-17.84-17.45-25.52-27.16-7.89-12.17-12.7-23.43-5.36-37.24,6.72-13.26,9.06-28.15,15.36-41.45,8.18-14.47,22.73-21.46,10.01-38.81-13.02-17.43-35.64-22.43-56.02-24.53-16.23-1.96-33.84-3.37-49.45,2.22-6.9,2.39-12.45,7.09-18.9,10.33-9.53,3.95-17.69,10.5-23.1,19.07-11.81,11.76-26.28,21.22-33.43,36.85-9.68,14.51-14.47,31.76-17.06,48.84-2.82,13.56,0,27.7-4.47,40.95-7.43,15.01-13.33,30.09-13.45,46.82-.98,15.13,1.6,30.38,4.47,45.05,3.31,17.02,6.58,34.45,13.6,50.37,4.67,11.87,14.08,21.72,15.71,34.78,.27,29.08-.2,53.59,32.32,63.96Z"/>
  <path d="M647.38,543.85c-6.01-1.22-1.1-11.47-1.16-15.74,1.61-8.89,1.58-17.24,.3-26-.86-7.09-1.54-13.91-7.37-18.53-3.26-3.21,1.78-8.3,5.01-5.03,1.84,1.95,3.84,3.73,5.25,6.02,6.7,15.89,5.83,34.18,2.85,50.85-.6,3.16-.27,8.84-4.86,8.43Z"/>
  <path d="M642.3,410.43c-19.74-1.71-38.47-14.14-45.94-32.69-1.5-2.12-1.92-5.39,.92-6.58,2.05-.92,4.18,.45,4.88,2.38,7.75,20.37,29.45,31.59,50.47,30.19,19.45,.23,43.43-11.34,44-33.03-18.4,2.87-36.79,5.18-55.39,2.43-10.29-1.89-21.11-.88-31.25-2.99-3.91-1.88-12.95-.81-12.2-6.95,1.65-4.75,7.17-1.43,10.55-.87,8.85,2.42,18.15,2.48,27.27,2.72,17.35,2.88,35.2,3.24,52.5-.46,19.82-5.41,17.59,10.53,10.76,23.08-11.08,19.02-35.93,25.21-56.58,22.77Z"/>
  <path d="M655.74,340.49c-4.34-.44-7.47-3.6-10.63-6.25-1.76,.44-3.29,1.57-4.9,2.37-3.95,2.33-7.58-3.84-3.58-6.13,5.73-3.7,10.9-4.97,15.82,.74,2.96,2.98,7.52,2.77,11.29,2.07,4.79-.7,9-4.1,9.74-9.04,.37-2.77,.76-6.87,4.55-6.41,2.68,.52,3.17,2.57,2.96,4.82-3.31,1.87-6.21,4.53-7.93,7.87-1.28,2.5-2.23,5.22-2.66,8-3.25,1.53-6.94,2.29-10.56,2.29-1.38,0-2.76-.11-4.09-.33Z"/>
  <path d="M610.47,328.66c.31-5.04-.78-10.57,2.03-15.08,4-5.83,8.26-10.92,10.57-17.41,1.96-7.66,6.21-14.72,7.7-22.53,1.94-11.9,3.31-23.86,6.57-35.48,1.18-4.41,8.11-2.55,6.84,1.88-3.26,11.52-4.48,23.05-6.4,34.74-3.85,13.26-8.07,26.88-16.1,38.2-4.45,4.29-4.28,9.91-4.1,15.67,.02,4.57-7.16,4.6-7.1,0Z"/>
  <path d="M694.19,258.38c-1.22-1.59-.83-3.71,.65-4.97,7.9-8.35,19.01-11.92,30.21-13.14,5.79-.56,34.83-1.25,32.23,7.85-.82,1.95-2.99,2.54-4.84,1.83-14.78-4.86-31.61-3.83-45.63,2.68-3.89,1.94-8.06,10.19-12.62,5.75Z"/>
  <path d="M734.88,264.78c-2.07-.06-4.1-1-5.58-2.42-.28-.27-.55-.55-.79-.83-7.82-1.53-16.53-10.88-5.54-15.37,3.08-1.13,8.12-4.47,9.95,.04,5.7-2.73,16.84-.5,15.37,7.54-2.28,5.31-7.24,10.92-13.4,11.05Zm-.57-9.42c2-.19,3.89-1.11,5.62-2.07-.32-.33-.55-.72-.69-1.13-2.12,.01-5.91,.58-6.07,3.16,.38,.06,.76,.05,1.14,.04Z"/>
  <path d="M614.18,242.55c-1.62-2.52-4.61-4.51-7.28-5.36-7.18-1.8-14.97-3.24-22.3-1.98-4.68,.02-12.57,7.08-15.23,.94-.54-1.96,.65-3.75,2.48-4.38,8.1-3.1,16.49-5.45,25.13-3.51,8.4,.52,17.79,2.57,22.82,9.96,2.79,3.61-2.87,8.02-5.62,4.32Z"/>
  <path d="M600.22,255.33c-2.6-.74-4.6-2.61-6.69-4.18-2.97-4.6-3.11-12.49,2.13-15.54,4.98-1.73,10.51-4.76,15.85-3.03,9.9,3.3,10.6,18.52-.85,19.72-2.81,2.41-6.74,4.04-10.44,3.03Zm4.64-8.85c.48,.02,.94,.13,1.36,.31,2.95-3.3,1.88-5.86-2.56-5.99-1.85,1.19-2.69,3.36-2.86,5.48,1.35,.08,2.72,.14,4.07,.2Z"/>
  <path d="M686.02,221.25c-33.72-28.58,37.51-37.3,55.68-34.04,4.54,.61,3.59,7.7-.96,7.02-9.34-.81-19.18-.24-28.42,.66-9.52,2.67-40.74,7.68-21.96,20.74,3.64,2.78-.77,8.48-4.34,5.62Z"/>
  <path d="M681.32,221.49c-5.88-7.47,22.53-20.44,28.74-20.34,9.99-2.44,20.12-.41,30.04,.99,2.49-.26,5.51,.58,5.49,3.59-.64,7.69-17.43,.59-22.69,1.29-13.54-.33-27.13,4.63-36.57,14.47-1.43,1.3-3.61,1.4-5.01,0Z"/>
  <path d="M602.33,201.45c-8.58-2.66-16.82-3.18-25.56-3.2-1.92-.04-3.55-1.59-3.55-3.55s1.63-3.58,3.55-3.55c6.11,.14,12.18,.33,18.23,1.18-4.23-5.64-27.78-8.77-24.4-16.79,2.52-4.01,6.6,.07,9.41,1.41,6.45,3.13,13.69,4.94,19.27,9.63,1.97,1.97,3.71,4.15,5.73,6.08,1.63,1.57,3.51,3.42,2.83,5.93-.64,2.4-3.28,3.22-5.51,2.86Z"/>
  <path d="M731.91,405.62c-1.88-.26-3.36-2.09-3.05-3.99,.25-1.54,.51-3.06,.77-4.59-.81-.88-1.18-2.15-.86-3.37,1.51-5.07,2.39-10.32,2.25-15.63-.3-4.61-1.22-9.22-1.09-13.83,.2-1.39,1.22-2.57,2.59-2.94,7.09-1.05,5.13,12.22,5.6,16.72,.98,8.31-.81,16.46-2.22,24.6-.31,1.91-2.09,3.3-3.99,3.03Z"/>
  <path d="M464.9,785.8c-.58-17.46,3.93-34.61,3.83-51.96,1.12-17.55,1.46-35.34,7.76-52.02,3.76-10.07,10.35-18.65,15.98-27.7,5.62-8.92,9.95-18.66,16.87-26.68,5.47-5.99,12.01-11.13,17.25-17.31,5.23-5.96,8.26-12.88,14.55-17.72,8.08-5.68,14.63-13.07,22.6-18.76,7.37-4.6,15.36-7.86,22.6-12.47,20.74-12.9,43.93-20.26,67.21-27.11,13.73-2.6,26.69-7.7,40.34-10.64,6.04-1.8,12.12-3.43,18.28-4.82,1.88-.44,3.84,.57,4.36,2.48,.97,5.59-6.66,4.85-10.22,6.21-18.09,4.81-35.97,10.13-54.07,14.6-23.9,6.81-47.1,15.31-68.02,28.79-11.29,5.27-21.29,11.45-29.94,20.38-8.99,6.1-15.15,13.43-21.07,22.23-5.57,6.99-12.8,12.59-18.78,19.09-5.31,6.15-8.69,13.61-12.97,20.45-9.68,15.41-20.5,30.43-23.01,48.94-2.3,16.22-2.35,32.7-3.47,49-1.52,11.72-3.49,23.29-2.99,35.04,.11,4.49-7.19,4.67-7.1,0Z"/>
  <path d="M800.64,371.32c-.03-2.23-.12-4.44-.24-6.64-.53-6.79-1.55-13.55-1.21-20.28-15.51-11.44,1.19-31.13,13.1-38.1,7.51-5.65,9.3-17.59,8.13-26.5-2.63-9.31-14.4-12.71-16.97-22.39-10.35-5.49-21.78-10.18-29.8-19.03-7.02-7.77-12.08-16.83-19.66-24.04-9.22-10.69-9.1-26.76-6.34-39.82,.27-12.09,6.3-22.48,12.97-32.19,4.51-7.18,8.65-14.58,12.99-21.86,4.8-6.31,8.59-11.82,9.33-19.9,2.88-8.15,15.39-9.79,20.25-2.62,4.9,7.6,2.19,17.58,.41,25.82,5-6.43,15.8-4.61,19.49,2.43,.76-.16,1.54-.26,2.34-.3,.54-.03,1.06-.02,1.58,.03,7.16-6.18,17.89-1.49,20.56,6.99,4.34,11.01,6.92,22.69,11.13,33.77,4.87,3.28,5.66,9.59,7.28,14.81,6.56,17.11,11.24,33.76,17.72,50.78,3.44,10.48,14.45,26.57-.29,33.16,1.18,9.86-10.32,17.72-18.76,11.91-8.52,2.5-14.49-5.31-17.17-12.35-1.82,.15-3.67-.11-5.42-.87,13.44,20.92,6.66,42.26-7.3,60.67-4.68,5.77-10.74,10.5-11.75,18.45-1.11,9.36,1.53,18.67,1.27,28.08-.34,15.48-23.24,15.54-23.65,0Z"/>
  <path d="M543.98,561.97c-10.26-5.81-14.3-18.33-11.28-29.41-5.22,16.33-22.64,29.71-39.94,22.83-14.31-4.06-24.91-21.27-19.35-35.63,3.95-8.86,12.47-14.34,18.78-21.37,3.05-5.11,.38-11.71-.1-17.27-.59-2.77-3.38-4.61-5.42-6.41-29.53-15.74-52.11-23.64-46.37-62.96,4.92-27.56,6.61-41.01,29.61-58.94,11.14-13.09,24.46-24.65,30.55-41.3,3.07-13.89,2.61-30.56-4.11-43.3-25.06-31.81-27.21-46.65-7.53-82.68,12.41-21.85,37.25-32.8,52.09-52.48,13.23-18.16,27.86-35.36,42.25-52.57,5.79-12.4,14.78-22.09,26.28-29.4,6.98-6.48,12.78-14.49,21.43-18.91,11.05-5.88,23.9-7.05,35.77-10.43,10.97-4.66,21.5-10.28,32.62-14.59,9.77-3.28,20.33-3.24,30.55-3.69,9.31-.58,18.35,1.25,27.14,4.16,6.92,.71,14.19,2.21,18.85,7.83,10.8,11.77-6.16,27.78-17.08,16.33-6.89-.62-13.34-3.17-20.04-4.53-17.62-1.48-34.4,1.57-49.78,10.26-14.91,9.37-32.72,8.85-48.08,16.21-7.36,5.31-12.41,13.24-19.88,18.44-4.14,3-8.75,5.5-11.44,10.03-5.15,9.67-11.36,18.52-19.33,26.12-8.57,11.61-19.24,24.34-27.61,34.85-12.93,21.23-36.9,32.11-51.8,51.68-4.85,10.39-12.91,21.59-11.24,33.47,4.56,15.59,19.32,24.92,22.92,40.63,11.67,47.16-5.66,68.9-36.53,101.41-3.97,4.39-9.3,7.24-12.96,11.9-5.97,9.11-6.43,20.35-8.83,30.45-1.2,7.84-2.27,17.57,3.43,23.87,14.41,10.78,34.21,14.89,44.4,30.81,5.18,10.45,6.2,23.3,4.19,34.72-2.46,11.52-13.33,17.65-20.42,26.16,4.8,10.97,13.47,2.42,15.42-5.55,2.89-10.03,5.21-22.14,15.38-27.43,26.44-11.14,34.12,26.9,28.91,45.65,2.32,2.4,8.68,.31,10.84-.41,12.74-3.07,26.98-11.04,39.44-3.21,5.63-2.61,12.39-1.11,15.67,4.48,7.87,16.73-16.44,25.34-28.05,15.73-16.13,3.17-33.32,13.47-49.34,4.43Z"/>
  <path d="M870.01,646.29c-16.06-2.33-24.9-14.98-32.64-27.72-15.03,1.04-30.88,5.33-45.58,.15-13.69-7.14-23.67-19.95-31.08-33.16-11.14-8.51-20.35-18.98-30.16-28.88-7.91-6.79-10.07-17.6-10.74-26.57-8.12-3.14-17.19,.32-24.12-7.18-7.03-6.49-10.51-15.33-12-24.7-1.71-10.6,4.28-20.22,8.17-29.66,8.12-13.23,27.91-1.69,20.42,11.94-3.39,8.45-8.31,16.26-1.22,24.46,12.12-.41,25.93,4.03,30.67,16.23,2.35,5.45,1.63,9.85,2.71,14.78,1.31,3.34,4.55,5.26,6.91,7.8,8.38,10.76,19.55,18.56,28.86,28.31,3.4,4.66,5.42,10.23,9.44,14.48,3.73,3.71,7.35,8.11,12.05,10.54,14.2,2.19,27.7-3.7,41.58-1.52,5.21,1.13,9.87,4.77,13.19,8.78,5.49,6.55,7.78,17.15,17.55,18.62,12.98,4.62,21.87-6.17,29.64-14.89,18.61-21.11,12.22-51.94,24.66-75.81,15.94-28.61,41.94-11.13,55.58,9.33,9.25,11.72,8.19,28.15,17.44,39.61,6.1-13.56,17.3-34.58,35.08-24.81,11.52,6.84,14.02,21.18,22.14,30.57,9.3-5.86-1.28-18.32-3.29-25.95-3.37-7.32-6.12-15.19-10.98-21.68-4.92-5.39-11.64-8.65-16.87-13.73-16.27-17.8-36.11-31.65-43.37-55.38-10.71-25.3-3.69-52.5,.23-78.4-.12-15.43-.1-30.91-.44-46.36-2.66-25.5-27.1-40.53-34.27-63.91-6.71-27.18-4.92-57.33-20.2-81.94-10.13-15.23-24.29-27.45-33.22-43.49-9.09-16.29-9.51-36.48-16.36-53.21-10.49-17.97-25.72-31.98-43.74-42.25-11.39-10.28-26.89-12.92-41.15-17.36-5.8,2.4-11.95,4.19-16.79,8.4-5.8,5.79-10.72,12.41-17.3,17.39-7.71,6.78-20.76-1.05-18.94-10.96,.5-4.24,3.54-7.08,6.65-9.66,4.34-3.58,7.57-8.31,11.55-12.24,7.33-7.48,17.01-11.48,26.59-15.15,6.41-2.95,13.25-1.06,19.57,.94,11.21,3.39,22.77,6.39,33.19,11.79,13.7,10.52,29.55,18.64,41.54,31.25,9.56,11.77,20.23,23.59,24.24,38.57,4.03,13.61,5.09,28.08,11.58,40.95,4.67,7.57,10.03,14.69,15.97,21.21,24.31,24.02,33.5,58.17,36.45,91.35,.53,13.13,4.58,25.72,13.78,35.33,12.21,14.83,22.52,32.75,24.47,52.15-.07,19.6,1.85,39.51-.85,58.97-3.27,17.52-7.42,36.59-2,53.99,3.64,13.08,11.45,24.33,21.84,32.99,6.06,5.69,11.09,12.33,17.26,17.91,6.48,5.37,13.87,9.62,19.2,16.28,6.14,7.63,9.55,17.12,13.67,25.93,6.26,14.13,14.28,30.94,5.41,45.7-9.99,16.7-32.53,19.96-44.22,2.98-4.22-5.49-6.25-12.18-9.93-17.96-9.16,21.76-23.86,36.16-44.29,15.44-9.19-9.87-11.6-23.44-15.76-35.74-3.64-8.16-10.15-14.34-16.83-20.03-6.94,9.51-7.16,22.37-9.02,33.62-1.7,11.47-5.54,22.55-9.89,33.26-5.49,11.9-15.36,21.21-24.89,29.97-9.96,9.26-24.24,11.48-37.16,8.35Z"/>
  <path d="M729.47,503.7c-7.17-6.97-18.78-15.59-9.31-25.87,4.58-4.58,12.1-4.49,16.72,0,2.59,2.54,5.2,5.05,7.79,7.59,3.02,.89,5.63,2.96,7.16,5.71,7.54,7.9,4.07,21.83-7.76,22.06-6.1,0-10.44-5.27-14.6-9.49Z"/>
  <path d="M563.43,549.39c-.17-.1-.34-.19-.51-.29-23.44,3.17-13.9-31.79-22.37-45.15-1.4-.41-2.75-1.06-3.92-1.93-3.99,2.89-8.78,4.62-12.45,7.94-2.3,11.39-8.11,21.94-16.53,29.98-10.21,8.73-25.4-3.1-18.74-15.04,7.11-6.55,7.42-15.36,12.24-23.35-.01-.31-.03-.61-.04-.92-1.09-11.91-2.87-23.69-5.13-35.42-10.15,3.52-16.26-5.07-17.23-14.25-6.83,1.24-12.77-4.1-13.85-10.65-4.99-2.68-9.15-7.41-10.23-13.13-1.81-9.82-5.59-24.04,4.15-30.72,.54-14.31-.5-28.98,18.59-26.76,.31-4.19,1.18-8.24,4.92-10.96,2.67-1.95,5.89-2.84,9.12-2.32,1.4-.63,2.87-.99,4.35-1.07,1.2-13.92,6.92-29.83,18.74-38.01,.99-16.34-.32-32.86-1.55-49.21-19.42-16.75-23.91-63.78-8.52-84.1,4.37-6.31,13.75-10.04,20.01-4.14,2.04-7.85,6.37-14.91,10.85-21.64,3.87-8.07,13.07-14.55,21.08-7.9,7.75-10.46,13.59-22.13,20.87-32.92-3.69-15.44,12.23-25.29,21.28-35.11,7.92-10.75,19.27-17.87,31.36-23.15,18.8-8.46,39.13-14.92,59.85-14.62,19.69-2.9,38.42,3.66,56.77,9.61,9.31,2.57,18.73,5.84,27.12,10.44,5.96,2.65,11.88,6.55,15.64,12.08,7.74,12.07,14.66,25,17.74,38.97,2.64,11.22-1.06,23.36,3.22,34.07,8.43,14.59,16.93,29.06,27.01,42.58,8.89,14.63,14.11,31.32,18.53,47.77,6.1,26.91,.2,56.66-14.3,79.98-6.03,9.46-18.03,13.91-20.94,25.35-3.17,18.47,4.02,38.9-6.15,56.24-11.37,17.27-21.28,36.09-39.57,46.79-15.39,12.23-31.36,23.15-50.6,28.26-.02,.05-.04,.11-.06,.16,0,0,0,0,0,.01,5.69-2.22,13.01,.47,15.21,6.41,2.65,7.03,6.6,15.07,1.29,21.88-3.75,5.01-10.14,5.53-15.81,5.43-3.66,1.27-7.53,.67-11.09-.71-8.68-4.14-15.23-14.02-16.37-23.49-.16-4.53,1.71-9.24,3.22-13.51,4.13-18.14,16.62-17.41,30.46-24.17,9.76-3.36,17.37-10.11,25.41-16.21,12.76-7.41,22.42-18.16,29.68-30.9,27.19-33.13-11.79-57.18,34.42-93.1,10.39-14.59,14.3-33.65,14-51.35-1.59-16.27-7.68-31.76-14.16-46.65-10.82-17.66-23.64-34.25-32.61-53.01-5.69-12.66-1.52-26.79-4.41-40.02-4.25-10.09-7.96-21.19-15.5-29.21-15.22-8.92-32.71-12.17-49.06-18.28-12.16-2.71-23.56-2.69-35.68-1.3-4.81-.02-9.64,.35-14.04,1.58-2.75,4.7-7.58,6.95-12.15,9.43-9.6,5.93-20.22,10.22-29.33,16.81-11.03,11.18-21.71,23.11-31.57,35.26-7.02,12.25-15.53,23.7-22,36.14-4.01,10.7-5.27,22-6.91,33.21-1.97,6.82-2.41,13.29-1.64,20.29-2.39,22.82-16,43.39-16.13,66.61-.94,7.87,4.09,14.83,4.49,22.79,3.35,21.64,5.75,44.49,12.61,65.17,11.9,7.65,15.05,23.51,22.2,35.04,6.2,15.68,.27,33.55,6.44,49.36,5.98,0,10.6,3.97,16.2,5.39,8.45,2.08,15.5,7.18,23.44,10.4,8.12,1.29,15.19,7.75,12.23,16.44,5.33,11.1,5.67,25.36,1.66,36.91-9.09,18.65-29.6,29.57-47.23,14.18-1.18-.05-2.37-.21-3.55-.5-.48-.12-.96-.25-1.43-.38-1.05,1.4-2.37,2.62-4.02,3.6-3.56,2.09-7.43,2.7-11.28,2.28-4.99,3.8-12.34,3.78-17.75,.71Z"/>
  <path d="M877.63,290.8c-14.02-15.95-17.97-38.5-25.25-58.03-1.96-7.19-8.19-12.39-11.39-18.9-7.92-13.27-13.1-27.91-18.94-42.14-12.73-2.79-15.14-19.16-19.8-29.39-6.04-17.32-11.83-34.65-20.33-50.98-11.05-11.93-22.63-23.22-32.42-36.3-12.66,6.13-26.69-2.43-40.07-1.55-11.3-2.53-22.87,1.76-34.38,2.2-12.48,4.71-25.11,8.96-36.69,15.67-5.5,3.2-13.03,1.38-16.19-4.23-5.27-10.83,2.87-16.15,11.77-20.12,5.49-3.75,11.82-5.65,18.09-7.62,14.48-7.82,30.83-8.18,46.76-10.48,5.27-6.36,14-6.91,21.64-7.16,16-2.28,34.88-4.86,46.14,9.6,4.06,.72,7.89,2.3,11.34,4.68,.91,.63,1.76,1.31,2.57,2.04,7.68-13.88,31.2-6.98,32.19,8.17,9.19,.58,17.65,4.95,25.16,10.35,10.33,6.99,22.08,12.25,29.88,22.34,11.94,13.26,14.36,31.09,21.02,46.95,7.02,6.62,10.09,16.59,14.16,25.16,8.35,6.11,10.27,17.8,15.44,26.36,12.82,.17,17.7,15.08,21.9,24.98,3.92,10.3,9.52,23.04,3.39,33.46,.91,2.23,1.9,4.43,2.95,6.6,4.48,9.46-6.46,19.88-15.77,15.41,3.73,17.89-18.97,22.26-24.27,5.36-.98,1.4-2.25,2.6-3.73,3.46-2.24,1.32-4.72,1.77-7.16,1.5,1.78,6.7,3.79,14.33-.86,20.36-4.02,5.2-11.95,6.24-17.15,2.26Z"/>
  <path d="M860.16,622.37c-8.5-6.88-13.73-16.78-22.2-23.49-1.11,.29-2.25,.47-3.41,.56-4.94,7.88-15.5,7.27-23.11,3.51-4.68-.72-9.41-.04-14.03-1.18-18.76-3.39-35.52-18.3-43.93-35.08-3.02-7.81-4.13-16.38-9.82-22.9-6.23,.93-11.75-4.08-13.69-9.7-10.7-4.89-11.03-18.61-12.43-28.72-3.32-7.88-9.73-17.51-.91-24.26-.32-10.9,6.01-22.98,18.51-18.09,1.56-2.57,3.69-4.74,6.56-5.97,.53-.22,1.06-.41,1.59-.55,1.73-10.61,11.62-20.79,22.76-15.81,1.73-2.43,3.87-4.44,6.6-5.59,.34-.14,.67-.27,1.01-.38,2.23-11.37,6.57-27.62,20.66-28.21,1.04-4.79,2.24-9.52,3.63-14.22,2.01-6.87,5.44-14.57,11.05-19.18,1.23-10.93,5.49-21.01,8.06-31.6,3.14-10.96,6.15-24.64,17.08-30.39,3.17-18.93,12.76-62.43,34-67.2,3.63-3.7,8.22-6.54,13.5-6.76,11.94-.51,18.75,7.16,22.94,17,3.7-13.58,20.25-18.14,29.2-6.63,18.18-.02,25.46,19.97,28.86,34.87,25.98,18.8,24.44,54.91,30.62,83.24,1.82,17.28,.31,34.85-2.69,51.93,1.88,12.88,4.7,25.66,5.3,38.75,11.69,13.68,19.32,30.67,23.62,48.06,10.45,3.88,19.6,11.6,25.44,21.09,5.99,7.69,6.23,18.58,12.48,25.85,6.64,9.3,16.83,18.39,18,30.27,0,5.45-3.64,10.51-8.94,11.98-9.35,2.02-18.06-6.1-23.52-12.83-7.34-.88-11.88-9.28-9.71-16.03-.17-1.67-.39-3.33-.64-4.99-3.7,3.74-9.84,4.96-14.8,3.69-3.79,4.85-5.11,10.95-6.76,16.74-6.34,13.17-21.54,7.95-26.02-3.81-5.61-13.18-12.19-26.19-14.28-40.53-5.36-4.37-10.63-8.89-15.24-14.01-1.97,2.14-4.47,3.82-7.24,4.46-2.6,.59-5.35,.96-8,.43-.63,.55-1.29,1.05-1.98,1.48-.66,2.92-1.57,5.81-3.16,8.34-1.2,1.91-2.83,3.57-4.71,4.78-.43,3.69-1.3,7.31-3.2,10.41-.7,1.15-1.53,2.17-2.48,3.06-.67,7.49-1.91,16.13-7.91,21.3,.99,11.64,.87,25.65-7.56,34.7-5.32,4.11-9.47,10.54-16.81,11.14-7.82,10.06-23.87,9.66-32.29,.48Z"/>
  <path d="M542.39,575.72c-5.71-.79-10.72-3.42-14.89-7.32-3.05-2.86-4.84-6.39-6.28-10.14-14.17,13.65-36.38,24.44-50.52,4.6-10.81-12.29-5.21-28.43,.04-41.87,3.27-8.61,11.14-14.07,17.65-20.14,12.32-9.31,26.61,8.99,14.45,18.74-4.02,3.9-9.56,7.06-11.11,12.74-1.32,5.79-6.91,13.4-.57,17.88,10.12-3.38,16.01-13.6,26.27-16.75,7.41-2.49,15.8-.2,20.77,5.86,3.39,3.54,3.6,8.84,6.34,12.57,5.2,1.62,10.54-1.84,15.62-2.74,9.58-2.25,24.06-2.36,24.37,10.73,.04,8.92-8.66,12.81-16.51,11.94-8.47,1.58-16.77,5.39-25.6,3.9Z"/>
  <path d="M576.39,554.02c0-6.45,5.38-11.83,11.83-11.83s11.83,5.38,11.83,11.83-5.38,11.83-11.83,11.83-11.83-5.38-11.83-11.83Z"/>
  <path d="M721.1,259.45c-3.79-6.47-.44-15.32,6.45-18.05,7.92-2.59,18.87,.56,20.14,9.9,1.99,13.95-19.97,19.46-26.59,8.15Z"/>
  <path d="M602.54,257.48c-10.31-4.53-11.48-21.51,.35-24.67,10.44-2.97,20.37,10.4,14.91,19.57-3.07,5.1-9.79,7.62-15.26,5.1Z"/>
  <path d="M676.91,215.29c-7.76-15.62,14.36-21.45,24.71-26.2,12.09-3.89,25.01-4.56,37.6-4.1,6.13-.57,12.24,.23,17.74,3.17,14.56,4.82,8.33,26.56-6.56,22.74-2.28-.64-4.25-1.99-6.53-2.47-11.31,.2-22.8-.37-33.82,2.73-4.82,1.78-8.59,5.22-13.86,6.36-5.73,5.29-15.2,4.79-19.28-2.22Z"/>
  <path d="M601.37,207.57c-9.69-2.64-19.01-7.62-29.4-5.82-15.39,1.83-18.54-20.88-3.2-23.43,12.24-2.25,24.15,1.55,35.55,5.21,4.97,.9,10.46,2.26,12.38,7.72,4.04,9.52-5.62,19.59-15.34,16.32Z"/>
  <path d="M596.47,253.28c-8.5-10.83,5.99-25.3,16.89-16.93,13.51,11.31-5.59,30.5-16.89,16.93Z"/>
  <path class="cls-1" d="M748.87,67.92c-3.24-3.57,1.88-6.58,3.92-9.18,4.46-5.85,9.17-11.56,14.56-16.6,1.87-1.72,3.77-3.36,5.45-5.25,3.19-3.28,8.27,1.74,5.03,5.01-6.17,6.05-12.54,11.88-17.61,18.83-2.89,2.88-6.59,10.83-11.35,7.19Z"/>
  <path class="cls-1" d="M934.79,238.98c-5.87-15.17-13.57-31.06-27.86-39.67-28.82-11.1-27.08-43.32-26.16-69.11-.59-10.83-6.4-20.74-11.85-29.4-5.67-10.32-14.02-17.61-23.65-23.88-4.45-3.27-20.39-6.82-16.73-14.17,1.15-1.48,3.51-1.9,4.97-.65,6.32,5.78,15.29,7.22,21.62,13.17,11.78,7.63,19.24,19.9,25.69,31.95,11.91,18.55,3.81,40.99,8.55,61.33,1.5,5.71,3.83,10.92,7.1,15.62,8.79,7.35,20.37,11.22,27.83,20.44,7.02,9.7,12.93,20.33,17.02,31.6,.83,1.76-.17,3.92-1.88,4.66-1.77,.77-3.82-.12-4.66-1.88Z"/>
  <path class="cls-1" d="M838.6,320.36c-1.83-1.81-.94-4.43,.81-5.89,10.01-14.85,10.99-35.33,3.53-51.37-3.26-6.23-8.4-10.5-12.36-16.13-6.1-11.22-15.37-19.26-25.2-26.96-7.97-8.29-13.82-18.44-16.98-29.49-6.4-14.3-2.73-30.51,6.67-42.59,3.17-3.21,8.86-13.85,13.86-9.85,1.37,1.39,1.35,3.64,0,5.03-3.32,3.15-7,7.08-9.41,10.76-16.42,21.57-.99,53.55,18.72,67.48,12.08,9.6,18.97,23.79,29.01,35.15,10.3,16.73,9.69,38.76,1.53,56.14-1.77,3.59-5.36,11.48-10.18,7.74Z"/>
  <path class="cls-1" d="M918.76,341.61c.46-26.02,3.9-54.11-11.81-76.53-13.84-14.81-27.99-29.62-40.65-45.45-6.11-6.69-11.62-14.03-14.45-22.75-.83-4.29-6.85-12.07-1.02-14.56,1.9-.52,3.79,.63,4.36,2.48,3.19,12.9,9.9,23.77,18.98,33.21,8.51,9.62,16.2,19.46,24.84,28.79,16.75,12.94,26.13,33.91,27.15,54.79,.9,13.3-.35,26.7-.3,40.02,.02,4.54-7.12,4.64-7.1,0Z"/>
  <path class="cls-1" d="M890.49,594.37c-4.11-3.83,2.36-7.8,4.2-11.12,5.91-7.64,10.76-15.35,15.43-23.69,7.94-19.93,11.14-41.54,12.34-62.71,1.69-12.75-5.23-23.48-12.49-33.17-2.78-3.6,2.88-8.03,5.62-4.34,7.47,10.18,14.91,21.21,14.08,34.43-.72,21.62-4.16,43.1-10.98,63.66-4.39,11.08-11.58,20.92-18.61,30.45-2.57,2.67-5.1,9.36-9.59,6.5Z"/>
  <path class="cls-1" d="M830.17,562.51c-4.53-3.18,1.32-8.22,2.49-11.73,5.75-10.29,5.44-22.62,4.7-34.04-2.25-10.41-7.39-19.05-9.45-29.31-3.25-17.53,2.91-34.95,13.84-48.62,2.77-3.6,8.46,.71,5.62,4.34-2.29,2.94-3.77,5.66-5.71,8.69-5.04,6.3-6.09,14.77-7.46,22.29-1.27,13.12,5.38,24.57,8.92,36.73,3.05,9.12,1.4,18.96,.91,28.37-.91,8.02-5.17,15.09-9.02,22.01-.94,1.69-3.21,2.23-4.84,1.28Z"/>
  <path class="cls-1" d="M488.87,449.48c-15.07-17.87-22.84-43.51-11.37-65.25,5.79-10.88,12.21-23.53,23.67-29.23,4.2-1.8,6.99,4.76,2.75,6.54-6.63,2.86-10.11,9.83-14.15,15.36-9.26,13.03-13.86,30.2-8.3,45.59,2.92,8.21,7.67,15.81,13.01,22.67,2.83,3.56-2.83,8.02-5.62,4.32Z"/>
  <path class="cls-1" d="M528.81,350.13c1.39-16.48,2.48-32.68,1-49.14-2.25-24.06-8.58-47.86-10.51-72.01-.66-11.31,2.08-22.53,6.04-33.06,5.39-10.06,13.96-18.53,20.46-27.77,11.03-16.33,28.12-34.19,41.8-48.78,3.71-3.42,8.43-6.16,11.94-9.7,7.95-10.32,17.31-19.33,25.24-29.7,3.7-3.94,7.73-7.57,11.62-11.33,1.44-1.28,3.58-1.42,5.01,0,1.31,1.31,1.44,3.73,0,5.03-4.2,4.1-8.7,8.04-12.6,12.42-4.85,6.33-10.17,13.08-16.04,18.4-5.52,7.99-12.77,14.64-20.6,20.28-12.98,13.52-25.25,27.82-37.16,42.21-9.82,15.76-25.91,28.61-27.78,47.97-3.39,32.39,10.29,64.04,10.28,96.53,.56,12.77-.57,26.07-1.59,38.64-.05,4.49-7.08,4.73-7.1,0Z"/>
  <path class="cls-1" d="M534.93,535.46c-1.06-4.41,4.25-4.54,6.97-6.03,1.2-1,1.75-2.15,2.46-3.36,4.31-10.61,9.42-21.28,12.19-32.23,4.9-16.85-.06-33.28-8.14-48.18-6.88-7.82-13.2-16.4-16.28-26.54-1.03-3.1-1.28-6.34-1.46-9.61,.02-4.58,6.99-4.67,7.1,0,.35,12.61,8.81,23.04,16.42,32.05,5.44,10.88,11.18,22.4,11.5,34.81,.03,19.47-8.08,37.97-16.35,55.16-1.95,3.88-12.26,9.9-14.41,3.92Z"/>
  <path class="cls-1" d="M1001.97,540.61c-4.88-12.78-7.97-25.98-13.7-38.28-9.15-18.17-22.8-33.22-32.98-50.66-4.9-7.74-12.6-13.65-16.04-22.27-2.81-7.15-.78-14.82,.63-22.06,1.11-10.88,7.38-19.72,13.25-28.57,1.02-1.64,3.16-2.27,4.86-1.28,4.86,3.74-2.25,9.13-3.94,12.95-6.72,9.59-9.07,22.21-8.88,33.74,1.61,8.09,8.89,13.22,13.32,19.78,14.23,23.31,33.87,43.84,42.13,70.37,2.12,6.24,3.52,12.26,6.1,18.13,.94,3.4,4.5,8.88-.39,10.63-1.85,.53-3.78-.6-4.36-2.48Z"/>
  <path d="M597.07,380.27c-1.08-3.2-3.16-5.72-4.27-8.7-.67-3.65-2.59-7.39-1.27-11.01,2.12-3.97,6.6-1.26,9.48,.22,3.45,1.62,1.87,7.14-1.89,6.71,.73,3.94,3.55,6.79,4.64,10.46,1.58,4.28-5.16,6.7-6.69,2.33Z"/>
  <path d="M664.2,336.17c-.22-4.14,4.22-3.35,6.67-4.77,2.43-2.84,2.48-7.19,2.64-10.81,.02-3.04,4.3-4.46,6.19-2.11,1.72,2.26,.66,5.36,.46,7.95-.75,3.03-.79,5.96-2.96,8.37,.07-.13,.16-.27,.22-.39-2.06,4.07-11.93,8.19-13.23,1.76Z"/>
  <path d="M649.56,340.05c-2.57-.95-5.46,.31-7.63-1.6-3.42,1.64-7.24-2.17-4.96-5.42,1.13-1.64,3.11-1.99,4.96-2.06,2.22-1.65,5.47-.64,6.72,1.73,.76,.2,1.58,.2,2.33,.4,4.53,1.01,3.12,7.87-1.42,6.95Z"/>
  <path d="M1022.9,833.99c-2.18-.13-3.5-2.14-3.29-4.21-1.84-24.81-.71-49.24,1.18-73.91-.36-12.85-2.87-25.46-4.23-38.19-2.34-18.45-3.27-37.45-9.5-54.97-9.1-22.11-19.37-43.68-29.69-65.2-9.36-13.22-18.8-26.74-25.92-41.22-.91-4.5-7.92-12.24-2.14-15.13,1.9-.67,3.79,.39,4.53,2.18,6.83,19.55,19.92,35.67,30.93,52.87,11.44,27.4,28.18,53.13,33.74,82.43,3.79,25.26,7.13,50.66,9.35,76-.54,16.45-2.6,32.87-2.18,49.37-.08,8.91,.97,17.78,.98,26.69-.02,1.94-1.93,3.42-3.77,3.29Z"/>
  <path d="M689.86,820.54c-3.52-26.19,.08-52.29,2.25-78.42-.94-14.3-4.33-28.52-5.59-42.61-1.89-11.92-2.5-24.32-7.42-35.46-6.85-16.47-15.99-30.87-29.71-42.06-7.46-8.11-15.32-15.58-25.8-19.57-12.01-7.23-21.28-13.65-35.37-7.5-7.83,1.86-15.93,1.09-23.86,2.14-4.93,1.02-22.73,5.73-22.89-1.92,1-5.72,8.51-2.19,12.42-3.05,5.68-1.15,10.63-2.64,16.39-2.65,12.64,1.33,24.35-6.36,36.5-3.47,11.46,4.05,21.51,11.34,32.45,16.61,7.3,5.34,12.83,12.75,19.72,18.59,23.52,20.92,32.94,52.44,35.29,82.86,2.43,19.67,7.18,38.38,3.11,58.08-1.07,14.29-2.7,28.54-1.61,42.89,.26,5.03,.76,10.03,1.22,15.06,.17,1.92-1.42,3.64-3.31,3.77-1.95,.13-3.61-1.37-3.79-3.31Z"/>
  <path d="M471.38,827.49c-2.97-14.09-6-28.23-7.39-42.56,.41-4.22-3.39-12.27,2.57-13.49,1.92-.13,3.62,1.39,3.77,3.31,.37,6.74,1.12,14.06,2.18,20.62,1.23,10.36,3.84,20.45,5.82,30.69,.93,4.48-6.08,5.94-6.95,1.42Z"/>
  <path d="M1445.11,505.65c-.02-.39,.3-.79,.71-.79s.77,.29,.79,.71c.02,.39-.3,.79-.71,.79s-.77-.29-.79-.71Z"/>
  <path d="M1480.62,478.04s.04-.07,.05-.1c.11-.06,.24-.09,.38-.09,.09,0,.18,.01,.27,.03,0,.05,0,.1,0,.16,0,.03,0,.06,0,.09-.07,.06-.14,.12-.21,.19-.02,.02-.05,.05-.07,.07-.13-.13-.27-.25-.43-.34Z"/>
  <path d="M1463.35,337.68c0-.24,0-.49,0-.73,.16,.18,.26,.43,.26,.68,0,.26-.11,.49-.28,.67,0-.21,0-.41,.01-.62Z"/>
  <path d="M1461.62,337.59c0-.24,.09-.45,.23-.62-.04,.26-.07,.53-.11,.79-.01,.08-.03,.15-.04,.23-.05-.13-.08-.26-.08-.41Z"/>
  <path d="M1474.59,525.21l-.11-.02s-.04-.02-.06-.03c.19-.28,.51-.45,.86-.45,.01,0,.03,0,.04,0-.07,.08-.13,.15-.21,.23-.07,.07-.15,.13-.23,.19-.04,.02-.07,.04-.11,.05-.02,0-.04,.01-.06,.02-.03,0-.06,0-.09,0h-.03Z"/>
</svg>