<?xml version="1.0" encoding="UTF-8"?>
<svg xmlns="http://www.w3.org/2000/svg" viewBox="0 0 1536 834">
  <defs>
    <style>
      .cls-1 {
        fill: #fff;
      }

      .cls-2 {
        fill: #f3c25f;
      }

      .cls-3 {
        fill: #f5cf1f;
      }
    </style>
  </defs>
  <g id="Vektorebene">
    <path class="cls-3" d="M810.51,459.67c2.4,2.53,4.99,4.91,7.73,7.08-4.23,.81-8.46,1.64-12.68,2.47,1.91-3.05,3.57-6.25,4.95-9.55Z"/>
    <path class="cls-3" d="M808.15,464.71c.9,1.15,1.78,2.31,2.66,3.48-1.75,.34-3.5,.69-5.24,1.03,.92-1.47,1.78-2.98,2.58-4.51Z"/>
    <path class="cls-2" d="M592.86,825.1c-22.51-.9-43.87-8.44-65.38-14.39-18.23-3.7-36.74-6.95-54.15-13.72-13.43-5.45-24.74-14.64-35.98-23.55-14.31-9.81-25.73-22.9-34.14-38.03-14.44-13.1-23.15-30.28-29.15-48.58-18.48-51.68-3.85-108.32,12.16-158.8,5.33-14.7,17.13-25.22,23.39-39.38,14.24-26.12,34.92-49.29,62.83-60.88,3.2-5.23,7.52-9.72,11.2-14.54,1.68-5.51,3.11-11.11,4.45-16.72,2.48-15.09,4.9-30.1,1.22-45.24-9.9-29.46-17-60.16-18.45-91.3-1.54-36.47,5.6-74.08,27.64-103.91,7.85-14,12.68-29.79,24.32-41.47,20.9-26.9,45.13-51.73,75.06-68.58,16.91-9.64,36.55-12.1,53.33-21.94,33.03-15.05,60.79-13.12,88.72,11.09,11.95,5.29,23.55,11.92,31.36,22.93,14.84,15.44,27.02,31.8,36.8,50.17,17.63,31.78,19.66,69.61,15.99,104.91-2.03,14.84-.25,29.32,.57,44.16-.08,17.61-1.41,35.27-3.42,52.76-7.81,42.22,2.17,84.76,12.98,125.46,2.74,27.16,8.78,53.9,8.05,81.33,2.45,30.49-5.14,60.7-14.57,89.47,3.04,19.23,5.23,39.34-.58,58.28-8.26,20.94-20.3,40.32-30.6,60.33-21.79,35.45-56.98,61.62-94.65,78.32-17.06,6.01-34.92,9.8-52.52,13.89-17.82,7.05-37.41,9.18-56.48,7.89Zm143.89-344.58c8.49-5.83,19.32-8.03,29.63-5.47-1.82-18.17-4.81-35.78-10.28-53.22-4.39,6.54-9.61,12.5-15.88,17.57-1.68,1.36-3.47,2.57-5.35,3.63,.82,12.49,1.47,24.99,1.88,37.5Zm-62.86-332.97c3.13-.62,6.38-.91,9.7-.85,2.36,.05,4.67,.29,6.92,.7-2.79-1.32-5.56-2.69-8.28-4.19-1.87-1.04-3.71-2.16-5.52-3.32-1.7,.88-3.39,1.77-5.09,2.63,.71,1.7,1.47,3.37,2.27,5.03Z"/>
  </g>
  <g id="Vektorebene-2" data-name="Vektorebene">
    <path d="M432.24,647.85c-4.1-.62-.01-9.55,.09-12.16,1.13-7.35,2.91-14.47,3.52-21.8,2.59-19.36,4.47-38.98,10.48-57.65,3.96-15,6.5-30.43,11.49-45.13,3.46-9.33,8.67-17.83,11.73-27.32,1.82-3.85,3.16-7.92,4.95-11.79,2.74-5.34,7.93-8.63,11.88-12.97,8.62-11.6,24.45-12.99,35.81-20.74,11.17-5.73,24.66-6.17,34.81-13.91,9.07-5.95,19.87-8.52,29.18-13.76,4.14-2.45,8.83-3.89,13.11-6,1.26-.68,2.73-1.23,4.14-.64,.1,.05,.2,.11,.3,.17,.54,.86,1.16,1.65,1.88,2.34,2.21,5.17-.25,15.61,.52,20.35,.14,10.4-.08,21.65,3.98,31.32,1.82,3.63,4.47,6.65,6.84,9.89,3.18,5.31,7.59,9.54,13.08,12.3,8.04,6.07,18.32,5.38,27.84,5.87,11.07,.69,21.45-2.72,31.09-7.79,4.06-1.9,6.12-6.06,8.86-9.34,7.46-6.97,11.62-15.71,14.89-25.15,2.82-7.59,5.18-15.36,7.6-23.05,1.91-4.73,3.05-9.14,3.31-14.16,.2-1.64,.27-3.26,.44-4.9,.41,.03,.84,.05,1.26,.05,.98,0,1.96-.1,2.91-.34,.02,.18,.02,.39-.01,.61-.24,12.34-5.25,23.68-8.81,35.27-4.28,12.06-8.16,24.84-17.86,33.73-3.34,3.96-5.92,8.86-10.88,11.06-2.38,1.12-4.77,2.14-7.14,3.29-10.6,5.36-22.84,5.29-34.41,4.46-8.22,.15-16.15-2.18-22.83-6.98-9.11-4.92-14.4-14.52-19.88-22.92-7.03-16.35-3.15-34.97-4.59-52.06-6.15,2.79-12.29,5.23-18.06,8.72-6.78,2.68-13.23,5-19.61,8.43-6.77,3.56-12.8,8.51-20.47,10.11-6.24,1.87-12.9,3.68-18.79,6.3-4.02,2.16-7.79,4.78-12.15,6.27-8.48,3.48-18,6.53-23.56,14.27-3.17,3.54-7.34,6.25-9.98,10.09-3.87,7.11-6.24,14.99-9.34,22.46-7.72,13.65-11.63,28.5-15.1,43.65-2.54,13.47-7.04,26.65-9.81,40.03-3.39,20.84-4.93,42.08-9.64,62.64-.81,2.21,.31,6.88-3.03,6.88h-.08Z"/>
    <path d="M927.28,646.74c-4.15-15.45-10.4-30.18-14.12-45.77-.86-3.54-2.09-6.55-3.86-9.62-3.3-7.62-5.95-15.63-9.26-23.23-3.97-6.54-7.52-13.23-10.19-20.42-2.54-6.85-3.69-14.11-7.33-20.53-2.99-7.28-7.4-13.99-9.55-21.57,.02,.05,.04,.12,.07,.17,0,.02,.01,.04,.02,.06-1.98-5.39-3.7-10.9-6.25-16.05-3.04-5.13-6.6-9.92-8.88-15.49-2.97-5.6-5.72-11.59-9.93-16.34-3.99-4.01-8.61-7.71-12.92-11.22-12.06-6.2-25.79-8.21-38.4-12.87-10.54-2.72-21.8-9.26-32.51-12.28-8.19-2.58-15.42-7.36-22.94-11.38-2.55-1.64-10.44-4.88-14.67-8.36,1.28-.11,2.53-.43,3.68-1.02,.42-.21,.84-.43,1.25-.66,6.26,4.07,13.24,6.86,19.63,10.74,9.53,5.98,20.4,8.29,30.53,12.94,6.6,2,12.26,5.74,19.06,6.77,13.11,5.75,29.25,5.99,40.39,15.66,3.57,3.32,7.69,6.05,10.78,9.84,5.17,6.29,8.47,13.9,12.09,21.13,5.86,8.73,10.26,18.02,13.27,27.99,1.96,6.9,6.02,12.73,8.67,19.35,3.34,6.14,5.23,12.97,7.05,19.64,2.93,8.9,8.1,16.67,12.13,25.03,3.35,9.21,7.18,18.19,11.08,27.15,3.62,14.39,8.71,28.25,13.13,42.39,.7,2.28,1.46,4.54,2.01,6.87,.26,1.11-.33,2.26-1.45,2.56-.17,.05-.35,.07-.53,.07-.91,0-1.81-.6-2.03-1.52Z"/>
    <path d="M839.57,651.49c-2.57-7.7-5.9-15.17-9.74-22.27-1.84-2.63-3.89-5.08-5.84-7.63-.69-.9-.52-2.22,.37-2.92,2.35-1.62,3.7,1.61,4.99,3.05,6.93,8.23,10.61,18.66,14.24,28.65,.74,2.58-3.27,3.73-4.01,1.12Z"/>
    <path d="M811.25,653.85c0-4.12-.66-7.98,.22-11.98,.89-4.02,5.09-25.21,11.41-20.68,1.02,1.31,.08,2.69-1.03,3.53-1.93,2.07-2.78,5.04-3.79,7.56-1.09,4.86-2.89,9.85-2.94,14.84-.27,2.56,1.9,8.39-1.79,8.82-1.16,0-2.06-.95-2.08-2.08Z"/>
    <path d="M651.9,582.87c-4.5-2.51-4.05-9.32-5.01-13.77-1.29-5.17-2.65-10.38-4.06-15.51-4.16-8.96-9.4-17.59-11.86-27.24-1.25-4.45-4.5-7.71-7.06-11.4-2.67-4.4-5.13-8.95-7.59-13.46-2.41-6.45-5.51-12.61-8.31-18.82-1.69-5.21-3.77-10.24-6.51-14.99-2.47-7.4-3.47-15.19-4.24-22.93-1.78-11.95-3.92-24.2-.16-36.01,.69-2.57,4.74-1.53,4.01,1.11-4.48,14.69,.18,29.84,1.5,44.66,1.16,5.98,2.29,12.05,5.67,17.1,3.59,9.87,8.25,19.23,12.19,28.98,2.43,3.88,4.43,8.06,6.82,11.94,4.39,5.25,7.8,11.02,9.24,17.78,3.24,9.76,9.97,17.99,11.9,28.15,5-5,10.57-8.95,15.1-14.4,3.78-3.81,8.08-7.07,10.76-11.51,4.92-7.16,7.42-15.69,11.71-23.19,4.84-9.87,8.65-20.19,13.04-30.21,6.67-12.32,10.44-25.87,15.73-38.76,.83-1.89,1.33-3.55,1.96-5.44,1-2.46,4.89-.88,3.84,1.63-5.53,14.06-9.87,28.71-16.72,42.23-5.13,10.89-9.01,22.33-14.46,33.08-4.13,7.18-6.43,15.3-11.11,22.16-4.17,6.94-11.06,11.5-16.21,17.63-3.33,3.75-7.84,6.23-11.01,10.12,3.02,4.56,6.9,9.42,6.2,15.23-.23,2.67-2.11,6.88-5.35,5.84Zm.95-5.07c.88-2.82-.28-5.78-1.68-8.22,.32,2.77,.72,5.59,1.68,8.22Z"/>
    <path d="M721.04,335.99c-.05-.22-.13-.41-.25-.6,1.74-6.17,2.75-12.57,3.48-18.99,.25,.66,.6,1.28,1.02,1.83,.74,.96,1.64,1.62,2.66,2.08-.67,5.6-1.54,11.17-3.2,16.57-.2,.68-.41,1.36-.64,2.03-.02,0-.05,0-.09-.01-.85-.09-1.65-.01-2.42,.2-.13-1.05-.3-2.09-.56-3.11Z"/>
    <path d="M606.46,330.54c-1-5.64-1.43-11.44-2.59-17.03-2.36-12.53-4.1-25.54-4.61-38.18-1.18-15.18,1.03-30.38,3.72-45.28,1.88-8.65,2.24-17.84,6.81-25.67,3.09-4.99,5.54-11.12,10.98-13.96,5.35-3.31,11.69-1.05,17.48-.81,14.6,.21,29.02,1.74,43.47,2.24,7.64-.38,15.29-.62,22.91-1.17,3.03-.35,6.15-1.47,9.13-.34,9.86,5.96,14.03,18.21,15.38,29.13,2.3,11.45,3.8,23.43,2.45,35.05-.41,6.51-.22,13.04-.07,19.55-1.59,1.55-2.61,3.69-2.77,6.03,0,.01-.01,.02-.01,.03-.27,2.26-.65,4.56-.33,6.81,.21,1.42,.65,2.67,1.17,3.98,.23,.57,.51,1.14,.74,1.71,.01,.02,.02,.05,.02,.08v-.02l.03,.1c.18,.52,.36,1.05,.52,1.57-.46,2.8-.76,5.61-1.02,8.42-.22,.51-.43,1.01-.67,1.51-.11,.2-.22,.39-.34,.59-.11,.14-.22,.28-.33,.41-.61,.66-1.24,1.3-1.79,2.01-.67,.86-1.26,1.79-1.83,2.71,0-.03,.01-.08,.01-.11,.75-6.75,1.36-13.46,2.47-20.14,.17-4.76,.05-9.47-.07-14.17,.8-.8,1.51-1.71,2.07-2.72,2.9-5.12,1.93-11.44-1.97-15.7,.02-.53,.04-1.06,.06-1.59,.03-.32,.04-.64,.04-.96,.38-10.42,.6-20.76-1.9-30.98-1.63-10.75-3.05-19.72-11.37-27.87-2.04-2.52-5.13-1.65-7.9-1.12-8.24,.87-16.45,.91-24.66,1.38-16.25-.86-32.56-1.8-48.77-2.71-8.48-2.09-13.43,1.63-17.17,9.06-5.27,7.62-6.82,16.53-8.05,25.45-3.72,17.67-5.83,36.02-3.8,53.98,.18,11.72,2.85,23.06,4.69,34.56,.85,4.77,1.19,9.75,2.1,14.55h0l-.26,.55c-1.25-.54-2.58-.87-4-.93Z"/>
    <path d="M730.34,292.68s0,.02,0,.03c0,0,0-.02,0-.03Z"/>
    <path d="M724.92,310.03c.13-.2,.26-.39,.39-.59,0,.01-.01,.02-.02,.03,.01-.01,.03-.02,.05-.03-.15,.2-.29,.41-.43,.62,0,0,0-.02,0-.03Z"/>
    <path d="M728.99,304.81c-.05,.07-.12,.12-.17,.18,.05-.07,.11-.12,.17-.18Z"/>
    <path d="M730.32,292.65c-.09-.27-.18-.54-.27-.79,.09,.27,.19,.55,.28,.83v-.03Z"/>
    <path d="M605.76,406.89c-1.03-.26-1.41-1.03-1.45-1.89,.53,.72,1.12,1.37,1.8,1.94-.11,0-.22-.02-.34-.05Z"/>
    <path d="M724.03,338.9c-.6-.06-1.18-.04-1.75,.06,.45-.68,1-1,1.7-.84,.68,.09,1.24,.51,1.54,1.08-.46-.14-.96-.25-1.49-.3Z"/>
    <path d="M598.27,288.44c-6.16-13.83-8.13-28.86-7-43.91,.77-14.19-1.21-31.62,9.23-42.71,2.9-4.41,6.12-8.45,9.71-12.3,2.54-3.86,1.81-8.76,1.1-12.98-2.08-7.96,1.13-17.8,7.79-22.73,9.48-6.89,21.46-8.36,32.82-8.58,21.12-1.19,43.74-1.83,62.71,8.95,4.13,2.54,8.41,5.06,11.81,8.54,3.64,4.78,5.6,11.17,5.98,17.11,.08,7.44-.95,14.53,1.69,21.56,4.44,10.47,7.71,21.42,9.93,32.54-.04,.7-.1,1.41-.15,2.11-.2,1.43-.47,2.85-.48,4.31,0,.77,0,1.55-.02,2.32-.03,.42-.07,.84-.1,1.26-.21,1.46-.48,2.94-.72,4.39-.15,.88-.29,1.75-.48,2.61-.23,1.12-.33,2.26-.43,3.39-.04,.36-.1,.72-.15,1.06-.24,1.21-.41,2.44-.56,3.67-.13,.87-.26,1.74-.37,2.61l.1-.81c-.22,1.32-.37,2.65-.57,3.96l.1-.52c-.07,.41-.14,.81-.22,1.23,0,.03-.01,.05-.01,.09-.63,1.76-1.27,3.52-1.11,5.44,.02,.21,.04,.41,.06,.61-.66-.1-1.34-.12-2.01-.06-.04,0-.08,0-.13,.01,3.95-12.55,4.42-25.75,2.87-38.78-1.75-6.14-2.93-12.44-5.02-18.48-1.85-5.61-4.74-10.92-5.82-16.77-1.94-7.6,.81-15.53-1.43-22.95-1.24-3.41-2.01-7.49-4.84-9.91-7.52-6.45-16.54-10.77-26.08-13.32-13.76-3.18-27.48-2.75-41.42-2.28-12.81,.82-28.11,.9-36.99,11.58-1.84,3.39-3.12,7.44-3.35,11.3,1.14,6.57,3.04,14.15-1.18,20.05-2.68,3.44-6.11,6.12-8.03,10.11-2.21,3.19-5.02,5.36-6.43,8.94-2.4,7.37-2.98,15.12-3.34,22.79-.47,14.15-1.62,28.91,2.53,42.63,1.12,2.67,1.85,5.42,3.1,7.93,.57,1.79,2.08,4.61-.51,5.44-.18,.05-.37,.08-.55,.08-.9,0-1.74-.61-2.01-1.53Z"/>
    <path d="M741.45,255.72c-.05,.29-.1,.59-.15,.88,.04-.29,.1-.59,.15-.88Z"/>
    <path d="M601.94,324.28c-2.04-1.16-4.34-1.82-6.02-3.51-2.98-3.16-5.15-7.64-6.42-11.68-3.87-11.12-4.75-24.12,.61-34.89,2.11-2.72,5.32,.5,3.09,2.99-5.03,12.99-2.72,28.41,4.9,39.83,1.48,1.88,3.92,2.51,5.94,3.66,2.35,1.32,.21,4.97-2.1,3.6Z"/>
    <path d="M730.75,269.45c.12-.5,.2-1,.26-1.5,.08-.12,.17-.25,.28-.37,.78-.78,2.17-.82,2.94,0,1.36,1.19,2.51,2.53,3.46,3.98-.26,0-.52,.01-.78,.03-1.3,.12-2.51,.51-3.57,1.12-.91-1-2.28-2.07-2.59-3.26Z"/>
    <path d="M839.04,650.2c-.59-3.5,5.84-3.64,8.16-4.34,3.18-.53,5.58-2.8,8.45-4.08,3.83-1.47,7.86-2.43,11.49-4.43,9.62-4.09,17.83-10.92,27.87-14.2,3.27-1.63,5.35-4.78,8.35-6.8,3.12-2.18,6.86-3.16,8.34-6.81,1.02-2.47,4.93-.85,3.84,1.63-1.54,4.06-5.75,6.33-9.22,8.19-3.07,2-5.22,5.15-8.44,6.96-5.19,2.24-10.34,4.63-15.35,7.26-7.96,5.51-17,9.32-26.07,12.44-3.25,2.05-6.63,3.92-10.54,4.28-2.23,.24-5.69,3.04-6.89-.1Z"/>
    <path d="M656.62,304.84c-2.07-1.01-1.21-3.8,.8-4.25,1.46-.43,3.35-1.63,4.73-.51,1.93-.49,4.24,1.09,3.14,3.16-.7,1.27-2.25,1.13-3.49,1.18-1.72,0-3.59,1.41-5.19,.42Z"/>
    <path d="M675.37,304.85c-1.61,.09-3.78,.11-4.57-1.6-.51-1.21,.25-2.68,1.53-2.98,1.92-.42,3.95-.02,5.89,.09,1.08,.11,2.16,.53,2.46,1.69,.62,2.88-3.34,3.23-5.31,2.8Z"/>
    <path d="M652.52,308.81c-3.8,.66-6.63-2.87-6.1-6.5,.02-5.76,4.8-9.64,7.16-14.47-.04,.07-.08,.16-.13,.24,.45-1.18,.38-2.53,.78-3.74,.69-2.61,4.76-1.51,4.02,1.11-.43,2.45-.84,4.82-2.42,6.85-2.22,3.8-6.83,7.74-4.74,12.31,1.52-.1,3.51,.18,3.51,2.11,0,1.13-.95,2.09-2.08,2.08Z"/>
    <path d="M663.87,337.48c-7.73-1.27-17.39,.22-23.23-5.89-.93-.5-1.47-1.55-1.15-2.56-1.12,.45-2.43-.26-2.74-1.4-.58-3.01,3.51-2.86,5.34-3.98,3.08-.87,6.15-2.2,9.36-2.08,7.19-.49,14.55-.74,21.72,.16,4.96,.72,9.94,2.03,14.91,1.79,1.87,.01,3.31,.17,4.93-.39,1.7-.69,4.06-2.44,5.18-.02,.66,1.48-.7,2.66-1.77,3.47-1.72,1.54-3.69,2.7-5.76,3.66-7.92,5.41-17.19,7.9-26.77,7.24Zm6-4.24c6.09-.35,11.81-2.08,16.85-5.57-6.28,.07-12.39-1.9-18.62-2.34-8.54,.26-17.41-.81-25.46,2.58,1.29,.8,1.97,1.86,3.03,2.61,1.2,.62,2.79,.84,4.04,1.21,6.69,.8,13.44,2.04,20.19,1.5,0,0-.03,0-.03,0Z"/>
    <path d="M655.75,380.99c-16.49-1.09-29.83-13.31-37.28-27.3-2.8-3.08-3.68-7.57-6.2-10.81-2.72-3.16-3.12-7.58-4.48-11.41-.94-1.76-1.41-3.71-2.34-5.45-1.34-2.31,2.25-4.47,3.6-2.1,.39,.76,.81,1.5,1.08,2.3,1.85,4.18,2.79,8.59,4.45,12.8,3.57,4.36,5,9.98,8.69,14.21,5.27,10.75,15.16,19.42,26.72,22.53,9.19,2.64,18.88,.18,28.09-.94,7.05-1.36,14.38-2.45,19.85-7.48-.05,.03-.07,.05-.11,.07,9.41-6.63,12.79-17.51,19.11-26.52,1.67-2.56,3-12.03,7.09-10.32,2.03,1.26,.46,3.32-.36,4.83-2.5,7.51-7.29,13.48-10.63,20.53-5.32,8.57-12.34,16.73-22.06,20.25-11.47,2.94-23.37,5.04-35.24,4.81Z"/>
    <path d="M721.25,408.21c-.96-4.59-1.58-5.48-2.99-9.59-1.34-9.75-2.81-19.78-2.22-29.63,.51-11.37,1.31-23.23,5.2-33.99,.77-2.58,4.73-1.53,4.01,1.11-.46,1.33-.95,2.65-1.33,3.71-4.59,19.21-4.91,39.31-1.37,58.69,1.26,2.58,2.07,5.23,2.53,8.04,.41,1.07,0,2.31-1.1,2.77-1,.42-2.34-.05-2.72-1.11Z"/>
    <path d="M603.79,407.7c-1.79-.78-1.25-2.69-.58-4.08,1.41-5.33,2.47-10.24,3.98-15.46,1.81-9.14,1.84-18.47,2.4-27.75,.35-8.85,.42-17.7-1.54-26.35-.38-2.64,3.8-3.26,4.13-.56,2.4,10.51,1.8,21.19,1.32,31.86-.51,10.19-.76,20.67-4.13,30.38-1.28,2.87-1.15,13.25-5.57,11.97Z"/>
    <path d="M724.6,336.21c-2.66-1.63,1.07-6.41,2.47-7.98,2.97-2.68,5.5-5.74,8.25-8.59,.01-.02,.02-.03,.04-.05,.32-.24,.62-.51,.89-.8,.37-.39,.72-.79,1.06-1.2,.31-.34,.63-.66,.97-.98,1.14-.98,2.23-1.96,3.11-3.19,.81-1.13,1.55-2.32,2.18-3.57,.85-1.65,1.77-3.28,2.24-5.09,.37-1.36,.49-2.73,.72-4.1,0-.02,.01-.04,.01-.05,.46-1.27,.88-2.51,.97-3.88,.1-1.31,.15-2.6,.07-3.92-.1-1.56-.37-3.03-.78-4.53-.12-.43-.24-.88-.36-1.31,.09-.66,.16-1.32,.23-1.98,.04-.4,.07-.8,.09-1.2,3.36,5.61,4.38,12.77,2.52,18.95-.36,3.23-2.73,5.62-3.76,8.65-2.95,5.8-6.84,10.85-11.24,15.58-1.61,2.04-4.01,3.45-5.4,5.66-.67,1.43-1.49,3.86-3.18,3.86-.33,0-.68-.09-1.08-.29Z"/>
    <path d="M738.54,271.61c.1-.17,.21-.33,.32-.5,.02,.18,.03,.37,.06,.55-.12-.02-.25-.03-.37-.05Z"/>
    <path d="M741.38,218.32c.09,.17,.18,.33,.27,.5,.07,.16,.14,.33,.21,.5,.24,.77,.45,1.55,.63,2.33-.36-1.12-.73-2.23-1.11-3.32Z"/>
    <path d="M741.82,219.21s0,.03,.02,.05c0-.02-.01-.04-.02-.05Z"/>
    <path d="M735.85,210.24c-1.07-1.92-1.34-4.63-2.47-6.41-3.51-6.15-3.1-13.63-1.12-20.17,.2-1.49,.98-2.85,.92-4.36-.11-1.51-.98-2.84-1.78-4.07-1.65-2.09-3.19-4.56-5.13-6.37-1.2-.66-2.27-1.94-1.44-3.33,2.81-3.38,6.31,2.72,7.99,4.67,3.67,4.08,5.78,8.94,3.51,14.26-1.56,5.37-2.33,11.38,.24,16.48,.12,.19,.24,.38,.35,.58-.03,.08-.05,.17-.08,.26-.66,2.42-.1,4.62,.72,6.85,.5,1.62,.88,3.26,1.47,4.86,.27,.73,.59,1.44,.93,2.14-1.3-1.85-2.94-3.46-4.12-5.4Z"/>
    <path d="M597.32,209.06c-2.82-1.48,.03-4.64,.55-6.75,1.64-3.75,5.35-6.25,6.17-10.34,1.07-4.11,2.89-8.15,3.4-12.36,1.28-7.75,3.31-17.12,10.3-21.67,2.48-1.06,4.11,2.8,1.63,3.84-4.51,3.5-5.82,9.83-7.34,14.94-.42,5.72-2.31,10.93-3.98,16.33-.91,4.1-3.87,7.1-6.12,10.32-1.17,1.97-1.41,6.65-4.62,5.68Z"/>
    <path d="M655.62,197.07c-11.16,.08-21.93-2.81-32.34-6.44-10.9-4.19-15.27-17.99-9.47-27.92,4.17-5.85,9.83-11.47,17.29-12.82,11.83-.99,24.62-8.44,35.86-1.23,3.34-1.05,6.96-1.17,10.46-.07,10.36-.15,19.95,3.46,29.2,6.14,18.63,6.97,18.57,33.48-.79,39.26-16.88,4.5-34.36,3.01-51.54,2.99,0,0,1.33,.09,1.33,.09Z"/>
    <path d="M732.74,269.96c-.69-.41-1.29-.94-1.79-1.56,.56-3.84-.6-7.82-3.19-10.87-.09-.71-.17-1.43-.24-2.14,.06-.81-.01-1.62-.2-2.42-.07-1.06-.14-2.12-.2-3.18,.1-7.98-1.21-16.32,.86-24.08-.34-10.21-6.18-18.97-8.32-28.73-2.07-1.47-4.76-1.58-6.56-3.46-4.07-3.31-6.2-12.03,.23-13.87-.08-.36-.13-.73-.1-1.1,.08-1.2,.54-2.28,1.33-3.03-2.65-2.84-5.89-4.51-9.34-6.08-1.93-1.01-2.93-3.3-4.86-4.19-3.82-.66-8.86-1.28-10.52-5.35-2.35-6.73,3.17-10.29,9.33-9.76,6.97,2.35,14.58,5.23,19.29,11.18,.5,.07,.99,.2,1.46,.39,.79,.31,1.51,.73,2.18,1.2,3.23-.23,6.04,2.21,8.1,4.42,3.47,3.32,5.76,7.85,5.05,12.75,2.17,3.28,.53,7.72,.93,11.45,.35,2.97,.74,5.9,1.19,8.81-.22,.46-.39,.92-.53,1.42-.67,2.42-.1,4.63,.7,6.87,.51,1.62,.89,3.25,1.49,4.85,.69,1.87,1.67,3.57,2.59,5.31,.08,.17,.14,.34,.21,.51,.33,1.02,.59,2.06,.82,3.11,.25,1.44,.33,2.91,.56,4.34,.24,1.55,.55,3.08,.74,4.62,.04,.57,.08,1.15,.1,1.74-.04,.98-.11,1.94-.2,2.92-.18,1.43-.47,2.84-.47,4.29,0,.78-.01,1.55-.02,2.33-.03,.41-.07,.84-.11,1.26-.2,1.46-.48,2.93-.7,4.38-.15,.88-.29,1.75-.48,2.61-.24,1.12-.34,2.27-.44,3.41-.04,.36-.1,.7-.15,1.06-.24,1.21-.4,2.43-.55,3.67-.14,.87-.26,1.74-.38,2.61,.03-.27,.07-.54,.11-.82-.22,1.32-.37,2.65-.57,3.96,.03-.17,.07-.35,.1-.51-.08,.4-.15,.81-.22,1.23-.01,.02-.01,.05-.02,.08-.49,1.38-.99,2.75-1.1,4.22-.94,.54-2.04,.84-3.18,.84-.99,0-2-.23-2.95-.69Z"/>
    <path d="M741.81,219.18l-.03-.1c.02,.07,.04,.12,.07,.17-.01-.02-.02-.05-.03-.08Z"/>
    <path d="M597.7,283.04c-3.11-1.01-2.25-5.25-3.75-7.36-3.2-5.65,.17-11.98,.43-17.9,.18-5.82,.81-11.52,.23-17.35-1.06-5.04,.27-10.63,.5-15.82,.69-6.95,3.19-13.46,5.22-20.07,1.33-2.81,2.11-6.33,4.94-8.03,1.73-4.36,3.03-8.13,3.8-12.56,.28-2.96,.96-5.78,2.35-8.44,.5-1.46,1.07-3.07,2.37-3.96,2.81-2.31,7.37-.24,7.16,3.49,.34,0,.69,.05,1.03,.14,.57,.16,1.12,.45,1.6,.83,6.95,1.71,2.24,8.78-.28,12.37,5.31-1.39,10.28-.64,15.57-.11,11.97-1.28,24.16-4.35,35.9-6.52,7.83-1.59,14.87-5.21,22.41-7.16,5.04-2.01,8.26,5.53,3.24,7.68-3.53,1.2-6.39,1.89-9.49,3.05-10.53,4.72-21.97,5.63-33.02,8.34-7.13,1.22-14.38,3.13-21.64,2.83-2.81-.47-6.02-.92-8.8-.44-1.59,.41-3.33,.44-4.83,1.14-2.93,2.42-5.49,5.22-6.9,8.77-3.22,4.42-5.59,9.99-7.38,14.9-1.75,3.48-2.94,7.13-3.69,10.94-1.39,11.51-1.78,23.14-1.74,34.67-.92,5.18,4.17,18.52-5.25,16.57Z"/>
    <path d="M723.04,329.04c-1.96-.84-1.08-2.92-.48-4.38,.63-2.96,1.54-5.94,1.79-8.93,0,0,0,0,0,0,.46-14.07,2.04-28.06,4.45-41.9,.21-.31,.42-.63,.6-.96,1.85-3.27,2.12-7.04,1.05-10.45,.17-.07,.34-.12,.53-.15,1.12-.15,2.21,.65,2.35,1.78,.26,12.96-3.51,25.8-4.13,38.75-.66,6.84-.03,13.78-2.07,20.35-.57,1.98-.75,6.02-3.25,6.02-.26,0-.54-.04-.85-.13Z"/>
    <path d="M731.13,286.61c-2.13-.61-1.54-3.12-.98-4.68,.64-2.64,1.49-5.26,2.34-7.81,.56-2.92,1.02-5.79,1.52-8.71,.18-.87,.79-1.57,1.62-1.76,.19-1.17,1.45-1.98,2.61-1.65,3.79,.94-.9,11.74-1.86,14.27-1.19,2.45-1.63,5.18-2.46,7.69-.04,1.5-1.11,3.13-2.8,2.65Z"/>
    <path d="M735.45,322.69c-3.29-2.75,2.64-6.65,4.04-8.84,.83-1.51,.76-3.36,1.75-4.83,1.11-1.97,2.6-3.23,3.28-5.24,.74-2.35,1.05-5.14,1.15-7.5-.09-2.75,.82-5.58,.03-8.21-2.68-3.37-4.41-7.39-9.29-7.39-.8,1.11-2.39,1.55-3.43,.5-1.84-1.96,1-4.73,3.11-4.67,4.41-.04,8.17,2.18,10.53,5.87,1.7,2.22,3.83,4.49,3.56,7.5-.31,4.32-.3,8.77-1.12,12.95-.39,3.5-2.95,6.03-4.56,8.93-.44,3.24-2.3,5.74-4.67,7.85-1.15,1.4-2.08,4.35-4.39,3.09Z"/>
    <path d="M700.58,326.53c-.8-2.57-2.52-4.49-4.06-6.57-.69-.91-.53-2.22,.37-2.93,3.2-2.18,6.78,6.02,7.7,8.39,.75,2.59-3.29,3.73-4.01,1.11Z"/>
    <path d="M619.22,268.53c-3.12-3.56,4.33-6.46,6.68-7.9,3.59-1.98,7.75-2.01,11.67-2.67,6.36-.02,13.16,.09,18.22,4.26,1.76,.41,4.72,.51,4.12,3.1-.5,1.79-2.42,1.62-3.86,1.25-1.93-.13-3.34-1.54-4.87-2.53-7.7-2.79-17.09-2.8-24.41,.88-1.47,.75-2.83,1.39-4.04,2.48-.69,1.26-2.21,2.14-3.5,1.13Z"/>
    <path d="M635.48,270.03c-3.43-.39-7.57-4.78-3.99-7.65,3.38-3.26,11.82-4.26,12.17,2.02,.57,4.54-4.49,6.2-8.18,5.63Z"/>
    <path d="M729.61,278.4c-1.01-.84-1.05-2.15-1.21-3.35-.38-3.37-1.05-6.71-1.32-10.09-.35-3.36-.23-6.75-.13-10.12,.12-1.59,2.31-2.36,3.42-1.29,.32-.19,.69-.3,1.07-.3,1.13,0,2.03,.92,2.08,2.03,1.37,.31,1.64,1.84,1.57,3.06,.18,1.05,.31,2.28-.66,2.97-.05,3.36-.12,7.03-.14,10.36-.04,.89-.41,1.71-1.22,2.14,.36,2.38-.15,6.34-3.44,4.57Z"/>
    <path d="M698.21,272.36c-2.21-1.62-3.63-4.89-3.19-7.59,1.04-3.22,5.26-4.4,8.22-3.29,7.88,3.34,2.76,15.81-5.03,10.88Z"/>
    <path d="M681.66,268.81c-.97-2.46,2.06-3.09,3.65-3.62,2.34-1.4,4.75-2.83,7.45-3.37,3.03-.99,6.18-2.11,9.39-2.23,3.73,.42,7.25,1.75,10.64,3.14,1.02,.24,1.96,.68,2.9,1.13,1.31,.03,2.53,1.02,2.33,2.42-.45,2.57-3.58,1.89-5.16,.81-4.04-1.13-7.92-3.66-12.15-3.2-3.2,.78-6.26,1.6-9.28,2.73-2.7,.84-7.61,5.6-9.78,2.2Z"/>
    <path d="M685.21,256.99c-2.27-.66-3.28-2.82-3.7-4.95-.98-2.21-1.89-5.81,1.88-5.11,2.58-1.55,5.9-1.36,8.82-1.8,5.73-.29,11.84-.18,17.41,1.13,3.8,1.11,8.12,1.16,11.53,3.24,2.28,1.53,1.41,5.29-1.51,5.13-8.74-1.55-17.18,.87-25.81,1.63-2.89-.09-5.73,1.42-8.62,.74Zm1.31-3.96s.06,0,.1,0c-.06-.08-.11-.16-.15-.25-.12,0-.23-.02-.35-.04-.02,0-.04,0-.05-.01,.1,.16,.28,.26,.46,.3Z"/>
    <path d="M650.4,255.08c-1.68-.51-3.1-1.02-4.63-1.79-3.57-.23-7.17-.58-10.76-.59-6.58-1.09-12.85,1.12-19.24,1.98-3.49-.85-1.57-4.8,1.06-5.41,5.15-2.15,10.29-4.29,15.91-4.76,3.68-.09,7.33-2.11,10.99-2.06,2.33-.26,5.05-1.18,7.11,.38,.07,0,.14,.02,.21,.04,2.51-1.01,3.37,2.2,3.4,4.05-.07,2.05,.98,4.5-.2,6.31-.25,1.85-2.29,2.49-3.85,1.84Z"/>
    <path d="M516.64,611.91c-.26-.06-.5-.16-.74-.29-15.65,1.57,11.02-43.94,18.79-44.48,9.08-4.17,11.35,6.72,8.5,13.23-3.67,10.02-8.52,20.05-16.73,27.14-2.75,2.27-5.97,5.33-9.83,4.4Zm11.68-15.53c-1.26,2.66-2.93,5.1-4.51,7.56-.18,.27-.36,.55-.54,.82,4.49-3.83,8.24-8.88,10.97-14.06,1.43-3.07,10.85-21.54,2.85-20.01,.02,6.09-3.11,11.6-5.14,17.19,2.03,2.8-3.12,5.6-3.63,8.5Zm-5.41-1.13c-.82,2.11-1.68,4.2-2.51,6.3,.53-.8,1.05-1.6,1.55-2.42,.67-1.07,1.31-2.16,1.92-3.26-.08-.06-.16-.12-.24-.19-.26-.23-.45-.48-.6-.75-.04,.11-.08,.21-.12,.32Z"/>
    <path d="M523.08,661.03c-.12,0-.24,.01-.36,.01-3.64,.73-7.33,.92-10.94,.63-.4,1.21-.86,2.39-1.36,3.54-.11,0-.22,0-.33,0-5.63-.08-11.25-.18-16.86-.31-1.63-.03-3.25-.05-4.88-.08-1.2-.14-2.42-.27-3.62-.4-11.46-1.23-22.91-2.7-34.41-3.46-5.42-.36-10.82-.81-16.23-1.25-1.12-5.19-1.22-10.64-.09-16.04,.37-14.86,4.79-28.94,4.9-43.76,3.01-18.57,7.77-34.86,11.4-52.84,1.19-9.66,4.1-19.2,7.82-27.9,1.1-9.52,6.28-17.72,9.37-26.59,4.45-12.66,11.04-25.23,21.82-33.64,17.06-15.91,40.56-27.41,64.35-24.51,14.53,2.58,26.09,9.04,36.96,17.48,10.94,9.5,15.69,15.82,26.52,23.58,1.67,1.25,3.16,2.62,4.62,4.03,7.2,3.98,15.15,6.96,23.21,8.74,4.89-.48,10.31-1.69,15.14-2.56,7.31-1.02,13.13-4.84,18.3-9.96,3.3-2.31,6.92-4.26,9.42-7.16,12.09-13.57,26.43-26.39,44.95-29.64,25.13-30.01,52.05-7.3,81.49-2.21,7.21,1.69,13.25,4.98,16.81,7.65,5.69,2.9,10.93,6.06,15.63,10.66,6.3,7.69,12.99,14.71,17.84,23.55,4.51,9.25,10.24,18.23,12.69,28.27,3.05,7.5,5.99,13.4,8.38,20.16,5.27,11.09,11.86,21.65,15.32,33.49,10.74,21.03,8.86,47.06-11.88,61.26-14.73,11.12-34.76,12.62-51.54,5.33-9.19-3.51-19.07-4.9-28.83-5.59-16.31,35.87-61.43,29.07-93.99,31.31-13.78,1.14-26.59,2.26-39,3-29.69,1.61-59.39,3.25-89.08,4.95-11.5,.98-22.88,2.74-29.04,3.13-5.38,.6-10.97,1.33-16.47,1.33-6.32,0-12.5-.97-18.03-4.2Z"/>
    <path d="M592.9,475.61c-4.68-1.56-5.82-7.45-6.54-11.75-3.17,3.37-8.49,2.15-10.57-1.76-2.01-3.27-1.8-7.39-1.62-11.09-3.11,4.86-11.72,17.42-16.45,7.61-.87-4.46,3.44-7.75,5.36-11.39,1.15-2.24,1.5-5.12,3.07-7.28-2.49,1.98-5.24,3.59-7.78,5.5,.59,2.25-.52,4.93-2.8,5.77-3.79,1.64-9.99,4.08-11.8-1.37-7.68,4.38-12.5-4.72-5.27-9.38-.17-2.22,1.28-4.42,3.48-5.04,2.52-1.59,4.93-3.42,7.62-4.75,3.74-2.28,8.14-3.27,11.66-5.87,3.5-1.35,6.84-3.04,10.21-4.62,6.12-1.73,11.45-5.92,17.42-7.97,2.31-.67,4.9,.59,5.78,2.82,.6,1.7,.34,3.52,.75,5.22,6.68,2.56,.77,19.39,.93,25.4,6.72,2.15,3.16,11.2,3.66,16.45-.21,5.06,.7,14.93-7.09,13.49Z"/>
    <path d="M616.12,493.96c-3.75-2.15-6.94-5.18-9-9-5.66-8.28-10.25-17.22-12.77-26.98-1.96-4.29-6.23-11.74-.4-14.72-.11-.39-.2-.78-.28-1.18-.26-1.36,.28-2.85,1.18-3.88-.42-2.13-.79-4.27-1.09-6.43-.58-4.07-1.11-8.17-1.33-12.27-1.84-.4-3.35-2.2-3.56-4.04-.28-2.66,1.62-4.46,2.87-6.57,3.94-3.9,13.77-5.79,15.06,1.41,.4,4.41-2.47,8.21-2.55,12.5,2.35,9.81,.37,20.03,4.64,29.29,2.81,7.84,5.97,15.46,11.82,21.56,2.32,3.37,5.94,6.17,7.01,10.22,.51,2.71-1.54,5.61-4.3,5.82,.21,3.65-4.22,6.23-7.3,4.28Z"/>
    <path d="M670.02,491.47c-1.04-4.28,3.5-6.94,6.14-9.51,4.9-5.06,10.79-9.12,14.95-14.64,8.59-8.67,15.04-19.05,21.52-29.32,1.14-4.58,4.09-8.26,6.42-12.3,2.25-5.33,2.7-11.33,5.64-16.39-4.62-3.17-4.75-11.13,1.9-11.39,4.16,.19,7.57,3.45,8.11,7.54,4.19-.86,6.84,3.54,10.13,5.26,9.89,5.25,21.83,6.23,30.8,13.12,3.34,2.23,4.19,7.69,.36,9.87-1.92,1.14-4.2,.8-6.32,.58-5.33-.15-10.48-1.19-14.11-5.4,10.05,10.24,.9,18.77-10.08,11.1,.56,3.28,2.56,7.16-.16,9.97-3.23,3.23-7.99,.49-8.81-3.51-1.34,6.28-8.25,13.74-13.04,5.75-5.84,8.51-12.11,16.89-19.59,24.03-7.62,6.2-15.22,12.25-24.12,16.54-3.23,2.7-8.16,3.55-9.75-1.31Z"/>
    <path d="M804.38,659.76c-3.74-2.15-1.95-6.74-1.74-10.17-7.19-2.17-2.83-11.51-1.48-16.5,3.27-7.73,5.02-17.46,11.82-22.86,11.38-6.58,25.25,6.87,34.36,12.92,3.99,2.53,11.24,1.07,12.12,7.17,5.04-4.33,10.87-7.2,17.11-9.37,1.74-1.85,4.32-2.68,6.51-3.72,6.19-3.1,10.73-7.41,17.04-9.97-1.1-1.63-1.82-3.68-2.43-5.34-.52-1.38-1.03-2.77-1.54-4.15-2.44,.18-5.01-1.64-5.22-4.19-.13-3.84-1.43-7.99-.13-11.72,1.3-3.28,5.94-4.05,8.33-1.53,1.33,1.43,2.13,3.16,2.86,4.95,3.22-2.37,7.54,.25,7.86,4.01,2.89,.73,3.91,3.99,4.43,6.85,5.24,2.61,5.67,12.83-.15,14.96-1.99,2.79-5.22,3.91-8.01,5.6-4.3,4.07-9.8,6.2-14.52,9.64-11.35,8.28-24.44,13.42-37.44,18.34-2.45,2.66-5.67,5.39-9.4,5.71-3.47,.03-5.83-3.48-5.28-6.73-4.1-2.05-6.14-6.36-8.56-10.02-1.85-3.3-5.55-7.95-2.15-11.36-2.88-1.74-5.7-4.07-9.22-4.16-.21,.87-.47,1.73-.71,2.54-.23,.79-.44,1.59-.65,2.38,1.6,4.02,2.26,12.86-3.44,13.73-2.35,5.9,.32,27.54-10.4,22.99Z"/>
    <path d="M796.27,654.74c-2.23-.61-3.55-2.57-3.69-4.79-2.58-4.31,1.07-9.88,2.48-14.17,1.53-4.11,2.3-8.5,4.79-12.22,3.86-5.84,12.16,.17,7.9,5.71,1.78,5.88-1.14,12.45-2.98,18.07-1.32,3.62-3.92,8.57-8.5,7.4Z"/>
    <path d="M714.72,669.86c-5.82-.01-11.65-.13-17.47-.11-5.57,.01-11.15-.2-16.71-.21-5.56-.01-11.13-.11-16.68-.18-11.68-.16-23.36-.34-35.03-.66l1.2,.03c-11.42-.39-22.84-.78-34.26-1.04-10.95-.25-21.93-.62-32.89-.67-4.11-.02-8.22-.05-12.33-.08-1.65-.11-3.29-.21-4.92-.29,.41,.02,.82,.05,1.24,.09-1.7-.12-3.42-.23-5.12-.35,.41,.03,.82,.05,1.24,.09-5.62-.38-11.2-.81-16.84-.9-5.35-.08-10.69-.29-16.04-.37-4.53-.06-9.05-.14-13.56-.24-1.03-7.68,12.07-7.2,17.11-9.35,9.12-2.57,18.46-4.29,27.85-5.43,15.13,.9,30.42,1.03,45.66,.48,4.25-.02,8.51-.01,12.78-.01,16.83,.02,33.64,.03,50.46-1.17,24.45,.3,48.85,0,73.25,.36-1.14-1.65-1.13-3.86,.01-5.57,1.39-2.11,3.93-2.29,6.18-2.6,3.34-.46,6.59-.74,9.52-1.04,14.91-1.89,29.98-4.36,45.05-3.16,5.73,.39,19.89,.27,16.22,9.4,2.14,.59,4.27,.18,6.39,.88,1.52,.55,2.73,1.67,4.05,2.56,5.94,.62,7.08,8.62,1.5,10.78-4.93,7.82-16,5.79-23.92,6.67-8.75,.28-17.55,.6-26.31,.59-12.7-.56-25.34,.52-37.97,1.64-3.21-.07-6.42-.13-9.63-.13Z"/>
    <path d="M644.83,666.72c-1.85,.17-3.86,.41-5.3-.95-25.74-2.31-51.94-4.65-77.53-.94-4.79,.65-9.56,1.29-14.32,1.95-.69-.04-1.37-.08-2.05-.11,.41,.02,.82,.05,1.24,.09-1.7-.12-3.42-.23-5.12-.35,.41,.03,.82,.05,1.24,.09-5.62-.38-11.2-.81-16.84-.9-5.35-.08-10.69-.29-16.04-.37-4.39-.06-8.76-.14-13.14-.23,.62-.11,1.24-.23,1.86-.35,34.14-5.18,68.49-13.05,103.11-11.15,10.53,.9,21.13,.42,31.61,1.95,5.53,1.28,14.96-1.04,17.71,4.99,1.16,3.46-1.85,6.45-5.16,6.45-.42,0-.84-.05-1.25-.15Z"/>
    <path d="M433.25,659.64c-.48-.04-.97-.08-1.45-.12-.94-4.23-1.66-8.53-2.26-12.77,.52-3.87,4-8.73,8.36-6.44,2.09,1.12,3.11,3.72,2.31,5.93-.04,4.7,.1,9.76,2.02,14.11-2.99-.23-5.99-.48-8.98-.72Z"/>
    <path d="M839.43,656.48c-2.12-3.68-6.34-9.58-.87-12.41,5.68-2.45,7.32,4.69,9.65,8.26,2.67,5.73-5.94,9.86-8.78,4.14Z"/>
    <path d="M841.53,662.81c-.24-2.4-1.99-5.02-3.11-6.9-6.21-8.77-8.9-19.28-14.91-28.14,.07,.07,.14,.14,.19,.19,.03,.03,.06,.06,.08,.08-2.87-3.21-6.44-10.2-1.19-12.88,2.29-1.08,5.47-.13,6.46,2.32,.51,1.16,.83,2.55,1.52,3.64,5.76,7.95,9.52,17.42,13.66,26.28,3.02,4.29,6.16,8.51,6.88,13.75,1.01,6.22-8.39,7.93-9.58,1.66Z"/>
    <path class="cls-1" d="M640.33,545.67c-18.44-32.42-41.56-63.95-46.31-101.92-1.84-12.22,.2-24.66-.36-36.88,.04-1.14,1.2-1.97,2.28-1.87,2.95,.49,1.41,4.06,1.89,6.1,.35,9.43-.88,18.86-.25,28.26,2.43,21.1,10.1,41.1,20.16,59.61,7.91,13.99,16.42,27.69,24.52,41.57,.64,1.11,1.23,2.24,1.83,3.36,1.18,2.36-2.59,4.25-3.76,1.77Z"/>
    <path class="cls-1" d="M638.26,572.33c-2.31-1.57-1.05-4.97-.94-7.29,.7-5.59,.77-11.21,1.91-16.73,.2-1.12,1.45-1.8,2.51-1.55,2.73,.79,1.07,4.04,.99,6.01,2.91-8.7,9.15-15.48,15.93-21.42,4.5-4.99,9.07-9.86,13.68-14.71,19.93-20.45,41.7-40.79,51.85-68.18,1.07-5.05,2.76-10.06,4.07-15.02,1.12-9.88,.86-19.9,.62-29.8-.14-1.77-1.02-4.43,1.41-4.93,2.74-.3,2.53,2.92,2.77,4.84,.19,10.33,.54,20.76-.77,31.04-1.25,4.69-2.77,8.92-3.72,13.63-9.37,27.7-30.8,48.64-50.91,68.85-5.21,5.59-10.46,10.97-15.44,16.64-7.69,6.82-15.21,14.83-16.84,25.4-.36,3.83-1.58,7.42-3.61,10.65-.42,1.7-1.46,3.56-3.5,2.6Z"/>
    <path class="cls-1" d="M648.05,557.9c-3.99-.91-7.33-5.03-11.52-4.46-1.13,.12-2.2-.52-2.41-1.69-.17-1.06,.57-2.29,1.7-2.41,4.99-1.14,8.77,2.97,13.17,4.5,2.64,.65,1.7,4.66-.94,4.06Z"/>
    <path class="cls-1" d="M627.66,186.76c-2.99-8.21-5.68-18.18-.76-26.16,.51-1.01,1.82-1.4,2.81-.87,2.91,1.99-1.09,5.14-1.14,7.69-.74,5.85,.85,12.17,2.85,17.56,1.16,2.42-2.65,4.24-3.76,1.78Z"/>
    <path class="cls-1" d="M646.73,192.2c-3.06-.96-.74-4.48-.42-6.58,2.9-10.28,1.33-20.96,1.67-31.47-.06-2.71,4.06-2.87,4.15-.15-.29,11.31,1.31,22.91-2.13,33.89-.52,1.72-.78,4.83-3.28,4.32Z"/>
    <path class="cls-1" d="M664.76,189.49c-2.63-.74-1.16-3.66-.96-5.53,.42-2.63,.62-5.32,.69-8,.02-5.6,.02-11.22-.15-16.82-.04-1.14,.88-2.11,2.01-2.16,3.74,.23,1.77,6.77,2.29,9.36-.34,3.8,1.44,24.02-3.87,23.15Z"/>
    <path class="cls-1" d="M686.75,190.5c-.85-.78-.89-2.1-.13-2.95,4.17-5.42,2.56-12.98,2.69-19.33-.06-3.03-.25-6.09-.44-9.12-.08-1.14,.9-2.11,2.01-2.16,1.16-.04,2.08,.88,2.16,2.01,.07,9.88,2.6,20.79-2.12,29.94-.85,1.4-2.59,3.03-4.16,1.61Z"/>
    <path class="cls-1" d="M700.67,188.63c-.73-1.55,.58-2.75,1.93-3.25,1.17-.55,1.63-1.8,2.02-2.95,2.79-9.12,2.37-18.92,1.63-28.33-.16-1.12,.55-2.2,1.69-2.41,4.72-1.03,2.44,16.18,2.8,19.41-.7,6.36-.55,15.48-7.3,18.52-1,.51-2.3,.02-2.78-1Z"/>
    <path class="cls-1" d="M835.43,637.87c-4.17-4.77,9.54-9.26,11.95-12.14,4.9-5.44,10.03-10.77,16.31-14.65,3.82-1.91,7.58-3.34,10.94-5.93,9.22-5.95,18.66-12.72,29.72-14.3,1.64,.14,3.1-.89,4.74-.94,1.46-.06,2.69,1.49,2.13,2.88-.48,1.34-1.8,2.16-2.92,2.93-7.27,4.91-14.82,9.34-22.35,13.81-10.35,5.55-19.94,14.55-30.54,19.41-4.78,2.75-10.36,4.22-14.71,7.59-.72,.65-1.53,1.43-2.58,1.12-.76,.66-1.85,.84-2.69,.23Z"/>
    <path class="cls-1" d="M830.86,626.55c-2.53-1.57,.09-4.29,1-6.11,2.33-4.42,7.22-6.25,10.3-9.97,4.23-6.93,11.09-10.5,17.26-15.32,4.56-3.03,7.88-7.5,12.33-10.63,8.04-4.23,16.33-9.72,25.31-11.17,3.26-2.68,6.51,1.4,2.62,3.52-9.06,5.31-19.02,9.11-26.99,16.2-7.44,5.54-15.86,10.25-22.24,17.07-2.59,4.15-6.67,8.43-11.79,8.78-2.36,1.77-3.62,4.25-4.97,6.75-.56,1-1.82,1.39-2.82,.87Z"/>
    <path class="cls-1" d="M484.72,664.41c-11.46-1.23-22.91-2.7-34.41-3.46-2.1-.14-4.2-.29-6.29-.45-3.65-1.58-6.96-3.84-10.33-5.94-.97-.6-1.13-2.02-.51-2.91,.67-.95,1.91-1.1,2.87-.52,1.05-.41,2.24,.09,3.25,.48,8.17,2.92,16.63,6.1,25.07,7.88,5.38,.62,10.67,1.52,16.04,2.23,2.57,.51,5.73,.68,7.56,2.75,.07,.1,.13,.21,.18,.31-1.14-.13-2.29-.26-3.43-.38Z"/>
    <path class="cls-1" d="M481.72,649.17c-8.83-.45-17.29-2.99-25.57-5.87-3.29-1.17-26.95-6.7-19.69-11.91,.11-2.7,3.27-2.55,4.9-1.24,6.97,4.22,14.7,6.86,22.54,8.73,7.75,2.45,15.4,5.79,23.57,5.52,.59-.13,1.19,.06,1.64,.43,1.21-.08,2.36,.8,2.39,2.05-.09,3.63-7.25,2.1-9.76,2.29Z"/>
    <path class="cls-1" d="M486.39,661.3c1.04-12.67,2.89-25.44,6.31-37.72,1.21-5.1,2.61-10.15,4.31-15.11,.35-1.07,1.65-1.61,2.68-1.21,1.1,.41,1.56,1.59,1.21,2.68-3.34,10.86-6.58,21.92-8.09,33.2-.37,6.07-2.28,12.01-2.26,18.02,.03,2.69-4.06,2.87-4.17,.14Z"/>
  </g>
</svg>