<?xml version="1.0" encoding="UTF-8"?>
<svg xmlns="http://www.w3.org/2000/svg" viewBox="0 0 1536 834">
  <defs>
    <style>
      .cls-1 {
        fill: #fff;
      }

      .cls-2 {
        fill: #f3c25f;
      }
    </style>
  </defs>
  <g id="Vektorebene-9" data-name="Vektorebene">
    <path class="cls-2" d="M691.01,518.3c2.21-3.51,4.6-6.89,7.1-10.19-.42,3.65-.84,7.29-1.25,10.94-2.4,.57-4.8,1.14-7.2,1.7,.42-.82,.88-1.62,1.35-2.44Z"/>
    <path class="cls-2" d="M697.64,458.96c2.05-.37,4.1-.74,6.16-1.11-2.15,1.91-4.27,3.82-6.34,5.79-.23,.07-.45,.14-.68,.21,.29-1.63,.57-3.27,.86-4.89Z"/>
    <path class="cls-2" d="M745.01,671.17c-.08,.64-.16,1.27-.24,1.91-.43,.11-.86,.21-1.29,.32-3.34,.82-6.69,1.67-10.03,2.49,3.86-1.58,7.71-3.15,11.56-4.72Z"/>
    <path class="cls-2" d="M774.21,395.92c2-.41,4-.82,6-1.23-.1,.63-.21,1.25-.31,1.88-2.31,1.71-4.6,3.44-6.89,5.18,.4-1.94,.8-3.88,1.2-5.83Z"/>
    <path class="cls-2" d="M605.14,744.31c5.08-1.1,10.17-2.16,15.26-3.22-4.96,1.99-9.93,3.98-14.89,6-.22,.04-.43,.08-.65,.12,.09-.97,.19-1.93,.28-2.9Z"/>
    <path class="cls-2" d="M631.72,574.35c-1.84-.22-3.67-.47-5.5-.76,.41-2.86,.82-5.72,1.23-8.58,5.85-1.08,11.69-2.2,17.52-3.36-.39,3.21-.78,6.41-1.16,9.62-1.4,1.2-2.8,2.4-4.19,3.61-2.63-.13-5.28-.29-7.91-.53Z"/>
    <path class="cls-2" d="M632.57,530.14c3.43-5.02,6.87-10.04,10.31-15.04,2.93-1.1,5.86-2.18,8.79-3.25-.88,5.92-1.73,11.85-2.55,17.77-5.66,1.16-11.32,2.29-16.99,3.38,.14-.95,.29-1.9,.43-2.86Z"/>
    <path class="cls-2" d="M783.8,659.35c3.39-.93,6.79-1.86,10.18-2.78-.13,1.4-.25,2.79-.37,4.19-3.43,.87-6.87,1.74-10.3,2.61,.16-1.34,.32-2.68,.49-4.02Z"/>
    <path class="cls-2" d="M867.65,478.08c.49-.15,.97-.29,1.46-.44-.54,.44-1.09,.89-1.63,1.33,.06-.3,.11-.6,.17-.89Z"/>
    <path class="cls-2" d="M875.89,435.74c3.71-.34,7.42-.67,11.13-1-.39,2.47-.77,4.94-1.16,7.42-.41,.08-.81,.17-1.22,.25-3.53,.74-7.05,1.54-10.55,2.39,.6-3.02,1.2-6.04,1.81-9.05Z"/>
    <path class="cls-2" d="M994.4,359.29c.29-.05,.58-.08,.88-.11-.27,.35-.53,.72-.82,1.06-.03-.32-.03-.64-.05-.96Z"/>
    <path class="cls-2" d="M605.16,744.31c5.07-1.1,10.16-2.15,15.23-3.21-4.96,1.99-9.93,3.98-14.89,6-.21,.04-.42,.08-.62,.11,.09-.97,.19-1.93,.28-2.9Z"/>
    <path class="cls-2" d="M745.04,671.15c-.08,.64-.16,1.27-.24,1.91-.44,.11-.88,.22-1.32,.33-3.34,.82-6.69,1.67-10.03,2.49,3.87-1.58,7.73-3.16,11.59-4.74Z"/>
    <path class="cls-2" d="M631.72,574.35c-1.83-.22-3.65-.47-5.47-.76,.41-2.86,.82-5.73,1.23-8.59,5.85-1.08,11.69-2.2,17.52-3.36-.39,3.2-.78,6.4-1.15,9.6-1.41,1.2-2.82,2.42-4.22,3.64-2.63-.13-5.28-.29-7.91-.53Z"/>
    <path class="cls-2" d="M634.07,520.52c1.92-1.37,3.81-2.79,5.67-4.23,3.96-1.52,7.96-3,11.97-4.47-.9,5.92-1.75,11.86-2.55,17.78-5.68,1.17-11.33,2.28-17.01,3.37,.63-4.14,1.27-8.31,1.92-12.46Z"/>
    <path class="cls-2" d="M691.01,518.3c2.22-3.53,4.62-6.92,7.13-10.24-.42,3.66-.84,7.32-1.26,10.97-2.41,.57-4.82,1.14-7.23,1.7,.42-.82,.88-1.62,1.35-2.44Z"/>
    <path class="cls-2" d="M697.67,458.95c2.04-.37,4.09-.74,6.13-1.1-2.15,1.91-4.27,3.82-6.34,5.79-.22,.07-.43,.14-.65,.21,.29-1.63,.57-3.26,.86-4.89Z"/>
    <path class="cls-2" d="M774.24,395.92c2-.41,4-.82,6-1.23-.1,.62-.21,1.24-.31,1.86-2.31,1.71-4.61,3.44-6.89,5.18,.4-1.94,.8-3.88,1.2-5.81Z"/>
    <path class="cls-2" d="M783.83,659.34c3.39-.93,6.78-1.86,10.18-2.78-.13,1.39-.25,2.79-.37,4.19-3.43,.87-6.86,1.74-10.29,2.61,.16-1.34,.32-2.68,.49-4.02Z"/>
    <path class="cls-2" d="M453.34,518.6c6.08-1.3,12.15-2.73,18.21-4.19-.69,6.32-1.37,12.66-1.92,19.01-2.01,1.12-4.01,2.24-6.02,3.36-4.44,2.48-8.91,4.9-13.39,7.34,.98-8.51,2.03-17.01,3.12-25.52Z"/>
    <path class="cls-2" d="M460.33,476.75c5.39-1.38,10.75-2.98,16.07-4.62-.13,1.22-.29,2.42-.42,3.61-4.28,1.22-8.54,2.47-12.8,3.76-.83-1.03-1.79-1.96-2.84-2.75Z"/>
    <path class="cls-2" d="M867.67,478.08c.48-.14,.96-.29,1.44-.43-.53,.44-1.07,.88-1.61,1.31,.06-.29,.11-.59,.17-.88Z"/>
    <path class="cls-2" d="M875.91,435.74c3.71-.34,7.42-.67,11.13-1.01-.39,2.47-.77,4.94-1.16,7.42-.42,.08-.83,.17-1.25,.26-3.52,.74-7.04,1.53-10.54,2.38,.6-3.02,1.2-6.03,1.81-9.05Z"/>
    <path class="cls-2" d="M248.02,640.74c.48,.05,.98,.11,1.46,.13-.45,3.03-.9,6.05-1.33,9.08-.05-3.08-.08-6.16-.13-9.21Z"/>
    <path class="cls-2" d="M994.4,359.29c.29-.05,.58-.08,.88-.11-.27,.35-.53,.72-.82,1.06-.03-.32-.03-.64-.05-.96Z"/>
    <path class="cls-2" d="M594.78,815.57c-107.08-17.19-220.9-69.82-259-178.07-15.03-49.34-31.56-85.88-40.36-135.03-4.47-80.1,15.89-160.9,49.34-233.43,40.82-59.29,84.77-120.31,148.13-157.53,64.89-48.57,165.43-76.97,246.15-69.63,71.37,4.09,130.71,22.69,185.37,70.32,29.41,21.07,60.41,41.57,81.07,72.05,34.14,39.37,55.67,86.14,78.34,132.5,29.99,54.44,34.59,117.36,18.59,177.26-4.83,51.38-23.4,99.49-46.71,145.25-57.6,86.14-159.44,140.8-259.52,160.71,0,0-.69-.43-.69-.43-66.31,11.94-133.1,27.1-200.71,16.04Z"/>
  </g>
  <g id="Vektorebene-10" data-name="Vektorebene">
    <path class="cls-2" d="M520.85,696.23c11.43-42.1,31.9-68.82,44.05-82.36,9-10.02,58.99-65.73,100.24-53.3,22.12,6.67,24.08,27.61,45.32,29.36,17.75,1.47,28.37-12.17,53.63-32.56,55.17-44.53,76.16-37.33,87.14-60.33,17.28-36.17-18.24-88.33-41.18-116.83"/>
  </g>
  <g id="Vektorebene-11" data-name="Vektorebene">
    <path class="cls-1" d="M518.94,716.34c23.55,28.89,36.47,33.24,44.05,30.64,11.73-4.02,9.99-24.48,31.6-49.8,7.74-9.07,17.46-20.45,24.9-18.19,12.35,3.74,1.16,39.76,22.03,67.03,11.28,14.74,26.16,24.67,37.35,23.94,50.99-3.33,156.4-37.39,168.54-63.2,13.82-29.39-52.56-49.33-45.97-80.44,1.67-7.9,6.52-13.12,48.84-41.18,59.22-39.26,68.85-41.71,73.74-55.54,5.88-16.66-4.1-24.4-27.77-83.31-25.18-62.69-26.2-84.57-44.05-89.06-16.05-4.03-37.72,8.01-42.14,22.98-5.73,19.44,21.56,30.49,26.81,65.12,2.02,13.34,11.47,39.69,8.5,49.7-3.83,12.93-20.78,7.92-21.91,9.67-18.92,29.42-41.62,21.93-68.95,57.46-12.54,16.31-13.65,25.55-23.94,27.77-14.92,3.22-22.45-14.06-53.63-23.94-7.12-2.26-21.27-6.6-38.3-4.79-22.63,2.4-38.22,14.38-46.92,21.07-47.98,36.86-70.4,124.43-72.78,134.07Z"/>
    <path d="M628.43,777.85c-51.2-7.79-96.67-34.74-139.38-62.66-75.94-50.24-130.25-133.15-137.29-224.78-3.79-50.66-.86-102.98,14.15-151.72,10.46-26.51,25.11-51.56,40.42-75.53,24.68-39.11,53.08-77.47,96.65-96.76,22.48-9.54,44.95-24.53,70.06-23.6,30.33-7.64,61.69-10.38,92.12-17.94,32.08-4.83,64.88,.58,96.52,6.4,27.24,3.9,54.23,11.28,79.25,22.7,74.39,30.32,135.85,90.32,174.33,160.31,27.89,47.73,33.95,106.8,27.65,160.98-5.77,58.34-41.23,106.81-75.21,152.46-77.55,102.85-209.92,167.33-339.27,150.13Zm51.09-24.07c109.24-5.82,209.73-62.46,272.84-150.87,35.67-47.33,66.57-96.68,65.84-158.11-.48-32.9-3.68-64.24-15.3-94.78-9.57-22.42-23.45-42.82-36.74-63.17-49.38-65.02-120.93-114.57-202.34-127.86-29.73-5.21-56.73-10.01-86.47-8.52-30.84,6.16-61.81,11.56-92.73,17.21-12.01,1.15-23.71,15.18-35.26,7.21-70.11,29.21-85.76,48.94-125.71,111.37-16.52,28.37-35.34,59.1-39.65,91.89-8.17,50.61-10.45,103.33,2.4,153.36,19.42,78.48,77.41,140.39,146.46,179.3,43.99,27.11,94.32,46.2,146.68,42.96Z"/>
    <path d="M672.7,530.18c-43.48,.12-93.53-30-97.29-76.51-3.46-28.19,8.37-55.63,29.49-74.2,10.26-15.74,29.2-21.72,45.61-28.93,18.45-4.94,36.11-14.1,55.17-16.03,5.6-.08,10.43,2.12,13.85,3.66,4.5,1.96,9.49,3.74,11.74,8.49,20.43,5,37.14,21.06,46.59,39.39,3.98,13.96,8.21,27.63,14.46,40.79,15.46,57.81-69.16,108.59-119.64,103.34Zm7.47-26.92c16.94,.08,32.97-5.68,47.02-14.83,18.3-7.51,32.73-23.28,39.47-41.83,2.24-16.86-11.3-31.19-13.05-47.91-5.55-11.65-16.03-22.02-28.66-25.75-6.72-.83-14.22-2.92-16.38-9.97-12.19-3.4-27.02,8.95-40.13,10.09-12.61,4.2-25.07,9.43-36.33,16.51-6.71,6.82-12.68,14.42-19.32,21.37-34.18,49.71,16.16,95.62,67.37,92.32Z"/>
    <path d="M518.06,722.32c-20.39-6.12-4.74-29.23-1.48-41.74,10.62-21.17,15.69-44.95,28.53-64.91,3.17-4.99,7.85-8.78,11.31-13.56,5.23-7.23,10.93-11.32,17.57-16.77,12.66-11.05,25.88-23.51,42.69-27.52,7.08-1.03,13.95-1.22,20.7-3.96,3.91-3.06,8.34-4.89,12.63-6.44,3.51-2.82,4.52-3.44,7.65-5.03-.19-1.2-.4-2.39-.42-3.62-.02-1.4,.05-2.75,.16-4.12-15.66-8.68-3.45-32.16,12.5-24.12,14.54,6.03,15.06,20.81,14.87,34.48-.07,9.83-6.22,18.7-15.32,21.79-6.42,5.31-14.34,7.49-21.26,12.01-5.39,1.9-10.72,3.39-16.11,5.23-3.87,.71-7.6-.61-11.39,.65-3.38,1.37-6.26,3.4-9.2,4.82-9.97,8.5-20.52,16.26-30.28,25.11-10.69,11.56-19.08,25.17-25.11,39.1-3.75,14.26-10.28,28.69-16.22,41.92-4.05,10.73-6.2,29.86-21.81,26.7Z"/>
    <path d="M846.2,724.31c-18.99-17.89-26.61-43.84-38.96-66.12-6.41-13.29-24.29-20.16-21.44-37.14,4.36-13.54,16.22-20.8,27.86-26.99,13.59-8.66,23.7-21.54,37.44-30.09,20.63-11.91,40.35-27.22,58.59-42.07-9.02-17.09-9.14-36.04-17.61-53.23-6.45-19-14.71-37.64-23.96-54.99-5.18-16.11-14.11-30.64-22.08-45.41-7.51,1.57-13.87,6.15-21.26,8.26,3.86,13.98,11.36,25.77,17.33,38.8,3.63,9.16,6.31,15.71,7.45,25.11,4.34,9.77,9.2,20.82,12.98,30.38,4.94,12.28,19.17,30.06,2.2,39.28-10.46,3.73-18.48,10.25-27.47,15.76-12.32,9.79-24.88,17.45-37.31,25.7-18.25,13.83-38.85,29.98-62.73,25.06-10.88-4.16-18.11-16.28-18.76-27.65-2-12.4-7.91-35.09,10.08-37.34,21.57-.26,11.33,26.7,18.52,38.51,13.08-.76,24.21-11.78,34.35-18.45,21.01-14.3,39.8-27.84,60.36-41.02-6.4-16.16-15.19-31.19-19.33-47.8-.67-7.26-4.32-13.53-6.69-20.25-8.55-16.84-19.34-35.02-19.8-54.06,2.12-13.39,17.04-16.33,27.66-20.71,4.34-2.35,8.72-4.5,13.62-5.3,16.22-9.1,29.2-.14,34.24,16.26,4.11,5.46,7.48,11.24,9.67,17.72,4.78,9.63,10.23,18.73,13.07,29.23,4,7.11,7.8,14.24,10.88,21.82,9.51,22.04,18.64,45.28,23.96,68.65,3.49,13.69,14.66,28.73,3.48,41.98-2.53,3.42-6.52,5.63-10.2,7.76-5.73,4.17-9.88,10.01-16.05,13.71-12.46,8.5-23.98,18.28-37.59,24.92-11.64,7.6-20.96,17.7-31.75,26.27-6.59,5.74-15.13,8.39-21.57,14.18,19.2,17.57,25.38,44.33,38.96,65.81,4.54,9.51,17.96,17.73,10.63,29.3-4.02,6.29-12.58,8.05-18.76,4.14Z"/>
    <path d="M644.34,780.48c-21.24-21.82-16.6-54.39-26.56-80.96-9.06,12.39-19.56,21.08-26.55,34.54-5.77,10.28-22.86,6.96-24.76-4.54-1.34-8.24,4.91-15.57,9.37-21.92,6.54-7.17,11.71-14.77,17.3-20.49,12.02-21.92,31.4-41.94,45.83-8.81,4.46,11.63,9.02,23.58,10.61,35.99,3.34,13.59,2.63,28.62,9.91,40.98,6.01,8.12,13.31,16.96,4.05,26.03-5.53,5.09-14.05,4.52-19.21-.82Z"/>
    <path d="M813.54,371.39c-7.12-.83-15.59-.35-20.44-6.57-3.02-2.49-6.12-4.89-9.5-6.84-26.64-13.43-56.9-64.8-6.56-65.52,.9-15.07-3.24-32.04,5.21-45.18,11.22-19.9,41.31-31.24,59.42-13.7,6.37,5.44,15.02,18.18,18.42,24.68,12.11,20.71-1.46,44.43,6.69,66,2.82,10.41,6.07,25.17-7.99,28.4-7.3,1.54-14.52-3.29-16.08-10.51-1.54-8.78-3.99-17.31-5.49-26.06-2.45-13.1,2.08-26.09,1.01-39.2-1.38-7.15-6.82-12.13-10.15-18.29-5.76-8.71-11.9-7.68-19.28-1.46-5.68,4.08-4.65,10.69-4.28,16.79-1.84,17.79,6.06,47.82-20.2,48.99,6,9.95,17.65,13.4,26,20.89,21.11-1.4,24.23,26.68,3.21,27.6Z"/>
    <path d="M704.43,600.93c-12.09,.66-23.46-5.56-30.62-15.13-6.26-9.18-15.94-23.77-2.95-31.77,17.11-8.08,18.76,10.13,27.88,18.42,9.26,2.84,21.14,3.11,29.95-1.67,6.63-17.31,32.25-7.83,25.56,9.44-7.25,19.53-32.02,22.59-50.18,20.67,0,0,.37,.03,.37,.03Z"/>
  </g>
</svg>